<?xml version="1.0" standalone="no"?>
<!DOCTYPE svg PUBLIC "-//W3C//DTD SVG 1.1//EN" "http://www.w3.org/Graphics/SVG/1.1/DTD/svg11.dtd" >
<svg xmlns="http://www.w3.org/2000/svg" xmlns:xlink="http://www.w3.org/1999/xlink" version="1.1">
<metadata>
Created by FontForge 20201107 at Mon Aug 29 13:27:26 2022
 By 
Copyright (c) 2021 by www.fontiran.com (Moslem Ebrahimi). All rights reserved.
</metadata>
<defs>
<font id="IRANYekanXFaNum-Thin" horiz-adv-x="0" >
  <font-face 
    font-family="IRANYekanXFaNum Thin"
    font-weight="100"
    font-stretch="normal"
    units-per-em="1000"
    panose-1="0 0 0 0 0 0 0 0 0 0"
    ascent="800"
    descent="-200"
    x-height="528"
    cap-height="711"
    bbox="-83 -465 2087 956"
    underline-thickness="10"
    underline-position="-218"
    unicode-range="U+000D-FEFF"
  />
<missing-glyph horiz-adv-x="255" 
d="M38 429h179v-433h-179v433zM208 4v417h-161v-417h161z" />
    <glyph glyph-name="uni06AA" unicode="&#x6a9;&#x621;&#x621;" horiz-adv-x="1110" 
d="M101.5 19.5q-31.5 19.5 -48 53t-13.5 72.5q2 27 32 157l30 -6l-5 -22q-24 -97 -27 -131q-4 -49 25 -81t79 -32l767 1q43 0 71 28.5t28 71.5v44q0 43 -28 70.5t-71 27.5h-624l-15 23l191 273l24 -18l-174 -248h598q35 0 64.5 -17t47 -46.5t17.5 -64.5v-44q0 -35 -17.5 -65
t-47 -47.5t-64.5 -17.5l-767 -1q-41 0 -72.5 19.5z" />
    <glyph glyph-name="uni06BE" unicode="&#x647;&#x621;&#x621;" horiz-adv-x="647" 
d="M417 445l152 -235q28 -44 28 -90q0 -35 -17 -60q-23 -32 -65 -46t-88 -14q-95 0 -179 29q-82 -29 -178 -29h-30v30h30q69 0 136 16q-55 27 -86.5 66t-31.5 89q0 45 21.5 83t59 60.5t81.5 22.5q43 0 79.5 -22t58 -60t21.5 -83q0 -50 -31.5 -89.5t-86.5 -66.5
q67 -16 136 -16q41 0 76 11t53 37q12 17 12 41q0 38 -25 75l-152 235zM153 118q35 -36 95 -58q60 22 95.5 58.5t35.5 83.5q0 58 -37 96.5t-92 38.5q-57 0 -94.5 -39t-37.5 -97q0 -47 35 -83z" />
    <glyph glyph-name="uni06C0" unicode="&#x647;&#x654;" horiz-adv-x="447" 
d="M237 395q61 -66 92 -103.5t49.5 -74t18.5 -72.5q0 -42 -23.5 -77t-63.5 -55.5t-86 -20.5t-86.5 20.5t-64 55.5t-23.5 77q0 39 17.5 75.5t44 68.5t73.5 81l17 18l-20 22l-24 27l22 20zM121.5 57q41.5 -35 102.5 -35t102 35.5t41 87.5q0 30 -16 61t-44 64.5t-85 95.5
l-26 -28q-61 -66 -88.5 -106.5t-27.5 -86.5q0 -53 41.5 -88zM136 556l52 -11q14 -2 19 -2q29 0 47 19t18 50l-110 28q-6 20 -6 38q0 45 31 78t76 34q29 0 47 -6l-8 -28q-20 4 -39 4q-32 -2 -55 -24.5t-23 -54.5q0 -5 2 -15l83 -22q17 -4 22.5 -11.5t5.5 -24.5
q0 -41 -27 -67.5t-69 -26.5q-15 0 -23 2l-50 10z" />
    <glyph glyph-name="uni06D2" unicode="&#x649;&#x621;&#x621;" horiz-adv-x="856" 
d="M62 0q-12 41 -12 80q0 60 25 111.5t70.5 82t103.5 30.5q15 0 23 -1l66 -7l-4 -29l-64 6q-6 1 -18 1q-51 0 -90 -25.5t-60.5 -68.5t-21.5 -96q0 -27 6 -54h720v-30h-744z" />
    <glyph glyph-name="uni06D3" unicode="&#x626;&#x621;&#x621;" horiz-adv-x="856" 
d="M62 0q-12 41 -12 80q0 60 25 111.5t70.5 82t103.5 30.5q15 0 23 -1l66 -7l-4 -29l-64 6q-6 1 -18 1q-51 0 -90 -25.5t-60.5 -68.5t-21.5 -96q0 -27 6 -54h720v-30h-744zM206 405q-26 11 -42 33t-16 51q0 38 27.5 62t66.5 24q22 0 60 -9l-6 -27q-28 6 -50 6q-30 0 -49 -16
t-19 -39q0 -33 28.5 -51.5t67.5 -13.5l62 18l2 -31l-208 -61l-2 31z" />
    <glyph glyph-name="uni06C0.fina" unicode="&#xfeea;&#x654;" horiz-adv-x="584" arabic-form="final" 
d="M393 161q17 -71 66.5 -101t109.5 -30h20l2 -16l-2 -14h-20q-67 0 -126.5 35.5t-79.5 117.5l-3 14q-6 -27 -19 -48q-21 -38 -57 -58.5t-77 -20.5q-43 0 -80 22q-36 21 -56.5 57t-20.5 77q0 44 21 79q14 23 34 41t65 41t131 58l-17 74l29 8q49 -211 80 -336zM79 486l52 -11
q14 -2 19 -2q29 0 47 19t18 50l-110 28q-6 20 -6 38q0 45 31 78t76 34q29 0 47 -6l-8 -28q-20 4 -39 4q-32 -2 -55 -24.5t-23 -54.5q0 -5 2 -15l83 -22q17 -4 22.5 -11.5t5.5 -24.5q0 -41 -27 -67.5t-69 -26.5q-15 0 -23 2l-50 10zM79 195q0 -33 17 -61.5t47 -45.5
q31 -19 65 -19q33 0 61 17t46 47q15 27 21.5 46t6.5 44q0 13 -1 20l-34 142q-81 -33 -122 -54t-59 -36t-30 -36q-18 -30 -18 -64z" />
    <glyph glyph-name="uni06C1.fina" unicode="&#xfeea;&#x621;&#x621;" horiz-adv-x="490" arabic-form="final" 
d="M373.5 60.5q48.5 -30.5 109.5 -30.5h12l2 -16l-2 -14h-12q-69 0 -127 36t-78 118l-36 149l-49 -13q-55 -15 -84.5 -50t-29.5 -85q0 -26 9 -56l17 -57l-28 -8l-17 57q-9 32 -9 62q0 60 35.5 104t98.5 61l67 18l16 -10l40 -164q17 -71 65.5 -101.5z" />
    <glyph glyph-name="uni06C1.medi" unicode="&#xfeec;&#xfe8c;&#xfe8c;&#xfe8c;&#xfe8c;" horiz-adv-x="408" arabic-form="medial" 
d="M75 17q-30 -17 -60 -17h-20v30h20q26 0 51.5 15t42 44.5t16.5 71.5v15h30v-292q35 66 98.5 106t139.5 40h20l2 -16l-2 -14h-20q-66 0 -120.5 -32t-86 -86.5t-31.5 -119.5v-15h-30v317q-20 -30 -50 -47z" />
    <glyph glyph-name="uni06BE.fina" unicode="&#xfeea;&#x621;&#x621;&#x621;&#x621;" horiz-adv-x="484" arabic-form="final" 
d="M44 28l62 2v128q0 97 44 151.5t123 54.5q44 0 82 -22t60.5 -61.5t22.5 -90.5q0 -16 -3 -34q-7 -46 -35 -80.5t-65 -45.5h154l2 -16l-2 -14h-154q37 -9 65 -43.5t35 -82.5q3 -18 3 -34q0 -51 -22.5 -90.5t-60.5 -61.5t-82 -22q-79 0 -123 54.5t-44 151.5v128h-66z
M170.5 -259.5q34.5 -44.5 102.5 -44.5q57 0 96 38.5t39 102.5q0 16 -3 33q-21 130 -186 130h-83v-128q0 -87 34.5 -131.5zM219 30q165 0 186 130q3 17 3 33q0 64 -39 102.5t-96 38.5q-68 0 -102.5 -44.5t-34.5 -131.5v-128h83z" />
    <glyph glyph-name="uni06BE.medi" unicode="&#xfeec;&#xfe8c;&#xfe8c;&#xfe8c;" horiz-adv-x="643" arabic-form="medial" 
d="M413 445l152 -235q28 -44 28 -90q0 -35 -17 -60q-14 -19 -32 -30h105l2 -16l-2 -14q-109 0 -160 8q-29 -8 -66 -8q-95 0 -179 29q-82 -29 -178 -29h-71v30h71q69 0 136 16q-55 27 -86.5 66t-31.5 89q0 45 21.5 83t59 60.5t81.5 22.5q43 0 79.5 -22t58 -60t21.5 -83
q0 -50 -31.5 -89.5t-86.5 -66.5q67 -16 136 -16q41 0 76 11t53 37q12 17 12 41q0 38 -25 75l-152 235zM149 118q35 -36 95 -58q60 22 95.5 58.5t35.5 83.5q0 58 -37 96.5t-92 38.5q-57 0 -94.5 -39t-37.5 -97q0 -47 35 -83z" />
    <glyph glyph-name="uni06D2.fina" unicode="&#xfbfd;&#x621;&#x621;" horiz-adv-x="331" arabic-form="final" 
d="M62 -270q-12 42 -12 81q0 61 27 111t77 79t115 29h67l2 -16l-2 -14h-66q-57 0 -100 -24t-66.5 -66.5t-23.5 -96.5q0 -26 6 -53h508v-30h-532z" />
    <glyph glyph-name="uni06D3.fina" unicode="&#xfe8a;&#x621;&#x621;" horiz-adv-x="331" arabic-form="final" 
d="M62 -270q-12 42 -12 81q0 61 27 111t77 79t115 29h67l2 -16l-2 -14h-66q-57 0 -100 -24t-66.5 -66.5t-23.5 -96.5q0 -26 6 -53h508v-30h-532zM184 132q-26 11 -42 33t-16 51q0 38 27.5 62t66.5 24q22 0 60 -9l-6 -27q-28 6 -50 6q-30 0 -49 -16t-19 -39q0 -33 28.5 -51.5
t67.5 -13.5l62 18l2 -31l-208 -61l-2 31z" />
    <glyph glyph-name="uni06440622" unicode="&#xfedf;&#xfe82;" horiz-adv-x="529" arabic-form="isolated" 
d="M57 30h285q37 0 72 22.5t35 78.5v518h30v-518q0 -51 -24.5 -80t-56 -40t-56.5 -11h-285v30zM1 650q35 31 93 31h205v-29h-205q-88 0 -117 -91l-25 9q14 49 49 80zM128 541l25 -422l-30 -2l-25 422z" />
    <glyph glyph-name="uni06440622.fina" unicode="&#xfee0;&#xfe82;" horiz-adv-x="596" arabic-form="final" 
d="M517 15q-35 15 -52 52q-19 -36 -55.5 -51.5t-66.5 -15.5h-285v30h285q37 0 72 22.5t35 78.5v518h30v-518q0 -101 107 -101h14v-30h-14q-35 0 -70 15zM1 650q35 31 93 31h205v-29h-205q-88 0 -117 -91l-25 9q14 49 49 80zM129 541l25 -422l-30 -2l-25 422z" />
    <glyph glyph-name="uni06440623" unicode="&#xfedf;&#xfe84;" horiz-adv-x="516" arabic-form="isolated" 
d="M44 30h285q37 0 72 22.5t35 78.5v518h30v-518q0 -51 -24.5 -80t-56 -40t-56.5 -11h-285v30zM96 619q-26 11 -42 33t-16 51q0 38 27.5 62t66.5 24q22 0 60 -9l-6 -27q-28 6 -50 6q-30 0 -49 -16t-19 -39q0 -33 28.5 -51.5t67.5 -13.5l62 18l2 -31l-208 -61l-2 31zM115 541
l25 -422l-30 -2l-25 422z" />
    <glyph glyph-name="uni06440623.fina" unicode="&#xfee0;&#xfe84;" horiz-adv-x="579" arabic-form="final" 
d="M503 15q-35 15 -52 52q-19 -36 -55.5 -51.5t-66.5 -15.5h-285v30h285q37 0 72 22.5t35 78.5v518h30v-518q0 -101 107 -101h14v-30h-14q-35 0 -70 15zM96 619q-26 11 -42 33t-16 51q0 38 27.5 62t66.5 24q22 0 60 -9l-6 -27q-28 6 -50 6q-30 0 -49 -16t-19 -39
q0 -33 28.5 -51.5t67.5 -13.5l62 18l2 -31l-208 -61l-2 31zM115 541l25 -422l-30 -2l-25 422z" />
    <glyph glyph-name="uni06440625" unicode="&#xfedf;&#xfe88;" horiz-adv-x="522" arabic-form="isolated" 
d="M50 30h285q37 0 72 22.5t35 78.5v518h30v-518q0 -51 -24.5 -80t-56 -40t-56.5 -11h-285v30zM137 -201q-26 11 -42 33t-16 51q0 38 27.5 62t66.5 24q22 0 60 -9l-6 -27q-28 6 -50 6q-30 0 -49 -16t-19 -39q0 -33 28.5 -51.5t67.5 -13.5l62 18l2 -31l-208 -61l-2 31z
M114 634l32 -515l-30 -2l-32 515z" />
    <glyph glyph-name="uni06440625.fina" unicode="&#xfee0;&#xfe88;" horiz-adv-x="588" arabic-form="final" 
d="M509 15q-35 15 -52 52q-19 -36 -55.5 -51.5t-66.5 -15.5h-285v30h285q37 0 72 22.5t35 78.5v518h30v-518q0 -101 107 -101h14l2 -16l-2 -14h-14q-35 0 -70 15zM137 -201q-26 11 -42 33t-16 51q0 38 27.5 62t66.5 24q22 0 60 -9l-6 -27q-28 6 -50 6q-30 0 -49 -16t-19 -39
q0 -33 28.5 -51.5t67.5 -13.5l62 18l2 -31l-208 -61l-2 31zM114 634l32 -515l-30 -2l-32 515z" />
    <glyph glyph-name="uni06440627" unicode="&#xfedf;&#xfe8e;" horiz-adv-x="522" arabic-form="isolated" 
d="M50 30h285q37 0 72 22.5t35 78.5v518h30v-518q0 -51 -24.5 -80t-56 -40t-56.5 -11h-285v30zM114 634l32 -515l-30 -2l-32 515z" />
    <glyph glyph-name="uni06440627.fina" unicode="&#xfee0;&#xfe8e;" horiz-adv-x="588" arabic-form="final" 
d="M509 15q-35 15 -52 52q-19 -36 -55.5 -51.5t-66.5 -15.5h-285v30h285q37 0 72 22.5t35 78.5v518h30v-518q0 -101 107 -101h14l2 -16l-2 -14h-14q-35 0 -70 15zM114 634l32 -515l-30 -2l-32 515z" />
    <glyph glyph-name="uni06AA.001" unicode="&#x6af;&#x621;&#x621;" horiz-adv-x="1110" 
d="M101.5 19.5q-31.5 19.5 -48 53t-13.5 72.5q2 27 32 157l30 -6l-5 -22q-24 -97 -27 -131q-4 -49 25 -81t79 -32l767 1q43 0 71 28.5t28 71.5v44q0 43 -28 70.5t-71 27.5h-624l-15 23l191 273l24 -18l-174 -248h598q35 0 64.5 -17t47 -46.5t17.5 -64.5v-44q0 -35 -17.5 -65
t-47 -47.5t-64.5 -17.5l-767 -1q-41 0 -72.5 19.5zM261 374l165 230l26 -17l-177 -249z" />
    <glyph glyph-name="uni06AA.fina" unicode="&#xfb8f;&#x621;&#x621;" horiz-adv-x="1123" 
d="M101.5 19.5q-31.5 19.5 -48 53t-13.5 72.5q2 27 32 157l30 -6l-5 -22q-24 -97 -27 -131q-4 -49 25 -81t79 -32l767 1q43 0 71 28.5t28 71.5v44q0 43 -28 70.5t-71 27.5h-624l-15 23l191 273l24 -18l-174 -248h598q35 0 64.5 -17t47 -46.5t17.5 -64.5v-44
q0 -59 10.5 -79.5t37.5 -20.5l10 -1l2 -16l-2 -14h-10q-54 0 -68 61q-18 -28 -46.5 -44t-62.5 -16l-767 -1q-41 0 -72.5 19.5z" />
    <glyph glyph-name="uni06AA.fina.001" unicode="&#xfb93;&#x621;&#x621;" horiz-adv-x="1123" 
d="M101.5 19.5q-31.5 19.5 -48 53t-13.5 72.5q2 27 32 157l30 -6l-5 -22q-24 -97 -27 -131q-4 -49 25 -81t79 -32l767 1q43 0 71 28.5t28 71.5v44q0 43 -28 70.5t-71 27.5h-624l-15 23l191 273l24 -18l-174 -248h598q35 0 64.5 -17t47 -46.5t17.5 -64.5v-44
q0 -59 10.5 -79.5t37.5 -20.5l10 -1l2 -16l-2 -14h-10q-54 0 -68 61q-18 -28 -46.5 -44t-62.5 -16l-767 -1q-41 0 -72.5 19.5zM261 374l165 230l26 -17l-177 -249z" />
    <glyph glyph-name="uni06AA.medi" unicode="&#xfb91;&#xfe8c;&#xfe8c;" horiz-adv-x="949" 
d="M767 31q43 0 71 28.5t28 71.5v44q0 43 -28 70.5t-71 27.5h-624l-15 23l191 273l24 -18l-174 -248h598q35 0 64.5 -17t47 -46.5t17.5 -64.5v-44q0 -59 10.5 -79.5t37.5 -20.5l10 -1l2 -16l-2 -14h-10q-54 0 -68 61q-18 -28 -46.5 -44t-62.5 -16l-772 -1v30z" />
    <glyph glyph-name="uni06AA.medi.001" unicode="&#xfb95;&#xfe8c;&#xfe8c;" horiz-adv-x="949" 
d="M767 31q43 0 71 28.5t28 71.5v44q0 43 -28 70.5t-71 27.5h-624l-15 23l191 273l24 -18l-174 -248h598q35 0 64.5 -17t47 -46.5t17.5 -64.5v-44q0 -59 10.5 -79.5t37.5 -20.5l10 -1l2 -16l-2 -14h-10q-54 0 -68 61q-18 -28 -46.5 -44t-62.5 -16l-772 -1v30zM85 374
l165 230l26 -17l-177 -249z" />
    <glyph glyph-name="uni06AA.init" unicode="&#xfb90;&#xfe8c;&#xfe8c;" horiz-adv-x="936" 
d="M767 31q43 0 71 28.5t28 71.5v44q0 43 -28 70.5t-71 27.5h-624l-15 23l191 273l24 -18l-174 -248h598q35 0 64.5 -17t47 -46.5t17.5 -64.5v-44q0 -35 -17.5 -65t-47 -47.5t-64.5 -17.5l-772 -1v30z" />
    <glyph glyph-name="uni06AA.init.001" unicode="&#xfb94;&#xfe8c;&#xfe8c;" horiz-adv-x="936" 
d="M767 31q43 0 71 28.5t28 71.5v44q0 43 -28 70.5t-71 27.5h-624l-15 23l191 273l24 -18l-174 -248h598q35 0 64.5 -17t47 -46.5t17.5 -64.5v-44q0 -35 -17.5 -65t-47 -47.5t-64.5 -17.5l-772 -1v30zM85 374l165 230l26 -17l-177 -249z" />
    <glyph glyph-name="uni0647.fina.alt" unicode="&#xfeea;&#x621;&#x621;&#x621;" horiz-adv-x="643" 
d="M79 119q0 -24 12 -41q18 -26 53 -37t76 -11q69 0 136 16q-55 27 -86.5 66.5t-31.5 89.5q0 45 21.5 83t58 60t79.5 22q44 0 81.5 -22.5t59 -60.5t21.5 -83q0 -50 -31.5 -89t-86.5 -66q67 -16 136 -16h71v-30h-71q-96 0 -178 29q-84 -29 -179 -29q-46 0 -88 14t-65 46
q-17 25 -17 60q0 46 28 90l152 235l26 -16l-152 -235q-25 -37 -25 -75zM303.5 118.5q35.5 -36.5 95.5 -58.5q60 22 95 58t35 83q0 58 -37.5 97t-94.5 39q-55 0 -92 -38.5t-37 -96.5q0 -47 35.5 -83.5z" />
    <glyph glyph-name="uni0647.medi.alt" unicode="&#xfeec;&#xfe8c;&#xfe8c;" horiz-adv-x="435" 
d="M-5 30h62v128q0 97 44 151.5t123 54.5q44 0 82 -22t60.5 -61.5t22.5 -90.5q0 -16 -3 -34q-7 -46 -35 -80.5t-65 -45.5h154l2 -16l-2 -14h-154q37 -9 65 -43.5t35 -82.5q3 -18 3 -34q0 -51 -22.5 -90.5t-60.5 -61.5t-82 -22q-79 0 -123 54.5t-44 151.5v128h-62v30z
M121.5 -259.5q34.5 -44.5 102.5 -44.5q57 0 96 38.5t39 102.5q0 16 -3 33q-21 130 -186 130h-83v-128q0 -87 34.5 -131.5zM170 30q165 0 186 130q3 17 3 33q0 64 -39 102.5t-96 38.5q-68 0 -102.5 -44.5t-34.5 -131.5v-128h83z" />
    <glyph glyph-name="uni0647.init.alt" unicode="&#xfeeb;&#xfe8c;&#xfe8c;" horiz-adv-x="439" 
d="M-5 30h62v128q0 97 44 151.5t123 54.5q44 0 82 -22t60.5 -61.5t22.5 -90.5q0 -16 -3 -34q-17 -107 -116 -141q99 -34 116 -141q3 -18 3 -34q0 -51 -22.5 -90.5t-60.5 -61.5t-82 -22q-79 0 -123 54.5t-44 151.5v128h-62v30zM121.5 -259.5q34.5 -44.5 102.5 -44.5
q57 0 96 38.5t39 102.5q0 16 -3 33q-21 130 -186 130h-83v-128q0 -87 34.5 -131.5zM170 30q165 0 186 130q3 17 3 33q0 64 -39 102.5t-96 38.5q-68 0 -102.5 -44.5t-34.5 -131.5v-128h83z" />
    <glyph glyph-name="uni06D2.fina.alt2" unicode="&#xfbfd;&#x621;&#x621;&#x621;&#x621;&#x621;" horiz-adv-x="327" 
d="M62 -270q-12 42 -12 81q0 61 27 111t77 79t115 29h63l2 -16l-2 -14h-62q-57 0 -100 -24t-66.5 -66.5t-23.5 -96.5q0 -26 6 -53h406v-30h-430z" />
    <glyph glyph-name="uni06D2.fina.alt3" unicode="&#xfbfd;&#x621;&#x621;&#x621;&#x621;" horiz-adv-x="388" 
d="M62 -270q-12 42 -12 81q0 61 27 111t77 79t115 29h124l2 -16l-2 -14h-123q-57 0 -100 -24t-66.5 -66.5t-23.5 -96.5q0 -26 6 -53h564v-30h-588z" />
    <glyph glyph-name="uni06D2.fina.alt4" unicode="&#xfbfd;&#x621;&#x621;&#x621;" horiz-adv-x="364" 
d="M62 -270q-12 42 -12 81q0 61 27 111t77 79t115 29h102l2 -16l-2 -14h-101q-57 0 -100 -24t-66.5 -66.5t-23.5 -96.5q0 -26 6 -53h626v-30h-650z" />
    <glyph glyph-name="uni06440671" unicode="&#xfedf;&#xfb51;" horiz-adv-x="522" 
d="M50 30h285q37 0 72 22.5t35 78.5v518h30v-518q0 -51 -24.5 -80t-56 -40t-56.5 -11h-285v30zM90 697l15 -22q8 -14 16 -23l33 48q18 28 36 41.5t43 13.5q33 0 52 -24t19 -57q0 -35 -21.5 -55.5t-53.5 -20.5h-40q-35 0 -52 5.5t-30 21t-39 56.5zM121 541l25 -422l-30 -2
l-25 422zM189 628h40q45 0 45 46q0 24 -10.5 37.5t-30.5 13.5q-17 0 -28 -9t-27 -32l-34 -51q13 -5 45 -5z" />
    <glyph glyph-name="uni06440671.fina" unicode="&#xfee0;&#xfb51;" horiz-adv-x="588" 
d="M509 15q-35 15 -52 52q-19 -36 -55.5 -51.5t-66.5 -15.5h-285v30h285q37 0 72 22.5t35 78.5v518h30v-518q0 -101 107 -101h14v-30h-14q-35 0 -70 15zM90 697l15 -22q8 -14 16 -23l33 48q18 28 36 41.5t43 13.5q33 0 52 -24t19 -57q0 -35 -21.5 -55.5t-53.5 -20.5h-40
q-35 0 -52 5.5t-30 21t-39 56.5zM121 541l25 -422l-30 -2l-25 422zM189 628h40q45 0 45 46q0 24 -10.5 37.5t-30.5 13.5q-17 0 -28 -9t-27 -32l-34 -51q13 -5 45 -5z" />
    <glyph glyph-name="uni064406440647" unicode="&#xfedf;&#xfee0;&#x651;&#x670;&#xfeea;" horiz-adv-x="1018" 
d="M70.5 119q-20.5 36 -20.5 77q0 44 21 79q14 23 34 41t65 41t131 58l-17 74l29 8q49 -211 80 -336q17 -71 66.5 -101t109.5 -30h5q107 0 107 101v332h30v-332q0 -101 107 -101h23q37 0 72 22.5t35 78.5v426h30v-426q0 -51 -24.5 -80t-56 -40t-56.5 -11h-23q-35 0 -69 14
t-52 51q-18 -37 -52.5 -51t-70.5 -14h-12q-66 2 -122.5 38t-76.5 115l-3 14q-6 -27 -19 -48q-21 -38 -57 -58.5t-77 -20.5q-43 0 -80 22q-36 21 -56.5 57zM79 195q0 -33 17 -61.5t47 -45.5q31 -19 65 -19q33 0 61 17t46 47q15 27 21.5 46t6.5 44q0 13 -1 20l-34 142
q-81 -33 -122 -54t-59 -36t-30 -36q-18 -30 -18 -64zM564 643h30v-50q0 -22 13.5 -32t28.5 -10q42 0 42 42v50h30v-50q0 -22 11 -32t29 -10q21 0 33 11.5t12 32.5q0 9 -2 19t-5 22.5t-5 20.5l30 7q6 -26 9 -42.5t3 -26.5q0 -30 -16.5 -52t-58.5 -22q-36 0 -55 24
q-20 -24 -57 -24q-24 0 -48 16.5t-24 55.5v50zM683 840h30v-153h-30v153z" />
    <glyph glyph-name="uniFDF2" unicode="&#x627;&#xfedf;&#xfee0;&#xfeea;" horiz-adv-x="1207" 
d="M70.5 119q-20.5 36 -20.5 77q0 44 21 79q14 23 34 41t65 41t131 58l-17 74l29 8q49 -211 80 -336q17 -71 66.5 -101t109.5 -30h5q107 0 107 101v332h30v-332q0 -101 107 -101h23q37 0 72 22.5t35 78.5v426h30v-426q0 -51 -24.5 -80t-56 -40t-56.5 -11h-23q-35 0 -69 14
t-52 51q-18 -37 -52.5 -51t-70.5 -14h-12q-66 2 -122.5 38t-76.5 115l-3 14q-6 -27 -19 -48q-21 -38 -57 -58.5t-77 -20.5q-43 0 -80 22q-36 21 -56.5 57zM79 195q0 -33 17 -61.5t47 -45.5q31 -19 65 -19q33 0 61 17t46 47q15 27 21.5 46t6.5 44q0 13 -1 20l-34 142
q-81 -33 -122 -54t-59 -36t-30 -36q-18 -30 -18 -64zM564 643h30v-50q0 -22 13.5 -32t28.5 -10q42 0 42 42v50h30v-50q0 -22 11 -32t29 -10q21 0 33 11.5t12 32.5q0 9 -2 19t-5 22.5t-5 20.5l30 7q6 -26 9 -42.5t3 -26.5q0 -30 -16.5 -52t-58.5 -22q-36 0 -55 24
q-20 -24 -57 -24q-24 0 -48 16.5t-24 55.5v50zM683 840h30v-153h-30v153zM1127 662h30v-649h-30v649z" />
    <glyph glyph-name="uniFDFC.001" unicode="&#x631;&#xfbfe;&#xfe8e;&#x644;&#x621;" horiz-adv-x="1239" 
d="M1194 421v-228q0 -123 -61.5 -185.5t-178.5 -62.5h-24v30h24q106 0 158 53t52 165v228h30zM52.5 284q12.5 45 30.5 84l28 -12q-41 -86 -41 -158q0 -84 43 -138t127 -54h22q106 0 153 45t47 141v395q0 35 23 59.5t63 24.5h31q39 0 62 -25t23 -59v-308q0 -67 28 -94.5
t93 -27.5h51q64 0 89.5 31t25.5 76q0 46 -32 187l30 6q32 -141 32 -193q0 -54 -33.5 -95.5t-111.5 -41.5h-51q-76 0 -113.5 36.5t-37.5 115.5v308q0 24 -14 39t-41 15h-31q-28 0 -42 -14.5t-14 -39.5v-395q0 -107 -56 -161.5t-174 -54.5h-22q-65 0 -110 30.5t-67.5 81
t-22.5 110.5q0 41 12.5 86zM699 -2h80h80v-53h-80h-80v53z" />
    <glyph glyph-name="uniFDFC.002" unicode="&#x631;&#xfbfe;&#xfe8e;&#x644;&#x621;&#x621;" horiz-adv-x="1199" 
d="M1159 442v-190q0 -123 -61.5 -185.5t-178.5 -62.5h-24v30h24q106 0 158 53t52 165v190h30zM52.5 313q12.5 45 30.5 84l28 -12q-41 -86 -41 -158q0 -84 43 -138t127 -54h17q106 0 153 45t47 141v344q0 35 23 59.5t63 24.5h16q39 0 62 -25t23 -59v-301q0 -67 28 -94.5
t93 -27.5h16q64 0 89.5 31t25.5 76q0 51 -22 148l30 6q22 -97 22 -154q0 -54 -33.5 -95.5t-111.5 -41.5h-16q-76 0 -113.5 36.5t-37.5 115.5v301q0 24 -14 39t-41 15h-16q-28 0 -42 -14.5t-14 -39.5v-344q0 -107 -56 -161.5t-174 -54.5h-17q-65 0 -110 30.5t-67.5 81
t-22.5 110.5q0 41 12.5 86zM537 33h113h113v-31h-113h-113v31z" />
    <glyph glyph-name="tomaan" unicode="&#xfe97;&#xfeee;&#xfee3;&#xfe8e;&#x646;&#x621;" horiz-adv-x="2164" 
d="M1574 -253h-84v30h84q109 0 155 47t46 140v36h-134q-72 0 -117.5 40.5t-45.5 119.5q0 58 20.5 104.5t57.5 73t84 26.5q76 0 120.5 -55.5t44.5 -148.5v-130h137q64 0 89.5 31t25.5 76q0 46 -32 187l30 6q32 -141 32 -193q0 -54 -33.5 -95.5t-111.5 -41.5h-137v-36
q0 -217 -231 -217zM97 235q18 63 50 133l28 -12q-31 -69 -48.5 -128.5t-17.5 -116.5q0 -64 23 -116.5t70 -84t114 -31.5h107q106 0 153 45t47 141v395q0 35 23 59.5t63 24.5h31q39 0 62 -25t23 -59v-308q0 -67 28 -94.5t93 -27.5h30q29 0 51.5 17.5t30.5 46.5l32 115
q19 67 58.5 106t96.5 39q46 0 80.5 -26.5t53 -71t18.5 -96.5q0 -94 -35.5 -138t-86.5 -44q-37 0 -74 15t-128 62q-16 -26 -42 -40.5t-55 -14.5h-30q-76 0 -113.5 36.5t-37.5 115.5v308q0 24 -14 39t-41 15h-31q-28 0 -42 -14.5t-14 -39.5v-395q0 -107 -56 -161.5t-174 -54.5
h-107q-76 0 -129.5 36.5t-80.5 96.5t-27 129q0 61 18 124zM359 397h67v-67h-67v67zM1209.5 22q33.5 -14 65.5 -14q40 0 66 35t26 117q0 72 -33 118t-89 46q-93 0 -127 -123l-33 -119q91 -46 124.5 -60zM1543.5 61.5q35.5 -31.5 97.5 -31.5h134v130q0 83 -35 128.5t-100 45.5
q-60 0 -96 -47.5t-36 -126.5q0 -67 35.5 -98.5zM1809 507h97h97v-53h-97h-97v53z" />
    <glyph glyph-name="tomaan.001" unicode="&#xfe97;&#xfeee;&#xfee3;&#xfe8e;&#x646;&#x621;&#x621;" horiz-adv-x="2164" 
d="M1778 -32.5q-27 -22.5 -68 -38t-113 -36.5q-30 -8 -53 -16l-9 30l52 15q99 29 143.5 49.5t44.5 49.5v12h-134q-72 0 -117.5 40.5t-45.5 119.5q0 58 20.5 104.5t57.5 73t84 26.5q76 0 120.5 -55.5t44.5 -148.5v-130h137q64 0 89.5 31t25.5 76q0 46 -32 187l30 6
q32 -141 32 -193q0 -54 -33.5 -95.5t-111.5 -41.5h-137v-12q0 -31 -27 -53.5zM97 386q18 63 50 133l28 -12q-31 -69 -48.5 -128.5t-17.5 -116.5q0 -64 23 -116.5t70 -84t114 -31.5h107q106 0 153 45t47 141v338q0 35 23 59.5t63 24.5h31q39 0 62 -25t23 -59v-372
q0 -67 28 -94.5t93 -27.5h30q29 0 51.5 17.5t30.5 46.5l32 115q19 67 58.5 106t96.5 39q46 0 80.5 -26.5t53 -71t18.5 -96.5q0 -94 -35.5 -138t-86.5 -44q-37 0 -74 15t-128 62q-16 -26 -42 -40.5t-55 -14.5h-30q-76 0 -113.5 36.5t-37.5 115.5v372q0 24 -14 39t-41 15h-31
q-28 0 -42 -14.5t-14 -39.5v-405q0 -38 -25 -72.5t-77 -55.5t-128 -21h-107q-76 0 -129.5 36.5t-80.5 96.5t-27 129q0 61 18 124zM359 548h67v-67h-67v67zM1209.5 52q33.5 -14 65.5 -14q40 0 66 35t26 117q0 72 -33 118t-89 46q-93 0 -127 -123l-33 -119q91 -46 124.5 -60z
M1543.5 94.5q35.5 -31.5 97.5 -31.5h134v130q0 83 -35 128.5t-100 45.5q-60 0 -96 -47.5t-36 -126.5q0 -67 35.5 -98.5zM1809 537h97h97v-45h-97h-97v45z" />
    <glyph glyph-name="tomaan.002" unicode="&#xfe97;&#xfeee;&#xfee3;&#xfe8e;&#x646;&#x621;&#x621;&#x621;" horiz-adv-x="1693" 
d="M1326.5 298.5q44.5 -55.5 44.5 -148.5v-130h137q64 0 89.5 31t25.5 76q0 46 -32 187l30 6q32 -141 32 -193q0 -54 -33.5 -95.5t-111.5 -41.5h-137v-36q0 -217 -231 -217h-84v30h84q109 0 155 47t46 140v36h-118q-43 0 -82.5 13t-106.5 52q-16 -26 -42 -40.5t-55 -14.5
h-30q-76 0 -113.5 36.5t-37.5 115.5v308q0 24 -14 39t-41 15h-31q-28 0 -42 -14.5t-14 -39.5v-395q0 -107 -56 -161.5t-174 -54.5h-107q-76 0 -129.5 36.5t-80.5 96.5t-27 129q0 61 18 124t50 133l28 -12q-31 -69 -48.5 -128.5t-17.5 -116.5q0 -64 23 -116.5t70 -84
t114 -31.5h107q106 0 153 45t47 141v395q0 35 23 59.5t63 24.5h31q39 0 62 -25t23 -59v-308q0 -67 28 -94.5t93 -27.5h30q29 0 51.5 17.5t30.5 46.5l32 115q19 67 58.5 106t96.5 39q76 0 120.5 -55.5zM320 397h67v-67h-67v67zM1149 31.5q36 -11.5 74 -11.5h118v130
q0 83 -35 128.5t-100 45.5q-93 0 -127 -123l-33 -119q67 -39 103 -50.5zM1375 507h97h97v-53h-97h-97v53z" />
    <glyph glyph-name="uni0621" unicode="&#x621;" horiz-adv-x="443" arabic-form="isolated" 
d="M20 0l204 62q-60 14 -100.5 55t-44.5 97q-1 40 17.5 73.5t52 53.5t74.5 20q22 0 38.5 -3t47.5 -11q7 -1 14 -3t13 -3l-6 -26q-34 7 -59.5 11.5t-47.5 4.5q-50 0 -82 -31t-32 -78q0 -39 23 -71t61 -50t79 -18q8 0 26 2l120 36l5 -29l-398 -121z" />
    <glyph glyph-name="uni0622" unicode="&#x622;" horiz-adv-x="210" arabic-form="isolated" 
d="M90 559h30v-559h-30v559zM-34 647q35 31 93 31h205v-29h-205q-88 0 -117 -91l-25 9q14 49 49 80z" />
    <glyph glyph-name="uni0623" unicode="&#x623;" horiz-adv-x="210" arabic-form="isolated" 
d="M90 559h30v-559h-30v559zM89 645q-26 11 -42 33t-16 51q0 38 27.5 62t66.5 24q22 0 60 -9l-6 -27q-28 6 -50 6q-30 0 -49 -16t-19 -39q0 -33 28.5 -51.5t67.5 -13.5l62 18l2 -31l-208 -61l-2 31z" />
    <glyph glyph-name="uni0624" unicode="&#x624;" horiz-adv-x="427" arabic-form="isolated" 
d="M301 -176q46 47 46 140v36h-134q-72 0 -117.5 40.5t-45.5 119.5q0 58 20.5 104.5t57.5 73t84 26.5q76 0 120.5 -55.5t44.5 -148.5v-196q0 -217 -231 -217h-84v30h84q109 0 155 47zM115.5 61.5q35.5 -31.5 97.5 -31.5h134v130q0 83 -35 128.5t-100 45.5q-60 0 -96 -47.5
t-36 -126.5q0 -67 35.5 -98.5zM177 431q-26 11 -42 33t-16 51q0 38 27.5 62t66.5 24q22 0 60 -9l-6 -27q-28 6 -50 6q-30 0 -49 -16t-19 -39q0 -33 28.5 -51.5t67.5 -13.5l62 18l2 -31l-208 -61l-2 31z" />
    <glyph glyph-name="uni0625" unicode="&#x625;" horiz-adv-x="190" arabic-form="isolated" 
d="M90 649h30v-649h-30v649zM66 -215q-26 11 -42 33t-16 51q0 38 27.5 62t66.5 24q22 0 60 -9l-6 -27q-28 6 -50 6q-30 0 -49 -16t-19 -39q0 -33 28.5 -51.5t67.5 -13.5l62 18l2 -31l-208 -61l-2 31z" />
    <glyph glyph-name="uni0626" unicode="&#x626;" horiz-adv-x="716" arabic-form="isolated" 
d="M80 16q0 -67 24.5 -121t72.5 -85.5t115 -31.5h112q68 0 106 15t58.5 49t33.5 97q4 20 4 25q0 11 -6.5 16.5t-24.5 10.5l-237 63q-9 39 -9 72q0 98 68 170q34 36 83.5 54.5t100.5 18.5q37 0 85 -11l-8 -30q-44 11 -77 11q-46 0 -89 -16t-73 -47q-60 -64 -60 -148
q0 -20 5 -50q49 -13 113 -30t106 -29q27 -8 39.5 -22t12.5 -38q0 -11 -3 -26q-15 -68 -39.5 -107.5t-69.5 -58.5t-119 -19h-112q-76 0 -130.5 36.5t-83 97.5t-28.5 134q0 105 66 248l28 -12q-64 -137 -64 -236zM215 377q-26 11 -42 33t-16 51q0 38 27.5 62t66.5 24
q22 0 60 -9l-6 -27q-28 6 -50 6q-30 0 -49 -16t-19 -39q0 -33 28.5 -51.5t67.5 -13.5l62 18l2 -31l-208 -61l-2 31z" />
    <glyph glyph-name="uni0627" unicode="&#x627;" horiz-adv-x="190" arabic-form="isolated" 
d="M90 649h30v-649h-30v649z" />
    <glyph glyph-name="uni0628" unicode="&#x628;" horiz-adv-x="792" arabic-form="isolated" 
d="M111.5 19.5q-31.5 19.5 -48 53t-13.5 72.5q2 27 32 157l30 -6l-5 -22q-24 -97 -27 -131q-4 -49 25 -81t79 -32h425q52 0 77.5 32.5t25.5 74.5q0 46 -32 187l30 6q32 -141 32 -193q0 -31 -14 -63t-44 -53t-75 -21h-425q-41 0 -72.5 19.5zM362 -124h67v-67h-67v67z" />
    <glyph glyph-name="uni0629" unicode="&#x629;" horiz-adv-x="447" arabic-form="isolated" 
d="M237 395q61 -66 92 -103.5t49.5 -74t18.5 -72.5q0 -42 -23.5 -77t-63.5 -55.5t-86 -20.5t-86.5 20.5t-64 55.5t-23.5 77q0 39 17.5 75.5t44 68.5t73.5 81l17 18l-20 22l-24 27l22 20zM121.5 57q41.5 -35 102.5 -35t102 35.5t41 87.5q0 30 -16 61t-44 64.5t-85 95.5
l-26 -28q-61 -66 -88.5 -106.5t-27.5 -86.5q0 -53 41.5 -88zM113 588h67v-67h-67v67zM252 588h67v-67h-67v67z" />
    <glyph glyph-name="uni062A" unicode="&#x62a;" horiz-adv-x="792" arabic-form="isolated" 
d="M111.5 19.5q-31.5 19.5 -48 53t-13.5 72.5q2 27 32 157l30 -6l-5 -22q-24 -97 -27 -131q-4 -49 25 -81t79 -32h425q52 0 77.5 32.5t25.5 74.5q0 46 -32 187l30 6q32 -141 32 -193q0 -31 -14 -63t-44 -53t-75 -21h-425q-41 0 -72.5 19.5zM307 328h67v-67h-67v67zM446 328
h67v-67h-67v67z" />
    <glyph glyph-name="uni062B" unicode="&#x62b;" horiz-adv-x="792" arabic-form="isolated" 
d="M111.5 19.5q-31.5 19.5 -48 53t-13.5 72.5q2 27 32 157l30 -6l-5 -22q-24 -97 -27 -131q-4 -49 25 -81t79 -32h425q52 0 77.5 32.5t25.5 74.5q0 46 -32 187l30 6q32 -141 32 -193q0 -31 -14 -63t-44 -53t-75 -21h-425q-41 0 -72.5 19.5zM286 320h67v-67h-67v67zM366 421
h67v-67h-67v67zM445 320h67v-67h-67v67z" />
    <glyph glyph-name="uni062C" unicode="&#x62c;" horiz-adv-x="641" arabic-form="isolated" 
d="M548 -252h-261q-83 0 -140 36.5t-82 103.5q-15 37 -15 76q0 68 42.5 126.5t117.5 87.5l343 136q-136 55 -220.5 87t-109.5 32q-34 0 -57 -20t-37 -71l-28 8q31 113 122 113q28 0 103.5 -28t209.5 -83l51 -21l4 -33l-369 -148q-68 -27 -105 -76.5t-37 -107.5q0 -35 13 -68
q45 -120 194 -120h261v-30zM332 32h67v-67h-67v67z" />
    <glyph glyph-name="uni062D" unicode="&#x62d;" horiz-adv-x="641" arabic-form="isolated" 
d="M548 -252h-261q-83 0 -140 36.5t-82 103.5q-15 37 -15 76q0 68 42.5 126.5t117.5 87.5l343 136q-136 55 -220.5 87t-109.5 32q-34 0 -57 -20t-37 -71l-28 8q31 113 122 113q28 0 103.5 -28t209.5 -83l51 -21l4 -33l-369 -148q-68 -27 -105 -76.5t-37 -107.5q0 -35 13 -68
q45 -120 194 -120h261v-30z" />
    <glyph glyph-name="uni062E" unicode="&#x62e;" horiz-adv-x="673" arabic-form="isolated" 
d="M288 620v-67h-67v67h67zM50 -36q0 68 42.5 126.5t117.5 87.5l343 136q-136 55 -220.5 87t-109.5 32q-34 0 -57 -20t-37 -71l-28 8q31 113 122 113q28 0 103.5 -28t209.5 -83l51 -21l4 -33l-369 -148q-68 -27 -105 -76.5t-37 -107.5q0 -35 13 -68q45 -120 194 -120h261
v-30h-261q-83 0 -140 36.5t-82 103.5q-15 37 -15 76z" />
    <glyph glyph-name="uni062F" unicode="&#x62f;" horiz-adv-x="465" arabic-form="isolated" 
d="M387 209q28 -44 28 -90q0 -35 -17 -60q-40 -59 -140 -59h-54q-55 0 -94 16t-60 34l16 25q51 -45 138 -45h54q40 0 69 10.5t47 36.5q12 17 12 41q0 38 -25 75q-90 142 -152 235l26 16q62 -93 152 -235z" />
    <glyph glyph-name="uni0630" unicode="&#x630;" horiz-adv-x="465" arabic-form="isolated" 
d="M387 209q28 -44 28 -90q0 -35 -17 -60q-40 -59 -140 -59h-54q-55 0 -94 16t-60 34l16 25q51 -45 138 -45h54q40 0 69 10.5t47 36.5q12 17 12 41q0 38 -25 75q-90 142 -152 235l26 16q62 -93 152 -235zM196 608h67v-67h-67v67z" />
    <glyph glyph-name="uni0631" unicode="&#x631;" horiz-adv-x="373" arabic-form="isolated" 
d="M303 294v-298q0 -123 -61.5 -185.5t-178.5 -62.5h-63v30h63q106 0 158 53t52 165v298h30z" />
    <glyph glyph-name="uni0632" unicode="&#x632;" horiz-adv-x="373" arabic-form="isolated" 
d="M303 294v-298q0 -123 -61.5 -185.5t-178.5 -62.5h-63v30h63q106 0 158 53t52 165v298h30zM248 491h67v-67h-67v67z" />
    <glyph glyph-name="uni0633" unicode="&#x633;" horiz-adv-x="1186" arabic-form="isolated" 
d="M97.5 126.5q-17.5 -59.5 -17.5 -116.5q0 -64 23 -116.5t70 -84t114 -31.5h107q106 0 153 45t47 141v330h30v-149q0 -60 33.5 -87.5t78.5 -27.5q124 0 124 101v163h30v-163q0 -55 34 -78t71 -23q62 0 86.5 31.5t24.5 75.5q0 46 -32 187l30 6q32 -141 32 -193
q0 -53 -32.5 -95t-108.5 -42q-33 0 -67.5 16.5t-52.5 49.5q-18 -32 -54.5 -49t-84.5 -17q-32 0 -62.5 13.5t-49.5 41.5v-91q0 -107 -56 -161.5t-174 -54.5h-107q-76 0 -129.5 36.5t-80.5 96.5t-27 129q0 61 18 124t50 133l28 -12q-31 -69 -48.5 -128.5z" />
    <glyph glyph-name="uni0634" unicode="&#x634;" horiz-adv-x="1186" arabic-form="isolated" 
d="M97.5 126.5q-17.5 -59.5 -17.5 -116.5q0 -64 23 -116.5t70 -84t114 -31.5h107q106 0 153 45t47 141v330h30v-149q0 -60 33.5 -87.5t78.5 -27.5q124 0 124 101v163h30v-163q0 -55 34 -78t71 -23q62 0 86.5 31.5t24.5 75.5q0 46 -32 187l30 6q32 -141 32 -193
q0 -53 -32.5 -95t-108.5 -42q-33 0 -67.5 16.5t-52.5 49.5q-18 -32 -54.5 -49t-84.5 -17q-32 0 -62.5 13.5t-49.5 41.5v-91q0 -107 -56 -161.5t-174 -54.5h-107q-76 0 -129.5 36.5t-80.5 96.5t-27 129q0 61 18 124t50 133l28 -12q-31 -69 -48.5 -128.5zM759 493h67v-67h-67
v67zM839 594h67v-67h-67v67zM918 493h67v-67h-67v67z" />
    <glyph glyph-name="uni0635" unicode="&#x635;" horiz-adv-x="1217" arabic-form="isolated" 
d="M97.5 126.5q-17.5 -59.5 -17.5 -116.5q0 -64 23 -116.5t70 -84t114 -31.5h107q106 0 153 45t47 141v330h30v-163q0 -39 18.5 -61.5t46.5 -32.5l82 122q13 21 48 72q44 67 87 99.5t101 32.5q49 0 85 -26t55.5 -69t19.5 -92q0 -83 -48 -129.5t-124 -46.5h-264
q-26 0 -56.5 11.5t-50.5 39.5v-87q0 -107 -56 -161.5t-174 -54.5h-107q-76 0 -129.5 36.5t-80.5 96.5t-27 129q0 61 18 124t50 133l28 -12q-31 -69 -48.5 -128.5zM731 30h264q65 0 103.5 37.5t38.5 108.5q0 67 -35 112t-95 45q-49 0 -85 -27.5t-79 -90.5l-39 -60
q-21 -29 -83 -125h10z" />
    <glyph glyph-name="uni0636" unicode="&#x636;" horiz-adv-x="1217" arabic-form="isolated" 
d="M97.5 126.5q-17.5 -59.5 -17.5 -116.5q0 -64 23 -116.5t70 -84t114 -31.5h107q106 0 153 45t47 141v330h30v-163q0 -39 18.5 -61.5t46.5 -32.5l82 122q13 21 48 72q44 67 87 99.5t101 32.5q49 0 85 -26t55.5 -69t19.5 -92q0 -83 -48 -129.5t-124 -46.5h-264
q-26 0 -56.5 11.5t-50.5 39.5v-87q0 -107 -56 -161.5t-174 -54.5h-107q-76 0 -129.5 36.5t-80.5 96.5t-27 129q0 61 18 124t50 133l28 -12q-31 -69 -48.5 -128.5zM731 30h264q65 0 103.5 37.5t38.5 108.5q0 67 -35 112t-95 45q-49 0 -85 -27.5t-79 -90.5l-39 -60
q-21 -29 -83 -125h10zM964 526h67v-67h-67v67z" />
    <glyph glyph-name="uni0637" unicode="&#x637;" horiz-adv-x="699" arabic-form="isolated" 
d="M50 30h120l67 103v516l30 2v-472l34 52q44 67 87 99.5t101 32.5q49 0 85 -26t55.5 -69t19.5 -92q0 -83 -48 -129.5t-124 -46.5h-427v30zM477 30q65 0 103.5 37.5t38.5 108.5q0 67 -35 112t-95 45q-50 0 -86.5 -28t-77.5 -90l-122 -185h274z" />
    <glyph glyph-name="uni0638" unicode="&#x638;" horiz-adv-x="699" arabic-form="isolated" 
d="M50 30h120l67 103v516l30 2v-472l34 52q44 67 87 99.5t101 32.5q49 0 85 -26t55.5 -69t19.5 -92q0 -83 -48 -129.5t-124 -46.5h-427v30zM477 30q65 0 103.5 37.5t38.5 108.5q0 67 -35 112t-95 45q-50 0 -86.5 -28t-77.5 -90l-122 -185h274zM451 585h67v-67h-67v67z" />
    <glyph glyph-name="uni0639" unicode="&#x639;" horiz-adv-x="584" arabic-form="isolated" 
d="M534 -252h-252q-70 0 -122.5 29.5t-81 80.5t-28.5 113q0 57 28.5 106t76.5 79.5t105 34.5q-53 23 -80 64t-27 90q0 41 21 76.5t56 56.5t77 21q39 0 70.5 -13.5t88.5 -49.5l-14 -23q-51 33 -80 44.5t-65 11.5q-53 0 -88.5 -36t-35.5 -88q0 -61 46.5 -104t136.5 -50l125 -1
v-30l-213 2q-54 0 -99.5 -25t-72 -69t-26.5 -97q0 -55 24.5 -99t70 -69t107.5 -25h252v-30z" />
    <glyph glyph-name="uni063A" unicode="&#x63a;" horiz-adv-x="584" arabic-form="isolated" 
d="M534 -252h-252q-70 0 -122.5 29.5t-81 80.5t-28.5 113q0 57 28.5 106t76.5 79.5t105 34.5q-53 23 -80 64t-27 90q0 41 21 76.5t56 56.5t77 21q39 0 70.5 -13.5t88.5 -49.5l-14 -23q-51 33 -80 44.5t-65 11.5q-53 0 -88.5 -36t-35.5 -88q0 -61 46.5 -104t136.5 -50l125 -1
v-30l-213 2q-54 0 -99.5 -25t-72 -69t-26.5 -97q0 -55 24.5 -99t70 -69t107.5 -25h252v-30zM274 672h67v-67h-67v67z" />
    <glyph glyph-name="uni0641" unicode="&#x641;" horiz-adv-x="793" arabic-form="isolated" 
d="M643 601v-67h-67v67h67zM82 302l30 -6l-5 -22q-24 -97 -27 -131q-4 -49 25 -81t79 -32h338q70 0 110 13t58 41t22 75h-112q-62 0 -102.5 39t-40.5 101q0 42 19.5 78t52.5 57.5t71 21.5q41 0 74 -21.5t51 -57.5t18 -78v-102q0 -69 -19 -111.5t-67 -64t-135 -21.5h-338
q-41 0 -72.5 19.5t-48 53t-13.5 72.5q2 27 32 157zM518 218.5q31 -29.5 82 -29.5h113v8v102q0 56 -31 91.5t-82 35.5q-47 0 -80 -36.5t-33 -90.5q0 -51 31 -80.5z" />
    <glyph glyph-name="uni0642" unicode="&#x642;" horiz-adv-x="673" arabic-form="isolated" 
d="M110.5 166.5q-11.5 -29.5 -21 -72t-9.5 -90.5q0 -116 47 -171.5t158 -55.5h107q109 0 155 47t46 140v36h-134q-72 0 -117.5 40.5t-45.5 119.5q0 58 20.5 104.5t57.5 73t84 26.5q76 0 120.5 -55.5t44.5 -148.5v-196q0 -217 -231 -217h-107q-123 0 -179 65.5t-56 191.5
q0 72 17 127t49 128l28 -12q-22 -51 -33.5 -80.5zM361.5 61.5q35.5 -31.5 97.5 -31.5h134v130q0 83 -35 128.5t-100 45.5q-60 0 -96 -47.5t-36 -126.5q0 -67 35.5 -98.5zM351 523h67v-67h-67v67zM490 523h67v-67h-67v67z" />
    <glyph glyph-name="uni0643" unicode="&#x643;" horiz-adv-x="834" arabic-form="isolated" 
d="M111.5 19.5q-31.5 19.5 -48 53t-13.5 72.5q2 27 32 157l30 -6l-5 -22q-24 -97 -27 -131q-4 -49 25 -81t79 -32h382q69 0 109.5 36t40.5 87q0 28 -12.5 55t-36.5 51l-240 234l9 37l381 167l12 -28l-373 -163l231 -225q28 -28 42.5 -60.5t14.5 -65.5q0 -41 -21.5 -76.5
t-62 -57t-94.5 -21.5h-382q-41 0 -72.5 19.5z" />
    <glyph glyph-name="uni0644" unicode="&#x644;" horiz-adv-x="615" arabic-form="isolated" 
d="M157.5 -215.5q-53.5 36.5 -80.5 96.5t-27 129q0 48 14.5 100t36.5 98l26 -14q-21 -42 -34 -90.5t-13 -93.5q0 -64 23 -116.5t70 -84t114 -31.5h48q106 0 153 45t47 141v685h30v-685q0 -107 -56 -161.5t-174 -54.5h-48q-76 0 -129.5 36.5z" />
    <glyph glyph-name="uni0645" unicode="&#x645;" horiz-adv-x="561" arabic-form="isolated" 
d="M74 167l30 22q31 -11 64 -24l36 135q18 67 57.5 105.5t95.5 38.5q46 0 81 -25.5t54 -69.5t19 -98q0 -94 -35.5 -138.5t-86.5 -44.5q-31 0 -83.5 16.5t-153.5 54.5l-48 18v-419h-30v429zM321.5 111q42.5 -13 67.5 -13q92 0 92 153q0 73 -33.5 118t-90.5 45
q-46 0 -77.5 -31.5t-47.5 -90.5l-37 -137q84 -31 126.5 -44z" />
    <glyph glyph-name="uni0646" unicode="&#x646;" horiz-adv-x="674" arabic-form="isolated" 
d="M97.5 126.5q-17.5 -59.5 -17.5 -116.5q0 -64 23 -116.5t70 -84t114 -31.5h107q106 0 153 45t47 141v330h30v-330q0 -107 -56 -161.5t-174 -54.5h-107q-76 0 -129.5 36.5t-80.5 96.5t-27 129q0 61 18 124t50 133l28 -12q-31 -69 -48.5 -128.5zM332 295h67v-67h-67v67z" />
    <glyph glyph-name="uni0647" unicode="&#x647;" horiz-adv-x="447" arabic-form="isolated" 
d="M237 395q61 -66 92 -103.5t49.5 -74t18.5 -72.5q0 -42 -23.5 -77t-63.5 -55.5t-86 -20.5t-86.5 20.5t-64 55.5t-23.5 77q0 39 17.5 75.5t44 68.5t73.5 81l17 18l-20 22l-24 27l22 20zM121.5 57q41.5 -35 102.5 -35t102 35.5t41 87.5q0 30 -16 61t-44 64.5t-85 95.5
l-26 -28q-61 -66 -88.5 -106.5t-27.5 -86.5q0 -53 41.5 -88z" />
    <glyph glyph-name="uni0648" unicode="&#x648;" horiz-adv-x="427" arabic-form="isolated" 
d="M301 -176q46 47 46 140v36h-134q-72 0 -117.5 40.5t-45.5 119.5q0 58 20.5 104.5t57.5 73t84 26.5q76 0 120.5 -55.5t44.5 -148.5v-196q0 -217 -231 -217h-84v30h84q109 0 155 47zM115.5 61.5q35.5 -31.5 97.5 -31.5h134v130q0 83 -35 128.5t-100 45.5q-60 0 -96 -47.5
t-36 -126.5q0 -67 35.5 -98.5z" />
    <glyph glyph-name="uni0649" unicode="&#x649;" horiz-adv-x="716" arabic-form="isolated" 
d="M80 16q0 -67 24.5 -121t72.5 -85.5t115 -31.5h112q68 0 106 15t58.5 49t33.5 97q4 20 4 25q0 11 -6.5 16.5t-24.5 10.5l-237 63q-9 39 -9 72q0 98 68 170q34 36 83.5 54.5t100.5 18.5q37 0 85 -11l-8 -30q-44 11 -77 11q-46 0 -89 -16t-73 -47q-60 -64 -60 -148
q0 -20 5 -50q49 -13 113 -30t106 -29q27 -8 39.5 -22t12.5 -38q0 -11 -3 -26q-15 -68 -39.5 -107.5t-69.5 -58.5t-119 -19h-112q-76 0 -130.5 36.5t-83 97.5t-28.5 134q0 105 66 248l28 -12q-64 -137 -64 -236z" />
    <glyph glyph-name="uni064A" unicode="&#x64a;" horiz-adv-x="716" arabic-form="isolated" 
d="M80 16q0 -67 24.5 -121t72.5 -85.5t115 -31.5h112q68 0 106 15t58.5 49t33.5 97q4 20 4 25q0 11 -6.5 16.5t-24.5 10.5l-237 63q-9 39 -9 72q0 98 68 170q34 36 83.5 54.5t100.5 18.5q37 0 85 -11l-8 -30q-44 11 -77 11q-46 0 -89 -16t-73 -47q-60 -64 -60 -148
q0 -20 5 -50q49 -13 113 -30t106 -29q27 -8 39.5 -22t12.5 -38q0 -11 -3 -26q-15 -68 -39.5 -107.5t-69.5 -58.5t-119 -19h-112q-76 0 -130.5 36.5t-83 97.5t-28.5 134q0 105 66 248l28 -12q-64 -137 -64 -236z" />
    <glyph glyph-name="uni066E.init" unicode="&#x66e;" horiz-adv-x="298" 
d="M-5 30h104q64 0 89.5 31t25.5 76q0 46 -32 187l30 6q32 -141 32 -193q0 -54 -33.5 -95.5t-111.5 -41.5h-104v30z" />
    <glyph glyph-name="uni066E.medi" unicode="&#x66e;" horiz-adv-x="359" 
d="M233 294v-163q0 -56 35 -78.5t72 -22.5h24l3 -15l-3 -15h-24q-30 0 -66.5 15t-55.5 51q-19 -33 -56.5 -49.5t-87.5 -16.5h-79v30h79q129 0 129 101v163h30z" />
    <glyph glyph-name="uni066E.fina" unicode="&#x66e;" horiz-adv-x="868" 
d="M111.5 19.5q-31.5 19.5 -48 53t-13.5 72.5q2 27 32 157l30 -6l-5 -22q-24 -97 -27 -131q-4 -49 25 -81t79 -32h399q129 0 129 101v163h30v-163q0 -56 35 -78.5t72 -22.5h24l3 -15l-3 -15h-24q-30 0 -66.5 15t-55.5 51q-19 -33 -56.5 -49.5t-87.5 -16.5h-399
q-41 0 -72.5 19.5z" />
    <glyph glyph-name="uni066F.fina" unicode="&#x66f;" horiz-adv-x="675" 
d="M110.5 166.5q-11.5 -29.5 -21 -72t-9.5 -90.5q0 -116 47 -171.5t158 -55.5h107q109 0 155 47t46 140v36h-134q-72 0 -117.5 40.5t-45.5 119.5q0 58 20.5 104.5t57.5 73t84 26.5q76 0 120.5 -55.5t44.5 -148.5v-130h58l3 -15l-3 -15h-58v-36q0 -217 -231 -217h-107
q-123 0 -179 65.5t-56 191.5q0 72 17 127t49 128l28 -12q-22 -51 -33.5 -80.5zM361.5 61.5q35.5 -31.5 97.5 -31.5h134v130q0 83 -35 128.5t-100 45.5q-60 0 -96 -47.5t-36 -126.5q0 -67 35.5 -98.5z" />
    <glyph glyph-name="uni0671" unicode="&#x671;" horiz-adv-x="210" arabic-form="isolated" 
d="M90 559h30v-559h-30v559zM-6 727l15 -22q8 -14 16 -23l33 48q18 28 36 41.5t43 13.5q33 0 52 -24t19 -57q0 -35 -21.5 -55.5t-53.5 -20.5h-40q-35 0 -52 5.5t-30 21t-39 56.5zM93 658h40q45 0 45 46q0 24 -10.5 37.5t-30.5 13.5q-17 0 -28 -9t-27 -32l-34 -51
q13 -5 45 -5z" />
    <glyph glyph-name="uni0679" unicode="&#x679;" horiz-adv-x="792" arabic-form="isolated" 
d="M111.5 19.5q-31.5 19.5 -48 53t-13.5 72.5q2 27 32 157l30 -6l-5 -22q-24 -97 -27 -131q-4 -49 25 -81t79 -32h425q52 0 77.5 32.5t25.5 74.5q0 46 -32 187l30 6q32 -141 32 -193q0 -31 -14 -63t-44 -53t-75 -21h-425q-41 0 -72.5 19.5zM309 383l15 -22q8 -14 16 -23
l17 24v138h28v-97q15 19 30.5 28.5t36.5 9.5q33 0 52 -24t19 -57q0 -35 -21.5 -55.5t-53.5 -20.5h-40q-35 0 -52 5.5t-30 21t-39 56.5zM408 314h40q45 0 45 46q0 24 -10.5 37.5t-30.5 13.5q-17 0 -28 -9t-27 -32l-34 -51q13 -5 45 -5z" />
    <glyph glyph-name="uni067E" unicode="&#x67e;" horiz-adv-x="792" arabic-form="isolated" 
d="M111.5 19.5q-31.5 19.5 -48 53t-13.5 72.5q2 27 32 157l30 -6l-5 -22q-24 -97 -27 -131q-4 -49 25 -81t79 -32h425q52 0 77.5 32.5t25.5 74.5q0 46 -32 187l30 6q32 -141 32 -193q0 -31 -14 -63t-44 -53t-75 -21h-425q-41 0 -72.5 19.5zM282 -109h67v-67h-67v67z
M362 -210h67v-67h-67v67zM441 -109h67v-67h-67v67z" />
    <glyph glyph-name="uni0686" unicode="&#x686;" horiz-adv-x="641" arabic-form="isolated" 
d="M548 -237h-261q-83 0 -140 36.5t-82 103.5q-15 37 -15 76q0 68 42.5 126.5t117.5 87.5l343 136q-136 55 -220.5 87t-109.5 32q-34 0 -57 -20t-37 -71l-28 8q31 113 122 113q28 0 103.5 -28t209.5 -83l51 -21l4 -33l-369 -148q-68 -27 -105 -76.5t-37 -107.5q0 -35 13 -68
q45 -120 194 -120h261v-30zM252 66h67v-67h-67v67zM331 -35h67v-67h-67v67zM411 66h67v-67h-67v67z" />
    <glyph glyph-name="uni0695.fina" unicode="&#x695;" horiz-adv-x="415" 
d="M303 294v-163q0 -56 35 -78.5t72 -22.5h10l3 -15l-3 -15h-10q-27 0 -57.5 13t-49.5 44v-61q0 -123 -61.5 -185.5t-178.5 -62.5h-63v30h63q106 0 158 53t52 165v298h30zM61 -332l68 -108l68 108l26 -16l-74 -117h-40l-74 117z" />
    <glyph glyph-name="uni0698" unicode="&#x698;" horiz-adv-x="373" arabic-form="isolated" 
d="M303 294v-298q0 -123 -61.5 -185.5t-178.5 -62.5h-63v30h63q106 0 158 53t52 165v298h30zM145 482h67v-67h-67v67zM225 583h67v-67h-67v67zM304 482h67v-67h-67v67z" />
    <glyph glyph-name="uni06A1.init" unicode="&#x6a1;" horiz-adv-x="415" 
d="M-5 30h149q70 0 110 13t58 41t22 75h-112q-62 0 -102.5 39t-40.5 101q0 42 19.5 78t52.5 57.5t71 21.5q41 0 74 -21.5t51 -57.5t18 -78v-102q0 -69 -19 -111.5t-67 -64t-135 -21.5h-149v30zM140 218.5q31 -29.5 82 -29.5h113v8v102q0 56 -31 91.5t-82 35.5
q-47 0 -80 -36.5t-33 -90.5q0 -51 31 -80.5z" />
    <glyph glyph-name="uni06A1.medi" unicode="&#x6a1;" horiz-adv-x="447" 
d="M-5 30h15q90 0 166 16q-53 24 -83 62t-30 90q0 45 21.5 83t59 60t81.5 22q43 0 79.5 -22t58 -60t21.5 -83q0 -100 -113 -152q76 -16 166 -16h15l3 -15l-3 -15h-15q-121 0 -213 28q-92 -28 -214 -28h-15v30zM224 59q130 43 130 139q0 58 -37 96.5t-92 38.5
q-57 0 -94.5 -38.5t-37.5 -96.5q0 -96 131 -139z" />
    <glyph glyph-name="uni06A1.fina" unicode="&#x6a1;" horiz-adv-x="828" 
d="M471 108q-30 38 -30 90q0 45 21.5 83t59 60t81.5 22q43 0 79.5 -22t58 -60t21.5 -83q0 -100 -113 -152q76 -16 166 -16h15l3 -15l-3 -15h-15q-121 0 -213 28q-40 -17 -134.5 -22.5t-283.5 -5.5q-41 0 -72.5 19.5t-48 53t-13.5 72.5q2 27 32 157l30 -6l-5 -22
q-24 -97 -27 -131q-4 -49 25 -81t79 -32q178 0 257 3t113 13q-53 24 -83 62zM602 59q130 43 130 139q0 58 -37 96.5t-92 38.5q-57 0 -94.5 -38.5t-37.5 -96.5q0 -96 131 -139z" />
    <glyph glyph-name="uni06A4" unicode="&#x6a4;" horiz-adv-x="793" arabic-form="isolated" 
d="M111.5 19.5q-31.5 19.5 -48 53t-13.5 72.5q2 27 32 157l30 -6l-5 -22q-24 -97 -27 -131q-4 -49 25 -81t79 -32h338q70 0 110 13t58 41t22 75h-112q-62 0 -102.5 39t-40.5 101q0 42 19.5 78t52.5 57.5t71 21.5q41 0 74 -21.5t51 -57.5t18 -78v-102q0 -69 -19 -111.5
t-67 -64t-135 -21.5h-338q-41 0 -72.5 19.5zM485 592h67v-67h-67v67zM518 218.5q31 -29.5 82 -29.5h113v8v102q0 56 -31 91.5t-82 35.5q-47 0 -80 -36.5t-33 -90.5q0 -51 31 -80.5zM565 693h67v-67h-67v67zM644 592h67v-67h-67v67z" />
    <glyph glyph-name="uni06A9" unicode="&#x6a9;" horiz-adv-x="834" arabic-form="isolated" 
d="M111.5 19.5q-31.5 19.5 -48 53t-13.5 72.5q2 27 32 157l30 -6l-5 -22q-24 -97 -27 -131q-4 -49 25 -81t79 -32h382q69 0 109.5 36t40.5 87q0 28 -12.5 55t-36.5 51l-240 234l9 37l381 167l12 -28l-373 -163l231 -225q28 -28 42.5 -60.5t14.5 -65.5q0 -41 -21.5 -76.5
t-62 -57t-94.5 -21.5h-382q-41 0 -72.5 19.5z" />
    <glyph glyph-name="uni06AF" unicode="&#x6af;" horiz-adv-x="844" arabic-form="isolated" 
d="M111.5 19.5q-31.5 19.5 -48 53t-13.5 72.5q2 27 32 157l30 -6l-5 -22q-24 -97 -27 -131q-4 -49 25 -81t79 -32h382q69 0 109.5 36t40.5 87q0 28 -12.5 55t-36.5 51l-218 212l9 37l369 162l12 -28l-361 -158l209 -203q28 -28 42.5 -60.5t14.5 -65.5q0 -41 -21.5 -76.5
t-62 -57t-94.5 -21.5h-382q-41 0 -72.5 19.5zM476 612l302 131l12 -28l-321 -140z" />
    <glyph glyph-name="uni06B5.init" unicode="&#x6b5;" horiz-adv-x="206" 
d="M131.5 51q-24.5 -29 -56 -40t-56.5 -11h-24v30h24q37 0 72 22.5t35 78.5v518h30v-518q0 -51 -24.5 -80zM72 833l68 -108l68 108l26 -16l-74 -117h-40l-74 117z" />
    <glyph glyph-name="uni06B5.medi" unicode="&#x6b5;" horiz-adv-x="285" 
d="M-5 30h24q107 0 107 101v518h30v-518q0 -101 107 -101h24l3 -15l-3 -15h-24q-35 0 -69 14t-52 51q-18 -37 -52.5 -51t-70.5 -14h-24v30zM75 833l68 -108l68 108l26 -16l-74 -117h-40l-74 117z" />
    <glyph glyph-name="uni06B5.fina" unicode="&#x6b5;" horiz-adv-x="680" 
d="M157.5 -215.5q-53.5 36.5 -80.5 96.5t-27 129q0 48 14.5 100t36.5 98l26 -14q-21 -42 -34 -90.5t-13 -93.5q0 -64 23 -116.5t70 -84t114 -31.5h48q106 0 153 45t47 141v685h30v-518q0 -56 35 -78.5t72 -22.5h10l3 -15l-3 -15h-10q-27 0 -57.5 13t-49.5 44v-93
q0 -107 -56 -161.5t-174 -54.5h-48q-76 0 -129.5 36.5zM484 833l68 -108l68 108l26 -16l-74 -117h-40l-74 117z" />
    <glyph glyph-name="uni06C2.fina" unicode="&#x6c2;" horiz-adv-x="490" 
d="M373.5 60.5q48.5 -30.5 109.5 -30.5h12l2 -16l-2 -14h-12q-69 0 -127 36t-78 118l-36 149l-49 -13q-55 -15 -84.5 -50t-29.5 -85q0 -26 9 -56l17 -57l-28 -8l-17 57q-9 32 -9 62q0 60 35.5 104t98.5 61l67 18l16 -10l40 -164q17 -71 65.5 -101.5zM162 432q-26 11 -42 33
t-16 51q0 38 27.5 62t66.5 24q22 0 60 -9l-6 -27q-28 6 -50 6q-30 0 -49 -16t-19 -39q0 -33 28.5 -51.5t67.5 -13.5l62 18l2 -31l-208 -61l-2 31z" />
    <glyph glyph-name="uni06C3.fina" unicode="&#x6c3;" horiz-adv-x="490" 
d="M373.5 60.5q48.5 -30.5 109.5 -30.5h12l2 -16l-2 -14h-12q-69 0 -127 36t-78 118l-36 149l-49 -13q-55 -15 -84.5 -50t-29.5 -85q0 -26 9 -56l17 -57l-28 -8l-17 57q-9 32 -9 62q0 60 35.5 104t98.5 61l67 18l16 -10l40 -164q17 -71 65.5 -101.5zM107 493h67v-67h-67v67z
M246 493h67v-67h-67v67z" />
    <glyph glyph-name="uni06C6" unicode="&#x6c6;" horiz-adv-x="427" arabic-form="isolated" 
d="M301 -176q46 47 46 140v36h-134q-72 0 -117.5 40.5t-45.5 119.5q0 58 20.5 104.5t57.5 73t84 26.5q76 0 120.5 -55.5t44.5 -148.5v-196q0 -217 -231 -217h-84v30h84q109 0 155 47zM115.5 61.5q35.5 -31.5 97.5 -31.5h134v130q0 83 -35 128.5t-100 45.5q-60 0 -96 -47.5
t-36 -126.5q0 -67 35.5 -98.5zM129 541l68 -108l68 108l26 -16l-74 -117h-40l-74 117z" />
    <glyph glyph-name="uni06C7" unicode="&#x6c7;" horiz-adv-x="427" arabic-form="isolated" 
d="M301 -176q46 47 46 140v36h-134q-72 0 -117.5 40.5t-45.5 119.5q0 58 20.5 104.5t57.5 73t84 26.5q76 0 120.5 -55.5t44.5 -148.5v-196q0 -217 -231 -217h-84v30h84q109 0 155 47zM115.5 61.5q35.5 -31.5 97.5 -31.5h134v130q0 83 -35 128.5t-100 45.5q-60 0 -96 -47.5
t-36 -126.5q0 -67 35.5 -98.5zM182 455q-24 19 -34 48q-4 12 -4 28q0 28 17.5 51t44.5 32q18 6 36 6q29 0 52 -15.5t32 -43.5q4 -12 4 -27q0 -28 -19 -50.5t-53 -33.5l-139 -47l-10 28zM215 466l35 12q24 8 37.5 22.5t13.5 32.5q0 9 -3 18q-7 19 -22 29.5t-34 10.5
q-11 0 -26 -5q-20 -8 -31.5 -21.5t-11.5 -31.5q0 -9 3 -20q12 -33 39 -47z" />
    <glyph glyph-name="uni06CC" unicode="&#x6cc;" horiz-adv-x="716" arabic-form="isolated" 
d="M80 16q0 -67 24.5 -121t72.5 -85.5t115 -31.5h112q68 0 106 15t58.5 49t33.5 97q4 20 4 25q0 11 -6.5 16.5t-24.5 10.5l-237 63q-9 39 -9 72q0 98 68 170q34 36 83.5 54.5t100.5 18.5q37 0 85 -11l-8 -30q-44 11 -77 11q-46 0 -89 -16t-73 -47q-60 -64 -60 -148
q0 -20 5 -50q49 -13 113 -30t106 -29q27 -8 39.5 -22t12.5 -38q0 -11 -3 -26q-15 -68 -39.5 -107.5t-69.5 -58.5t-119 -19h-112q-76 0 -130.5 36.5t-83 97.5t-28.5 134q0 105 66 248l28 -12q-64 -137 -64 -236z" />
    <glyph glyph-name="uni06CE.init" unicode="&#x6ce;" horiz-adv-x="320" 
d="M79 553l26 16l68 -108l68 108l26 -16l-74 -117h-40zM-30 -126h67v-67h-67v67zM-5 30h135q64 0 89.5 31t25.5 76q0 46 -32 187l30 6q32 -141 32 -193q0 -54 -33.5 -95.5t-111.5 -41.5h-135v30zM109 -126h67v-67h-67v67z" />
    <glyph glyph-name="uni06CE.medi" unicode="&#x6ce;" horiz-adv-x="390" 
d="M64 448l26 16l68 -108l68 108l26 -16l-74 -117h-40zM-32 -126h67v-67h-67v67zM-5 30h102q129 0 129 101v163h30v-163q0 -56 35 -78.5t72 -22.5h50l3 -15l-3 -15h-50q-30 0 -66.5 15t-55.5 51q-19 -33 -56.5 -49.5t-87.5 -16.5h-102v30zM107 -126h67v-67h-67v67z" />
    <glyph glyph-name="uni06CE.fina" unicode="&#x6ce;" horiz-adv-x="716" 
d="M161.5 -215.5q-54.5 36.5 -83 97.5t-28.5 134q0 105 66 248l28 -12q-64 -137 -64 -236q0 -67 24.5 -121t72.5 -85.5t115 -31.5h112q65 0 101.5 13t53 36t23.5 61q2 8 2 23q0 36 -24 55q-28 23 -76.5 28.5t-132.5 5.5v30h370l2 -15l-2 -15h-160q25 -7 39.5 -32.5
t14.5 -57.5q0 -15 -3 -28q-13 -65 -58.5 -99.5t-149.5 -34.5h-112q-76 0 -130.5 36.5zM218 335l68 -108l68 108l26 -16l-74 -117h-40l-74 117z" />
    <glyph glyph-name="uni06D5.fina" unicode="&#x6d5;" horiz-adv-x="584" 
d="M393 161q17 -71 66.5 -101t109.5 -30h20l2 -16l-2 -14h-20q-67 0 -126.5 35.5t-79.5 117.5l-3 14q-6 -27 -19 -48q-21 -38 -57 -58.5t-77 -20.5q-43 0 -80 22q-36 21 -56.5 57t-20.5 77q0 44 21 79q14 23 34 41t65 41t131 58l-17 74l29 8q49 -211 80 -336zM79 195
q0 -33 17 -61.5t47 -45.5q31 -19 65 -19q33 0 61 17t46 47q15 27 21.5 46t6.5 44q0 13 -1 20l-34 142q-81 -33 -122 -54t-59 -36t-30 -36q-18 -30 -18 -64z" />
    <glyph glyph-name="uni0671.fina" unicode="&#x671;" horiz-adv-x="247" arabic-form="final" 
d="M127.5 36.5q-37.5 36.5 -37.5 115.5v407h30v-407q0 -67 28 -94.5t93 -27.5h11l3 -15l-3 -15h-11q-76 0 -113.5 36.5zM16 727l15 -22q8 -14 16 -23l33 48q18 28 36 41.5t43 13.5q33 0 52 -24t19 -57q0 -35 -21.5 -55.5t-53.5 -20.5h-40q-35 0 -52 5.5t-30 21t-39 56.5z
M115 658h40q45 0 45 46q0 24 -10.5 37.5t-30.5 13.5q-17 0 -28 -9t-27 -32l-34 -51q13 -5 45 -5z" />
    <glyph glyph-name="uni067E.fina" unicode="&#x67e;" horiz-adv-x="868" arabic-form="final" 
d="M111.5 19.5q-31.5 19.5 -48 53t-13.5 72.5q2 27 32 157l30 -6l-5 -22q-24 -97 -27 -131q-4 -49 25 -81t79 -32h399q129 0 129 101v163h30v-163q0 -56 35 -78.5t72 -22.5h24l3 -15l-3 -15h-24q-30 0 -66.5 15t-55.5 51q-19 -33 -56.5 -49.5t-87.5 -16.5h-399
q-41 0 -72.5 19.5zM282 -109h67v-67h-67v67zM362 -210h67v-67h-67v67zM441 -109h67v-67h-67v67z" />
    <glyph glyph-name="uni067E.init" unicode="&#x67e;" horiz-adv-x="325" arabic-form="initial" 
d="M-5 30h135q64 0 89.5 31t25.5 76q0 46 -32 187l30 6q32 -141 32 -193q0 -54 -33.5 -95.5t-111.5 -41.5h-135v30zM-36 -109h67v-67h-67v67zM44 -210h67v-67h-67v67zM123 -109h67v-67h-67v67z" />
    <glyph glyph-name="uni067E.medi" unicode="&#x67e;" horiz-adv-x="408" arabic-form="medial" 
d="M256 294v-163q0 -56 35 -78.5t72 -22.5h50l3 -15l-3 -15h-50q-30 0 -66.5 15t-55.5 51q-19 -33 -56.5 -49.5t-87.5 -16.5h-102v30h102q129 0 129 101v163h30zM-25 -110h67v-67h-67v67zM55 -211h67v-67h-67v67zM134 -110h67v-67h-67v67z" />
    <glyph glyph-name="uni0679.fina" unicode="&#x679;" horiz-adv-x="868" arabic-form="final" 
d="M111.5 19.5q-31.5 19.5 -48 53t-13.5 72.5q2 27 32 157l30 -6l-5 -22q-24 -97 -27 -131q-4 -49 25 -81t79 -32h399q129 0 129 101v163h30v-163q0 -56 35 -78.5t72 -22.5h24l3 -15l-3 -15h-24q-30 0 -66.5 15t-55.5 51q-19 -33 -56.5 -49.5t-87.5 -16.5h-399
q-41 0 -72.5 19.5zM326 383l15 -22q8 -14 16 -23l17 24v138h28v-97q15 19 30.5 28.5t36.5 9.5q33 0 52 -24t19 -57q0 -35 -21.5 -55.5t-53.5 -20.5h-40q-35 0 -52 5.5t-30 21t-39 56.5zM425 314h40q45 0 45 46q0 24 -10.5 37.5t-30.5 13.5q-17 0 -28 -9t-27 -32l-34 -51
q13 -5 45 -5z" />
    <glyph glyph-name="uni0679.init" unicode="&#x679;" horiz-adv-x="325" arabic-form="initial" 
d="M-5 30h135q64 0 89.5 31t25.5 76q0 46 -32 187l30 6q32 -141 32 -193q0 -54 -33.5 -95.5t-111.5 -41.5h-135v30zM33 485l15 -22q8 -14 16 -23l17 24v138h28v-97q15 19 30.5 28.5t36.5 9.5q33 0 52 -24t19 -57q0 -35 -21.5 -55.5t-53.5 -20.5h-40q-35 0 -52 5.5t-30 21
t-39 56.5zM132 416h40q45 0 45 46q0 24 -10.5 37.5t-30.5 13.5q-17 0 -28 -9t-27 -32l-34 -51q13 -5 45 -5z" />
    <glyph glyph-name="uni0679.medi" unicode="&#x679;" horiz-adv-x="408" arabic-form="medial" 
d="M256 294v-163q0 -56 35 -78.5t72 -22.5h50l3 -15l-3 -15h-50q-30 0 -66.5 15t-55.5 51q-19 -33 -56.5 -49.5t-87.5 -16.5h-102v30h102q129 0 129 101v163h30zM45 436l15 -22q8 -14 16 -23l17 24v138h28v-97q15 19 30.5 28.5t36.5 9.5q33 0 52 -24t19 -57
q0 -35 -21.5 -55.5t-53.5 -20.5h-40q-35 0 -52 5.5t-30 21t-39 56.5zM144 367h40q45 0 45 46q0 24 -10.5 37.5t-30.5 13.5q-17 0 -28 -9t-27 -32l-34 -51q13 -5 45 -5z" />
    <glyph glyph-name="uni06A4.fina" unicode="&#x6a4;" horiz-adv-x="828" arabic-form="final" 
d="M471 108q-30 38 -30 90q0 45 21.5 83t59 60t81.5 22q43 0 79.5 -22t58 -60t21.5 -83q0 -100 -113 -152q76 -16 166 -16h15l3 -15l-3 -15h-15q-121 0 -213 28q-40 -17 -134.5 -22.5t-283.5 -5.5q-41 0 -72.5 19.5t-48 53t-13.5 72.5q2 27 32 157l30 -6l-5 -22
q-24 -97 -27 -131q-4 -49 25 -81t79 -32q178 0 257 3t113 13q-53 24 -83 62zM602 59q130 43 130 139q0 58 -37 96.5t-92 38.5q-57 0 -94.5 -38.5t-37.5 -96.5q0 -96 131 -139zM489 499h67v-67h-67v67zM569 600h67v-67h-67v67zM648 499h67v-67h-67v67z" />
    <glyph glyph-name="uni06A4.init" unicode="&#x6a4;" horiz-adv-x="415" arabic-form="initial" 
d="M-5 30h149q70 0 110 13t58 41t22 75h-112q-62 0 -102.5 39t-40.5 101q0 42 19.5 78t52.5 57.5t71 21.5q41 0 74 -21.5t51 -57.5t18 -78v-102q0 -69 -19 -111.5t-67 -64t-135 -21.5h-149v30zM107 592h67v-67h-67v67zM140 218.5q31 -29.5 82 -29.5h113v8v102q0 56 -31 91.5
t-82 35.5q-47 0 -80 -36.5t-33 -90.5q0 -51 31 -80.5zM187 693h67v-67h-67v67zM266 592h67v-67h-67v67z" />
    <glyph glyph-name="uni06A4.medi" unicode="&#x6a4;" horiz-adv-x="447" arabic-form="medial" 
d="M-5 30h15q90 0 166 16q-53 24 -83 62t-30 90q0 45 21.5 83t59 60t81.5 22q43 0 79.5 -22t58 -60t21.5 -83q0 -100 -113 -152q76 -16 166 -16h15l3 -15l-3 -15h-15q-121 0 -213 28q-92 -28 -214 -28h-15v30zM224 59q130 43 130 139q0 58 -37 96.5t-92 38.5
q-57 0 -94.5 -38.5t-37.5 -96.5q0 -96 131 -139zM112 503h67v-67h-67v67zM192 604h67v-67h-67v67zM271 503h67v-67h-67v67z" />
    <glyph glyph-name="uni0686.fina" unicode="&#x686;" horiz-adv-x="707" arabic-form="final" 
d="M715 15l-3 -15h-14q-50 0 -83.5 19.5t-57 63.5t-42.5 120l-14 59l-279 -112q-68 -27 -105 -76.5t-37 -107.5q0 -35 13 -68q45 -120 194 -120h261v-30h-261q-83 0 -140 36.5t-82 103.5q-15 37 -15 76q0 68 42.5 126.5t117.5 87.5l343 136q-136 55 -220.5 87t-109.5 32
q-34 0 -57 -20t-37 -71l-28 8q31 113 122 113q28 0 103.5 -28t209.5 -83l51 -21l4 -33l-63 -25l14 -64q16 -70 36 -108.5t48.5 -54.5t71.5 -16h14zM246 53h67v-67h-67v67zM325 -48h67v-67h-67v67zM405 53h67v-67h-67v67z" />
    <glyph glyph-name="uni0686.init" unicode="&#x686;" horiz-adv-x="610" arabic-form="initial" 
d="M-8 30h110q75 0 145 24.5t130 61t143 95.5q-144 59 -224.5 89.5t-106.5 30.5q-34 0 -57 -20t-37 -71l-28 8q31 113 122 113q30 0 114.5 -31.5t224.5 -88.5l29 -12l3 -26q-94 -68 -157 -107.5t-140.5 -67.5t-160.5 -28h-110v30zM212 -109h67v-67h-67v67zM292 -210h67v-67
h-67v67zM371 -109h67v-67h-67v67z" />
    <glyph glyph-name="uni0686.medi" unicode="&#x686;" horiz-adv-x="677" arabic-form="medial" 
d="M487.5 30q-38.5 30 -44.5 91q-87 -57 -169.5 -89t-171.5 -32h-110v30h110q75 0 145 24.5t130 61t143 95.5q-144 59 -224.5 89.5t-106.5 30.5q-34 0 -57 -20t-37 -71l-28 8q31 113 122 113q30 0 114.5 -31.5t224.5 -88.5l29 -12l3 -26l-33 -24q-11 -7 -25 -17.5t-33 -22.5
q3 -59 34.5 -84t79.5 -25h99l4 -15l-4 -15h-99q-57 0 -95.5 30zM231 -107h67v-67h-67v67zM311 -208h67v-67h-67v67zM390 -107h67v-67h-67v67z" />
    <glyph glyph-name="uni0688.fina" unicode="&#x688;" horiz-adv-x="571" arabic-form="final" 
d="M395 220l6 -13q41 -93 76.5 -135t82.5 -42h16l3 -15l-3 -15h-16q-42 0 -75.5 26t-64.5 78q-5 -25 -18 -42q-24 -34 -62.5 -48t-81.5 -14h-51q-56 0 -96 16.5t-61 34.5l20 22q18 -16 52.5 -29.5t84.5 -13.5h51q85 0 120 50q14 20 14 45q0 23 -16 64l-9 19l-106 230l28 12z
M182 631l15 -22q8 -14 16 -23l17 24v138h28v-97q15 19 30.5 28.5t36.5 9.5q33 0 52 -24t19 -57q0 -35 -21.5 -55.5t-53.5 -20.5h-40q-35 0 -52 5.5t-30 21t-39 56.5zM281 562h40q45 0 45 46q0 24 -10.5 37.5t-30.5 13.5q-17 0 -28 -9t-27 -32l-34 -51q13 -5 45 -5z" />
    <glyph glyph-name="uni0698.fina" unicode="&#x698;" horiz-adv-x="415" arabic-form="final" 
d="M303 294v-163q0 -56 35 -78.5t72 -22.5h10l3 -15l-3 -15h-10q-27 0 -57.5 13t-49.5 44v-61q0 -123 -61.5 -185.5t-178.5 -62.5h-63v30h63q106 0 158 53t52 165v298h30zM165 482h67v-67h-67v67zM245 583h67v-67h-67v67zM324 482h67v-67h-67v67z" />
    <glyph glyph-name="uni0691.fina" unicode="&#x691;" horiz-adv-x="415" arabic-form="final" 
d="M303 294v-163q0 -56 35 -78.5t72 -22.5h10l3 -15l-3 -15h-10q-27 0 -57.5 13t-49.5 44v-61q0 -123 -61.5 -185.5t-178.5 -62.5h-63v30h63q106 0 158 53t52 165v298h30zM142 484l15 -22q8 -14 16 -23l17 24v138h28v-97q15 19 30.5 28.5t36.5 9.5q33 0 52 -24t19 -57
q0 -35 -21.5 -55.5t-53.5 -20.5h-40q-35 0 -52 5.5t-30 21t-39 56.5zM241 415h40q45 0 45 46q0 24 -10.5 37.5t-30.5 13.5q-17 0 -28 -9t-27 -32l-34 -51q13 -5 45 -5z" />
    <glyph glyph-name="uni06A9.fina" unicode="&#x6a9;" horiz-adv-x="914" arabic-form="final" 
d="M111.5 19.5q-31.5 19.5 -48 53t-13.5 72.5q2 27 32 157l30 -6l-5 -22q-24 -97 -27 -131q-4 -49 25 -81t79 -32h316q64 0 103.5 37.5t39.5 92.5q0 54 -38 102l-179 231l9 37l381 167l12 -28l-373 -163l171 -223q1 -2 3 -4t4 -6q65 -89 108 -138.5t84 -77t84 -27.5h10
l2 -16l-2 -14h-10q-60 0 -114.5 43.5t-124.5 135.5q1 -6 1 -18q0 -44 -22.5 -81t-60.5 -58.5t-84 -21.5h-320q-41 0 -72.5 19.5z" />
    <glyph glyph-name="uni06A9.init" unicode="&#x6a9;" horiz-adv-x="483" arabic-form="initial" 
d="M478 669l-373 -163l231 -225q28 -28 42.5 -60.5t14.5 -65.5q0 -41 -21.5 -76.5t-62 -57t-94.5 -21.5h-220v30h220q69 0 109.5 36t40.5 87q0 28 -12.5 55t-36.5 51l-240 234l9 37l381 167z" />
    <glyph glyph-name="uni06A9.medi" unicode="&#x6a9;" horiz-adv-x="564" arabic-form="medial" 
d="M478 669l-373 -163l171 -223q1 -2 3 -4t4 -6q65 -89 108 -138.5t84 -77t84 -27.5h10l2 -16l-2 -14h-10q-60 0 -114.5 43.5t-124.5 135.5q1 -6 1 -18q0 -44 -22.5 -81t-60.5 -58.5t-84 -21.5h-159v30h155q64 0 103.5 37.5t39.5 92.5q0 54 -38 102l-179 231l9 37l381 167z
" />
    <glyph glyph-name="uni06AF.fina" unicode="&#x6af;" horiz-adv-x="915" arabic-form="final" 
d="M840 641l-365 -159l152 -199l6 -8q66 -90 109 -140t84 -77.5t84 -27.5h10l2 -16l-2 -14h-10q-60 0 -114.5 43.5t-124.5 135.5q1 -6 1 -18q0 -44 -22.5 -81t-60.5 -58.5t-84 -21.5h-321q-41 0 -72.5 19.5t-48 53t-13.5 72.5q2 27 32 157l30 -6l-5 -22q-24 -97 -27 -131
q-4 -49 25 -81t79 -32h317q64 0 103.5 37.5t39.5 92.5q0 52 -38 102l-160 207l9 37l373 163zM476 612l302 131l12 -28l-321 -140z" />
    <glyph glyph-name="uni06AF.init" unicode="&#x6af;" horiz-adv-x="493" arabic-form="initial" 
d="M488 642l-361 -158l209 -203q28 -28 42.5 -60.5t14.5 -65.5q0 -41 -21.5 -76.5t-62 -57t-94.5 -21.5h-220v30h220q69 0 109.5 36t40.5 87q0 28 -12.5 55t-36.5 51l-218 212l9 37l369 162zM125 612l302 131l12 -28l-321 -140z" />
    <glyph glyph-name="uni06AF.medi" unicode="&#x6af;" horiz-adv-x="564" arabic-form="medial" 
d="M489 641l-365 -159l152 -199l6 -8q66 -90 109 -140t84 -77.5t84 -27.5h10v-30h-10q-60 0 -114.5 43.5t-124.5 135.5q1 -6 1 -18q0 -44 -22.5 -81t-60.5 -58.5t-84 -21.5h-159v30h155q64 0 103.5 37.5t39.5 92.5q0 52 -38 102l-160 207l9 37l373 163zM125 612l302 131
l12 -28l-321 -140z" />
    <glyph glyph-name="uni06BA.fina" unicode="&#x6ba;" horiz-adv-x="736" arabic-form="final" 
d="M673.5 13q-30.5 13 -49.5 44v-93q0 -107 -56 -161.5t-174 -54.5h-107q-76 0 -129.5 36.5t-80.5 96.5t-27 129q0 61 18 124t50 133l28 -12q-31 -69 -48.5 -128.5t-17.5 -116.5q0 -64 23 -116.5t70 -84t114 -31.5h107q106 0 153 45t47 141v330h30v-163q0 -56 35 -78.5
t72 -22.5h10l3 -15l-3 -15h-10q-27 0 -57.5 13z" />
    <glyph glyph-name="uni06C1.init" unicode="&#x6c1;" horiz-adv-x="315" arabic-form="initial" 
d="M-5 30h135q64 0 89.5 31t25.5 76q0 46 -32 187l30 6q32 -141 32 -193q0 -54 -33.5 -95.5t-111.5 -41.5h-135v30zM86 -173q9 20 46 84l24 -16q-33 -56 -39 -72h3q18 0 30.5 -12t12.5 -30q0 -19 -12.5 -31.5t-30.5 -12.5q-19 0 -31 12.5t-12 31.5q0 26 9 46z" />
    <glyph glyph-name="uni06BE.init" unicode="&#x6be;" horiz-adv-x="643" arabic-form="initial" 
d="M413 445l152 -235q28 -44 28 -90q0 -35 -17 -60q-23 -32 -65 -46t-88 -14q-95 0 -179 29q-82 -29 -178 -29h-71v30h71q69 0 136 16q-55 27 -86.5 66t-31.5 89q0 45 21.5 83t59 60.5t81.5 22.5q43 0 79.5 -22t58 -60t21.5 -83q0 -50 -31.5 -89.5t-86.5 -66.5
q67 -16 136 -16q41 0 76 11t53 37q12 17 12 41q0 38 -25 75l-152 235zM149 118q35 -36 95 -58q60 22 95.5 58.5t35.5 83.5q0 58 -37 96.5t-92 38.5q-57 0 -94.5 -39t-37.5 -97q0 -47 35 -83z" />
    <glyph glyph-name="uni06C7.fina" unicode="&#x6c7;" horiz-adv-x="428" arabic-form="final" 
d="M301 -176q46 47 46 140v36h-134q-72 0 -117.5 40.5t-45.5 119.5q0 58 20.5 104.5t57.5 73t84 26.5q76 0 120.5 -55.5t44.5 -148.5v-130h57l3 -15l-3 -15h-57v-36q0 -217 -231 -217h-84v30h84q109 0 155 47zM115.5 61.5q35.5 -31.5 97.5 -31.5h134v130q0 83 -35 128.5
t-100 45.5q-60 0 -96 -47.5t-36 -126.5q0 -67 35.5 -98.5zM180 455q-24 19 -34 48q-4 12 -4 28q0 28 17.5 51t44.5 32q18 6 36 6q29 0 52 -15.5t32 -43.5q4 -12 4 -27q0 -28 -19 -50.5t-53 -33.5l-139 -47l-10 28zM213 466l35 12q24 8 37.5 22.5t13.5 32.5q0 9 -3 18
q-7 19 -22 29.5t-34 10.5q-11 0 -26 -5q-20 -8 -31.5 -21.5t-11.5 -31.5q0 -9 3 -20q12 -33 39 -47z" />
    <glyph glyph-name="uni06C6.fina" unicode="&#x6c6;" horiz-adv-x="428" arabic-form="final" 
d="M301 -176q46 47 46 140v36h-134q-72 0 -117.5 40.5t-45.5 119.5q0 58 20.5 104.5t57.5 73t84 26.5q76 0 120.5 -55.5t44.5 -148.5v-130h57l3 -15l-3 -15h-57v-36q0 -217 -231 -217h-84v30h84q109 0 155 47zM115.5 61.5q35.5 -31.5 97.5 -31.5h134v130q0 83 -35 128.5
t-100 45.5q-60 0 -96 -47.5t-36 -126.5q0 -67 35.5 -98.5zM129 541l68 -108l68 108l26 -16l-74 -117h-40l-74 117z" />
    <glyph glyph-name="uni06C9.fina" unicode="&#x6c9;" horiz-adv-x="428" arabic-form="final" 
d="M301 -176q46 47 46 140v36h-134q-72 0 -117.5 40.5t-45.5 119.5q0 58 20.5 104.5t57.5 73t84 26.5q76 0 120.5 -55.5t44.5 -148.5v-130h57l3 -15l-3 -15h-57v-36q0 -217 -231 -217h-84v30h84q109 0 155 47zM115.5 61.5q35.5 -31.5 97.5 -31.5h134v130q0 83 -35 128.5
t-100 45.5q-60 0 -96 -47.5t-36 -126.5q0 -67 35.5 -98.5zM192 556h40l74 -117l-26 -16l-68 108l-68 -108l-26 16z" />
    <glyph glyph-name="uni06CC.fina" unicode="&#x6cc;" horiz-adv-x="716" arabic-form="final" 
d="M161.5 -215.5q-54.5 36.5 -83 97.5t-28.5 134q0 105 66 248l28 -12q-64 -137 -64 -236q0 -67 24.5 -121t72.5 -85.5t115 -31.5h112q65 0 101.5 13t53 36t23.5 61q2 8 2 23q0 36 -24 55q-28 23 -76.5 28.5t-132.5 5.5v30h370l2 -15l-2 -15h-160q25 -7 39.5 -32.5
t14.5 -57.5q0 -15 -3 -28q-13 -65 -58.5 -99.5t-149.5 -34.5h-112q-76 0 -130.5 36.5z" />
    <glyph glyph-name="uni06CC.init" unicode="&#x6cc;" horiz-adv-x="325" arabic-form="initial" 
d="M-5 30h135q64 0 89.5 31t25.5 76q0 46 -32 187l30 6q32 -141 32 -193q0 -54 -33.5 -95.5t-111.5 -41.5h-135v30zM-30 -126h67v-67h-67v67zM109 -126h67v-67h-67v67z" />
    <glyph glyph-name="uni06CC.medi" unicode="&#x6cc;" horiz-adv-x="408" arabic-form="medial" 
d="M256 294v-163q0 -56 35 -78.5t72 -22.5h50l3 -15l-3 -15h-50q-30 0 -66.5 15t-55.5 51q-19 -33 -56.5 -49.5t-87.5 -16.5h-102v30h102q129 0 129 101v163h30zM-32 -126h67v-67h-67v67zM107 -126h67v-67h-67v67z" />
    <glyph glyph-name="uniFDFC" unicode="&#xfdfc;" horiz-adv-x="1234" arabic-form="isolated" 
d="M1194 421v-228q0 -123 -61.5 -185.5t-178.5 -62.5h-24v30h24q106 0 158 53t52 165v228h30zM52.5 284q12.5 45 30.5 84l28 -12q-41 -86 -41 -158q0 -84 43 -138t127 -54h22q106 0 153 45t47 141v395q0 35 23 59.5t63 24.5h31q39 0 62 -25t23 -59v-308q0 -67 28 -94.5
t93 -27.5h51q64 0 89.5 31t25.5 76q0 46 -32 187l30 6q32 -141 32 -193q0 -54 -33.5 -95.5t-111.5 -41.5h-51q-76 0 -113.5 36.5t-37.5 115.5v308q0 24 -14 39t-41 15h-31q-28 0 -42 -14.5t-14 -39.5v-395q0 -107 -56 -161.5t-174 -54.5h-22q-65 0 -110 30.5t-67.5 81
t-22.5 110.5q0 41 12.5 86zM699 -2h80h80v-53h-80h-80v53z" />
    <glyph glyph-name="uni0622.fina" unicode="&#x622;" horiz-adv-x="247" arabic-form="final" 
d="M127.5 36.5q-37.5 36.5 -37.5 115.5v407h30v-407q0 -67 28 -94.5t93 -27.5h11l3 -15l-3 -15h-11q-76 0 -113.5 36.5zM-34 647q35 31 93 31h205v-29h-205q-88 0 -117 -91l-25 9q14 49 49 80z" />
    <glyph glyph-name="uni0623.fina" unicode="&#x623;" horiz-adv-x="247" arabic-form="final" 
d="M127.5 36.5q-37.5 36.5 -37.5 115.5v407h30v-407q0 -67 28 -94.5t93 -27.5h11l3 -15l-3 -15h-11q-76 0 -113.5 36.5zM108 645q-26 11 -42 33t-16 51q0 38 27.5 62t66.5 24q22 0 60 -9l-6 -27q-28 6 -50 6q-30 0 -49 -16t-19 -39q0 -33 28.5 -51.5t67.5 -13.5l62 18l2 -31
l-208 -61l-2 31z" />
    <glyph glyph-name="uni0624.fina" unicode="&#x624;" horiz-adv-x="428" arabic-form="final" 
d="M301 -176q46 47 46 140v36h-134q-72 0 -117.5 40.5t-45.5 119.5q0 58 20.5 104.5t57.5 73t84 26.5q76 0 120.5 -55.5t44.5 -148.5v-130h57l3 -15l-3 -15h-57v-36q0 -217 -231 -217h-84v30h84q109 0 155 47zM115.5 61.5q35.5 -31.5 97.5 -31.5h134v130q0 83 -35 128.5
t-100 45.5q-60 0 -96 -47.5t-36 -126.5q0 -67 35.5 -98.5zM177 431q-26 11 -42 33t-16 51q0 38 27.5 62t66.5 24q22 0 60 -9l-6 -27q-28 6 -50 6q-30 0 -49 -16t-19 -39q0 -33 28.5 -51.5t67.5 -13.5l62 18l2 -31l-208 -61l-2 31z" />
    <glyph glyph-name="uni0625.fina" unicode="&#x625;" horiz-adv-x="247" arabic-form="final" 
d="M127.5 36.5q-37.5 36.5 -37.5 115.5v497h30v-497q0 -67 28 -94.5t93 -27.5h11l3 -15l-3 -15h-11q-76 0 -113.5 36.5zM100 -216q-26 11 -42 33t-16 51q0 38 27.5 62t66.5 24q22 0 60 -9l-6 -27q-28 6 -50 6q-30 0 -49 -16t-19 -39q0 -33 28.5 -51.5t67.5 -13.5l62 18
l2 -31l-208 -61l-2 31z" />
    <glyph glyph-name="uni0626.fina" unicode="&#x626;" horiz-adv-x="716" arabic-form="final" 
d="M161.5 -215.5q-54.5 36.5 -83 97.5t-28.5 134q0 105 66 248l28 -12q-64 -137 -64 -236q0 -67 24.5 -121t72.5 -85.5t115 -31.5h112q65 0 101.5 13t53 36t23.5 61q2 8 2 23q0 36 -24 55q-28 23 -76.5 28.5t-132.5 5.5v30h370l2 -15l-2 -15h-160q25 -7 39.5 -32.5
t14.5 -57.5q0 -15 -3 -28q-13 -65 -58.5 -99.5t-149.5 -34.5h-112q-76 0 -130.5 36.5zM247 367q-26 11 -42 33t-16 51q0 38 27.5 62t66.5 24q22 0 60 -9l-6 -27q-28 6 -50 6q-30 0 -49 -16t-19 -39q0 -33 28.5 -51.5t67.5 -13.5l62 18l2 -31l-208 -61l-2 31z" />
    <glyph glyph-name="uni0626.init" unicode="&#x626;" horiz-adv-x="298" arabic-form="initial" 
d="M-5 30h104q64 0 89.5 31t25.5 76q0 46 -32 187l30 6q32 -141 32 -193q0 -54 -33.5 -95.5t-111.5 -41.5h-104v30zM87 457q-26 11 -42 33t-16 51q0 38 27.5 62t66.5 24q22 0 60 -9l-6 -27q-28 6 -50 6q-30 0 -49 -16t-19 -39q0 -33 28.5 -51.5t67.5 -13.5l62 18l2 -31
l-208 -61l-2 31z" />
    <glyph glyph-name="uni0626.medi" unicode="&#x626;" horiz-adv-x="359" arabic-form="medial" 
d="M233 294v-163q0 -56 35 -78.5t72 -22.5h24l3 -15l-3 -15h-24q-30 0 -66.5 15t-55.5 51q-19 -33 -56.5 -49.5t-87.5 -16.5h-79v30h79q129 0 129 101v163h30zM104 414q-26 11 -42 33t-16 51q0 38 27.5 62t66.5 24q22 0 60 -9l-6 -27q-28 6 -50 6q-30 0 -49 -16t-19 -39
q0 -33 28.5 -51.5t67.5 -13.5l62 18l2 -31l-208 -61l-2 31z" />
    <glyph glyph-name="uni0627.fina" unicode="&#x627;" horiz-adv-x="247" arabic-form="final" 
d="M127.5 36.5q-37.5 36.5 -37.5 115.5v497h30v-497q0 -67 28 -94.5t93 -27.5h11l3 -15l-3 -15h-11q-76 0 -113.5 36.5z" />
    <glyph glyph-name="uni0628.fina" unicode="&#x628;" horiz-adv-x="868" arabic-form="final" 
d="M111.5 19.5q-31.5 19.5 -48 53t-13.5 72.5q2 27 32 157l30 -6l-5 -22q-24 -97 -27 -131q-4 -49 25 -81t79 -32h399q129 0 129 101v163h30v-163q0 -56 35 -78.5t72 -22.5h24l3 -15l-3 -15h-24q-30 0 -66.5 15t-55.5 51q-19 -33 -56.5 -49.5t-87.5 -16.5h-399
q-41 0 -72.5 19.5zM377 -126h67v-67h-67v67z" />
    <glyph glyph-name="uni0628.init" unicode="&#x628;" horiz-adv-x="298" arabic-form="initial" 
d="M-5 30h104q64 0 89.5 31t25.5 76q0 46 -32 187l30 6q32 -141 32 -193q0 -54 -33.5 -95.5t-111.5 -41.5h-104v30zM37 -126h67v-67h-67v67z" />
    <glyph glyph-name="uni0628.medi" unicode="&#x628;" horiz-adv-x="359" arabic-form="medial" 
d="M233 294v-163q0 -56 35 -78.5t72 -22.5h24l3 -15l-3 -15h-24q-30 0 -66.5 15t-55.5 51q-19 -33 -56.5 -49.5t-87.5 -16.5h-79v30h79q129 0 129 101v163h30zM28 -126h67v-67h-67v67z" />
    <glyph glyph-name="uni0629.fina" unicode="&#x629;" horiz-adv-x="584" arabic-form="final" 
d="M393 161q17 -71 66.5 -101t109.5 -30h20l2 -16l-2 -14h-20q-67 0 -126.5 35.5t-79.5 117.5l-3 14q-6 -27 -19 -48q-21 -38 -57 -58.5t-77 -20.5q-43 0 -80 22q-36 21 -56.5 57t-20.5 77q0 44 21 79q14 23 34 41t65 41t131 58l-17 74l29 8q49 -211 80 -336zM79 195
q0 -33 17 -61.5t47 -45.5q31 -19 65 -19q33 0 61 17t46 47q15 27 21.5 46t6.5 44q0 13 -1 20l-34 142q-81 -33 -122 -54t-59 -36t-30 -36q-18 -30 -18 -64zM151 618h67v-67h-67v67zM290 618h67v-67h-67v67z" />
    <glyph glyph-name="uni062A.fina" unicode="&#x62a;" horiz-adv-x="868" arabic-form="final" 
d="M111.5 19.5q-31.5 19.5 -48 53t-13.5 72.5q2 27 32 157l30 -6l-5 -22q-24 -97 -27 -131q-4 -49 25 -81t79 -32h399q129 0 129 101v163h30v-163q0 -56 35 -78.5t72 -22.5h24l3 -15l-3 -15h-24q-30 0 -66.5 15t-55.5 51q-19 -33 -56.5 -49.5t-87.5 -16.5h-399
q-41 0 -72.5 19.5zM309 329h67v-67h-67v67zM448 329h67v-67h-67v67z" />
    <glyph glyph-name="uni062A.init" unicode="&#x62a;" horiz-adv-x="325" arabic-form="initial" 
d="M-5 30h135q64 0 89.5 31t25.5 76q0 46 -32 187l30 6q32 -141 32 -193q0 -54 -33.5 -95.5t-111.5 -41.5h-135v30zM52 526h67v-67h-67v67zM191 526h67v-67h-67v67z" />
    <glyph glyph-name="uni062A.medi" unicode="&#x62a;" horiz-adv-x="408" arabic-form="medial" 
d="M256 294v-163q0 -56 35 -78.5t72 -22.5h50l3 -15l-3 -15h-50q-30 0 -66.5 15t-55.5 51q-19 -33 -56.5 -49.5t-87.5 -16.5h-102v30h102q129 0 129 101v163h30zM47 462h67v-67h-67v67zM186 462h67v-67h-67v67z" />
    <glyph glyph-name="uni062B.fina" unicode="&#x62b;" horiz-adv-x="868" arabic-form="final" 
d="M111.5 19.5q-31.5 19.5 -48 53t-13.5 72.5q2 27 32 157l30 -6l-5 -22q-24 -97 -27 -131q-4 -49 25 -81t79 -32h399q129 0 129 101v163h30v-163q0 -56 35 -78.5t72 -22.5h24l3 -15l-3 -15h-24q-30 0 -66.5 15t-55.5 51q-19 -33 -56.5 -49.5t-87.5 -16.5h-399
q-41 0 -72.5 19.5zM303 320h67v-67h-67v67zM383 421h67v-67h-67v67zM462 320h67v-67h-67v67z" />
    <glyph glyph-name="uni062B.init" unicode="&#x62b;" horiz-adv-x="325" arabic-form="initial" 
d="M-5 30h135q64 0 89.5 31t25.5 76q0 46 -32 187l30 6q32 -141 32 -193q0 -54 -33.5 -95.5t-111.5 -41.5h-135v30zM59 527h67v-67h-67v67zM139 628h67v-67h-67v67zM218 527h67v-67h-67v67z" />
    <glyph glyph-name="uni062B.medi" unicode="&#x62b;" horiz-adv-x="408" arabic-form="medial" 
d="M256 294v-163q0 -56 35 -78.5t72 -22.5h50l3 -15l-3 -15h-50q-30 0 -66.5 15t-55.5 51q-19 -33 -56.5 -49.5t-87.5 -16.5h-102v30h102q129 0 129 101v163h30zM37 462h67v-67h-67v67zM117 563h67v-67h-67v67zM196 462h67v-67h-67v67z" />
    <glyph glyph-name="uni062C.fina" unicode="&#x62c;" horiz-adv-x="707" arabic-form="final" 
d="M548 -252h-261q-83 0 -140 36.5t-82 103.5q-15 37 -15 76q0 68 42.5 126.5t117.5 87.5l343 136q-136 55 -220.5 87t-109.5 32q-34 0 -57 -20t-37 -71l-28 8q31 113 122 113q28 0 103.5 -28t209.5 -83l51 -21l4 -33l-63 -25l14 -64q16 -70 36 -108.5t48.5 -54.5t71.5 -16
h14l3 -15l-3 -15h-14q-50 0 -83.5 19.5t-57 63.5t-42.5 120l-14 59l-279 -112q-68 -27 -105 -76.5t-37 -107.5q0 -35 13 -68q45 -120 194 -120h261v-30zM322 30h67v-67h-67v67z" />
    <glyph glyph-name="uni062C.init" unicode="&#x62c;" horiz-adv-x="610" arabic-form="initial" 
d="M-8 30h110q75 0 145 24.5t130 61t143 95.5q-144 59 -224.5 89.5t-106.5 30.5q-34 0 -57 -20t-37 -71l-28 8q31 113 122 113q30 0 114.5 -31.5t224.5 -88.5l29 -12l3 -26q-94 -68 -157 -107.5t-140.5 -67.5t-160.5 -28h-110v30zM242 -125h67v-67h-67v67z" />
    <glyph glyph-name="uni062C.medi" unicode="&#x62c;" horiz-adv-x="677" arabic-form="medial" 
d="M487.5 30q-38.5 30 -44.5 91q-87 -57 -169.5 -89t-171.5 -32h-110v30h110q75 0 145 24.5t130 61t143 95.5q-144 59 -224.5 89.5t-106.5 30.5q-34 0 -57 -20t-37 -71l-28 8q31 113 122 113q30 0 114.5 -31.5t224.5 -88.5l29 -12l3 -26l-33 -24q-11 -7 -25 -17.5t-33 -22.5
q3 -59 34.5 -84t79.5 -25h99l4 -15l-4 -15h-99q-57 0 -95.5 30zM284 -125h67v-67h-67v67z" />
    <glyph glyph-name="uni062D.fina" unicode="&#x62d;" horiz-adv-x="707" arabic-form="final" 
d="M548 -252h-261q-83 0 -140 36.5t-82 103.5q-15 37 -15 76q0 68 42.5 126.5t117.5 87.5l343 136q-136 55 -220.5 87t-109.5 32q-34 0 -57 -20t-37 -71l-28 8q31 113 122 113q28 0 103.5 -28t209.5 -83l51 -21l4 -33l-63 -25l14 -64q16 -70 36 -108.5t48.5 -54.5t71.5 -16
h14l3 -15l-3 -15h-14q-50 0 -83.5 19.5t-57 63.5t-42.5 120l-14 59l-279 -112q-68 -27 -105 -76.5t-37 -107.5q0 -35 13 -68q45 -120 194 -120h261v-30z" />
    <glyph glyph-name="uni062D.init" unicode="&#x62d;" horiz-adv-x="610" arabic-form="initial" 
d="M-8 30h110q75 0 145 24.5t130 61t143 95.5q-144 59 -224.5 89.5t-106.5 30.5q-34 0 -57 -20t-37 -71l-28 8q31 113 122 113q30 0 114.5 -31.5t224.5 -88.5l29 -12l3 -26q-94 -68 -157 -107.5t-140.5 -67.5t-160.5 -28h-110v30z" />
    <glyph glyph-name="uni062D.medi" unicode="&#x62d;" horiz-adv-x="677" arabic-form="medial" 
d="M487.5 30q-38.5 30 -44.5 91q-87 -57 -169.5 -89t-171.5 -32h-110v30h110q75 0 145 24.5t130 61t143 95.5q-144 59 -224.5 89.5t-106.5 30.5q-34 0 -57 -20t-37 -71l-28 8q31 113 122 113q30 0 114.5 -31.5t224.5 -88.5l29 -12l3 -26l-33 -24q-11 -7 -25 -17.5t-33 -22.5
q3 -59 34.5 -84t79.5 -25h99l4 -15l-4 -15h-99q-57 0 -95.5 30z" />
    <glyph glyph-name="uni062E.fina" unicode="&#x62e;" horiz-adv-x="707" arabic-form="final" 
d="M548 -252h-261q-83 0 -140 36.5t-82 103.5q-15 37 -15 76q0 68 42.5 126.5t117.5 87.5l343 136q-136 55 -220.5 87t-109.5 32q-34 0 -57 -20t-37 -71l-28 8q31 113 122 113q28 0 103.5 -28t209.5 -83l51 -21l4 -33l-63 -25l14 -64q16 -70 36 -108.5t48.5 -54.5t71.5 -16
h14l3 -15l-3 -15h-14q-50 0 -83.5 19.5t-57 63.5t-42.5 120l-14 59l-279 -112q-68 -27 -105 -76.5t-37 -107.5q0 -35 13 -68q45 -120 194 -120h261v-30zM194 621h67v-67h-67v67z" />
    <glyph glyph-name="uni062E.init" unicode="&#x62e;" horiz-adv-x="610" arabic-form="initial" 
d="M-8 30h110q75 0 145 24.5t130 61t143 95.5q-144 59 -224.5 89.5t-106.5 30.5q-34 0 -57 -20t-37 -71l-28 8q31 113 122 113q30 0 114.5 -31.5t224.5 -88.5l29 -12l3 -26q-94 -68 -157 -107.5t-140.5 -67.5t-160.5 -28h-110v30zM156 533h67v-67h-67v67z" />
    <glyph glyph-name="uni062E.medi" unicode="&#x62e;" horiz-adv-x="677" arabic-form="medial" 
d="M487.5 30q-38.5 30 -44.5 91q-87 -57 -169.5 -89t-171.5 -32h-110v30h110q75 0 145 24.5t130 61t143 95.5q-144 59 -224.5 89.5t-106.5 30.5q-34 0 -57 -20t-37 -71l-28 8q31 113 122 113q30 0 114.5 -31.5t224.5 -88.5l29 -12l3 -26l-33 -24q-11 -7 -25 -17.5t-33 -22.5
q3 -59 34.5 -84t79.5 -25h99l4 -15l-4 -15h-99q-57 0 -95.5 30zM153 533h67v-67h-67v67z" />
    <glyph glyph-name="uni062F.fina" unicode="&#x62f;" horiz-adv-x="571" arabic-form="final" 
d="M395 220l6 -13q41 -93 76.5 -135t82.5 -42h16l3 -15l-3 -15h-16q-42 0 -75.5 26t-64.5 78q-5 -25 -18 -42q-24 -34 -62.5 -48t-81.5 -14h-51q-56 0 -96 16.5t-61 34.5l20 22q18 -16 52.5 -29.5t84.5 -13.5h51q85 0 120 50q14 20 14 45q0 23 -16 64l-9 19l-106 230l28 12z
" />
    <glyph glyph-name="uni0630.fina" unicode="&#x630;" horiz-adv-x="571" arabic-form="final" 
d="M395 220l6 -13q41 -93 76.5 -135t82.5 -42h16l3 -15l-3 -15h-16q-42 0 -75.5 26t-64.5 78q-5 -25 -18 -42q-24 -34 -62.5 -48t-81.5 -14h-51q-56 0 -96 16.5t-61 34.5l20 22q18 -16 52.5 -29.5t84.5 -13.5h51q85 0 120 50q14 20 14 45q0 23 -16 64l-9 19l-106 230l28 12z
M244 609h67v-67h-67v67z" />
    <glyph glyph-name="uni0631.fina" unicode="&#x631;" horiz-adv-x="415" arabic-form="final" 
d="M303 294v-163q0 -56 35 -78.5t72 -22.5h10l3 -15l-3 -15h-10q-27 0 -57.5 13t-49.5 44v-61q0 -123 -61.5 -185.5t-178.5 -62.5h-63v30h63q106 0 158 53t52 165v298h30z" />
    <glyph glyph-name="uni0632.fina" unicode="&#x632;" horiz-adv-x="415" arabic-form="final" 
d="M303 294v-163q0 -56 35 -78.5t72 -22.5h10l3 -15l-3 -15h-10q-27 0 -57.5 13t-49.5 44v-61q0 -123 -61.5 -185.5t-178.5 -62.5h-63v30h63q106 0 158 53t52 165v298h30zM249 490h67v-67h-67v67z" />
    <glyph glyph-name="uni0633.fina" unicode="&#x633;" horiz-adv-x="1335" arabic-form="final" 
d="M97.5 126.5q-17.5 -59.5 -17.5 -116.5q0 -64 23 -116.5t70 -84t114 -31.5h107q106 0 153 45t47 141v330h30v-163q0 -57 33.5 -79t80.5 -22q44 0 79 25.5t35 75.5v163h30v-163q0 -57 33.5 -79t80.5 -22t80.5 22t33.5 79v163h30v-163q0 -101 129 -101h71l3 -16l-3 -14h-71
q-50 0 -87.5 16.5t-56.5 49.5q-18 -34 -54 -50t-75 -16t-75 16.5t-54 49.5q-18 -31 -55 -48.5t-74 -17.5q-80 0 -114 44v-80q0 -107 -56 -161.5t-174 -54.5h-107q-76 0 -129.5 36.5t-80.5 96.5t-27 129q0 61 18 124t50 133l28 -12q-31 -69 -48.5 -128.5z" />
    <glyph glyph-name="uni0633.init" unicode="&#x633;" horiz-adv-x="779" arabic-form="initial" 
d="M-5 30h71q129 0 129 101v169h30v-169q0 -55 34 -78t70 -23q124 0 124 101v169h30v-169q0 -55 34 -78t71 -23q62 0 86.5 31.5t24.5 75.5q0 46 -32 187l30 6q32 -141 32 -193q0 -53 -32.5 -95t-108.5 -42q-33 0 -67.5 16.5t-52.5 49.5q-18 -32 -54.5 -49t-84.5 -17
q-29 0 -65.5 16.5t-53.5 49.5q-19 -33 -56.5 -49.5t-87.5 -16.5h-71v30z" />
    <glyph glyph-name="uni0633.medi" unicode="&#x633;" horiz-adv-x="936" arabic-form="medial" 
d="M413 17.5q-37 -17.5 -74 -17.5q-39 0 -75 16t-54 50q-19 -33 -56.5 -49.5t-87.5 -16.5h-71v30h71q129 0 129 101v163h30v-163q0 -57 33.5 -79t80.5 -22q44 0 79 25.5t35 75.5v163h30v-163q0 -57 33.5 -79t80.5 -22t80.5 22t33.5 79v163h30v-163q0 -101 129 -101h71l3 -14
l-3 -16h-71q-50 0 -87.5 16.5t-56.5 49.5q-18 -34 -54 -50t-75 -16t-75 16.5t-54 49.5q-18 -31 -55 -48.5z" />
    <glyph glyph-name="uni0634.fina" unicode="&#x634;" horiz-adv-x="1335" arabic-form="final" 
d="M97.5 126.5q-17.5 -59.5 -17.5 -116.5q0 -64 23 -116.5t70 -84t114 -31.5h107q106 0 153 45t47 141v330h30v-163q0 -57 33.5 -79t80.5 -22q44 0 79 25.5t35 75.5v163h30v-163q0 -57 33.5 -79t80.5 -22t80.5 22t33.5 79v163h30v-163q0 -101 129 -101h71l3 -16l-3 -14h-71
q-50 0 -87.5 16.5t-56.5 49.5q-18 -34 -54 -50t-75 -16t-75 16.5t-54 49.5q-18 -31 -55 -48.5t-74 -17.5q-80 0 -114 44v-80q0 -107 -56 -161.5t-174 -54.5h-107q-76 0 -129.5 36.5t-80.5 96.5t-27 129q0 61 18 124t50 133l28 -12q-31 -69 -48.5 -128.5zM758 491h67v-67h-67
v67zM838 592h67v-67h-67v67zM917 491h67v-67h-67v67z" />
    <glyph glyph-name="uni0634.init" unicode="&#x634;" horiz-adv-x="779" arabic-form="initial" 
d="M-5 30h71q129 0 129 101v169h30v-169q0 -55 34 -78t70 -23q124 0 124 101v169h30v-169q0 -55 34 -78t71 -23q62 0 86.5 31.5t24.5 75.5q0 46 -32 187l30 6q32 -141 32 -193q0 -53 -32.5 -95t-108.5 -42q-33 0 -67.5 16.5t-52.5 49.5q-18 -32 -54.5 -49t-84.5 -17
q-29 0 -65.5 16.5t-53.5 49.5q-19 -33 -56.5 -49.5t-87.5 -16.5h-71v30zM359 493h67v-67h-67v67zM439 594h67v-67h-67v67zM518 493h67v-67h-67v67z" />
    <glyph glyph-name="uni0634.medi" unicode="&#x634;" horiz-adv-x="936" arabic-form="medial" 
d="M413 17.5q-37 -17.5 -74 -17.5q-39 0 -75 16t-54 50q-19 -33 -56.5 -49.5t-87.5 -16.5h-71v30h71q129 0 129 101v163h30v-163q0 -57 33.5 -79t80.5 -22q44 0 79 25.5t35 75.5v163h30v-163q0 -57 33.5 -79t80.5 -22t80.5 22t33.5 79v163h30v-163q0 -101 129 -101h71l3 -14
l-3 -16h-71q-50 0 -87.5 16.5t-56.5 49.5q-18 -34 -54 -50t-75 -16t-75 16.5t-54 49.5q-18 -31 -55 -48.5zM357 493h67v-67h-67v67zM437 594h67v-67h-67v67zM516 493h67v-67h-67v67z" />
    <glyph glyph-name="uni0635.fina" unicode="&#x635;" horiz-adv-x="1263" arabic-form="final" 
d="M97.5 126.5q-17.5 -59.5 -17.5 -116.5q0 -64 23 -116.5t70 -84t114 -31.5h107q106 0 153 45t47 141v330h30v-163q0 -39 18.5 -61.5t46.5 -32.5l82 122q13 21 48 72q44 67 87 99.5t101 32.5q49 0 85 -26t55.5 -69t19.5 -92q0 -58 -25 -99q14 -28 48.5 -37.5t68.5 -9.5h7
l2 -15l-2 -15h-7q-36 0 -75 10.5t-60 40.5q-23 -25 -56 -38t-73 -13h-264q-26 0 -56.5 11.5t-50.5 39.5v-87q0 -107 -56 -161.5t-174 -54.5h-107q-76 0 -129.5 36.5t-80.5 96.5t-27 129q0 61 18 124t50 133l28 -12q-31 -69 -48.5 -128.5zM731 30h264q65 0 103.5 37.5
t38.5 108.5q0 67 -35 112t-95 45q-49 0 -85 -27.5t-79 -90.5l-39 -60q-21 -29 -83 -125h10z" />
    <glyph glyph-name="uni0635.init" unicode="&#x635;" horiz-adv-x="816" arabic-form="initial" 
d="M241.5 69.5q18.5 -22.5 46.5 -32.5l82 122q13 21 48 72q44 67 87 99.5t101 32.5q49 0 85 -26t55.5 -69t19.5 -92q0 -83 -48 -129.5t-124 -46.5h-264q-30 0 -67 15.5t-56 52.5q-20 -33 -58.5 -50.5t-80.5 -17.5h-73v30h73q51 0 88 25.5t37 75.5v147h30v-147
q0 -39 18.5 -61.5zM330 30h264q65 0 103.5 37.5t38.5 108.5q0 67 -35 112t-95 45q-49 0 -85 -27.5t-79 -90.5l-39 -60q-21 -29 -83 -125h10z" />
    <glyph glyph-name="uni0635.medi" unicode="&#x635;" horiz-adv-x="861" arabic-form="medial" 
d="M241.5 69.5q18.5 -22.5 46.5 -32.5l82 122q13 21 48 72q44 67 87 99.5t101 32.5q49 0 85 -26t55.5 -69t19.5 -92q0 -58 -25 -100q14 -27 48 -36.5t68 -9.5h7l2 -15l-2 -15h-7q-36 0 -75 10.5t-60 40.5q-23 -25 -56 -38t-72 -13h-264q-30 0 -67 15.5t-56 52.5
q-20 -33 -58.5 -50.5t-80.5 -17.5h-73v30h73q51 0 88 25.5t37 75.5v147h30v-147q0 -39 18.5 -61.5zM330 30h264q65 0 103.5 37.5t38.5 108.5q0 67 -35 112t-95 45q-49 0 -85 -27.5t-79 -90.5l-39 -60q-21 -29 -83 -125h10z" />
    <glyph glyph-name="uni0636.fina" unicode="&#x636;" horiz-adv-x="1263" arabic-form="final" 
d="M97.5 126.5q-17.5 -59.5 -17.5 -116.5q0 -64 23 -116.5t70 -84t114 -31.5h107q106 0 153 45t47 141v330h30v-163q0 -39 18.5 -61.5t46.5 -32.5l82 122q13 21 48 72q44 67 87 99.5t101 32.5q49 0 85 -26t55.5 -69t19.5 -92q0 -58 -25 -99q14 -28 48.5 -37.5t68.5 -9.5h7
l2 -15l-2 -15h-7q-36 0 -75 10.5t-60 40.5q-23 -25 -56 -38t-73 -13h-264q-26 0 -56.5 11.5t-50.5 39.5v-87q0 -107 -56 -161.5t-174 -54.5h-107q-76 0 -129.5 36.5t-80.5 96.5t-27 129q0 61 18 124t50 133l28 -12q-31 -69 -48.5 -128.5zM731 30h264q65 0 103.5 37.5
t38.5 108.5q0 67 -35 112t-95 45q-49 0 -85 -27.5t-79 -90.5l-39 -60q-21 -29 -83 -125h10zM964 526h67v-67h-67v67z" />
    <glyph glyph-name="uni0636.init" unicode="&#x636;" horiz-adv-x="816" arabic-form="initial" 
d="M241.5 69.5q18.5 -22.5 46.5 -32.5l82 122q13 21 48 72q44 67 87 99.5t101 32.5q49 0 85 -26t55.5 -69t19.5 -92q0 -83 -48 -129.5t-124 -46.5h-264q-30 0 -67 15.5t-56 52.5q-20 -33 -58.5 -50.5t-80.5 -17.5h-73v30h73q51 0 88 25.5t37 75.5v147h30v-147
q0 -39 18.5 -61.5zM330 30h264q65 0 103.5 37.5t38.5 108.5q0 67 -35 112t-95 45q-49 0 -85 -27.5t-79 -90.5l-39 -60q-21 -29 -83 -125h10zM563 532h67v-67h-67v67z" />
    <glyph glyph-name="uni0636.medi" unicode="&#x636;" horiz-adv-x="861" arabic-form="medial" 
d="M241.5 69.5q18.5 -22.5 46.5 -32.5l82 122q13 21 48 72q44 67 87 99.5t101 32.5q49 0 85 -26t55.5 -69t19.5 -92q0 -58 -25 -100q14 -27 48 -36.5t68 -9.5h7l2 -15l-2 -15h-7q-36 0 -75 10.5t-60 40.5q-23 -25 -56 -38t-72 -13h-264q-30 0 -67 15.5t-56 52.5
q-20 -33 -58.5 -50.5t-80.5 -17.5h-73v30h73q51 0 88 25.5t37 75.5v147h30v-147q0 -39 18.5 -61.5zM330 30h264q65 0 103.5 37.5t38.5 108.5q0 67 -35 112t-95 45q-49 0 -85 -27.5t-79 -90.5l-39 -60q-21 -29 -83 -125h10zM563 532h67v-67h-67v67z" />
    <glyph glyph-name="uni0637.fina" unicode="&#x637;" horiz-adv-x="740" arabic-form="final" 
d="M50 30h120l67 103v516l30 2v-472l34 52q44 67 87 99.5t101 32.5q49 0 85 -26t55.5 -69t19.5 -92q0 -58 -25 -99q24 -47 117 -47h7l2 -15l-2 -15h-7q-36 0 -75 10.5t-60 40.5q-23 -25 -56 -38t-73 -13h-427v30zM477 30q65 0 103.5 37.5t38.5 108.5q0 67 -35 112t-95 45
q-50 0 -86.5 -28t-77.5 -90l-122 -185h274z" />
    <glyph glyph-name="uni0637.init" unicode="&#x637;" horiz-adv-x="644" arabic-form="initial" 
d="M-5 30h120l67 103v516l30 2v-472l34 52q44 67 87 99.5t101 32.5q49 0 85 -26t55.5 -69t19.5 -92q0 -83 -48 -129.5t-124 -46.5h-427v30zM422 30q65 0 103.5 37.5t38.5 108.5q0 67 -35 112t-95 45q-50 0 -86.5 -28t-77.5 -90l-122 -185h274z" />
    <glyph glyph-name="uni0637.medi" unicode="&#x637;" horiz-adv-x="687" arabic-form="medial" 
d="M-5 30h120l67 103v516l30 2v-472l34 52q44 67 87 99.5t101 32.5q49 0 85 -26t55.5 -69t19.5 -92q0 -57 -24 -98q14 -29 48.5 -38.5t69.5 -9.5h7l2 -15l-2 -15h-7q-37 0 -76.5 10.5t-59.5 42.5q-23 -26 -56.5 -39.5t-73.5 -13.5h-427v30zM422 30q65 0 103.5 37.5
t38.5 108.5q0 67 -35 112t-95 45q-50 0 -86.5 -28t-77.5 -90l-122 -185h274z" />
    <glyph glyph-name="uni0638.fina" unicode="&#x638;" horiz-adv-x="740" arabic-form="final" 
d="M50 30h120l67 103v516l30 2v-472l34 52q44 67 87 99.5t101 32.5q49 0 85 -26t55.5 -69t19.5 -92q0 -58 -25 -99q24 -47 117 -47h7l2 -15l-2 -15h-7q-36 0 -75 10.5t-60 40.5q-23 -25 -56 -38t-73 -13h-427v30zM477 30q65 0 103.5 37.5t38.5 108.5q0 67 -35 112t-95 45
q-50 0 -86.5 -28t-77.5 -90l-122 -185h274zM451 585h67v-67h-67v67z" />
    <glyph glyph-name="uni0638.init" unicode="&#x638;" horiz-adv-x="644" arabic-form="initial" 
d="M-5 30h120l67 103v516l30 2v-472l34 52q44 67 87 99.5t101 32.5q49 0 85 -26t55.5 -69t19.5 -92q0 -83 -48 -129.5t-124 -46.5h-427v30zM422 30q65 0 103.5 37.5t38.5 108.5q0 67 -35 112t-95 45q-50 0 -86.5 -28t-77.5 -90l-122 -185h274zM423 585h67v-67h-67v67z" />
    <glyph glyph-name="uni0638.medi" unicode="&#x638;" horiz-adv-x="687" arabic-form="medial" 
d="M-5 30h120l67 103v516l30 2v-472l34 52q44 67 87 99.5t101 32.5q49 0 85 -26t55.5 -69t19.5 -92q0 -57 -24 -98q14 -29 48.5 -38.5t69.5 -9.5h7l2 -15l-2 -15h-7q-37 0 -76.5 10.5t-59.5 42.5q-23 -26 -56.5 -39.5t-73.5 -13.5h-427v30zM422 30q65 0 103.5 37.5
t38.5 108.5q0 67 -35 112t-95 45q-50 0 -86.5 -28t-77.5 -90l-122 -185h274zM423 585h67v-67h-67v67z" />
    <glyph glyph-name="uni0639.fina" unicode="&#x639;" horiz-adv-x="532" arabic-form="final" 
d="M348 14q-40 14 -64.5 36t-47.5 56l-6 9l-22 -7q-60 -20 -94 -63t-34 -97q0 -30 10 -57q23 -63 70 -88t121 -25h176v-30h-176q-81 0 -137 30t-82 103q-12 33 -12 66q0 63 39.5 115.5t108.5 73.5l15 5l-53 79q-1 2 -51 80l-44 68l17 30h89h189q41 0 67.5 -29.5t26.5 -67.5
q0 -44 -37 -70l-156 -111q32 -47 71.5 -68.5t115.5 -21.5h89l3 -16l-3 -14h-89q-60 0 -100 14zM185 236l59 -91l155 110q27 18 27 50q0 25 -18.5 44t-47.5 19h-176h-82z" />
    <glyph glyph-name="uni0639.init" unicode="&#x639;" horiz-adv-x="522" arabic-form="initial" 
d="M472 0h-477v30h250q-55 23 -83 64t-28 91q0 41 21 76.5t56 56.5t77 21q39 0 70.5 -13.5t88.5 -49.5l-14 -23q-51 33 -80 44.5t-65 11.5q-53 0 -88.5 -36t-35.5 -88q0 -43 23.5 -78t72 -56t119.5 -21h93v-30z" />
    <glyph glyph-name="uni0639.medi" unicode="&#x639;" horiz-adv-x="577" arabic-form="medial" 
d="M-5 30h46q89 0 142 12.5t91 38.5l-192 245l17 30h311q43 0 69 -26t26 -61q0 -19 -9 -37.5t-27 -33.5l-59 -47q-77 -62 -91 -74q25 -24 56 -35.5t75 -11.5h132l3 -15l-3 -15h-132q-51 0 -88 15t-67 44q-42 -29 -100 -44t-154 -15h-46v30zM298 99q24 19 68.5 55t82.5 68
q25 21 25 48q0 23 -18.5 39.5t-47.5 16.5h-290z" />
    <glyph glyph-name="uni063A.fina" unicode="&#x63a;" horiz-adv-x="532" arabic-form="final" 
d="M348 14q-40 14 -64.5 36t-47.5 56l-6 9l-22 -7q-60 -20 -94 -63t-34 -97q0 -30 10 -57q23 -63 70 -88t121 -25h176v-30h-176q-81 0 -137 30t-82 103q-12 33 -12 66q0 63 39.5 115.5t108.5 73.5l15 5l-53 79q-1 2 -51 80l-44 68l17 30h89h189q41 0 67.5 -29.5t26.5 -67.5
q0 -44 -37 -70l-156 -111q32 -47 71.5 -68.5t115.5 -21.5h89l3 -16l-3 -14h-89q-60 0 -100 14zM185 236l59 -91l155 110q27 18 27 50q0 25 -18.5 44t-47.5 19h-176h-82zM234 563h67v-67h-67v67z" />
    <glyph glyph-name="uni063A.init" unicode="&#x63a;" horiz-adv-x="522" arabic-form="initial" 
d="M472 0h-477v30h250q-55 23 -83 64t-28 91q0 41 21 76.5t56 56.5t77 21q39 0 70.5 -13.5t88.5 -49.5l-14 -23q-51 33 -80 44.5t-65 11.5q-53 0 -88.5 -36t-35.5 -88q0 -43 23.5 -78t72 -56t119.5 -21h93v-30zM246 513h67v-67h-67v67z" />
    <glyph glyph-name="uni063A.medi" unicode="&#x63a;" horiz-adv-x="577" arabic-form="medial" 
d="M-5 30h46q89 0 142 12.5t91 38.5l-192 245l17 30h311q43 0 69 -26t26 -61q0 -19 -9 -37.5t-27 -33.5l-59 -47q-77 -62 -91 -74q25 -24 56 -35.5t75 -11.5h132l3 -15l-3 -15h-132q-51 0 -88 15t-67 44q-42 -29 -100 -44t-154 -15h-46v30zM298 99q24 19 68.5 55t82.5 68
q25 21 25 48q0 23 -18.5 39.5t-47.5 16.5h-290zM270 519h67v-67h-67v67z" />
    <glyph glyph-name="uni0641.fina" unicode="&#x641;" horiz-adv-x="828" arabic-form="final" 
d="M471 108q-30 38 -30 90q0 45 21.5 83t59 60t81.5 22q43 0 79.5 -22t58 -60t21.5 -83q0 -100 -113 -152q76 -16 166 -16h15l3 -15l-3 -15h-15q-121 0 -213 28q-40 -17 -134.5 -22.5t-283.5 -5.5q-41 0 -72.5 19.5t-48 53t-13.5 72.5q2 27 32 157l30 -6l-5 -22
q-24 -97 -27 -131q-4 -49 25 -81t79 -32q178 0 257 3t113 13q-53 24 -83 62zM602 59q130 43 130 139q0 58 -37 96.5t-92 38.5q-57 0 -94.5 -38.5t-37.5 -96.5q0 -96 131 -139zM566 521h67v-67h-67v67z" />
    <glyph glyph-name="uni0641.init" unicode="&#x641;" horiz-adv-x="449" arabic-form="initial" 
d="M-5 30h149q70 0 110 13t58 41t22 75h-112q-62 0 -102.5 39t-40.5 101q0 42 19.5 78t52.5 57.5t71 21.5q41 0 74 -21.5t51 -57.5t18 -78v-102q0 -69 -19 -111.5t-67 -64t-135 -21.5h-149v30zM140 218.5q31 -29.5 82 -29.5h113v8v102q0 56 -31 91.5t-82 35.5
q-47 0 -80 -36.5t-33 -90.5q0 -51 31 -80.5zM188 624h67v-67h-67v67z" />
    <glyph glyph-name="uni0641.medi" unicode="&#x641;" horiz-adv-x="447" arabic-form="medial" 
d="M-5 30h15q90 0 166 16q-53 24 -83 62t-30 90q0 45 21.5 83t59 60t81.5 22q43 0 79.5 -22t58 -60t21.5 -83q0 -100 -113 -152q76 -16 166 -16h15l3 -15l-3 -15h-15q-121 0 -213 28q-92 -28 -214 -28h-15v30zM224 59q130 43 130 139q0 58 -37 96.5t-92 38.5
q-57 0 -94.5 -38.5t-37.5 -96.5q0 -96 131 -139zM191 518h67v-67h-67v67z" />
    <glyph glyph-name="uni0642.fina" unicode="&#x642;" horiz-adv-x="675" arabic-form="final" 
d="M110.5 166.5q-11.5 -29.5 -21 -72t-9.5 -90.5q0 -116 47 -171.5t158 -55.5h107q109 0 155 47t46 140v36h-134q-72 0 -117.5 40.5t-45.5 119.5q0 58 20.5 104.5t57.5 73t84 26.5q76 0 120.5 -55.5t44.5 -148.5v-130h58l3 -15l-3 -15h-58v-36q0 -217 -231 -217h-107
q-123 0 -179 65.5t-56 191.5q0 72 17 127t49 128l28 -12q-22 -51 -33.5 -80.5zM361.5 61.5q35.5 -31.5 97.5 -31.5h134v130q0 83 -35 128.5t-100 45.5q-60 0 -96 -47.5t-36 -126.5q0 -67 35.5 -98.5zM351 523h67v-67h-67v67zM490 523h67v-67h-67v67z" />
    <glyph glyph-name="uni0642.init" unicode="&#x642;" horiz-adv-x="415" arabic-form="initial" 
d="M-5 30h149q70 0 110 13t58 41t22 75h-112q-62 0 -102.5 39t-40.5 101q0 42 19.5 78t52.5 57.5t71 21.5q41 0 74 -21.5t51 -57.5t18 -78v-102q0 -69 -19 -111.5t-67 -64t-135 -21.5h-149v30zM140 218.5q31 -29.5 82 -29.5h113v8v102q0 56 -31 91.5t-82 35.5
q-47 0 -80 -36.5t-33 -90.5q0 -51 31 -80.5zM120 601h67v-67h-67v67zM259 601h67v-67h-67v67z" />
    <glyph glyph-name="uni0642.medi" unicode="&#x642;" horiz-adv-x="447" arabic-form="medial" 
d="M-5 30h15q90 0 166 16q-53 24 -83 62t-30 90q0 45 21.5 83t59 60t81.5 22q43 0 79.5 -22t58 -60t21.5 -83q0 -100 -113 -152q76 -16 166 -16h15l3 -15l-3 -15h-15q-121 0 -213 28q-92 -28 -214 -28h-15v30zM224 59q130 43 130 139q0 58 -37 96.5t-92 38.5
q-57 0 -94.5 -38.5t-37.5 -96.5q0 -96 131 -139zM125 515h67v-67h-67v67zM264 515h67v-67h-67v67z" />
    <glyph glyph-name="uni0643.fina" unicode="&#x643;" horiz-adv-x="914" arabic-form="final" 
d="M111.5 19.5q-31.5 19.5 -48 53t-13.5 72.5q2 27 32 157l30 -6l-5 -22q-24 -97 -27 -131q-4 -49 25 -81t79 -32h316q64 0 103.5 37.5t39.5 92.5q0 54 -38 102l-179 231l9 37l381 167l12 -28l-373 -163l171 -223q1 -2 3 -4t4 -6q65 -89 108 -138.5t84 -77t84 -27.5h10
l2 -16l-2 -14h-10q-60 0 -114.5 43.5t-124.5 135.5q1 -6 1 -18q0 -44 -22.5 -81t-60.5 -58.5t-84 -21.5h-320q-41 0 -72.5 19.5z" />
    <glyph glyph-name="uni0643.init" unicode="&#x643;" horiz-adv-x="483" arabic-form="initial" 
d="M478 669l-373 -163l231 -225q28 -28 42.5 -60.5t14.5 -65.5q0 -41 -21.5 -76.5t-62 -57t-94.5 -21.5h-220v30h220q69 0 109.5 36t40.5 87q0 28 -12.5 55t-36.5 51l-240 234l9 37l381 167z" />
    <glyph glyph-name="uni0643.medi" unicode="&#x643;" horiz-adv-x="564" arabic-form="medial" 
d="M478 669l-373 -163l171 -223q1 -2 3 -4t4 -6q65 -89 108 -138.5t84 -77t84 -27.5h10l2 -16l-2 -14h-10q-60 0 -114.5 43.5t-124.5 135.5q1 -6 1 -18q0 -44 -22.5 -81t-60.5 -58.5t-84 -21.5h-159v30h155q64 0 103.5 37.5t39.5 92.5q0 54 -38 102l-179 231l9 37l381 167z
" />
    <glyph glyph-name="uni0644.fina" unicode="&#x644;" horiz-adv-x="680" arabic-form="final" 
d="M157.5 -215.5q-53.5 36.5 -80.5 96.5t-27 129q0 48 14.5 100t36.5 98l26 -14q-21 -42 -34 -90.5t-13 -93.5q0 -64 23 -116.5t70 -84t114 -31.5h48q106 0 153 45t47 141v685h30v-518q0 -56 35 -78.5t72 -22.5h10l3 -15l-3 -15h-10q-27 0 -57.5 13t-49.5 44v-93
q0 -107 -56 -161.5t-174 -54.5h-48q-76 0 -129.5 36.5z" />
    <glyph glyph-name="uni0644.init" unicode="&#x644;" horiz-adv-x="206" arabic-form="initial" 
d="M131.5 51q-24.5 -29 -56 -40t-56.5 -11h-24v30h24q37 0 72 22.5t35 78.5v518h30v-518q0 -51 -24.5 -80z" />
    <glyph glyph-name="uni0644.medi" unicode="&#x644;" horiz-adv-x="285" arabic-form="medial" 
d="M-5 30h24q107 0 107 101v518h30v-518q0 -101 107 -101h24l3 -15l-3 -15h-24q-35 0 -69 14t-52 51q-18 -37 -52.5 -51t-70.5 -14h-24v30z" />
    <glyph glyph-name="uni0645.fina" unicode="&#x645;" horiz-adv-x="604" arabic-form="final" 
d="M611 14l-2 -14h-10q-77 0 -102 63q-16 -44 -44.5 -65t-63.5 -21q-31 0 -83.5 16.5t-153.5 54.5l-48 18v-404h-30v414l30 22q31 -11 64 -24l36 135q18 67 57.5 105.5t95.5 38.5q46 0 81 -25.5t54 -69.5t19 -98q0 -51 8.5 -79t27.5 -39.5t52 -11.5h10zM321.5 20
q42.5 -13 67.5 -13q92 0 92 153q0 73 -33.5 118t-90.5 45q-46 0 -77.5 -31.5t-47.5 -90.5l-37 -137q84 -31 126.5 -44z" />
    <glyph glyph-name="uni0645.init" unicode="&#x645;" horiz-adv-x="494" arabic-form="initial" 
d="M-5 30h28q29 0 51.5 17.5t30.5 46.5l32 115q19 67 58.5 106t96.5 39q46 0 80.5 -26.5t53 -71t18.5 -96.5q0 -94 -35.5 -138t-86.5 -44q-37 0 -74 15t-128 62q-16 -26 -42 -40.5t-55 -14.5h-28v30zM256.5 22q33.5 -14 65.5 -14q40 0 66 35t26 117q0 72 -33 118t-89 46
q-93 0 -127 -123l-32 -115l-1 -4q91 -46 124.5 -60z" />
    <glyph glyph-name="uni0645.medi" unicode="&#x645;" horiz-adv-x="537" arabic-form="medial" 
d="M-5 30h28q29 0 51.5 17.5t30.5 46.5l32 115q19 67 58.5 106t96.5 39q46 0 80.5 -26.5t53 -71t18.5 -96.5q0 -51 8.5 -79t27.5 -39.5t52 -11.5h10l2 -16l-2 -14h-10q-40 0 -64.5 15.5t-37.5 47.5q-16 -44 -45 -64.5t-63 -20.5q-37 0 -74 15t-128 62q-16 -26 -42 -40.5
t-55 -14.5h-28v30zM256.5 22q33.5 -14 65.5 -14q40 0 66 35t26 117q0 72 -33 118t-89 46q-93 0 -127 -123l-32 -115l-1 -4q91 -46 124.5 -60z" />
    <glyph glyph-name="uni0646.fina" unicode="&#x646;" horiz-adv-x="736" arabic-form="final" 
d="M673.5 13q-30.5 13 -49.5 44v-93q0 -107 -56 -161.5t-174 -54.5h-107q-76 0 -129.5 36.5t-80.5 96.5t-27 129q0 61 18 124t50 133l28 -12q-31 -69 -48.5 -128.5t-17.5 -116.5q0 -64 23 -116.5t70 -84t114 -31.5h107q106 0 153 45t47 141v330h30v-163q0 -56 35 -78.5
t72 -22.5h10l3 -15l-3 -15h-10q-27 0 -57.5 13zM332 295h67v-67h-67v67z" />
    <glyph glyph-name="uni0646.init" unicode="&#x646;" horiz-adv-x="298" arabic-form="initial" 
d="M-5 30h104q64 0 89.5 31t25.5 76q0 46 -32 187l30 6q32 -141 32 -193q0 -54 -33.5 -95.5t-111.5 -41.5h-104v30zM125 527h67v-67h-67v67z" />
    <glyph glyph-name="uni0646.medi" unicode="&#x646;" horiz-adv-x="359" arabic-form="medial" 
d="M233 294v-163q0 -56 35 -78.5t72 -22.5h24l3 -15l-3 -15h-24q-30 0 -66.5 15t-55.5 51q-19 -33 -56.5 -49.5t-87.5 -16.5h-79v30h79q129 0 129 101v163h30zM88 462h67v-67h-67v67z" />
    <glyph glyph-name="uni0647.fina" unicode="&#x647;" horiz-adv-x="584" arabic-form="final" 
d="M393 161q17 -71 66.5 -101t109.5 -30h20l2 -16l-2 -14h-20q-67 0 -126.5 35.5t-79.5 117.5l-3 14q-6 -27 -19 -48q-21 -38 -57 -58.5t-77 -20.5q-43 0 -80 22q-36 21 -56.5 57t-20.5 77q0 44 21 79q14 23 34 41t65 41t131 58l-17 74l29 8q49 -211 80 -336zM79 195
q0 -33 17 -61.5t47 -45.5q31 -19 65 -19q33 0 61 17t46 47q15 27 21.5 46t6.5 44q0 13 -1 20l-34 142q-81 -33 -122 -54t-59 -36t-30 -36q-18 -30 -18 -64z" />
    <glyph glyph-name="uni0647.init" unicode="&#x647;" horiz-adv-x="643" arabic-form="initial" 
d="M413 445l152 -235q28 -44 28 -90q0 -35 -17 -60q-23 -32 -65 -46t-88 -14q-95 0 -179 29q-82 -29 -178 -29h-71v30h71q69 0 136 16q-55 27 -86.5 66t-31.5 89q0 45 21.5 83t59 60.5t81.5 22.5q43 0 79.5 -22t58 -60t21.5 -83q0 -50 -31.5 -89.5t-86.5 -66.5
q67 -16 136 -16q41 0 76 11t53 37q12 17 12 41q0 38 -25 75l-152 235zM149 118q35 -36 95 -58q60 22 95.5 58.5t35.5 83.5q0 58 -37 96.5t-92 38.5q-57 0 -94.5 -39t-37.5 -97q0 -47 35 -83z" />
    <glyph glyph-name="uni0647.medi" unicode="&#x647;" horiz-adv-x="518" arabic-form="medial" 
d="M-5 30h62v128q0 97 44 151.5t123 54.5q44 0 82 -22t60.5 -61.5t22.5 -90.5q0 -16 -3 -34q-13 -80 -70.5 -118t-145.5 -38h-83v-36q0 -65 20 -106t71 -62t142 -21v98q0 43 18 79t50.5 57t74.5 21h60l2 -16l-2 -14h-60q-52 0 -82.5 -35.5t-30.5 -91.5v-101l-29 -27
q-101 0 -159 26t-81.5 74t-23.5 119v36h-62v30zM170 30q165 0 186 130q3 17 3 33q0 64 -39 102.5t-96 38.5q-68 0 -102.5 -44.5t-34.5 -131.5v-128h83z" />
    <glyph glyph-name="uni0648.fina" unicode="&#x648;" horiz-adv-x="428" arabic-form="final" 
d="M301 -176q46 47 46 140v36h-134q-72 0 -117.5 40.5t-45.5 119.5q0 58 20.5 104.5t57.5 73t84 26.5q76 0 120.5 -55.5t44.5 -148.5v-130h57l3 -15l-3 -15h-57v-36q0 -217 -231 -217h-84v30h84q109 0 155 47zM115.5 61.5q35.5 -31.5 97.5 -31.5h134v130q0 83 -35 128.5
t-100 45.5q-60 0 -96 -47.5t-36 -126.5q0 -67 35.5 -98.5z" />
    <glyph glyph-name="uni0649.fina" unicode="&#x649;" horiz-adv-x="716" arabic-form="final" 
d="M161.5 -215.5q-54.5 36.5 -83 97.5t-28.5 134q0 105 66 248l28 -12q-64 -137 -64 -236q0 -67 24.5 -121t72.5 -85.5t115 -31.5h112q65 0 101.5 13t53 36t23.5 61q2 8 2 23q0 36 -24 55q-28 23 -76.5 28.5t-132.5 5.5v30h370l2 -15l-2 -15h-160q25 -7 39.5 -32.5
t14.5 -57.5q0 -15 -3 -28q-13 -65 -58.5 -99.5t-149.5 -34.5h-112q-76 0 -130.5 36.5z" />
    <glyph glyph-name="uni064A.fina" unicode="&#x64a;" horiz-adv-x="716" arabic-form="final" 
d="M161.5 -215.5q-54.5 36.5 -83 97.5t-28.5 134q0 105 66 248l28 -12q-64 -137 -64 -236q0 -67 24.5 -121t72.5 -85.5t115 -31.5h112q65 0 101.5 13t53 36t23.5 61q2 8 2 23q0 36 -24 55q-28 23 -76.5 28.5t-132.5 5.5v30h370l2 -15l-2 -15h-160q25 -7 39.5 -32.5
t14.5 -57.5q0 -15 -3 -28q-13 -65 -58.5 -99.5t-149.5 -34.5h-112q-76 0 -130.5 36.5z" />
    <glyph glyph-name="uni064A.init" unicode="&#x64a;" horiz-adv-x="325" arabic-form="initial" 
d="M-5 30h135q64 0 89.5 31t25.5 76q0 46 -32 187l30 6q32 -141 32 -193q0 -54 -33.5 -95.5t-111.5 -41.5h-135v30zM-30 -126h67v-67h-67v67zM109 -126h67v-67h-67v67z" />
    <glyph glyph-name="uni064A.medi" unicode="&#x64a;" horiz-adv-x="408" arabic-form="medial" 
d="M256 294v-163q0 -56 35 -78.5t72 -22.5h50l3 -15l-3 -15h-50q-30 0 -66.5 15t-55.5 51q-19 -33 -56.5 -49.5t-87.5 -16.5h-102v30h102q129 0 129 101v163h30zM-32 -126h67v-67h-67v67zM107 -126h67v-67h-67v67z" />
    <glyph glyph-name=".notdef" horiz-adv-x="255" 
d="M38 429h179v-433h-179v433zM208 4v417h-161v-417h161z" />
    <glyph glyph-name=".null" 
 />
    <glyph glyph-name="nonmarkingreturn" unicode="&#xd;" horiz-adv-x="255" 
 />
    <glyph glyph-name="space" unicode=" " horiz-adv-x="250" 
 />
    <glyph glyph-name="exclam" unicode="!" horiz-adv-x="217" 
d="M124 196h-31v515h31v-515zM77.5 65.5q12.5 12.5 30.5 12.5t31 -12.5t13 -30.5t-13 -31t-31 -13t-30.5 13t-12.5 31t12.5 30.5z" />
    <glyph glyph-name="quotedbl" unicode="&#x22;" horiz-adv-x="211" 
d="M186 667l-7 -119h-25l5 119v83h27v-83zM71 667v83h27v-83l-7 -119h-25z" />
    <glyph glyph-name="numbersign" unicode="#" horiz-adv-x="592" 
d="M157 200h-132v26h137l46 255h-146v27h151l37 203h27l-37 -203h178l38 203h27l-37 -203h124v-27h-129l-47 -255h139v-26h-143l-37 -200h-27l36 200h-177l-37 -200h-27zM367 226l47 255h-179l-46 -255h178z" />
    <glyph glyph-name="dollar" unicode="$" horiz-adv-x="547" 
d="M115.5 49q-56.5 55 -56.5 151h26q0 -87 54 -135.5t147 -48.5q50 0 90.5 20t63 55t22.5 77q0 45 -16 74t-56.5 53t-118.5 52q-103 35 -146 77.5t-43 117.5q0 79 52 127.5t137 51.5v91h26v-91q90 -5 139 -60t49 -150h-27q0 84 -47 134t-128 50q-78 0 -126.5 -42.5
t-48.5 -109.5q0 -48 16 -76t53 -50.5t104 -45.5q81 -28 124 -52t63.5 -59t20.5 -91q0 -78 -50.5 -126t-135.5 -53v-92h-27v92q-104 4 -160.5 59z" />
    <glyph glyph-name="percent" unicode="%" horiz-adv-x="435" 
d="M176 618v-80h-80v80h80zM330 653h32l-258 -687h-31zM267 73h81v-81h-81v81z" />
    <glyph glyph-name="ampersand" unicode="&#x26;" horiz-adv-x="609" 
d="M144 486q-19 42 -19 84q0 69 41.5 110t107.5 41q60 0 97.5 -36t37.5 -93q0 -65 -92 -142l-76 -61l232 -263q56 79 56 183h27q0 -115 -65 -204l93 -105h-33l-76 86q-96 -96 -207 -96q-98 0 -155 49t-57 133q0 50 32.5 99t117.5 121q-43 52 -62 94zM133.5 60
q50.5 -43 134.5 -43q54 0 103 23t87 66l-236 267q-76 -65 -107.5 -110.5t-31.5 -90.5q0 -69 50.5 -112zM226 407l85 68q71 59 71 117q0 45 -30 74t-78 29q-55 0 -88.5 -34.5t-33.5 -89.5q0 -76 74 -164z" />
    <glyph glyph-name="quotesingle" unicode="'" horiz-adv-x="166" 
d="M98 667l-7 -119h-25l5 119v83h27v-83z" />
    <glyph glyph-name="parenleft" unicode="(" horiz-adv-x="337" 
d="M126 509.5q-60 -105.5 -60 -263.5q0 -149 61.5 -260t144.5 -184l-18 -25q-87 75 -153 193t-66 276q0 280 219 469l18 -25q-86 -75 -146 -180.5z" />
    <glyph glyph-name="parenright" unicode=")" horiz-adv-x="337" 
d="M302 246q0 -158 -66 -276t-153 -193l-18 25q83 73 144.5 184t61.5 260q0 158 -60 263.5t-146 180.5l18 25q219 -189 219 -469z" />
    <glyph glyph-name="asterisk" unicode="*" horiz-adv-x="418" 
d="M192 497l-177 60l8 26l177 -64l1 192h27l-3 -193l171 70l10 -26l-176 -67l122 -155l-23 -16l-118 157l-111 -158l-22 15z" />
    <glyph glyph-name="plus" unicode="+" horiz-adv-x="562" 
d="M288 343h235v-26h-235v-246h-27v246h-225v26h225v246h27v-246z" />
    <glyph glyph-name="comma" unicode="," horiz-adv-x="224" 
d="M106 -5v99h32v-87q0 -90 -62 -157l-22 19q52 69 52 126z" />
    <glyph glyph-name="hyphen" unicode="-" horiz-adv-x="296" 
d="M259 312h-229v26h229v-26z" />
    <glyph glyph-name="period" unicode="." horiz-adv-x="242" 
d="M89 12.5q-13 12.5 -13 30.5t13 31t30 13q18 0 31 -13t13 -31t-13 -30.5t-31 -12.5q-17 0 -30 12.5z" />
    <glyph glyph-name="slash" unicode="/" horiz-adv-x="382" 
d="M317 711h29l-297 -772h-28z" />
    <glyph glyph-name="zero" unicode="0" horiz-adv-x="426" 
d="M146.5 84q-30.5 18 -48.5 49t-18 68t18 68t48.5 49t66.5 18t66.5 -18t48.5 -49t18 -68t-18 -68t-48.5 -49t-66.5 -18t-66.5 18zM137 127q30 -30 76 -30t75.5 30t29.5 74t-30 73.5t-75 29.5q-46 0 -76 -29.5t-30 -73.5t30 -74z" />
    <glyph glyph-name="one" unicode="1" horiz-adv-x="190" 
d="M117 459q13 -110 13 -236v-33l-2 -190h-30l2 190v42q0 123 -12 226t-48 184l26 14q38 -87 51 -197z" />
    <glyph glyph-name="two" unicode="2" horiz-adv-x="422" 
d="M111 497q12 -53 46 -76.5t80 -23.5q41 0 73 27.5t32 77.5q0 7 -2 23l-18 122l30 4l18 -122q2 -18 2 -26q0 -43 -20.5 -74t-52 -46.5t-62.5 -15.5q-76 0 -115 48q8 -81 8 -225l-2 -190h-30l2 190v42q0 123 -12 226t-48 184l26 14q31 -70 45 -159z" />
    <glyph glyph-name="three" unicode="3" horiz-adv-x="616" 
d="M110 504q21 -107 119 -107q37 0 67.5 27.5t30.5 76.5q0 8 -2 24l-16 109l30 4l16 -109v-3q19 -129 101 -129q39 0 64.5 26t25.5 77q0 7 -2 25l-15 122l30 4l15 -122q2 -18 2 -27q0 -43 -17 -73.5t-44.5 -46t-58.5 -15.5q-33 0 -62 19.5t-47 61.5q-16 -38 -49.5 -59.5
t-68.5 -21.5q-67 0 -107 45q8 -79 8 -222l-2 -190h-30l2 190v42q0 123 -12 226t-48 184l26 14q28 -64 44 -152z" />
    <glyph glyph-name="four" unicode="4" horiz-adv-x="529" 
d="M115 470q13 -53 51 -79.5t103 -36.5q-45 24 -69 63t-24 84q0 41 21 76.5t56 56.5t77 21q39 0 70.5 -13.5t88.5 -49.5l-14 -23q-51 33 -80 44.5t-65 11.5q-53 0 -88.5 -36t-35.5 -88q0 -64 51 -108t151 -47h81v-30q-114 0 -178.5 4t-111.5 18.5t-74 46.5q5 -70 5 -195
l-2 -190h-30l2 190v42q0 123 -12 226t-48 184l26 14q34 -76 49 -186z" />
    <glyph glyph-name="five" unicode="5" horiz-adv-x="545" 
d="M297 136q0 -21 -7 -44q9 -31 33.5 -47.5t56.5 -16.5q45 0 75 30.5t30 93.5q0 84 -58 193.5t-173 220.5q-102 -114 -148 -216.5t-46 -188.5q0 -67 28.5 -99.5t72.5 -32.5t75.5 29t31.5 81q0 20 -4 37l27 6q6 -24 6 -46zM78.5 360.5q48.5 108.5 153.5 226.5q-45 40 -53 46
l20 24q105 -86 176 -178t105.5 -176t34.5 -151q0 -50 -19.5 -85t-50 -52t-65.5 -17t-63 15.5t-43 44.5q-18 -28 -48.5 -43.5t-63.5 -15.5q-35 0 -65 18t-48.5 54.5t-18.5 89.5q0 91 48.5 199.5z" />
    <glyph glyph-name="six" unicode="6" horiz-adv-x="470" 
d="M320.5 336.5q-51.5 -52.5 -93 -109t-99.5 -143.5l-63 -94l-25 17l63 94q58 86 98 140t86 102q-36 -13 -72 -13q-37 0 -68.5 15t-54.5 42q-35 41 -35 99q0 34 14 65t40 53q30 25 63 35t99 19l5 -26q-61 -7 -90.5 -17.5t-57.5 -33.5q-21 -18 -32.5 -43t-11.5 -52
q0 -45 29 -80q42 -48 106 -48t138 52q29 24 57 41l14 -26q-58 -36 -109.5 -88.5z" />
    <glyph glyph-name="seven" unicode="7" horiz-adv-x="537" 
d="M173.5 290q-29.5 95 -58.5 166t-85 189l28 12q54 -114 83 -183.5t56 -157t72 -256.5q42 167 68.5 256t56 158t87.5 184l26 -14q-59 -119 -88.5 -190t-57.5 -166t-75 -287h-31q-52 194 -81.5 289z" />
    <glyph glyph-name="eight" unicode="8" horiz-adv-x="537" 
d="M363.5 364q29.5 -95 58.5 -166t85 -189l-28 -12q-54 114 -83 183.5t-56 157t-72 256.5q-42 -167 -68.5 -256t-56 -158t-87.5 -184l-26 14q59 119 88.5 190t57.5 166t75 287h31q52 -194 81.5 -289z" />
    <glyph glyph-name="nine" unicode="9" horiz-adv-x="370" 
d="M282.5 133q-3.5 53 -4.5 214h-109q-64 0 -101.5 33.5t-37.5 102.5q0 79 37.5 128t100.5 49q66 0 103 -47t37 -130q0 -189 1 -261.5t5 -111t16 -103.5l-30 -6q-14 79 -17.5 132zM87.5 401.5q27.5 -24.5 81.5 -24.5h109v106q0 147 -110 147q-50 0 -79 -39t-29 -108
q0 -57 27.5 -81.5z" />
    <glyph glyph-name="colon" unicode=":" horiz-adv-x="220" 
d="M77 278q-13 13 -13 31t13 30.5t30 12.5q18 0 31 -12.5t13 -30.5t-13 -31t-31 -13q-17 0 -30 13zM77 74q13 13 30 13q18 0 31 -13t13 -31t-13 -30.5t-31 -12.5q-17 0 -30 12.5t-13 30.5t13 31z" />
    <glyph glyph-name="semicolon" unicode=";" horiz-adv-x="284" 
d="M152 -5v99h32v-87q0 -90 -62 -157l-22 19q52 69 52 126zM127.5 356q12.5 13 30.5 13t31 -13t13 -31t-13 -30.5t-31 -12.5t-30.5 12.5t-12.5 30.5t12.5 31z" />
    <glyph glyph-name="less" unicode="&#x3c;" horiz-adv-x="514" 
d="M76 325l373 -168v-29l-409 185v24l409 185v-28z" />
    <glyph glyph-name="equal" unicode="=" horiz-adv-x="558" 
d="M479 412h-407v26h407v-26zM72 239h407v-26h-407v26z" />
    <glyph glyph-name="greater" unicode="&#x3e;" horiz-adv-x="514" 
d="M426 326l-370 169v28l408 -184v-25l-408 -185v29z" />
    <glyph glyph-name="question" unicode="?" horiz-adv-x="436" 
d="M210 285q16 35 60 76q42 39 61 66q18 25 26 51.5t8 64.5q0 71 -37.5 111.5t-103.5 40.5q-70 0 -110.5 -41.5t-41.5 -108.5h-27q0 52 23.5 92t64 62t91.5 22q76 0 121.5 -48.5t45.5 -130.5q0 -41 -10.5 -73t-36.5 -65q-28 -37 -60 -63q-65 -54 -65 -146h-26q1 55 17 90z
M177 74q13 13 31 13t30.5 -13t12.5 -31t-12.5 -30.5t-30.5 -12.5t-31 12.5t-13 30.5t13 31z" />
    <glyph glyph-name="at" unicode="@" horiz-adv-x="929" 
d="M118.5 455.5q55.5 105.5 152 170.5t216.5 65q118 0 202.5 -47t129.5 -136t45 -215q0 -26 -1 -39q-3 -78 -26.5 -138.5t-63 -94t-90.5 -33.5q-99 0 -111 116q-30 -54 -69.5 -84.5t-86.5 -30.5q-67 0 -100.5 46.5t-33.5 133.5q0 13 2 45q11 127 67.5 197.5t145.5 70.5
q39 0 70.5 -16t50.5 -39l-20 -262q-1 -12 -1 -34q0 -63 21.5 -88t64.5 -25q66 0 106.5 64.5t45.5 173.5q1 13 1 38q0 178 -90.5 273.5t-258.5 95.5q-114 0 -203.5 -61t-140 -160t-53.5 -209q-4 -177 66.5 -301t289.5 -125q42 0 87 11t75 28l13 -26q-33 -19 -81.5 -30
t-94.5 -11q-233 1 -311 133.5t-74 320.5q3 117 58.5 222.5zM309 161q0 -73 26 -108t81 -35q47 0 87.5 35t67.5 97l1 17l19 248q-16 16 -40 26.5t-54 10.5q-79 0 -127 -61.5t-58 -178.5q-3 -27 -3 -51z" />
    <glyph glyph-name="A" unicode="A" horiz-adv-x="597" 
d="M282 711h32l267 -711h-29l-80 212h-348l-79 -212h-29zM462 239l-164 440l-164 -440h328z" />
    <glyph glyph-name="B" unicode="B" horiz-adv-x="603" 
d="M98 711h187q114 0 173 -46.5t59 -135.5q0 -65 -32.5 -107.5t-92.5 -53.5q44 -6 80 -30.5t56.5 -62t20.5 -79.5q0 -91 -59 -143.5t-163 -52.5h-229v711zM330 26q90 0 141.5 45t51.5 124q0 44 -22.5 79.5t-64.5 56t-96 20.5h-216v-325h206zM294 377q99 0 147.5 38t48.5 116
q0 151 -199 154h-167v-308h170z" />
    <glyph glyph-name="C" unicode="C" horiz-adv-x="648" 
d="M217 16q-59 26 -103 95t-44 188v110q0 94 32.5 164.5t91 109t134.5 38.5q112 0 177.5 -58.5t75.5 -168.5h-26q-12 99 -69 149.5t-158 50.5q-69 0 -121.5 -35.5t-81 -100t-28.5 -151.5v-105q0 -86 29 -150.5t81.5 -99.5t120.5 -35q205 0 227 201h26q-10 -110 -75.5 -169
t-177.5 -59q-52 0 -111 26z" />
    <glyph glyph-name="D" unicode="D" horiz-adv-x="654" 
d="M98 711h196q56 0 123 -27t119 -98t52 -194v-80q0 -95 -39 -165.5t-105.5 -108.5t-146.5 -38h-199v711zM294 26q54 0 116 27t107 90.5t45 165.5v91q0 51 -21 114t-80 114.5t-163 56.5h-174v-659h170z" />
    <glyph glyph-name="E" unicode="E" horiz-adv-x="569" 
d="M98 711h432v-26h-406v-306h356v-26h-356v-327h406v-26h-432v711z" />
    <glyph glyph-name="F" unicode="F" horiz-adv-x="572" 
d="M98 711h440v-26h-414v-308h364v-27h-364v-350h-26v711z" />
    <glyph glyph-name="G" unicode="G" horiz-adv-x="687" 
d="M220.5 26q-62.5 36 -100.5 105.5t-38 165.5v122q0 83 31.5 152t91.5 109.5t143 40.5q105 0 172 -54.5t78 -147.5h-27q-13 85 -70.5 130t-152.5 45q-71 0 -125.5 -34.5t-84.5 -97.5t-30 -146v-113q0 -87 32 -152t88 -99.5t128 -34.5q70 0 131 20.5t85 50.5v207h-217v27
h244v-246q-27 -37 -95 -61.5t-148 -24.5q-73 0 -135.5 36z" />
    <glyph glyph-name="H" unicode="H" horiz-adv-x="702" 
d="M98 711h26v-332h454v332h26v-711h-26v353h-454v-353h-26v711z" />
    <glyph glyph-name="I" unicode="I" horiz-adv-x="261" 
d="M117 711h27v-711h-27v711z" />
    <glyph glyph-name="J" unicode="J" horiz-adv-x="549" 
d="M97 43.5q-53 53.5 -53 152.5h26q0 -88 45 -133.5t134 -45.5q79 0 128 52.5t51 141.5v500h26v-495q0 -68 -25.5 -119t-72 -79t-107.5 -28q-99 0 -152 53.5z" />
    <glyph glyph-name="K" unicode="K" horiz-adv-x="635" 
d="M98 711h26v-411l117 115l295 296h38l-317 -319l342 -392h-35l-326 374l-114 -105v-269h-26v711z" />
    <glyph glyph-name="L" unicode="L" horiz-adv-x="516" 
d="M98 711h27v-685h364v-26h-391v711z" />
    <glyph glyph-name="M" unicode="M" horiz-adv-x="857" 
d="M98 711h37l293 -672l293 672h39v-711h-27v672l-295 -672h-21l-293 668v-668h-26v711z" />
    <glyph glyph-name="N" unicode="N" horiz-adv-x="708" 
d="M98 711h27l458 -665v665h27v-711h-27l-458 666v-666h-27v711z" />
    <glyph glyph-name="O" unicode="O" horiz-adv-x="666" 
d="M192.5 29q-60.5 39 -94 110.5t-33.5 166.5v103q0 95 34 165.5t95 108.5t139 38q79 0 139.5 -38.5t94.5 -109t34 -164.5v-107q0 -95 -34 -165.5t-95 -108.5t-139 -38q-80 0 -140.5 39zM122 150q30 -64 85 -98.5t126 -34.5q74 0 128.5 35t84 100t29.5 154v104
q0 85 -29.5 149.5t-84.5 99.5t-128 35t-127.5 -34.5t-84 -99.5t-29.5 -154v-104q0 -88 30 -152z" />
    <glyph glyph-name="P" unicode="P" horiz-adv-x="601" 
d="M98 711h222q109 0 169 -55t60 -153q0 -96 -59 -149t-167 -54h-199v-300h-26v711zM320 327q96 0 149.5 46t53.5 129q0 86 -53.5 134.5t-149.5 48.5h-196v-358h196z" />
    <glyph glyph-name="Q" unicode="Q" horiz-adv-x="666" 
d="M333 -10q-80 0 -140.5 39t-94 110.5t-33.5 166.5v103q0 95 34 165.5t95 108.5t139 38q80 0 140.5 -38t94 -108.5t33.5 -165.5v-103q0 -102 -39 -178t-111 -112l131 -127l-19 -17l-139 133q-43 -15 -91 -15zM122 150.5q30 -64.5 85 -99t126 -34.5q74 0 128.5 35t84 99.5
t29.5 152.5v102q0 89 -29.5 154t-84 99.5t-128.5 34.5q-73 0 -127.5 -34.5t-84 -99.5t-29.5 -154v-102q0 -89 30 -153.5z" />
    <glyph glyph-name="R" unicode="R" horiz-adv-x="654" 
d="M95 711h227q107 0 170 -55t63 -150q0 -73 -45 -127.5t-115 -67.5l190 -304v-7h-28l-189 304h-246v-304h-27v711zM346 331q54 0 95.5 22.5t64.5 62.5t23 90q0 83 -56 131t-153 48h-198v-354h224z" />
    <glyph glyph-name="S" unicode="S" horiz-adv-x="591" 
d="M179.5 12q-59.5 22 -96 69.5t-36.5 119.5h26q0 -86 64.5 -135t171.5 -49q61 0 110 19.5t76.5 54t27.5 79.5q0 69 -50 109q-29 23 -69 38t-108 36q-55 17 -84 27.5t-53 23.5q-46 26 -67.5 60.5t-21.5 82.5q0 51 29.5 90.5t83.5 61.5t123 22q64 0 118 -25t86 -72.5
t32 -112.5h-26q0 52 -26.5 94t-74.5 65.5t-109 23.5t-109 -19t-74.5 -52t-26.5 -75q0 -64 51 -103q30 -23 68.5 -38t97.5 -31q62 -18 100 -32.5t69 -37.5q68 -51 68 -135q0 -34 -19.5 -75.5t-73 -73.5t-148.5 -32q-70 0 -129.5 22z" />
    <glyph glyph-name="T" unicode="T" horiz-adv-x="598" 
d="M286 685h-259v26h544v-26h-259v-685h-26v685z" />
    <glyph glyph-name="U" unicode="U" horiz-adv-x="667" 
d="M156.5 53.5q-65.5 63.5 -66.5 174.5v483h27v-481q0 -98 59 -155.5t158 -57.5t157.5 57.5t58.5 156.5v480h26v-482q0 -111 -65 -175t-177 -64t-177.5 63.5z" />
    <glyph glyph-name="V" unicode="V" horiz-adv-x="597" 
d="M17 711h29l239 -642l14 -43l14 43l239 642h29l-266 -711h-32z" />
    <glyph glyph-name="W" unicode="W" horiz-adv-x="906" 
d="M30 711h29l148 -550l32 -117l32 117l168 550h29l167 -550l32 -117l33 117l147 550h28l-191 -711h-30l-176 593l-25 75l-24 -75l-178 -593h-29z" />
    <glyph glyph-name="X" unicode="X" horiz-adv-x="597" 
d="M282 363l-246 348h33l229 -328l230 328h33l-246 -348l255 -363h-32l-240 342l-240 -342h-32z" />
    <glyph glyph-name="Y" unicode="Y" horiz-adv-x="597" 
d="M284 270l-268 441h35l246 -417l249 417h33l-268 -441v-270h-27v270z" />
    <glyph glyph-name="Z" unicode="Z" horiz-adv-x="598" 
d="M46 21l454 664h-435v26h471v-19l-454 -666h470v-26h-506v21z" />
    <glyph glyph-name="bracketleft" unicode="[" horiz-adv-x="216" 
d="M194 786h-112v-912h112v-26h-139v965h139v-27z" />
    <glyph glyph-name="backslash" unicode="\" horiz-adv-x="382" 
d="M333 -61l-297 772h29l296 -772h-28z" />
    <glyph glyph-name="bracketright" unicode="]" horiz-adv-x="216" 
d="M161 813v-965h-139v26h112v912h-112v27h139z" />
    <glyph glyph-name="asciicircum" unicode="^" horiz-adv-x="415" 
d="M203 676l-130 -320h-29l146 355h26l146 -355h-30z" />
    <glyph glyph-name="underscore" unicode="_" horiz-adv-x="413" 
d="M413 -26h-413v26h413v-26z" />
    <glyph glyph-name="a" unicode="a" horiz-adv-x="528" 
d="M89.5 30q-44.5 40 -44.5 104q0 73 65.5 116.5t174.5 44.5h131v77q0 66 -42 103t-120 37q-47 0 -86 -17t-61 -46.5t-22 -65.5l-26 1q0 42 26 77.5t70.5 56t98.5 20.5q87 0 136.5 -42.5t51.5 -120.5v-252q0 -86 14 -119v-4h-31q-9 35 -9 97q-32 -51 -86 -79t-122 -28
q-74 0 -118.5 40zM110 49.5q39 -33.5 98 -33.5q74 0 127.5 33t80.5 94v125h-123q-91 0 -156.5 -34t-65.5 -102q0 -49 39 -82.5z" />
    <glyph glyph-name="b" unicode="b" horiz-adv-x="547" 
d="M183.5 15q-47.5 25 -74.5 68v-83h-26v750h26v-318q28 52 74 79t106 27q93 0 146 -71t53 -199v-9q0 -81 -24.5 -142t-69 -94t-104.5 -33q-59 0 -106.5 25zM176.5 47.5q46.5 -30.5 113.5 -30.5q82 0 126 65t44 188q0 114 -45 178t-126 64q-66 0 -112.5 -35t-67.5 -101v-242
q21 -56 67.5 -86.5z" />
    <glyph glyph-name="c" unicode="c" horiz-adv-x="507" 
d="M148.5 22.5q-48.5 32.5 -75 93t-26.5 141.5v17q0 80 26.5 139.5t75 92t113.5 32.5q85 0 139.5 -50.5t57.5 -133.5h-26q-4 71 -50.5 114.5t-120.5 43.5q-88 0 -138 -64t-50 -177v-17q0 -111 50.5 -174t138.5 -63q73 0 119 38.5t51 104.5h26q-4 -76 -58.5 -123t-137.5 -47
q-66 0 -114.5 32.5z" />
    <glyph glyph-name="d" unicode="d" horiz-adv-x="547" 
d="M113 63q-53 73 -53 200q0 135 52.5 205t146.5 70q60 0 105.5 -27t73.5 -80v319h26v-750h-26v84q-27 -45 -74 -69.5t-106 -24.5q-92 0 -145 73zM132 81.5q45 -64.5 125 -64.5q66 0 112.5 29t68.5 85v247q-45 134 -180 134q-79 0 -123.5 -60.5t-47.5 -176.5v-16
q0 -113 45 -177.5z" />
    <glyph glyph-name="e" unicode="e" horiz-adv-x="504" 
d="M160.5 22.5q-53.5 32.5 -86 92t-32.5 137.5v22q0 70 28 130.5t78.5 97t115.5 36.5q59 0 104.5 -28.5t71 -80.5t25.5 -119v-28h-396v-29q0 -68 28 -122t75.5 -84.5t101.5 -30.5q52 0 89.5 18t67.5 55l18 -13q-59 -86 -175 -86q-60 0 -113.5 32.5zM438 308v6q0 54 -22 99
t-61.5 72t-90.5 27t-92.5 -26t-68.5 -72.5t-33 -105.5h368z" />
    <glyph glyph-name="f" unicode="f" horiz-adv-x="315" 
d="M124 501h-92v27h92v77q1 74 37 114.5t101 40.5q34 0 63 -8l-4 -25q-24 7 -58 7q-53 0 -83 -34t-30 -96v-76h140v-27h-140v-501h-26v501z" />
    <glyph glyph-name="g" unicode="g" horiz-adv-x="548" 
d="M167.5 -190q-43.5 23 -76.5 66l19 18q32 -41 68.5 -61t84.5 -20q82 0 127.5 49.5t46.5 139.5v81q-27 -44 -74 -68.5t-106 -24.5q-60 0 -105 33t-69 94.5t-24 145.5v7q0 126 53 197t146 71q59 0 105 -27t74 -79v96h27v-519q0 -104 -53.5 -163t-146.5 -59q-53 0 -96.5 23z
M131 81q45 -64 126 -64q66 0 113 30.5t67 87.5v240q-44 137 -179 137q-83 0 -127.5 -64.5t-44.5 -188.5q0 -114 45 -178z" />
    <glyph glyph-name="h" unicode="h" horiz-adv-x="547" 
d="M84 750h26v-345q26 62 76.5 97.5t111.5 35.5q84 0 125.5 -48t42.5 -145v-345h-27v346q0 85 -34.5 125.5t-108.5 40.5q-67 0 -117.5 -48t-68.5 -126v-338h-26v750z" />
    <glyph glyph-name="i" unicode="i" horiz-adv-x="206" 
d="M90 528h27v-528h-27v528zM84.5 713q7.5 8 19.5 8q11 0 19 -8t8 -19q0 -12 -8 -19.5t-19 -7.5q-12 0 -19.5 7.5t-7.5 18.5q0 12 7.5 20z" />
    <glyph glyph-name="j" unicode="j" horiz-adv-x="217" 
d="M-70 -204l2 26q22 -9 46 -9q55 0 84 32.5t29 91.5v591h26v-591q0 -72 -36.5 -111t-102.5 -39q-24 0 -48 9zM87.5 713q7.5 8 19.5 8q11 0 19 -8t8 -19q0 -12 -8 -19.5t-19 -7.5q-12 0 -19.5 7.5t-7.5 18.5q0 12 7.5 20z" />
    <glyph glyph-name="k" unicode="k" horiz-adv-x="473" 
d="M84 750h26v-502l62 58l241 222h37l-242 -225l257 -303h-34l-244 285l-77 -66v-219h-26v750z" />
    <glyph glyph-name="l" unicode="l" horiz-adv-x="206" 
d="M90 750h27v-750h-27v750z" />
    <glyph glyph-name="m" unicode="m" horiz-adv-x="896" 
d="M79 528h26v-125q27 64 76.5 99.5t110.5 35.5q68 0 109.5 -30t55.5 -95q23 57 75.5 91t118.5 34q169 0 169 -193v-345h-26v343q0 87 -34.5 128t-107.5 41q-100 0 -155 -76q-32 -44 -35 -84v-352h-26v355q-1 81 -35.5 119t-109.5 38q-87 0 -142 -76q-34 -47 -44 -102v-334
h-26v528z" />
    <glyph glyph-name="n" unicode="n" horiz-adv-x="547" 
d="M84 528h26v-123q26 62 76.5 97.5t111.5 35.5q84 0 125.5 -48t42.5 -145v-345h-27v346q0 85 -34.5 125.5t-108.5 40.5q-67 0 -117.5 -48t-68.5 -126v-338h-26v528z" />
    <glyph glyph-name="o" unicode="o" horiz-adv-x="550" 
d="M161 20.5q-53 30.5 -85 89.5t-32 141v23q0 72 27 132t79.5 96t124.5 36t124.5 -35t79.5 -94.5t27 -131.5v-23q0 -79 -30 -138.5t-82 -92.5t-118 -33q-62 0 -115 30.5zM95 135.5q25 -54.5 72 -86.5t109 -32q59 0 105.5 30.5t72.5 85.5t26 126v15q0 64 -25.5 118.5t-72 87
t-107.5 32.5q-59 0 -106 -31.5t-73 -86.5t-26 -124v-16q0 -64 25 -118.5z" />
    <glyph glyph-name="p" unicode="p" horiz-adv-x="547" 
d="M83 528h26v-94q28 50 74 77t106 27q93 0 146 -71t53 -199v-9q0 -81 -24.5 -142t-69 -94t-104.5 -33t-107 24.5t-74 67.5v-285h-26v731zM177 47q47 -30 113 -30q80 0 125 62t46 179v12q1 113 -44.5 177.5t-127.5 64.5q-66 0 -112.5 -34.5t-67.5 -99.5v-247q21 -54 68 -84z
" />
    <glyph glyph-name="q" unicode="q" horiz-adv-x="547" 
d="M363 14q-47 -24 -105 -24q-92 0 -145 73t-53 200v7q0 126 53 197t146 71q59 0 105.5 -27t73.5 -77v94h26v-731h-26v285q-28 -44 -75 -68zM131 82q45 -65 126 -65q66 0 112.5 29t68.5 85v247q-23 66 -69.5 100t-110.5 34q-81 0 -125.5 -62t-45.5 -181v-10q-1 -112 44 -177
z" />
    <glyph glyph-name="r" unicode="r" horiz-adv-x="334" 
d="M84 528h26v-110q22 58 65.5 89t107.5 31q22 0 37 -5l-3 -24q-13 3 -34 3q-68 0 -113 -43.5t-60 -122.5v-346h-26v528z" />
    <glyph glyph-name="s" unicode="s" horiz-adv-x="498" 
d="M147.5 8.5q-44.5 18.5 -69.5 51t-25 74.5h26q4 -55 49 -86t122 -31q46 0 82.5 15t57 41t20.5 56q0 96 -164 131q-98 21 -137 54t-39 91q0 38 22.5 68.5t62.5 47.5t92 17q85 0 137 -41t52 -110h-27q0 54 -45.5 89.5t-116.5 35.5q-70 0 -110.5 -31t-40.5 -79
q0 -49 42.5 -76t122.5 -44q92 -20 133.5 -56t41.5 -97q0 -63 -51 -101t-135 -38q-58 0 -102.5 18.5z" />
    <glyph glyph-name="t" unicode="t" horiz-adv-x="316" 
d="M142 21.5q-25 31.5 -26 101.5v378h-97v27h97v143h27v-143h120v-27h-120v-375q0 -57 19 -83t61 -26q24 0 52 4l4 -25q-16 -6 -55 -6q-57 0 -82 31.5z" />
    <glyph glyph-name="u" unicode="u" horiz-adv-x="547" 
d="M126.5 40q-43.5 50 -44.5 148v340h26v-341q1 -84 38.5 -127t108.5 -43q76 0 123 35.5t60 104.5v371h27v-528h-27v85q-24 -45 -69.5 -70t-112.5 -25q-86 0 -129.5 50z" />
    <glyph glyph-name="v" unicode="v" horiz-adv-x="478" 
d="M21 528h28l190 -486l190 486h29l-206 -528h-26z" />
    <glyph glyph-name="w" unicode="w" horiz-adv-x="757" 
d="M41 528h30l108 -375l29 -114l154 489h27l154 -489l30 114l107 375h31l-154 -528h-26l-131 397l-25 95l-26 -95l-129 -397h-26z" />
    <glyph glyph-name="x" unicode="x" horiz-adv-x="478" 
d="M222 271l-185 257h33l169 -234l168 234h33l-185 -257l195 -271h-33l-179 248l-178 -248h-33z" />
    <glyph glyph-name="y" unicode="y" horiz-adv-x="478" 
d="M48 -208l-1 25q18 -5 36 -5q42 0 69 24.5t47 79.5l32 87l-210 525h29l196 -487l3 10l183 477h29l-236 -620l-12 -29q-38 -92 -126 -92q-27 0 -39 5z" />
    <glyph glyph-name="z" unicode="z" horiz-adv-x="478" 
d="M42 21l348 480h-332v27h367v-23l-347 -479h376v-26h-412v21z" />
    <glyph glyph-name="braceleft" unicode="{" horiz-adv-x="322" 
d="M182.5 -135.5q-38.5 55.5 -38.5 145.5v117q0 138 -122 138v32q122 0 122 137v121q0 89 38.5 144.5t116.5 80.5l8 -22q-137 -45 -137 -209v-111q0 -133 -103 -157q103 -25 103 -156v-112q0 -160 139 -206l-10 -22q-78 24 -116.5 79.5z" />
    <glyph glyph-name="bar" unicode="|" horiz-adv-x="198" 
d="M115 -132h-27v843h27v-843z" />
    <glyph glyph-name="braceright" unicode="}" horiz-adv-x="322" 
d="M173 13v112q0 131 103 156q-103 24 -103 157v111q0 164 -137 209l8 22q78 -25 116.5 -80.5t38.5 -144.5v-121q0 -137 122 -137v-32q-122 0 -122 -138v-117q0 -90 -38.5 -145.5t-116.5 -79.5l-10 22q139 46 139 206z" />
    <glyph glyph-name="asciitilde" unicode="~" horiz-adv-x="689" 
d="M572.5 258q-35.5 -42 -95.5 -42q-36 0 -65.5 14.5t-75.5 56.5q-46 41 -71 53t-56 12q-49 0 -76.5 -32.5t-27.5 -93.5h-27q0 69 35.5 110.5t95.5 41.5q36 0 67 -15t77 -56q45 -40 70 -52.5t54 -12.5q49 0 76.5 33t27.5 93l27 -1q0 -67 -35.5 -109z" />
    <glyph glyph-name="uni00A0" unicode="&#xa0;" horiz-adv-x="60" 
 />
    <glyph glyph-name="brokenbar" unicode="&#xa6;" horiz-adv-x="194" 
d="M84 -132v367h26v-367h-26zM84 711h26v-370h-26v370z" />
    <glyph glyph-name="copyright" unicode="&#xa9;" horiz-adv-x="813" 
d="M232.5 40q-79.5 49 -126 133t-46.5 183t46.5 183t126 133t173.5 49t174 -49t126.5 -133t46.5 -183t-46.5 -183t-126 -133t-174.5 -49q-94 0 -173.5 49zM130.5 185.5q42.5 -77.5 115.5 -122.5t160 -45t160 45t116 122.5t43 170.5t-43 170.5t-116 122.5t-160 45t-160 -45
t-115.5 -122.5t-42.5 -170.5t42.5 -170.5zM247 375q0 55 20 98t55 67t81 24q69 0 107.5 -40.5t38.5 -112.5h-25q0 63 -31.5 95t-89.5 32t-93.5 -45t-35.5 -120v-37q0 -72 35.5 -117t93.5 -45q120 0 120 127h26q0 -74 -38.5 -114t-107.5 -40q-70 0 -113 52.5t-43 138.5v37z
" />
    <glyph glyph-name="guillemotleft" unicode="&#xab;" horiz-adv-x="284" 
d="M234 64l-20 -19q-25 30 -42 75.5t-17 98.5t17 98.5t42 75.5l20 -19q-23 -27 -38 -67t-15 -88q0 -83 53 -155zM72 345.5q22 58.5 53 96.5l20 -20q-29 -35 -49 -88t-20 -115t20 -115t49 -88l-20 -19q-31 38 -53 96.5t-22 125.5q0 68 22 126.5z" />
    <glyph glyph-name="logicalnot" unicode="&#xac;" horiz-adv-x="538" 
d="M447 193h-27v149h-360v26h387v-175z" />
    <glyph glyph-name="registered" unicode="&#xae;" horiz-adv-x="817" 
d="M316 331v-172h-26v405h116q141 0 141 -117q0 -70 -74 -100q64 -19 64 -102q0 -52 8 -78v-8h-28q-7 17 -7 86q0 45 -19.5 65.5t-64.5 20.5h-110zM106.5 539q46.5 84 126 133t173.5 49t174 -49t126.5 -133t46.5 -183t-46.5 -183t-126 -133t-174.5 -49q-94 0 -173.5 49
t-126 133t-46.5 183t46.5 183zM130.5 185.5q42.5 -77.5 115.5 -122.5t160 -45t160 45t116 122.5t43 170.5t-43 170.5t-116 122.5t-160 45t-160 -45t-115.5 -122.5t-42.5 -170.5t42.5 -170.5zM417 358q46 0 75 25t29 65q0 48 -25.5 69t-82.5 21h-97v-180h101z" />
    <glyph glyph-name="degree" unicode="&#xb0;" horiz-adv-x="382" 
d="M110 686q34 35 81 35t80.5 -34.5t33.5 -82.5t-33.5 -82t-80.5 -34t-81 34t-34 82q0 47 34 82zM128 540.5q25 -25.5 63 -25.5t62 24.5t24 64.5q0 39 -24.5 64.5t-61.5 25.5q-38 0 -63 -26t-25 -64t25 -63.5z" />
    <glyph glyph-name="plusminus" unicode="&#xb1;" horiz-adv-x="526" 
d="M278 393h204v-26h-204v-226h-27v226h-216v26h216v226h27v-226zM60 26h407v-26h-407v26z" />
    <glyph glyph-name="uni00B2" unicode="&#xb2;" horiz-adv-x="253" 
d="M68 580q8 -30 28 -43.5t46 -13.5q25 0 44 16.5t19 46.5q0 9 -1 14l-11 73l18 3l11 -74q1 -6 1 -16q0 -37 -25.5 -59t-55.5 -22q-46 0 -68 29q4 -49 4 -135l-1 -114h-18l1 114v31q0 71 -7 131.5t-29 108.5l16 9q18 -42 28 -99z" />
    <glyph glyph-name="uni00B3" unicode="&#xb3;" horiz-adv-x="370" 
d="M67 581q16 -58 70 -58q23 0 41 16.5t18 46.5q0 9 -1 14l-10 65l18 3l10 -66q0 -3 1 -4q10 -75 60 -75q23 0 38 15.5t15 45.5q0 10 -1 16l-9 73l18 3l9 -74q1 -6 1 -16q0 -38 -21 -59.5t-50 -21.5q-20 0 -37.5 12t-28.5 37q-9 -23 -29.5 -36t-41.5 -13q-40 0 -63 27
q4 -48 4 -133l-1 -114h-18l1 114v31q0 71 -7 131.5t-29 108.5l16 9q19 -44 27 -98z" />
    <glyph glyph-name="uni00B5" unicode="&#xb5;" horiz-adv-x="547" 
d="M109 528v-322q1 -93 38.5 -141t110.5 -48q87 0 130.5 44.5t50.5 140.5v326h26v-528h-25l-1 99q-46 -109 -176 -109q-55 0 -94 24t-60 69v-286h-26v731h26z" />
    <glyph glyph-name="uni00B9" unicode="&#xb9;" horiz-adv-x="114" 
d="M72 551.5q7 -71.5 6 -152.5l-1 -114h-18l1 114v31q0 71 -7 131.5t-29 108.5l16 9q25 -56 32 -127.5z" />
    <glyph glyph-name="guillemotright" unicode="&#xbb;" horiz-adv-x="284" 
d="M88 307q-15 40 -38 67l20 19q25 -30 42 -75.5t17 -98.5t-17 -98.5t-42 -75.5l-20 19q53 72 53 155q0 48 -15 88zM188 104.5q20 52.5 20 114.5t-20 114.5t-50 88.5l20 20q32 -38 54 -96.5t22 -126.5q0 -67 -22 -126t-54 -96l-20 19q30 36 50 88.5z" />
    <glyph glyph-name="onequarter" unicode="&#xbc;" horiz-adv-x="723" 
d="M115 515.5q7 -71.5 6 -152.5l-1 -114h-18l1 114v31q0 71 -7 131.5t-29 108.5l16 9q25 -56 32 -127.5zM444 635l22 -15l-347 -556l-22 15zM434 458q20 -46 30 -116q9 -30 31 -44.5t60 -20.5q-27 15 -41 37.5t-14 50.5q0 37 27 64.5t65 27.5q23 0 42 -8t53 -30l-8 -14
q-31 20 -48.5 27t-38.5 7q-32 0 -53 -21.5t-21 -52.5q0 -39 30.5 -65.5t91.5 -27.5h47v-18q-100 0 -147.5 7t-70.5 34q3 -42 3 -117l-1 -114h-18l1 114v31q0 71 -7 131.5t-29 108.5z" />
    <glyph glyph-name="onehalf" unicode="&#xbd;" horiz-adv-x="780" 
d="M120 515.5q7 -71.5 6 -152.5l-1 -114h-18l1 114v31q0 71 -7 131.5t-29 108.5l16 9q25 -56 32 -127.5zM472 635l22 -15l-347 -556l-22 15zM515 458q18 -42 28 -99q8 -30 28 -43.5t46 -13.5q25 0 44 16.5t19 46.5q0 9 -1 14l-11 73l18 3l11 -74q1 -6 1 -16q0 -37 -25.5 -59
t-55.5 -22q-46 0 -68 29q4 -49 4 -135l-1 -114h-18l1 114v31q0 71 -7 131.5t-29 108.5z" />
    <glyph glyph-name="threequarters" unicode="&#xbe;" horiz-adv-x="737" 
d="M78 569q14 -59 70 -59q23 0 41 16.5t18 45.5q0 9 -1 14l-10 66l18 2l10 -65v-4q12 -75 61 -75q23 0 38 15t15 45q0 10 -1 16l-9 74l18 2l9 -73q1 -6 1 -16q0 -38 -21 -59.5t-50 -21.5q-20 0 -37.5 11.5t-28.5 36.5q-9 -23 -29.5 -35.5t-41.5 -12.5q-40 0 -63 27
q4 -48 4 -134l-1 -114h-18l1 114v31q0 72 -7 132.5t-29 108.5l16 8q17 -37 27 -96zM477 635l22 -15l-347 -556l-22 15zM455 459q20 -46 30 -116q9 -30 31 -44.5t60 -20.5q-27 15 -41 37.5t-14 50.5q0 37 27 64.5t65 27.5q23 0 42 -8t53 -30l-8 -14q-31 20 -48.5 27t-38.5 7
q-32 0 -53 -21.5t-21 -52.5q0 -39 30.5 -65.5t91.5 -27.5h47v-18q-100 0 -147.5 7t-70.5 34q3 -42 3 -117l-1 -114h-18l1 114v31q0 71 -7 131.5t-29 108.5z" />
    <glyph glyph-name="multiply" unicode="&#xd7;" horiz-adv-x="514" 
d="M48 18l187 191l-174 178l19 19l174 -177l174 177l19 -19l-174 -178l188 -191l-19 -18l-188 190l-187 -190z" />
    <glyph glyph-name="divide" unicode="&#xf7;" horiz-adv-x="566" 
d="M523 335h-487v25h487v-25zM266 166q8 8 19 8t19.5 -8t8.5 -19t-8.5 -19t-19.5 -8t-19 8t-8 19t8 19zM266 546q8 8 19 8t19.5 -8t8.5 -19t-8.5 -19t-19.5 -8t-19 8t-8 19t8 19z" />
    <glyph glyph-name="uni060C" unicode="&#x60c;" horiz-adv-x="186" 
d="M59 90q9 20 46 84l24 -16q-33 -56 -39 -72h3q18 0 30.5 -12t12.5 -30q0 -19 -12.5 -31.5t-30.5 -12.5q-19 0 -31 12.5t-12 31.5q0 26 9 46z" />
    <glyph glyph-name="uni0615" unicode="&#x615;" 
d="M64 489.5q-17 5.5 -30 21t-39 56.5l22 16l15 -22q8 -14 16 -23l17 24v138h28v-97q15 19 30.5 28.5t36.5 9.5q33 0 52 -24t19 -57q0 -35 -21.5 -55.5t-53.5 -20.5h-40q-35 0 -52 5.5zM116 514h40q45 0 45 46q0 24 -10.5 37.5t-30.5 13.5q-17 0 -28 -9t-27 -32l-34 -51
q13 -5 45 -5z" />
    <glyph glyph-name="uni061B" unicode="&#x61b;" horiz-adv-x="187" 
d="M63 13.5q-13 12.5 -13 30.5t13 31t30 13q18 0 31 -13t13 -31t-13 -30.5t-31 -12.5q-17 0 -30 12.5zM59 318q9 20 46 84l24 -16q-33 -56 -39 -72h3q18 0 30.5 -12t12.5 -30q0 -19 -12.5 -31.5t-30.5 -12.5q-19 0 -31 12.5t-12 31.5q0 26 9 46z" />
    <glyph glyph-name="uni061F" unicode="&#x61f;" horiz-adv-x="435" 
d="M211 -0.5q-13 12.5 -13 30.5t13 31t30 13q18 0 31 -13t13 -31t-13 -30.5t-31 -12.5q-17 0 -30 12.5zM74.5 630.5q22.5 38.5 61 61.5t83.5 23q46 0 83.5 -25t59 -67.5t21.5 -91.5h-27q0 65 -38.5 108.5t-98.5 43.5q-39 0 -71 -18t-50.5 -49t-18.5 -68q0 -34 12.5 -59
t32 -43.5t56.5 -46.5l31 -25q29 -24 37 -54.5t8 -77.5v-70h-27v70q0 44 -6 67t-29 41q-20 16 -30 23q-38 30 -60 51.5t-37 52t-15 71.5q0 44 22.5 82.5z" />
    <glyph glyph-name="uni0640" unicode="&#x640;" horiz-adv-x="198" 
d="M-5 30h208l2 -16l-2 -14h-208v30z" />
    <glyph glyph-name="uni064B" unicode="&#x64b;" 
d="M5 493l205 69v-31l-205 -69v31zM5 565l205 69v-31l-205 -69v31z" />
    <glyph glyph-name="uni064C" unicode="&#x64c;" 
d="M-6 487l73 24q-24 19 -34 48q-4 12 -4 28q0 28 17.5 51t44.5 32q18 6 36 6q29 0 52 -15.5t32 -43.5q4 -12 4 -27q0 -28 -19 -50.5t-53 -33.5l-139 -47zM-45 587q0 39 21 70.5t63 46.5l12 -28q-33 -13 -50.5 -38t-17.5 -56t18 -66l-24 -9q-22 39 -22 80zM100 522l35 12
q24 8 37.5 22.5t13.5 32.5q0 9 -3 18q-7 19 -22 29.5t-34 10.5q-11 0 -26 -5q-20 -8 -31.5 -21.5t-11.5 -31.5q0 -9 3 -20q12 -33 39 -47z" />
    <glyph glyph-name="uni064D" unicode="&#x64d;" 
d="M5 -229l205 69v-31l-205 -69v31zM5 -157l205 69v-31l-205 -69v31z" />
    <glyph glyph-name="uni064E" unicode="&#x64e;" 
d="M-4 481l205 69v-31l-205 -69v31z" />
    <glyph glyph-name="uni064F" unicode="&#x64f;" 
d="M-6 487l73 24q-24 19 -34 48q-4 12 -4 28q0 28 17.5 51t44.5 32q18 6 36 6q29 0 52 -15.5t32 -43.5q4 -12 4 -27q0 -28 -19 -50.5t-53 -33.5l-139 -47zM100 522l35 12q24 8 37.5 22.5t13.5 32.5q0 9 -3 18q-7 19 -22 29.5t-34 10.5q-11 0 -26 -5q-20 -8 -31.5 -21.5
t-11.5 -31.5q0 -9 3 -20q12 -33 39 -47z" />
    <glyph glyph-name="uni0650" unicode="&#x650;" 
d="M-4 -279l205 69v-31l-205 -69v31z" />
    <glyph glyph-name="uni0651" unicode="&#x651;" 
d="M4 598v-50q0 -22 13.5 -32t28.5 -10q42 0 42 42v50h30v-50q0 -22 11 -32t29 -10q21 0 33 11.5t12 32.5q0 9 -2 19t-5 22.5t-5 20.5l30 7q6 -26 9 -42.5t3 -26.5q0 -30 -16.5 -52t-58.5 -22q-36 0 -55 24q-20 -24 -57 -24q-24 0 -48 16.5t-24 55.5v50h30z" />
    <glyph glyph-name="uni0652" unicode="&#x652;" 
d="M119.5 607.5q22.5 -25.5 22.5 -63.5q0 -33 -22 -56.5t-54 -23.5q-33 0 -54.5 23t-21.5 59q0 39 23.5 63t52.5 24q31 0 53.5 -25.5zM28.5 509q13.5 -14 35.5 -14q24 0 38.5 13t14.5 35q0 26 -14.5 42.5t-36.5 16.5q-19 0 -35 -15t-16 -41q0 -23 13.5 -37z" />
    <glyph glyph-name="uni0653" unicode="&#x653;" 
d="M179 477q-17 0 -31 5l-49 17q-12 4 -23 4q-26 0 -47 -29l-24 18q30 41 72 41q14 0 32 -6l49 -17q11 -4 23 -4q27 0 48 30l24 -18q-30 -41 -74 -41z" />
    <glyph glyph-name="uni0654" unicode="&#x654;" 
d="M37 501l78 23q-26 11 -42 33t-16 51q0 38 27.5 62t66.5 24q22 0 60 -9l-6 -27q-28 6 -50 6q-30 0 -49 -16t-19 -39q0 -33 28.5 -51.5t67.5 -13.5l62 18l2 -31l-208 -61z" />
    <glyph glyph-name="uni0655" unicode="&#x655;" 
d="M37 -256l78 23q-26 11 -42 33t-16 51q0 38 27.5 62t66.5 24q22 0 60 -9l-6 -27q-28 6 -50 6q-30 0 -49 -16t-19 -39q0 -33 28.5 -51.5t67.5 -13.5l62 18l2 -31l-208 -61z" />
    <glyph glyph-name="uni0656" unicode="&#x656;" 
d="M24 -286v189h30v-189h-30z" />
    <glyph glyph-name="uni0658" unicode="&#x658;" 
d="M34.5 657q-7.5 -25 -7.5 -49q0 -42 20 -67t60 -25h50q44 0 60.5 15t16.5 55v153h30v-153q0 -50 -26 -75t-81 -25h-50q-53 0 -81.5 35.5t-28.5 86.5q0 47 31 119l28 -12q-14 -33 -21.5 -58z" />
    <glyph glyph-name="uni065A" unicode="&#x65a;" 
d="M-2 602l26 16l68 -108l68 108l26 -16l-74 -117h-40z" />
    <glyph glyph-name="uni065B" unicode="&#x65b;" 
d="M112 647l74 -117l-26 -16l-68 108l-68 -108l-26 16l74 117h40z" />
    <glyph glyph-name="uni0660" unicode="&#x660;" horiz-adv-x="426" 
d="M146.5 84q-30.5 18 -48.5 49t-18 68t18 68t48.5 49t66.5 18t66.5 -18t48.5 -49t18 -68t-18 -68t-48.5 -49t-66.5 -18t-66.5 18zM137 127q30 -30 76 -30t75.5 30t29.5 74t-30 73.5t-75 29.5q-46 0 -76 -29.5t-30 -73.5t30 -74z" />
    <glyph glyph-name="uni0661" unicode="&#x661;" horiz-adv-x="190" 
d="M117 459q13 -110 13 -236v-33l-2 -190h-30l2 190v42q0 123 -12 226t-48 184l26 14q38 -87 51 -197z" />
    <glyph glyph-name="uni0662" unicode="&#x662;" horiz-adv-x="422" 
d="M111 497q12 -53 46 -76.5t80 -23.5q41 0 73 27.5t32 77.5q0 7 -2 23l-18 122l30 4l18 -122q2 -18 2 -26q0 -43 -20.5 -74t-52 -46.5t-62.5 -15.5q-76 0 -115 48q8 -81 8 -225l-2 -190h-30l2 190v42q0 123 -12 226t-48 184l26 14q31 -70 45 -159z" />
    <glyph glyph-name="uni0663" unicode="&#x663;" horiz-adv-x="616" 
d="M110 504q21 -107 119 -107q37 0 67.5 27.5t30.5 76.5q0 8 -2 24l-16 109l30 4l16 -109v-3q19 -129 101 -129q39 0 64.5 26t25.5 77q0 7 -2 25l-15 122l30 4l15 -122q2 -18 2 -27q0 -43 -17 -73.5t-44.5 -46t-58.5 -15.5q-33 0 -62 19.5t-47 61.5q-16 -38 -49.5 -59.5
t-68.5 -21.5q-67 0 -107 45q8 -79 8 -222l-2 -190h-30l2 190v42q0 123 -12 226t-48 184l26 14q28 -64 44 -152z" />
    <glyph glyph-name="uni0664" unicode="&#x664;" horiz-adv-x="529" 
d="M115 470q13 -53 51 -79.5t103 -36.5q-45 24 -69 63t-24 84q0 41 21 76.5t56 56.5t77 21q39 0 70.5 -13.5t88.5 -49.5l-14 -23q-51 33 -80 44.5t-65 11.5q-53 0 -88.5 -36t-35.5 -88q0 -64 51 -108t151 -47h81v-30q-114 0 -178.5 4t-111.5 18.5t-74 46.5q5 -70 5 -195
l-2 -190h-30l2 190v42q0 123 -12 226t-48 184l26 14q34 -76 49 -186z" />
    <glyph glyph-name="uni0665" unicode="&#x665;" horiz-adv-x="545" 
d="M297 136q0 -21 -7 -44q9 -31 33.5 -47.5t56.5 -16.5q45 0 75 30.5t30 93.5q0 84 -58 193.5t-173 220.5q-102 -114 -148 -216.5t-46 -188.5q0 -67 28.5 -99.5t72.5 -32.5t75.5 29t31.5 81q0 20 -4 37l27 6q6 -24 6 -46zM78.5 360.5q48.5 108.5 153.5 226.5q-45 40 -53 46
l20 24q105 -86 176 -178t105.5 -176t34.5 -151q0 -50 -19.5 -85t-50 -52t-65.5 -17t-63 15.5t-43 44.5q-18 -28 -48.5 -43.5t-63.5 -15.5q-35 0 -65 18t-48.5 54.5t-18.5 89.5q0 91 48.5 199.5z" />
    <glyph glyph-name="uni0666" unicode="&#x666;" horiz-adv-x="470" 
d="M320.5 336.5q-51.5 -52.5 -93 -109t-99.5 -143.5l-63 -94l-25 17l63 94q58 86 98 140t86 102q-36 -13 -72 -13q-37 0 -68.5 15t-54.5 42q-35 41 -35 99q0 34 14 65t40 53q30 25 63 35t99 19l5 -26q-61 -7 -90.5 -17.5t-57.5 -33.5q-21 -18 -32.5 -43t-11.5 -52
q0 -45 29 -80q42 -48 106 -48t138 52q29 24 57 41l14 -26q-58 -36 -109.5 -88.5z" />
    <glyph glyph-name="uni0667" unicode="&#x667;" horiz-adv-x="537" 
d="M173.5 290q-29.5 95 -58.5 166t-85 189l28 12q54 -114 83 -183.5t56 -157t72 -256.5q42 167 68.5 256t56 158t87.5 184l26 -14q-59 -119 -88.5 -190t-57.5 -166t-75 -287h-31q-52 194 -81.5 289z" />
    <glyph glyph-name="uni0668" unicode="&#x668;" horiz-adv-x="537" 
d="M363.5 364q29.5 -95 58.5 -166t85 -189l-28 -12q-54 114 -83 183.5t-56 157t-72 256.5q-42 -167 -68.5 -256t-56 -158t-87.5 -184l-26 14q59 119 88.5 190t57.5 166t75 287h31q52 -194 81.5 -289z" />
    <glyph glyph-name="uni0669" unicode="&#x669;" horiz-adv-x="370" 
d="M282.5 133q-3.5 53 -4.5 214h-109q-64 0 -101.5 33.5t-37.5 102.5q0 79 37.5 128t100.5 49q66 0 103 -47t37 -130q0 -189 1 -261.5t5 -111t16 -103.5l-30 -6q-14 79 -17.5 132zM87.5 401.5q27.5 -24.5 81.5 -24.5h109v106q0 147 -110 147q-50 0 -79 -39t-29 -108
q0 -57 27.5 -81.5z" />
    <glyph glyph-name="uni066A" unicode="&#x66a;" horiz-adv-x="435" 
d="M176 618v-80h-80v80h80zM330 653h32l-258 -687h-31zM268 72h80v-80h-80v80z" />
    <glyph glyph-name="uni066B" unicode="&#x66b;" horiz-adv-x="322" 
d="M42 -54l214 489h27l-214 -489h-27z" />
    <glyph glyph-name="uni066C" unicode="&#x66c;" horiz-adv-x="159" 
d="M96 108h32l-81 -238h-24z" />
    <glyph glyph-name="uni066D" unicode="&#x66d;" horiz-adv-x="616" 
d="M293 -49v262l-227 -131l-16 26l228 132l-228 131l16 26l227 -131v261h30v-261l227 131l16 -26l-228 -131l228 -132l-16 -26l-227 131v-262h-30z" />
    <glyph glyph-name="uni066E" unicode="&#x66e;" horiz-adv-x="792" 
d="M111.5 19.5q-31.5 19.5 -48 53t-13.5 72.5q2 27 32 157l30 -6l-5 -22q-24 -97 -27 -131q-4 -49 25 -81t79 -32h425q52 0 77.5 32.5t25.5 74.5q0 46 -32 187l30 6q32 -141 32 -193q0 -31 -14 -63t-44 -53t-75 -21h-425q-41 0 -72.5 19.5z" />
    <glyph glyph-name="uni066F" unicode="&#x66f;" horiz-adv-x="673" 
d="M110.5 166.5q-11.5 -29.5 -21 -72t-9.5 -90.5q0 -116 47 -171.5t158 -55.5h107q109 0 155 47t46 140v36h-134q-72 0 -117.5 40.5t-45.5 119.5q0 58 20.5 104.5t57.5 73t84 26.5q76 0 120.5 -55.5t44.5 -148.5v-196q0 -217 -231 -217h-107q-123 0 -179 65.5t-56 191.5
q0 72 17 127t49 128l28 -12q-22 -51 -33.5 -80.5zM361.5 61.5q35.5 -31.5 97.5 -31.5h134v130q0 83 -35 128.5t-100 45.5q-60 0 -96 -47.5t-36 -126.5q0 -67 35.5 -98.5z" />
    <glyph glyph-name="uni0670" unicode="&#x670;" 
d="M16 474v189h30v-189h-30z" />
    <glyph glyph-name="uni0688" unicode="&#x688;" horiz-adv-x="465" 
d="M387 209q28 -44 28 -90q0 -35 -17 -60q-40 -59 -140 -59h-54q-55 0 -94 16t-60 34l16 25q51 -45 138 -45h54q40 0 69 10.5t47 36.5q12 17 12 41q0 38 -25 75q-90 142 -152 235l26 16q62 -93 152 -235zM124 631l15 -22q8 -14 16 -23l17 24v138h28v-97q15 19 30.5 28.5
t36.5 9.5q33 0 52 -24t19 -57q0 -35 -21.5 -55.5t-53.5 -20.5h-40q-35 0 -52 5.5t-30 21t-39 56.5zM223 562h40q45 0 45 46q0 24 -10.5 37.5t-30.5 13.5q-17 0 -28 -9t-27 -32l-34 -51q13 -5 45 -5z" />
    <glyph glyph-name="uni0691" unicode="&#x691;" horiz-adv-x="373" 
d="M303 294v-298q0 -123 -61.5 -185.5t-178.5 -62.5h-63v30h63q106 0 158 53t52 165v298h30zM142 484l15 -22q8 -14 16 -23l17 24v138h28v-97q15 19 30.5 28.5t36.5 9.5q33 0 52 -24t19 -57q0 -35 -21.5 -55.5t-53.5 -20.5h-40q-35 0 -52 5.5t-30 21t-39 56.5zM241 415h40
q45 0 45 46q0 24 -10.5 37.5t-30.5 13.5q-17 0 -28 -9t-27 -32l-34 -51q13 -5 45 -5z" />
    <glyph glyph-name="uni0695" unicode="&#x695;" horiz-adv-x="373" 
d="M303 294v-298q0 -123 -61.5 -185.5t-178.5 -62.5h-63v30h63q106 0 158 53t52 165v298h30zM61 -332l68 -108l68 108l26 -16l-74 -117h-40l-74 117z" />
    <glyph glyph-name="uni06A1" unicode="&#x6a1;" horiz-adv-x="793" 
d="M111.5 19.5q-31.5 19.5 -48 53t-13.5 72.5q2 27 32 157l30 -6l-5 -22q-24 -97 -27 -131q-4 -49 25 -81t79 -32h338q70 0 110 13t58 41t22 75h-112q-62 0 -102.5 39t-40.5 101q0 42 19.5 78t52.5 57.5t71 21.5q41 0 74 -21.5t51 -57.5t18 -78v-102q0 -69 -19 -111.5
t-67 -64t-135 -21.5h-338q-41 0 -72.5 19.5zM518 218.5q31 -29.5 82 -29.5h113v8v102q0 56 -31 91.5t-82 35.5q-47 0 -80 -36.5t-33 -90.5q0 -51 31 -80.5z" />
    <glyph glyph-name="uni06B5" unicode="&#x6b5;" horiz-adv-x="615" 
d="M157.5 -215.5q-53.5 36.5 -80.5 96.5t-27 129q0 48 14.5 100t36.5 98l26 -14q-21 -42 -34 -90.5t-13 -93.5q0 -64 23 -116.5t70 -84t114 -31.5h48q106 0 153 45t47 141v685h30v-685q0 -107 -56 -161.5t-174 -54.5h-48q-76 0 -129.5 36.5zM481 833l68 -108l68 108l26 -16
l-74 -117h-40l-74 117z" />
    <glyph glyph-name="uni06BA" unicode="&#x6ba;" horiz-adv-x="674" 
d="M97.5 126.5q-17.5 -59.5 -17.5 -116.5q0 -64 23 -116.5t70 -84t114 -31.5h107q106 0 153 45t47 141v330h30v-330q0 -107 -56 -161.5t-174 -54.5h-107q-76 0 -129.5 36.5t-80.5 96.5t-27 129q0 61 18 124t50 133l28 -12q-31 -69 -48.5 -128.5z" />
    <glyph glyph-name="uni06C1" unicode="&#x6c1;" horiz-adv-x="447" 
d="M237 395q61 -66 92 -103.5t49.5 -74t18.5 -72.5q0 -42 -23.5 -77t-63.5 -55.5t-86 -20.5t-86.5 20.5t-64 55.5t-23.5 77q0 39 17.5 75.5t44 68.5t73.5 81l17 18l-20 22l-24 27l22 20zM121.5 57q41.5 -35 102.5 -35t102 35.5t41 87.5q0 30 -16 61t-44 64.5t-85 95.5
l-26 -28q-61 -66 -88.5 -106.5t-27.5 -86.5q0 -53 41.5 -88z" />
    <glyph glyph-name="uni06C2" unicode="&#x6c2;" horiz-adv-x="447" 
d="M237 395q61 -66 92 -103.5t49.5 -74t18.5 -72.5q0 -42 -23.5 -77t-63.5 -55.5t-86 -20.5t-86.5 20.5t-64 55.5t-23.5 77q0 39 17.5 75.5t44 68.5t73.5 81l17 18l-20 22l-24 27l22 20zM121.5 57q41.5 -35 102.5 -35t102 35.5t41 87.5q0 30 -16 61t-44 64.5t-85 95.5
l-26 -28q-61 -66 -88.5 -106.5t-27.5 -86.5q0 -53 41.5 -88zM158 544q-26 11 -42 33t-16 51q0 38 27.5 62t66.5 24q22 0 60 -9l-6 -27q-28 6 -50 6q-30 0 -49 -16t-19 -39q0 -33 28.5 -51.5t67.5 -13.5l62 18l2 -31l-208 -61l-2 31z" />
    <glyph glyph-name="uni06C3" unicode="&#x6c3;" horiz-adv-x="447" 
d="M237 395q61 -66 92 -103.5t49.5 -74t18.5 -72.5q0 -42 -23.5 -77t-63.5 -55.5t-86 -20.5t-86.5 20.5t-64 55.5t-23.5 77q0 39 17.5 75.5t44 68.5t73.5 81l17 18l-20 22l-24 27l22 20zM121.5 57q41.5 -35 102.5 -35t102 35.5t41 87.5q0 30 -16 61t-44 64.5t-85 95.5
l-26 -28q-61 -66 -88.5 -106.5t-27.5 -86.5q0 -53 41.5 -88zM113 588h67v-67h-67v67zM252 588h67v-67h-67v67z" />
    <glyph glyph-name="uni06C9" unicode="&#x6c9;" horiz-adv-x="427" 
d="M301 -176q46 47 46 140v36h-134q-72 0 -117.5 40.5t-45.5 119.5q0 58 20.5 104.5t57.5 73t84 26.5q76 0 120.5 -55.5t44.5 -148.5v-196q0 -217 -231 -217h-84v30h84q109 0 155 47zM115.5 61.5q35.5 -31.5 97.5 -31.5h134v130q0 83 -35 128.5t-100 45.5q-60 0 -96 -47.5
t-36 -126.5q0 -67 35.5 -98.5zM192 556h40l74 -117l-26 -16l-68 108l-68 -108l-26 16z" />
    <glyph glyph-name="uni06CE" unicode="&#x6ce;" horiz-adv-x="716" 
d="M80 16q0 -67 24.5 -121t72.5 -85.5t115 -31.5h112q68 0 106 15t58.5 49t33.5 97q4 20 4 25q0 11 -6.5 16.5t-24.5 10.5l-237 63q-9 39 -9 72q0 98 68 170q34 36 83.5 54.5t100.5 18.5q37 0 85 -11l-8 -30q-44 11 -77 11q-46 0 -89 -16t-73 -47q-60 -64 -60 -148
q0 -20 5 -50q49 -13 113 -30t106 -29q27 -8 39.5 -22t12.5 -38q0 -11 -3 -26q-15 -68 -39.5 -107.5t-69.5 -58.5t-119 -19h-112q-76 0 -130.5 36.5t-83 97.5t-28.5 134q0 105 66 248l28 -12q-64 -137 -64 -236zM160 453l68 -108l68 108l26 -16l-74 -117h-40l-74 117z" />
    <glyph glyph-name="uni06D4" unicode="&#x6d4;" horiz-adv-x="187" 
d="M62 12.5q-13 12.5 -13 30.5t13 31t31 13t30.5 -13t12.5 -31t-12.5 -30.5t-30.5 -12.5t-31 12.5z" />
    <glyph glyph-name="uni06D5" unicode="&#x6d5;" horiz-adv-x="447" 
d="M237 395q61 -66 92 -103.5t49.5 -74t18.5 -72.5q0 -42 -23.5 -77t-63.5 -55.5t-86 -20.5t-86.5 20.5t-64 55.5t-23.5 77q0 39 17.5 75.5t44 68.5t73.5 81l17 18l-20 22l-24 27l22 20zM121.5 57q41.5 -35 102.5 -35t102 35.5t41 87.5q0 30 -16 61t-44 64.5t-85 95.5
l-26 -28q-61 -66 -88.5 -106.5t-27.5 -86.5q0 -53 41.5 -88z" />
    <glyph glyph-name="uni06F0" unicode="&#x6f0;" horiz-adv-x="426" 
d="M146.5 84q-30.5 18 -48.5 49t-18 68t18 68t48.5 49t66.5 18t66.5 -18t48.5 -49t18 -68t-18 -68t-48.5 -49t-66.5 -18t-66.5 18zM137 127q30 -30 76 -30t75.5 30t29.5 74t-30 73.5t-75 29.5q-46 0 -76 -29.5t-30 -73.5t30 -74z" />
    <glyph glyph-name="uni06F1" unicode="&#x6f1;" horiz-adv-x="190" 
d="M117 459q13 -110 13 -236v-33l-2 -190h-30l2 190v42q0 123 -12 226t-48 184l26 14q38 -87 51 -197z" />
    <glyph glyph-name="uni06F2" unicode="&#x6f2;" horiz-adv-x="422" 
d="M111 497q12 -53 46 -76.5t80 -23.5q41 0 73 27.5t32 77.5q0 7 -2 23l-18 122l30 4l18 -122q2 -18 2 -26q0 -43 -20.5 -74t-52 -46.5t-62.5 -15.5q-76 0 -115 48q8 -81 8 -225l-2 -190h-30l2 190v42q0 123 -12 226t-48 184l26 14q31 -70 45 -159z" />
    <glyph glyph-name="uni06F3" unicode="&#x6f3;" horiz-adv-x="616" 
d="M110 504q21 -107 119 -107q37 0 67.5 27.5t30.5 76.5q0 8 -2 24l-16 109l30 4l16 -109v-3q19 -129 101 -129q39 0 64.5 26t25.5 77q0 7 -2 25l-15 122l30 4l15 -122q2 -18 2 -27q0 -43 -17 -73.5t-44.5 -46t-58.5 -15.5q-33 0 -62 19.5t-47 61.5q-16 -38 -49.5 -59.5
t-68.5 -21.5q-67 0 -107 45q8 -79 8 -222l-2 -190h-30l2 190v42q0 123 -12 226t-48 184l26 14q28 -64 44 -152z" />
    <glyph glyph-name="uni06F4" unicode="&#x6f4;" horiz-adv-x="529" 
d="M115 470q13 -53 51 -79.5t103 -36.5q-45 24 -69 63t-24 84q0 41 21 76.5t56 56.5t77 21q39 0 70.5 -13.5t88.5 -49.5l-14 -23q-51 33 -80 44.5t-65 11.5q-53 0 -88.5 -36t-35.5 -88q0 -64 51 -108t151 -47h81v-30q-114 0 -178.5 4t-111.5 18.5t-74 46.5q5 -70 5 -195
l-2 -190h-30l2 190v42q0 123 -12 226t-48 184l26 14q34 -76 49 -186z" />
    <glyph glyph-name="uni06F5" unicode="&#x6f5;" horiz-adv-x="545" 
d="M297 136q0 -21 -7 -44q9 -31 33.5 -47.5t56.5 -16.5q45 0 75 30.5t30 93.5q0 84 -58 193.5t-173 220.5q-102 -114 -148 -216.5t-46 -188.5q0 -67 28.5 -99.5t72.5 -32.5t75.5 29t31.5 81q0 20 -4 37l27 6q6 -24 6 -46zM78.5 360.5q48.5 108.5 153.5 226.5q-45 40 -53 46
l20 24q105 -86 176 -178t105.5 -176t34.5 -151q0 -50 -19.5 -85t-50 -52t-65.5 -17t-63 15.5t-43 44.5q-18 -28 -48.5 -43.5t-63.5 -15.5q-35 0 -65 18t-48.5 54.5t-18.5 89.5q0 91 48.5 199.5z" />
    <glyph glyph-name="uni06F6" unicode="&#x6f6;" horiz-adv-x="470" 
d="M320.5 336.5q-51.5 -52.5 -93 -109t-99.5 -143.5l-63 -94l-25 17l63 94q58 86 98 140t86 102q-36 -13 -72 -13q-37 0 -68.5 15t-54.5 42q-35 41 -35 99q0 34 14 65t40 53q30 25 63 35t99 19l5 -26q-61 -7 -90.5 -17.5t-57.5 -33.5q-21 -18 -32.5 -43t-11.5 -52
q0 -45 29 -80q42 -48 106 -48t138 52q29 24 57 41l14 -26q-58 -36 -109.5 -88.5z" />
    <glyph glyph-name="uni06F7" unicode="&#x6f7;" horiz-adv-x="537" 
d="M173.5 290q-29.5 95 -58.5 166t-85 189l28 12q54 -114 83 -183.5t56 -157t72 -256.5q42 167 68.5 256t56 158t87.5 184l26 -14q-59 -119 -88.5 -190t-57.5 -166t-75 -287h-31q-52 194 -81.5 289z" />
    <glyph glyph-name="uni06F8" unicode="&#x6f8;" horiz-adv-x="537" 
d="M363.5 364q29.5 -95 58.5 -166t85 -189l-28 -12q-54 114 -83 183.5t-56 157t-72 256.5q-42 -167 -68.5 -256t-56 -158t-87.5 -184l-26 14q59 119 88.5 190t57.5 166t75 287h31q52 -194 81.5 -289z" />
    <glyph glyph-name="uni06F9" unicode="&#x6f9;" horiz-adv-x="370" 
d="M282.5 133q-3.5 53 -4.5 214h-109q-64 0 -101.5 33.5t-37.5 102.5q0 79 37.5 128t100.5 49q66 0 103 -47t37 -130q0 -189 1 -261.5t5 -111t16 -103.5l-30 -6q-14 79 -17.5 132zM87.5 401.5q27.5 -24.5 81.5 -24.5h109v106q0 147 -110 147q-50 0 -79 -39t-29 -108
q0 -57 27.5 -81.5z" />
    <glyph glyph-name="uni2009" unicode="&#x2009;" horiz-adv-x="128" 
 />
    <glyph glyph-name="uni200A" unicode="&#x200a;" horiz-adv-x="64" 
 />
    <glyph glyph-name="uni200B" unicode="&#x200b;" 
 />
    <glyph glyph-name="uni200C" unicode="&#x200c;" 
 />
    <glyph glyph-name="uni200D" unicode="&#x200d;" 
 />
    <glyph glyph-name="uni200E" unicode="&#x200e;" 
 />
    <glyph glyph-name="uni200F" unicode="&#x200f;" 
 />
    <glyph glyph-name="quoteleft" unicode="&#x2018;" horiz-adv-x="142" 
d="M57 524v-98h-32v86q0 90 62 158l22 -20q-52 -67 -52 -126z" />
    <glyph glyph-name="quoteright" unicode="&#x2019;" horiz-adv-x="142" 
d="M85 573v99h32v-87q0 -90 -62 -157l-22 19q52 69 52 126z" />
    <glyph glyph-name="quotedblleft" unicode="&#x201c;" horiz-adv-x="262" 
d="M177 533v-99h-32v87q0 90 62 157l22 -19q-52 -67 -52 -126zM33 521q0 90 62 157l22 -19q-52 -69 -52 -126v-99h-32v87z" />
    <glyph glyph-name="quotedblright" unicode="&#x201d;" horiz-adv-x="274" 
d="M85 535v98h32v-86q0 -90 -62 -157l-22 19q52 69 52 126zM196 535v98h33v-86q0 -89 -63 -157l-21 19q51 67 51 126z" />
    <glyph glyph-name="quotedblbase" unicode="&#x201e;" horiz-adv-x="286" 
d="M97 -5v99h32v-87q0 -90 -62 -157l-22 19q52 69 52 126zM208 -5v99h33v-87q0 -89 -63 -157l-21 19q51 67 51 126z" />
    <glyph glyph-name="bullet" unicode="&#x2022;" horiz-adv-x="363" 
d="M121 25q-25 25 -25 60q0 36 25 61t60 25q36 0 61 -25t25 -61q0 -35 -25 -60t-61 -25q-35 0 -60 25z" />
    <glyph glyph-name="ellipsis" unicode="&#x2026;" horiz-adv-x="723" 
d="M103.5 12.5q-12.5 12.5 -12.5 30.5t12.5 31t30.5 13t30.5 -13t12.5 -31t-12.5 -30.5t-30.5 -12.5t-30.5 12.5zM327.5 74q12.5 13 30.5 13t31 -13t13 -31t-13 -30.5t-31 -12.5t-30.5 12.5t-12.5 30.5t12.5 31zM553.5 74q12.5 13 30.5 13t30.5 -13t12.5 -31t-12.5 -30.5
t-30.5 -12.5t-30.5 12.5t-12.5 30.5t12.5 31z" />
    <glyph glyph-name="minute" unicode="&#x2032;" horiz-adv-x="166" 
d="M108 667l-7 -119h-25l5 119v83h27v-83z" />
    <glyph glyph-name="second" unicode="&#x2033;" horiz-adv-x="270" 
d="M220 667l-7 -119h-25l5 119v83h27v-83zM105 667v83h27v-83l-7 -119h-25z" />
    <glyph glyph-name="guilsinglleft" unicode="&#x2039;" horiz-adv-x="195" 
d="M96 104q20 -53 49 -88l-20 -19q-31 38 -53 96.5t-22 125.5q0 68 22 126.5t53 96.5l20 -20q-29 -35 -49 -88t-20 -115t20 -115z" />
    <glyph glyph-name="guilsinglright" unicode="&#x203a;" horiz-adv-x="195" 
d="M99 334q-20 53 -49 88l20 20q31 -38 53 -96.5t22 -126.5q0 -67 -22 -125.5t-53 -96.5l-20 19q29 35 49 88t20 115t-20 115z" />
    <glyph glyph-name="fraction" unicode="&#x2044;" horiz-adv-x="442" 
d="M54 64l-22 15l347 556l22 -15z" />
    <glyph glyph-name="uni2070" unicode="&#x2070;" horiz-adv-x="256" 
d="M71.5 389.5q-23.5 23.5 -23.5 57.5t23.5 57.5t56.5 23.5t56.5 -23.5t23.5 -57.5t-23.5 -57.5t-56.5 -23.5t-56.5 23.5zM82 402q18 -18 46 -18q27 0 45 18t18 45q0 26 -18 43.5t-45 17.5q-28 0 -46 -17.5t-18 -43.5q0 -27 18 -45z" />
    <glyph glyph-name="uni2074" unicode="&#x2074;" horiz-adv-x="317" 
d="M70 563q9 -30 31 -44.5t60 -20.5q-27 15 -41 37.5t-14 50.5q0 37 27 64.5t65 27.5q23 0 42 -8t53 -30l-8 -14q-31 20 -48.5 27t-38.5 7q-32 0 -53 -21.5t-21 -52.5q0 -39 30.5 -65.5t91.5 -27.5h47v-18q-100 0 -147.5 7t-70.5 34q3 -42 3 -117l-1 -114h-18l1 114v31
q0 71 -7 131.5t-29 108.5l16 9q20 -46 30 -116z" />
    <glyph glyph-name="uni2075" unicode="&#x2075;" horiz-adv-x="327" 
d="M178 367q0 -16 -4 -27q5 -18 19.5 -28t33.5 -10q27 0 45.5 18t18.5 56q0 51 -35 116.5t-104 132.5q-116 -131 -116 -245q0 -39 17 -58.5t42 -19.5q27 0 46.5 17.5t19.5 48.5q0 11 -3 23l17 3q3 -13 3 -27zM47 500.5q29 65.5 92 136.5l-32 28l12 14q93 -77 141.5 -158.5
t48.5 -143.5q0 -46 -24 -69.5t-58 -23.5q-21 0 -37 9t-25 26q-12 -17 -30.5 -26t-39.5 -9q-32 0 -54.5 25t-22.5 71q0 55 29 120.5z" />
    <glyph glyph-name="uni2076" unicode="&#x2076;" horiz-adv-x="282" 
d="M168 460q-40 -48 -91 -125l-38 -56l-15 10l38 57q33 49 58 82.5t52 62.5q-20 -8 -43 -8q-43 0 -74 34q-21 26 -21 59q0 20 8.5 39t24.5 32q18 15 37.5 21t59.5 12l3 -16q-37 -5 -55 -11t-34 -19q-26 -22 -26 -57q0 -28 17 -48q24 -29 63 -29q47 0 96 41l22 15l8 -16
q-50 -32 -90 -80z" />
    <glyph glyph-name="uni2077" unicode="&#x2077;" horiz-adv-x="322" 
d="M87.5 509.5q-21.5 61.5 -69.5 162.5l17 7q46 -98 67 -156.5t59 -201.5q36 143 57.5 202.5t70.5 156.5l15 -9q-36 -72 -53.5 -114t-34 -99t-44.5 -172h-19q-44 162 -65.5 223.5z" />
    <glyph glyph-name="uni2078" unicode="&#x2078;" horiz-adv-x="322" 
d="M234.5 452q21.5 -62 69.5 -162l-17 -7q-46 97 -67 156t-59 203q-36 -143 -57 -202t-70 -157l-16 8q36 72 53.5 114t34 99.5t45.5 172.5h18q44 -163 65.5 -225z" />
    <glyph glyph-name="uni2079" unicode="&#x2079;" horiz-adv-x="222" 
d="M169 365q-2 32 -2 128h-66q-38 0 -60.5 20t-22.5 62q0 48 22.5 77t60.5 29q40 0 62 -28t22 -78q0 -159 1.5 -196.5t11.5 -89.5l-18 -3q-9 47 -11 79zM52.5 526q16.5 -15 48.5 -15h66v64q0 88 -66 88q-30 0 -47.5 -23t-17.5 -65q0 -34 16.5 -49z" />
    <glyph glyph-name="uni2080" unicode="&#x2080;" horiz-adv-x="256" 
d="M71.5 104.5q-23.5 23.5 -23.5 57.5t23.5 57.5t56.5 23.5t56.5 -23.5t23.5 -57.5t-23.5 -57.5t-56.5 -23.5t-56.5 23.5zM82 117q18 -18 46 -18q27 0 45 18t18 45q0 26 -18 43.5t-45 17.5q-28 0 -46 -17.5t-18 -43.5q0 -27 18 -45z" />
    <glyph glyph-name="uni2081" unicode="&#x2081;" horiz-adv-x="114" 
d="M72 266.5q7 -71.5 6 -152.5l-1 -114h-18l1 114v31q0 71 -7 131.5t-29 108.5l16 9q25 -56 32 -127.5z" />
    <glyph glyph-name="uni2082" unicode="&#x2082;" horiz-adv-x="253" 
d="M68 295q8 -30 28 -43.5t46 -13.5q25 0 44 16.5t19 46.5q0 9 -1 14l-11 73l18 3l11 -74q1 -6 1 -16q0 -37 -25.5 -59t-55.5 -22q-46 0 -68 29q4 -49 4 -135l-1 -114h-18l1 114v31q0 71 -7 131.5t-29 108.5l16 9q18 -42 28 -99z" />
    <glyph glyph-name="uni2083" unicode="&#x2083;" horiz-adv-x="370" 
d="M67 296q16 -58 70 -58q23 0 41 16.5t18 46.5q0 9 -1 14l-10 65l18 3l10 -66q0 -3 1 -4q10 -75 60 -75q23 0 38 15.5t15 45.5q0 10 -1 16l-9 73l18 3l9 -74q1 -6 1 -16q0 -38 -21 -59.5t-50 -21.5q-20 0 -37.5 12t-28.5 37q-9 -23 -29.5 -36t-41.5 -13q-40 0 -63 27
q4 -48 4 -133l-1 -114h-18l1 114v31q0 71 -7 131.5t-29 108.5l16 9q19 -44 27 -98z" />
    <glyph glyph-name="uni2084" unicode="&#x2084;" horiz-adv-x="317" 
d="M70 278q9 -30 31 -44.5t60 -20.5q-27 15 -41 37.5t-14 50.5q0 37 27 64.5t65 27.5q23 0 42 -8t53 -30l-8 -14q-31 20 -48.5 27t-38.5 7q-32 0 -53 -21.5t-21 -52.5q0 -39 30.5 -65.5t91.5 -27.5h47v-18q-100 0 -147.5 7t-70.5 34q3 -42 3 -117l-1 -114h-18l1 114v31
q0 71 -7 131.5t-29 108.5l16 9q20 -46 30 -116z" />
    <glyph glyph-name="uni2085" unicode="&#x2085;" horiz-adv-x="327" 
d="M178 82q0 -16 -4 -27q5 -18 19.5 -28t33.5 -10q27 0 45.5 18t18.5 56q0 51 -35 116.5t-104 132.5q-116 -131 -116 -245q0 -39 17 -58.5t42 -19.5q27 0 46.5 17.5t19.5 48.5q0 11 -3 23l17 3q3 -13 3 -27zM47 215.5q29 65.5 92 136.5l-32 28l12 14q93 -77 141.5 -158.5
t48.5 -143.5q0 -46 -24 -69.5t-58 -23.5q-21 0 -37 9t-25 26q-12 -17 -30.5 -26t-39.5 -9q-32 0 -54.5 25t-22.5 71q0 55 29 120.5z" />
    <glyph glyph-name="uni2086" unicode="&#x2086;" horiz-adv-x="282" 
d="M168 175q-40 -48 -91 -125l-38 -56l-15 10l38 57q33 49 58 82.5t52 62.5q-20 -8 -43 -8q-43 0 -74 34q-21 26 -21 59q0 20 8.5 39t24.5 32q18 15 37.5 21t59.5 12l3 -16q-37 -5 -55 -11t-34 -19q-26 -22 -26 -57q0 -28 17 -48q24 -29 63 -29q47 0 96 41l22 15l8 -16
q-50 -32 -90 -80z" />
    <glyph glyph-name="uni2087" unicode="&#x2087;" horiz-adv-x="322" 
d="M87.5 224.5q-21.5 61.5 -69.5 162.5l17 7q46 -98 67 -156.5t59 -201.5q36 143 57.5 202.5t70.5 156.5l15 -9q-36 -72 -53.5 -114t-34 -99t-44.5 -172h-19q-44 162 -65.5 223.5z" />
    <glyph glyph-name="uni2088" unicode="&#x2088;" horiz-adv-x="322" 
d="M234.5 167q21.5 -62 69.5 -162l-17 -7q-46 97 -67 156t-59 203q-36 -143 -57 -202t-70 -157l-16 8q36 72 53.5 114t34 99.5t45.5 172.5h18q44 -163 65.5 -225z" />
    <glyph glyph-name="uni2089" unicode="&#x2089;" horiz-adv-x="222" 
d="M169 80q-2 32 -2 128h-66q-38 0 -60.5 20t-22.5 62q0 48 22.5 77t60.5 29q40 0 62 -28t22 -78q0 -159 1.5 -196.5t11.5 -89.5l-18 -3q-9 47 -11 79zM52.5 241q16.5 -15 48.5 -15h66v64q0 88 -66 88q-30 0 -47.5 -23t-17.5 -65q0 -34 16.5 -49z" />
    <glyph glyph-name="trademark" unicode="&#x2122;" horiz-adv-x="609" 
d="M502 662l-80 -213h-26l-80 220v-220h-26v262h33l86 -224l86 224h34v-262h-27v213zM54 711h194v-28h-83v-234h-28v234h-83v28z" />
    <glyph glyph-name="partialdiff" unicode="&#x2202;" horiz-adv-x="572" 
d="M146 34q-52 44 -73 101t-21 99v21q0 39 18.5 95.5t70.5 102.5t143 46q67 0 121.5 -29.5t91.5 -86.5q-7 164 -64 251t-159 87q-45 0 -78 -13.5t-67 -46.5l-14 20q62 66 162 66q117 0 182 -102.5t65 -292.5v-44q0 -95 -30.5 -167t-85.5 -111.5t-125 -39.5q-85 0 -137 44z
M95.5 149.5q16.5 -50.5 62 -92t125.5 -41.5q63 0 112 37.5t76 105.5t27 155v18q-12 35 -40.5 67t-73 53t-100.5 21q-59 0 -106 -28t-73 -79t-26 -116v-16q0 -34 16.5 -84.5z" />
    <glyph glyph-name="product" unicode="&#x220f;" horiz-adv-x="620" 
d="M532 -133h-27v818h-391v-818h-26v844h444v-844z" />
    <glyph glyph-name="summation" unicode="&#x2211;" horiz-adv-x="569" 
d="M350 283l-285 -388h503v-27h-540v21l291 400l-291 400v22h512v-26h-476l286 -390v-12z" />
    <glyph glyph-name="minus" unicode="&#x2212;" horiz-adv-x="570" 
d="M487 352h-407v26h407v-26z" />
    <glyph glyph-name="uni2215" unicode="&#x2215;" horiz-adv-x="600" 
d="M416 751l24 -10l-256 -797l-24 10z" />
    <glyph glyph-name="radical" unicode="&#x221a;" horiz-adv-x="496" 
d="M221 39l209 672h28l-224 -711h-26l-116 318h-60v26h79z" />
    <glyph glyph-name="infinity" unicode="&#x221e;" horiz-adv-x="1085" 
d="M176 23.5q-51 33.5 -79.5 94t-28.5 137.5q1 87 30 151t79.5 98t112.5 34q80 0 145 -61t104 -173q39 112 104 173t146 61q64 0 114 -34t78 -97.5t28 -150.5q0 -78 -29 -138.5t-79.5 -94t-112.5 -33.5q-81 0 -145.5 60.5t-103.5 173.5q-42 -116 -105 -175t-143 -59
q-64 0 -115 33.5zM118.5 136.5q23.5 -54.5 68 -87.5t104.5 -33q74 0 135 63.5t96 174.5v20q-35 111 -96 174.5t-136 63.5q-57 0 -101.5 -32t-69 -90.5t-24.5 -134.5q0 -64 23.5 -118.5zM652 78.5q61 -62.5 136 -62.5q57 0 101.5 31t69 86t24.5 123q0 78 -25.5 136t-69.5 89
t-99 31q-77 0 -138 -63t-95 -175v-20q35 -113 96 -175.5z" />
    <glyph glyph-name="integral" unicode="&#x222b;" horiz-adv-x="251" 
d="M80 -169.5q-36 -43.5 -103 -43.5q-27 0 -55 9l7 26q22 -9 48 -9q55 0 84 37t29 107v647q0 75 36 115.5t102 40.5q35 0 62 -8l-4 -25q-24 7 -58 7q-52 0 -82 -34t-30 -96v-647q0 -83 -36 -126.5z" />
    <glyph glyph-name="approxequal" unicode="&#x2248;" horiz-adv-x="563" 
d="M173 480q30 0 55 -9t63 -28q31 -17 53.5 -25.5t47.5 -8.5q64 0 113 73l4 -32q-49 -72 -115 -72q-24 0 -46 8.5t-57 25.5q-35 18 -61.5 28t-55.5 10q-66 0 -116 -74l-4 33q50 71 119 71zM168 290q30 0 56.5 -10t61.5 -28q36 -18 57 -26t44 -8q63 0 113 74l3 -32
q-50 -71 -115 -71q-28 0 -55.5 10t-64.5 28q-34 17 -56 25t-43 8q-66 0 -117 -73l-3 31q50 72 119 72z" />
    <glyph glyph-name="notequal" unicode="&#x2260;" horiz-adv-x="558" 
d="M479 213h-258l-78 -139l-23 12l71 127h-119v26h135l97 173h-232v26h247l78 138l23 -12l-71 -126h130v-26h-146l-97 -173h243v-26z" />
    <glyph glyph-name="lessequal" unicode="&#x2264;" horiz-adv-x="514" 
d="M76 370l373 -168v-29l-409 185v24l409 186v-28zM38 26h407v-26h-407v26z" />
    <glyph glyph-name="greaterequal" unicode="&#x2265;" horiz-adv-x="514" 
d="M426 372l-370 170v28l408 -185v-25l-408 -185v29zM52 27h407v-26h-407v26z" />
    <glyph glyph-name="uniFBB2" unicode="&#xfbb2;" 
d="M95 346v-67h-67v67h67z" />
    <glyph glyph-name="uniFBB3" unicode="&#xfbb3;" 
d="M95 -76v-67h-67v67h67z" />
    <glyph glyph-name="uniFBB4" unicode="&#xfbb4;" 
d="M86 347v-67h-67v67h67zM158 347h67v-67h-67v67z" />
    <glyph glyph-name="uniFBB5" unicode="&#xfbb5;" 
d="M85 -79v-67h-67v67h67zM157 -79h67v-67h-67v67z" />
    <glyph glyph-name="uniFBB6" unicode="&#xfbb6;" 
d="M169 359v-67h-67v67h67zM22 258h67v-67h-67v67zM181 258h67v-67h-67v67z" />
    <glyph glyph-name="uniFBB9" unicode="&#xfbb9;" 
d="M100 -178h67v-67h-67v67zM20 -77h67v-67h-67v67zM179 -77h67v-67h-67v67z" />
    <glyph glyph-name="uniFD3E" unicode="&#xfd3e;" horiz-adv-x="337" 
d="M126 509.5q-60 -105.5 -60 -263.5q0 -149 61.5 -260t144.5 -184l-18 -25q-87 75 -153 193t-66 276q0 280 219 469l18 -25q-86 -75 -146 -180.5z" />
    <glyph glyph-name="uniFD3F" unicode="&#xfd3f;" horiz-adv-x="337" 
d="M302 246q0 -158 -66 -276t-153 -193l-18 25q83 73 144.5 184t61.5 260q0 158 -60 263.5t-146 180.5l18 25q219 -189 219 -469z" />
    <glyph glyph-name="uniFEFF" unicode="&#xfeff;" 
 />
    <glyph glyph-name="uni0627.001" horiz-adv-x="210" 
d="M90 559h30v-559h-30v559z" />
    <glyph glyph-name="uni0627.002" horiz-adv-x="190" 
d="M90 649h30v-649h-30v649z" />
    <glyph glyph-name="uni0627.fina.001" horiz-adv-x="247" 
d="M127.5 36.5q-37.5 36.5 -37.5 115.5v407h30v-407q0 -67 28 -94.5t93 -27.5h11l3 -15l-3 -15h-11q-76 0 -113.5 36.5z" />
    <glyph glyph-name="uni066E.medi.001" horiz-adv-x="408" 
d="M256 294v-163q0 -56 35 -78.5t72 -22.5h50l3 -15l-3 -15h-50q-30 0 -66.5 15t-55.5 51q-19 -33 -56.5 -49.5t-87.5 -16.5h-102v30h102q129 0 129 101v163h30z" />
    <glyph glyph-name="uni066E.init.001" horiz-adv-x="325" 
d="M-5 30h135q64 0 89.5 31t25.5 76q0 46 -32 187l30 6q32 -141 32 -193q0 -54 -33.5 -95.5t-111.5 -41.5h-135v30z" />
    <glyph glyph-name="uni0628.medi.alt" horiz-adv-x="359" 
d="M233 294v-163q0 -56 35 -78.5t72 -22.5h24l3 -15l-3 -15h-24q-30 0 -66.5 15t-55.5 51q-19 -33 -56.5 -49.5t-87.5 -16.5h-79v30h79q129 0 129 101v163h30zM73 -126h67v-67h-67v67z" />
    <glyph glyph-name="uni0628.init.alt" horiz-adv-x="298" 
d="M-5 30h104q64 0 89.5 31t25.5 76q0 46 -32 187l30 6q32 -141 32 -193q0 -54 -33.5 -95.5t-111.5 -41.5h-104v30zM87 -126h67v-67h-67v67z" />
    <glyph glyph-name="uni067E.medi.alt" horiz-adv-x="408" 
d="M256 294v-163q0 -56 35 -78.5t72 -22.5h50l3 -15l-3 -15h-50q-30 0 -66.5 15t-55.5 51q-19 -33 -56.5 -49.5t-87.5 -16.5h-102v30h102q129 0 129 101v163h30zM22 -110h67v-67h-67v67zM102 -211h67v-67h-67v67zM181 -110h67v-67h-67v67z" />
    <glyph glyph-name="uni067E.init.alt" horiz-adv-x="325" 
d="M-5 30h135q64 0 89.5 31t25.5 76q0 46 -32 187l30 6q32 -141 32 -193q0 -54 -33.5 -95.5t-111.5 -41.5h-135v30zM24 -109h67v-67h-67v67zM104 -210h67v-67h-67v67zM183 -109h67v-67h-67v67z" />
    <glyph glyph-name="uni062A.medi.alt" horiz-adv-x="454" 
d="M302 294v-163q0 -56 35 -78.5t72 -22.5h50l3 -15l-3 -15h-50q-30 0 -66.5 15t-55.5 51q-19 -33 -56.5 -49.5t-87.5 -16.5h-148v30h148q129 0 129 101v163h30zM96 462h67v-67h-67v67zM235 462h67v-67h-67v67z" />
    <glyph glyph-name="uni062A.init.alt" horiz-adv-x="371" 
d="M-5 30h181q64 0 89.5 31t25.5 76q0 46 -32 187l30 6q32 -141 32 -193q0 -54 -33.5 -95.5t-111.5 -41.5h-181v30zM98 526h67v-67h-67v67zM237 526h67v-67h-67v67z" />
    <glyph glyph-name="uni062B.medi.alt" horiz-adv-x="451" 
d="M296 294v-163q0 -56 35 -78.5t72 -22.5h50l3 -15l-3 -15h-50q-30 0 -66.5 15t-55.5 51q-19 -33 -56.5 -49.5t-87.5 -16.5h-142v30h142q129 0 129 101v163h30zM106 461h67v-67h-67v67zM186 562h67v-67h-67v67zM265 461h67v-67h-67v67z" />
    <glyph glyph-name="uni062B.init.alt" horiz-adv-x="360" 
d="M-4 30h161q64 0 89.5 31t25.5 76q0 46 -32 187l30 6q32 -141 32 -193q0 -54 -33.5 -95.5t-111.5 -41.5h-161v30zM84 527h67v-67h-67v67zM164 628h67v-67h-67v67zM243 527h67v-67h-67v67z" />
    <glyph glyph-name="uni062D.fina.001" horiz-adv-x="641" 
d="M548 -252h-261q-83 0 -140 36.5t-82 103.5q-15 37 -15 76q0 68 42.5 126.5t117.5 87.5l343 136q-136 55 -220.5 87t-109.5 32q-34 0 -57 -20t-37 -71l-28 8q31 113 122 113q28 0 103.5 -28t209.5 -83l51 -21l4 -33l-369 -148q-68 -27 -105 -76.5t-37 -107.5q0 -35 13 -68
q45 -120 194 -120h261v-30z" />
    <glyph glyph-name="uni0631.003" horiz-adv-x="337" 
d="M257.5 36q-25.5 36 -44.5 108l22 12q16 -68 39 -96t64 -29h5v-31h-5q-55 0 -80.5 36z" />
    <glyph glyph-name="uni0643.init.alt" horiz-adv-x="834" 
d="M111.5 19.5q-31.5 19.5 -48 53t-13.5 72.5q2 27 32 157l30 -6l-5 -22q-24 -97 -27 -131q-4 -49 25 -81t79 -32h382q69 0 109.5 36t40.5 87q0 28 -12.5 55t-36.5 51l-240 234l9 37l381 167l12 -28l-373 -163l231 -225q28 -28 42.5 -60.5t14.5 -65.5q0 -41 -21.5 -76.5
t-62 -57t-94.5 -21.5h-382q-41 0 -72.5 19.5z" />
    <glyph glyph-name="uni0644.001" horiz-adv-x="615" 
d="M157.5 -215.5q-53.5 36.5 -80.5 96.5t-27 129q0 48 14.5 100t36.5 98l26 -14q-21 -42 -34 -90.5t-13 -93.5q0 -64 23 -116.5t70 -84t114 -31.5h48q106 0 153 45t47 141v685h30v-685q0 -107 -56 -161.5t-174 -54.5h-48q-76 0 -129.5 36.5z" />
    <glyph glyph-name="uni0649.fina.001" horiz-adv-x="633" 
d="M80 16q0 -67 24.5 -121t72.5 -85.5t115 -31.5h112q65 0 101.5 13t53 36t23.5 61q2 8 2 23q0 36 -24 55q-28 23 -76.5 28.5t-132.5 5.5v30h287l2 -16l-2 -14h-77q25 -7 39.5 -32.5t14.5 -57.5q0 -15 -3 -28q-13 -65 -58.5 -99.5t-149.5 -34.5h-112q-76 0 -130.5 36.5
t-83 97.5t-28.5 134q0 105 66 248l28 -12q-64 -137 -64 -236z" />
    <glyph glyph-name="uni064A.fina.001" horiz-adv-x="633" 
d="M80 16q0 -67 24.5 -121t72.5 -85.5t115 -31.5h112q65 0 101.5 13t53 36t23.5 61q2 8 2 23q0 36 -24 55q-28 23 -76.5 28.5t-132.5 5.5v30h287l2 -16l-2 -14h-77q25 -7 39.5 -32.5t14.5 -57.5q0 -15 -3 -28q-13 -65 -58.5 -99.5t-149.5 -34.5h-112q-76 0 -130.5 36.5
t-83 97.5t-28.5 134q0 105 66 248l28 -12q-64 -137 -64 -236z" />
    <glyph glyph-name="uni064A.medi.alt" horiz-adv-x="408" 
d="M256 294v-163q0 -56 35 -78.5t72 -22.5h50l3 -15l-3 -15h-50q-30 0 -66.5 15t-55.5 51q-19 -33 -56.5 -49.5t-87.5 -16.5h-102v30h102q129 0 129 101v163h30zM21 -127h67v-67h-67v67zM160 -127h67v-67h-67v67z" />
    <glyph glyph-name="uni064A.init.alt" horiz-adv-x="327" 
d="M-5 30h137q64 0 89.5 31t25.5 76q0 46 -32 187l30 6q32 -141 32 -193q0 -54 -33.5 -95.5t-111.5 -41.5h-137v30zM21 -126h67v-67h-67v67zM160 -126h67v-67h-67v67z" />
    <glyph glyph-name="uni0626.fina.001" horiz-adv-x="633" 
d="M80 16q0 -67 24.5 -121t72.5 -85.5t115 -31.5h112q65 0 101.5 13t53 36t23.5 61q2 8 2 23q0 36 -24 55q-28 23 -76.5 28.5t-132.5 5.5v30h287l2 -16l-2 -14h-77q25 -7 39.5 -32.5t14.5 -57.5q0 -15 -3 -28q-13 -65 -58.5 -99.5t-149.5 -34.5h-112q-76 0 -130.5 36.5
t-83 97.5t-28.5 134q0 105 66 248l28 -12q-64 -137 -64 -236zM166 337l78 23q-26 11 -42 33t-16 51q0 38 27.5 62t66.5 24q22 0 60 -9l-6 -27q-28 6 -50 6q-30 0 -49 -16t-19 -39q0 -33 28.5 -51.5t67.5 -13.5l62 18l2 -31l-208 -61z" />
    <glyph glyph-name="uni06CE.fina.001" horiz-adv-x="633" 
d="M80 16q0 -67 24.5 -121t72.5 -85.5t115 -31.5h112q65 0 101.5 13t53 36t23.5 61q2 8 2 23q0 36 -24 55q-28 23 -76.5 28.5t-132.5 5.5v30h287l2 -16l-2 -14h-77q25 -7 39.5 -32.5t14.5 -57.5q0 -15 -3 -28q-13 -65 -58.5 -99.5t-149.5 -34.5h-112q-76 0 -130.5 36.5
t-83 97.5t-28.5 134q0 105 66 248l28 -12q-64 -137 -64 -236zM192 319l26 16l68 -108l68 108l26 -16l-74 -117h-40z" />
    <glyph glyph-name="uni06CE.medi.alt" horiz-adv-x="390" 
d="M75 466l26 16l68 -108l68 108l26 -16l-74 -117h-40zM-5 30h102q129 0 129 101v163h30v-163q0 -56 35 -78.5t72 -22.5h50l3 -15l-3 -15h-50q-30 0 -66.5 15t-55.5 51q-19 -33 -56.5 -49.5t-87.5 -16.5h-102v30zM21 -127h67v-67h-67v67zM160 -127h67v-67h-67v67z" />
    <glyph glyph-name="uni06CE.init.alt" horiz-adv-x="327" 
d="M76 551l26 16l68 -108l68 108l26 -16l-74 -117h-40zM-3 30h135q64 0 89.5 31t25.5 76q0 46 -32 187l30 6q32 -141 32 -193q0 -54 -33.5 -95.5t-111.5 -41.5h-135v30zM21 -126h67v-67h-67v67zM160 -126h67v-67h-67v67z" />
    <glyph glyph-name="uni06CC.fina.001" horiz-adv-x="633" 
d="M80 16q0 -67 24.5 -121t72.5 -85.5t115 -31.5h112q65 0 101.5 13t53 36t23.5 61q2 8 2 23q0 36 -24 55q-28 23 -76.5 28.5t-132.5 5.5v30h287l2 -16l-2 -14h-77q25 -7 39.5 -32.5t14.5 -57.5q0 -15 -3 -28q-13 -65 -58.5 -99.5t-149.5 -34.5h-112q-76 0 -130.5 36.5
t-83 97.5t-28.5 134q0 105 66 248l28 -12q-64 -137 -64 -236z" />
    <glyph glyph-name="uni06CC.medi.alt" horiz-adv-x="408" 
d="M256 294v-163q0 -56 35 -78.5t72 -22.5h50l3 -15l-3 -15h-50q-30 0 -66.5 15t-55.5 51q-19 -33 -56.5 -49.5t-87.5 -16.5h-102v30h102q129 0 129 101v163h30zM21 -127h67v-67h-67v67zM160 -127h67v-67h-67v67z" />
    <glyph glyph-name="uni06CC.init.alt" horiz-adv-x="327" 
d="M-3 30h135q64 0 89.5 31t25.5 76q0 46 -32 187l30 6q32 -141 32 -193q0 -54 -33.5 -95.5t-111.5 -41.5h-135v30zM21 -126h67v-67h-67v67zM160 -126h67v-67h-67v67z" />
    <glyph glyph-name="uni06D2.fina.alt" horiz-adv-x="395" 
d="M62 -270q-12 42 -12 81q0 61 27 111t77 79t115 29h131l2 -16l-2 -14h-130q-57 0 -100 -24t-66.5 -66.5t-23.5 -96.5q0 -26 6 -53h286v-30h-310z" />
    <glyph glyph-name="uni06D3.fina.alt" horiz-adv-x="395" 
d="M62 -270q-12 42 -12 81q0 61 27 111t77 79t115 29h131l2 -16l-2 -14h-130q-57 0 -100 -24t-66.5 -66.5t-23.5 -96.5q0 -26 6 -53h286v-30h-310zM184 135q-26 11 -42 33t-16 51q0 38 27.5 62t66.5 24q22 0 60 -9l-6 -27q-28 6 -50 6q-30 0 -49 -16t-19 -39
q0 -33 28.5 -51.5t67.5 -13.5l62 18l2 -31l-208 -61l-2 31z" />
    <glyph glyph-name="uni06D3.fina.alt2" horiz-adv-x="327" 
d="M62 -270q-12 42 -12 81q0 61 27 111t77 79t115 29h63l2 -16l-2 -14h-62q-57 0 -100 -24t-66.5 -66.5t-23.5 -96.5q0 -26 6 -53h406v-30h-430zM184 120q-26 11 -42 33t-16 51q0 38 27.5 62t66.5 24q22 0 60 -9l-6 -27q-28 6 -50 6q-30 0 -49 -16t-19 -39q0 -33 28.5 -51.5
t67.5 -13.5l62 18l2 -31l-208 -61l-2 31z" />
    <glyph glyph-name="uni0640.001" horiz-adv-x="2" 
d="M0 30h2l2 -16l-2 -14h-2v30z" />
    <glyph glyph-name="uni06440627.001" horiz-adv-x="522" 
d="M50 30h285q37 0 72 22.5t35 78.5v518h30v-518q0 -51 -24.5 -80t-56 -40t-56.5 -11h-285v30zM121 541l25 -422l-30 -2l-25 422z" />
    <glyph glyph-name="uni06440627.fina.001" horiz-adv-x="588" 
d="M509 15q-35 15 -52 52q-19 -36 -55.5 -51.5t-66.5 -15.5h-285v30h285q37 0 72 22.5t35 78.5v518h30v-518q0 -101 107 -101h14v-30h-14q-35 0 -70 15zM121 541l25 -422l-30 -2l-25 422z" />
    <glyph glyph-name="uni06B50627" horiz-adv-x="522" 
d="M50 30h285q37 0 72 22.5t35 78.5v518h30v-518q0 -51 -24.5 -80t-56 -40t-56.5 -11h-285v30zM114 634l32 -515l-30 -2l-32 515zM389 829l68 -108l68 108l26 -16l-74 -117h-40l-74 117z" />
    <glyph glyph-name="uni06B50627.fina" horiz-adv-x="588" 
d="M509 15q-35 15 -52 52q-19 -36 -55.5 -51.5t-66.5 -15.5h-285v30h285q37 0 72 22.5t35 78.5v518h30v-518q0 -101 107 -101h14l2 -16l-2 -14h-14q-35 0 -70 15zM114 634l32 -515l-30 -2l-32 515zM389 829l68 -108l68 108l26 -16l-74 -117h-40l-74 117z" />
    <glyph glyph-name="uni0664.ss03" horiz-adv-x="532" 
d="M54 470q13 -53 51 -79.5t103 -36.5q-45 24 -69 63t-24 84q0 41 21 76.5t56 56.5t77 21q39 0 70.5 -13.5t88.5 -49.5l-14 -23q-51 33 -80 44.5t-65 11.5q-53 0 -88.5 -36t-35.5 -88q0 -64 51 -108t151 -47h81v-30q-114 0 -178.5 4t-111.5 18.5t-74 46.5q5 -70 5 -195
l-2 -190h-30l2 190v42q0 123 -12 226t-48 184l26 14q34 -76 49 -186z" />
    <glyph glyph-name="uni0665.ss03" horiz-adv-x="532" 
d="M271 136q0 -21 -7 -44q9 -31 33.5 -47.5t56.5 -16.5q45 0 75 30.5t30 93.5q0 84 -58 193.5t-173 220.5q-102 -114 -148 -216.5t-46 -188.5q0 -67 28.5 -99.5t72.5 -32.5t75.5 29t31.5 81q0 20 -4 37l27 6q6 -24 6 -46zM52.5 360.5q48.5 108.5 153.5 226.5q-45 40 -53 46
l20 24q105 -86 176 -178t105.5 -176t34.5 -151q0 -50 -19.5 -85t-50 -52t-65.5 -17t-63 15.5t-43 44.5q-18 -28 -48.5 -43.5t-63.5 -15.5q-35 0 -65 18t-48.5 54.5t-18.5 89.5q0 91 48.5 199.5z" />
    <glyph glyph-name="uni0666.ss03" horiz-adv-x="532" 
d="M353.5 336.5q-51.5 -52.5 -93 -109t-99.5 -143.5l-63 -94l-25 17l63 94q58 86 98 140t86 102q-36 -13 -72 -13q-37 0 -68.5 15t-54.5 42q-35 41 -35 99q0 34 14 65t40 53q30 25 63 35t99 19l5 -26q-61 -7 -90.5 -17.5t-57.5 -33.5q-21 -18 -32.5 -43t-11.5 -52
q0 -45 29 -80q42 -48 106 -48t138 52q29 24 57 41l14 -26q-58 -36 -109.5 -88.5z" />
    <glyph glyph-name="uni06F0.ss03" horiz-adv-x="532" 
d="M217.5 84q-30.5 18 -48.5 49t-18 68t18 68t48.5 49t66.5 18t66.5 -18t48.5 -49t18 -68t-18 -68t-48.5 -49t-66.5 -18t-66.5 18zM208 127q30 -30 76 -30t75.5 30t29.5 74t-30 73.5t-75 29.5q-46 0 -76 -29.5t-30 -73.5t30 -74z" />
    <glyph glyph-name="uni06F1.ss03" horiz-adv-x="532" 
d="M184 459q13 -110 13 -236v-33l-2 -190h-30l2 190v42q0 123 -12 226t-48 184l26 14q38 -87 51 -197z" />
    <glyph glyph-name="uni06F2.ss03" horiz-adv-x="532" 
d="M122 497q12 -53 46 -76.5t80 -23.5q41 0 73 27.5t32 77.5q0 7 -2 23l-18 122l30 4l18 -122q2 -18 2 -26q0 -43 -20.5 -74t-52 -46.5t-62.5 -15.5q-76 0 -115 48q8 -81 8 -225l-2 -190h-30l2 190v42q0 123 -12 226t-48 184l26 14q31 -70 45 -159z" />
    <glyph glyph-name="uni06F3.ss03" horiz-adv-x="532" 
d="M40 504q21 -107 119 -107q37 0 67.5 27.5t30.5 76.5q0 8 -2 24l-16 109l30 4l16 -109v-3q19 -129 101 -129q39 0 64.5 26t25.5 77q0 7 -2 25l-15 122l30 4l15 -122q2 -18 2 -27q0 -43 -17 -73.5t-44.5 -46t-58.5 -15.5q-33 0 -62 19.5t-47 61.5q-16 -38 -49.5 -59.5
t-68.5 -21.5q-67 0 -107 45q8 -79 8 -222l-2 -190h-30l2 190v42q0 123 -12 226t-48 184l26 14q28 -64 44 -152z" />
    <glyph glyph-name="uni06F4.ss03" horiz-adv-x="532" 
d="M52 470q13 -53 51 -79.5t103 -36.5q-45 24 -69 63t-24 84q0 41 21 76.5t56 56.5t77 21q39 0 70.5 -13.5t88.5 -49.5l-14 -23q-51 33 -80 44.5t-65 11.5q-53 0 -88.5 -36t-35.5 -88q0 -64 51 -108t151 -47h81v-30q-114 0 -178.5 4t-111.5 18.5t-74 46.5q5 -70 5 -195
l-2 -190h-30l2 190v42q0 123 -12 226t-48 184l26 14q34 -76 49 -186z" />
    <glyph glyph-name="uni06F5.ss03" horiz-adv-x="532" 
d="M270 136q0 -21 -7 -44q9 -31 33.5 -47.5t56.5 -16.5q45 0 75 30.5t30 93.5q0 84 -58 193.5t-173 220.5q-102 -114 -148 -216.5t-46 -188.5q0 -67 28.5 -99.5t72.5 -32.5t75.5 29t31.5 81q0 20 -4 37l27 6q6 -24 6 -46zM51.5 360.5q48.5 108.5 153.5 226.5q-45 40 -53 46
l20 24q105 -86 176 -178t105.5 -176t34.5 -151q0 -50 -19.5 -85t-50 -52t-65.5 -17t-63 15.5t-43 44.5q-18 -28 -48.5 -43.5t-63.5 -15.5q-35 0 -65 18t-48.5 54.5t-18.5 89.5q0 91 48.5 199.5z" />
    <glyph glyph-name="uni06F6.ss03" horiz-adv-x="532" 
d="M349.5 336.5q-51.5 -52.5 -93 -109t-99.5 -143.5l-63 -94l-25 17l63 94q58 86 98 140t86 102q-36 -13 -72 -13q-37 0 -68.5 15t-54.5 42q-35 41 -35 99q0 34 14 65t40 53q30 25 63 35t99 19l5 -26q-61 -7 -90.5 -17.5t-57.5 -33.5q-21 -18 -32.5 -43t-11.5 -52
q0 -45 29 -80q42 -48 106 -48t138 52q29 24 57 41l14 -26q-58 -36 -109.5 -88.5z" />
    <glyph glyph-name="uni06F7.ss03" horiz-adv-x="532" 
d="M166.5 290q-29.5 95 -58.5 166t-85 189l28 12q54 -114 83 -183.5t56 -157t72 -256.5q42 167 68.5 256t56 158t87.5 184l26 -14q-59 -119 -88.5 -190t-57.5 -166t-75 -287h-31q-52 194 -81.5 289z" />
    <glyph glyph-name="uni06F8.ss03" horiz-adv-x="532" 
d="M358.5 364q29.5 -95 58.5 -166t85 -189l-28 -12q-54 114 -83 183.5t-56 157t-72 256.5q-42 -167 -68.5 -256t-56 -158t-87.5 -184l-26 14q59 119 88.5 190t57.5 166t75 287h31q52 -194 81.5 -289z" />
    <glyph glyph-name="uni06F9.ss03" horiz-adv-x="532" 
d="M313.5 133q-3.5 53 -4.5 214h-109q-64 0 -101.5 33.5t-37.5 102.5q0 79 37.5 128t100.5 49q66 0 103 -47t37 -130q0 -189 1 -261.5t5 -111t16 -103.5l-30 -6q-14 79 -17.5 132zM118.5 401.5q27.5 -24.5 81.5 -24.5h109v106q0 147 -110 147q-50 0 -79 -39t-29 -108
q0 -57 27.5 -81.5z" />
    <glyph glyph-name="uni06F4.urdu" horiz-adv-x="529" 
d="M115 470q13 -53 51 -79.5t103 -36.5q-45 24 -69 63t-24 84q0 41 21 76.5t56 56.5t77 21q39 0 70.5 -13.5t88.5 -49.5l-14 -23q-51 33 -80 44.5t-65 11.5q-53 0 -88.5 -36t-35.5 -88q0 -64 51 -108t151 -47h81v-30q-114 0 -178.5 4t-111.5 18.5t-74 46.5q5 -70 5 -195
l-2 -190h-30l2 190v42q0 123 -12 226t-48 184l26 14q34 -76 49 -186z" />
    <glyph glyph-name="uni06F7.urdu" horiz-adv-x="537" 
d="M173.5 290q-29.5 95 -58.5 166t-85 189l28 12q54 -114 83 -183.5t56 -157t72 -256.5q42 167 68.5 256t56 158t87.5 184l26 -14q-59 -119 -88.5 -190t-57.5 -166t-75 -287h-31q-52 194 -81.5 289z" />
    <glyph glyph-name="zero.ss01" horiz-adv-x="426" 
d="M146.5 84q-30.5 18 -48.5 49t-18 68t18 68t48.5 49t66.5 18t66.5 -18t48.5 -49t18 -68t-18 -68t-48.5 -49t-66.5 -18t-66.5 18zM137 127q30 -30 76 -30t75.5 30t29.5 74t-30 73.5t-75 29.5q-46 0 -76 -29.5t-30 -73.5t30 -74z" />
    <glyph glyph-name="one.ss01" horiz-adv-x="190" 
d="M117 459q13 -110 13 -236v-33l-2 -190h-30l2 190v42q0 123 -12 226t-48 184l26 14q38 -87 51 -197z" />
    <glyph glyph-name="two.ss01" horiz-adv-x="422" 
d="M111 497q12 -53 46 -76.5t80 -23.5q41 0 73 27.5t32 77.5q0 7 -2 23l-18 122l30 4l18 -122q2 -18 2 -26q0 -43 -20.5 -74t-52 -46.5t-62.5 -15.5q-76 0 -115 48q8 -81 8 -225l-2 -190h-30l2 190v42q0 123 -12 226t-48 184l26 14q31 -70 45 -159z" />
    <glyph glyph-name="three.ss01" horiz-adv-x="616" 
d="M110 504q21 -107 119 -107q37 0 67.5 27.5t30.5 76.5q0 8 -2 24l-16 109l30 4l16 -109v-3q19 -129 101 -129q39 0 64.5 26t25.5 77q0 7 -2 25l-15 122l30 4l15 -122q2 -18 2 -27q0 -43 -17 -73.5t-44.5 -46t-58.5 -15.5q-33 0 -62 19.5t-47 61.5q-16 -38 -49.5 -59.5
t-68.5 -21.5q-67 0 -107 45q8 -79 8 -222l-2 -190h-30l2 190v42q0 123 -12 226t-48 184l26 14q28 -64 44 -152z" />
    <glyph glyph-name="four.ss01" horiz-adv-x="529" 
d="M115 470q13 -53 51 -79.5t103 -36.5q-45 24 -69 63t-24 84q0 41 21 76.5t56 56.5t77 21q39 0 70.5 -13.5t88.5 -49.5l-14 -23q-51 33 -80 44.5t-65 11.5q-53 0 -88.5 -36t-35.5 -88q0 -64 51 -108t151 -47h81v-30q-114 0 -178.5 4t-111.5 18.5t-74 46.5q5 -70 5 -195
l-2 -190h-30l2 190v42q0 123 -12 226t-48 184l26 14q34 -76 49 -186z" />
    <glyph glyph-name="five.ss01" horiz-adv-x="545" 
d="M297 136q0 -21 -7 -44q9 -31 33.5 -47.5t56.5 -16.5q45 0 75 30.5t30 93.5q0 84 -58 193.5t-173 220.5q-102 -114 -148 -216.5t-46 -188.5q0 -67 28.5 -99.5t72.5 -32.5t75.5 29t31.5 81q0 20 -4 37l27 6q6 -24 6 -46zM78.5 360.5q48.5 108.5 153.5 226.5q-45 40 -53 46
l20 24q105 -86 176 -178t105.5 -176t34.5 -151q0 -50 -19.5 -85t-50 -52t-65.5 -17t-63 15.5t-43 44.5q-18 -28 -48.5 -43.5t-63.5 -15.5q-35 0 -65 18t-48.5 54.5t-18.5 89.5q0 91 48.5 199.5z" />
    <glyph glyph-name="six.ss01" horiz-adv-x="470" 
d="M320.5 336.5q-51.5 -52.5 -93 -109t-99.5 -143.5l-63 -94l-25 17l63 94q58 86 98 140t86 102q-36 -13 -72 -13q-37 0 -68.5 15t-54.5 42q-35 41 -35 99q0 34 14 65t40 53q30 25 63 35t99 19l5 -26q-61 -7 -90.5 -17.5t-57.5 -33.5q-21 -18 -32.5 -43t-11.5 -52
q0 -45 29 -80q42 -48 106 -48t138 52q29 24 57 41l14 -26q-58 -36 -109.5 -88.5z" />
    <glyph glyph-name="seven.ss01" horiz-adv-x="537" 
d="M173.5 290q-29.5 95 -58.5 166t-85 189l28 12q54 -114 83 -183.5t56 -157t72 -256.5q42 167 68.5 256t56 158t87.5 184l26 -14q-59 -119 -88.5 -190t-57.5 -166t-75 -287h-31q-52 194 -81.5 289z" />
    <glyph glyph-name="eight.ss01" horiz-adv-x="537" 
d="M363.5 364q29.5 -95 58.5 -166t85 -189l-28 -12q-54 114 -83 183.5t-56 157t-72 256.5q-42 -167 -68.5 -256t-56 -158t-87.5 -184l-26 14q59 119 88.5 190t57.5 166t75 287h31q52 -194 81.5 -289z" />
    <glyph glyph-name="nine.ss01" horiz-adv-x="370" 
d="M282.5 133q-3.5 53 -4.5 214h-109q-64 0 -101.5 33.5t-37.5 102.5q0 79 37.5 128t100.5 49q66 0 103 -47t37 -130q0 -189 1 -261.5t5 -111t16 -103.5l-30 -6q-14 79 -17.5 132zM87.5 401.5q27.5 -24.5 81.5 -24.5h109v106q0 147 -110 147q-50 0 -79 -39t-29 -108
q0 -57 27.5 -81.5z" />
    <glyph glyph-name="zero.ss02" horiz-adv-x="426" 
d="M146.5 84q-30.5 18 -48.5 49t-18 68t18 68t48.5 49t66.5 18t66.5 -18t48.5 -49t18 -68t-18 -68t-48.5 -49t-66.5 -18t-66.5 18zM137 127q30 -30 76 -30t75.5 30t29.5 74t-30 73.5t-75 29.5q-46 0 -76 -29.5t-30 -73.5t30 -74z" />
    <glyph glyph-name="one.ss02" horiz-adv-x="190" 
d="M117 459q13 -110 13 -236v-33l-2 -190h-30l2 190v42q0 123 -12 226t-48 184l26 14q38 -87 51 -197z" />
    <glyph glyph-name="two.ss02" horiz-adv-x="422" 
d="M111 497q12 -53 46 -76.5t80 -23.5q41 0 73 27.5t32 77.5q0 7 -2 23l-18 122l30 4l18 -122q2 -18 2 -26q0 -43 -20.5 -74t-52 -46.5t-62.5 -15.5q-76 0 -115 48q8 -81 8 -225l-2 -190h-30l2 190v42q0 123 -12 226t-48 184l26 14q31 -70 45 -159z" />
    <glyph glyph-name="three.ss02" horiz-adv-x="616" 
d="M110 504q21 -107 119 -107q37 0 67.5 27.5t30.5 76.5q0 8 -2 24l-16 109l30 4l16 -109v-3q19 -129 101 -129q39 0 64.5 26t25.5 77q0 7 -2 25l-15 122l30 4l15 -122q2 -18 2 -27q0 -43 -17 -73.5t-44.5 -46t-58.5 -15.5q-33 0 -62 19.5t-47 61.5q-16 -38 -49.5 -59.5
t-68.5 -21.5q-67 0 -107 45q8 -79 8 -222l-2 -190h-30l2 190v42q0 123 -12 226t-48 184l26 14q28 -64 44 -152z" />
    <glyph glyph-name="four.ss02" horiz-adv-x="529" 
d="M115 470q13 -53 51 -79.5t103 -36.5q-45 24 -69 63t-24 84q0 41 21 76.5t56 56.5t77 21q39 0 70.5 -13.5t88.5 -49.5l-14 -23q-51 33 -80 44.5t-65 11.5q-53 0 -88.5 -36t-35.5 -88q0 -64 51 -108t151 -47h81v-30q-114 0 -178.5 4t-111.5 18.5t-74 46.5q5 -70 5 -195
l-2 -190h-30l2 190v42q0 123 -12 226t-48 184l26 14q34 -76 49 -186z" />
    <glyph glyph-name="five.ss02" horiz-adv-x="545" 
d="M297 136q0 -21 -7 -44q9 -31 33.5 -47.5t56.5 -16.5q45 0 75 30.5t30 93.5q0 84 -58 193.5t-173 220.5q-102 -114 -148 -216.5t-46 -188.5q0 -67 28.5 -99.5t72.5 -32.5t75.5 29t31.5 81q0 20 -4 37l27 6q6 -24 6 -46zM78.5 360.5q48.5 108.5 153.5 226.5q-45 40 -53 46
l20 24q105 -86 176 -178t105.5 -176t34.5 -151q0 -50 -19.5 -85t-50 -52t-65.5 -17t-63 15.5t-43 44.5q-18 -28 -48.5 -43.5t-63.5 -15.5q-35 0 -65 18t-48.5 54.5t-18.5 89.5q0 91 48.5 199.5z" />
    <glyph glyph-name="six.ss02" horiz-adv-x="470" 
d="M320.5 336.5q-51.5 -52.5 -93 -109t-99.5 -143.5l-63 -94l-25 17l63 94q58 86 98 140t86 102q-36 -13 -72 -13q-37 0 -68.5 15t-54.5 42q-35 41 -35 99q0 34 14 65t40 53q30 25 63 35t99 19l5 -26q-61 -7 -90.5 -17.5t-57.5 -33.5q-21 -18 -32.5 -43t-11.5 -52
q0 -45 29 -80q42 -48 106 -48t138 52q29 24 57 41l14 -26q-58 -36 -109.5 -88.5z" />
    <glyph glyph-name="seven.ss02" horiz-adv-x="537" 
d="M173.5 290q-29.5 95 -58.5 166t-85 189l28 12q54 -114 83 -183.5t56 -157t72 -256.5q42 167 68.5 256t56 158t87.5 184l26 -14q-59 -119 -88.5 -190t-57.5 -166t-75 -287h-31q-52 194 -81.5 289z" />
    <glyph glyph-name="eight.ss02" horiz-adv-x="537" 
d="M363.5 364q29.5 -95 58.5 -166t85 -189l-28 -12q-54 114 -83 183.5t-56 157t-72 256.5q-42 -167 -68.5 -256t-56 -158t-87.5 -184l-26 14q59 119 88.5 190t57.5 166t75 287h31q52 -194 81.5 -289z" />
    <glyph glyph-name="nine.ss02" horiz-adv-x="370" 
d="M282.5 133q-3.5 53 -4.5 214h-109q-64 0 -101.5 33.5t-37.5 102.5q0 79 37.5 128t100.5 49q66 0 103 -47t37 -130q0 -189 1 -261.5t5 -111t16 -103.5l-30 -6q-14 79 -17.5 132zM87.5 401.5q27.5 -24.5 81.5 -24.5h109v106q0 147 -110 147q-50 0 -79 -39t-29 -108
q0 -57 27.5 -81.5z" />
    <glyph glyph-name="zero.ss03" horiz-adv-x="532" 
d="M217.5 84q-30.5 18 -48.5 49t-18 68t18 68t48.5 49t66.5 18t66.5 -18t48.5 -49t18 -68t-18 -68t-48.5 -49t-66.5 -18t-66.5 18zM208 127q30 -30 76 -30t75.5 30t29.5 74t-30 73.5t-75 29.5q-46 0 -76 -29.5t-30 -73.5t30 -74z" />
    <glyph glyph-name="one.ss03" horiz-adv-x="532" 
d="M184 459q13 -110 13 -236v-33l-2 -190h-30l2 190v42q0 123 -12 226t-48 184l26 14q38 -87 51 -197z" />
    <glyph glyph-name="two.ss03" horiz-adv-x="532" 
d="M122 497q12 -53 46 -76.5t80 -23.5q41 0 73 27.5t32 77.5q0 7 -2 23l-18 122l30 4l18 -122q2 -18 2 -26q0 -43 -20.5 -74t-52 -46.5t-62.5 -15.5q-76 0 -115 48q8 -81 8 -225l-2 -190h-30l2 190v42q0 123 -12 226t-48 184l26 14q31 -70 45 -159z" />
    <glyph glyph-name="three.ss03" horiz-adv-x="532" 
d="M40 504q21 -107 119 -107q37 0 67.5 27.5t30.5 76.5q0 8 -2 24l-16 109l30 4l16 -109v-3q19 -129 101 -129q39 0 64.5 26t25.5 77q0 7 -2 25l-15 122l30 4l15 -122q2 -18 2 -27q0 -43 -17 -73.5t-44.5 -46t-58.5 -15.5q-33 0 -62 19.5t-47 61.5q-16 -38 -49.5 -59.5
t-68.5 -21.5q-67 0 -107 45q8 -79 8 -222l-2 -190h-30l2 190v42q0 123 -12 226t-48 184l26 14q28 -64 44 -152z" />
    <glyph glyph-name="four.ss03" horiz-adv-x="532" 
d="M52 470q13 -53 51 -79.5t103 -36.5q-45 24 -69 63t-24 84q0 41 21 76.5t56 56.5t77 21q39 0 70.5 -13.5t88.5 -49.5l-14 -23q-51 33 -80 44.5t-65 11.5q-53 0 -88.5 -36t-35.5 -88q0 -64 51 -108t151 -47h81v-30q-114 0 -178.5 4t-111.5 18.5t-74 46.5q5 -70 5 -195
l-2 -190h-30l2 190v42q0 123 -12 226t-48 184l26 14q34 -76 49 -186z" />
    <glyph glyph-name="five.ss03" horiz-adv-x="532" 
d="M270 136q0 -21 -7 -44q9 -31 33.5 -47.5t56.5 -16.5q45 0 75 30.5t30 93.5q0 84 -58 193.5t-173 220.5q-102 -114 -148 -216.5t-46 -188.5q0 -67 28.5 -99.5t72.5 -32.5t75.5 29t31.5 81q0 20 -4 37l27 6q6 -24 6 -46zM51.5 360.5q48.5 108.5 153.5 226.5q-45 40 -53 46
l20 24q105 -86 176 -178t105.5 -176t34.5 -151q0 -50 -19.5 -85t-50 -52t-65.5 -17t-63 15.5t-43 44.5q-18 -28 -48.5 -43.5t-63.5 -15.5q-35 0 -65 18t-48.5 54.5t-18.5 89.5q0 91 48.5 199.5z" />
    <glyph glyph-name="six.ss03" horiz-adv-x="532" 
d="M349.5 336.5q-51.5 -52.5 -93 -109t-99.5 -143.5l-63 -94l-25 17l63 94q58 86 98 140t86 102q-36 -13 -72 -13q-37 0 -68.5 15t-54.5 42q-35 41 -35 99q0 34 14 65t40 53q30 25 63 35t99 19l5 -26q-61 -7 -90.5 -17.5t-57.5 -33.5q-21 -18 -32.5 -43t-11.5 -52
q0 -45 29 -80q42 -48 106 -48t138 52q29 24 57 41l14 -26q-58 -36 -109.5 -88.5z" />
    <glyph glyph-name="seven.ss03" horiz-adv-x="532" 
d="M166.5 290q-29.5 95 -58.5 166t-85 189l28 12q54 -114 83 -183.5t56 -157t72 -256.5q42 167 68.5 256t56 158t87.5 184l26 -14q-59 -119 -88.5 -190t-57.5 -166t-75 -287h-31q-52 194 -81.5 289z" />
    <glyph glyph-name="eight.ss03" horiz-adv-x="532" 
d="M358.5 364q29.5 -95 58.5 -166t85 -189l-28 -12q-54 114 -83 183.5t-56 157t-72 256.5q-42 -167 -68.5 -256t-56 -158t-87.5 -184l-26 14q59 119 88.5 190t57.5 166t75 287h31q52 -194 81.5 -289z" />
    <glyph glyph-name="nine.ss03" horiz-adv-x="532" 
d="M313.5 133q-3.5 53 -4.5 214h-109q-64 0 -101.5 33.5t-37.5 102.5q0 79 37.5 128t100.5 49q66 0 103 -47t37 -130q0 -189 1 -261.5t5 -111t16 -103.5l-30 -6q-14 79 -17.5 132zM118.5 401.5q27.5 -24.5 81.5 -24.5h109v106q0 147 -110 147q-50 0 -79 -39t-29 -108
q0 -57 27.5 -81.5z" />
    <glyph glyph-name="zero.dnom" horiz-adv-x="256" 
d="M71.5 104.5q-23.5 23.5 -23.5 57.5t23.5 57.5t56.5 23.5t56.5 -23.5t23.5 -57.5t-23.5 -57.5t-56.5 -23.5t-56.5 23.5zM82 117q18 -18 46 -18q27 0 45 18t18 45q0 26 -18 43.5t-45 17.5q-28 0 -46 -17.5t-18 -43.5q0 -27 18 -45z" />
    <glyph glyph-name="one.dnom" horiz-adv-x="114" 
d="M72 266.5q7 -71.5 6 -152.5l-1 -114h-18l1 114v31q0 71 -7 131.5t-29 108.5l16 9q25 -56 32 -127.5z" />
    <glyph glyph-name="two.dnom" horiz-adv-x="253" 
d="M68 295q8 -30 28 -43.5t46 -13.5q25 0 44 16.5t19 46.5q0 9 -1 14l-11 73l18 3l11 -74q1 -6 1 -16q0 -37 -25.5 -59t-55.5 -22q-46 0 -68 29q4 -49 4 -135l-1 -114h-18l1 114v31q0 71 -7 131.5t-29 108.5l16 9q18 -42 28 -99z" />
    <glyph glyph-name="three.dnom" horiz-adv-x="370" 
d="M67 296q16 -58 70 -58q23 0 41 16.5t18 46.5q0 9 -1 14l-10 65l18 3l10 -66q0 -3 1 -4q10 -75 60 -75q23 0 38 15.5t15 45.5q0 10 -1 16l-9 73l18 3l9 -74q1 -6 1 -16q0 -38 -21 -59.5t-50 -21.5q-20 0 -37.5 12t-28.5 37q-9 -23 -29.5 -36t-41.5 -13q-40 0 -63 27
q4 -48 4 -133l-1 -114h-18l1 114v31q0 71 -7 131.5t-29 108.5l16 9q19 -44 27 -98z" />
    <glyph glyph-name="four.dnom" horiz-adv-x="317" 
d="M70 278q9 -30 31 -44.5t60 -20.5q-27 15 -41 37.5t-14 50.5q0 37 27 64.5t65 27.5q23 0 42 -8t53 -30l-8 -14q-31 20 -48.5 27t-38.5 7q-32 0 -53 -21.5t-21 -52.5q0 -39 30.5 -65.5t91.5 -27.5h47v-18q-100 0 -147.5 7t-70.5 34q3 -42 3 -117l-1 -114h-18l1 114v31
q0 71 -7 131.5t-29 108.5l16 9q20 -46 30 -116z" />
    <glyph glyph-name="five.dnom" horiz-adv-x="327" 
d="M178 82q0 -16 -4 -27q5 -18 19.5 -28t33.5 -10q27 0 45.5 18t18.5 56q0 51 -35 116.5t-104 132.5q-116 -131 -116 -245q0 -39 17 -58.5t42 -19.5q27 0 46.5 17.5t19.5 48.5q0 11 -3 23l17 3q3 -13 3 -27zM47 215.5q29 65.5 92 136.5l-32 28l12 14q93 -77 141.5 -158.5
t48.5 -143.5q0 -46 -24 -69.5t-58 -23.5q-21 0 -37 9t-25 26q-12 -17 -30.5 -26t-39.5 -9q-32 0 -54.5 25t-22.5 71q0 55 29 120.5z" />
    <glyph glyph-name="six.dnom" horiz-adv-x="282" 
d="M168 175q-40 -48 -91 -125l-38 -56l-15 10l38 57q33 49 58 82.5t52 62.5q-20 -8 -43 -8q-43 0 -74 34q-21 26 -21 59q0 20 8.5 39t24.5 32q18 15 37.5 21t59.5 12l3 -16q-37 -5 -55 -11t-34 -19q-26 -22 -26 -57q0 -28 17 -48q24 -29 63 -29q47 0 96 41l22 15l8 -16
q-50 -32 -90 -80z" />
    <glyph glyph-name="seven.dnom" horiz-adv-x="322" 
d="M87.5 224.5q-21.5 61.5 -69.5 162.5l17 7q46 -98 67 -156.5t59 -201.5q36 143 57.5 202.5t70.5 156.5l15 -9q-36 -72 -53.5 -114t-34 -99t-44.5 -172h-19q-44 162 -65.5 223.5z" />
    <glyph glyph-name="eight.dnom" horiz-adv-x="322" 
d="M234.5 167q21.5 -62 69.5 -162l-17 -7q-46 97 -67 156t-59 203q-36 -143 -57 -202t-70 -157l-16 8q36 72 53.5 114t34 99.5t45.5 172.5h18q44 -163 65.5 -225z" />
    <glyph glyph-name="nine.dnom" horiz-adv-x="222" 
d="M169 80q-2 32 -2 128h-66q-38 0 -60.5 20t-22.5 62q0 48 22.5 77t60.5 29q40 0 62 -28t22 -78q0 -159 1.5 -196.5t11.5 -89.5l-18 -3q-9 47 -11 79zM52.5 241q16.5 -15 48.5 -15h66v64q0 88 -66 88q-30 0 -47.5 -23t-17.5 -65q0 -34 16.5 -49z" />
    <glyph glyph-name="zero.numr" horiz-adv-x="256" 
d="M71.5 389.5q-23.5 23.5 -23.5 57.5t23.5 57.5t56.5 23.5t56.5 -23.5t23.5 -57.5t-23.5 -57.5t-56.5 -23.5t-56.5 23.5zM82 402q18 -18 46 -18q27 0 45 18t18 45q0 26 -18 43.5t-45 17.5q-28 0 -46 -17.5t-18 -43.5q0 -27 18 -45z" />
    <glyph glyph-name="one.numr" horiz-adv-x="114" 
d="M72 551.5q7 -71.5 6 -152.5l-1 -114h-18l1 114v31q0 71 -7 131.5t-29 108.5l16 9q25 -56 32 -127.5z" />
    <glyph glyph-name="two.numr" horiz-adv-x="253" 
d="M68 580q8 -30 28 -43.5t46 -13.5q25 0 44 16.5t19 46.5q0 9 -1 14l-11 73l18 3l11 -74q1 -6 1 -16q0 -37 -25.5 -59t-55.5 -22q-46 0 -68 29q4 -49 4 -135l-1 -114h-18l1 114v31q0 71 -7 131.5t-29 108.5l16 9q18 -42 28 -99z" />
    <glyph glyph-name="three.numr" horiz-adv-x="370" 
d="M67 581q16 -58 70 -58q23 0 41 16.5t18 46.5q0 9 -1 14l-10 65l18 3l10 -66q0 -3 1 -4q10 -75 60 -75q23 0 38 15.5t15 45.5q0 10 -1 16l-9 73l18 3l9 -74q1 -6 1 -16q0 -38 -21 -59.5t-50 -21.5q-20 0 -37.5 12t-28.5 37q-9 -23 -29.5 -36t-41.5 -13q-40 0 -63 27
q4 -48 4 -133l-1 -114h-18l1 114v31q0 71 -7 131.5t-29 108.5l16 9q19 -44 27 -98z" />
    <glyph glyph-name="four.numr" horiz-adv-x="317" 
d="M70 563q9 -30 31 -44.5t60 -20.5q-27 15 -41 37.5t-14 50.5q0 37 27 64.5t65 27.5q23 0 42 -8t53 -30l-8 -14q-31 20 -48.5 27t-38.5 7q-32 0 -53 -21.5t-21 -52.5q0 -39 30.5 -65.5t91.5 -27.5h47v-18q-100 0 -147.5 7t-70.5 34q3 -42 3 -117l-1 -114h-18l1 114v31
q0 71 -7 131.5t-29 108.5l16 9q20 -46 30 -116z" />
    <glyph glyph-name="five.numr" horiz-adv-x="327" 
d="M178 367q0 -16 -4 -27q5 -18 19.5 -28t33.5 -10q27 0 45.5 18t18.5 56q0 51 -35 116.5t-104 132.5q-116 -131 -116 -245q0 -39 17 -58.5t42 -19.5q27 0 46.5 17.5t19.5 48.5q0 11 -3 23l17 3q3 -13 3 -27zM47 500.5q29 65.5 92 136.5l-32 28l12 14q93 -77 141.5 -158.5
t48.5 -143.5q0 -46 -24 -69.5t-58 -23.5q-21 0 -37 9t-25 26q-12 -17 -30.5 -26t-39.5 -9q-32 0 -54.5 25t-22.5 71q0 55 29 120.5z" />
    <glyph glyph-name="six.numr" horiz-adv-x="282" 
d="M168 460q-40 -48 -91 -125l-38 -56l-15 10l38 57q33 49 58 82.5t52 62.5q-20 -8 -43 -8q-43 0 -74 34q-21 26 -21 59q0 20 8.5 39t24.5 32q18 15 37.5 21t59.5 12l3 -16q-37 -5 -55 -11t-34 -19q-26 -22 -26 -57q0 -28 17 -48q24 -29 63 -29q47 0 96 41l22 15l8 -16
q-50 -32 -90 -80z" />
    <glyph glyph-name="seven.numr" horiz-adv-x="322" 
d="M87.5 509.5q-21.5 61.5 -69.5 162.5l17 7q46 -98 67 -156.5t59 -201.5q36 143 57.5 202.5t70.5 156.5l15 -9q-36 -72 -53.5 -114t-34 -99t-44.5 -172h-19q-44 162 -65.5 223.5z" />
    <glyph glyph-name="eight.numr" horiz-adv-x="322" 
d="M234.5 452.5q21.5 -61.5 69.5 -162.5l-17 -7q-46 98 -67 156.5t-59 201.5q-36 -143 -57.5 -202.5t-70.5 -156.5l-15 9q36 72 53.5 114t34 99t44.5 172h19q44 -162 65.5 -223.5z" />
    <glyph glyph-name="nine.numr" horiz-adv-x="222" 
d="M169 365q-2 32 -2 128h-66q-38 0 -60.5 20t-22.5 62q0 48 22.5 77t60.5 29q40 0 62 -28t22 -78q0 -159 1.5 -196.5t11.5 -89.5l-18 -3q-9 47 -11 79zM52.5 526q16.5 -15 48.5 -15h66v64q0 88 -66 88q-30 0 -47.5 -23t-17.5 -65q0 -34 16.5 -49z" />
    <glyph glyph-name="period.001" 
d="M33 627.5q-13 12.5 -13 30.5t13 31t30 13q18 0 31 -13t13 -31t-13 -30.5t-31 -12.5q-17 0 -30 12.5z" />
    <glyph glyph-name="dotcenter-ar" 
d="M96 -94v-67h-67v67h67z" />
    <glyph glyph-name="twodotshorizontalabove-ar.001" 
d="M60 360l47 -47l-47 -46l-46 46z" />
    <glyph glyph-name="threedotsdownbelow-ar.001" 
d="M61 360l47 -47l-31 -31l-15 -15l-47 46z" />
    <glyph glyph-name="threedotsupabove-ar.002" 
d="M57 355l42 -43l-42 -43l-43 43z" />
    <glyph glyph-name="wasla-ar" 
d="M69 592l15 -22q8 -14 16 -23l33 48q18 28 36 41.5t43 13.5q33 0 52 -24t19 -57q0 -35 -21.5 -55.5t-53.5 -20.5h-40q-35 0 -52 5.5t-30 21t-39 56.5zM168 523h40q45 0 45 46q0 24 -10.5 37.5t-30.5 13.5q-17 0 -28 -9t-27 -32l-34 -51q13 -5 45 -5z" />
    <glyph glyph-name="miniKeheh-ar" 
d="M19 30h46q14 0 21.5 5.5t7.5 14.5t-11 20l-49 48l6 33l81 35l11 -26l-71 -31l38 -37q18 -18 18 -41q0 -21 -15 -36t-41 -15h-45z" />
    <glyph glyph-name="gafsarkashabove-ar" 
d="M40 497l302 131l12 -28l-321 -140z" />
    <glyph glyph-name="gafsarkashabove-ar.001" 
d="M-34 384l165 230l26 -17l-177 -249z" />
    <glyph glyph-name="uni0654064F" 
d="M34 501l78 23q-26 11 -42 33t-16 51q0 38 27.5 62t66.5 24q22 0 60 -9l-6 -27q-28 6 -50 6q-30 0 -49 -16t-19 -39q0 -33 28.5 -51.5t67.5 -13.5l62 18l2 -31l-208 -61zM101 761q-24 19 -34 48q-4 12 -4 28q0 28 17.5 51t44.5 32q18 6 36 6q29 0 52 -15.5t32 -43.5
q4 -12 4 -27q0 -28 -19 -50.5t-53 -33.5l-139 -47l-10 28zM134 772l35 12q24 8 37.5 22.5t13.5 32.5q0 9 -3 18q-7 19 -22 29.5t-34 10.5q-11 0 -26 -5q-20 -8 -31.5 -21.5t-11.5 -31.5q0 -9 3 -20q12 -33 39 -47z" />
    <glyph glyph-name="uni0654064C" 
d="M6 497l78 23q-26 11 -42 33t-16 51q0 38 27.5 62t66.5 24q22 0 60 -9l-6 -27q-28 6 -50 6q-30 0 -49 -16t-19 -39q0 -33 28.5 -51.5t67.5 -13.5l62 18l2 -31l-208 -61zM-19 839q0 39 21 70.5t63 46.5l12 -28q-33 -13 -50.5 -38t-17.5 -56t18 -66l-24 -9q-22 39 -22 80z
M93 763q-24 19 -34 48q-4 12 -4 28q0 28 17.5 51t44.5 32q18 6 36 6q29 0 52 -15.5t32 -43.5q4 -12 4 -27q0 -28 -19 -50.5t-53 -33.5l-139 -47l-10 28zM126 774l35 12q24 8 37.5 22.5t13.5 32.5q0 9 -3 18q-7 19 -22 29.5t-34 10.5q-11 0 -26 -5q-20 -8 -31.5 -21.5
t-11.5 -31.5q0 -9 3 -20q12 -33 39 -47z" />
    <glyph glyph-name="uni0654064E" 
d="M16 502l78 23q-26 11 -42 33t-16 51q0 38 27.5 62t66.5 24q22 0 60 -9l-6 -27q-28 6 -50 6q-30 0 -49 -16t-19 -39q0 -33 28.5 -51.5t67.5 -13.5l62 18l2 -31l-208 -61zM19 735l205 69v-31l-205 -69v31z" />
    <glyph glyph-name="uni0654064B" 
d="M16 501l78 23q-26 11 -42 33t-16 51q0 38 27.5 62t66.5 24q22 0 60 -9l-6 -27q-28 6 -50 6q-30 0 -49 -16t-19 -39q0 -33 28.5 -51.5t67.5 -13.5l62 18l2 -31l-208 -61zM18 741l205 69v-31l-205 -69v31zM18 813l205 69v-31l-205 -69v31z" />
    <glyph glyph-name="uni06540652" 
d="M8 501l78 23q-26 11 -42 33t-16 51q0 38 27.5 62t66.5 24q22 0 60 -9l-6 -27q-28 6 -50 6q-30 0 -49 -16t-19 -39q0 -33 28.5 -51.5t67.5 -13.5l62 18l2 -31l-208 -61zM60.5 866q23.5 24 52.5 24q31 0 53.5 -25.5t22.5 -63.5q0 -33 -22 -56.5t-54 -23.5q-33 0 -54.5 23
t-21.5 59q0 39 23.5 63zM75.5 766q13.5 -14 35.5 -14q24 0 38.5 13t14.5 35q0 26 -14.5 42.5t-36.5 16.5q-19 0 -35 -15t-16 -41q0 -23 13.5 -37z" />
    <glyph glyph-name="uni06550650" 
d="M14 -275l78 23q-26 11 -42 33t-16 51q0 38 27.5 62t66.5 24q22 0 60 -9l-6 -27q-28 6 -50 6q-30 0 -49 -16t-19 -39q0 -33 28.5 -51.5t67.5 -13.5l62 18l2 -31l-208 -61zM16 -378l205 69v-31l-205 -69v31z" />
    <glyph glyph-name="uni0655064D" 
d="M9 -217l78 23q-26 11 -42 33t-16 51q0 38 27.5 62t66.5 24q22 0 60 -9l-6 -27q-28 6 -50 6q-30 0 -49 -16t-19 -39q0 -33 28.5 -51.5t67.5 -13.5l62 18l2 -31l-208 -61zM11 -382l205 69v-31l-205 -69v31zM11 -310l205 69v-31l-205 -69v31z" />
    <glyph glyph-name="uni0651064B" 
d="M21 581v-50q0 -22 13.5 -32t28.5 -10q42 0 42 42v50h30v-50q0 -22 11 -32t29 -10q21 0 33 11.5t12 32.5q0 9 -2 19t-5 22.5t-5 20.5l30 7q6 -26 9 -42.5t3 -26.5q0 -30 -16.5 -52t-58.5 -22q-36 0 -55 24q-20 -24 -57 -24q-24 0 -48 16.5t-24 55.5v50h30zM18 664l205 69
v-31l-205 -69v31zM18 736l205 69v-31l-205 -69v31z" />
    <glyph glyph-name="uni0651064C" 
d="M24 584v-50q0 -22 13.5 -32t28.5 -10q42 0 42 42v50h30v-50q0 -22 11 -32t29 -10q21 0 33 11.5t12 32.5q0 9 -2 19t-5 22.5t-5 20.5l30 7q6 -26 9 -42.5t3 -26.5q0 -30 -16.5 -52t-58.5 -22q-36 0 -55 24q-20 -24 -57 -24q-24 0 -48 16.5t-24 55.5v50h30zM-6 751
q0 39 21 70.5t63 46.5l12 -28q-33 -13 -50.5 -38t-17.5 -56t18 -66l-24 -9q-22 39 -22 80zM106 675q-24 19 -34 48q-4 12 -4 28q0 28 17.5 51t44.5 32q18 6 36 6q29 0 52 -15.5t32 -43.5q4 -12 4 -27q0 -28 -19 -50.5t-53 -33.5l-139 -47l-10 28zM139 686l35 12
q24 8 37.5 22.5t13.5 32.5q0 9 -3 18q-7 19 -22 29.5t-34 10.5q-11 0 -26 -5q-20 -8 -31.5 -21.5t-11.5 -31.5q0 -9 3 -20q12 -33 39 -47z" />
    <glyph glyph-name="uni0651064D" 
d="M11 789v-50q0 -22 13.5 -32t28.5 -10q42 0 42 42v50h30v-50q0 -22 11 -32t29 -10q21 0 33 11.5t12 32.5q0 9 -2 19t-5 22.5t-5 20.5l30 7q6 -26 9 -42.5t3 -26.5q0 -30 -16.5 -52t-58.5 -22q-36 0 -55 24q-20 -24 -57 -24q-24 0 -48 16.5t-24 55.5v50h30zM8 504l205 69
v-31l-205 -69v31zM8 576l205 69v-31l-205 -69v31z" />
    <glyph glyph-name="uni0651064E" 
d="M14 587v-50q0 -22 13.5 -32t28.5 -10q42 0 42 42v50h30v-50q0 -22 11 -32t29 -10q21 0 33 11.5t12 32.5q0 9 -2 19t-5 22.5t-5 20.5l30 7q6 -26 9 -42.5t3 -26.5q0 -30 -16.5 -52t-58.5 -22q-36 0 -55 24q-20 -24 -57 -24q-24 0 -48 16.5t-24 55.5v50h30zM11 656l205 69
v-31l-205 -69v31z" />
    <glyph glyph-name="uni0651064F" 
d="M12 587v-50q0 -22 13.5 -32t28.5 -10q42 0 42 42v50h30v-50q0 -22 11 -32t29 -10q21 0 33 11.5t12 32.5q0 9 -2 19t-5 22.5t-5 20.5l30 7q6 -26 9 -42.5t3 -26.5q0 -30 -16.5 -52t-58.5 -22q-36 0 -55 24q-20 -24 -57 -24q-24 0 -48 16.5t-24 55.5v50h30zM74 664
q-24 19 -34 48q-4 12 -4 28q0 28 17.5 51t44.5 32q18 6 36 6q29 0 52 -15.5t32 -43.5q4 -12 4 -27q0 -28 -19 -50.5t-53 -33.5l-139 -47l-10 28zM107 675l35 12q24 8 37.5 22.5t13.5 32.5q0 9 -3 18q-7 19 -22 29.5t-34 10.5q-11 0 -26 -5q-20 -8 -31.5 -21.5t-11.5 -31.5
q0 -9 3 -20q12 -33 39 -47z" />
    <glyph glyph-name="uni06510650" 
d="M5 502l205 69v-31l-205 -69v31zM-22 719h30v-50q0 -22 13.5 -32t28.5 -10q42 0 42 42v50h30v-50q0 -22 11 -32t29 -10q21 0 33 11.5t12 32.5q0 9 -2 19t-5 22.5t-5 20.5l30 7q6 -26 9 -42.5t3 -26.5q0 -30 -16.5 -52t-58.5 -22q-36 0 -55 24q-20 -24 -57 -24
q-24 0 -48 16.5t-24 55.5v50z" />
    <glyph glyph-name="uni06510670" 
d="M9 584v-50q0 -22 13.5 -32t28.5 -10q42 0 42 42v50h30v-50q0 -22 11 -32t29 -10q21 0 33 11.5t12 32.5q0 9 -2 19t-5 22.5t-5 20.5l30 7q6 -26 9 -42.5t3 -26.5q0 -30 -16.5 -52t-58.5 -22q-36 0 -55 24q-20 -24 -57 -24q-24 0 -48 16.5t-24 55.5v50h30zM98 781h30v-153
h-30v153z" />
    <glyph glyph-name="uni0653.001" 
d="M-34 647q35 31 93 31h205v-29h-205q-88 0 -117 -91l-25 9q14 49 49 80z" />
    <glyph glyph-name="sareya-ar" 
d="M-24 506l52 -11q14 -2 19 -2q29 0 47 19t18 50l-110 28q-6 20 -6 38q0 45 31 78t76 34q29 0 47 -6l-8 -28q-20 4 -39 4q-32 -2 -55 -24.5t-23 -54.5q0 -5 2 -15l83 -22q17 -4 22.5 -11.5t5.5 -24.5q0 -41 -27 -67.5t-69 -26.5q-15 0 -23 2l-50 10z" />
    </font>
</defs>
</svg>
