<?xml version="1.0" standalone="no"?>
<!DOCTYPE svg PUBLIC "-//W3C//DTD SVG 1.1//EN" "http://www.w3.org/Graphics/SVG/1.1/DTD/svg11.dtd" >
<svg xmlns="http://www.w3.org/2000/svg" xmlns:xlink="http://www.w3.org/1999/xlink" version="1.1">
<metadata>
Created by FontForge 20201107 at Mon Aug 29 13:27:27 2022
 By 
Copyright (c) 2021 by www.fontiran.com (Moslem Ebrahimi). All rights reserved.
</metadata>
<defs>
<font id="IRANYekanXFaNum-Medium" horiz-adv-x="0" >
  <font-face 
    font-family="IRANYekanXFaNum Medium"
    font-weight="500"
    font-stretch="normal"
    units-per-em="1000"
    panose-1="0 0 0 0 0 0 0 0 0 0"
    ascent="800"
    descent="-200"
    x-height="528"
    cap-height="711"
    bbox="-84 -489 2251 1028"
    underline-thickness="24"
    underline-position="-225"
    unicode-range="U+000D-FEFF"
  />
<missing-glyph horiz-adv-x="255" 
d="M38 429h179v-433h-179v433zM208 4v417h-161v-417h161z" />
    <glyph glyph-name="uni06AA" unicode="&#x6a9;&#x621;&#x621;" horiz-adv-x="1204" 
d="M131.5 25q-43.5 25 -67.5 66.5t-24 91.5q0 9 2 29q5 39 32 153l87 -23l-7 -32q-20 -89 -22 -112q-1 -5 -1 -13q0 -36 26 -56.5t74 -20.5h773q31 0 48.5 17t17.5 46v36q0 28 -17.5 44.5t-48.5 16.5h-632l-54 85l201 287l78 -62l-141 -202h547q43 0 80 -22.5t59 -60.5
t22 -84v-40q0 -46 -21.5 -84.5t-58.5 -61.5t-81 -23h-772q-56 0 -99.5 25z" />
    <glyph glyph-name="uni06BE" unicode="&#x647;&#x621;&#x621;" horiz-adv-x="714" 
d="M475 512l154 -237q35 -53 35 -110q0 -58 -35 -99q-28 -35 -78 -52t-113 -17q-89 0 -170 30q-82 -27 -177 -27h-43v108h55q21 0 31 1q-57 59 -57 133q0 56 26 103.5t71 75.5t99 28q52 0 96 -27.5t70 -75t26 -103.5q0 -77 -58 -137h21q45 0 80.5 7.5t48.5 21.5q11 13 11 29
q0 23 -20 54l-153 235zM196 174.5q25 -27.5 70 -44.5q50 17 77.5 44.5t27.5 63.5q0 46 -27 75.5t-72 29.5q-46 0 -73.5 -29.5t-27.5 -75.5q0 -36 25 -63.5z" />
    <glyph glyph-name="uni06C0" unicode="&#x647;&#x654;" horiz-adv-x="511" 
d="M288 466q65 -71 99 -112.5t54 -83.5t20 -86q0 -53 -28 -97t-75 -69.5t-102 -25.5t-102.5 25.5t-75.5 69.5t-28 97q0 46 18.5 87.5t46 76.5t73.5 83l-28 31l69 69zM174 124.5q30 -25.5 82 -25.5q51 0 81 25.5t30 63.5q0 30 -24.5 65t-87.5 105q-62 -66 -86.5 -100
t-24.5 -70q0 -38 30 -63.5zM163 652l55 -12q15 -3 27 -3q46 0 48 48l-107 29q-8 21 -8 48q0 51 34 88.5t83 38.5q29 0 50 -6l-12 -54q-18 4 -38 4q-32 -1 -54 -23t-19 -49l75 -21q40 -12 40 -54q0 -45 -27.5 -73.5t-72.5 -28.5q-14 0 -31 3l-55 11z" />
    <glyph glyph-name="uni06D2" unicode="&#x649;&#x621;&#x621;" horiz-adv-x="889" 
d="M71 0q-21 53 -21 116q0 70 29 131.5t81.5 98.5t119.5 37q10 0 28 -2l70 -8l-15 -106l-64 6q-6 1 -18 1q-69 0 -105.5 -47t-30.5 -119h694v-108h-768z" />
    <glyph glyph-name="uni06D3" unicode="&#x626;&#x621;&#x621;" horiz-adv-x="889" 
d="M71 0q-21 53 -21 116q0 70 29 131.5t81.5 98.5t119.5 37q10 0 28 -2l70 -8l-15 -106l-64 6q-6 1 -18 1q-69 0 -105.5 -47t-30.5 -119h694v-108h-768zM200 483q-20 14 -31 35t-11 46q0 41 29 68.5t69 29.5q23 0 67 -10l-9 -53q-37 8 -56 8q-25 -1 -40 -14t-15 -33
q1 -22 20.5 -36.5t49.5 -14.5q7 0 21 2l65 19l3 -55l-212 -62l-3 55z" />
    <glyph glyph-name="uni06C0.fina" unicode="&#xfeea;&#x654;" horiz-adv-x="616" arabic-form="final" 
d="M456 209q14 -56 52 -78.5t93 -22.5h20l6 -53l-6 -55h-20q-62 0 -120.5 28.5t-92.5 91.5q-27 -39 -66 -59.5t-82 -20.5q-49 0 -96 27q-45 25 -69.5 71t-24.5 99q0 54 25 97q17 28 37 47t62 42t120 56l-12 51l92 24zM96 596l54 -11q17 -3 29 -3q45 0 47 47l-108 30
q-8 21 -8 47q0 51 34 89t83 39q30 0 50 -7l-11 -53q-18 4 -39 4q-31 -1 -53 -23.5t-20 -49.5l75 -21q41 -13 41 -57t-28 -71.5t-74 -27.5q-13 0 -30 3l-54 11zM143 233q0 -22 12 -42t32 -33q23 -14 49 -14q24 0 47 11t40 31q11 13 16 27.5t5 35.5q0 7 -2 27l-9 39l-16 63
q-77 -28 -112 -52t-48 -48q-14 -23 -14 -45z" />
    <glyph glyph-name="uni06C1.fina" unicode="&#xfeea;&#x621;&#x621;" horiz-adv-x="566" arabic-form="final" 
d="M459.5 131q37.5 -23 93.5 -23h18l6 -53l-6 -55h-18q-79 0 -145.5 43.5t-90.5 140.5l-27 109l-54 -17q-94 -30 -94 -101q0 -20 8 -47l21 -68l-89 -31l-20 65q-12 39 -12 76q0 73 43 129t118 78l105 32l55 -32l38 -167q13 -56 50.5 -79z" />
    <glyph glyph-name="uni06C1.medi" unicode="&#xfeec;&#xfe8c;&#xfe8c;&#xfe8c;&#xfe8c;" horiz-adv-x="448" arabic-form="medial" 
d="M187 203v-213q44 55 107 86.5t137 31.5h22l6 -53l-6 -55h-22q-70 0 -126 -31t-87 -85t-31 -121v-15h-94v279q-40 -27 -83 -27h-15v108h19q33 0 56 24t23 68v3h94z" />
    <glyph glyph-name="uni06BE.fina" unicode="&#xfeea;&#x621;&#x621;&#x621;&#x621;" horiz-adv-x="569" arabic-form="final" 
d="M53 93l72 6v98q0 112 53.5 177t145.5 65q53 0 97.5 -27t70.5 -74t26 -104q0 -9 -2 -31q-4 -32 -24 -59.5t-51 -35.5h133l6 -53l-6 -55h-133q31 -6 50.5 -34.5t23.5 -61.5q2 -22 2 -32q0 -57 -25.5 -103.5t-70 -73t-97.5 -26.5q-92 0 -145.5 65t-53.5 177v89h-85z
M244 -193q25 -33 80 -33q46 0 74.5 26t28.5 73q0 13 -3 30q-8 44 -52 70.5t-115 26.5h-38v-89q0 -71 25 -104zM259 108q72 0 114.5 26.5t50.5 70.5q3 17 3 30q0 47 -28.5 73t-74.5 26q-55 0 -80 -33t-25 -104v-89h40z" />
    <glyph glyph-name="uni06BE.medi" unicode="&#xfeec;&#xfe8c;&#xfe8c;&#xfe8c;" horiz-adv-x="734" arabic-form="medial" 
d="M500 512l154 -237q35 -52 35 -110q0 -32 -10 -56l61 -1l6 -53l-7 -55q-109 0 -182 10q-52 -13 -136 -13q-88 0 -169 30q-82 -27 -178 -27h-79v108h91q21 0 32 1q-58 58 -58 133q0 56 26 103.5t71 75.5t99 28q52 0 96.5 -27.5t70.5 -75t26 -103.5q0 -77 -58 -137h21
q143 0 170 29q11 13 11 29q0 23 -20 54l-153 235zM179 174.5q25 -27.5 71 -44.5q50 17 77 44.5t27 63.5q0 46 -27 75.5t-72 29.5q-46 0 -73.5 -29.5t-27.5 -75.5q0 -36 25 -63.5z" />
    <glyph glyph-name="uni06D2.fina" unicode="&#xfbfd;&#x621;&#x621;" horiz-adv-x="383" arabic-form="final" 
d="M73 -274q-23 59 -23 122q0 71 31 130.5t89 94.5t134 35h85l6 -53l-6 -55h-83q-76 0 -118 -38.5t-42 -105.5q0 -15 1 -22h484v-108h-558z" />
    <glyph glyph-name="uni06D3.fina" unicode="&#xfe8a;&#x621;&#x621;" horiz-adv-x="383" arabic-form="final" 
d="M73 -274q-23 59 -23 122q0 71 31 130.5t89 94.5t134 35h85l6 -53l-6 -55h-83q-76 0 -118 -38.5t-42 -105.5q0 -15 1 -22h484v-108h-558zM154 210q-41 30 -41 80q0 41 28.5 69t69.5 30q23 0 67 -10l-9 -53q-38 8 -57 8q-25 -2 -39.5 -14t-14.5 -31q0 -23 19.5 -38
t49.5 -15q6 0 20 2l66 19l4 -56l-212 -62l-3 56z" />
    <glyph glyph-name="uni06440622" unicode="&#xfedf;&#xfe82;" horiz-adv-x="556" arabic-form="isolated" 
d="M57 108h273q41 0 61.5 18.5t20.5 61.5v467h94v-471q0 -62 -27 -103.5t-66 -61t-76 -19.5h-280v108zM142 748h198v-84h-198q-40 0 -61 -18t-32 -50l-73 24q32 128 166 128zM180 596l26 -411l-95 -7l-26 411z" />
    <glyph glyph-name="uni06440622.fina" unicode="&#xfee0;&#xfe82;" horiz-adv-x="626" arabic-form="final" 
d="M536 14q-32 14 -56 42q-25 -28 -58.5 -42t-65.5 -14h-281v108h274q40 0 60.5 18.5t20.5 61.5v467h94v-471q0 -76 75 -76h32v-108h-32q-31 0 -63 14zM142 748h198v-84h-198q-40 0 -61 -18t-32 -50l-73 24q32 128 166 128zM198 596l26 -411l-94 -7l-26 411z" />
    <glyph glyph-name="uni06440623" unicode="&#xfedf;&#xfe84;" horiz-adv-x="549" arabic-form="isolated" 
d="M50 108h274q40 0 60.5 18.5t20.5 61.5v467h94v-471q0 -62 -26.5 -103.5t-65.5 -61t-76 -19.5h-281v108zM74 679q-19 14 -30 34.5t-11 46.5q0 41 28.5 68.5t68.5 29.5q24 0 68 -10l-9 -53q-38 8 -57 8q-25 -1 -39.5 -13t-14.5 -32q0 -23 19.5 -38t50.5 -15q7 0 19 2l66 19
l4 -55l-212 -62l-4 55zM173 596l26 -411l-94 -7l-26 411z" />
    <glyph glyph-name="uni06440623.fina" unicode="&#xfee0;&#xfe84;" horiz-adv-x="601" arabic-form="final" 
d="M511 14q-32 14 -56 42q-25 -28 -58.5 -42t-65.5 -14h-281v108h274q40 0 60.5 18.5t20.5 61.5v467h94v-471q0 -76 75 -76h32v-108h-32q-31 0 -63 14zM74 679q-19 14 -30 34.5t-11 46.5q0 41 28.5 68.5t68.5 29.5q24 0 68 -10l-9 -53q-38 8 -57 8q-25 -1 -39.5 -13
t-14.5 -32q0 -23 19.5 -38t50.5 -15q7 0 19 2l66 19l4 -55l-212 -62l-4 55zM173 596l26 -411l-94 -7l-26 411z" />
    <glyph glyph-name="uni06440625" unicode="&#xfedf;&#xfe88;" horiz-adv-x="549" arabic-form="isolated" 
d="M50 108h274q40 0 60.5 18.5t20.5 61.5v467h94v-471q0 -62 -26.5 -103.5t-65.5 -61t-76 -19.5h-281v108zM109 -203q-41 31 -41 80q0 41 29 69t69 30q24 0 68 -10l-9 -53q-38 8 -57 8q-25 -1 -40 -14t-15 -33q1 -21 20.5 -36t48.5 -15q6 0 20 2l67 19l3 -56l-211 -62l-4 56
zM172 644l27 -459l-94 -7l-28 459z" />
    <glyph glyph-name="uni06440625.fina" unicode="&#xfee0;&#xfe88;" horiz-adv-x="601" arabic-form="final" 
d="M511 14q-32 14 -56 42q-25 -28 -58.5 -42t-65.5 -14h-281v108h274q40 0 60.5 18.5t20.5 61.5v467h94v-471q0 -76 75 -76h32l6 -53l-6 -55h-32q-31 0 -63 14zM109 -203q-41 31 -41 80q0 41 29 69t69 30q24 0 68 -10l-9 -53q-38 8 -57 8q-25 -1 -40 -14t-15 -33
q1 -21 20.5 -36t48.5 -15q6 0 20 2l67 19l3 -56l-211 -62l-4 56zM172 644l27 -459l-94 -7l-28 459z" />
    <glyph glyph-name="uni06440627" unicode="&#xfedf;&#xfe8e;" horiz-adv-x="549" arabic-form="isolated" 
d="M50 108h274q40 0 60.5 18.5t20.5 61.5v467h94v-471q0 -62 -26.5 -103.5t-65.5 -61t-76 -19.5h-281v108zM172 644l27 -459l-94 -7l-28 459z" />
    <glyph glyph-name="uni06440627.fina" unicode="&#xfee0;&#xfe8e;" horiz-adv-x="601" arabic-form="final" 
d="M511 14q-32 14 -56 42q-25 -28 -58.5 -42t-65.5 -14h-281v108h274q40 0 60.5 18.5t20.5 61.5v467h94v-471q0 -76 75 -76h32l6 -53l-6 -55h-32q-31 0 -63 14zM172 644l27 -459l-94 -7l-28 459z" />
    <glyph glyph-name="uni06AA.001" unicode="&#x6af;&#x621;&#x621;" horiz-adv-x="1204" 
d="M131.5 25q-43.5 25 -67.5 66.5t-24 91.5q0 9 2 29q5 39 32 153l87 -23l-7 -32q-20 -89 -22 -112q-1 -5 -1 -13q0 -36 26 -56.5t74 -20.5h773q31 0 48.5 17t17.5 46v36q0 28 -17.5 44.5t-48.5 16.5h-632l-54 85l201 287l78 -62l-141 -202h547q43 0 80 -22.5t59 -60.5
t22 -84v-40q0 -46 -21.5 -84.5t-58.5 -61.5t-81 -23h-772q-56 0 -99.5 25zM277 441l164 230l35 -27l-176 -249z" />
    <glyph glyph-name="uni06AA.fina" unicode="&#xfb8f;&#x621;&#x621;" horiz-adv-x="1225" 
d="M131.5 25q-43.5 25 -67.5 66.5t-24 91.5q0 9 2 29q5 39 32 153l87 -23l-7 -32q-20 -89 -22 -112q-1 -5 -1 -13q0 -36 26 -56.5t74 -20.5h773q31 0 48.5 17t17.5 46v36q0 28 -17.5 44.5t-48.5 16.5h-632l-54 85l201 287l78 -62l-141 -202h547q43 0 80 -22.5t59 -60.5
t22 -84v-40q0 -9 -2 -23q5 -21 19.5 -29.5t38.5 -8.5h10l6 -53l-6 -55h-10q-68 0 -104 49q-22 -23 -51.5 -36t-61.5 -13h-772q-56 0 -99.5 25z" />
    <glyph glyph-name="uni06AA.fina.001" unicode="&#xfb93;&#x621;&#x621;" horiz-adv-x="1225" 
d="M131.5 25q-43.5 25 -67.5 66.5t-24 91.5q0 9 2 29q5 39 32 153l87 -23l-7 -32q-20 -89 -22 -112q-1 -5 -1 -13q0 -36 26 -56.5t74 -20.5h773q31 0 48.5 17t17.5 46v36q0 28 -17.5 44.5t-48.5 16.5h-632l-54 85l201 287l78 -62l-141 -202h547q43 0 80 -22.5t59 -60.5
t22 -84v-40q0 -9 -2 -23q5 -21 19.5 -29.5t38.5 -8.5h10l6 -53l-6 -55h-10q-68 0 -104 49q-22 -23 -51.5 -36t-61.5 -13h-772q-56 0 -99.5 25zM277 441l164 230l35 -27l-176 -249z" />
    <glyph glyph-name="uni06AA.medi" unicode="&#xfb91;&#xfe8c;&#xfe8c;" horiz-adv-x="1004" 
d="M782 108q31 0 48.5 17t17.5 46v36q0 28 -17.5 44.5t-48.5 16.5h-632l-54 85l201 287l78 -62l-141 -202h547q44 0 81 -22.5t58.5 -60.5t21.5 -84v-40q0 -14 -1 -21q4 -22 18.5 -31t39.5 -9h10l6 -53l-6 -55h-10q-70 0 -104 50q-22 -24 -51.5 -37t-62.5 -13l-786 -1v108z
" />
    <glyph glyph-name="uni06AA.medi.001" unicode="&#xfb95;&#xfe8c;&#xfe8c;" horiz-adv-x="1004" 
d="M782 108q31 0 48.5 17t17.5 46v36q0 28 -17.5 44.5t-48.5 16.5h-632l-54 85l201 287l78 -62l-141 -202h547q44 0 81 -22.5t58.5 -60.5t21.5 -84v-40q0 -14 -1 -21q4 -22 18.5 -31t39.5 -9h10l6 -53l-6 -55h-10q-70 0 -104 50q-22 -24 -51.5 -37t-62.5 -13l-786 -1v108z
M48 442l164 230l35 -27l-176 -249z" />
    <glyph glyph-name="uni06AA.init" unicode="&#xfb90;&#xfe8c;&#xfe8c;" horiz-adv-x="982" 
d="M782 108q31 0 48.5 17t17.5 46v36q0 28 -17.5 44.5t-48.5 16.5h-632l-54 85l201 287l78 -62l-141 -202h547q44 0 81 -22.5t58.5 -60.5t21.5 -84v-40q0 -46 -21.5 -84.5t-58.5 -61.5t-81 -23l-786 -1v108z" />
    <glyph glyph-name="uni06AA.init.001" unicode="&#xfb94;&#xfe8c;&#xfe8c;" horiz-adv-x="982" 
d="M782 108q31 0 48.5 17t17.5 46v36q0 28 -17.5 44.5t-48.5 16.5h-632l-54 85l201 287l78 -62l-141 -202h547q44 0 81 -22.5t58.5 -60.5t21.5 -84v-40q0 -46 -21.5 -84.5t-58.5 -61.5t-81 -23l-786 -1v108zM49 441l164 230l35 -27l-176 -249z" />
    <glyph glyph-name="uni0647.fina.alt" unicode="&#xfeea;&#x621;&#x621;&#x621;" horiz-adv-x="728" 
d="M135 164q0 -17 12 -29q26 -29 170 -29h21q-58 60 -58 137q0 56 26 103.5t70 75t96 27.5q54 0 99 -28t71 -75.5t26 -103.5q0 -74 -57 -133q10 -1 31 -1h91v-108h-79q-94 0 -177 27q-81 -30 -170 -30q-92 0 -147.5 16.5t-85.5 52.5q-34 40 -34 99q0 58 34 110l155 237
l79 -59l-153 -235q-20 -30 -20 -54zM401.5 174.5q27.5 -27.5 77.5 -44.5q45 17 70 44.5t25 63.5q0 46 -27.5 75.5t-73.5 29.5q-45 0 -72 -29.5t-27 -75.5q0 -36 27.5 -63.5z" />
    <glyph glyph-name="uni0647.medi.alt" unicode="&#xfeec;&#xfe8c;&#xfe8c;" horiz-adv-x="492" 
d="M-5 108h53v89q0 113 53 177.5t146 64.5q53 0 97 -27t70 -73.5t26 -102.5q0 -22 -2 -33q-3 -32 -23 -59.5t-51 -35.5h133l6 -53l-6 -55h-133q31 -6 50.5 -34.5t23.5 -61.5q2 -22 2 -32q0 -57 -25.5 -103.5t-70 -73t-97.5 -26.5q-93 0 -146 64.5t-53 177.5v89h-53v108z
M167 -193q25 -33 80 -33q46 0 74.5 26t28.5 73q0 13 -3 30q-8 44 -52 70.5t-116 26.5h-37v-89q0 -71 25 -104zM182 108q72 0 114.5 26.5t50.5 70.5q3 17 3 30q0 47 -28.5 73t-74.5 26q-55 0 -80 -33t-25 -104v-89h40z" />
    <glyph glyph-name="uni0647.init.alt" unicode="&#xfeeb;&#xfe8c;&#xfe8c;" horiz-adv-x="492" 
d="M-5 108h53v89q0 113 53 177.5t146 64.5q52 0 96.5 -27.5t71.5 -75.5t27 -108q0 -19 -3 -39q-14 -87 -90 -135q76 -48 90 -135q3 -20 3 -39q0 -60 -27 -108t-71.5 -75.5t-96.5 -27.5q-93 0 -146 64.5t-53 177.5v89h-53v108zM167 -193q25 -33 80 -33q46 0 74.5 26t28.5 73
q0 13 -3 30q-8 47 -63 71.5t-142 25.5v-89q0 -71 25 -104zM284 133.5q55 24.5 63 71.5q3 17 3 30q0 47 -28.5 73t-74.5 26q-55 0 -80 -33t-25 -104v-89q87 1 142 25.5z" />
    <glyph glyph-name="uni06D2.fina.alt2" unicode="&#xfbfd;&#x621;&#x621;&#x621;&#x621;&#x621;" horiz-adv-x="382" 
d="M76 -274q-23 59 -23 122q0 71 31 130.5t88.5 94.5t133.5 35h82l6 -53l-6 -55h-80q-75 0 -117.5 -38.5t-42.5 -106.5q0 -14 1 -21h392v-108h-465z" />
    <glyph glyph-name="uni06D2.fina.alt3" unicode="&#xfbfd;&#x621;&#x621;&#x621;&#x621;" horiz-adv-x="383" 
d="M73 -274q-23 59 -23 122q0 71 31 130.5t89 94.5t134 35h84l6 -53l-6 -55h-82q-76 0 -118 -38.5t-42 -105.5q0 -15 1 -22h490v-108h-564z" />
    <glyph glyph-name="uni06D2.fina.alt4" unicode="&#xfbfd;&#x621;&#x621;&#x621;" horiz-adv-x="375" 
d="M73 -274q-23 59 -23 122q0 71 31 130.5t89 94.5t134 35h79l6 -53l-6 -55h-77q-76 0 -118 -38.5t-42 -105.5q0 -15 1 -22h586v-108h-660z" />
    <glyph glyph-name="uni06440671" unicode="&#xfedf;&#xfb51;" horiz-adv-x="549" 
d="M50 108h274q40 0 60.5 18.5t20.5 61.5v467h94v-471q0 -62 -26.5 -103.5t-65.5 -61t-76 -19.5h-281v108zM46 764l30 -39l28 42q23 33 43.5 49t48.5 16q38 0 61 -30t23 -70q0 -44 -25 -69.5t-63 -25.5h-45q-35 0 -55 8.5t-34.5 24.5t-47.5 60zM173 596l26 -411l-94 -7
l-26 411zM147 692h45q23 0 33 9t10 31t-9 33.5t-30 11.5q-16 0 -27 -9t-27 -33l-27 -40q12 -3 32 -3z" />
    <glyph glyph-name="uni06440671.fina" unicode="&#xfee0;&#xfb51;" horiz-adv-x="601" 
d="M511 14q-32 14 -56 42q-25 -28 -58.5 -42t-65.5 -14h-281v108h274q40 0 60.5 18.5t20.5 61.5v467h94v-471q0 -76 75 -76h32v-108h-32q-31 0 -63 14zM46 764l30 -39l28 42q23 33 43.5 49t48.5 16q38 0 61 -30t23 -70q0 -44 -25 -69.5t-63 -25.5h-45q-35 0 -55 8.5
t-34.5 24.5t-47.5 60zM173 596l26 -411l-94 -7l-26 411zM147 692h45q23 0 33 9t10 31t-9 33.5t-30 11.5q-16 0 -27 -9t-27 -33l-27 -40q12 -3 32 -3z" />
    <glyph glyph-name="uni064406440647" unicode="&#xfedf;&#xfee0;&#x651;&#x670;&#xfeea;" horiz-adv-x="1090" 
d="M75.5 137q-24.5 46 -24.5 99q0 54 25 97q16 28 36 47t62 42t120 56l-11 49l92 24l83 -349q13 -53 49.5 -73.5t93.5 -20.5h7q40 0 60 17t20 59v350h94v-350v-10v0q0 -36 18 -51t56 -15h29q40 0 61 18.5t21 61.5v399h93v-403q0 -62 -26.5 -103.5t-65.5 -61t-76 -19.5h-36
q-31 0 -62.5 14t-55.5 42q-26 -28 -59.5 -42t-64.5 -14h-21q-60 2 -116.5 30.5t-88.5 89.5q-27 -39 -65.5 -60t-81.5 -21q-49 0 -96 27q-45 25 -69.5 71zM144 232q0 -22 12 -42t32 -33q23 -14 49 -14q24 0 47 11t40 31q20 23 20 59q0 7 -2 29l-24 104q-77 -29 -112 -52.5
t-48 -46.5q-14 -23 -14 -46zM596 724h44v-48q0 -31 37 -31q38 0 38 31v48h44v-48q0 -31 33 -31q37 0 37 26q0 10 -2 20t-5 23t-5 21l44 12l6 -26q7 -32 7 -50q0 -32 -18.5 -57t-63.5 -25q-15 0 -30.5 5.5t-25.5 16.5q-21 -22 -59 -22q-31 0 -56 22t-25 65v48zM712 920h44
v-154h-44v154z" />
    <glyph glyph-name="uniFDF2" unicode="&#x627;&#xfedf;&#xfee0;&#xfeea;" horiz-adv-x="1323" 
d="M76 137.5q-25 46.5 -25 98.5q0 54 26 97q16 28 36 47t62 42t120 56l-11 49l92 24l83 -349q13 -53 49.5 -73.5t93.5 -20.5h7q40 0 60 17t20 59v350h94v-350v-10v0q0 -36 18 -51t56 -15h29q40 0 60.5 18.5t20.5 61.5v399h94v-403q0 -62 -26.5 -103.5t-65.5 -61t-76 -19.5
h-36q-31 0 -63 14t-55 42q-26 -28 -59.5 -42t-65.5 -14h-20q-60 2 -116.5 30.5t-88.5 89.5q-27 -39 -65.5 -60t-81.5 -21q-49 0 -96 27q-45 25 -70 71.5zM145 232q0 -22 12 -42t32 -33q23 -14 49 -14q24 0 47 11t39 31q11 12 16 26.5t5 35.5q0 7 -2 29l-24 101
q-77 -29 -112 -52.5t-48 -46.5q-14 -23 -14 -46zM596 724h44v-48q0 -17 11 -24t26 -7q38 0 38 31v48h44v-48q0 -31 34 -31q37 0 37 28q0 11 -6 36q-3 12 -6 26l43 12l7 -33q7 -25 7 -43q0 -33 -18.5 -57.5t-64.5 -24.5q-34 0 -56 22q-21 -22 -59 -22q-30 0 -55.5 22
t-25.5 65v48zM713 920h44v-154h-44v154zM1273 659v-655h-94l-1 655h95z" />
    <glyph glyph-name="uniFDFC.001" unicode="&#x631;&#xfbfe;&#xfe8e;&#x644;&#x621;" horiz-adv-x="1402" 
d="M1350 463v-282q0 -138 -70 -212.5t-202 -74.5h-22v108h22q65 0 104 17.5t56.5 56t17.5 105.5v282h94zM53.5 287q13.5 50 33.5 90l85 -46q-38 -81 -38 -141q0 -153 138 -153h33q67 0 103 14t50.5 45.5t14.5 87.5l-1 449q0 67 33.5 104.5t105.5 37.5h32q70 0 104 -38
t34 -103l1 -325q0 -49 5.5 -70t24 -29.5t60.5 -8.5h42q95 0 95 64q0 26 -9 80.5t-20 102.5l91 23q12 -48 22.5 -110t10.5 -97q0 -44 -21 -83.5t-63 -63.5t-103 -24h-45q-101 0 -143 56t-42 160l-1 321q0 20 -9 28.5t-34 8.5h-32q-26 0 -35 -8t-9 -29l1 -446
q0 -119 -63.5 -187t-199.5 -68h-33q-74 0 -126.5 36t-79 95.5t-26.5 129.5q0 47 13.5 97zM736 0h123h2h123v-107h-123h-2h-123v107z" />
    <glyph glyph-name="uniFDFC.002" unicode="&#x631;&#xfbfe;&#xfe8e;&#x644;&#x621;&#x621;" horiz-adv-x="1384" 
d="M1344 524v-242q0 -138 -70.5 -212.5t-201.5 -74.5h-23v108h23q65 0 103.5 17.5t56 56t17.5 105.5v242h95zM53.5 377.5q13.5 49.5 33.5 90.5l85 -46q-38 -83 -38 -141q0 -153 138 -153h27q66 0 102.5 14t51 45.5t14.5 87.5l-1 302q0 142 139 142h32q70 0 103.5 -37.5
t33.5 -103.5l1 -179q1 -49 6.5 -70t24 -29t60.5 -8h41q101 0 96 70q-2 36 -18 104l-7 35l90 23q15 -62 22 -98.5t7 -72.5q0 -44 -20.5 -82.5t-62.5 -62.5t-103 -24h-46q-100 0 -141.5 55.5t-42.5 159.5l-1 175q0 20 -9.5 28.5t-34.5 8.5h-31q-27 0 -36 -8t-9 -29l1 -299
q0 -120 -63 -187.5t-199 -67.5h-27q-74 0 -126.5 36t-79 95.5t-26.5 129.5q0 47 13.5 96.5zM694 94h123h2h123v-99h-123h-2h-123v99z" />
    <glyph glyph-name="tomaan" unicode="&#xfe97;&#xfeee;&#xfee3;&#xfe8e;&#x646;&#x621;" horiz-adv-x="2291" 
d="M1852.5 -187.5q-63.5 -67.5 -199.5 -67.5h-111v108h111q67 0 103.5 14.5t51 45t14.5 81.5v6h-102q-88 0 -140.5 51.5t-52.5 145.5q0 64 24.5 116t68 81.5t99.5 29.5q59 0 103.5 -28.5t69 -80t24.5 -118.5v-89h145q96 0 96 64q0 45 -29 183l90 23q12 -51 22.5 -112.5
t10.5 -96.5q0 -44 -20.5 -82.5t-62.5 -62.5t-103 -24h-149v-6q0 -114 -63.5 -181.5zM59.5 265q19.5 65 49.5 122l79 -43q-54 -113 -54 -209q0 -86 42 -136t131 -50h100q65 0 101 13.5t51 44t15 84.5v449q0 66 33 104t105 38h32q70 0 104 -38t34 -103l1 -325q1 -49 6.5 -70
t24 -29.5t59.5 -8.5h29q44 0 54 42l30 108q22 81 70 126t116 45q54 0 96 -30.5t65 -83.5t23 -116q0 -77 -23 -126t-59 -71.5t-75 -22.5q-36 0 -73.5 14t-118.5 54q-21 -22 -48.5 -34.5t-55.5 -12.5h-31q-100 0 -141.5 56t-42.5 160v321q0 20 -9.5 28.5t-34.5 8.5h-31
q-27 0 -36 -8.5t-9 -28.5l1 -446q0 -117 -64 -183.5t-198 -66.5h-100q-85 0 -145.5 40.5t-91 108t-30.5 145.5q0 65 19.5 130zM324 446h110v-110h-110v110zM1248.5 97q27.5 -11 52.5 -11q31 0 47 24.5t16 88.5q0 59 -24 91.5t-68 32.5q-33 0 -58 -23.5t-38 -70.5l-23 -88
q68 -33 95.5 -44zM1643.5 127.5q24.5 -21.5 76.5 -21.5h102v92q0 56 -25.5 88.5t-77.5 32.5q-48 0 -74 -32.5t-26 -87.5q0 -50 24.5 -71.5zM1915 608h121h2h121v-106h-121h-2h-121v106z" />
    <glyph glyph-name="tomaan.001" unicode="&#xfe97;&#xfeee;&#xfee3;&#xfe8e;&#x646;&#x621;&#x621;" horiz-adv-x="2291" 
d="M1888 -3.5q-28 -32.5 -85.5 -51.5t-189.5 -49l-25 101q10 2 17.5 4t12.5 3q84 19 122.5 29.5t59 23.5t20.5 33v6h-100q-88 0 -140.5 51.5t-52.5 145.5q0 64 24.5 116t68 81.5t99.5 29.5q59 0 103.5 -28.5t69 -80t24.5 -118.5v-89h145q96 0 96 64q0 45 -29 183l90 23
q12 -51 22.5 -112.5t10.5 -96.5q0 -44 -20.5 -82.5t-62.5 -62.5t-103 -24h-149v-6q0 -61 -28 -93.5zM60 446q20 65 49 121l79 -43q-54 -113 -54 -208q0 -87 42 -137t131 -50h100q66 0 101.5 13.5t50.5 44t15 85.5v307q0 66 33 104t105 38h32q70 0 104 -38t34 -103l1 -283
q0 -48 6 -69.5t24 -29.5t60 -8h29q44 0 54 41l30 109q22 81 70.5 126t115.5 45q54 0 96 -31t65 -83.5t23 -115.5q0 -77 -23 -126t-59 -71.5t-75 -22.5q-36 0 -73.5 14t-118.5 54q-21 -22 -48 -34.5t-56 -12.5h-31q-100 0 -142 56t-42 159v279q0 20 -9.5 28.5t-34.5 8.5h-31
q-27 0 -36 -8.5t-9 -28.5l1 -304q0 -117 -64 -184t-198 -67h-100q-85 0 -145.5 41t-91 108t-30.5 146q0 65 20 130zM324 611h110v-111h-110v111zM1246.5 179q28.5 -11 54.5 -11q31 0 47 24t16 88q0 59 -23.5 91.5t-66.5 33.5q-34 0 -59.5 -23.5t-38.5 -71.5l-23 -87
q65 -33 93.5 -44zM1643.5 223.5q24.5 -21.5 76.5 -21.5h102v92q0 56 -25.5 88.5t-77.5 32.5q-48 0 -74 -32.5t-26 -87.5q0 -50 24.5 -71.5zM1915 683h121h2h121v-97h-121h-2h-121v97z" />
    <glyph glyph-name="tomaan.002" unicode="&#xfe97;&#xfeee;&#xfee3;&#xfe8e;&#x646;&#x621;&#x621;&#x621;" horiz-adv-x="1846" 
d="M1377 400.5q45 -28.5 69.5 -80t24.5 -118.5v-89h144q96 0 96 63q0 45 -29 183l90 24q12 -52 23 -112.5t11 -94.5q0 -44 -21 -83.5t-63 -63.5t-103 -24h-149v-6q0 -114 -63.5 -181.5t-199.5 -67.5h-111v108h111q67 0 103.5 14.5t51 45t14.5 81.5v6h-78q-56 0 -92 8t-99 36
q-21 -23 -48.5 -36t-55.5 -13h-31q-100 0 -142 56t-42 160v321q0 20 -9.5 28.5t-34.5 8.5h-31q-27 0 -36 -8.5t-9 -28.5l1 -446q0 -117 -64 -183.5t-198 -66.5h-100q-85 0 -145.5 40.5t-91 108t-30.5 145.5q0 65 19.5 130t49.5 122l79 -43q-54 -113 -54 -209q0 -86 42 -136
t131 -50h100q65 0 101 13.5t51 44t15 84.5v449q0 66 33 104t105 38h32q70 0 104 -38t34 -103l1 -325q0 -48 6 -69.5t24 -30t60 -8.5h29q44 0 54 42l30 108q22 81 70 126t116 45q60 0 105 -28.5zM324 446h110v-110h-110v110zM1232 117.5q28 -6.5 66 -6.5h78v91q0 57 -25 89
t-77 32q-34 0 -59.5 -23.5t-37.5 -70.5l-24 -85q51 -20 79 -26.5zM1483 608h120h2h121v-106h-121h-2h-120v106z" />
    <glyph glyph-name="uni0621" unicode="&#x621;" horiz-adv-x="454" arabic-form="isolated" 
d="M20 72l117 34q-34 26 -53.5 62.5t-19.5 82.5q0 49 24 89.5t65.5 63t91.5 22.5q24 0 73 -9q33 -6 36 -7l-17 -92q-38 5 -41 5q-39 4 -55 4q-40 -1 -66.5 -25t-26.5 -61q0 -40 32 -64t86 -24q23 0 44 4l110 32l14 -99l-399 -118z" />
    <glyph glyph-name="uni0622" unicode="&#x622;" horiz-adv-x="277" arabic-form="isolated" 
d="M96 573h100v-573h-100v573zM-12 692q41 34 110 34h199v-84h-199q-39 0 -60 -18t-33 -50l-73 24q15 60 56 94z" />
    <glyph glyph-name="uni0623" unicode="&#x623;" horiz-adv-x="277" arabic-form="isolated" 
d="M96 573h100v-573h-100v573zM85 696q-19 13 -30.5 34t-11.5 46q0 43 30.5 70.5t73.5 27.5q15 0 35.5 -4.5t25.5 -5.5l-9 -53q-38 8 -57 8q-25 -1 -39.5 -13t-14.5 -31q0 -23 19.5 -38t50.5 -15q13 0 19 1l66 19l4 -55l-212 -62l-3 55z" />
    <glyph glyph-name="uni0624" unicode="&#x624;" horiz-adv-x="490" arabic-form="isolated" 
d="M280.5 -129q36.5 15 50.5 46.5t14 85.5h-102q-87 0 -140 52t-53 145q0 64 24.5 116t68 81.5t99.5 29.5q60 0 104.5 -28.5t69 -80t24.5 -118.5v-196q0 -117 -63 -186.5t-201 -69.5h-111v108h111q68 0 104.5 15zM174 520q-41 31 -41 80q0 41 29 69t69 30q19 0 68 -11
l-9 -52q-38 7 -57 7q-25 -1 -40 -13.5t-15 -32.5q1 -21 20.5 -36t48.5 -15q6 0 20 2l67 19l3 -56l-211 -62l-4 56zM167 130.5q24 -21.5 76 -21.5h102v92q0 57 -25 89t-78 32q-48 0 -73.5 -32.5t-25.5 -87.5q0 -50 24 -71.5z" />
    <glyph glyph-name="uni0625" unicode="&#x625;" horiz-adv-x="249" arabic-form="isolated" 
d="M86 655h94l1 -655h-94zM68 -223q-19 14 -30 34.5t-11 46.5q0 41 28.5 68.5t68.5 29.5q24 0 68 -10l-9 -53q-38 8 -57 8q-25 -1 -39.5 -13t-14.5 -32q0 -23 19.5 -38t50.5 -15q7 0 19 2l66 19l4 -55l-212 -62l-4 55z" />
    <glyph glyph-name="uni0626" unicode="&#x626;" horiz-adv-x="751" arabic-form="isolated" 
d="M144 47q0 -88 42.5 -139.5t129.5 -51.5h101q88 0 125 25.5t41 84.5v7q0 8 -3.5 11.5t-15.5 6.5l-216 58q-15 46 -15 96q0 53 17.5 99.5t47.5 81.5q39 43 89.5 66.5t105.5 23.5q27 0 55.5 -4t48.5 -10l-22 -101q-40 11 -87 8q-72 -1 -119 -53q-25 -26 -35.5 -54.5
t-6.5 -62.5l172 -47q43 -13 61 -39t18 -72q0 -110 -68 -171.5t-193 -61.5h-101q-82 0 -142.5 40.5t-92 109t-31.5 148.5q0 56 19 123.5t48 131.5l85 -44q-58 -127 -58 -210zM177 421q-19 13 -30.5 34t-11.5 46q0 43 30.5 70.5t73.5 27.5q15 0 35.5 -4.5t25.5 -5.5l-9 -53
q-38 8 -57 8q-25 -1 -39.5 -13t-14.5 -31q0 -23 19.5 -38t50.5 -15q13 0 19 1l66 19l4 -55l-212 -62l-3 55z" />
    <glyph glyph-name="uni0627" unicode="&#x627;" horiz-adv-x="249" arabic-form="isolated" 
d="M86 655h94l1 -655h-94z" />
    <glyph glyph-name="uni0628" unicode="&#x628;" horiz-adv-x="909" arabic-form="isolated" 
d="M142.5 25q-43.5 25 -67.5 66.5t-24 91.5q0 9 2 29q3 21 13 69t18 84l88 -23q-27 -113 -29 -144q-1 -5 -1 -13q0 -36 26 -56.5t74 -20.5h431q46 0 69 24t23 59q0 37 -13.5 103t-15.5 75l90 23q33 -140 33 -204q0 -45 -21.5 -88.5t-62.5 -71.5t-98 -28h-435q-56 0 -99.5 25
zM401 -142h111v-110h-111v110z" />
    <glyph glyph-name="uni0629" unicode="&#x629;" horiz-adv-x="511" arabic-form="isolated" 
d="M288 466q65 -71 99 -112.5t54 -83.5t20 -86q0 -53 -28 -97t-75 -69.5t-102 -25.5t-102.5 25.5t-75.5 69.5t-28 97q0 46 18.5 87.5t46 76.5t73.5 83l-28 31l69 69zM111 676h107v-106h-107v106zM174 124.5q30 -25.5 82 -25.5q51 0 81 25.5t30 63.5q0 30 -24.5 65t-87.5 105
q-62 -66 -86.5 -100t-24.5 -70q0 -38 30 -63.5zM293 676h107v-106h-107v106z" />
    <glyph glyph-name="uni062A" unicode="&#x62a;" horiz-adv-x="909" arabic-form="isolated" 
d="M142.5 25q-43.5 25 -67.5 66.5t-24 91.5q0 9 2 29q3 21 13 69t18 84l88 -23q-27 -113 -29 -144q-1 -5 -1 -13q0 -36 26 -56.5t74 -20.5h431q46 0 69 24t23 59q0 37 -13.5 103t-15.5 75l90 23q33 -140 33 -204q0 -45 -21.5 -88.5t-62.5 -71.5t-98 -28h-435q-56 0 -99.5 25
zM314 447h106v-106h-106v106zM495 447h107v-106h-107v106z" />
    <glyph glyph-name="uni062B" unicode="&#x62b;" horiz-adv-x="909" arabic-form="isolated" 
d="M142.5 25q-43.5 25 -67.5 66.5t-24 91.5q0 9 2 29q3 21 13 69t18 84l88 -23q-27 -113 -29 -144q-1 -5 -1 -13q0 -36 26 -56.5t74 -20.5h431q46 0 69 24t23 59q0 37 -13.5 103t-15.5 75l90 23q33 -140 33 -204q0 -45 -21.5 -88.5t-62.5 -71.5t-98 -28h-435q-56 0 -99.5 25
zM313 435h107v-107h-107v107zM409 569h101v-101h-101v101zM499 435h107v-107h-107v107z" />
    <glyph glyph-name="uni062C" unicode="&#x62c;" horiz-adv-x="654" arabic-form="isolated" 
d="M576 -252h-253q-93 0 -161 34t-98 119q-14 38 -14 83q0 73 42 134.5t116 91.5l276 113q-206 79 -241 79q-27 0 -42.5 -13t-29.5 -50l-88 27q24 74 65 108.5t95 34.5q29 0 81.5 -19.5t151.5 -62.5l109 -46l19 -113l-360 -153q-51 -21 -76.5 -54.5t-25.5 -73.5q0 -22 8 -48
q16 -46 58.5 -64.5t114.5 -18.5h253v-108zM345 62h108v-107h-108v107z" />
    <glyph glyph-name="uni062D" unicode="&#x62d;" horiz-adv-x="654" arabic-form="isolated" 
d="M576 -252h-253q-93 0 -161 34t-98 119q-14 38 -14 83q0 73 42 134.5t116 91.5l276 113q-206 79 -241 79q-27 0 -42.5 -13t-29.5 -50l-88 27q24 74 65 108.5t95 34.5q29 0 81.5 -19.5t151.5 -62.5l109 -46l19 -113l-360 -153q-51 -21 -76.5 -54.5t-25.5 -73.5q0 -22 8 -48
q16 -46 58.5 -64.5t114.5 -18.5h253v-108z" />
    <glyph glyph-name="uni062E" unicode="&#x62e;" horiz-adv-x="699" arabic-form="isolated" 
d="M325 710v-110h-111v110h111zM50 -16q0 73 42 134.5t116 91.5l276 113q-206 79 -241 79q-27 0 -42.5 -13t-29.5 -50l-88 27q24 74 65 108.5t95 34.5q29 0 81.5 -19.5t151.5 -62.5l109 -46l19 -113l-360 -153q-51 -21 -76.5 -54.5t-25.5 -73.5q0 -22 8 -48
q16 -46 58.5 -64.5t114.5 -18.5h253v-108h-253q-93 0 -161 34t-98 119q-14 38 -14 83z" />
    <glyph glyph-name="uni062F" unicode="&#x62f;" horiz-adv-x="517" arabic-form="isolated" 
d="M433 269q34 -52 34 -113q0 -48 -23 -82q-29 -42 -71 -58t-95 -16h-53q-57 0 -102 17t-73 39l47 89q24 -15 52.5 -26t75.5 -11h52q36 0 57.5 6.5t32.5 23.5q7 10 7 23q0 21 -20 52l-16 25q-95 146 -137 207l80 60z" />
    <glyph glyph-name="uni0630" unicode="&#x630;" horiz-adv-x="517" arabic-form="isolated" 
d="M433 269q34 -52 34 -113q0 -48 -23 -82q-29 -42 -71 -58t-95 -16h-53q-57 0 -102 17t-73 39l47 89q24 -15 52.5 -26t75.5 -11h52q36 0 57.5 6.5t32.5 23.5q7 10 7 23q0 21 -20 52l-16 25q-95 146 -137 207l80 60zM212 706h111v-110h-111v110z" />
    <glyph glyph-name="uni0631" unicode="&#x631;" horiz-adv-x="378" arabic-form="isolated" 
d="M335 317v-282q0 -138 -70 -212.5t-202 -74.5h-63v108h63q65 0 104 17.5t56.5 56t17.5 105.5v282h94z" />
    <glyph glyph-name="uni0632" unicode="&#x632;" horiz-adv-x="378" arabic-form="isolated" 
d="M335 317v-282q0 -138 -70 -212.5t-202 -74.5h-63v108h63q65 0 104 17.5t56.5 56t17.5 105.5v282h94zM232 561h111v-110h-111v110z" />
    <glyph glyph-name="uni0633" unicode="&#x633;" horiz-adv-x="1233" arabic-form="isolated" 
d="M144 43q0 -87 42 -137t131 -50h100q66 0 102 14t50.5 45.5t14.5 87.5v314h95v-110q0 -55 22.5 -77t62.5 -22q43 0 62.5 19t19.5 61v129h94v-139q0 -37 18 -53t55 -17q40 1 59.5 20t16.5 51q-5 52 -30 176l91 23q12 -50 22.5 -111.5t10.5 -96.5q0 -43 -19 -82t-57.5 -63.5
t-93.5 -24.5q-34 0 -66.5 15.5t-56.5 46.5q-49 -62 -126 -62q-48 0 -85 26v-23q0 -119 -63.5 -187t-198.5 -68h-100q-85 0 -145.5 41t-91 108t-30.5 146q0 65 19.5 129.5t49.5 121.5l79 -43q-54 -113 -54 -208z" />
    <glyph glyph-name="uni0634" unicode="&#x634;" horiz-adv-x="1233" arabic-form="isolated" 
d="M144 43q0 -87 42 -137t131 -50h100q66 0 102 14t50.5 45.5t14.5 87.5v314h95v-110q0 -55 22.5 -77t62.5 -22q43 0 62.5 19t19.5 61v129h94v-139q0 -37 18 -53t55 -17q40 1 59.5 20t16.5 51q-5 52 -30 176l91 23q12 -50 22.5 -111.5t10.5 -96.5q0 -43 -19 -82t-57.5 -63.5
t-93.5 -24.5q-34 0 -66.5 15.5t-56.5 46.5q-49 -62 -126 -62q-48 0 -85 26v-23q0 -119 -63.5 -187t-198.5 -68h-100q-85 0 -145.5 41t-91 108t-30.5 146q0 65 19.5 129.5t49.5 121.5l79 -43q-54 -113 -54 -208zM737 551h107v-106h-107v106zM833 685h102v-101h-102v101z
M923 551h107v-106h-107v106z" />
    <glyph glyph-name="uni0635" unicode="&#x635;" horiz-adv-x="1276" arabic-form="isolated" 
d="M144 43q0 -87 42 -137t131 -50h100q66 0 102 14t50.5 45.5t14.5 87.5v314h95v-146q0 -26 9 -39.5t26 -19.5q60 88 109 166q51 78 100 112.5t116 34.5q60 0 102.5 -30t64.5 -80t22 -109q0 -61 -28 -107.5t-76.5 -72.5t-107.5 -26h-259q-43 0 -78 22v-19q0 -119 -63.5 -187
t-198.5 -68h-100q-85 0 -145.5 41t-91 108t-30.5 146q0 65 19.5 129.5t49.5 121.5l79 -43q-54 -113 -54 -208zM1016 108q57 0 87.5 24.5t30.5 73.5q0 52 -23 81.5t-72 29.5q-42 0 -68.5 -19.5t-69.5 -76.5q-11 -13 -52 -71l-30 -42h197z" />
    <glyph glyph-name="uni0636" unicode="&#x636;" horiz-adv-x="1276" arabic-form="isolated" 
d="M144 43q0 -87 42 -137t131 -50h100q66 0 102 14t50.5 45.5t14.5 87.5v314h95v-146q0 -26 9 -39.5t26 -19.5q60 88 109 166q51 78 100 112.5t116 34.5q60 0 102.5 -30t64.5 -80t22 -109q0 -61 -28 -107.5t-76.5 -72.5t-107.5 -26h-259q-43 0 -78 22v-19q0 -119 -63.5 -187
t-198.5 -68h-100q-85 0 -145.5 41t-91 108t-30.5 146q0 65 19.5 129.5t49.5 121.5l79 -43q-54 -113 -54 -208zM1016 108q57 0 87.5 24.5t30.5 73.5q0 52 -23 81.5t-72 29.5q-42 0 -68.5 -19.5t-69.5 -76.5q-11 -13 -52 -71l-30 -42h197zM957 616h111v-110h-111v110z" />
    <glyph glyph-name="uni0637" unicode="&#x637;" horiz-adv-x="730" arabic-form="isolated" 
d="M54 108h110l27 40l-1 507h94l1 -364q48 71 96 102.5t112 31.5q59 0 101.5 -30t64.5 -80.5t22 -108.5q0 -61 -28 -107.5t-76 -72.5t-108 -26h-415v108zM469 108q57 0 88 24.5t31 73.5q0 52 -23.5 81.5t-72.5 29.5q-42 0 -69.5 -20t-67.5 -76l-82 -113h196z" />
    <glyph glyph-name="uni0638" unicode="&#x638;" horiz-adv-x="730" arabic-form="isolated" 
d="M54 108h110l27 40l-1 507h94l1 -364q48 71 96 102.5t112 31.5q59 0 101.5 -30t64.5 -80.5t22 -108.5q0 -61 -28 -107.5t-76 -72.5t-108 -26h-415v108zM469 108q57 0 88 24.5t31 73.5q0 52 -23.5 81.5t-72.5 29.5q-42 0 -69.5 -20t-67.5 -76l-82 -113h196zM435 664h111
v-110h-111v110z" />
    <glyph glyph-name="uni0639" unicode="&#x639;" horiz-adv-x="619" arabic-form="isolated" 
d="M569 -253h-253q-80 0 -140 34.5t-93 93.5t-33 132q0 80 44.5 144.5t115.5 93.5q-29 27 -45 61.5t-16 72.5q0 52 25 96t68 70t94 26q45 0 75.5 -13t76.5 -43l23 -15l-45 -78q-57 31 -79 40t-52 9q-38 -1 -65.5 -27t-27.5 -64q0 -47 38.5 -78.5t118.5 -37.5l128 -1l-1 -108
l-210 2q-47 0 -85.5 -19t-60.5 -53t-22 -78q0 -69 44 -110.5t124 -41.5h253v-108z" />
    <glyph glyph-name="uni063A" unicode="&#x63a;" horiz-adv-x="619" arabic-form="isolated" 
d="M569 -253h-253q-80 0 -140 34.5t-93 93.5t-33 132q0 80 44.5 144.5t115.5 93.5q-29 27 -45 61.5t-16 72.5q0 52 25 96t68 70t94 26q45 0 75.5 -13t76.5 -43l23 -15l-45 -78q-57 31 -79 40t-52 9q-38 -1 -65.5 -27t-27.5 -64q0 -47 38.5 -78.5t118.5 -37.5l128 -1l-1 -108
l-210 2q-47 0 -85.5 -19t-60.5 -53t-22 -78q0 -69 44 -110.5t124 -41.5h253v-108zM281 767h111v-110h-111v110z" />
    <glyph glyph-name="uni0641" unicode="&#x641;" horiz-adv-x="911" arabic-form="isolated" 
d="M739 725v-110h-111v110h111zM66 284.5q11 51.5 20 89.5l88 -23q-29 -121 -32 -153q-1 -5 -1 -13q0 -36 26 -56.5t74 -20.5h366q76 0 109 11t44 41l-81 4q-75 5 -122 52t-47 127q0 55 24 99.5t64 70t87 25.5q51 0 91 -25.5t62.5 -70t22.5 -99.5v-94q0 -121 -57 -185
t-197 -64h-366q-56 0 -99.5 25t-67.5 66.5t-24 91.5q0 9 2 29q3 21 14 72.5zM684 269l85 -8v82q0 42 -21 66.5t-62 24.5q-39 0 -61 -25t-22 -66q0 -70 81 -74z" />
    <glyph glyph-name="uni0642" unicode="&#x642;" horiz-adv-x="739" arabic-form="isolated" 
d="M159 155.5q-16 -50.5 -16 -113.5q0 -67 16.5 -107.5t55 -60t106.5 -19.5h105q68 0 104.5 15t50 46t13.5 86h-101q-88 0 -141 52t-53 145q0 65 24.5 116.5t68.5 81t100 29.5q59 0 103.5 -28.5t69 -80t24.5 -118.5v-196q0 -117 -63 -186.5t-200 -69.5h-105
q-138 0 -204.5 76t-66.5 216q0 79 19.5 143.5t49.5 129.5l84 -41q-28 -65 -44 -115.5zM346 614h106v-106h-106v106zM416 129.5q24 -21.5 77 -21.5h101v92q0 57 -25 89.5t-77 32.5q-48 0 -74 -33t-26 -88q0 -50 24 -71.5zM528 614h106v-106h-106v106z" />
    <glyph glyph-name="uni0643" unicode="&#x643;" horiz-adv-x="854" arabic-form="isolated" 
d="M142.5 25q-43.5 25 -67.5 66.5t-24 91.5q0 9 2 29q3 21 13 69t18 84l88 -23q-27 -113 -29 -144q-1 -5 -1 -13q0 -36 26 -56.5t74 -20.5h359q37 0 57.5 14t20.5 37q0 29 -29 58l-207 208l26 123l341 150l39 -98l-303 -134l172 -176q27 -27 40.5 -60t13.5 -67
q0 -43 -20.5 -80.5t-59.5 -60t-92 -22.5h-358q-56 0 -99.5 25z" />
    <glyph glyph-name="uni0644" unicode="&#x644;" horiz-adv-x="678" arabic-form="isolated" 
d="M171.5 -211q-60.5 41 -91 108t-30.5 146q0 49 15 105.5t37 103.5l83 -38q-18 -40 -30 -86t-12 -85q0 -87 42 -137t132 -50h49q67 0 103 14t50.5 45.5t14.5 87.5l-1 658h94l1 -658q0 -120 -63 -187.5t-199 -67.5h-49q-85 0 -145.5 41z" />
    <glyph glyph-name="uni0645" unicode="&#x645;" horiz-adv-x="626" arabic-form="isolated" 
d="M50 161l86 68l44 -18l26 95q22 81 70 126t116 45q54 0 96 -30.5t65 -83t23 -116.5q0 -75 -22.5 -124t-58 -72.5t-76.5 -23.5q-35 0 -88 17t-143 53l-44 17v-375h-94v422zM421 134q31 0 47 24.5t16 88.5q0 59 -24 91.5t-68 32.5q-33 0 -57.5 -23.5t-38.5 -70.5l-26 -100
q119 -43 151 -43z" />
    <glyph glyph-name="uni0646" unicode="&#x646;" horiz-adv-x="729" arabic-form="isolated" 
d="M144 43q0 -87 42 -137t131 -50h100q66 0 102 14t50.5 45.5t14.5 87.5v314h95v-314q0 -119 -63.5 -187t-198.5 -68h-100q-85 0 -145.5 41t-91 108t-30.5 146q0 65 19.5 129.5t49.5 121.5l79 -43q-54 -113 -54 -208zM334 350h111v-110h-111v110z" />
    <glyph glyph-name="uni0647" unicode="&#x647;" horiz-adv-x="511" arabic-form="isolated" 
d="M288 466q65 -71 99 -112.5t54 -83.5t20 -86q0 -53 -28 -97t-75 -69.5t-102 -25.5t-102.5 25.5t-75.5 69.5t-28 97q0 46 18.5 87.5t46 76.5t73.5 83l-28 31l69 69zM174 124.5q30 -25.5 82 -25.5q51 0 81 25.5t30 63.5q0 30 -24.5 65t-87.5 105q-62 -66 -86.5 -100
t-24.5 -70q0 -38 30 -63.5z" />
    <glyph glyph-name="uni0648" unicode="&#x648;" horiz-adv-x="490" arabic-form="isolated" 
d="M280.5 -129q36.5 15 50.5 46.5t14 85.5h-102q-87 0 -140 52t-53 145q0 64 24.5 116t68 81.5t99.5 29.5q60 0 104.5 -28.5t69 -80t24.5 -118.5v-196q0 -117 -63 -186.5t-201 -69.5h-111v108h111q68 0 104.5 15zM167 130.5q24 -21.5 76 -21.5h102v92q0 57 -25 89t-78 32
q-48 0 -73.5 -32.5t-25.5 -87.5q0 -50 24 -71.5z" />
    <glyph glyph-name="uni0649" unicode="&#x649;" horiz-adv-x="751" arabic-form="isolated" 
d="M144 47q0 -88 42.5 -139.5t129.5 -51.5h101q88 0 125 25.5t41 84.5v7q0 8 -3.5 11.5t-15.5 6.5l-216 58q-15 46 -15 96q0 53 17.5 99.5t47.5 81.5q39 43 89.5 66.5t105.5 23.5q27 0 55.5 -4t48.5 -10l-22 -101q-40 11 -87 8q-72 -1 -119 -53q-25 -26 -35.5 -54.5
t-6.5 -62.5l172 -47q43 -13 61 -39t18 -72q0 -110 -68 -171.5t-193 -61.5h-101q-82 0 -142.5 40.5t-92 109t-31.5 148.5q0 56 19 123.5t48 131.5l85 -44q-58 -127 -58 -210z" />
    <glyph glyph-name="uni064A" unicode="&#x64a;" horiz-adv-x="751" arabic-form="isolated" 
d="M144 47q0 -88 42.5 -139.5t129.5 -51.5h101q88 0 125 25.5t41 84.5v7q0 8 -3.5 11.5t-15.5 6.5l-216 58q-15 46 -15 96q0 53 17.5 99.5t47.5 81.5q39 43 89.5 66.5t105.5 23.5q27 0 55.5 -4t48.5 -10l-22 -101q-40 11 -87 8q-72 -1 -119 -53q-25 -26 -35.5 -54.5
t-6.5 -62.5l172 -47q43 -13 61 -39t18 -72q0 -110 -68 -171.5t-193 -61.5h-101q-82 0 -142.5 40.5t-92 109t-31.5 148.5q0 56 19 123.5t48 131.5l85 -44q-58 -127 -58 -210z" />
    <glyph glyph-name="uni066E.init" unicode="&#x66e;" horiz-adv-x="323" 
d="M-5 108h105q42 0 62 17.5t20 48.5q0 27 -9 79t-21 102l91 23q12 -50 22.5 -111t10.5 -96q0 -44 -20 -83t-59 -63.5t-93 -24.5h-109v108z" />
    <glyph glyph-name="uni066E.medi" unicode="&#x66e;" horiz-adv-x="373" 
d="M269 317v-143q0 -36 18 -51t57 -15h34l6 -56l-6 -52h-34q-32 0 -66.5 14.5t-59.5 43.5q-25 -28 -61.5 -43t-74.5 -15h-87v108h87q48 0 70.5 18t22.5 58v133h94z" />
    <glyph glyph-name="uni066E.fina" unicode="&#x66e;" horiz-adv-x="965" 
d="M141.5 25q-43.5 25 -67.5 66.5t-24 91.5q0 9 2 29q5 39 32 153l87 -23l-7 -32q-20 -89 -22 -112q-1 -5 -1 -13q0 -36 26 -56.5t74 -20.5h433q48 0 70.5 18t22.5 58v133h94v-143q0 -36 18 -51t57 -15h34l6 -53l-6 -55h-34q-32 0 -66.5 15t-59.5 45q-24 -30 -60.5 -45
t-75.5 -15h-433q-56 0 -99.5 25z" />
    <glyph glyph-name="uni066F.fina" unicode="&#x66f;" horiz-adv-x="740" 
d="M159 155.5q-16 -50.5 -16 -113.5q0 -67 16.5 -107.5t55 -60t106.5 -19.5h105q68 0 104.5 15t50 45.5t13.5 84.5h-101q-88 0 -141 52t-53 145q0 64 24.5 116t68.5 81.5t100 29.5q59 0 103.5 -28.5t69 -80t24.5 -118.5v-89h56l6 -55l-6 -53h-56q0 -116 -63 -184.5
t-200 -68.5h-105q-138 0 -204.5 76t-66.5 216q0 79 19.5 143.5t49.5 129.5l84 -41q-28 -65 -44 -115.5zM416 127.5q24 -21.5 77 -21.5h101v92q0 57 -25 89t-77 32q-48 0 -74 -32.5t-26 -87.5q0 -50 24 -71.5z" />
    <glyph glyph-name="uni0671" unicode="&#x671;" horiz-adv-x="277" arabic-form="isolated" 
d="M96 573h100v-573h-100v573zM33 754l30 -39l28 42q23 33 43.5 49t49.5 16q37 0 60.5 -30t23.5 -70q0 -44 -25.5 -69.5t-63.5 -25.5h-44q-35 0 -55 8.5t-34.5 24.5t-48.5 60zM135 682h44q23 0 33 9t10 31q0 45 -38 45q-17 0 -28 -9t-27 -33l-27 -40q14 -3 33 -3z" />
    <glyph glyph-name="uni0679" unicode="&#x679;" horiz-adv-x="909" arabic-form="isolated" 
d="M142.5 25q-43.5 25 -67.5 66.5t-24 91.5q0 9 2 29q3 21 13 69t18 84l88 -23q-27 -113 -29 -144q-1 -5 -1 -13q0 -36 26 -56.5t74 -20.5h431q46 0 69 24t23 59q0 37 -13.5 103t-15.5 75l90 23q33 -140 33 -204q0 -45 -21.5 -88.5t-62.5 -71.5t-98 -28h-435q-56 0 -99.5 25
zM342 443l30 -38l23 34v146h46v-92q25 18 52 18q37 0 60.5 -30t23.5 -70q0 -44 -25.5 -69.5t-63.5 -25.5h-44q-35 0 -55 8.5t-34.5 24.5t-48.5 61zM444 372h44q23 0 33 8.5t10 30.5q0 45 -38 45q-17 0 -28 -8.5t-27 -32.5l-26 -40q12 -3 32 -3z" />
    <glyph glyph-name="uni067E" unicode="&#x67e;" horiz-adv-x="909" arabic-form="isolated" 
d="M142.5 25q-43.5 25 -67.5 66.5t-24 91.5q0 9 2 29q3 21 13 69t18 84l88 -23q-27 -113 -29 -144q-1 -5 -1 -13q0 -36 26 -56.5t74 -20.5h431q46 0 69 24t23 59q0 37 -13.5 103t-15.5 75l90 23q33 -140 33 -204q0 -45 -21.5 -88.5t-62.5 -71.5t-98 -28h-435q-56 0 -99.5 25
zM309 -92h106v-107h-106v107zM405 -232h101v-101h-101v101zM495 -92h106v-107h-106v107z" />
    <glyph glyph-name="uni0686" unicode="&#x686;" horiz-adv-x="654" arabic-form="isolated" 
d="M584 -314h-235q-108 0 -181.5 43t-103.5 136q-16 48 -16 101q0 83 43 149t129 101l264 107q-206 79 -241 79q-27 0 -42.5 -13t-29.5 -50l-88 27q24 74 65 108.5t95 34.5q29 0 81.5 -19.5t151.5 -62.5l109 -46l19 -113l-348 -149q-114 -48 -114 -148q0 -36 13 -72
q20 -58 65.5 -82t128.5 -24h235v-107zM276 74h98v-96h-98v96zM363 -63h95v-92h-95v92zM447 74h98v-96h-98v96z" />
    <glyph glyph-name="uni0695.fina" unicode="&#x695;" horiz-adv-x="418" 
d="M335 317v-143q0 -36 18 -51t57 -15h13l6 -55l-6 -53h-13q-46 0 -75 24q-3 -133 -73 -204.5t-199 -71.5h-63v108h63q65 0 104 17.5t56.5 56t17.5 105.5v282h94zM74 -345l62 -100l63 100l39 -31l-71 -113h-61l-71 113z" />
    <glyph glyph-name="uni0698" unicode="&#x698;" horiz-adv-x="421" arabic-form="isolated" 
d="M335 317v-282q0 -138 -70 -212.5t-202 -74.5h-63v108h63q65 0 104 17.5t56.5 56t17.5 105.5v282h94zM126 551h107v-106h-107v106zM222 685h101v-101h-101v101zM312 551h107v-106h-107v106z" />
    <glyph glyph-name="uni06A1.init" unicode="&#x6a1;" horiz-adv-x="459" 
d="M-5 108h161q76 0 109 11t44 41l-81 4q-75 5 -122 52t-47 127q0 55 24 99.5t64 70t87 25.5q51 0 91 -25.5t62.5 -70t22.5 -99.5v-94q0 -121 -57 -185t-197 -64h-161v108zM233 269l85 -8v82q0 42 -21 66.5t-62 24.5q-39 0 -61 -25t-22 -66q0 -70 81 -74z" />
    <glyph glyph-name="uni06A1.medi" unicode="&#x6a1;" horiz-adv-x="527" 
d="M-8 108h49q47 0 99 5q-69 56 -69 129q0 53 26 99t70.5 73.5t97.5 27.5q52 0 96 -27.5t69.5 -73.5t25.5 -99q0 -74 -68 -130q58 -4 98 -4h46l6 -54l-6 -54h-55q-42 0 -100 10.5t-113 30.5q-55 -20 -113.5 -30.5t-100.5 -10.5h-58v108zM190.5 175.5q25.5 -27.5 71.5 -43.5
q48 15 74.5 42.5t26.5 64.5q0 43 -28 70.5t-70 27.5q-43 0 -71.5 -27.5t-28.5 -70.5q0 -36 25.5 -63.5z" />
    <glyph glyph-name="uni06A1.fina" unicode="&#x6a1;" horiz-adv-x="948" 
d="M491 242q0 53 26 99t70.5 73.5t98.5 27.5q52 0 96 -27.5t69.5 -73.5t25.5 -99q0 -73 -69 -130q60 -4 99 -4h45l7 -54l-7 -54h-54q-43 0 -101 10.5t-113 30.5q-46 -17 -85.5 -25t-120 -12t-237.5 -4q-56 0 -99.5 25t-67.5 66.5t-24 91.5q0 9 2 29q3 21 14 72.5t20 89.5
l88 -23q-29 -121 -32 -153q-1 -5 -1 -13q0 -36 26 -56.5t74 -20.5q171 0 230.5 1t88.5 4q-69 56 -69 129zM610.5 173.5q25.5 -27.5 72.5 -43.5q48 16 74.5 43.5t26.5 63.5q0 44 -28 71.5t-70 27.5q-44 0 -72.5 -27.5t-28.5 -71.5q0 -36 25.5 -63.5z" />
    <glyph glyph-name="uni06A4" unicode="&#x6a4;" horiz-adv-x="911" arabic-form="isolated" 
d="M141.5 25q-43.5 25 -67.5 66.5t-24 91.5q0 9 2 29q3 21 14 72.5t20 89.5l88 -23q-29 -121 -32 -153q-1 -5 -1 -13q0 -36 26 -56.5t74 -20.5h366q72 0 105 10t46 36l-75 4q-74 5 -123.5 52t-49.5 124q0 55 24 99.5t64 70t87 25.5q51 0 91 -25.5t62.5 -70t22.5 -99.5v-85
q0 -123 -57.5 -186t-196.5 -63h-366q-56 0 -99.5 25zM536 718h107v-106h-107v106zM622.5 280.5q19.5 -18.5 61.5 -21.5l85 -7v82q0 42 -21 66.5t-62 24.5q-39 0 -61 -25t-22 -66q0 -35 19.5 -53.5zM632 852h102v-101h-102v101zM722 718h107v-106h-107v106z" />
    <glyph glyph-name="uni06A9" unicode="&#x6a9;" horiz-adv-x="854" arabic-form="isolated" 
d="M142.5 25q-43.5 25 -67.5 66.5t-24 91.5q0 9 2 29q3 21 13 69t18 84l88 -23q-27 -113 -29 -144q-1 -5 -1 -13q0 -36 26 -56.5t74 -20.5h359q37 0 57.5 14t20.5 37q0 29 -29 58l-207 208l26 123l341 150l39 -98l-303 -134l172 -176q27 -27 40.5 -60t13.5 -67
q0 -43 -20.5 -80.5t-59.5 -60t-92 -22.5h-358q-56 0 -99.5 25z" />
    <glyph glyph-name="uni06AF" unicode="&#x6af;" horiz-adv-x="857" arabic-form="isolated" 
d="M142.5 25q-43.5 25 -67.5 66.5t-24 91.5q0 9 2 29q3 21 13 69t18 84l88 -23q-27 -113 -29 -144q-1 -5 -1 -13q0 -36 26 -56.5t74 -20.5h360q37 0 57.5 14t20.5 37q0 29 -29 58l-186 186l26 124l322 142l39 -98l-284 -126l152 -155q26 -27 39.5 -60t13.5 -67
q0 -43 -20.5 -80.5t-59.5 -60t-92 -22.5h-359q-56 0 -99.5 25zM502 640l258 113l16 -41l-280 -123z" />
    <glyph glyph-name="uni06B5.init" unicode="&#x6b5;" horiz-adv-x="263" 
d="M186 80.5q-27 -41.5 -66 -61t-76 -19.5h-49v108h42q41 0 61.5 18.5t20.5 61.5v467h94v-471q0 -62 -27 -103.5zM104 843l63 -99l63 99l38 -30l-70 -113h-62l-70 113z" />
    <glyph glyph-name="uni06B5.medi" unicode="&#x6b5;" horiz-adv-x="317" 
d="M-5 108h44q40 0 60 17t20 59v471h94v-471v-10v0q0 -36 18 -51t56 -15h35l5 -56l-5 -52h-35q-31 0 -63 14t-55 42q-26 -28 -59.5 -42t-65.5 -14h-49v108zM105 843l62 -99l63 99l39 -30l-71 -113h-61l-71 113z" />
    <glyph glyph-name="uni06B5.fina" unicode="&#x6b5;" horiz-adv-x="722" 
d="M171.5 -211q-60.5 41 -91 108t-30.5 146q0 49 15 105.5t37 103.5l83 -38q-18 -40 -30 -86t-12 -85q0 -87 42 -137t132 -50h49q67 0 103 14t50.5 45.5t14.5 87.5l-1 658h94l1 -480q0 -42 21 -57.5t58 -15.5h17l7 -56l-7 -52h-17q-44 0 -79 24v-21q0 -120 -63 -187.5
t-199 -67.5h-49q-85 0 -145.5 41zM515 843l63 -99l63 99l38 -30l-70 -113h-62l-70 113z" />
    <glyph glyph-name="uni06C2.fina" unicode="&#x6c2;" horiz-adv-x="566" 
d="M459.5 131q37.5 -23 93.5 -23h18l6 -53l-6 -55h-18q-79 0 -145.5 43.5t-90.5 140.5l-27 109l-54 -17q-94 -30 -94 -101q0 -20 8 -47l21 -68l-89 -31l-20 65q-12 39 -12 76q0 73 43 129t118 78l105 32l55 -32l38 -167q13 -56 50.5 -79zM149 490q-19 13 -30 33.5t-11 46.5
q0 43 30.5 70.5t72.5 27.5q11 0 27 -3t35 -7l-9 -53q-38 8 -57 8q-25 -1 -39.5 -13t-14.5 -31q0 -23 20 -38t51 -15q12 0 18 1l66 19l4 -55l-212 -62l-4 55z" />
    <glyph glyph-name="uni06C3.fina" unicode="&#x6c3;" horiz-adv-x="566" 
d="M459.5 131q37.5 -23 93.5 -23h18l6 -53l-6 -55h-18q-79 0 -145.5 43.5t-90.5 140.5l-27 109l-54 -17q-94 -30 -94 -101q0 -20 8 -47l21 -68l-89 -31l-20 65q-12 39 -12 76q0 73 43 129t118 78l105 32l55 -32l38 -167q13 -56 50.5 -79zM116 613h107v-106h-107v106z
M298 613h107v-106h-107v106z" />
    <glyph glyph-name="uni06C6" unicode="&#x6c6;" horiz-adv-x="490" arabic-form="isolated" 
d="M280.5 -129q36.5 15 50.5 46.5t14 85.5h-102q-87 0 -140 52t-53 145q0 64 24.5 116t68 81.5t99.5 29.5q60 0 104.5 -28.5t69 -80t24.5 -118.5v-196q0 -117 -63 -186.5t-201 -69.5h-111v108h111q68 0 104.5 15zM176 619l62 -99l63 99l39 -30l-71 -113h-61l-71 113z
M167 130.5q24 -21.5 76 -21.5h102v92q0 57 -25 89t-78 32q-48 0 -73.5 -32.5t-25.5 -87.5q0 -50 24 -71.5z" />
    <glyph glyph-name="uni06C7" unicode="&#x6c7;" horiz-adv-x="490" arabic-form="isolated" 
d="M280.5 -129q36.5 15 50.5 46.5t14 85.5h-102q-87 0 -140 52t-53 145q0 64 24.5 116t68 81.5t99.5 29.5q60 0 104.5 -28.5t69 -80t24.5 -118.5v-196q0 -117 -63 -186.5t-201 -69.5h-111v108h111q68 0 104.5 15zM174 528q-13 17 -20 38q-5 18 -5 32q0 32 18.5 58t50.5 37
q18 7 39 7q31 0 55 -17.5t34 -51.5q5 -18 5 -31q0 -33 -22 -59t-60 -39l-145 -47l-14 53zM167 130.5q24 -21.5 76 -21.5h102v92q0 57 -25 89t-78 32q-48 0 -73.5 -32.5t-25.5 -87.5q0 -50 24 -71.5zM218 541l44 14q21 7 33 19.5t12 27.5q0 9 -2 14q-5 14 -16.5 22t-27.5 8
q-14 0 -29 -6q-18 -7 -28 -19t-10 -26q0 -5 2 -13q10 -28 22 -41z" />
    <glyph glyph-name="uni06CC" unicode="&#x6cc;" horiz-adv-x="751" arabic-form="isolated" 
d="M144 47q0 -88 42.5 -139.5t129.5 -51.5h101q88 0 125 25.5t41 84.5v7q0 8 -3.5 11.5t-15.5 6.5l-216 58q-15 46 -15 96q0 53 17.5 99.5t47.5 81.5q39 43 89.5 66.5t105.5 23.5q27 0 55.5 -4t48.5 -10l-22 -101q-40 11 -87 8q-72 -1 -119 -53q-25 -26 -35.5 -54.5
t-6.5 -62.5l172 -47q43 -13 61 -39t18 -72q0 -110 -68 -171.5t-193 -61.5h-101q-82 0 -142.5 40.5t-92 109t-31.5 148.5q0 56 19 123.5t48 131.5l85 -44q-58 -127 -58 -210z" />
    <glyph glyph-name="uni06CE.init" unicode="&#x6ce;" horiz-adv-x="358" 
d="M69 612l39 30l63 -99l62 99l39 -30l-71 -113h-61zM-50 -143h106v-106h-106v106zM-5 108h127q95 0 95 64q0 26 -9 80.5t-20 102.5l91 23q12 -50 22.5 -111t10.5 -96q0 -44 -21 -83.5t-63 -63.5t-103 -24h-130v108zM132 -143h106v-106h-106v106z" />
    <glyph glyph-name="uni06CE.medi" unicode="&#x6ce;" horiz-adv-x="390" 
d="M59 500l39 30l62 -99l63 99l39 -30l-71 -113h-61zM-49 -143h106v-106h-106v106zM-5 108h109q48 0 70 18t22 58v133h95v-143q0 -36 18 -51t56 -15h52l6 -57l-6 -51h-52q-32 0 -66.5 14.5t-59.5 43.5q-24 -29 -60.5 -43.5t-74.5 -14.5h-109v108zM133 -143h106v-106h-106
v106z" />
    <glyph glyph-name="uni06CE.fina" unicode="&#x6ce;" horiz-adv-x="762" 
d="M173.5 -211.5q-60.5 40.5 -92 109t-31.5 148.5q0 56 19 123.5t48 131.5l85 -44q-58 -127 -58 -210q0 -88 42.5 -139.5t129.5 -51.5h101q75 0 118 20t43 51q2 28 -36 46q-59 27 -177 27v108h402l7 -57l-7 -51h-120q26 -23 26 -70q-1 -46 -29 -87.5t-85.5 -68t-141.5 -26.5
h-101q-82 0 -142.5 40.5zM220 404l63 -99l63 99l38 -30l-70 -113h-62l-70 113z" />
    <glyph glyph-name="uni06D5.fina" unicode="&#x6d5;" horiz-adv-x="616" 
d="M456 209q14 -56 52 -78.5t93 -22.5h20l6 -53l-6 -55h-20q-62 0 -120.5 28.5t-92.5 91.5q-27 -39 -66 -59.5t-82 -20.5q-49 0 -96 27q-45 25 -69.5 71t-24.5 99q0 54 25 97q17 28 37 47t62 42t120 56l-12 51l92 24zM143 233q0 -22 12 -42t32 -33q23 -14 49 -14q24 0 47 11
t40 31q11 13 16 27.5t5 35.5q0 7 -2 27l-9 39l-16 63q-77 -28 -112 -52t-48 -48q-14 -23 -14 -45z" />
    <glyph glyph-name="uni0671.fina" unicode="&#x671;" horiz-adv-x="284" arabic-form="final" 
d="M124.5 56q-41.5 56 -41.5 160l-1 357h94l1 -357q0 -48 6 -69.5t24 -30t60 -8.5h22l6 -55l-6 -53h-22q-101 0 -142.5 56zM20 755l30 -39l28 42q23 33 43.5 49t48.5 16q38 0 61 -30t23 -70q0 -44 -25 -69.5t-63 -25.5h-45q-35 0 -55 8.5t-34.5 24.5t-47.5 60zM121 683h45
q23 0 33 9t10 31t-9 33.5t-30 11.5q-16 0 -27 -9t-27 -33l-27 -40q12 -3 32 -3z" />
    <glyph glyph-name="uni067E.fina" unicode="&#x67e;" horiz-adv-x="965" arabic-form="final" 
d="M141.5 25q-43.5 25 -67.5 66.5t-24 91.5q0 9 2 29q5 39 32 153l87 -23l-7 -32q-20 -89 -22 -112q-1 -5 -1 -13q0 -36 26 -56.5t74 -20.5h433q48 0 70.5 18t22.5 58v133h94v-143q0 -36 18 -51t57 -15h34l6 -53l-6 -55h-34q-32 0 -66.5 15t-59.5 45q-24 -30 -60.5 -45
t-75.5 -15h-433q-56 0 -99.5 25zM309 -93h106v-106h-106v106zM405 -232h101v-101h-101v101zM495 -93h106v-106h-106v106z" />
    <glyph glyph-name="uni067E.init" unicode="&#x67e;" horiz-adv-x="362" arabic-form="initial" 
d="M-5 108h127q95 0 95 64q0 26 -9 80.5t-20 102.5l91 23q12 -50 22.5 -111t10.5 -96q0 -44 -21 -83.5t-63 -63.5t-103 -24h-130v108zM-47 -92h107v-107h-107v107zM49 -232h102v-101h-102v101zM139 -92h107v-107h-107v107z" />
    <glyph glyph-name="uni067E.medi" unicode="&#x67e;" horiz-adv-x="412" arabic-form="medial" 
d="M291 317v-143q0 -36 18 -51t56 -15h52l6 -57l-6 -51h-52q-32 0 -66.5 14.5t-59.5 43.5q-24 -29 -60.5 -43.5t-74.5 -14.5h-109v108h109q48 0 70 18t22 58v133h95zM-44 -92h106v-107h-106v107zM52 -231h101v-102h-101v102zM141 -92h107v-107h-107v107z" />
    <glyph glyph-name="uni0679.fina" unicode="&#x679;" horiz-adv-x="965" arabic-form="final" 
d="M141.5 25q-43.5 25 -67.5 66.5t-24 91.5q0 9 2 29q5 39 32 153l87 -23l-7 -32q-20 -89 -22 -112q-1 -5 -1 -13q0 -36 26 -56.5t74 -20.5h433q48 0 70.5 18t22.5 58v133h94v-143q0 -36 18 -51t57 -15h34l6 -53l-6 -55h-34q-32 0 -66.5 15t-59.5 45q-24 -30 -60.5 -45
t-75.5 -15h-433q-56 0 -99.5 25zM370 430l30 -38l23 34v146h46v-92q25 18 52 18q37 0 60.5 -30t23.5 -70q0 -44 -25.5 -69.5t-63.5 -25.5h-44q-35 0 -55 8.5t-34.5 24.5t-48.5 61zM472 359h44q23 0 33 8.5t10 30.5q0 45 -38 45q-17 0 -28 -8.5t-27 -32.5l-26 -40
q12 -3 32 -3z" />
    <glyph glyph-name="uni0679.init" unicode="&#x679;" horiz-adv-x="362" arabic-form="initial" 
d="M-5 108h127q95 0 95 64q0 26 -9 80.5t-20 102.5l91 23q12 -50 22.5 -111t10.5 -96q0 -44 -21 -83.5t-63 -63.5t-103 -24h-130v108zM36 541l30 -39l23 35v146h46v-92q21 18 51 18q38 0 61.5 -30t23.5 -70q0 -44 -25.5 -69.5t-63.5 -25.5h-44q-35 0 -55 8.5t-34.5 24.5
t-48.5 61zM138 469h44q23 0 33 9t10 31t-9 33.5t-30 11.5q-16 0 -27 -9t-27 -33l-27 -39q12 -4 33 -4z" />
    <glyph glyph-name="uni0679.medi" unicode="&#x679;" horiz-adv-x="412" arabic-form="medial" 
d="M291 317v-143q0 -36 18 -51t56 -15h52l6 -57l-6 -51h-52q-32 0 -66.5 14.5t-59.5 43.5q-24 -29 -60.5 -43.5t-74.5 -14.5h-109v108h109q48 0 70 18t22 58v133h95zM42 494l30 -38l23 35v145h46v-91q21 18 51 18q38 0 61.5 -30t23.5 -70q0 -44 -25.5 -69.5t-63.5 -25.5h-44
q-35 0 -55 8.5t-34.5 24.5t-48.5 60zM144 423h44q23 0 33 9t10 31t-9 33t-30 11q-17 0 -27.5 -8.5t-26.5 -32.5l-27 -40q14 -3 33 -3z" />
    <glyph glyph-name="uni06A4.fina" unicode="&#x6a4;" horiz-adv-x="948" arabic-form="final" 
d="M491 242q0 53 26 99t70.5 73.5t98.5 27.5q52 0 96 -27.5t69.5 -73.5t25.5 -99q0 -73 -69 -130q60 -4 99 -4h45l7 -54l-7 -54h-54q-43 0 -101 10.5t-113 30.5q-46 -17 -85.5 -25t-120 -12t-237.5 -4q-56 0 -99.5 25t-67.5 66.5t-24 91.5q0 9 2 29q3 21 14 72.5t20 89.5
l88 -23q-29 -121 -32 -153q-1 -5 -1 -13q0 -36 26 -56.5t74 -20.5q171 0 230.5 1t88.5 4q-69 56 -69 129zM537 619h106v-106h-106v106zM610.5 173.5q25.5 -27.5 72.5 -43.5q48 16 74.5 43.5t26.5 63.5q0 44 -28 71.5t-70 27.5q-44 0 -72.5 -27.5t-28.5 -71.5
q0 -36 25.5 -63.5zM633 753h101v-101h-101v101zM723 619h106v-106h-106v106z" />
    <glyph glyph-name="uni06A4.init" unicode="&#x6a4;" horiz-adv-x="459" arabic-form="initial" 
d="M-5 108h161q76 0 109 11t44 41l-81 4q-75 5 -122 52t-47 127q0 55 24 99.5t64 70t87 25.5q51 0 91 -25.5t62.5 -70t22.5 -99.5v-94q0 -121 -57 -185t-197 -64h-161v108zM84 721h107v-107h-107v107zM233 269l85 -8v82q0 42 -21 66.5t-62 24.5q-39 0 -61 -25t-22 -66
q0 -70 81 -74zM180 853h101v-98h-101v98zM269 721h107v-107h-107v107z" />
    <glyph glyph-name="uni06A4.medi" unicode="&#x6a4;" horiz-adv-x="527" arabic-form="medial" 
d="M-8 108h49q47 0 99 5q-69 56 -69 129q0 53 26 99t70.5 73.5t97.5 27.5q52 0 96 -27.5t69.5 -73.5t25.5 -99q0 -74 -68 -130q58 -4 98 -4h46l6 -54l-6 -54h-55q-42 0 -100 10.5t-113 30.5q-55 -20 -113.5 -30.5t-100.5 -10.5h-58v108zM119 621h106v-106h-106v106z
M190.5 175.5q25.5 -27.5 71.5 -43.5q48 15 74.5 42.5t26.5 64.5q0 43 -28 70.5t-70 27.5q-43 0 -71.5 -27.5t-28.5 -70.5q0 -36 25.5 -63.5zM215 755h101v-101h-101v101zM305 621h106v-106h-106v106z" />
    <glyph glyph-name="uni0686.fina" unicode="&#x686;" horiz-adv-x="740" arabic-form="final" 
d="M750 55l-5 -55h-31q-85 0 -140.5 48t-86.5 161l-2 6l-230 -102q-114 -49 -114 -148q0 -31 13 -72q20 -58 65.5 -82.5t128.5 -24.5h231v-107h-231q-107 0 -180.5 43.5t-103.5 136.5q-16 49 -16 103q0 80 41.5 145.5t125.5 102.5l269 116q-200 78 -239 78q-27 0 -42.5 -13
t-29.5 -51l-88 28q24 73 65.5 108t94.5 35q29 0 77.5 -18t154.5 -63q61 -27 110 -47l20 -114l-52 -23l3 -10q22 -74 57 -101t99 -27h31zM252 65h98v-96h-98v96zM337 -70h95v-92h-95v92zM419 65h99v-96h-99v96z" />
    <glyph glyph-name="uni0686.init" unicode="&#x686;" horiz-adv-x="640" arabic-form="initial" 
d="M-9 108h123q97 0 176 30t185 92q-219 87 -259 87q-27 0 -42.5 -13t-29.5 -50l-88 28q24 73 65.5 107.5t94.5 34.5q37 0 115 -28.5t220 -87.5l19 -8l20 -115l-36 -22q-92 -57 -151.5 -89t-132 -53t-156.5 -21h-123v108zM199 -92h107v-107h-107v107zM295 -232h101v-101
h-101v101zM385 -92h107v-107h-107v107z" />
    <glyph glyph-name="uni0686.medi" unicode="&#x686;" horiz-adv-x="679" arabic-form="medial" 
d="M506 24.5q-42 24.5 -60 72.5q-84 -47 -162 -72t-170 -25h-123v108h123q97 0 176 30t185 92q-219 87 -259 87q-27 0 -42.5 -13t-29.5 -50l-88 28q24 73 65.5 107.5t94.5 34.5q37 0 115 -28.5t220 -87.5l19 -8l20 -115l-75 -47q29 -30 85 -30h85l7 -53l-7 -55h-83
q-54 0 -96 24.5zM208 -92h106v-106h-106v106zM304 -231h101v-101h-101v101zM394 -92h106v-106h-106v106z" />
    <glyph glyph-name="uni0688.fina" unicode="&#x688;" horiz-adv-x="598" arabic-form="final" 
d="M440 276l9 -20q38 -83 66.5 -115.5t70.5 -32.5h17l5 -57l-5 -51h-17q-44 0 -79 19t-65 56q-56 -75 -168 -75h-51q-96 0 -173 58l47 89q2 -1 20.5 -12t47 -19t58.5 -8h51q35 0 57.5 7t35.5 25q8 11 8 25q0 22 -21 65l-106 230l86 46zM200 688l30 -39l23 35v146h46v-92
q25 18 52 18q37 0 60.5 -30t23.5 -70q0 -44 -25.5 -69.5t-63.5 -25.5h-44q-35 0 -55 8.5t-34.5 24.5t-48.5 61zM302 616h44q23 0 33 9t10 31q0 45 -38 45q-17 0 -28 -9t-27 -33l-27 -40q14 -3 33 -3z" />
    <glyph glyph-name="uni0698.fina" unicode="&#x698;" horiz-adv-x="418" arabic-form="final" 
d="M335 317v-143q0 -36 18 -51t57 -15h13l6 -55l-6 -53h-13q-46 0 -75 24q-3 -133 -73 -204.5t-199 -71.5h-63v108h63q65 0 104 17.5t56.5 56t17.5 105.5v282h94zM124 552h107v-106h-107v106zM220 686h102v-101h-102v101zM310 552h107v-106h-107v106z" />
    <glyph glyph-name="uni0691.fina" unicode="&#x691;" horiz-adv-x="418" arabic-form="final" 
d="M335 317v-143q0 -36 18 -51t57 -15h13l6 -55l-6 -53h-13q-46 0 -75 24q-3 -133 -73 -204.5t-199 -71.5h-63v108h63q65 0 104 17.5t56.5 56t17.5 105.5v282h94zM159 509q26 -34 30 -39l22 33v148h46v-92q25 18 52 18q38 0 61 -30t23 -70q0 -44 -25.5 -69.5t-63.5 -25.5
h-44q-35 0 -55 8.5t-34.5 24.5t-48.5 60zM260 437h44q24 0 34 9t10 31q0 45 -39 45q-17 0 -28 -9t-27 -33l-27 -40q14 -3 33 -3z" />
    <glyph glyph-name="uni06A9.fina" unicode="&#x6a9;" horiz-adv-x="917" arabic-form="final" 
d="M142.5 25q-43.5 25 -67.5 66.5t-24 91.5q0 9 2 29q3 21 13 69t18 84l88 -23q-27 -113 -29 -144q-1 -5 -1 -13q0 -36 26 -56.5t74 -20.5h324q37 0 56.5 13.5t19.5 35.5q0 27 -27 60l-173 208l26 123l341 150l39 -98l-303 -134l139 -176l3 -4q67 -86 96 -118.5t55 -46
t66 -13.5h18l6 -53l-6 -55h-18q-58 0 -97 21.5t-88 76.5q-17 -44 -56 -71t-98 -27h-323q-56 0 -99.5 25z" />
    <glyph glyph-name="uni06A9.init" unicode="&#x6a9;" horiz-adv-x="455" arabic-form="initial" 
d="M467 600l-303 -134l173 -176q53 -54 53 -127q0 -43 -20.5 -80.5t-59.5 -60t-92 -22.5h-223v108h224q38 0 58.5 14t20.5 37q0 28 -30 58l-207 208l27 123l341 150z" />
    <glyph glyph-name="uni06A9.medi" unicode="&#x6a9;" horiz-adv-x="537" arabic-form="medial" 
d="M467 600l-303 -134l139 -176l3 -4q66 -85 96 -118t56 -46.5t65 -13.5h19l6 -53l-6 -55h-19q-57 0 -96.5 21.5t-88.5 75.5q-17 -44 -56 -70.5t-98 -26.5h-189v108h190q38 0 57.5 13t19.5 36q0 29 -27 60l-174 208l27 123l341 150z" />
    <glyph glyph-name="uni06AF.fina" unicode="&#x6af;" horiz-adv-x="936" arabic-form="final" 
d="M869 571l-289 -128l123 -153l6 -7q66 -84 94.5 -116.5t54.5 -45.5t65 -13h18l6 -53l-6 -55h-18q-57 0 -97 21.5t-87 75.5q-18 -44 -57 -70.5t-98 -26.5h-334q-56 0 -99.5 25t-67.5 66.5t-24 91.5q0 9 2 29q3 21 13 69t18 84l88 -23q-27 -113 -29 -144q-1 -5 -1 -13
q0 -36 26 -56.5t74 -20.5h335q38 0 57 13t19 36q0 29 -27 60l-156 185l26 123l326 144zM519 640l258 113l16 -41l-280 -123z" />
    <glyph glyph-name="uni06AF.init" unicode="&#x6af;" horiz-adv-x="474" arabic-form="initial" 
d="M469 571l-284 -126l152 -155q26 -27 39.5 -60t13.5 -67q0 -43 -20.5 -80.5t-59.5 -60t-92 -22.5h-223v108h224q38 0 58.5 14t20.5 37q0 28 -30 58l-186 186l27 124l321 142zM119 640l258 113l16 -41l-280 -123z" />
    <glyph glyph-name="uni06AF.medi" unicode="&#x6af;" horiz-adv-x="537" arabic-form="medial" 
d="M469 571l-289 -128l123 -153l6 -7q66 -84 94.5 -116.5t54.5 -45.5t65 -13h19v-108h-19q-57 0 -97 21.5t-87 75.5q-18 -44 -57 -70.5t-98 -26.5h-189v108h190q38 0 57.5 13.5t19.5 36.5q0 28 -27 59l-157 185l26 123l326 144zM119 640l258 113l16 -41l-280 -123z" />
    <glyph glyph-name="uni06BA.fina" unicode="&#x6ba;" horiz-adv-x="769" arabic-form="final" 
d="M679 24v-21q0 -119 -63.5 -187t-198.5 -68h-100q-85 0 -145.5 41t-91 108t-30.5 146q0 65 19.5 129.5t49.5 121.5l79 -43q-54 -113 -54 -208q0 -87 42 -137t131 -50h100q66 0 102 14t50.5 45.5t14.5 87.5v314h95v-136q0 -41 21 -57t57 -16h17l7 -56l-7 -52h-17
q-46 0 -78 24z" />
    <glyph glyph-name="uni06C1.init" unicode="&#x6c1;" horiz-adv-x="378" arabic-form="initial" 
d="M-5 108h153q96 0 96 64q0 45 -29 183l90 23q12 -51 22.5 -112.5t10.5 -96.5q0 -44 -20.5 -82.5t-62.5 -62.5t-103 -24h-157v108zM65 -220q4 18 22 50.5t62 100.5l50 -33q-50 -80 -59 -98q25 -3 42 -22t17 -45q0 -29 -20 -49.5t-48 -20.5q-30 0 -50 20.5t-20 49.5t4 47z
" />
    <glyph glyph-name="uni06BE.init" unicode="&#x6be;" horiz-adv-x="728" arabic-form="initial" 
d="M500 512l154 -237q35 -53 35 -110q0 -58 -35 -99q-30 -36 -85.5 -52.5t-147.5 -16.5q-88 0 -169 30q-82 -27 -178 -27h-79v108h91q21 0 32 1q-58 58 -58 133q0 56 26 103.5t71 75.5t99 28q52 0 96.5 -27.5t70.5 -75t26 -103.5q0 -77 -58 -137h21q143 0 170 29
q11 13 11 29q0 23 -20 54l-153 235zM179 174.5q25 -27.5 71 -44.5q50 17 77 44.5t27 63.5q0 46 -27 75.5t-72 29.5q-46 0 -73.5 -29.5t-27.5 -75.5q0 -36 25 -63.5z" />
    <glyph glyph-name="uni06C7.fina" unicode="&#x6c7;" horiz-adv-x="490" arabic-form="final" 
d="M280.5 -132q36.5 15 50.5 46.5t14 85.5h-102q-87 0 -140 52t-53 145q0 64 24.5 116t68 81.5t99.5 29.5q60 0 104.5 -28.5t69 -80t24.5 -118.5v-89h55l7 -55l-7 -53h-55q0 -117 -63 -186t-201 -69h-111v108h111q68 0 104.5 15zM173 540q-13 18 -19 38q-5 18 -5 33
q0 32 18.5 58t50.5 37q23 7 38 7q31 0 55 -18t35 -51q5 -18 5 -31q0 -33 -22 -59t-60 -39l-145 -48l-14 53zM167 127.5q24 -21.5 76 -21.5h102v92q0 57 -25 89t-78 32q-48 0 -73.5 -32.5t-25.5 -87.5q0 -50 24 -71.5zM217 554l45 14q22 7 33.5 19t11.5 27q0 9 -2 14
q-5 14 -16.5 22t-27.5 8q-14 0 -29 -6q-18 -7 -28 -19t-10 -26q0 -5 2 -13q10 -28 21 -40z" />
    <glyph glyph-name="uni06C6.fina" unicode="&#x6c6;" horiz-adv-x="490" arabic-form="final" 
d="M280.5 -132q36.5 15 50.5 46.5t14 85.5h-102q-87 0 -140 52t-53 145q0 64 24.5 116t68 81.5t99.5 29.5q60 0 104.5 -28.5t69 -80t24.5 -118.5v-89h55l7 -55l-7 -53h-55q0 -117 -63 -186t-201 -69h-111v108h111q68 0 104.5 15zM161 618l62 -99l63 99l39 -30l-71 -113h-61
l-71 113zM167 127.5q24 -21.5 76 -21.5h102v92q0 57 -25 89t-78 32q-48 0 -73.5 -32.5t-25.5 -87.5q0 -50 24 -71.5z" />
    <glyph glyph-name="uni06C9.fina" unicode="&#x6c9;" horiz-adv-x="490" arabic-form="final" 
d="M280.5 -132q36.5 15 50.5 46.5t14 85.5h-102q-87 0 -140 52t-53 145q0 64 24.5 116t68 81.5t99.5 29.5q60 0 104.5 -28.5t69 -80t24.5 -118.5v-89h55l7 -55l-7 -53h-55q0 -117 -63 -186t-201 -69h-111v108h111q68 0 104.5 15zM198 625h61l71 -113l-39 -30l-63 99l-62 -99
l-39 30zM167 127.5q24 -21.5 76 -21.5h102v92q0 57 -25 89t-78 32q-48 0 -73.5 -32.5t-25.5 -87.5q0 -50 24 -71.5z" />
    <glyph glyph-name="uni06CC.fina" unicode="&#x6cc;" horiz-adv-x="762" arabic-form="final" 
d="M173.5 -211.5q-60.5 40.5 -92 109t-31.5 148.5q0 56 19 123.5t48 131.5l85 -44q-58 -127 -58 -210q0 -88 42.5 -139.5t129.5 -51.5h101q75 0 118 20t43 51q2 28 -36 46q-59 27 -177 27v108h402l7 -57l-7 -51h-120q26 -23 26 -70q-1 -46 -29 -87.5t-85.5 -68t-141.5 -26.5
h-101q-82 0 -142.5 40.5z" />
    <glyph glyph-name="uni06CC.init" unicode="&#x6cc;" horiz-adv-x="362" arabic-form="initial" 
d="M-5 108h127q95 0 95 64q0 26 -9 80.5t-20 102.5l91 23q12 -50 22.5 -111t10.5 -96q0 -44 -21 -83.5t-63 -63.5t-103 -24h-130v108zM-50 -143h106v-106h-106v106zM132 -143h106v-106h-106v106z" />
    <glyph glyph-name="uni06CC.medi" unicode="&#x6cc;" horiz-adv-x="412" arabic-form="medial" 
d="M291 317v-143q0 -36 18 -51t56 -15h52l6 -57l-6 -51h-52q-32 0 -66.5 14.5t-59.5 43.5q-24 -29 -60.5 -43.5t-74.5 -14.5h-109v108h109q48 0 70 18t22 58v133h95zM-49 -143h106v-106h-106v106zM133 -143h106v-106h-106v106z" />
    <glyph glyph-name="uniFDFC" unicode="&#xfdfc;" horiz-adv-x="1390" arabic-form="isolated" 
d="M1350 463v-282q0 -138 -70 -212.5t-202 -74.5h-22v108h22q65 0 104 17.5t56.5 56t17.5 105.5v282h94zM53.5 287q13.5 50 33.5 90l85 -46q-38 -81 -38 -141q0 -153 138 -153h33q67 0 103 14t50.5 45.5t14.5 87.5l-1 449q0 67 33.5 104.5t105.5 37.5h32q70 0 104 -38
t34 -103l1 -325q0 -49 5.5 -70t24 -29.5t60.5 -8.5h42q95 0 95 64q0 26 -9 80.5t-20 102.5l91 23q12 -48 22.5 -110t10.5 -97q0 -44 -21 -83.5t-63 -63.5t-103 -24h-45q-101 0 -143 56t-42 160l-1 321q0 20 -9 28.5t-34 8.5h-32q-26 0 -35 -8t-9 -29l1 -446
q0 -119 -63.5 -187t-199.5 -68h-33q-74 0 -126.5 36t-79 95.5t-26.5 129.5q0 47 13.5 97zM736 0h123h2h123v-107h-123h-2h-123v107z" />
    <glyph glyph-name="uni0622.fina" unicode="&#x622;" horiz-adv-x="284" arabic-form="final" 
d="M124.5 56q-41.5 56 -41.5 160l-1 357h94l1 -357q0 -48 6 -69.5t24 -30t60 -8.5h22l6 -55l-6 -53h-22q-101 0 -142.5 56zM95 726h198v-84h-198q-40 0 -61 -18t-32 -50l-73 24q32 128 166 128z" />
    <glyph glyph-name="uni0623.fina" unicode="&#x623;" horiz-adv-x="284" arabic-form="final" 
d="M124.5 56q-41.5 56 -41.5 160l-1 357h94l1 -357q0 -48 6 -69.5t24 -30t60 -8.5h22l6 -55l-6 -53h-22q-101 0 -142.5 56zM94 683q-20 14 -31 35t-11 46q0 41 29 68.5t69 29.5q24 0 68 -10l-9 -53q-38 8 -57 8q-25 -1 -40 -14t-15 -33q1 -21 20.5 -36t48.5 -15q6 0 20 2
l67 19l3 -55l-211 -62l-4 55z" />
    <glyph glyph-name="uni0624.fina" unicode="&#x624;" horiz-adv-x="490" arabic-form="final" 
d="M280.5 -132q36.5 15 50.5 46.5t14 85.5h-102q-87 0 -140 52t-53 145q0 64 24.5 116t68 81.5t99.5 29.5q60 0 104.5 -28.5t69 -80t24.5 -118.5v-89h55l7 -55l-7 -53h-55q0 -117 -63 -186t-201 -69h-111v108h111q68 0 104.5 15zM161 520q-40 30 -40 80q0 41 28.5 69
t68.5 30q19 0 68 -11l-9 -52q-38 7 -57 7q-25 -1 -39.5 -13t-14.5 -31q0 -22 19 -37.5t49 -15.5q6 0 20 2l67 19l4 -56l-212 -62l-4 56zM167 127.5q24 -21.5 76 -21.5h102v92q0 57 -25 89t-78 32q-48 0 -73.5 -32.5t-25.5 -87.5q0 -50 24 -71.5z" />
    <glyph glyph-name="uni0625.fina" unicode="&#x625;" horiz-adv-x="284" arabic-form="final" 
d="M124.5 56q-41.5 56 -41.5 160l-1 439h94l1 -439q0 -48 6 -69.5t24 -30t60 -8.5h22l6 -55l-6 -53h-22q-101 0 -142.5 56zM88 -208q-20 14 -31 35t-11 46q0 41 29 68.5t69 29.5q23 0 67 -10l-9 -53q-38 8 -57 8q-24 -1 -39 -13.5t-15 -31.5q0 -23 19.5 -38t50.5 -15
q7 0 21 2l65 19l3 -55l-212 -62l-3 55z" />
    <glyph glyph-name="uni0626.fina" unicode="&#x626;" horiz-adv-x="762" arabic-form="final" 
d="M173.5 -211.5q-60.5 40.5 -92 109t-31.5 148.5q0 56 19 123.5t48 131.5l85 -44q-58 -127 -58 -210q0 -88 42.5 -139.5t129.5 -51.5h101q75 0 118 20t43 51q2 28 -36 46q-59 27 -177 27v108h402l7 -57l-7 -51h-120q26 -23 26 -70q-1 -46 -29 -87.5t-85.5 -68t-141.5 -26.5
h-101q-82 0 -142.5 40.5zM244 418q-19 14 -30 35t-11 46q0 41 28.5 68.5t69.5 29.5q23 0 67 -10l-9 -53q-38 8 -57 8q-25 -1 -39.5 -13t-14.5 -32q0 -23 19.5 -38t49.5 -15q6 0 20 2l66 19l4 -55l-212 -62l-3 55z" />
    <glyph glyph-name="uni0626.init" unicode="&#x626;" horiz-adv-x="323" arabic-form="initial" 
d="M-5 108h105q42 0 62 17.5t20 48.5q0 27 -9 79t-21 102l91 23q12 -50 22.5 -111t10.5 -96q0 -44 -20 -83t-59 -63.5t-93 -24.5h-109v108zM59 520q-41 31 -41 80q0 41 29 69t69 30q24 0 68 -10l-9 -53q-38 8 -57 8q-25 -1 -40 -14t-15 -33q1 -21 20.5 -36t48.5 -15
q6 0 20 2l67 19l3 -56l-211 -62l-4 56z" />
    <glyph glyph-name="uni0626.medi" unicode="&#x626;" horiz-adv-x="373" arabic-form="medial" 
d="M269 317v-143q0 -36 18 -51t57 -15h34l6 -56l-6 -52h-34q-32 0 -66.5 14.5t-59.5 43.5q-25 -28 -61.5 -43t-74.5 -15h-87v108h87q48 0 70.5 18t22.5 58v133h94zM70 462q-19 13 -30.5 34t-11.5 46q0 42 31 70t73 28q11 0 27 -3t35 -7l-9 -53q-38 8 -57 8q-25 -1 -40 -13.5
t-15 -32.5q1 -23 20.5 -37.5t50.5 -14.5q5 0 19 2l66 19l3 -55l-211 -62l-4 55z" />
    <glyph glyph-name="uni0627.fina" unicode="&#x627;" horiz-adv-x="284" arabic-form="final" 
d="M124.5 56q-41.5 56 -41.5 160l-1 439h94l1 -439q0 -48 6 -69.5t24 -30t60 -8.5h22l6 -55l-6 -53h-22q-101 0 -142.5 56z" />
    <glyph glyph-name="uni0628.fina" unicode="&#x628;" horiz-adv-x="965" arabic-form="final" 
d="M141.5 25q-43.5 25 -67.5 66.5t-24 91.5q0 9 2 29q5 39 32 153l87 -23l-7 -32q-20 -89 -22 -112q-1 -5 -1 -13q0 -36 26 -56.5t74 -20.5h433q48 0 70.5 18t22.5 58v133h94v-143q0 -36 18 -51t57 -15h34l6 -53l-6 -55h-34q-32 0 -66.5 15t-59.5 45q-24 -30 -60.5 -45
t-75.5 -15h-433q-56 0 -99.5 25zM408 -141h111v-110h-111v110z" />
    <glyph glyph-name="uni0628.init" unicode="&#x628;" horiz-adv-x="323" arabic-form="initial" 
d="M-5 108h105q42 0 62 17.5t20 48.5q0 27 -9 79t-21 102l91 23q12 -50 22.5 -111t10.5 -96q0 -44 -20 -83t-59 -63.5t-93 -24.5h-109v108zM5 -142h111v-110h-111v110z" />
    <glyph glyph-name="uni0628.medi" unicode="&#x628;" horiz-adv-x="373" arabic-form="medial" 
d="M269 317v-143q0 -36 18 -51t57 -15h34l6 -56l-6 -52h-34q-32 0 -66.5 14.5t-59.5 43.5q-25 -28 -61.5 -43t-74.5 -15h-87v108h87q48 0 70.5 18t22.5 58v133h94zM3 -142h111v-110h-111v110z" />
    <glyph glyph-name="uni0629.fina" unicode="&#x629;" horiz-adv-x="616" arabic-form="final" 
d="M456 209q14 -56 52 -78.5t93 -22.5h20l6 -53l-6 -55h-20q-62 0 -120.5 28.5t-92.5 91.5q-27 -39 -66 -59.5t-82 -20.5q-49 0 -96 27q-45 25 -69.5 71t-24.5 99q0 54 25 97q17 28 37 47t62 42t120 56l-12 51l92 24zM139 719h106v-107h-106v107zM143 233q0 -22 12 -42
t32 -33q23 -14 49 -14q24 0 47 11t40 31q11 13 16 27.5t5 35.5q0 7 -2 27l-9 39l-16 63q-77 -28 -112 -52t-48 -48q-14 -23 -14 -45zM321 719h106v-107h-106v107z" />
    <glyph glyph-name="uni062A.fina" unicode="&#x62a;" horiz-adv-x="965" arabic-form="final" 
d="M141.5 25q-43.5 25 -67.5 66.5t-24 91.5q0 9 2 29q5 39 32 153l87 -23l-7 -32q-20 -89 -22 -112q-1 -5 -1 -13q0 -36 26 -56.5t74 -20.5h433q48 0 70.5 18t22.5 58v133h94v-143q0 -36 18 -51t57 -15h34l6 -53l-6 -55h-34q-32 0 -66.5 15t-59.5 45q-24 -30 -60.5 -45
t-75.5 -15h-433q-56 0 -99.5 25zM329 446h107v-106h-107v106zM511 446h107v-106h-107v106z" />
    <glyph glyph-name="uni062A.init" unicode="&#x62a;" horiz-adv-x="362" arabic-form="initial" 
d="M-5 108h127q95 0 95 64q0 26 -9 80.5t-20 102.5l91 23q12 -50 22.5 -111t10.5 -96q0 -44 -21 -83.5t-63 -63.5t-103 -24h-130v108zM34 600h106v-106h-106v106zM216 600h106v-106h-106v106z" />
    <glyph glyph-name="uni062A.medi" unicode="&#x62a;" horiz-adv-x="412" arabic-form="medial" 
d="M291 317v-143q0 -36 18 -51t56 -15h52l6 -57l-6 -51h-52q-32 0 -66.5 14.5t-59.5 43.5q-24 -29 -60.5 -43.5t-74.5 -14.5h-109v108h109q48 0 70 18t22 58v133h95zM37 538h106v-107h-106v107zM219 538h106v-107h-106v107z" />
    <glyph glyph-name="uni062B.fina" unicode="&#x62b;" horiz-adv-x="965" arabic-form="final" 
d="M141.5 25q-43.5 25 -67.5 66.5t-24 91.5q0 9 2 29q5 39 32 153l87 -23l-7 -32q-20 -89 -22 -112q-1 -5 -1 -13q0 -36 26 -56.5t74 -20.5h433q48 0 70.5 18t22.5 58v133h94v-143q0 -36 18 -51t57 -15h34l6 -53l-6 -55h-34q-32 0 -66.5 15t-59.5 45q-24 -30 -60.5 -45
t-75.5 -15h-433q-56 0 -99.5 25zM324 434h106v-106h-106v106zM420 568h101v-101h-101v101zM510 434h106v-106h-106v106z" />
    <glyph glyph-name="uni062B.init" unicode="&#x62b;" horiz-adv-x="362" arabic-form="initial" 
d="M-5 108h127q95 0 95 64q0 26 -9 80.5t-20 102.5l91 23q12 -50 22.5 -111t10.5 -96q0 -44 -21 -83.5t-63 -63.5t-103 -24h-130v108zM35 601h106v-107h-106v107zM131 735h101v-102h-101v102zM221 601h106v-107h-106v107z" />
    <glyph glyph-name="uni062B.medi" unicode="&#x62b;" horiz-adv-x="412" arabic-form="medial" 
d="M291 317v-143q0 -36 18 -51t56 -15h52l6 -57l-6 -51h-52q-32 0 -66.5 14.5t-59.5 43.5q-24 -29 -60.5 -43.5t-74.5 -14.5h-109v108h109q48 0 70 18t22 58v133h95zM28 538h106v-106h-106v106zM124 672h101v-101h-101v101zM214 538h106v-106h-106v106z" />
    <glyph glyph-name="uni062C.fina" unicode="&#x62c;" horiz-adv-x="730" arabic-form="final" 
d="M576 -252h-254q-93 0 -160.5 34t-97.5 119q-15 42 -15 84q0 73 42 134t116 91l277 113q-206 79 -241 79q-27 0 -43 -13t-30 -50l-88 27q25 74 66.5 108.5t94.5 34.5q29 0 81.5 -19.5t151.5 -62.5l109 -46l19 -113l-60 -25l3 -10q15 -50 36 -77t49.5 -37.5t71.5 -10.5h30
l6 -55l-6 -53h-30q-85 0 -140 47t-88 159l-2 7l-231 -98q-50 -21 -75.5 -54.5t-25.5 -73.5q0 -22 8 -48q16 -46 58.5 -64.5t113.5 -18.5h254v-108zM323 57h107v-107h-107v107z" />
    <glyph glyph-name="uni062C.init" unicode="&#x62c;" horiz-adv-x="640" arabic-form="initial" 
d="M-9 108h123q97 0 176 30t185 92q-219 87 -259 87q-27 0 -42.5 -13t-29.5 -50l-88 28q24 73 65.5 107.5t94.5 34.5q37 0 115 -28.5t220 -87.5l19 -8l20 -115l-36 -22q-92 -57 -151.5 -89t-132 -53t-156.5 -21h-123v108zM243 -121h111v-110h-111v110z" />
    <glyph glyph-name="uni062C.medi" unicode="&#x62c;" horiz-adv-x="679" arabic-form="medial" 
d="M506 24.5q-42 24.5 -60 72.5q-84 -47 -162 -72t-170 -25h-123v108h123q97 0 176 30t185 92q-219 87 -259 87q-27 0 -42.5 -13t-29.5 -50l-88 28q24 73 65.5 107.5t94.5 34.5q37 0 115 -28.5t220 -87.5l19 -8l20 -115l-75 -47q29 -30 85 -30h85l7 -53l-7 -55h-83
q-54 0 -96 24.5zM273 -120h111v-110h-111v110z" />
    <glyph glyph-name="uni062D.fina" unicode="&#x62d;" horiz-adv-x="730" arabic-form="final" 
d="M576 -252h-254q-93 0 -160.5 34t-97.5 119q-15 42 -15 84q0 73 42 134t116 91l277 113q-206 79 -241 79q-27 0 -43 -13t-30 -50l-88 27q25 74 66.5 108.5t94.5 34.5q29 0 81.5 -19.5t151.5 -62.5l109 -46l19 -113l-60 -25l3 -10q15 -50 36 -77t49.5 -37.5t71.5 -10.5h30
l6 -55l-6 -53h-30q-85 0 -140 47t-88 159l-2 7l-231 -98q-50 -21 -75.5 -54.5t-25.5 -73.5q0 -22 8 -48q16 -46 58.5 -64.5t113.5 -18.5h254v-108z" />
    <glyph glyph-name="uni062D.init" unicode="&#x62d;" horiz-adv-x="640" arabic-form="initial" 
d="M-9 108h123q97 0 176 30t185 92q-219 87 -259 87q-27 0 -42.5 -13t-29.5 -50l-88 28q24 73 65.5 107.5t94.5 34.5q37 0 115 -28.5t220 -87.5l19 -8l20 -115l-36 -22q-92 -57 -151.5 -89t-132 -53t-156.5 -21h-123v108z" />
    <glyph glyph-name="uni062D.medi" unicode="&#x62d;" horiz-adv-x="679" arabic-form="medial" 
d="M506 24.5q-42 24.5 -60 72.5q-84 -47 -162 -72t-170 -25h-123v108h123q97 0 176 30t185 92q-219 87 -259 87q-27 0 -42.5 -13t-29.5 -50l-88 28q24 73 65.5 107.5t94.5 34.5q37 0 115 -28.5t220 -87.5l19 -8l20 -115l-75 -47q29 -30 85 -30h85l7 -53l-7 -55h-83
q-54 0 -96 24.5z" />
    <glyph glyph-name="uni062E.fina" unicode="&#x62e;" horiz-adv-x="730" arabic-form="final" 
d="M576 -252h-254q-93 0 -160.5 34t-97.5 119q-15 42 -15 84q0 73 42 134t116 91l277 113q-206 79 -241 79q-27 0 -43 -13t-30 -50l-88 27q25 74 66.5 108.5t94.5 34.5q29 0 81.5 -19.5t151.5 -62.5l109 -46l19 -113l-60 -25l3 -10q15 -50 36 -77t49.5 -37.5t71.5 -10.5h30
l6 -55l-6 -53h-30q-85 0 -140 47t-88 159l-2 7l-231 -98q-50 -21 -75.5 -54.5t-25.5 -73.5q0 -22 8 -48q16 -46 58.5 -64.5t113.5 -18.5h254v-108zM208 710h111v-110h-111v110z" />
    <glyph glyph-name="uni062E.init" unicode="&#x62e;" horiz-adv-x="640" arabic-form="initial" 
d="M-9 108h123q97 0 176 30t185 92q-219 87 -259 87q-27 0 -42.5 -13t-29.5 -50l-88 28q24 73 65.5 107.5t94.5 34.5q37 0 115 -28.5t220 -87.5l19 -8l20 -115l-36 -22q-92 -57 -151.5 -89t-132 -53t-156.5 -21h-123v108zM174 627h111v-110h-111v110z" />
    <glyph glyph-name="uni062E.medi" unicode="&#x62e;" horiz-adv-x="679" arabic-form="medial" 
d="M506 24.5q-42 24.5 -60 72.5q-84 -47 -162 -72t-170 -25h-123v108h123q97 0 176 30t185 92q-219 87 -259 87q-27 0 -42.5 -13t-29.5 -50l-88 28q24 73 65.5 107.5t94.5 34.5q37 0 115 -28.5t220 -87.5l19 -8l20 -115l-75 -47q29 -30 85 -30h85l7 -53l-7 -55h-83
q-54 0 -96 24.5zM174 627h111v-110h-111v110z" />
    <glyph glyph-name="uni062F.fina" unicode="&#x62f;" horiz-adv-x="598" arabic-form="final" 
d="M440 276l9 -20q38 -83 66.5 -115.5t70.5 -32.5h17l5 -57l-5 -51h-17q-44 0 -79 19t-65 56q-56 -75 -168 -75h-51q-96 0 -173 58l47 89q2 -1 20.5 -12t47 -19t58.5 -8h51q35 0 57.5 7t35.5 25q8 11 8 25q0 22 -21 65l-106 230l86 46z" />
    <glyph glyph-name="uni0630.fina" unicode="&#x630;" horiz-adv-x="598" arabic-form="final" 
d="M440 276l9 -20q38 -83 66.5 -115.5t70.5 -32.5h17l5 -57l-5 -51h-17q-44 0 -79 19t-65 56q-56 -75 -168 -75h-51q-96 0 -173 58l47 89q2 -1 20.5 -12t47 -19t58.5 -8h51q35 0 57.5 7t35.5 25q8 11 8 25q0 22 -21 65l-106 230l86 46zM252 708h111v-110h-111v110z" />
    <glyph glyph-name="uni0631.fina" unicode="&#x631;" horiz-adv-x="418" arabic-form="final" 
d="M335 317v-143q0 -36 18 -51t57 -15h13l6 -55l-6 -53h-13q-46 0 -75 24q-3 -133 -73 -204.5t-199 -71.5h-63v108h63q65 0 104 17.5t56.5 56t17.5 105.5v282h94z" />
    <glyph glyph-name="uni0632.fina" unicode="&#x632;" horiz-adv-x="418" arabic-form="final" 
d="M335 317v-143q0 -36 18 -51t57 -15h13l6 -55l-6 -53h-13q-46 0 -75 24q-3 -133 -73 -204.5t-199 -71.5h-63v108h63q65 0 104 17.5t56.5 56t17.5 105.5v282h94zM227 560h111v-110h-111v110z" />
    <glyph glyph-name="uni0633.fina" unicode="&#x633;" horiz-adv-x="1322" arabic-form="final" 
d="M144 43q0 -87 42 -137t131 -50h100q66 0 102 14t50.5 45.5t14.5 87.5v314h95v-129q0 -43 19 -61.5t60 -18.5t60 18.5t19 61.5v129h94v-129q0 -80 80 -80q39 0 57 18.5t18 61.5v129h94v-130q0 -43 19 -61t63 -18h65l5 -57l-5 -51h-64q-38 0 -71 16t-55 46
q-18 -29 -54.5 -45.5t-71.5 -16.5q-37 0 -70 16t-58 46q-19 -29 -53 -45.5t-73 -16.5q-41 0 -78 20v-17q0 -119 -63.5 -187t-198.5 -68h-100q-85 0 -145.5 41t-91 108t-30.5 146q0 65 19.5 129.5t49.5 121.5l79 -43q-54 -113 -54 -208z" />
    <glyph glyph-name="uni0633.init" unicode="&#x633;" horiz-adv-x="778" arabic-form="initial" 
d="M-5 108h65q44 0 62.5 18.5t18.5 60.5v130h95v-139q0 -37 18 -53t56 -17q43 1 62 20t19 60v129h94v-139q0 -37 18 -53t55 -17q40 1 59.5 20t16.5 51q-5 52 -30 176l90 23q13 -52 23.5 -112.5t10.5 -95.5q0 -43 -19 -82t-57.5 -63.5t-93.5 -24.5q-34 0 -67 15.5t-56 46.5
q-49 -62 -127 -62q-34 0 -69 17.5t-55 44.5q-22 -30 -54.5 -46t-71.5 -16h-63v108z" />
    <glyph glyph-name="uni0633.medi" unicode="&#x633;" horiz-adv-x="874" arabic-form="medial" 
d="M383 16.5q-33 -16.5 -72 -16.5q-36 0 -72 16.5t-55 45.5q-22 -30 -54.5 -46t-71.5 -16h-63v108h65q44 0 62.5 18t18.5 61v130h95v-129q0 -44 18 -62t58 -18t58.5 18.5t18.5 61.5v129h94v-129q0 -80 80 -80q39 0 57 18.5t18 61.5v129h94v-130q0 -43 19 -61t63 -18h65
l5 -54l-5 -54h-64q-38 0 -71 16t-55 46q-18 -29 -54.5 -45.5t-71.5 -16.5q-37 0 -70 16t-58 46q-19 -29 -52 -45.5z" />
    <glyph glyph-name="uni0634.fina" unicode="&#x634;" horiz-adv-x="1322" arabic-form="final" 
d="M144 43q0 -87 42 -137t131 -50h100q66 0 102 14t50.5 45.5t14.5 87.5v314h95v-129q0 -43 19 -61.5t60 -18.5t60 18.5t19 61.5v129h94v-129q0 -80 80 -80q39 0 57 18.5t18 61.5v129h94v-130q0 -43 19 -61t63 -18h65l5 -57l-5 -51h-64q-38 0 -71 16t-55 46
q-18 -29 -54.5 -45.5t-71.5 -16.5q-37 0 -70 16t-58 46q-19 -29 -53 -45.5t-73 -16.5q-41 0 -78 20v-17q0 -119 -63.5 -187t-198.5 -68h-100q-85 0 -145.5 41t-91 108t-30.5 146q0 65 19.5 129.5t49.5 121.5l79 -43q-54 -113 -54 -208zM738 548h106v-107h-106v107zM834 682
h101v-102h-101v102zM924 548h106v-107h-106v107z" />
    <glyph glyph-name="uni0634.init" unicode="&#x634;" horiz-adv-x="778" arabic-form="initial" 
d="M-5 108h65q44 0 62.5 18.5t18.5 60.5v130h95v-139q0 -37 18 -53t56 -17q43 1 62 20t19 60v129h94v-139q0 -37 18 -53t55 -17q40 1 59.5 20t16.5 51q-5 52 -30 176l90 23q13 -52 23.5 -112.5t10.5 -95.5q0 -43 -19 -82t-57.5 -63.5t-93.5 -24.5q-34 0 -67 15.5t-56 46.5
q-49 -62 -127 -62q-34 0 -69 17.5t-55 44.5q-22 -30 -54.5 -46t-71.5 -16h-63v108zM295 551h106v-106h-106v106zM391 685h101v-101h-101v101zM481 551h106v-106h-106v106z" />
    <glyph glyph-name="uni0634.medi" unicode="&#x634;" horiz-adv-x="874" arabic-form="medial" 
d="M383 16.5q-33 -16.5 -72 -16.5q-36 0 -72 16.5t-55 45.5q-22 -30 -54.5 -46t-71.5 -16h-63v108h65q44 0 62.5 18t18.5 61v130h95v-129q0 -44 18 -62t58 -18t58.5 18.5t18.5 61.5v129h94v-129q0 -80 80 -80q39 0 57 18.5t18 61.5v129h94v-130q0 -43 19 -61t63 -18h65
l5 -54l-5 -54h-64q-38 0 -71 16t-55 46q-18 -29 -54.5 -45.5t-71.5 -16.5q-37 0 -70 16t-58 46q-19 -29 -52 -45.5zM293 548h107v-106h-107v106zM389 682h101v-101h-101v101zM479 548h107v-106h-107v106z" />
    <glyph glyph-name="uni0635.fina" unicode="&#x635;" horiz-adv-x="1325" arabic-form="final" 
d="M144 43q0 -87 42 -137t131 -50h100q66 0 102 14t50.5 45.5t14.5 87.5v314h95v-146q0 -26 9 -39.5t26 -19.5q60 88 109 166q51 78 100 112.5t116 34.5q60 0 102.5 -30t64.5 -80t22 -109q0 -37 -11 -70q25 -28 82 -28h29l8 -55l-8 -53h-30q-38 0 -73.5 16t-57.5 41
q-29 -27 -67.5 -42t-83.5 -15h-259q-43 0 -78 22v-19q0 -119 -63.5 -187t-198.5 -68h-100q-85 0 -145.5 41t-91 108t-30.5 146q0 65 19.5 129.5t49.5 121.5l79 -43q-54 -113 -54 -208zM1016 108q57 0 87.5 24.5t30.5 73.5q0 52 -23 81.5t-72 29.5q-42 0 -68.5 -19.5
t-69.5 -76.5q-11 -13 -52 -71l-30 -42h197z" />
    <glyph glyph-name="uni0635.init" unicode="&#x635;" horiz-adv-x="854" arabic-form="initial" 
d="M292 114q15 24 61 93l46 71q51 78 100.5 112.5t116.5 34.5q59 0 101.5 -30t64.5 -80.5t22 -108.5q0 -61 -28 -107.5t-76.5 -72.5t-107.5 -26h-258q-30 0 -66 13.5t-62 41.5q-28 -26 -65.5 -40.5t-73.5 -14.5h-72v108h73q43 0 68 15t25 47v147h94v-147q0 -41 37 -56z
M592 108q57 0 88 24.5t31 73.5q0 52 -23.5 81.5t-72.5 29.5q-41 0 -67.5 -19.5t-69.5 -76.5q-11 -13 -52 -71l-30 -42h196z" />
    <glyph glyph-name="uni0635.medi" unicode="&#x635;" horiz-adv-x="892" arabic-form="medial" 
d="M289 114q15 24 61 93l46 71q51 78 100.5 112.5t116.5 34.5q59 0 101.5 -30t64.5 -80.5t22 -108.5q0 -41 -12 -74q24 -24 77 -24h29l8 -55l-8 -53h-30q-37 0 -71.5 15t-56.5 39q-29 -26 -67 -40t-81 -14h-258q-30 0 -66 13.5t-63 41.5q-28 -26 -65 -40.5t-73 -14.5h-72
v108h73q43 0 68 15t25 47v147h94v-147q0 -41 37 -56zM589 108q57 0 87.5 24.5t30.5 73.5q0 52 -23 81.5t-72 29.5q-41 0 -68 -20t-69 -76q-21 -26 -65 -89l-18 -24h197z" />
    <glyph glyph-name="uni0636.fina" unicode="&#x636;" horiz-adv-x="1325" arabic-form="final" 
d="M144 43q0 -87 42 -137t131 -50h100q66 0 102 14t50.5 45.5t14.5 87.5v314h95v-146q0 -26 9 -39.5t26 -19.5q60 88 109 166q51 78 100 112.5t116 34.5q60 0 102.5 -30t64.5 -80t22 -109q0 -37 -11 -70q25 -28 82 -28h29l8 -55l-8 -53h-30q-38 0 -73.5 16t-57.5 41
q-29 -27 -67.5 -42t-83.5 -15h-259q-43 0 -78 22v-19q0 -119 -63.5 -187t-198.5 -68h-100q-85 0 -145.5 41t-91 108t-30.5 146q0 65 19.5 129.5t49.5 121.5l79 -43q-54 -113 -54 -208zM1016 108q57 0 87.5 24.5t30.5 73.5q0 52 -23 81.5t-72 29.5q-42 0 -68.5 -19.5
t-69.5 -76.5q-11 -13 -52 -71l-30 -42h197zM957 616h111v-110h-111v110z" />
    <glyph glyph-name="uni0636.init" unicode="&#x636;" horiz-adv-x="854" arabic-form="initial" 
d="M292 114q15 24 61 93l46 71q51 78 100.5 112.5t116.5 34.5q59 0 101.5 -30t64.5 -80.5t22 -108.5q0 -61 -28 -107.5t-76.5 -72.5t-107.5 -26h-258q-30 0 -66 13.5t-62 41.5q-28 -26 -65.5 -40.5t-73.5 -14.5h-72v108h73q43 0 68 15t25 47v147h94v-147q0 -41 37 -56z
M592 108q57 0 88 24.5t31 73.5q0 52 -23.5 81.5t-72.5 29.5q-41 0 -67.5 -19.5t-69.5 -76.5q-11 -13 -52 -71l-30 -42h196zM553 624h111v-110h-111v110z" />
    <glyph glyph-name="uni0636.medi" unicode="&#x636;" horiz-adv-x="892" arabic-form="medial" 
d="M289 114q15 24 61 93l46 71q51 78 100.5 112.5t116.5 34.5q59 0 101.5 -30t64.5 -80.5t22 -108.5q0 -41 -12 -74q24 -24 77 -24h29l8 -55l-8 -53h-30q-37 0 -71.5 15t-56.5 39q-29 -26 -67 -40t-81 -14h-258q-30 0 -66 13.5t-63 41.5q-28 -26 -65 -40.5t-73 -14.5h-72
v108h73q43 0 68 15t25 47v147h94v-147q0 -41 37 -56zM589 108q57 0 87.5 24.5t30.5 73.5q0 52 -23 81.5t-72 29.5q-41 0 -68 -20t-69 -76q-21 -26 -65 -89l-18 -24h197zM553 625h111v-110h-111v110z" />
    <glyph glyph-name="uni0637.fina" unicode="&#x637;" horiz-adv-x="765" arabic-form="final" 
d="M54 108h110l27 40l-1 507h94l1 -364q48 71 96 102.5t112 31.5q59 0 101.5 -30t64.5 -80.5t22 -108.5q0 -42 -14 -78q26 -20 72 -20h29l9 -55l-9 -53h-30q-36 0 -69 14t-55 37q-59 -51 -145 -51h-415v108zM469 108q57 0 88 24.5t31 73.5q0 52 -23.5 81.5t-72.5 29.5
q-42 0 -69.5 -20t-67.5 -76l-82 -113h196z" />
    <glyph glyph-name="uni0637.init" unicode="&#x637;" horiz-adv-x="671" arabic-form="initial" 
d="M-5 108h110l27 40l-1 507h94l1 -364q48 71 96 102.5t112 31.5q59 0 101.5 -30t64.5 -80.5t22 -108.5q0 -61 -28 -107.5t-76.5 -72.5t-107.5 -26h-415v108zM410 108q57 0 88 24.5t31 73.5q0 52 -23.5 81.5t-72.5 29.5q-42 0 -69.5 -20t-67.5 -76l-82 -113h196z" />
    <glyph glyph-name="uni0637.medi" unicode="&#x637;" horiz-adv-x="706" arabic-form="medial" 
d="M-5 108h110l27 40l-1 507h94l1 -364q48 71 96 102.5t112 31.5q59 0 101.5 -30t64.5 -80.5t22 -108.5q0 -42 -14 -79q25 -19 72 -19h29l8 -55l-8 -53h-30q-35 0 -68.5 14t-56.5 36q-59 -50 -144 -50h-415v108zM410 108q57 0 88 24.5t31 73.5q0 52 -23.5 81.5t-72.5 29.5
q-42 0 -69.5 -20t-67.5 -76l-82 -113h196z" />
    <glyph glyph-name="uni0638.fina" unicode="&#x638;" horiz-adv-x="765" arabic-form="final" 
d="M54 108h110l27 40l-1 507h94l1 -364q48 71 96 102.5t112 31.5q59 0 101.5 -30t64.5 -80.5t22 -108.5q0 -42 -14 -78q26 -20 72 -20h29l9 -55l-9 -53h-30q-36 0 -69 14t-55 37q-59 -51 -145 -51h-415v108zM469 108q57 0 88 24.5t31 73.5q0 52 -23.5 81.5t-72.5 29.5
q-42 0 -69.5 -20t-67.5 -76l-82 -113h196zM435 664h111v-110h-111v110z" />
    <glyph glyph-name="uni0638.init" unicode="&#x638;" horiz-adv-x="671" arabic-form="initial" 
d="M-5 108h110l27 40l-1 507h94l1 -364q48 71 96 102.5t112 31.5q59 0 101.5 -30t64.5 -80.5t22 -108.5q0 -61 -28 -107.5t-76.5 -72.5t-107.5 -26h-415v108zM410 108q57 0 88 24.5t31 73.5q0 52 -23.5 81.5t-72.5 29.5q-42 0 -69.5 -20t-67.5 -76l-82 -113h196zM383 664
h111v-110h-111v110z" />
    <glyph glyph-name="uni0638.medi" unicode="&#x638;" horiz-adv-x="706" arabic-form="medial" 
d="M-5 108h110l27 40l-1 507h94l1 -364q48 71 96 102.5t112 31.5q59 0 101.5 -30t64.5 -80.5t22 -108.5q0 -42 -14 -79q25 -19 72 -19h29l8 -55l-8 -53h-30q-35 0 -68.5 14t-56.5 36q-59 -50 -144 -50h-415v108zM410 108q57 0 88 24.5t31 73.5q0 52 -23.5 81.5t-72.5 29.5
q-42 0 -69.5 -20t-67.5 -76l-82 -113h196zM394 664h111v-110h-111v110z" />
    <glyph glyph-name="uni0639.fina" unicode="&#x639;" horiz-adv-x="583" arabic-form="final" 
d="M375 16.5q-39 16.5 -64.5 41t-50.5 61.5l-4 5l-4 -2q-57 -31 -83.5 -64.5t-26.5 -72.5q0 -20 8 -46q16 -47 58 -65t113 -18h196v-108h-196q-203 0 -257 153q-14 40 -14 78q0 68 39.5 128t111.5 101l-26 40l-83 126l54 102h85h176q39 0 68.5 -19t45 -49t15.5 -64
q0 -31 -13.5 -59t-39.5 -46l-127 -90q23 -22 55 -31.5t84 -9.5h92l7 -54l-7 -54h-117q-56 0 -95 16.5zM252 297l46 -72l130 94q18 14 18 31q0 13 -10.5 21.5t-28.5 8.5h-132h-75z" />
    <glyph glyph-name="uni0639.init" unicode="&#x639;" horiz-adv-x="523" arabic-form="initial" 
d="M473 0h-478v108h144q-43 51 -43 116q0 52 25 95.5t68 69.5t93 26q47 0 78.5 -13.5t77.5 -45.5l19 -12l-45 -78q-53 30 -75.5 39.5t-50.5 9.5q-40 0 -69 -26t-29 -64q0 -52 46.5 -84.5t144.5 -32.5h94v-108z" />
    <glyph glyph-name="uni0639.medi" unicode="&#x639;" horiz-adv-x="584" arabic-form="medial" 
d="M-5 108h46q112 0 174 19l-67 90q-39 53 -67 90l67 113h261q54 0 87 -36.5t33 -86.5q0 -56 -42 -97q-34 -32 -68 -62l-22 -20q29 -10 81 -10h111l7 -56l-7 -52h-127q-52 0 -90.5 12.5t-71.5 36.5q-42 -24 -100 -36.5t-142 -12.5h-63v108zM214.5 281q14.5 -19 26.5 -35
q46 -62 68 -89l69 68q21 23 44 44q14 12 14 26q0 12 -10 19.5t-28 7.5h-215q17 -22 31.5 -41z" />
    <glyph glyph-name="uni063A.fina" unicode="&#x63a;" horiz-adv-x="583" arabic-form="final" 
d="M375 16.5q-39 16.5 -64.5 41t-50.5 61.5l-4 5l-4 -2q-57 -31 -83.5 -64.5t-26.5 -72.5q0 -20 8 -46q16 -47 58 -65t113 -18h196v-108h-196q-203 0 -257 153q-14 40 -14 78q0 68 39.5 128t111.5 101l-26 40l-83 126l54 102h85h176q39 0 68.5 -19t45 -49t15.5 -64
q0 -31 -13.5 -59t-39.5 -46l-127 -90q23 -22 55 -31.5t84 -9.5h92l7 -54l-7 -54h-117q-56 0 -95 16.5zM252 297l46 -72l130 94q18 14 18 31q0 13 -10.5 21.5t-28.5 8.5h-132h-75zM273 682h111v-110h-111v110z" />
    <glyph glyph-name="uni063A.init" unicode="&#x63a;" horiz-adv-x="523" arabic-form="initial" 
d="M473 0h-478v108h144q-43 51 -43 116q0 52 25 95.5t68 69.5t93 26q47 0 78.5 -13.5t77.5 -45.5l19 -12l-45 -78q-53 30 -75.5 39.5t-50.5 9.5q-40 0 -69 -26t-29 -64q0 -52 46.5 -84.5t144.5 -32.5h94v-108zM229 622h111v-110h-111v110z" />
    <glyph glyph-name="uni063A.medi" unicode="&#x63a;" horiz-adv-x="584" arabic-form="medial" 
d="M-5 108h46q112 0 174 19l-67 90q-39 53 -67 90l67 113h261q54 0 87 -36.5t33 -86.5q0 -56 -42 -97q-34 -32 -68 -62l-22 -20q29 -10 81 -10h111l7 -56l-7 -52h-127q-52 0 -90.5 12.5t-71.5 36.5q-42 -24 -100 -36.5t-142 -12.5h-63v108zM214.5 281q14.5 -19 26.5 -35
q46 -62 68 -89l69 68q21 23 44 44q14 12 14 26q0 12 -10 19.5t-28 7.5h-215q17 -22 31.5 -41zM247 626h111v-110h-111v110z" />
    <glyph glyph-name="uni0641.fina" unicode="&#x641;" horiz-adv-x="948" arabic-form="final" 
d="M491 242q0 53 26 99t70.5 73.5t98.5 27.5q52 0 96 -27.5t69.5 -73.5t25.5 -99q0 -73 -69 -130q60 -4 99 -4h45l7 -54l-7 -54h-54q-43 0 -101 10.5t-113 30.5q-46 -17 -85.5 -25t-120 -12t-237.5 -4q-56 0 -99.5 25t-67.5 66.5t-24 91.5q0 9 2 29q3 21 14 72.5t20 89.5
l88 -23q-29 -121 -32 -153q-1 -5 -1 -13q0 -36 26 -56.5t74 -20.5q171 0 230.5 1t88.5 4q-69 56 -69 129zM610.5 173.5q25.5 -27.5 72.5 -43.5q48 16 74.5 43.5t26.5 63.5q0 44 -28 71.5t-70 27.5q-44 0 -72.5 -27.5t-28.5 -71.5q0 -36 25.5 -63.5zM627 625h111v-110h-111
v110z" />
    <glyph glyph-name="uni0641.init" unicode="&#x641;" horiz-adv-x="460" arabic-form="initial" 
d="M-5 108h161q76 0 109 11t44 41l-81 4q-75 5 -122 52t-47 127q0 55 24 99.5t64 70t87 25.5q51 0 91 -25.5t62.5 -70t22.5 -99.5v-94q0 -121 -57 -185t-197 -64h-161v108zM233 269l85 -8v82q0 42 -21 66.5t-62 24.5q-39 0 -61 -25t-22 -66q0 -70 81 -74zM179 726h111v-110
h-111v110z" />
    <glyph glyph-name="uni0641.medi" unicode="&#x641;" horiz-adv-x="527" arabic-form="medial" 
d="M-8 108h49q47 0 99 5q-69 56 -69 129q0 53 26 99t70.5 73.5t97.5 27.5q52 0 96 -27.5t69.5 -73.5t25.5 -99q0 -74 -68 -130q58 -4 98 -4h46l6 -54l-6 -54h-55q-42 0 -100 10.5t-113 30.5q-55 -20 -113.5 -30.5t-100.5 -10.5h-58v108zM190.5 175.5q25.5 -27.5 71.5 -43.5
q48 15 74.5 42.5t26.5 64.5q0 43 -28 70.5t-70 27.5q-43 0 -71.5 -27.5t-28.5 -70.5q0 -36 25.5 -63.5zM209 625h111v-110h-111v110z" />
    <glyph glyph-name="uni0642.fina" unicode="&#x642;" horiz-adv-x="740" arabic-form="final" 
d="M159 155.5q-16 -50.5 -16 -113.5q0 -67 16.5 -107.5t55 -60t106.5 -19.5h105q68 0 104.5 15t50 45.5t13.5 84.5h-101q-88 0 -141 52t-53 145q0 64 24.5 116t68.5 81.5t100 29.5q59 0 103.5 -28.5t69 -80t24.5 -118.5v-89h56l6 -55l-6 -53h-56q0 -116 -63 -184.5
t-200 -68.5h-105q-138 0 -204.5 76t-66.5 216q0 79 19.5 143.5t49.5 129.5l84 -41q-28 -65 -44 -115.5zM338 614h106v-106h-106v106zM416 127.5q24 -21.5 77 -21.5h101v92q0 57 -25 89t-77 32q-48 0 -74 -32.5t-26 -87.5q0 -50 24 -71.5zM520 614h106v-106h-106v106z" />
    <glyph glyph-name="uni0642.init" unicode="&#x642;" horiz-adv-x="459" arabic-form="initial" 
d="M-5 108h161q76 0 109 11t44 41l-81 4q-75 5 -122 52t-47 127q0 55 24 99.5t64 70t87 25.5q51 0 91 -25.5t62.5 -70t22.5 -99.5v-94q0 -121 -57 -185t-197 -64h-161v108zM85 722h107v-107h-107v107zM233 269l85 -8v82q0 42 -21 66.5t-62 24.5q-39 0 -61 -25t-22 -66
q0 -70 81 -74zM267 722h107v-107h-107v107z" />
    <glyph glyph-name="uni0642.medi" unicode="&#x642;" horiz-adv-x="527" arabic-form="medial" 
d="M-8 108h49q47 0 99 5q-69 56 -69 129q0 53 26 99t70.5 73.5t97.5 27.5q52 0 96 -27.5t69.5 -73.5t25.5 -99q0 -74 -68 -130q58 -4 98 -4h46l6 -54l-6 -54h-55q-42 0 -100 10.5t-113 30.5q-55 -20 -113.5 -30.5t-100.5 -10.5h-58v108zM122 620h106v-106h-106v106z
M190.5 175.5q25.5 -27.5 71.5 -43.5q48 15 74.5 42.5t26.5 64.5q0 43 -28 70.5t-70 27.5q-43 0 -71.5 -27.5t-28.5 -70.5q0 -36 25.5 -63.5zM303 620h107v-106h-107v106z" />
    <glyph glyph-name="uni0643.fina" unicode="&#x643;" horiz-adv-x="917" arabic-form="final" 
d="M142.5 25q-43.5 25 -67.5 66.5t-24 91.5q0 9 2 29q3 21 13 69t18 84l88 -23q-27 -113 -29 -144q-1 -5 -1 -13q0 -36 26 -56.5t74 -20.5h324q37 0 56.5 13.5t19.5 35.5q0 27 -27 60l-173 208l26 123l341 150l39 -98l-303 -134l139 -176l3 -4q67 -86 96 -118.5t55 -46
t66 -13.5h18l6 -53l-6 -55h-18q-58 0 -97 21.5t-88 76.5q-17 -44 -56 -71t-98 -27h-323q-56 0 -99.5 25z" />
    <glyph glyph-name="uni0643.init" unicode="&#x643;" horiz-adv-x="455" arabic-form="initial" 
d="M467 600l-303 -134l173 -176q53 -54 53 -127q0 -43 -20.5 -80.5t-59.5 -60t-92 -22.5h-223v108h224q38 0 58.5 14t20.5 37q0 28 -30 58l-207 208l27 123l341 150z" />
    <glyph glyph-name="uni0643.medi" unicode="&#x643;" horiz-adv-x="537" arabic-form="medial" 
d="M467 600l-303 -134l139 -176l3 -4q66 -85 96 -118t56 -46.5t65 -13.5h19l6 -53l-6 -55h-19q-57 0 -96.5 21.5t-88.5 75.5q-17 -44 -56 -70.5t-98 -26.5h-189v108h190q38 0 57.5 13t19.5 36q0 29 -27 60l-174 208l27 123l341 150z" />
    <glyph glyph-name="uni0644.fina" unicode="&#x644;" horiz-adv-x="722" arabic-form="final" 
d="M171.5 -211q-60.5 41 -91 108t-30.5 146q0 49 15 105.5t37 103.5l83 -38q-18 -40 -30 -86t-12 -85q0 -87 42 -137t132 -50h49q67 0 103 14t50.5 45.5t14.5 87.5l-1 658h94l1 -480q0 -42 21 -57.5t58 -15.5h17l7 -56l-7 -52h-17q-44 0 -79 24v-21q0 -120 -63 -187.5
t-199 -67.5h-49q-85 0 -145.5 41z" />
    <glyph glyph-name="uni0644.init" unicode="&#x644;" horiz-adv-x="263" arabic-form="initial" 
d="M186 80.5q-27 -41.5 -66 -61t-76 -19.5h-49v108h42q41 0 61.5 18.5t20.5 61.5v467h94v-471q0 -62 -27 -103.5z" />
    <glyph glyph-name="uni0644.medi" unicode="&#x644;" horiz-adv-x="317" arabic-form="medial" 
d="M-5 108h44q40 0 60 17t20 59v471h94v-471v-10v0q0 -36 18 -51t56 -15h35l5 -56l-5 -52h-35q-31 0 -63 14t-55 42q-26 -28 -59.5 -42t-65.5 -14h-49v108z" />
    <glyph glyph-name="uni0645.fina" unicode="&#x645;" horiz-adv-x="646" arabic-form="final" 
d="M657 55l-6 -55h-11q-67 0 -105 41q-22 -31 -52.5 -46.5t-63.5 -15.5q-35 0 -88 17t-143 53l-44 17v-369h-94v416l86 68l44 -18l26 95q22 81 70 126t116 45q54 0 96 -30.5t65 -83t23 -116.5q0 -39 6.5 -58t19.5 -26t38 -7h11zM421 86q31 0 47 24.5t16 88.5q0 59 -24 91.5
t-68 32.5q-33 0 -57.5 -23.5t-38.5 -70.5l-26 -100q119 -43 151 -43z" />
    <glyph glyph-name="uni0645.init" unicode="&#x645;" horiz-adv-x="530" arabic-form="initial" 
d="M-5 108h27q44 0 54 42l30 108q22 81 70 126t116 45q54 0 96 -30.5t65 -83.5t23 -116q0 -77 -23 -126.5t-58.5 -71.5t-75.5 -22q-37 0 -75.5 14.5t-115.5 53.5q-21 -22 -49 -34.5t-56 -12.5h-28v108zM266 97q30 -11 55 -11q31 0 47.5 24.5t16.5 88.5q0 59 -24.5 91.5
t-68.5 32.5q-33 0 -58 -23.5t-37 -70.5l-24 -89q63 -32 93 -43z" />
    <glyph glyph-name="uni0645.medi" unicode="&#x645;" horiz-adv-x="546" arabic-form="medial" 
d="M-5 108h27q44 0 54 42l30 108q22 81 70 126t116 45q54 0 96 -30.5t65 -83.5t23 -116q0 -38 6.5 -57.5t20 -26.5t37.5 -7h11l6 -53l-6 -55h-11q-67 0 -105 41q-22 -31 -52.5 -46.5t-63.5 -15.5q-37 0 -75.5 14.5t-115.5 53.5q-21 -22 -49 -34.5t-56 -12.5h-28v108zM266 97
q30 -11 55 -11q31 0 47.5 24.5t16.5 88.5q0 59 -24.5 91.5t-68.5 32.5q-33 0 -58 -23.5t-37 -70.5l-24 -89q63 -32 93 -43z" />
    <glyph glyph-name="uni0646.fina" unicode="&#x646;" horiz-adv-x="769" arabic-form="final" 
d="M679 24v-21q0 -119 -63.5 -187t-198.5 -68h-100q-85 0 -145.5 41t-91 108t-30.5 146q0 65 19.5 129.5t49.5 121.5l79 -43q-54 -113 -54 -208q0 -87 42 -137t131 -50h100q66 0 102 14t50.5 45.5t14.5 87.5v314h95v-136q0 -41 21 -57t57 -16h17l7 -56l-7 -52h-17
q-46 0 -78 24zM333 349h111v-110h-111v110z" />
    <glyph glyph-name="uni0646.init" unicode="&#x646;" horiz-adv-x="323" arabic-form="initial" 
d="M-5 108h105q42 0 62 17.5t20 48.5q0 27 -9 79t-21 102l91 23q12 -50 22.5 -111t10.5 -96q0 -44 -20 -83t-59 -63.5t-93 -24.5h-109v108zM96 604h111v-110h-111v110z" />
    <glyph glyph-name="uni0646.medi" unicode="&#x646;" horiz-adv-x="373" arabic-form="medial" 
d="M269 317v-143q0 -36 18 -51t57 -15h34l6 -56l-6 -52h-34q-32 0 -66.5 14.5t-59.5 43.5q-25 -28 -61.5 -43t-74.5 -15h-87v108h87q48 0 70.5 18t22.5 58v133h94zM88 542h111v-110h-111v110z" />
    <glyph glyph-name="uni0647.fina" unicode="&#x647;" horiz-adv-x="616" arabic-form="final" 
d="M456 209q14 -56 52 -78.5t93 -22.5h20l6 -53l-6 -55h-20q-62 0 -120.5 28.5t-92.5 91.5q-27 -39 -66 -59.5t-82 -20.5q-49 0 -96 27q-45 25 -69.5 71t-24.5 99q0 54 25 97q17 28 37 47t62 42t120 56l-12 51l92 24zM143 233q0 -22 12 -42t32 -33q23 -14 49 -14q24 0 47 11
t40 31q11 13 16 27.5t5 35.5q0 7 -2 27l-9 39l-16 63q-77 -28 -112 -52t-48 -48q-14 -23 -14 -45z" />
    <glyph glyph-name="uni0647.init" unicode="&#x647;" horiz-adv-x="728" arabic-form="initial" 
d="M500 512l154 -237q35 -53 35 -110q0 -58 -35 -99q-30 -36 -85.5 -52.5t-147.5 -16.5q-88 0 -169 30q-82 -27 -178 -27h-79v108h91q21 0 32 1q-58 58 -58 133q0 56 26 103.5t71 75.5t99 28q52 0 96.5 -27.5t70.5 -75t26 -103.5q0 -77 -58 -137h21q143 0 170 29
q11 13 11 29q0 23 -20 54l-153 235zM179 174.5q25 -27.5 71 -44.5q50 17 77 44.5t27 63.5q0 46 -27 75.5t-72 29.5q-46 0 -73.5 -29.5t-27.5 -75.5q0 -36 25 -63.5z" />
    <glyph glyph-name="uni0647.medi" unicode="&#x647;" horiz-adv-x="546" arabic-form="medial" 
d="M-5 108h53v89q0 113 53 177.5t146 64.5q52 0 96.5 -27.5t71.5 -75.5t27 -108q0 -19 -3 -39q-15 -94 -98 -140.5t-199 -48.5q1 -73 46 -108.5t140 -38.5v64q0 57 24.5 100.5t64 67t82.5 23.5h52l6 -53l-6 -55h-50q-35 0 -57 -22t-22 -66v-77l-80 -89q-132 0 -212.5 65
t-81.5 189h-53v108zM284 133.5q55 24.5 63 71.5q3 17 3 30q0 47 -28.5 73t-74.5 26q-55 0 -80 -33t-25 -104v-89q87 1 142 25.5z" />
    <glyph glyph-name="uni0648.fina" unicode="&#x648;" horiz-adv-x="490" arabic-form="final" 
d="M280.5 -132q36.5 15 50.5 46.5t14 85.5h-102q-87 0 -140 52t-53 145q0 64 24.5 116t68 81.5t99.5 29.5q60 0 104.5 -28.5t69 -80t24.5 -118.5v-89h55l7 -55l-7 -53h-55q0 -117 -63 -186t-201 -69h-111v108h111q68 0 104.5 15zM167 127.5q24 -21.5 76 -21.5h102v92
q0 57 -25 89t-78 32q-48 0 -73.5 -32.5t-25.5 -87.5q0 -50 24 -71.5z" />
    <glyph glyph-name="uni0649.fina" unicode="&#x649;" horiz-adv-x="762" arabic-form="final" 
d="M173.5 -211.5q-60.5 40.5 -92 109t-31.5 148.5q0 56 19 123.5t48 131.5l85 -44q-58 -127 -58 -210q0 -88 42.5 -139.5t129.5 -51.5h101q75 0 118 20t43 51q2 28 -36 46q-59 27 -177 27v108h402l7 -57l-7 -51h-120q26 -23 26 -70q-1 -46 -29 -87.5t-85.5 -68t-141.5 -26.5
h-101q-82 0 -142.5 40.5z" />
    <glyph glyph-name="uni064A.fina" unicode="&#x64a;" horiz-adv-x="762" arabic-form="final" 
d="M173.5 -211.5q-60.5 40.5 -92 109t-31.5 148.5q0 56 19 123.5t48 131.5l85 -44q-58 -127 -58 -210q0 -88 42.5 -139.5t129.5 -51.5h101q75 0 118 20t43 51q2 28 -36 46q-59 27 -177 27v108h402l7 -57l-7 -51h-120q26 -23 26 -70q-1 -46 -29 -87.5t-85.5 -68t-141.5 -26.5
h-101q-82 0 -142.5 40.5z" />
    <glyph glyph-name="uni064A.init" unicode="&#x64a;" horiz-adv-x="362" arabic-form="initial" 
d="M-5 108h127q95 0 95 64q0 26 -9 80.5t-20 102.5l91 23q12 -50 22.5 -111t10.5 -96q0 -44 -21 -83.5t-63 -63.5t-103 -24h-130v108zM-50 -143h106v-106h-106v106zM132 -143h106v-106h-106v106z" />
    <glyph glyph-name="uni064A.medi" unicode="&#x64a;" horiz-adv-x="412" arabic-form="medial" 
d="M291 317v-143q0 -36 18 -51t56 -15h52l6 -57l-6 -51h-52q-32 0 -66.5 14.5t-59.5 43.5q-24 -29 -60.5 -43.5t-74.5 -14.5h-109v108h109q48 0 70 18t22 58v133h95zM-49 -143h106v-106h-106v106zM133 -143h106v-106h-106v106z" />
    <glyph glyph-name=".notdef" horiz-adv-x="255" 
d="M38 429h179v-433h-179v433zM208 4v417h-161v-417h161z" />
    <glyph glyph-name=".null" 
 />
    <glyph glyph-name="nonmarkingreturn" unicode="&#xd;" horiz-adv-x="255" 
 />
    <glyph glyph-name="space" unicode=" " horiz-adv-x="230" 
 />
    <glyph glyph-name="exclam" unicode="!" horiz-adv-x="279" 
d="M186 212h-84l-11 505h105zM96 97.5q20 19.5 49 19.5t48.5 -19.5t19.5 -48.5q0 -28 -19.5 -48t-48.5 -20t-49 19.5t-20 48.5t20 48.5z" />
    <glyph glyph-name="quotedbl" unicode="&#x22;" horiz-adv-x="292" 
d="M280 691l-12 -184h-71l1 193v50h82v-59zM52 700l1 50h81v-59l-12 -184h-70v193z" />
    <glyph glyph-name="numbersign" unicode="#" horiz-adv-x="589" 
d="M137 200h-115v72h129l30 164h-122v72h136l38 203h76l-39 -203h119l39 203h75l-39 -203h103v-72h-116l-31 -164h110v-72h-123l-38 -200h-76l39 200h-119l-38 -200h-76zM344 272l32 164h-119l-32 -164h119z" />
    <glyph glyph-name="dollar" unicode="$" horiz-adv-x="565" 
d="M103.5 58q-52.5 58 -52.5 155h105q0 -65 33.5 -100.5t95.5 -35.5q58 0 91 28.5t33 78.5q0 53 -45 86q-20 15 -40.5 23.5t-50.5 18.5q-34 12 -54.5 21t-44.5 24q-49 30 -72.5 71.5t-23.5 97.5q0 80 48.5 131.5t132.5 61.5v106h74v-106q84 -11 130.5 -70t46.5 -157h-105
q0 65 -30 103t-82 38q-53 0 -81.5 -27.5t-28.5 -78.5q0 -50 37 -81q17 -14 38.5 -23.5t63.5 -26.5q54 -20 78 -33q58 -30 86 -73t28 -105q0 -82 -50.5 -133t-139.5 -60v-95h-73v95q-95 8 -147.5 66z" />
    <glyph glyph-name="percent" unicode="%" horiz-adv-x="511" 
d="M195 654v-121h-122v121h122zM343 696h95l-274 -727h-94zM323 125h122v-121h-122v121z" />
    <glyph glyph-name="ampersand" unicode="&#x26;" horiz-adv-x="632" 
d="M120.5 472.5q-16.5 35.5 -16.5 71.5q0 82 49 129.5t133 47.5q49 0 88.5 -20t62 -55.5t22.5 -79.5t-23 -81t-76 -75l-49 -37l149 -176q32 62 32 136h93q0 -127 -62 -210l104 -123h-124l-45 52q-37 -30 -84 -46t-99 -16q-69 0 -121 25t-80.5 70.5t-28.5 105.5q0 52 29 94.5
t106 97.5q-43 54 -59.5 89.5zM184.5 107q34.5 -32 92.5 -32q67 0 122 48l-164 194q-45 -35 -65 -64.5t-20 -59.5q0 -54 34.5 -86zM258 437l53 36q31 22 43 42t12 49q0 31 -23 51.5t-57 20.5q-37 0 -59 -25t-22 -64q0 -43 53 -110z" />
    <glyph glyph-name="quotesingle" unicode="'" horiz-adv-x="179" 
d="M131 691l-12 -184h-71l1 193v50h82v-59z" />
    <glyph glyph-name="parenleft" unicode="(" horiz-adv-x="394" 
d="M126 265q0 -155 64 -265t152 -186l-56 -68q-108 85 -182 216.5t-74 302.5q0 175 73.5 304t182.5 215l56 -68q-216 -191 -216 -451z" />
    <glyph glyph-name="parenright" unicode=")" horiz-adv-x="394" 
d="M290.5 569.5q73.5 -129.5 73.5 -304.5q0 -171 -74 -303t-182 -216l-56 68q217 189 217 451t-217 451l56 68q109 -85 182.5 -214.5z" />
    <glyph glyph-name="asterisk" unicode="*" horiz-adv-x="438" 
d="M163 477l-149 44l24 78l149 -57l-6 169h81l-7 -171l146 55l25 -78l-152 -44l98 -132l-65 -49l-90 142l-89 -137l-65 46z" />
    <glyph glyph-name="plus" unicode="+" horiz-adv-x="560" 
d="M330 385h192v-96h-192v-218h-103v218h-192v96h192v204h103v-204z" />
    <glyph glyph-name="comma" unicode="," horiz-adv-x="222" 
d="M67 20v95h102v-82q0 -52 -26 -105.5t-66 -86.5l-61 38q50 76 51 141z" />
    <glyph glyph-name="hyphen" unicode="-" horiz-adv-x="311" 
d="M278 261h-249v84h249v-84z" />
    <glyph glyph-name="period" unicode="." horiz-adv-x="310" 
d="M106 19.5q-20 20.5 -20 49.5t20 49t49 20t49.5 -20t20.5 -49t-20.5 -49.5t-49.5 -20.5t-49 20.5z" />
    <glyph glyph-name="slash" unicode="/" horiz-adv-x="400" 
d="M287 711h92l-286 -772h-92z" />
    <glyph glyph-name="zero" unicode="0" horiz-adv-x="494" 
d="M163.5 60.5q-38.5 22.5 -61 60.5t-22.5 82t22.5 82t61 60t83.5 22t83.5 -22t61 -59.5t22.5 -82.5q0 -44 -22.5 -82t-61 -60.5t-83.5 -22.5t-83.5 22.5zM194.5 148.5q21.5 -21.5 52.5 -21.5t51.5 21.5t20.5 54.5q0 32 -20.5 53.5t-51.5 21.5t-52.5 -21.5t-21.5 -53.5
q0 -33 21.5 -54.5z" />
    <glyph glyph-name="one" unicode="1" horiz-adv-x="254" 
d="M182 465q13 -107 13 -233v-42l-2 -190h-94l2 190v39q0 119 -11.5 215.5t-48.5 185.5l88 40q40 -98 53 -205z" />
    <glyph glyph-name="two" unicode="2" horiz-adv-x="487" 
d="M170 529q10 -48 34 -65.5t64 -17.5q32 0 53 17t21 52q0 12 -1 18l-18 121l94 16l18 -124q2 -11 2 -32q0 -52 -24.5 -92t-63.5 -62t-81 -22q-43 0 -77 17q3 -59 3 -165l-2 -190h-94l2 190v39q0 119 -11.5 215.5t-48.5 185.5l88 40q25 -62 42 -141z" />
    <glyph glyph-name="three" unicode="3" horiz-adv-x="669" 
d="M173 515q8 -46 29.5 -62.5t57.5 -16.5q28 0 46.5 17t18.5 51q0 11 -1 17l-16 109l94 15l16 -111l1 -10q8 -51 24 -69.5t44 -18.5q29 0 43.5 14t14.5 46q0 7 -2 25l-16 125l94 13l16 -125q2 -24 2 -35q0 -54 -20.5 -93t-55 -58.5t-75.5 -19.5q-68 0 -109 57
q-23 -27 -54 -42t-63 -15q-39 0 -70 16q2 -55 2 -154l-2 -190h-94l2 190v39q0 119 -11.5 215.5t-48.5 185.5l88 40q29 -69 45 -155z" />
    <glyph glyph-name="four" unicode="4" horiz-adv-x="616" 
d="M174 515q9 -41 24 -65t42 -38q-23 40 -23 86q0 52 25 96t67.5 70t93.5 26q45 0 75.5 -13t76.5 -43l23 -15l-45 -78q-55 30 -78 39.5t-53 9.5q-38 -1 -65.5 -27t-27.5 -64q0 -50 43 -82t132 -35h76v-106q-149 0 -232.5 11.5t-134.5 46.5q2 -51 2 -144l-2 -190h-94l2 190
v39q0 119 -11.5 215.5t-48.5 185.5l88 40q28 -67 45 -155z" />
    <glyph glyph-name="five" unicode="5" horiz-adv-x="608" 
d="M355 164q0 -17 -3 -34q8 -16 24 -25t39 -9q34 0 54.5 22.5t20.5 68.5q-2 69 -52.5 157t-148.5 181q-85 -93 -127 -177.5t-42 -150.5q0 -99 72 -99q36 0 58 21.5t22 62.5q0 6 -2 24l77 16q8 -32 8 -58zM77.5 381q48.5 103 141.5 205l-33 26l60 81q108 -84 183 -175.5
t112.5 -177.5t37.5 -158q0 -58 -23.5 -100t-62 -63.5t-82.5 -21.5q-30 0 -57.5 12.5t-47.5 34.5q-22 -22 -52.5 -34t-63.5 -12q-42 0 -79 22.5t-59.5 67t-22.5 105.5q0 85 48.5 188z" />
    <glyph glyph-name="six" unicode="6" horiz-adv-x="526" 
d="M379.5 324q-44.5 -42 -75 -82.5t-85.5 -120.5l-99 -145l-78 55l100 144q16 22 23 33q10 14 30.5 43t37.5 51q-42 2 -76.5 18.5t-59.5 46.5q-22 27 -33.5 58.5t-11.5 64.5q0 42 17 79.5t49 63.5q35 29 66.5 38t89.5 16l24 3l16 -89q-63 -12 -86.5 -19.5t-45.5 -27.5
q-16 -13 -25.5 -32.5t-9.5 -39.5q0 -31 21 -57q27 -32 71 -32q60 0 147 61q32 24 50 35l50 -83q-62 -40 -106.5 -82z" />
    <glyph glyph-name="seven" unicode="7" horiz-adv-x="597" 
d="M170 301q-28 91 -55 150t-85 166l82 52q52 -95 77.5 -151t49 -126.5t60.5 -206.5q32 123 55.5 195t46 121.5t68.5 137.5l15 29l83 -52l-12 -23q-56 -106 -81.5 -163t-53.5 -148.5t-76 -280.5h-88q-58 209 -86 300z" />
    <glyph glyph-name="eight" unicode="8" horiz-adv-x="597" 
d="M427 366q28 -91 55 -150t85 -166l-82 -52q-52 95 -77.5 151t-49 126.5t-60.5 206.5q-32 -123 -55.5 -195t-46 -121.5t-68.5 -137.5l-15 -29l-83 52l12 23q56 106 81.5 163t53.5 148.5t76 280.5h88q58 -209 86 -300z" />
    <glyph glyph-name="nine" unicode="9" horiz-adv-x="438" 
d="M284.5 110q-4.5 47 -5.5 180h-78q-78 0 -124.5 45.5t-46.5 133.5q0 60 21.5 108t60 75t88.5 27q79 0 125.5 -57.5t46.5 -158.5q0 -185 1 -250.5t6 -102t19 -100.5l-92 -19q-17 72 -21.5 119zM139.5 411q17.5 -15 61.5 -15h78v67q0 59 -18 84.5t-61 25.5q-78 0 -78 -106
q0 -41 17.5 -56z" />
    <glyph glyph-name="colon" unicode=":" horiz-adv-x="277" 
d="M89 309.5q-20 20.5 -20 49.5t20 49t49 20t49.5 -20t20.5 -49t-20.5 -49.5t-49.5 -20.5t-49 20.5zM89 114q20 20 49 20t49.5 -20t20.5 -49t-20.5 -49.5t-49.5 -20.5t-49 20.5t-20 49.5t20 49z" />
    <glyph glyph-name="semicolon" unicode=";" horiz-adv-x="316" 
d="M111 20v95h102v-82q0 -52 -26 -105.5t-66 -86.5l-61 38q50 76 51 141zM113.5 410q20.5 20 49.5 20t49.5 -20.5t20.5 -48.5q0 -29 -20.5 -49.5t-49.5 -20.5t-49.5 20.5t-20.5 49.5t20.5 49z" />
    <glyph glyph-name="less" unicode="&#x3c;" horiz-adv-x="508" 
d="M141 311l298 -117v-106l-407 183v83l407 183v-107z" />
    <glyph glyph-name="equal" unicode="=" horiz-adv-x="556" 
d="M488 388h-416v89h416v-89zM72 271h416v-87h-416v87z" />
    <glyph glyph-name="greater" unicode="&#x3e;" horiz-adv-x="520" 
d="M374 313l-311 120v104l419 -183v-83l-419 -183v105z" />
    <glyph glyph-name="question" unicode="?" horiz-adv-x="479" 
d="M187 293.5q13 35.5 50 73.5l60 62q39 44 39 93t-25 75.5t-72 26.5q-45 0 -73 -25.5t-28 -68.5h-105q1 84 56.5 133.5t149.5 49.5q96 0 149 -49.5t53 -138.5q0 -83 -76 -162q-19 -17 -55 -53q-36 -39 -36 -113h-101q1 61 14 96.5zM177 93.5q20 19.5 48 19.5t48 -19.5
t20 -47.5t-20 -48t-48 -20t-48 20t-20 48t20 47.5z" />
    <glyph glyph-name="at" unicode="@" horiz-adv-x="913" 
d="M108 455.5q52 107.5 147 174.5t219 67q122 0 209 -54.5t130 -156t38 -237.5q-2 -78 -28.5 -136.5t-72 -91t-102.5 -32.5q-42 0 -72.5 14.5t-44.5 52.5q-54 -65 -130 -65q-61 0 -99 40t-38 133q0 13 2 41q6 73 36 136.5t77.5 102t102.5 38.5q53 0 93 -19t53 -35l-23 -256
q-2 -18 -2 -47q0 -31 6 -46.5t17.5 -20.5t33.5 -5q53 0 86 52.5t35 142.5q6 183 -72 281t-237 98q-107 0 -184 -58.5t-117 -154.5t-40 -208q0 -173 81.5 -266.5t232.5 -93.5q38 0 83.5 10.5t73.5 25.5l18 -61q-34 -19 -83.5 -30.5t-97.5 -11.5q-128 0 -215 56t-129.5 158
t-40.5 239q2 116 54 223.5zM351 164q0 -52 18 -76t58 -24q30 0 52 22.5t42 70.5v4l22 240q-11 9 -22.5 12t-33.5 2q-54 -1 -89.5 -57t-44.5 -153q-2 -30 -2 -41z" />
    <glyph glyph-name="A" unicode="A" horiz-adv-x="658" 
d="M280 711h98l270 -711h-114l-62 175h-286l-62 -175h-113zM441 263l-112 315l-111 -315h223z" />
    <glyph glyph-name="B" unicode="B" horiz-adv-x="627" 
d="M77 711h237q120 0 180.5 -48.5t60.5 -142.5q0 -50 -27 -89t-77 -59q58 -16 90.5 -60t32.5 -106q0 -98 -63 -152t-179 -54h-255v711zM332 88q62 0 97 31.5t35 86.5q0 121 -129 121h-149v-239h146zM317 409q60 0 94.5 28.5t34.5 78.5q0 56 -32 81.5t-100 25.5h-128v-214
h131z" />
    <glyph glyph-name="C" unicode="C" horiz-adv-x="652" 
d="M187 31q-64 41 -99 116.5t-35 177.5v63q0 90 33 165.5t98.5 121.5t157.5 46q116 0 186.5 -64t81.5 -178h-109q-10 80 -49 117t-110 37q-85 0 -132 -63.5t-47 -181.5v-66q0 -116 45 -179.5t128 -63.5q76 0 115 34.5t49 115.5h110q-11 -106 -80.5 -172.5t-193.5 -66.5
q-85 0 -149 41z" />
    <glyph glyph-name="D" unicode="D" horiz-adv-x="654" 
d="M77 711h206q94 0 165.5 -41.5t111 -117t40.5 -174.5v-43q0 -101 -39 -176t-111.5 -116.5t-168.5 -42.5h-204v711zM277 88q102 0 158 64.5t56 184.5v39q0 118 -54 182t-152 65h-99v-535h91z" />
    <glyph glyph-name="E" unicode="E" horiz-adv-x="566" 
d="M77 711h455v-88h-346v-213h300v-87h-300v-235h350v-88h-459v711z" />
    <glyph glyph-name="F" unicode="F" horiz-adv-x="552" 
d="M77 711h447v-88h-338v-227h294v-88h-294v-308h-109v711z" />
    <glyph glyph-name="G" unicode="G" horiz-adv-x="681" 
d="M198.5 30.5q-67.5 40.5 -104.5 115t-38 173.5v62q-1 158 74.5 249t214.5 91q116 0 184.5 -57.5t83.5 -166.5h-108q-13 69 -52 102.5t-106 33.5q-89 0 -135 -64t-46 -185v-55q0 -117 51 -184t141 -67q102 0 146 47v150h-155v84h264v-267q-37 -49 -104 -75.5t-154 -26.5
q-89 0 -156.5 40.5z" />
    <glyph glyph-name="H" unicode="H" horiz-adv-x="711" 
d="M77 711h109v-301h338v301h109v-711h-109v323h-338v-323h-109v711z" />
    <glyph glyph-name="I" unicode="I" horiz-adv-x="278" 
d="M84 711h110v-711h-110v711z" />
    <glyph glyph-name="J" unicode="J" horiz-adv-x="554" 
d="M84 45.5q-60 55.5 -60 154.5h110q0 -59 30.5 -90.5t88.5 -31.5q54 0 86 34.5t32 96.5v502h111v-500q0 -101 -62.5 -161t-166.5 -60q-109 0 -169 55.5z" />
    <glyph glyph-name="K" unicode="K" horiz-adv-x="630" 
d="M77 711h109v-344l69 81l226 263h133l-271 -314l289 -397h-131l-232 318l-83 -88v-230h-109v711z" />
    <glyph glyph-name="L" unicode="L" horiz-adv-x="539" 
d="M77 711h110v-623h329v-88h-439v711z" />
    <glyph glyph-name="M" unicode="M" horiz-adv-x="874" 
d="M77 711h142l217 -563l218 563h142v-711h-109v255l10 307l-221 -562h-80l-221 560l11 -305v-255h-109v711z" />
    <glyph glyph-name="N" unicode="N" horiz-adv-x="711" 
d="M77 711h110l337 -528v528h109v-711h-110l-336 527v-527h-110v711z" />
    <glyph glyph-name="O" unicode="O" horiz-adv-x="688" 
d="M193.5 31q-65.5 41 -102.5 117.5t-38 178.5v49q0 105 36.5 183t102 120t151.5 42q87 0 153 -41.5t102 -119.5t36 -184v-41q0 -106 -36 -184t-101.5 -119.5t-152.5 -41.5q-85 0 -150.5 41zM210 148q48 -67 134 -67t133 63.5t48 183.5v49q0 122 -47.5 187t-134.5 65
q-84 0 -132 -64t-49 -178v-52q0 -120 48 -187z" />
    <glyph glyph-name="P" unicode="P" horiz-adv-x="635" 
d="M77 711h266q78 0 135.5 -28t88.5 -78t31 -116q0 -104 -67 -161t-189 -57h-156v-271h-109v711zM343 359q71 0 108 33t37 96q0 61 -37.5 97.5t-102.5 37.5h-162v-264h157z" />
    <glyph glyph-name="Q" unicode="Q" horiz-adv-x="688" 
d="M341 -10q-84 0 -150 41t-103.5 117.5t-38.5 178.5v49q0 104 37 182.5t103 120.5t151 42q87 0 152.5 -41.5t102 -119.5t36.5 -183v-42q0 -102 -32 -176.5t-91 -117.5l124 -98l-72 -65l-151 120q-34 -8 -68 -8zM207 148q48 -67 134 -67t133 63.5t48 183.5v49q0 122 -47 187
t-135 65q-85 0 -132.5 -64.5t-48.5 -181.5v-48q0 -120 48 -187z" />
    <glyph glyph-name="R" unicode="R" horiz-adv-x="623" 
d="M76 711h244q123 0 188.5 -55t65.5 -159q0 -67 -34.5 -116.5t-98.5 -75.5l163 -299v-6h-117l-149 281h-152v-281h-110v711zM323 368q65 0 103.5 34.5t38.5 91.5q0 62 -36.5 95t-105.5 34h-137v-255h137z" />
    <glyph glyph-name="S" unicode="S" horiz-adv-x="609" 
d="M184 17.5q-63 25.5 -102 75.5t-39 119h109q0 -62 44.5 -97.5t121.5 -35.5q67 0 103.5 27.5t36.5 76.5q0 30 -11.5 50.5t-38.5 36.5q-21 13 -46 22.5t-61 20.5q-73 23 -111 42q-63 31 -93.5 73.5t-30.5 98.5q0 57 32 101.5t88.5 69.5t126.5 25q70 -1 128 -27.5t92 -75.5
t34 -114h-109q0 60 -38.5 94.5t-107.5 34.5q-64 0 -100.5 -28.5t-36.5 -78.5q0 -49 52 -80q22 -13 45 -22t62 -21q42 -13 68 -22.5t54 -24.5q58 -32 85.5 -74t27.5 -100t-31 -101.5t-87.5 -67t-132.5 -23.5q-71 0 -134 25.5z" />
    <glyph glyph-name="T" unicode="T" horiz-adv-x="604" 
d="M247 623h-224v88h559v-88h-226v-623h-109v623z" />
    <glyph glyph-name="U" unicode="U" horiz-adv-x="651" 
d="M136 54q-70 64 -71 175v482h109v-480q0 -74 39.5 -113.5t112.5 -39.5q74 0 113.5 39.5t39.5 113.5v480h110v-481q0 -105 -68.5 -169t-194.5 -71q-120 0 -190 64z" />
    <glyph glyph-name="V" unicode="V" horiz-adv-x="641" 
d="M11 711h119l176 -529l14 -43l14 43l177 529h121l-259 -711h-104z" />
    <glyph glyph-name="W" unicode="W" horiz-adv-x="883" 
d="M26 711h109l104 -467l13 -87l19 80l129 474h92l127 -474l19 -81l14 89l102 466h110l-169 -711h-103l-133 479l-13 60l-12 -60l-137 -479h-103z" />
    <glyph glyph-name="X" unicode="X" horiz-adv-x="629" 
d="M248 358l-220 353h127l160 -266l160 266h127l-219 -353l225 -358h-129l-164 270l-164 -270h-128z" />
    <glyph glyph-name="Y" unicode="Y" horiz-adv-x="606" 
d="M247 263l-242 448h124l173 -347l175 347h122l-242 -448v-263h-110v263z" />
    <glyph glyph-name="Z" unicode="Z" horiz-adv-x="601" 
d="M40 74l380 549h-376v88h508v-73l-380 -550h393v-88h-525v74z" />
    <glyph glyph-name="bracketleft" unicode="[" horiz-adv-x="262" 
d="M240 733h-86v-806h86v-83h-192v973h192v-84z" />
    <glyph glyph-name="backslash" unicode="\" horiz-adv-x="400" 
d="M306 -61l-285 772h91l287 -772h-93z" />
    <glyph glyph-name="bracketright" unicode="]" horiz-adv-x="269" 
d="M214 817v-973h-192v83h86v806h-86v84h192z" />
    <glyph glyph-name="asciicircum" unicode="^" horiz-adv-x="424" 
d="M283 409l-68 188l-95 -241h-92l146 355h74l146 -355h-92z" />
    <glyph glyph-name="underscore" unicode="_" horiz-adv-x="449" 
d="M447 -84h-445v84h445v-84z" />
    <glyph glyph-name="a" unicode="a" horiz-adv-x="541" 
d="M133.5 10.5q-40.5 20.5 -63.5 56.5t-23 80q0 83 63 128.5t178 45.5h80v39q0 46 -26 71.5t-75 25.5q-45 0 -74 -22t-29 -56h-106q0 41 27.5 77.5t76.5 59t110 22.5q93 0 146.5 -46.5t55.5 -127.5v-241q0 -74 19 -115v-8h-108q-8 14 -14 54q-58 -64 -146 -64
q-51 0 -91.5 20.5zM178 99q25 -22 66 -22q40 0 74.5 20t49.5 51v104h-65q-150 0 -150 -93q0 -38 25 -60z" />
    <glyph glyph-name="b" unicode="b" horiz-adv-x="561" 
d="M165 60l-5 -60h-96v750h106v-277q53 65 144 65q97 0 151.5 -72t54.5 -200v-8q0 -81 -25 -141.5t-71.5 -93.5t-108.5 -33q-96 0 -150 70zM288 77q126 0 126 192q0 89 -32.5 135.5t-94.5 46.5q-40 0 -70 -19t-47 -56v-224q36 -75 118 -75z" />
    <glyph glyph-name="c" unicode="c" horiz-adv-x="522" 
d="M105 62q-64 72 -64 198v13q0 79 28.5 138.5t82 93t126.5 33.5q61 0 108.5 -24.5t75 -68.5t29.5 -102h-99q-3 49 -35 79.5t-79 30.5q-64 0 -98 -46.5t-34 -135.5v-16q0 -88 33.5 -134t98.5 -46q46 0 78.5 27t35.5 69h99q-2 -47 -29.5 -88.5t-75.5 -67t-107 -25.5
q-110 0 -174 72z" />
    <glyph glyph-name="d" unicode="d" horiz-adv-x="564" 
d="M141 24.5q-47 34.5 -73 97.5t-26 147q0 80 26 141t73 94.5t109 33.5q88 0 142 -62v274h105v-750h-96l-5 57q-54 -67 -147 -67q-61 0 -108 34.5zM181.5 124.5q33.5 -47.5 93.5 -47.5q79 0 117 71v234q-37 69 -116 69q-59 0 -93.5 -45.5t-34.5 -129.5v-18
q0 -86 33.5 -133.5z" />
    <glyph glyph-name="e" unicode="e" horiz-adv-x="533" 
d="M161 22q-56 32 -87.5 91t-31.5 137v16q0 75 28.5 137t82 98.5t125.5 36.5q105 0 163.5 -68.5t58.5 -193.5v-43h-352v-3q4 -70 45 -112.5t103 -42.5q44 0 77.5 17t59.5 50l59 -52q-33 -49 -84 -74.5t-117 -25.5q-74 0 -130 32zM395 313v8q-3 63 -33.5 97.5t-84.5 34.5
q-51 0 -85 -37t-41 -103h244z" />
    <glyph glyph-name="f" unicode="f" horiz-adv-x="350" 
d="M107 449h-83v79h83v52q0 86 47 133t133 47q28 0 65 -8l-4 -83q-19 4 -48 4q-42 0 -65 -23.5t-23 -68.5v-53h111v-79h-111v-449h-105v449z" />
    <glyph glyph-name="g" unicode="g" horiz-adv-x="564" 
d="M154.5 -183.5q-54.5 24.5 -82.5 64.5l51 62q55 -67 138 -67q64 0 98.5 35t34.5 100v40q-52 -61 -142 -61q-62 0 -109 34t-73.5 97t-26.5 147v6q0 80 26.5 139.5t74 92t109.5 32.5q94 0 146 -66l5 56h96v-514q0 -61 -26 -111t-78.5 -80.5t-128.5 -30.5q-58 0 -112.5 24.5z
M183 125q34 -48 96 -48q78 0 115 70v237q-37 67 -114 67q-63 0 -97 -49t-34 -144q0 -85 34 -133z" />
    <glyph glyph-name="h" unicode="h" horiz-adv-x="554" 
d="M63 750h106v-284q59 72 151 72q170 0 171 -192v-346h-105v346q-1 54 -25 79.5t-75 25.5q-40 0 -70 -19.5t-47 -54.5v-377h-106v750z" />
    <glyph glyph-name="i" unicode="i" horiz-adv-x="249" 
d="M72 528h106v-528h-106v528zM80.5 709.5q16.5 16.5 44.5 16.5t44.5 -17t16.5 -42t-16.5 -41t-44.5 -16q-29 0 -45 16t-16 41q0 26 16.5 42.5z" />
    <glyph glyph-name="j" unicode="j" horiz-adv-x="245" 
d="M-37 -205v83q24 -4 42 -4q32 0 47.5 16.5t15.5 55.5v582h106v-580q0 -80 -38 -120.5t-113 -40.5q-30 0 -60 8zM75.5 709.5q16.5 16.5 44.5 16.5t44 -16.5t16 -42.5q0 -25 -16 -41t-45 -16q-28 0 -44 16t-16 41q0 26 16.5 42.5z" />
    <glyph glyph-name="k" unicode="k" horiz-adv-x="515" 
d="M65 750h105v-443l42 51l156 170h128l-202 -219l223 -309h-122l-171 235l-54 -56v-179h-105v750z" />
    <glyph glyph-name="l" unicode="l" horiz-adv-x="249" 
d="M72 750h106v-750h-106v750z" />
    <glyph glyph-name="m" unicode="m" horiz-adv-x="873" 
d="M64 528h99l3 -59q59 69 156 69q108 0 147 -84q28 40 70 62t96 22q86 0 130 -46.5t45 -139.5v-352h-106v346q0 54 -23.5 79.5t-79.5 25.5q-40 0 -70 -22q-34 -27 -42 -75v-354h-105v343q0 55 -25.5 81.5t-77.5 26.5q-40 0 -69 -17q-29 -19 -43 -52v-382h-105v528z" />
    <glyph glyph-name="n" unicode="n" horiz-adv-x="554" 
d="M63 528h100l3 -65q59 75 157 75q166 0 168 -191v-347h-105v347q-1 54 -25 79t-75 25q-39 0 -69.5 -20t-47.5 -56v-375h-106v528z" />
    <glyph glyph-name="o" unicode="o" horiz-adv-x="568" 
d="M158 23.5q-55 33.5 -86 94t-32 141.5v10q-1 76 28.5 137t84.5 96.5t130 35.5q73 0 128 -33.5t85.5 -95.5t30.5 -144v-7q0 -80 -31 -141t-86 -94t-126 -33t-126 33.5zM183 124.5q38 -49.5 101 -49.5q64 0 100.5 48t37.5 136v10q1 84 -37 134t-102 50q-61 0 -98 -47.5
t-39 -134.5v-13q-1 -84 37 -133.5z" />
    <glyph glyph-name="p" unicode="p" horiz-adv-x="561" 
d="M64 528h97l4 -56q54 66 148 66q96 0 151 -72t55 -199v-9q0 -80 -25 -140.5t-71.5 -94t-108.5 -33.5q-91 0 -144 59v-252h-106v731zM285 75q60 0 94 47.5t35 137.5v9q0 85 -34.5 133.5t-95.5 48.5q-78 0 -114 -66v-244q36 -66 115 -66z" />
    <glyph glyph-name="q" unicode="q" horiz-adv-x="567" 
d="M251 -10q-63 0 -110.5 33.5t-73 94.5t-25.5 143v8q0 82 25.5 143t73 93.5t111.5 32.5q92 0 144 -64l6 54h95v-731h-106v251q-52 -58 -140 -58zM181.5 123.5q34.5 -48.5 95.5 -48.5q77 0 114 65v249q-39 64 -113 64q-60 0 -94.5 -47t-35.5 -135v-13q-1 -86 33.5 -134.5z
" />
    <glyph glyph-name="r" unicode="r" horiz-adv-x="346" 
d="M64 528h101l3 -62q44 72 124 72q27 0 41 -7l-1 -98q-16 4 -46 4q-88 0 -116 -70v-367h-106v528z" />
    <glyph glyph-name="s" unicode="s" horiz-adv-x="515" 
d="M146.5 13.5q-50.5 23.5 -78.5 63.5t-28 87h104q1 -43 33 -68t84 -25q48 0 76 19t28 52q0 34 -27 52.5t-92 32.5q-97 21 -142.5 58t-45.5 96q0 44 25.5 79.5t71.5 56.5t103 21q61 0 108 -21t73 -59t26 -86h-105q0 36 -28.5 60.5t-73.5 24.5t-70.5 -19.5t-25.5 -52.5
t30.5 -49t61 -23t38.5 -9q91 -22 134 -58.5t43 -98.5q0 -46 -26.5 -81.5t-73.5 -55.5t-108 -20q-64 0 -114.5 23.5z" />
    <glyph glyph-name="t" unicode="t" horiz-adv-x="330" 
d="M128 27q-33 37 -33 108v314h-91v79h91v129h105v-129h97v-79h-97v-310q0 -32 13 -47t44 -15q18 0 43 6v-82q-39 -11 -74 -11q-65 0 -98 37z" />
    <glyph glyph-name="u" unicode="u" horiz-adv-x="554" 
d="M106 39q-44 49 -45 146v343h106v-341q0 -110 91 -110q95 0 126 70v381h106v-528h-100l-2 53q-52 -63 -152 -63q-86 0 -130 49z" />
    <glyph glyph-name="v" unicode="v" horiz-adv-x="491" 
d="M13 528h108l125 -390l121 390h109l-187 -528h-88z" />
    <glyph glyph-name="w" unicode="w" horiz-adv-x="746" 
d="M19 528h103l81 -327l13 -53l115 380h82l116 -385l13 58l80 327h103l-148 -528h-86l-106 338l-14 45l-14 -45l-104 -338h-87z" />
    <glyph glyph-name="x" unicode="x" horiz-adv-x="500" 
d="M189 268l-166 260h118l108 -183l109 183h118l-166 -260l172 -268h-118l-114 190l-114 -190h-119z" />
    <glyph glyph-name="y" unicode="y" horiz-adv-x="482" 
d="M46 -206v83l24 -1q43 -3 67.5 15t39.5 63l19 50l-188 524h114l122 -376l8 24l108 352h113l-213 -611l-9 -22q-46 -108 -150 -108q-36 4 -55 7z" />
    <glyph glyph-name="z" unicode="z" horiz-adv-x="500" 
d="M41 71l280 372h-275v85h408v-69l-284 -374h296v-85h-425v71z" />
    <glyph glyph-name="braceleft" unicode="{" horiz-adv-x="335" 
d="M171.5 -97q-43.5 56 -43.5 146v97q0 115 -99 115v79q99 0 99 115v102q1 89 43.5 143.5t130.5 79.5l21 -62q-94 -31 -95 -163v-100q0 -111 -83 -155q83 -43 83 -155v-101q3 -130 95 -160l-21 -62q-87 25 -130.5 81z" />
    <glyph glyph-name="bar" unicode="|" horiz-adv-x="246" 
d="M161 -132h-76v843h76v-843z" />
    <glyph glyph-name="braceright" unicode="}" horiz-adv-x="324" 
d="M106 44v101q0 112 83 155q-83 44 -83 155v100q-1 132 -95 163l21 62q88 -25 130.5 -79.5t43.5 -143.5v-102q0 -115 99 -115v-79q-99 0 -99 -115v-97q0 -90 -43.5 -146t-130.5 -81l-21 62q92 30 95 160z" />
    <glyph glyph-name="asciitilde" unicode="~" horiz-adv-x="670" 
d="M589.5 285q-20.5 -43 -57 -67.5t-81.5 -24.5q-32 0 -59 10q-14 5 -33 19t-37 28q-34 28 -56.5 42t-44.5 14q-35 0 -54.5 -25.5t-19.5 -69.5l-87 -1q0 54 20.5 96t56.5 65.5t82 23.5q37 0 71 -15q22 -10 44 -27.5t26 -20.5q29 -25 49.5 -37.5t38.5 -12.5q36 0 57.5 27.5
t21.5 71.5h83q0 -53 -20.5 -96z" />
    <glyph glyph-name="uni00A0" unicode="&#xa0;" horiz-adv-x="48" 
 />
    <glyph glyph-name="brokenbar" unicode="&#xa6;" horiz-adv-x="243" 
d="M69 -132v386h102v-386h-102zM69 711h102v-370h-102v370z" />
    <glyph glyph-name="copyright" unicode="&#xa9;" horiz-adv-x="788" 
d="M214 37.5q-80 49.5 -126.5 134t-46.5 184.5q0 101 46.5 185.5t126.5 133t177 48.5t177 -48.5t126 -132.5t46 -186q0 -100 -46 -184.5t-126 -134t-177 -49.5t-177 49.5zM142 202.5q38 -70.5 103.5 -111.5t145.5 -41q79 0 145 41t104 111t38 154q0 85 -38 154.5
t-103.5 109.5t-145.5 40q-79 0 -145 -40t-104 -109.5t-38 -154.5q0 -83 38 -153.5zM213 384q0 87 47 139t125 52q80 0 123 -41t42 -116h-77q1 48 -21 69t-67 21t-70.5 -33.5t-25.5 -92.5v-55q0 -58 25.5 -91t70.5 -33t66 21t21 70h77q1 -76 -42 -117t-122 -41t-125.5 52
t-46.5 142v54z" />
    <glyph glyph-name="guillemotleft" unicode="&#xab;" horiz-adv-x="386" 
d="M290.5 141q15.5 -37 45.5 -74l-45 -46q-85 89 -85 198t85 198l45 -46q-30 -37 -45.5 -74t-15.5 -78t15.5 -78zM135 467l49 -55q-74 -92 -74 -193q0 -100 74 -193l-49 -55q-100 112 -100 248t100 248z" />
    <glyph glyph-name="logicalnot" unicode="&#xac;" horiz-adv-x="553" 
d="M468 183h-92v129h-314v79h406v-208z" />
    <glyph glyph-name="registered" unicode="&#xae;" horiz-adv-x="791" 
d="M322 317v-165h-75v419h138q76 0 118 -32.5t42 -94.5q0 -59 -61 -92q58 -25 59 -100q0 -69 8 -90v-10h-76q-5 13 -6.5 32t-1.5 49q0 28 -1 38q-7 43 -61 46h-83zM87 542q46 84 126 132.5t178 48.5q97 0 177 -48.5t126 -132.5t46 -186q0 -99 -46 -183.5t-126 -134.5
t-177 -50q-98 0 -178 50t-126 134.5t-46 183.5q0 102 46 186zM141.5 200q38.5 -70 104.5 -110t145 -40t144.5 41t104 111t38.5 154q0 85 -38 154.5t-103.5 109.5t-145.5 40q-79 0 -145 -40t-104.5 -109.5t-38.5 -154.5q0 -86 38.5 -156zM395 384q35 2 55 17t20 40
q0 36 -18 50t-66 14h-64v-121h73z" />
    <glyph glyph-name="degree" unicode="&#xb0;" horiz-adv-x="390" 
d="M86 657.5q17 29.5 46 46.5t63 17q33 0 61.5 -17t45.5 -46.5t17 -63.5t-17 -63t-45 -46t-62 -17t-63 17t-46 46t-17 63t17 63.5zM194 539q15 0 30 10q24 18 24 44q0 15 -10 32q-16 24 -43 24q-17 0 -31 -10q-11 -7 -17 -19t-6 -24q0 -18 10 -32q17 -25 43 -25z" />
    <glyph glyph-name="plusminus" unicode="&#xb1;" horiz-adv-x="535" 
d="M321 429h173v-86h-173v-196h-95v196h-180v86h180v192h95v-192zM63 85h412v-85h-412v85z" />
    <glyph glyph-name="uni00B2" unicode="&#xb2;" horiz-adv-x="292" 
d="M102 602q6 -28 20.5 -38.5t38.5 -10.5q22 0 35 13t9 39l-11 72l56 10l11 -74q1 -7 1 -19q0 -47 -31 -76.5t-70 -29.5q-27 0 -46 10q1 -35 1 -99l-1 -114h-56l1 114q1 80 -5.5 142.5t-30.5 121.5l53 24q16 -40 25 -85z" />
    <glyph glyph-name="uni00B3" unicode="&#xb3;" horiz-adv-x="401" 
d="M104 594q4 -28 17 -37.5t35 -9.5q19 0 30 12t8 39l-9 65l56 9l10 -67q0 -3 1 -4q4 -32 13.5 -43t26.5 -11q18 0 26.5 8t8.5 28q0 9 -1 15l-10 75l57 7l9 -75q1 -7 1 -21q0 -48 -26 -75t-64 -27q-41 0 -65 34q-14 -16 -33 -25t-38 -9q-23 0 -42 10q1 -33 1 -93l-1 -114
h-56l1 114q1 80 -5.5 142.5t-30.5 121.5l53 24q17 -44 27 -93z" />
    <glyph glyph-name="uni00B5" unicode="&#xb5;" horiz-adv-x="581" 
d="M179 528v-309q0 -75 24 -110t77 -35q91 0 119 69v385h106v-528h-96l-4 50q-45 -60 -123 -60q-65 0 -103 32v-225h-106v731h106z" />
    <glyph glyph-name="uni00B9" unicode="&#xb9;" horiz-adv-x="153" 
d="M109 565.5q8 -63.5 8 -135.5v-31l-1 -114h-57l2 114q0 84 -6.5 145t-29.5 119l52 24q24 -58 32 -121.5z" />
    <glyph glyph-name="guillemotright" unicode="&#xbb;" horiz-adv-x="386" 
d="M96.5 298q-15.5 37 -46.5 73l45 46q85 -87 85 -198t-85 -198l-45 46q30 37 46 74t16 78q0 42 -15.5 79zM276 219q0 103 -74 193l49 55q100 -110 100 -248t-100 -248l-49 55q74 91 74 193z" />
    <glyph glyph-name="onequarter" unicode="&#xbc;" horiz-adv-x="773" 
d="M144 540.5q8 -63.5 8 -135.5v-31l-1 -114h-57l2 114q0 84 -6.5 145t-29.5 119l53 24q23 -58 31 -121.5zM443 643l56 -34l-347 -555l-56 33zM477 461q17 -40 27 -94q6 -24 15 -38t25 -23q-14 25 -14 52q0 47 33 81t79 34q27 0 45 -7.5t35.5 -19t24.5 -16.5l-27 -47
q-33 18 -47 24t-32 6q-23 0 -39.5 -16t-16.5 -39q0 -29 25.5 -48.5t79.5 -21.5h46v-63q-90 0 -139.5 6.5t-80.5 27.5q1 -30 1 -86l-1 -114h-57l1 114v32q0 68 -7 124t-28 108z" />
    <glyph glyph-name="onehalf" unicode="&#xbd;" horiz-adv-x="825" 
d="M146 530q7 -67 7 -156l-2 -114h-56l1 114v32q0 69 -7 124.5t-29 107.5l53 24q26 -65 33 -132zM495 643l57 -34l-347 -555l-57 33zM575 466q18 -45 26 -85q6 -28 20.5 -38.5t38.5 -10.5q22 0 35 13t9 39l-11 72l56 10l11 -74q1 -7 1 -19q0 -47 -31 -76.5t-70 -29.5
q-27 0 -47 10q2 -35 2 -99l-1 -114h-57l1 114v32q0 68 -7 124t-28 108z" />
    <glyph glyph-name="threequarters" unicode="&#xbe;" horiz-adv-x="883" 
d="M124 580v-1v-1q6 -27 18.5 -36t34.5 -9q19 0 30.5 12.5t7.5 38.5l-10 65l57 9l9 -66l1 -7q4 -30 14 -41t27 -11t25.5 8t8.5 28q0 9 -1 15l-9 75l56 8l10 -75q1 -7 1 -20q0 -49 -26.5 -76.5t-64.5 -27.5q-41 0 -65 35q-14 -17 -32.5 -26t-37.5 -9q-24 0 -43 10
q2 -33 2 -93l-2 -114h-56l1 114v32q0 69 -7 125t-29 107l53 24q17 -44 27 -93zM532 643l56 -34l-347 -555l-56 33zM564 467q17 -40 27 -94q6 -24 15 -38t25 -23q-14 25 -14 52q0 47 33 81t79 34q27 0 45 -7.5t35.5 -19t24.5 -16.5l-27 -47q-33 18 -47 24t-32 6
q-23 0 -39.5 -16t-16.5 -39q0 -29 25.5 -48.5t79.5 -21.5h46v-63q-90 0 -139.5 6.5t-80.5 27.5q1 -30 1 -86l-1 -114h-57l1 114v32q0 68 -7 124t-28 108z" />
    <glyph glyph-name="multiply" unicode="&#xd7;" horiz-adv-x="532" 
d="M40 166l158 161l-158 160l66 66l157 -159l157 159l66 -66l-158 -160l158 -161l-65 -66l-158 160l-157 -160z" />
    <glyph glyph-name="divide" unicode="&#xf7;" horiz-adv-x="571" 
d="M525 289h-491v96h491v-96zM236 180q18 16 44 17q27 0 45.5 -16t18.5 -44q0 -27 -18.5 -43t-44.5 -16q-27 0 -45 16t-18 43t18 43zM236 578q18 16 44 17q27 0 45.5 -16t18.5 -44q0 -27 -18.5 -43t-44.5 -16t-44.5 16t-18.5 43t18 43z" />
    <glyph glyph-name="uni060C" unicode="&#x60c;" horiz-adv-x="240" 
d="M54.5 115.5q4.5 17.5 22.5 50t62 100.5l50 -33q-52 -81 -60 -98q26 -3 43 -22t17 -44q0 -29 -20 -49.5t-49 -20.5q-30 0 -50 20.5t-20 49.5t4.5 46.5z" />
    <glyph glyph-name="uni0615" unicode="&#x615;" 
d="M61 472.5q-20 8.5 -34.5 24.5t-48.5 61l36 33l30 -38l23 35v145h46v-92q21 18 51 18q38 0 61.5 -30t23.5 -70q0 -44 -25.5 -69.5t-63.5 -25.5h-44q-35 0 -55 8.5zM116 520h44q23 0 33 9t10 30q0 23 -9 34t-30 11q-17 0 -27.5 -8.5t-26.5 -32.5l-27 -40q14 -3 33 -3z" />
    <glyph glyph-name="uni061B" unicode="&#x61b;" horiz-adv-x="242" 
d="M71 16.5q-20 20.5 -20 49.5t20 49t49 20t49.5 -20t20.5 -49t-20.5 -49.5t-49.5 -20.5t-49 20.5zM55.5 389q4.5 18 22 50.5t62.5 100.5l50 -33q-49 -77 -60 -98q25 -3 42 -22t17 -45q0 -29 -20 -49.5t-48 -20.5q-30 0 -50 20.5t-20 49.5t4.5 47z" />
    <glyph glyph-name="uni061F" unicode="&#x61f;" horiz-adv-x="494" 
d="M219.5 0q-19.5 20 -19.5 49q0 28 20 47.5t48 19.5t48 -19.5t20 -47.5q0 -29 -19.5 -49t-48.5 -20t-48.5 20zM78.5 619.5q26.5 46.5 72 74.5t98.5 28q55 0 99 -29t69.5 -77.5t25.5 -104.5l-77 -8q-1 30 -14.5 59t-40 48t-62.5 19q-48 0 -81 -32.5t-33 -79.5
q0 -26 8.5 -43.5t25.5 -33t60 -48.5l29 -22q31 -24 39 -54t8 -93v-37h-76v54q0 20 -10 39t-39 43q-53 44 -75 65.5t-37.5 53.5t-15.5 79q0 53 26.5 99.5z" />
    <glyph glyph-name="uni0640" unicode="&#x640;" horiz-adv-x="198" 
d="M-5 108h208l6 -53l-6 -55h-208v108z" />
    <glyph glyph-name="uni064B" unicode="&#x64b;" 
d="M2 512l215 69v-56l-215 -68v55zM2 605l215 69v-56l-215 -68v55z" />
    <glyph glyph-name="uni064C" unicode="&#x64c;" 
d="M-1 513l63 20q-12 15 -19 38q-5 18 -5 32q0 33 18.5 59t50.5 36q18 7 38 7q31 0 55.5 -18t34.5 -51q5 -18 5 -31q0 -33 -22 -59t-60 -39l-145 -47zM-53 612q0 44 22 80.5t65 55.5l25 -47q-64 -33 -64 -97q0 -29 16 -63l-43 -15q-21 42 -21 86zM106 546l45 14
q22 7 33.5 19.5t11.5 27.5q0 9 -2 14q-5 14 -16.5 22t-27.5 8q-14 0 -29 -6q-18 -7 -28 -19t-10 -26q0 -5 2 -13q7 -25 21 -41z" />
    <glyph glyph-name="uni064D" unicode="&#x64d;" 
d="M2 -220l215 68v-56l-215 -67v55zM2 -127l215 68v-55l-215 -68v55z" />
    <glyph glyph-name="uni064E" unicode="&#x64e;" 
d="M-4 501l214 69v-56l-214 -68v55z" />
    <glyph glyph-name="uni064F" unicode="&#x64f;" 
d="M-10 513l63 20q-12 15 -19 38q-5 18 -5 32q0 33 18.5 59t50.5 36q18 7 38 7q31 0 55.5 -18t34.5 -51q5 -18 5 -31q0 -33 -22 -59t-60 -39l-145 -47zM97 546l45 14q22 7 33.5 19.5t11.5 27.5q0 9 -2 14q-5 14 -16.5 22t-27.5 8q-14 0 -29 -6q-18 -7 -28 -19t-10 -26
q0 -5 2 -13q7 -25 21 -41z" />
    <glyph glyph-name="uni0650" unicode="&#x650;" 
d="M-4 -259l214 69v-56l-214 -68v55z" />
    <glyph glyph-name="uni0651" unicode="&#x651;" 
d="M11 590v-48q0 -31 37 -31q38 0 38 31v48h44v-48q0 -31 33 -31q37 0 37 26q0 10 -2 20t-5 23t-5 21l44 12l6 -26q7 -32 7 -50q0 -32 -18.5 -57t-63.5 -25q-15 0 -30.5 5.5t-25.5 16.5q-21 -22 -59 -22q-31 0 -56 22t-25 65v48h44z" />
    <glyph glyph-name="uni0652" unicode="&#x652;" 
d="M130.5 617.5q27.5 -30.5 27.5 -72.5q0 -39 -27.5 -67.5t-64.5 -28.5t-64 29t-27 70t27 70.5t62 29.5q39 0 66.5 -30.5zM34.5 513.5q11.5 -13.5 29.5 -13.5q21 0 33 12.5t13 32.5q0 23 -12.5 37t-33.5 14q-17 0 -29 -13.5t-12 -34.5t11.5 -34.5z" />
    <glyph glyph-name="uni0653" unicode="&#x653;" 
d="M176 466q-12 0 -27 3l-52 14q-7 2 -18 2q-15 0 -25 -7t-19 -21l-38 29q15 26 34.5 41t46.5 15q12 0 30 -5l51 -13q11 -3 19 -3q28 0 47 29l37 -30q-34 -54 -86 -54z" />
    <glyph glyph-name="uni0654" unicode="&#x654;" 
d="M23 519l53 15q-20 14 -31 35t-11 46q0 41 29 68.5t69 29.5q24 0 68 -10l-9 -53q-38 8 -57 8q-25 -1 -40 -14t-15 -33q1 -21 20.5 -36t48.5 -15q6 0 20 2l67 19l3 -55l-211 -62z" />
    <glyph glyph-name="uni0655" unicode="&#x655;" 
d="M22 -238l52 15q-41 30 -41 80q0 41 29 69t69 30q23 0 67 -10l-9 -53q-37 8 -56 8q-25 -1 -40 -14t-15 -33q1 -22 20 -36.5t49 -14.5q14 0 22 2l65 19l3 -56l-212 -62z" />
    <glyph glyph-name="uni0656" unicode="&#x656;" 
d="M19 -284v189h44v-189h-44z" />
    <glyph glyph-name="uni0658" unicode="&#x658;" 
d="M47 598q0 -34 14 -50t50 -16h45q29 0 41.5 3.5t16.5 13t4 31.5v145h47v-145q0 -52 -25.5 -78t-83.5 -26h-45q-54 0 -82.5 34.5t-28.5 87.5q0 54 30 112l41 -24q-24 -50 -24 -88z" />
    <glyph glyph-name="uni065A" unicode="&#x65a;" 
d="M-11 593l39 30l62 -99l63 99l39 -30l-71 -113h-61z" />
    <glyph glyph-name="uni065B" unicode="&#x65b;" 
d="M121 652l71 -113l-39 -30l-63 99l-62 -99l-39 30l71 113h61z" />
    <glyph glyph-name="uni0660" unicode="&#x660;" horiz-adv-x="494" 
d="M163.5 60.5q-38.5 22.5 -61 60.5t-22.5 82t22.5 82t61 60t83.5 22t83.5 -22t61 -59.5t22.5 -82.5q0 -44 -22.5 -82t-61 -60.5t-83.5 -22.5t-83.5 22.5zM194.5 148.5q21.5 -21.5 52.5 -21.5t51.5 21.5t20.5 54.5q0 32 -20.5 53.5t-51.5 21.5t-52.5 -21.5t-21.5 -53.5
q0 -33 21.5 -54.5z" />
    <glyph glyph-name="uni0661" unicode="&#x661;" horiz-adv-x="254" 
d="M182 465q13 -107 13 -233v-42l-2 -190h-94l2 190v39q0 119 -11.5 215.5t-48.5 185.5l88 40q40 -98 53 -205z" />
    <glyph glyph-name="uni0662" unicode="&#x662;" horiz-adv-x="487" 
d="M170 529q10 -48 34 -65.5t64 -17.5q32 0 53 17t21 52q0 12 -1 18l-18 121l94 16l18 -124q2 -11 2 -32q0 -52 -24.5 -92t-63.5 -62t-81 -22q-43 0 -77 17q3 -59 3 -165l-2 -190h-94l2 190v39q0 119 -11.5 215.5t-48.5 185.5l88 40q25 -62 42 -141z" />
    <glyph glyph-name="uni0663" unicode="&#x663;" horiz-adv-x="669" 
d="M173 515q8 -46 29.5 -62.5t57.5 -16.5q28 0 46.5 17t18.5 51q0 11 -1 17l-16 109l94 15l16 -111l1 -10q8 -51 24 -69.5t44 -18.5q29 0 43.5 14t14.5 46q0 7 -2 25l-16 125l94 13l16 -125q2 -24 2 -35q0 -54 -20.5 -93t-55 -58.5t-75.5 -19.5q-68 0 -109 57
q-23 -27 -54 -42t-63 -15q-39 0 -70 16q2 -55 2 -154l-2 -190h-94l2 190v39q0 119 -11.5 215.5t-48.5 185.5l88 40q29 -69 45 -155z" />
    <glyph glyph-name="uni0664" unicode="&#x664;" horiz-adv-x="616" 
d="M174 515q9 -41 24 -65t42 -38q-23 40 -23 86q0 52 25 96t67.5 70t93.5 26q45 0 75.5 -13t76.5 -43l23 -15l-45 -78q-55 30 -78 39.5t-53 9.5q-38 -1 -65.5 -27t-27.5 -64q0 -50 43 -82t132 -35h76v-106q-149 0 -232.5 11.5t-134.5 46.5q2 -51 2 -144l-2 -190h-94l2 190
v39q0 119 -11.5 215.5t-48.5 185.5l88 40q28 -67 45 -155z" />
    <glyph glyph-name="uni0665" unicode="&#x665;" horiz-adv-x="608" 
d="M355 164q0 -17 -3 -34q8 -16 24 -25t39 -9q34 0 54.5 22.5t20.5 68.5q-2 69 -52.5 157t-148.5 181q-85 -93 -127 -177.5t-42 -150.5q0 -99 72 -99q36 0 58 21.5t22 62.5q0 6 -2 24l77 16q8 -32 8 -58zM77.5 381q48.5 103 141.5 205l-33 26l60 81q108 -84 183 -175.5
t112.5 -177.5t37.5 -158q0 -58 -23.5 -100t-62 -63.5t-82.5 -21.5q-30 0 -57.5 12.5t-47.5 34.5q-22 -22 -52.5 -34t-63.5 -12q-42 0 -79 22.5t-59.5 67t-22.5 105.5q0 85 48.5 188z" />
    <glyph glyph-name="uni0666" unicode="&#x666;" horiz-adv-x="526" 
d="M379.5 324q-44.5 -42 -75 -82.5t-85.5 -120.5l-99 -145l-78 55l100 144q16 22 23 33q10 14 30.5 43t37.5 51q-42 2 -76.5 18.5t-59.5 46.5q-22 27 -33.5 58.5t-11.5 64.5q0 42 17 79.5t49 63.5q35 29 66.5 38t89.5 16l24 3l16 -89q-63 -12 -86.5 -19.5t-45.5 -27.5
q-16 -13 -25.5 -32.5t-9.5 -39.5q0 -31 21 -57q27 -32 71 -32q60 0 147 61q32 24 50 35l50 -83q-62 -40 -106.5 -82z" />
    <glyph glyph-name="uni0667" unicode="&#x667;" horiz-adv-x="597" 
d="M170 301q-28 91 -55 150t-85 166l82 52q52 -95 77.5 -151t49 -126.5t60.5 -206.5q32 123 55.5 195t46 121.5t68.5 137.5l15 29l83 -52l-12 -23q-56 -106 -81.5 -163t-53.5 -148.5t-76 -280.5h-88q-58 209 -86 300z" />
    <glyph glyph-name="uni0668" unicode="&#x668;" horiz-adv-x="597" 
d="M427 366q28 -91 55 -150t85 -166l-82 -52q-52 95 -77.5 151t-49 126.5t-60.5 206.5q-32 -123 -55.5 -195t-46 -121.5t-68.5 -137.5l-15 -29l-83 52l12 23q56 106 81.5 163t53.5 148.5t76 280.5h88q58 -209 86 -300z" />
    <glyph glyph-name="uni0669" unicode="&#x669;" horiz-adv-x="438" 
d="M284.5 110q-4.5 47 -5.5 180h-78q-78 0 -124.5 45.5t-46.5 133.5q0 60 21.5 108t60 75t88.5 27q79 0 125.5 -57.5t46.5 -158.5q0 -185 1 -250.5t6 -102t19 -100.5l-92 -19q-17 72 -21.5 119zM139.5 411q17.5 -15 61.5 -15h78v67q0 59 -18 84.5t-61 25.5q-78 0 -78 -106
q0 -41 17.5 -56z" />
    <glyph glyph-name="uni066A" unicode="&#x66a;" horiz-adv-x="511" 
d="M195 654v-121h-122v121h122zM343 696h95l-274 -727h-94zM323 125h122v-121h-122v121z" />
    <glyph glyph-name="uni066B" unicode="&#x66b;" horiz-adv-x="365" 
d="M37 -42l215 493h82l-216 -493h-81z" />
    <glyph glyph-name="uni066C" unicode="&#x66c;" horiz-adv-x="215" 
d="M96 107h92l-98 -237h-67z" />
    <glyph glyph-name="uni066D" unicode="&#x66d;" horiz-adv-x="648" 
d="M277 -49v200l-179 -103l-48 94l169 98l-169 97l48 94l179 -103v199h94v-199l179 103l48 -94l-169 -97l169 -98l-48 -94l-179 103v-200h-94z" />
    <glyph glyph-name="uni066E" unicode="&#x66e;" horiz-adv-x="909" 
d="M142.5 25q-43.5 25 -67.5 66.5t-24 91.5q0 9 2 29q3 21 13 69t18 84l88 -23q-27 -113 -29 -144q-1 -5 -1 -13q0 -36 26 -56.5t74 -20.5h431q46 0 69 24t23 59q0 37 -13.5 103t-15.5 75l90 23q33 -140 33 -204q0 -45 -21.5 -88.5t-62.5 -71.5t-98 -28h-435q-56 0 -99.5 25
z" />
    <glyph glyph-name="uni066F" unicode="&#x66f;" horiz-adv-x="739" 
d="M159 155.5q-16 -50.5 -16 -113.5q0 -67 16.5 -107.5t55 -60t106.5 -19.5h105q68 0 104.5 15t50 46t13.5 86h-101q-88 0 -141 52t-53 145q0 65 24.5 116.5t68.5 81t100 29.5q59 0 103.5 -28.5t69 -80t24.5 -118.5v-196q0 -117 -63 -186.5t-200 -69.5h-105
q-138 0 -204.5 76t-66.5 216q0 79 19.5 143.5t49.5 129.5l84 -41q-28 -65 -44 -115.5zM416 129.5q24 -21.5 77 -21.5h101v92q0 57 -25 89.5t-77 32.5q-48 0 -74 -33t-26 -88q0 -50 24 -71.5z" />
    <glyph glyph-name="uni0670" unicode="&#x670;" 
d="M11 476v189h44v-189h-44z" />
    <glyph glyph-name="uni0688" unicode="&#x688;" horiz-adv-x="517" 
d="M433 269q34 -52 34 -113q0 -48 -23 -82q-29 -42 -71 -58t-95 -16h-53q-57 0 -102 17t-73 39l47 89q24 -15 52.5 -26t75.5 -11h52q36 0 57.5 6.5t32.5 23.5q7 10 7 23q0 21 -20 52l-16 25q-95 146 -137 207l80 60zM147 705l30 -39l23 35v146h46v-92q21 18 51 18
q38 0 61.5 -30t23.5 -70q0 -44 -25.5 -69.5t-63.5 -25.5h-44q-35 0 -55 8.5t-34.5 24.5t-48.5 60zM249 633h44q23 0 33 9t10 31t-9 33.5t-30 11.5q-16 0 -27 -9t-27 -33l-27 -39q12 -4 33 -4z" />
    <glyph glyph-name="uni0691" unicode="&#x691;" horiz-adv-x="378" 
d="M335 317v-282q0 -138 -70 -212.5t-202 -74.5h-63v108h63q65 0 104 17.5t56.5 56t17.5 105.5v282h94zM128 494l30 -39l22 33v148h47v-91q22 17 51 17q38 0 61 -30t23 -70q0 -44 -25 -69.5t-64 -25.5h-44q-35 0 -55 8.5t-34.5 24.5t-48.5 61zM229 422h44q24 0 34 9t10 31
q0 45 -39 45q-16 0 -27 -9t-27 -33l-27 -40q12 -3 32 -3z" />
    <glyph glyph-name="uni0695" unicode="&#x695;" horiz-adv-x="378" 
d="M335 317v-282q0 -138 -70 -212.5t-202 -74.5h-63v108h63q65 0 104 17.5t56.5 56t17.5 105.5v282h94zM74 -345l62 -100l63 100l39 -31l-71 -113h-61l-71 113z" />
    <glyph glyph-name="uni06A1" unicode="&#x6a1;" horiz-adv-x="911" 
d="M141.5 25q-43.5 25 -67.5 66.5t-24 91.5q0 9 2 29q3 21 14 72.5t20 89.5l88 -23q-29 -121 -32 -153q-1 -5 -1 -13q0 -36 26 -56.5t74 -20.5h366q76 0 109 11t44 41l-81 4q-75 5 -122 52t-47 127q0 55 24 99.5t64 70t87 25.5q51 0 91 -25.5t62.5 -70t22.5 -99.5v-94
q0 -121 -57 -185t-197 -64h-366q-56 0 -99.5 25zM684 269l85 -8v82q0 42 -21 66.5t-62 24.5q-39 0 -61 -25t-22 -66q0 -70 81 -74z" />
    <glyph glyph-name="uni06B5" unicode="&#x6b5;" horiz-adv-x="678" 
d="M171.5 -211q-60.5 41 -91 108t-30.5 146q0 49 15 105.5t37 103.5l83 -38q-18 -40 -30 -86t-12 -85q0 -87 42 -137t132 -50h49q67 0 103 14t50.5 45.5t14.5 87.5l-1 658h94l1 -658q0 -120 -63 -187.5t-199 -67.5h-49q-85 0 -145.5 41zM515 841l63 -99l63 99l38 -30
l-70 -113h-62l-70 113z" />
    <glyph glyph-name="uni06BA" unicode="&#x6ba;" horiz-adv-x="729" 
d="M144 43q0 -87 42 -137t131 -50h100q66 0 102 14t50.5 45.5t14.5 87.5v314h95v-314q0 -119 -63.5 -187t-198.5 -68h-100q-85 0 -145.5 41t-91 108t-30.5 146q0 65 19.5 129.5t49.5 121.5l79 -43q-54 -113 -54 -208z" />
    <glyph glyph-name="uni06C1" unicode="&#x6c1;" horiz-adv-x="511" 
d="M288 466q65 -71 99 -112.5t54 -83.5t20 -86q0 -53 -28 -97t-75 -69.5t-102 -25.5t-102.5 25.5t-75.5 69.5t-28 97q0 46 18.5 87.5t46 76.5t73.5 83l-28 31l69 69zM174 124.5q30 -25.5 82 -25.5q51 0 81 25.5t30 63.5q0 30 -24.5 65t-87.5 105q-62 -66 -86.5 -100
t-24.5 -70q0 -38 30 -63.5z" />
    <glyph glyph-name="uni06C2" unicode="&#x6c2;" horiz-adv-x="511" 
d="M288 466q65 -71 99 -112.5t54 -83.5t20 -86q0 -53 -28 -97t-75 -69.5t-102 -25.5t-102.5 25.5t-75.5 69.5t-28 97q0 46 18.5 87.5t46 76.5t73.5 83l-28 31l69 69zM182 633q-41 31 -41 80q0 41 29 69t69 30q24 0 68 -10l-9 -53q-38 8 -57 8q-25 -1 -40 -14t-15 -33
q1 -21 20.5 -36t48.5 -15q6 0 20 2l67 19l3 -56l-211 -62l-4 56zM174 124.5q30 -25.5 82 -25.5q51 0 81 25.5t30 63.5q0 30 -24.5 65t-87.5 105q-62 -66 -86.5 -100t-24.5 -70q0 -38 30 -63.5z" />
    <glyph glyph-name="uni06C3" unicode="&#x6c3;" horiz-adv-x="511" 
d="M288 466q65 -71 99 -112.5t54 -83.5t20 -86q0 -53 -28 -97t-75 -69.5t-102 -25.5t-102.5 25.5t-75.5 69.5t-28 97q0 46 18.5 87.5t46 76.5t73.5 83l-28 31l69 69zM111 676h107v-106h-107v106zM174 124.5q30 -25.5 82 -25.5q51 0 81 25.5t30 63.5q0 30 -24.5 65t-87.5 105
q-62 -66 -86.5 -100t-24.5 -70q0 -38 30 -63.5zM293 676h107v-106h-107v106z" />
    <glyph glyph-name="uni06C9" unicode="&#x6c9;" horiz-adv-x="490" 
d="M280.5 -129q36.5 15 50.5 46.5t14 85.5h-102q-87 0 -140 52t-53 145q0 64 24.5 116t68 81.5t99.5 29.5q60 0 104.5 -28.5t69 -80t24.5 -118.5v-196q0 -117 -63 -186.5t-201 -69.5h-111v108h111q68 0 104.5 15zM167 130.5q24 -21.5 76 -21.5h102v92q0 57 -25 89t-78 32
q-48 0 -73.5 -32.5t-25.5 -87.5q0 -50 24 -71.5zM215 628h61l71 -113l-39 -30l-63 99l-62 -99l-39 30z" />
    <glyph glyph-name="uni06CE" unicode="&#x6ce;" horiz-adv-x="751" 
d="M144 47q0 -88 42.5 -139.5t129.5 -51.5h101q88 0 125 25.5t41 84.5v7q0 8 -3.5 11.5t-15.5 6.5l-216 58q-15 46 -15 96q0 53 17.5 99.5t47.5 81.5q39 43 89.5 66.5t105.5 23.5q27 0 55.5 -4t48.5 -10l-22 -101q-40 11 -87 8q-72 -1 -119 -53q-25 -26 -35.5 -54.5
t-6.5 -62.5l172 -47q43 -13 61 -39t18 -72q0 -110 -68 -171.5t-193 -61.5h-101q-82 0 -142.5 40.5t-92 109t-31.5 148.5q0 56 19 123.5t48 131.5l85 -44q-58 -127 -58 -210zM174 525l63 -100l62 100l39 -31l-71 -113h-61l-71 113z" />
    <glyph glyph-name="uni06D4" unicode="&#x6d4;" horiz-adv-x="310" 
d="M106 19.5q-20 20.5 -20 49.5t20 49t49 20t49.5 -20t20.5 -49t-20.5 -49.5t-49.5 -20.5t-49 20.5z" />
    <glyph glyph-name="uni06D5" unicode="&#x6d5;" horiz-adv-x="511" 
d="M288 466q65 -71 99 -112.5t54 -83.5t20 -86q0 -53 -28 -97t-75 -69.5t-102 -25.5t-102.5 25.5t-75.5 69.5t-28 97q0 46 18.5 87.5t46 76.5t73.5 83l-28 31l69 69zM174 124.5q30 -25.5 82 -25.5q51 0 81 25.5t30 63.5q0 30 -24.5 65t-87.5 105q-62 -66 -86.5 -100
t-24.5 -70q0 -38 30 -63.5z" />
    <glyph glyph-name="uni06F0" unicode="&#x6f0;" horiz-adv-x="494" 
d="M163.5 60.5q-38.5 22.5 -61 60.5t-22.5 82t22.5 82t61 60t83.5 22t83.5 -22t61 -59.5t22.5 -82.5q0 -44 -22.5 -82t-61 -60.5t-83.5 -22.5t-83.5 22.5zM194.5 148.5q21.5 -21.5 52.5 -21.5t51.5 21.5t20.5 54.5q0 32 -20.5 53.5t-51.5 21.5t-52.5 -21.5t-21.5 -53.5
q0 -33 21.5 -54.5z" />
    <glyph glyph-name="uni06F1" unicode="&#x6f1;" horiz-adv-x="254" 
d="M182 465q13 -107 13 -233v-42l-2 -190h-94l2 190v39q0 119 -11.5 215.5t-48.5 185.5l88 40q40 -98 53 -205z" />
    <glyph glyph-name="uni06F2" unicode="&#x6f2;" horiz-adv-x="487" 
d="M170 529q10 -48 34 -65.5t64 -17.5q32 0 53 17t21 52q0 12 -1 18l-18 121l94 16l18 -124q2 -11 2 -32q0 -52 -24.5 -92t-63.5 -62t-81 -22q-43 0 -77 17q3 -59 3 -165l-2 -190h-94l2 190v39q0 119 -11.5 215.5t-48.5 185.5l88 40q25 -62 42 -141z" />
    <glyph glyph-name="uni06F3" unicode="&#x6f3;" horiz-adv-x="669" 
d="M173 515q8 -46 29.5 -62.5t57.5 -16.5q28 0 46.5 17t18.5 51q0 11 -1 17l-16 109l94 15l16 -111l1 -10q8 -51 24 -69.5t44 -18.5q29 0 43.5 14t14.5 46q0 7 -2 25l-16 125l94 13l16 -125q2 -24 2 -35q0 -54 -20.5 -93t-55 -58.5t-75.5 -19.5q-68 0 -109 57
q-23 -27 -54 -42t-63 -15q-39 0 -70 16q2 -55 2 -154l-2 -190h-94l2 190v39q0 119 -11.5 215.5t-48.5 185.5l88 40q29 -69 45 -155z" />
    <glyph glyph-name="uni06F4" unicode="&#x6f4;" horiz-adv-x="616" 
d="M174 515q9 -41 24 -65t42 -38q-23 40 -23 86q0 52 25 96t67.5 70t93.5 26q45 0 75.5 -13t76.5 -43l23 -15l-45 -78q-55 30 -78 39.5t-53 9.5q-38 -1 -65.5 -27t-27.5 -64q0 -50 43 -82t132 -35h76v-106q-149 0 -232.5 11.5t-134.5 46.5q2 -51 2 -144l-2 -190h-94l2 190
v39q0 119 -11.5 215.5t-48.5 185.5l88 40q28 -67 45 -155z" />
    <glyph glyph-name="uni06F5" unicode="&#x6f5;" horiz-adv-x="608" 
d="M355 164q0 -17 -3 -34q8 -16 24 -25t39 -9q34 0 54.5 22.5t20.5 68.5q-2 69 -52.5 157t-148.5 181q-85 -93 -127 -177.5t-42 -150.5q0 -99 72 -99q36 0 58 21.5t22 62.5q0 6 -2 24l77 16q8 -32 8 -58zM77.5 381q48.5 103 141.5 205l-33 26l60 81q108 -84 183 -175.5
t112.5 -177.5t37.5 -158q0 -58 -23.5 -100t-62 -63.5t-82.5 -21.5q-30 0 -57.5 12.5t-47.5 34.5q-22 -22 -52.5 -34t-63.5 -12q-42 0 -79 22.5t-59.5 67t-22.5 105.5q0 85 48.5 188z" />
    <glyph glyph-name="uni06F6" unicode="&#x6f6;" horiz-adv-x="526" 
d="M379.5 324q-44.5 -42 -75 -82.5t-85.5 -120.5l-99 -145l-78 55l100 144q16 22 23 33q10 14 30.5 43t37.5 51q-42 2 -76.5 18.5t-59.5 46.5q-22 27 -33.5 58.5t-11.5 64.5q0 42 17 79.5t49 63.5q35 29 66.5 38t89.5 16l24 3l16 -89q-63 -12 -86.5 -19.5t-45.5 -27.5
q-16 -13 -25.5 -32.5t-9.5 -39.5q0 -31 21 -57q27 -32 71 -32q60 0 147 61q32 24 50 35l50 -83q-62 -40 -106.5 -82z" />
    <glyph glyph-name="uni06F7" unicode="&#x6f7;" horiz-adv-x="597" 
d="M170 300q-28 91 -55 150t-85 165l82 52q51 -94 77 -150t49.5 -126.5t60.5 -206.5q32 123 55.5 194.5t46 121t68.5 137.5l15 29l83 -51l-12 -24q-56 -106 -81.5 -163t-53.5 -148t-76 -280h-88q-58 209 -86 300z" />
    <glyph glyph-name="uni06F8" unicode="&#x6f8;" horiz-adv-x="597" 
d="M427 367.5q29 -91.5 55.5 -150.5t84.5 -167l-82 -52q-51 95 -77 151t-49 126.5t-61 205.5q-32 -123 -55 -194.5t-46 -121t-67 -135.5l-16 -31l-84 52l15 28q55 104 80.5 160.5t53 148t74.5 278.5h88q57 -207 86 -298.5z" />
    <glyph glyph-name="uni06F9" unicode="&#x6f9;" horiz-adv-x="438" 
d="M284.5 110q-4.5 47 -5.5 180h-78q-78 0 -124.5 45.5t-46.5 133.5q0 60 21.5 108t60 75t88.5 27q79 0 125.5 -57.5t46.5 -158.5q0 -185 1 -250.5t6 -102t19 -100.5l-92 -19q-17 72 -21.5 119zM139.5 411q17.5 -15 61.5 -15h78v67q0 59 -18 84.5t-61 25.5q-78 0 -78 -106
q0 -41 17.5 -56z" />
    <glyph glyph-name="uni2009" unicode="&#x2009;" horiz-adv-x="104" 
 />
    <glyph glyph-name="uni200A" unicode="&#x200a;" horiz-adv-x="64" 
 />
    <glyph glyph-name="uni200B" unicode="&#x200b;" 
 />
    <glyph glyph-name="uni200C" unicode="&#x200c;" 
 />
    <glyph glyph-name="uni200D" unicode="&#x200d;" 
 />
    <glyph glyph-name="uni200E" unicode="&#x200e;" 
 />
    <glyph glyph-name="uni200F" unicode="&#x200f;" 
 />
    <glyph glyph-name="quoteleft" unicode="&#x2018;" horiz-adv-x="209" 
d="M150 535v-95h-102v82q0 52 26 106t66 87l61 -39q-50 -76 -51 -141z" />
    <glyph glyph-name="quoteright" unicode="&#x2019;" horiz-adv-x="209" 
d="M59 638v95h102v-82q0 -52 -26 -106t-66 -87l-61 39q50 76 51 141z" />
    <glyph glyph-name="quotedblleft" unicode="&#x201c;" horiz-adv-x="392" 
d="M333 537v-95h-102v82q1 53 27 106.5t66 85.5l60 -38q-48 -73 -51 -141zM64 524q0 52 26 105.5t66 86.5l61 -38q-50 -76 -51 -141v-95h-102v82z" />
    <glyph glyph-name="quotedblright" unicode="&#x201d;" horiz-adv-x="376" 
d="M59 561v95h102v-82q0 -52 -26 -106t-66 -87l-61 39q50 76 51 141zM226 561v95h102v-82q0 -52 -26 -106t-66 -87l-60 39q49 74 50 141z" />
    <glyph glyph-name="quotedblbase" unicode="&#x201e;" horiz-adv-x="402" 
d="M69 20v95h102v-82q-1 -53 -27 -106.5t-66 -85.5l-60 38q48 73 51 141zM236 20v95h102v-82q0 -52 -26 -105.5t-66 -86.5l-61 38q50 76 51 141z" />
    <glyph glyph-name="bullet" unicode="&#x2022;" horiz-adv-x="475" 
d="M170 1.5q-31 18.5 -49.5 49.5t-18.5 68t18.5 68t49.5 49.5t68 18.5t68 -18.5t49 -49.5t18 -68t-18 -68t-49 -49.5t-68 -18.5t-68 18.5z" />
    <glyph glyph-name="ellipsis" unicode="&#x2026;" horiz-adv-x="850" 
d="M107 19.5q-20 20.5 -20 49.5t20 49t49 20t49.5 -20t20.5 -49t-20.5 -49.5t-49.5 -20.5t-49 20.5zM374 118q20 20 49 20t49.5 -20t20.5 -49t-20.5 -49.5t-49.5 -20.5t-49 20.5t-20 49.5t20 49zM643 118q20 20 49 20t49.5 -20t20.5 -49t-20.5 -49.5t-49.5 -20.5t-49 20.5
t-20 49.5t20 49z" />
    <glyph glyph-name="minute" unicode="&#x2032;" horiz-adv-x="175" 
d="M131 691l-12 -184h-71l1 193v50h82v-59z" />
    <glyph glyph-name="second" unicode="&#x2033;" horiz-adv-x="322" 
d="M294 691l-12 -184h-70v243h82v-59zM67 700v50h82v-59l-12 -184h-71z" />
    <glyph glyph-name="guilsinglleft" unicode="&#x2039;" horiz-adv-x="234" 
d="M184 26l-49 -55q-100 110 -100 248t100 248l49 -55q-74 -92 -74 -193q0 -100 74 -193z" />
    <glyph glyph-name="guilsinglright" unicode="&#x203a;" horiz-adv-x="234" 
d="M50 412l49 55q100 -112 100 -248t-100 -248l-49 55q74 93 74 193q0 101 -74 193z" />
    <glyph glyph-name="fraction" unicode="&#x2044;" horiz-adv-x="452" 
d="M81 54l-56 33l347 556l56 -34z" />
    <glyph glyph-name="uni2070" unicode="&#x2070;" horiz-adv-x="296" 
d="M77.5 378.5q-29.5 29.5 -29.5 69.5t29.5 69t70.5 29t70.5 -29t29.5 -69q0 -41 -29.5 -70t-70.5 -29t-70.5 29.5zM117 415q13 -13 31 -13q19 0 31 13t12 33t-12 32.5t-31 12.5q-18 0 -31 -13t-13 -32q0 -20 13 -33z" />
    <glyph glyph-name="uni2074" unicode="&#x2074;" horiz-adv-x="369" 
d="M104 592q6 -24 15 -38t25 -22q-14 23 -14 52q0 47 33 81t79 34q27 0 45 -7.5t35.5 -19t24.5 -16.5l-27 -46q-34 18 -47.5 23.5t-31.5 5.5q-23 -1 -39.5 -16.5t-16.5 -38.5q0 -30 26 -49.5t80 -20.5h45v-63q-90 0 -139.5 6.5t-80.5 27.5q1 -30 1 -86l-1 -114h-57l2 114
q0 84 -6.5 145t-29.5 119l52 24q17 -40 27 -95z" />
    <glyph glyph-name="uni2075" unicode="&#x2075;" horiz-adv-x="365" 
d="M213 384q0 -7 -2 -21q10 -20 38 -20q21 0 33 13.5t12 40.5q-2 41 -32 94t-88 109q-51 -56 -76.5 -106.5t-25.5 -89.5q0 -60 43 -60q21 0 34.5 13t13.5 37q0 10 -1 15l46 9q5 -15 5 -34zM47 515q29 61 84 122l-19 15l36 49q96 -76 147.5 -158.5t51.5 -148.5
q0 -52 -29 -81.5t-70 -29.5q-38 0 -64 29q-28 -28 -70 -28q-39 0 -68 31.5t-29 86.5q1 52 30 113z" />
    <glyph glyph-name="uni2076" unicode="&#x2076;" horiz-adv-x="315" 
d="M208.5 460.5q-30.5 -34.5 -77.5 -102.5l-59 -87l-47 33l60 86q36 52 55 76q-52 2 -82 39q-27 33 -27 74q0 25 10 47.5t30 38.5q21 18 40.5 23.5t40 7.5t27.5 3l9 -53q-36 -7 -50.5 -12t-28.5 -17q-20 -15 -20 -43q0 -21 12 -34q15 -19 43 -19q38 0 90 38q5 3 12 8t16 11
l30 -49q-53 -34 -83.5 -68.5z" />
    <glyph glyph-name="uni2077" unicode="&#x2077;" horiz-adv-x="358" 
d="M102 466q-17 54 -33 89.5t-51 99.5l49 31q44 -81 62.5 -127.5t50.5 -162.5q26 104 44 150t55 119l11 21l50 -31q-39 -73 -54.5 -107t-32 -89t-47.5 -173h-52q-35 126 -52 180z" />
    <glyph glyph-name="uni2078" unicode="&#x2078;" horiz-adv-x="358" 
d="M256 504.5q17 -54.5 33 -90t51 -99.5l-49 -31q-44 81 -62 128t-50 162q-21 -79 -35.5 -123t-28.5 -73.5t-47 -93.5l-50 32q40 74 55 107.5t32 88.5t47 173h53q34 -126 51 -180.5z" />
    <glyph glyph-name="uni2079" unicode="&#x2079;" horiz-adv-x="263" 
d="M170.5 350q-2.5 28 -3.5 109h-46q-47 0 -75 27t-28 80q0 55 28.5 90.5t73.5 35.5q48 0 75.5 -34.5t27.5 -94.5q0 -84 0.5 -136.5t3.5 -75t12 -60.5l-55 -11q-11 42 -13.5 70zM83.5 532q10.5 -9 37.5 -9h46v40q0 35 -11 50.5t-36 15.5q-47 0 -47 -64q0 -24 10.5 -33z" />
    <glyph glyph-name="uni2080" unicode="&#x2080;" horiz-adv-x="296" 
d="M77.5 93.5q-29.5 29.5 -29.5 69.5t29.5 69t70.5 29t70.5 -29t29.5 -69q0 -41 -29.5 -70t-70.5 -29t-70.5 29.5zM117 130q13 -13 31 -13q19 0 31 13t12 33t-12 32.5t-31 12.5q-18 0 -31 -13t-13 -32q0 -20 13 -33z" />
    <glyph glyph-name="uni2081" unicode="&#x2081;" horiz-adv-x="153" 
d="M109 280.5q8 -63.5 8 -135.5v-31l-1 -114h-57l2 114q0 84 -6.5 145t-29.5 119l52 24q24 -58 32 -121.5z" />
    <glyph glyph-name="uni2082" unicode="&#x2082;" horiz-adv-x="292" 
d="M102 317q6 -28 20.5 -38.5t38.5 -10.5q22 0 35 13t9 39l-11 72l56 10l11 -74q1 -7 1 -19q0 -47 -31 -76.5t-70 -29.5q-27 0 -46 10q1 -35 1 -99l-1 -114h-56l1 114q1 80 -5.5 142.5t-30.5 121.5l53 24q16 -40 25 -85z" />
    <glyph glyph-name="uni2083" unicode="&#x2083;" horiz-adv-x="401" 
d="M104 309q4 -28 17 -37.5t35 -9.5q19 0 30 12t8 39l-9 65l56 9l10 -67q0 -3 1 -4q4 -32 13.5 -43t26.5 -11q18 0 26.5 8t8.5 28q0 9 -1 15l-10 75l57 7l9 -75q1 -7 1 -21q0 -48 -26 -75t-64 -27q-41 0 -65 34q-14 -16 -33 -25t-38 -9q-23 0 -42 10q1 -33 1 -93l-1 -114
h-56l1 114q1 80 -5.5 142.5t-30.5 121.5l53 24q17 -44 27 -93z" />
    <glyph glyph-name="uni2084" unicode="&#x2084;" horiz-adv-x="369" 
d="M104 307q6 -24 15 -38t25 -22q-14 23 -14 52q0 47 33 81t79 34q27 0 45 -7.5t35.5 -19t24.5 -16.5l-27 -46q-34 18 -47.5 23.5t-31.5 5.5q-23 -1 -39.5 -16.5t-16.5 -38.5q0 -30 26 -49.5t80 -20.5h45v-63q-90 0 -139.5 6.5t-80.5 27.5q1 -30 1 -86l-1 -114h-57l2 114
q0 84 -6.5 145t-29.5 119l52 24q17 -40 27 -95z" />
    <glyph glyph-name="uni2085" unicode="&#x2085;" horiz-adv-x="365" 
d="M213 99q0 -7 -2 -21q10 -20 38 -20q21 0 33 13.5t12 40.5q-2 41 -32 94t-88 109q-51 -56 -76.5 -106.5t-25.5 -89.5q0 -60 43 -60q21 0 34.5 13t13.5 37q0 10 -1 15l46 9q5 -15 5 -34zM47 230q29 61 84 122l-19 15l36 49q96 -76 147.5 -158.5t51.5 -148.5
q0 -52 -29 -81.5t-70 -29.5q-38 0 -64 29q-28 -28 -70 -28q-39 0 -68 31.5t-29 86.5q1 52 30 113z" />
    <glyph glyph-name="uni2086" unicode="&#x2086;" horiz-adv-x="315" 
d="M208.5 175.5q-30.5 -34.5 -77.5 -102.5l-59 -87l-47 33l60 86q36 52 55 76q-52 2 -82 39q-27 33 -27 74q0 25 10 47.5t30 38.5q21 18 40.5 23.5t40 7.5t27.5 3l9 -53q-36 -7 -50.5 -12t-28.5 -17q-20 -15 -20 -43q0 -21 12 -34q15 -19 43 -19q38 0 90 38q5 3 12 8t16 11
l30 -49q-53 -34 -83.5 -68.5z" />
    <glyph glyph-name="uni2087" unicode="&#x2087;" horiz-adv-x="358" 
d="M102 181q-17 54 -33 89.5t-51 99.5l49 31q44 -81 62.5 -127.5t50.5 -162.5q26 104 44 150t55 119l11 21l50 -31q-39 -73 -54.5 -107t-32 -89t-47.5 -173h-52q-35 126 -52 180z" />
    <glyph glyph-name="uni2088" unicode="&#x2088;" horiz-adv-x="358" 
d="M256 219.5q17 -54.5 33 -90t51 -99.5l-49 -31q-44 81 -62 128t-50 162q-21 -79 -35.5 -123t-28.5 -73.5t-47 -93.5l-50 32q40 74 55 107.5t32 88.5t47 173h53q34 -126 51 -180.5z" />
    <glyph glyph-name="uni2089" unicode="&#x2089;" horiz-adv-x="263" 
d="M170.5 65q-2.5 28 -3.5 109h-46q-47 0 -75 27t-28 80q0 55 28.5 90.5t73.5 35.5q48 0 75.5 -34.5t27.5 -94.5q0 -84 0.5 -136.5t3.5 -75t12 -60.5l-55 -11q-11 42 -13.5 70zM83.5 247q10.5 -9 37.5 -9h46v40q0 35 -11 50.5t-36 15.5q-47 0 -47 -64q0 -24 10.5 -33z" />
    <glyph glyph-name="trademark" unicode="&#x2122;" horiz-adv-x="627" 
d="M487 635l-64 -187h-28l-64 187v-187h-50v263h62l66 -191l68 191h60v-263h-50v187zM52 711h192v-43h-69v-219h-52v219h-71v43z" />
    <glyph glyph-name="partialdiff" unicode="&#x2202;" horiz-adv-x="571" 
d="M163 22q-54 32 -83.5 91.5t-29.5 138.5v7q0 71 28 126t80 85.5t120 30.5q44 0 83 -17.5t67 -49.5q-12 102 -61.5 162t-117.5 60q-60 0 -133 -29l-12 82q43 19 79 26.5t75 7.5q129 0 200 -105t71 -297v-30q0 -97 -30.5 -169.5t-85 -112t-125.5 -39.5t-125 32zM190 120.5
q36 -46.5 98 -46.5q64 0 100 56t36 157l-1 42q-15 40 -51 63.5t-83 23.5q-63 0 -99 -43t-36 -118v-9q0 -79 36 -125.5z" />
    <glyph glyph-name="product" unicode="&#x220f;" horiz-adv-x="693" 
d="M613 -110h-106v737h-320v-737h-105v821h531v-821z" />
    <glyph glyph-name="summation" unicode="&#x2211;" horiz-adv-x="598" 
d="M435 283l-269 -330h423v-84h-557v70l291 350l-291 351v71h526v-85h-393l270 -330v-13z" />
    <glyph glyph-name="minus" unicode="&#x2212;" horiz-adv-x="566" 
d="M491 311h-412v85h412v-85z" />
    <glyph glyph-name="uni2215" unicode="&#x2215;" horiz-adv-x="600" 
d="M391 764l79 -24l-260 -809l-79 24z" />
    <glyph glyph-name="radical" unicode="&#x221a;" horiz-adv-x="585" 
d="M276 141l193 570h97l-245 -711h-84l-112 293h-95v86h164z" />
    <glyph glyph-name="infinity" unicode="&#x221e;" horiz-adv-x="1034" 
d="M165 25q-55 35 -86 96.5t-31 139.5q0 72 28 135.5t82.5 102.5t130.5 39q70 0 128 -43t98 -126q39 83 97 126t130 43q68 0 122.5 -35.5t86 -99.5t31.5 -145q0 -67 -28.5 -129t-83.5 -100.5t-129 -38.5q-71 0 -129 43.5t-97 126.5q-40 -84 -97.5 -127t-127.5 -43t-125 35z
M190 126q39 -51 102 -51q55 0 100.5 51.5t66.5 130.5v16q-10 47 -36 88t-61 66t-71 25q-64 0 -102 -51.5t-38 -142.5q0 -81 39 -132zM606.5 168q26.5 -42 61.5 -67.5t71 -25.5q63 0 101 52t38 143q0 80 -38.5 131t-99.5 51q-57 0 -103.5 -50.5t-66.5 -128.5v-16
q10 -47 36.5 -89z" />
    <glyph glyph-name="integral" unicode="&#x222b;" horiz-adv-x="266" 
d="M142.5 -169.5q-42.5 -43.5 -123.5 -43.5q-30 0 -60 9l9 81q23 -5 39 -5q73 0 73 82v627q0 85 45 132t128 47q33 0 73 -10l-11 -79q-22 5 -46 5q-84 0 -84 -99v-621q0 -82 -42.5 -125.5z" />
    <glyph glyph-name="approxequal" unicode="&#x2248;" horiz-adv-x="567" 
d="M106 480.5q33 13.5 67 13.5q31 0 57 -9t59 -27q32 -16 55 -24.5t50 -8.5q66 0 114 62v-98q-50 -53 -113 -53q-30 0 -56.5 9.5t-60.5 26.5q-32 16 -55 24.5t-48 8.5q-34 0 -68 -16t-57 -45v98q23 25 56 38.5zM49 237q25 26 56.5 40t65.5 14q29 0 55.5 -9t61.5 -27
q37 -18 59 -26t46 -8q66 0 114 62l1 -98q-50 -53 -114 -53q-31 0 -57 9t-60 27q-33 17 -56 25t-49 8q-33 0 -66 -16t-57 -46v98z" />
    <glyph glyph-name="notequal" unicode="&#x2260;" horiz-adv-x="556" 
d="M488 184h-263l-65 -116l-50 29l49 87h-87v87h137l67 117h-204v89h254l70 121l49 -29l-53 -92h96v-89h-146l-67 -117h213v-87z" />
    <glyph glyph-name="lessequal" unicode="&#x2264;" horiz-adv-x="512" 
d="M141 370l298 -111v-102l-407 175v79l407 174v-102zM39 92h412v-85h-412v85z" />
    <glyph glyph-name="greaterequal" unicode="&#x2265;" horiz-adv-x="514" 
d="M374 373l-311 114v100l419 -175v-79l-419 -174v99zM59 92h413v-85h-413v85z" />
    <glyph glyph-name="uniFBB2" unicode="&#xfbb2;" 
d="M136 374v-110h-111v110h111z" />
    <glyph glyph-name="uniFBB3" unicode="&#xfbb3;" 
d="M136 -79v-110h-111v110h111z" />
    <glyph glyph-name="uniFBB4" unicode="&#xfbb4;" 
d="M124 373v-106h-107v106h107zM199 373h107v-106h-107v106z" />
    <glyph glyph-name="uniFBB5" unicode="&#xfbb5;" 
d="M124 -51v-107h-107v107h107zM199 -51h107v-107h-107v107z" />
    <glyph glyph-name="uniFBB6" unicode="&#xfbb6;" 
d="M213 421v-101h-101v101h101zM16 287h107v-106h-107v106zM202 287h106v-106h-106v106z" />
    <glyph glyph-name="uniFBB9" unicode="&#xfbb9;" 
d="M114 -183h101v-102h-101v102zM18 -44h106v-107h-106v107zM204 -44h106v-107h-106v107z" />
    <glyph glyph-name="uniFD3E" unicode="&#xfd3e;" horiz-adv-x="394" 
d="M126 265q0 -155 64 -265t152 -186l-56 -68q-108 85 -182 216.5t-74 302.5q0 175 73.5 304t182.5 215l56 -68q-216 -191 -216 -451z" />
    <glyph glyph-name="uniFD3F" unicode="&#xfd3f;" horiz-adv-x="394" 
d="M290.5 569.5q73.5 -129.5 73.5 -304.5q0 -171 -74 -303t-182 -216l-56 68q217 189 217 451t-217 451l56 68q109 -85 182.5 -214.5z" />
    <glyph glyph-name="uniFEFF" unicode="&#xfeff;" 
 />
    <glyph glyph-name="uni0627.001" horiz-adv-x="277" 
d="M96 573h100v-573h-100v573z" />
    <glyph glyph-name="uni0627.002" horiz-adv-x="249" 
d="M86 655h94l1 -655h-94z" />
    <glyph glyph-name="uni0627.fina.001" horiz-adv-x="284" 
d="M124.5 56q-41.5 56 -41.5 160l-1 357h94l1 -357q0 -48 6 -69.5t24 -30t60 -8.5h22l6 -55l-6 -53h-22q-101 0 -142.5 56z" />
    <glyph glyph-name="uni066E.medi.001" horiz-adv-x="412" 
d="M291 317v-143q0 -36 18 -51t56 -15h52l6 -57l-6 -51h-52q-32 0 -66.5 14.5t-59.5 43.5q-24 -29 -60.5 -43.5t-74.5 -14.5h-109v108h109q48 0 70 18t22 58v133h95z" />
    <glyph glyph-name="uni066E.init.001" horiz-adv-x="362" 
d="M-5 108h127q95 0 95 64q0 26 -9 80.5t-20 102.5l91 23q12 -50 22.5 -111t10.5 -96q0 -44 -21 -83.5t-63 -63.5t-103 -24h-130v108z" />
    <glyph glyph-name="uni0628.medi.alt" horiz-adv-x="373" 
d="M269 317v-143q0 -36 18 -51t57 -15h34l6 -56l-6 -52h-34q-32 0 -66.5 14.5t-59.5 43.5q-25 -28 -61.5 -43t-74.5 -15h-87v108h87q48 0 70.5 18t22.5 58v133h94zM63 -142h111v-110h-111v110z" />
    <glyph glyph-name="uni0628.init.alt" horiz-adv-x="323" 
d="M-5 108h105q42 0 62 17.5t20 48.5q0 27 -9 79t-21 102l91 23q12 -50 22.5 -111t10.5 -96q0 -44 -20 -83t-59 -63.5t-93 -24.5h-109v108zM64 -142h111v-110h-111v110z" />
    <glyph glyph-name="uni067E.medi.alt" horiz-adv-x="412" 
d="M291 317v-143q0 -36 18 -51t56 -15h52l6 -57l-6 -51h-52q-32 0 -66.5 14.5t-59.5 43.5q-24 -29 -60.5 -43.5t-74.5 -14.5h-109v108h109q48 0 70 18t22 58v133h95zM21 -93h106v-107h-106v107zM117 -232h101v-102h-101v102zM206 -93h107v-107h-107v107z" />
    <glyph glyph-name="uni067E.init.alt" horiz-adv-x="391" 
d="M-3 108h154q96 0 96 64q0 27 -9 79.5t-21 103.5l91 23q12 -50 22.5 -111t10.5 -96q0 -44 -21 -83.5t-63 -63.5t-103 -24h-157v108zM25 -93h106v-106h-106v106zM121 -232h101v-101h-101v101zM210 -93h107v-106h-107v106z" />
    <glyph glyph-name="uni062A.medi.alt" horiz-adv-x="459" 
d="M338 317v-143q0 -36 18 -51t56 -15h52l6 -57l-6 -51h-52q-32 0 -66.5 14.5t-59.5 43.5q-24 -29 -60.5 -43.5t-74.5 -14.5h-156v108h156q48 0 70 18t22 58v133h95zM98 538h106v-107h-106v107zM279 538h107v-107h-107v107z" />
    <glyph glyph-name="uni062A.init.alt" horiz-adv-x="417" 
d="M-5 108h176q96 0 96 64q0 27 -9 79.5t-21 103.5l91 23q12 -50 22.5 -111t10.5 -96q0 -45 -20.5 -84t-63 -63t-103.5 -24h-179v108zM83 600h106v-106h-106v106zM264 600h107v-106h-107v106z" />
    <glyph glyph-name="uni062B.medi.alt" horiz-adv-x="467" 
d="M342 317v-143q0 -36 18 -51t56 -15h52l6 -57l-6 -51h-52q-32 0 -66.5 14.5t-59.5 43.5q-24 -29 -60.5 -43.5t-74.5 -14.5h-157v108h157q48 0 70 18t22 58v133h95zM72 537h106v-106h-106v106zM168 671h101v-101h-101v101zM258 537h106v-106h-106v106z" />
    <glyph glyph-name="uni062B.init.alt" horiz-adv-x="420" 
d="M-2 108h182q96 0 96 64q0 27 -9 79.5t-21 103.5l91 23q12 -50 22.5 -111t10.5 -96q0 -44 -21 -83.5t-63 -63.5t-103 -24h-185v108zM79 601h106v-107h-106v107zM175 735h101v-102h-101v102zM265 601h106v-107h-106v107z" />
    <glyph glyph-name="uni062D.fina.001" horiz-adv-x="654" 
d="M576 -252h-253q-93 0 -161 34t-98 119q-14 38 -14 83q0 73 42 134.5t116 91.5l276 113q-206 79 -241 79q-27 0 -42.5 -13t-29.5 -50l-88 27q24 74 65 108.5t95 34.5q29 0 81.5 -19.5t151.5 -62.5l109 -46l19 -113l-360 -153q-51 -21 -76.5 -54.5t-25.5 -73.5q0 -22 8 -48
q16 -46 58.5 -64.5t114.5 -18.5h253v-108z" />
    <glyph glyph-name="uni0631.003" horiz-adv-x="384" 
d="M281.5 45.5q-36.5 45.5 -61.5 129.5l67 41q14 -59 35.5 -82.5t59.5 -23.5h8v-110h-8q-64 0 -100.5 45.5z" />
    <glyph glyph-name="uni0643.init.alt" horiz-adv-x="854" 
d="M142.5 25q-43.5 25 -67.5 66.5t-24 91.5q0 9 2 29q3 21 13 69t18 84l88 -23q-27 -113 -29 -144q-1 -5 -1 -13q0 -36 26 -56.5t74 -20.5h359q37 0 57.5 14t20.5 37q0 29 -29 58l-207 208l26 123l341 150l39 -98l-303 -134l172 -176q27 -27 40.5 -60t13.5 -67
q0 -43 -20.5 -80.5t-59.5 -60t-92 -22.5h-358q-56 0 -99.5 25z" />
    <glyph glyph-name="uni0644.001" horiz-adv-x="678" 
d="M171.5 -211q-60.5 41 -91 108t-30.5 146q0 49 15 105.5t37 103.5l83 -38q-18 -40 -30 -86t-12 -85q0 -87 42 -137t132 -50h49q67 0 103 14t50.5 45.5t14.5 87.5l-1 658h94l1 -658q0 -120 -63 -187.5t-199 -67.5h-49q-85 0 -145.5 41z" />
    <glyph glyph-name="uni0649.fina.001" horiz-adv-x="692" 
d="M144 47q0 -88 42.5 -139.5t129.5 -51.5h101q75 0 118 20t43 51q2 28 -36 46q-59 27 -177 27v108h332l6 -53l-6 -55h-50q26 -23 26 -70q-1 -46 -29 -87.5t-85.5 -68t-141.5 -26.5h-101q-82 0 -142.5 40.5t-92 109t-31.5 148.5q0 56 19 123.5t48 131.5l85 -44
q-58 -127 -58 -210z" />
    <glyph glyph-name="uni064A.fina.001" horiz-adv-x="692" 
d="M144 47q0 -88 42.5 -139.5t129.5 -51.5h101q75 0 118 20t43 51q2 28 -36 46q-59 27 -177 27v108h332l6 -53l-6 -55h-50q26 -23 26 -70q-1 -46 -29 -87.5t-85.5 -68t-141.5 -26.5h-101q-82 0 -142.5 40.5t-92 109t-31.5 148.5q0 56 19 123.5t48 131.5l85 -44
q-58 -127 -58 -210z" />
    <glyph glyph-name="uni064A.medi.alt" horiz-adv-x="412" 
d="M291 317v-143q0 -36 18 -51t56 -15h52l6 -57l-6 -51h-52q-32 0 -66.5 14.5t-59.5 43.5q-24 -29 -60.5 -43.5t-74.5 -14.5h-109v108h109q48 0 70 18t22 58v133h95zM20 -143h107v-106h-107v106zM202 -143h107v-106h-107v106z" />
    <glyph glyph-name="uni064A.init.alt" horiz-adv-x="388" 
d="M-5 108h153q95 0 95 64q0 26 -9 80.5t-20 102.5l91 23q12 -50 22.5 -111t10.5 -96q0 -44 -21 -83.5t-63 -63.5t-103 -24h-156v108zM20 -144h106v-106h-106v106zM202 -144h106v-106h-106v106z" />
    <glyph glyph-name="uni0626.fina.001" horiz-adv-x="692" 
d="M144 47q0 -88 42.5 -139.5t129.5 -51.5h101q75 0 118 20t43 51q2 28 -36 46q-59 27 -177 27v108h332l6 -53l-6 -55h-50q26 -23 26 -70q-1 -46 -29 -87.5t-85.5 -68t-141.5 -26.5h-101q-82 0 -142.5 40.5t-92 109t-31.5 148.5q0 56 19 123.5t48 131.5l85 -44
q-58 -127 -58 -210zM175 383l53 15q-20 14 -31 35t-11 46q0 41 29 68.5t69 29.5q24 0 68 -10l-9 -53q-38 8 -57 8q-25 -1 -40 -14t-15 -33q1 -21 20.5 -36t48.5 -15q6 0 20 2l67 19l3 -55l-211 -62z" />
    <glyph glyph-name="uni06CE.fina.001" horiz-adv-x="692" 
d="M144 47q0 -88 42.5 -139.5t129.5 -51.5h101q75 0 118 20t43 51q2 28 -36 46q-59 27 -177 27v108h332l6 -53l-6 -55h-50q26 -23 26 -70q-1 -46 -29 -87.5t-85.5 -68t-141.5 -26.5h-101q-82 0 -142.5 40.5t-92 109t-31.5 148.5q0 56 19 123.5t48 131.5l85 -44
q-58 -127 -58 -210zM176 367l39 30l62 -99l63 99l39 -30l-71 -113h-61z" />
    <glyph glyph-name="uni06CE.medi.alt" horiz-adv-x="390" 
d="M64 510l39 31l63 -100l62 100l39 -31l-71 -113h-61zM-5 108h109q48 0 70 18t22 58v133h95v-143q0 -36 18 -51t56 -15h52l6 -57l-6 -51h-52q-32 0 -66.5 14.5t-59.5 43.5q-24 -29 -60.5 -43.5t-74.5 -14.5h-109v108zM20 -143h107v-106h-107v106zM202 -143h107v-106h-107
v106z" />
    <glyph glyph-name="uni06CE.init.alt" horiz-adv-x="388" 
d="M65 611l39 31l63 -100l62 100l39 -31l-71 -113h-61zM-3 108h151q95 0 95 64q0 26 -9 80.5t-20 102.5l91 23q12 -50 22.5 -111t10.5 -96q0 -44 -21 -83.5t-63 -63.5t-103 -24h-154v108zM20 -144h106v-106h-106v106zM202 -144h106v-106h-106v106z" />
    <glyph glyph-name="uni06CC.fina.001" horiz-adv-x="692" 
d="M144 47q0 -88 42.5 -139.5t129.5 -51.5h101q75 0 118 20t43 51q2 28 -36 46q-59 27 -177 27v108h332l6 -53l-6 -55h-50q26 -23 26 -70q-1 -46 -29 -87.5t-85.5 -68t-141.5 -26.5h-101q-82 0 -142.5 40.5t-92 109t-31.5 148.5q0 56 19 123.5t48 131.5l85 -44
q-58 -127 -58 -210z" />
    <glyph glyph-name="uni06CC.medi.alt" horiz-adv-x="412" 
d="M291 317v-143q0 -36 18 -51t56 -15h52l6 -57l-6 -51h-52q-32 0 -66.5 14.5t-59.5 43.5q-24 -29 -60.5 -43.5t-74.5 -14.5h-109v108h109q48 0 70 18t22 58v133h95zM20 -143h107v-106h-107v106zM202 -143h107v-106h-107v106z" />
    <glyph glyph-name="uni06CC.init.alt" horiz-adv-x="388" 
d="M-3 108h151q95 0 95 64q0 26 -9 80.5t-20 102.5l91 23q12 -50 22.5 -111t10.5 -96q0 -44 -21 -83.5t-63 -63.5t-103 -24h-154v108zM20 -144h106v-106h-106v106zM202 -144h106v-106h-106v106z" />
    <glyph glyph-name="uni06D2.fina.alt" horiz-adv-x="426" 
d="M77 -274q-23 59 -23 122q0 71 31 130.5t89 94.5t134 35h123l6 -53l-6 -55h-121q-76 0 -118 -38.5t-42 -105.5q0 -15 1 -22h242v-108h-316z" />
    <glyph glyph-name="uni06D3.fina.alt" horiz-adv-x="426" 
d="M77 -274q-23 59 -23 122q0 71 31 130.5t89 94.5t134 35h123l6 -53l-6 -55h-121q-76 0 -118 -38.5t-42 -105.5q0 -15 1 -22h242v-108h-316zM154 213q-19 14 -30 35t-11 46q0 41 28.5 68.5t69.5 29.5q23 0 67 -10l-9 -53q-38 8 -57 8q-25 -2 -39.5 -14t-14.5 -31
q0 -23 19.5 -38t49.5 -15q6 0 20 2l66 19l4 -55l-212 -62l-3 55z" />
    <glyph glyph-name="uni06D3.fina.alt2" horiz-adv-x="382" 
d="M76 -274q-23 59 -23 122q0 71 31 130.5t88.5 94.5t133.5 35h82l6 -53l-6 -55h-80q-75 0 -117.5 -38.5t-42.5 -106.5q0 -14 1 -21h392v-108h-465zM163 215q-41 30 -41 80q0 41 29 69t69 30q13 0 29.5 -3t37.5 -8l-9 -52q-37 7 -56 7q-25 -1 -40 -13.5t-15 -32.5
q1 -22 20 -36.5t49 -14.5q14 0 22 2l65 19l3 -56l-212 -62l-3 56z" />
    <glyph glyph-name="uni0640.001" horiz-adv-x="29" 
d="M-2 108h33l6 -53l-6 -55h-33v108z" />
    <glyph glyph-name="uni06440627.001" horiz-adv-x="549" 
d="M50 108h274q40 0 60.5 18.5t20.5 61.5v467h94v-471q0 -62 -26.5 -103.5t-65.5 -61t-76 -19.5h-281v108zM173 596l26 -411l-94 -7l-26 411z" />
    <glyph glyph-name="uni06440627.fina.001" horiz-adv-x="601" 
d="M511 14q-32 14 -56 42q-25 -28 -58.5 -42t-65.5 -14h-281v108h274q40 0 60.5 18.5t20.5 61.5v467h94v-471q0 -76 75 -76h32v-108h-32q-31 0 -63 14zM173 596l26 -411l-94 -7l-26 411z" />
    <glyph glyph-name="uni06B50627" horiz-adv-x="549" 
d="M50 108h274q40 0 60.5 18.5t20.5 61.5v467h94v-471q0 -62 -26.5 -103.5t-65.5 -61t-76 -19.5h-281v108zM172 644l27 -459l-94 -7l-28 459zM389 840l62 -99l63 99l39 -30l-71 -113h-61l-71 113z" />
    <glyph glyph-name="uni06B50627.fina" horiz-adv-x="601" 
d="M511 14q-32 14 -56 42q-25 -28 -58.5 -42t-65.5 -14h-281v108h274q40 0 60.5 18.5t20.5 61.5v467h94v-471q0 -76 75 -76h32l6 -53l-6 -55h-32q-31 0 -63 14zM172 644l27 -459l-94 -7l-28 459zM389 840l62 -99l63 99l39 -30l-71 -113h-61l-71 113z" />
    <glyph glyph-name="uni0664.ss03" horiz-adv-x="665" 
d="M195 532h1q10 -49 24.5 -77t43.5 -43q-22 41 -22 86q0 52 25 96t68 70t93 26q45 0 75.5 -13t76.5 -43l23 -15l-45 -78q-56 30 -78 39.5t-52 9.5q-39 -1 -66.5 -27t-27.5 -64q0 -50 43 -82t132 -35h76v-106q-149 0 -232.5 11.5t-134.5 46.5q2 -51 2 -144l-2 -190h-94
l2 190v39q0 119 -11.5 215.5t-48.5 185.5l88 40q27 -69 41 -138z" />
    <glyph glyph-name="uni0665.ss03" horiz-adv-x="665" 
d="M387 166q0 -12 -4 -36q8 -16 24.5 -25t39.5 -9q33 0 53.5 22t20.5 66q0 69 -50.5 158t-150.5 183q-84 -92 -126 -175.5t-42 -149.5q0 -102 72 -102q36 0 58 22t22 63q0 7 -2 23l77 16q8 -30 8 -56zM109 381q49 103 141 205l-33 26l60 81q108 -84 183 -175.5t112.5 -177.5
t37.5 -158q0 -58 -23.5 -100t-62 -63.5t-82.5 -21.5q-30 0 -57.5 12.5t-47.5 34.5q-22 -22 -52 -34t-63 -12q-42 0 -79 22.5t-60 67t-23 105.5q0 85 49 188z" />
    <glyph glyph-name="uni0666.ss03" horiz-adv-x="665" 
d="M454.5 324q-44.5 -42 -75 -82.5t-85.5 -120.5l-99 -145l-78 55l100 144q16 22 23 33q10 14 30.5 43t37.5 51q-42 2 -76.5 18.5t-59.5 46.5q-22 27 -33.5 58.5t-11.5 64.5q0 42 17 79.5t49 63.5q35 29 66.5 38t89.5 16l24 3l16 -89q-63 -12 -86.5 -19.5t-45.5 -27.5
q-16 -13 -25.5 -32.5t-9.5 -39.5q0 -31 21 -57q27 -32 71 -32q60 0 147 61q32 24 50 35l50 -83q-62 -40 -106.5 -82z" />
    <glyph glyph-name="uni06F0.ss03" horiz-adv-x="665" 
d="M264.5 60.5q-38.5 22.5 -61 60.5t-22.5 82t22.5 82t61 60t83.5 22t83.5 -22t61 -59.5t22.5 -82.5q0 -44 -22.5 -82t-61 -60.5t-83.5 -22.5t-83.5 22.5zM296 148.5q21 -21.5 52 -21.5t52 21.5t21 54.5q0 32 -21 53.5t-52 21.5t-52 -21.5t-21 -53.5q0 -33 21 -54.5z" />
    <glyph glyph-name="uni06F1.ss03" horiz-adv-x="665" 
d="M376 465q13 -107 13 -233v-42l-2 -190h-94l2 190v39q0 119 -11.5 215.5t-48.5 185.5l88 40q40 -98 53 -205z" />
    <glyph glyph-name="uni06F2.ss03" horiz-adv-x="665" 
d="M265 529q10 -48 34 -65.5t64 -17.5q32 0 53 17t21 52q0 12 -1 18l-18 121l94 16l18 -124q2 -11 2 -32q0 -52 -24.5 -92t-63.5 -62t-81 -22q-43 0 -77 17q3 -59 3 -165l-2 -190h-94l2 190v39q0 119 -11.5 215.5t-48.5 185.5l88 40q25 -62 42 -141z" />
    <glyph glyph-name="uni06F3.ss03" horiz-adv-x="665" 
d="M167 499q10 -36 30.5 -49.5t53.5 -13.5q28 0 46 16t18 50q0 12 -1 19l-15 109l94 15l16 -111l1 -9q8 -51 24 -70t44 -19q29 0 43 14t14 46q0 7 -2 25l-15 125l94 13l16 -125q2 -24 2 -34q0 -55 -21 -93.5t-55.5 -58.5t-74.5 -20q-68 0 -109 58q-23 -27 -54 -42.5
t-63 -15.5q-39 0 -70 16q2 -55 2 -154l-2 -190h-94l2 190v39q0 119 -11.5 215.5t-48.5 185.5l88 40q31 -77 48 -171z" />
    <glyph glyph-name="uni06F4.ss03" horiz-adv-x="665" 
d="M196 515q9 -40 23.5 -64t40.5 -39q-22 41 -22 86q0 52 25 96t68 70t93 26q46 0 77 -13t78 -44l21 -14l-46 -78q-56 30 -78 39.5t-52 9.5q-39 -1 -66.5 -27t-27.5 -64q0 -49 43 -81.5t132 -35.5h77l-1 -106q-148 0 -231.5 11.5t-134.5 46.5q2 -51 2 -144l-2 -190h-94
l2 190v39q0 119 -11.5 215.5t-48.5 185.5l88 40q28 -67 45 -155z" />
    <glyph glyph-name="uni06F5.ss03" horiz-adv-x="665" 
d="M385 164q0 -17 -3 -34q8 -16 24 -25t39 -9q34 0 54.5 22.5t20.5 68.5q-2 69 -52.5 157t-148.5 181q-85 -93 -127 -177.5t-42 -150.5q0 -99 72 -99q36 0 58 21.5t22 62.5q0 6 -2 24l77 16q8 -32 8 -58zM107.5 381q48.5 103 141.5 205l-33 26l60 81q108 -84 183 -175.5
t112.5 -177.5t37.5 -158q0 -58 -23.5 -100t-62 -63.5t-82.5 -21.5q-30 0 -57.5 12.5t-47.5 34.5q-22 -22 -52.5 -34t-63.5 -12q-42 0 -79 22.5t-59.5 67t-22.5 105.5q0 85 48.5 188z" />
    <glyph glyph-name="uni06F6.ss03" horiz-adv-x="665" 
d="M462.5 329q-42.5 -40 -74 -80t-77.5 -106l-15 -22l-99 -145l-77 55l99 144q16 22 23 33q10 14 30.5 43t37.5 51q-41 2 -76 18.5t-60 46.5q-45 54 -45 124q0 41 17 78.5t49 63.5q35 29 66.5 38t89.5 16l24 3l16 -89q-63 -12 -86.5 -19.5t-45.5 -27.5q-16 -13 -25 -32
t-9 -39q0 -34 21 -58q26 -32 70 -32q60 0 147 61q32 24 50 35l50 -83q-58 -37 -100.5 -77z" />
    <glyph glyph-name="uni06F7.ss03" horiz-adv-x="665" 
d="M207 301q-28 91 -55 150t-85 166l82 52q52 -95 77.5 -151t49 -126.5t60.5 -206.5q32 123 55.5 195t46 121.5t68.5 137.5l15 29l84 -52l-12 -22q-57 -107 -82.5 -164t-53 -148t-75.5 -281h-89q-58 209 -86 300z" />
    <glyph glyph-name="uni06F8.ss03" horiz-adv-x="665" 
d="M460 366q28 -91 55 -150t85 -166l-82 -52q-52 95 -77.5 151t-49 126.5t-60.5 206.5q-32 -123 -55.5 -195t-46 -121.5t-68.5 -137.5l-15 -29l-83 52l12 23q56 106 81.5 163t53.5 148.5t76 280.5h88q58 -209 86 -300z" />
    <glyph glyph-name="uni06F9.ss03" horiz-adv-x="665" 
d="M398.5 110q-4.5 47 -5.5 180h-77q-78 0 -124.5 45.5t-46.5 133.5q0 60 21 108t59.5 75t89.5 27q79 0 125.5 -57.5t46.5 -158.5q0 -185 1 -250.5t6 -102t19 -100.5l-93 -19q-17 72 -21.5 119zM254.5 411q17.5 -15 61.5 -15h77v67q0 59 -18 84.5t-60 25.5q-78 0 -78 -106
q0 -41 17.5 -56z" />
    <glyph glyph-name="uni06F4.urdu" horiz-adv-x="616" 
d="M174 515q9 -41 24 -65t42 -38q-23 40 -23 86q0 52 25 96t67.5 70t93.5 26q45 0 75.5 -13t76.5 -43l23 -15l-45 -78q-55 30 -78 39.5t-53 9.5q-38 -1 -65.5 -27t-27.5 -64q0 -50 43 -82t132 -35h76v-106q-149 0 -232.5 11.5t-134.5 46.5q2 -51 2 -144l-2 -190h-94l2 190
v39q0 119 -11.5 215.5t-48.5 185.5l88 40q28 -67 45 -155z" />
    <glyph glyph-name="uni06F7.urdu" horiz-adv-x="597" 
d="M170 301q-28 91 -55 150t-85 166l82 52q52 -95 77.5 -151t49 -126.5t60.5 -206.5q32 123 55.5 195t46 121.5t68.5 137.5l15 29l83 -52l-12 -23q-56 -106 -81.5 -163t-53.5 -148.5t-76 -280.5h-88q-58 209 -86 300z" />
    <glyph glyph-name="zero.ss01" horiz-adv-x="494" 
d="M163.5 60.5q-38.5 22.5 -61 60.5t-22.5 82t22.5 82t61 60t83.5 22t83.5 -22t61 -59.5t22.5 -82.5q0 -44 -22.5 -82t-61 -60.5t-83.5 -22.5t-83.5 22.5zM194.5 148.5q21.5 -21.5 52.5 -21.5t51.5 21.5t20.5 54.5q0 32 -20.5 53.5t-51.5 21.5t-52.5 -21.5t-21.5 -53.5
q0 -33 21.5 -54.5z" />
    <glyph glyph-name="one.ss01" horiz-adv-x="254" 
d="M182 465q13 -107 13 -233v-42l-2 -190h-94l2 190v39q0 119 -11.5 215.5t-48.5 185.5l88 40q40 -98 53 -205z" />
    <glyph glyph-name="two.ss01" horiz-adv-x="487" 
d="M170 529q10 -48 34 -65.5t64 -17.5q32 0 53 17t21 52q0 12 -1 18l-18 121l94 16l18 -124q2 -11 2 -32q0 -52 -24.5 -92t-63.5 -62t-81 -22q-43 0 -77 17q3 -59 3 -165l-2 -190h-94l2 190v39q0 119 -11.5 215.5t-48.5 185.5l88 40q25 -62 42 -141z" />
    <glyph glyph-name="three.ss01" horiz-adv-x="669" 
d="M173 515q8 -46 29.5 -62.5t57.5 -16.5q28 0 46.5 17t18.5 51q0 11 -1 17l-16 109l94 15l16 -111l1 -10q8 -51 24 -69.5t44 -18.5q29 0 43.5 14t14.5 46q0 7 -2 25l-16 125l94 13l16 -125q2 -24 2 -35q0 -54 -20.5 -93t-55 -58.5t-75.5 -19.5q-68 0 -109 57
q-23 -27 -54 -42t-63 -15q-39 0 -70 16q2 -55 2 -154l-2 -190h-94l2 190v39q0 119 -11.5 215.5t-48.5 185.5l88 40q29 -69 45 -155z" />
    <glyph glyph-name="four.ss01" horiz-adv-x="616" 
d="M174 515q9 -41 24 -65t42 -38q-23 40 -23 86q0 52 25 96t67.5 70t93.5 26q45 0 75.5 -13t76.5 -43l23 -15l-45 -78q-55 30 -78 39.5t-53 9.5q-38 -1 -65.5 -27t-27.5 -64q0 -50 43 -82t132 -35h76v-106q-149 0 -232.5 11.5t-134.5 46.5q2 -51 2 -144l-2 -190h-94l2 190
v39q0 119 -11.5 215.5t-48.5 185.5l88 40q28 -67 45 -155z" />
    <glyph glyph-name="five.ss01" horiz-adv-x="608" 
d="M355 164q0 -17 -3 -34q8 -16 24 -25t39 -9q34 0 54.5 22.5t20.5 68.5q-2 69 -52.5 157t-148.5 181q-85 -93 -127 -177.5t-42 -150.5q0 -99 72 -99q36 0 58 21.5t22 62.5q0 6 -2 24l77 16q8 -32 8 -58zM77.5 381q48.5 103 141.5 205l-33 26l60 81q108 -84 183 -175.5
t112.5 -177.5t37.5 -158q0 -58 -23.5 -100t-62 -63.5t-82.5 -21.5q-30 0 -57.5 12.5t-47.5 34.5q-22 -22 -52.5 -34t-63.5 -12q-42 0 -79 22.5t-59.5 67t-22.5 105.5q0 85 48.5 188z" />
    <glyph glyph-name="six.ss01" horiz-adv-x="526" 
d="M379.5 324q-44.5 -42 -75 -82.5t-85.5 -120.5l-99 -145l-78 55l100 144q16 22 23 33q10 14 30.5 43t37.5 51q-42 2 -76.5 18.5t-59.5 46.5q-22 27 -33.5 58.5t-11.5 64.5q0 42 17 79.5t49 63.5q35 29 66.5 38t89.5 16l24 3l16 -89q-63 -12 -86.5 -19.5t-45.5 -27.5
q-16 -13 -25.5 -32.5t-9.5 -39.5q0 -31 21 -57q27 -32 71 -32q60 0 147 61q32 24 50 35l50 -83q-62 -40 -106.5 -82z" />
    <glyph glyph-name="seven.ss01" horiz-adv-x="597" 
d="M170 301q-28 91 -55 150t-85 166l82 52q52 -95 77.5 -151t49 -126.5t60.5 -206.5q32 123 55.5 195t46 121.5t68.5 137.5l15 29l83 -52l-12 -23q-56 -106 -81.5 -163t-53.5 -148.5t-76 -280.5h-88q-58 209 -86 300z" />
    <glyph glyph-name="eight.ss01" horiz-adv-x="597" 
d="M427 366q28 -91 55 -150t85 -166l-82 -52q-52 95 -77.5 151t-49 126.5t-60.5 206.5q-32 -123 -55.5 -195t-46 -121.5t-68.5 -137.5l-15 -29l-83 52l12 23q56 106 81.5 163t53.5 148.5t76 280.5h88q58 -209 86 -300z" />
    <glyph glyph-name="nine.ss01" horiz-adv-x="438" 
d="M284.5 110q-4.5 47 -5.5 180h-78q-78 0 -124.5 45.5t-46.5 133.5q0 60 21.5 108t60 75t88.5 27q79 0 125.5 -57.5t46.5 -158.5q0 -185 1 -250.5t6 -102t19 -100.5l-92 -19q-17 72 -21.5 119zM139.5 411q17.5 -15 61.5 -15h78v67q0 59 -18 84.5t-61 25.5q-78 0 -78 -106
q0 -41 17.5 -56z" />
    <glyph glyph-name="zero.ss02" horiz-adv-x="494" 
d="M163.5 60.5q-38.5 22.5 -61 60.5t-22.5 82t22.5 82t61 60t83.5 22t83.5 -22t61 -59.5t22.5 -82.5q0 -44 -22.5 -82t-61 -60.5t-83.5 -22.5t-83.5 22.5zM194.5 148.5q21.5 -21.5 52.5 -21.5t51.5 21.5t20.5 54.5q0 32 -20.5 53.5t-51.5 21.5t-52.5 -21.5t-21.5 -53.5
q0 -33 21.5 -54.5z" />
    <glyph glyph-name="one.ss02" horiz-adv-x="254" 
d="M182 465q13 -107 13 -233v-42l-2 -190h-94l2 190v39q0 119 -11.5 215.5t-48.5 185.5l88 40q40 -98 53 -205z" />
    <glyph glyph-name="two.ss02" horiz-adv-x="487" 
d="M170 529q10 -48 34 -65.5t64 -17.5q32 0 53 17t21 52q0 12 -1 18l-18 121l94 16l18 -124q2 -11 2 -32q0 -52 -24.5 -92t-63.5 -62t-81 -22q-43 0 -77 17q3 -59 3 -165l-2 -190h-94l2 190v39q0 119 -11.5 215.5t-48.5 185.5l88 40q25 -62 42 -141z" />
    <glyph glyph-name="three.ss02" horiz-adv-x="669" 
d="M173 515q8 -46 29.5 -62.5t57.5 -16.5q28 0 46.5 17t18.5 51q0 11 -1 17l-16 109l94 15l16 -111l1 -10q8 -51 24 -69.5t44 -18.5q29 0 43.5 14t14.5 46q0 7 -2 25l-16 125l94 13l16 -125q2 -24 2 -35q0 -54 -20.5 -93t-55 -58.5t-75.5 -19.5q-68 0 -109 57
q-23 -27 -54 -42t-63 -15q-39 0 -70 16q2 -55 2 -154l-2 -190h-94l2 190v39q0 119 -11.5 215.5t-48.5 185.5l88 40q29 -69 45 -155z" />
    <glyph glyph-name="four.ss02" horiz-adv-x="616" 
d="M174 515q9 -41 24 -65t42 -38q-23 40 -23 86q0 52 25 96t67.5 70t93.5 26q45 0 75.5 -13t76.5 -43l23 -15l-45 -78q-55 30 -78 39.5t-53 9.5q-38 -1 -65.5 -27t-27.5 -64q0 -50 43 -82t132 -35h76v-106q-149 0 -232.5 11.5t-134.5 46.5q2 -51 2 -144l-2 -190h-94l2 190
v39q0 119 -11.5 215.5t-48.5 185.5l88 40q28 -67 45 -155z" />
    <glyph glyph-name="five.ss02" horiz-adv-x="608" 
d="M355 164q0 -17 -3 -34q8 -16 24 -25t39 -9q34 0 54.5 22.5t20.5 68.5q-2 69 -52.5 157t-148.5 181q-85 -93 -127 -177.5t-42 -150.5q0 -99 72 -99q36 0 58 21.5t22 62.5q0 6 -2 24l77 16q8 -32 8 -58zM77.5 381q48.5 103 141.5 205l-33 26l60 81q108 -84 183 -175.5
t112.5 -177.5t37.5 -158q0 -58 -23.5 -100t-62 -63.5t-82.5 -21.5q-30 0 -57.5 12.5t-47.5 34.5q-22 -22 -52.5 -34t-63.5 -12q-42 0 -79 22.5t-59.5 67t-22.5 105.5q0 85 48.5 188z" />
    <glyph glyph-name="six.ss02" horiz-adv-x="526" 
d="M379.5 324q-44.5 -42 -75 -82.5t-85.5 -120.5l-99 -145l-78 55l100 144q16 22 23 33q10 14 30.5 43t37.5 51q-42 2 -76.5 18.5t-59.5 46.5q-22 27 -33.5 58.5t-11.5 64.5q0 42 17 79.5t49 63.5q35 29 66.5 38t89.5 16l24 3l16 -89q-63 -12 -86.5 -19.5t-45.5 -27.5
q-16 -13 -25.5 -32.5t-9.5 -39.5q0 -31 21 -57q27 -32 71 -32q60 0 147 61q32 24 50 35l50 -83q-62 -40 -106.5 -82z" />
    <glyph glyph-name="seven.ss02" horiz-adv-x="597" 
d="M170 301q-28 91 -55 150t-85 166l82 52q52 -95 77.5 -151t49 -126.5t60.5 -206.5q32 123 55.5 195t46 121.5t68.5 137.5l15 29l83 -52l-12 -23q-56 -106 -81.5 -163t-53.5 -148.5t-76 -280.5h-88q-58 209 -86 300z" />
    <glyph glyph-name="eight.ss02" horiz-adv-x="597" 
d="M427 367.5q29 -91.5 55.5 -150.5t84.5 -167l-82 -52q-51 95 -77 151t-49 126.5t-61 205.5q-32 -123 -55 -194.5t-46 -121t-67 -135.5l-16 -31l-84 52l15 28q55 104 80.5 160.5t53 148t74.5 278.5h88q57 -207 86 -298.5z" />
    <glyph glyph-name="nine.ss02" horiz-adv-x="438" 
d="M284.5 110q-4.5 47 -5.5 180h-78q-78 0 -124.5 45.5t-46.5 133.5q0 60 21.5 108t60 75t88.5 27q79 0 125.5 -57.5t46.5 -158.5q0 -185 1 -250.5t6 -102t19 -100.5l-92 -19q-17 72 -21.5 119zM139.5 411q17.5 -15 61.5 -15h78v67q0 59 -18 84.5t-61 25.5q-78 0 -78 -106
q0 -41 17.5 -56z" />
    <glyph glyph-name="zero.ss03" horiz-adv-x="665" 
d="M264.5 60.5q-38.5 22.5 -61 60.5t-22.5 82t22.5 82t61 60t83.5 22t83.5 -22t61 -59.5t22.5 -82.5q0 -44 -22.5 -82t-61 -60.5t-83.5 -22.5t-83.5 22.5zM296 148.5q21 -21.5 52 -21.5t52 21.5t21 54.5q0 32 -21 53.5t-52 21.5t-52 -21.5t-21 -53.5q0 -33 21 -54.5z" />
    <glyph glyph-name="one.ss03" horiz-adv-x="665" 
d="M376 465q13 -107 13 -233v-42l-2 -190h-94l2 190v39q0 119 -11.5 215.5t-48.5 185.5l88 40q40 -98 53 -205z" />
    <glyph glyph-name="two.ss03" horiz-adv-x="665" 
d="M265 529q10 -48 34 -65.5t64 -17.5q32 0 53 17t21 52q0 12 -1 18l-18 121l94 16l18 -124q2 -11 2 -32q0 -52 -24.5 -92t-63.5 -62t-81 -22q-43 0 -77 17q3 -59 3 -165l-2 -190h-94l2 190v39q0 119 -11.5 215.5t-48.5 185.5l88 40q25 -62 42 -141z" />
    <glyph glyph-name="three.ss03" horiz-adv-x="665" 
d="M167 499q10 -36 30.5 -49.5t53.5 -13.5q28 0 46 16t18 50q0 12 -1 19l-15 109l94 15l16 -111l1 -9q8 -51 24 -70t44 -19q29 0 43 14t14 46q0 7 -2 25l-15 125l94 13l16 -125q2 -24 2 -34q0 -55 -21 -93.5t-55.5 -58.5t-74.5 -20q-68 0 -109 58q-23 -27 -54 -42.5
t-63 -15.5q-39 0 -70 16q2 -55 2 -154l-2 -190h-94l2 190v39q0 119 -11.5 215.5t-48.5 185.5l88 40q31 -77 48 -171z" />
    <glyph glyph-name="four.ss03" horiz-adv-x="665" 
d="M196 515q9 -40 23.5 -64t40.5 -39q-22 41 -22 86q0 52 25 96t68 70t93 26q46 0 77 -13t78 -44l21 -14l-46 -78q-56 30 -78 39.5t-52 9.5q-39 -1 -66.5 -27t-27.5 -64q0 -49 43 -81.5t132 -35.5h77l-1 -106q-148 0 -231.5 11.5t-134.5 46.5q2 -51 2 -144l-2 -190h-94
l2 190v39q0 119 -11.5 215.5t-48.5 185.5l88 40q28 -67 45 -155z" />
    <glyph glyph-name="five.ss03" horiz-adv-x="665" 
d="M385 164q0 -17 -3 -34q8 -16 24 -25t39 -9q34 0 54.5 22.5t20.5 68.5q-2 69 -52.5 157t-148.5 181q-85 -93 -127 -177.5t-42 -150.5q0 -99 72 -99q36 0 58 21.5t22 62.5q0 6 -2 24l77 16q8 -32 8 -58zM107.5 381q48.5 103 141.5 205l-33 26l60 81q108 -84 183 -175.5
t112.5 -177.5t37.5 -158q0 -58 -23.5 -100t-62 -63.5t-82.5 -21.5q-30 0 -57.5 12.5t-47.5 34.5q-22 -22 -52.5 -34t-63.5 -12q-42 0 -79 22.5t-59.5 67t-22.5 105.5q0 85 48.5 188z" />
    <glyph glyph-name="six.ss03" horiz-adv-x="665" 
d="M462.5 329q-42.5 -40 -74 -80t-77.5 -106l-15 -22l-99 -145l-77 55l99 144q16 22 23 33q10 14 30.5 43t37.5 51q-41 2 -76 18.5t-60 46.5q-45 54 -45 124q0 41 17 78.5t49 63.5q35 29 66.5 38t89.5 16l24 3l16 -89q-63 -12 -86.5 -19.5t-45.5 -27.5q-16 -13 -25 -32
t-9 -39q0 -34 21 -58q26 -32 70 -32q60 0 147 61q32 24 50 35l50 -83q-58 -37 -100.5 -77z" />
    <glyph glyph-name="seven.ss03" horiz-adv-x="665" 
d="M207 301q-28 91 -55 150t-85 166l82 52q52 -95 77.5 -151t49 -126.5t60.5 -206.5q32 123 55.5 195t46 121.5t68.5 137.5l15 29l84 -52l-12 -22q-57 -107 -82.5 -164t-53 -148t-75.5 -281h-89q-58 209 -86 300z" />
    <glyph glyph-name="eight.ss03" horiz-adv-x="665" 
d="M460 366q28 -91 55 -150t85 -166l-82 -52q-52 95 -77.5 151t-49 126.5t-60.5 206.5q-32 -123 -55.5 -195t-46 -121.5t-68.5 -137.5l-15 -29l-83 52l12 23q56 106 81.5 163t53.5 148.5t76 280.5h88q58 -209 86 -300z" />
    <glyph glyph-name="nine.ss03" horiz-adv-x="665" 
d="M398.5 110q-4.5 47 -5.5 180h-77q-78 0 -124.5 45.5t-46.5 133.5q0 60 21 108t59.5 75t89.5 27q79 0 125.5 -57.5t46.5 -158.5q0 -185 1 -250.5t6 -102t19 -100.5l-93 -19q-17 72 -21.5 119zM254.5 411q17.5 -15 61.5 -15h77v67q0 59 -18 84.5t-60 25.5q-78 0 -78 -106
q0 -41 17.5 -56z" />
    <glyph glyph-name="zero.dnom" horiz-adv-x="296" 
d="M77.5 93.5q-29.5 29.5 -29.5 69.5t29.5 69t70.5 29t70.5 -29t29.5 -69q0 -41 -29.5 -70t-70.5 -29t-70.5 29.5zM117 130q13 -13 31 -13q19 0 31 13t12 33t-12 32.5t-31 12.5q-18 0 -31 -13t-13 -32q0 -20 13 -33z" />
    <glyph glyph-name="one.dnom" horiz-adv-x="153" 
d="M109 280.5q8 -63.5 8 -135.5v-31l-1 -114h-57l2 114q0 84 -6.5 145t-29.5 119l52 24q24 -58 32 -121.5z" />
    <glyph glyph-name="two.dnom" horiz-adv-x="292" 
d="M102 317q6 -28 20.5 -38.5t38.5 -10.5q22 0 35 13t9 39l-11 72l56 10l11 -74q1 -7 1 -19q0 -47 -31 -76.5t-70 -29.5q-27 0 -46 10q1 -35 1 -99l-1 -114h-56l1 114q1 80 -5.5 142.5t-30.5 121.5l53 24q16 -40 25 -85z" />
    <glyph glyph-name="three.dnom" horiz-adv-x="401" 
d="M104 309q4 -28 17 -37.5t35 -9.5q19 0 30 12t8 39l-9 65l56 9l10 -67q0 -3 1 -4q4 -32 13.5 -43t26.5 -11q18 0 26.5 8t8.5 28q0 9 -1 15l-10 75l57 7l9 -75q1 -7 1 -21q0 -48 -26 -75t-64 -27q-41 0 -65 34q-14 -16 -33 -25t-38 -9q-23 0 -42 10q1 -33 1 -93l-1 -114
h-56l1 114q1 80 -5.5 142.5t-30.5 121.5l53 24q17 -44 27 -93z" />
    <glyph glyph-name="four.dnom" horiz-adv-x="369" 
d="M104 307q6 -24 15 -38t25 -22q-14 23 -14 52q0 47 33 81t79 34q27 0 45 -7.5t35.5 -19t24.5 -16.5l-27 -46q-34 18 -47.5 23.5t-31.5 5.5q-23 -1 -39.5 -16.5t-16.5 -38.5q0 -30 26 -49.5t80 -20.5h45v-63q-90 0 -139.5 6.5t-80.5 27.5q1 -30 1 -86l-1 -114h-57l2 114
q0 84 -6.5 145t-29.5 119l52 24q17 -40 27 -95z" />
    <glyph glyph-name="five.dnom" horiz-adv-x="365" 
d="M213 99q0 -7 -2 -21q10 -20 38 -20q21 0 33 13.5t12 40.5q-2 41 -32 94t-88 109q-51 -56 -76.5 -106.5t-25.5 -89.5q0 -60 43 -60q21 0 34.5 13t13.5 37q0 10 -1 15l46 9q5 -15 5 -34zM47 230q29 61 84 122l-19 15l36 49q96 -76 147.5 -158.5t51.5 -148.5
q0 -52 -29 -81.5t-70 -29.5q-38 0 -64 29q-28 -28 -70 -28q-39 0 -68 31.5t-29 86.5q1 52 30 113z" />
    <glyph glyph-name="six.dnom" horiz-adv-x="315" 
d="M208.5 175.5q-30.5 -34.5 -77.5 -102.5l-59 -87l-47 33l60 86q36 52 55 76q-52 2 -82 39q-27 33 -27 74q0 25 10 47.5t30 38.5q21 18 40.5 23.5t40 7.5t27.5 3l9 -53q-36 -7 -50.5 -12t-28.5 -17q-20 -15 -20 -43q0 -21 12 -34q15 -19 43 -19q38 0 90 38q5 3 12 8t16 11
l30 -49q-53 -34 -83.5 -68.5z" />
    <glyph glyph-name="seven.dnom" horiz-adv-x="358" 
d="M102 181q-17 54 -33 89.5t-51 99.5l49 31q44 -81 62.5 -127.5t50.5 -162.5q26 104 44 150t55 119l11 21l50 -31q-39 -73 -54.5 -107t-32 -89t-47.5 -173h-52q-35 126 -52 180z" />
    <glyph glyph-name="eight.dnom" horiz-adv-x="358" 
d="M256 219.5q17 -54.5 33 -90t51 -99.5l-49 -31q-44 81 -62 128t-50 162q-21 -79 -35.5 -123t-28.5 -73.5t-47 -93.5l-50 32q40 74 55 107.5t32 88.5t47 173h53q34 -126 51 -180.5z" />
    <glyph glyph-name="nine.dnom" horiz-adv-x="263" 
d="M170.5 65q-2.5 28 -3.5 109h-46q-47 0 -75 27t-28 80q0 55 28.5 90.5t73.5 35.5q48 0 75.5 -34.5t27.5 -94.5q0 -84 0.5 -136.5t3.5 -75t12 -60.5l-55 -11q-11 42 -13.5 70zM83.5 247q10.5 -9 37.5 -9h46v40q0 35 -11 50.5t-36 15.5q-47 0 -47 -64q0 -24 10.5 -33z" />
    <glyph glyph-name="zero.numr" horiz-adv-x="296" 
d="M77.5 378q-29.5 29 -29.5 70q0 40 29.5 69t70.5 29t70.5 -29t29.5 -69q0 -41 -29.5 -70t-70.5 -29t-70.5 29zM116.5 415q12.5 -13 31.5 -13t31.5 13t12.5 33q0 19 -12.5 32t-31.5 13t-31.5 -13t-12.5 -32q0 -20 12.5 -33z" />
    <glyph glyph-name="one.numr" horiz-adv-x="153" 
d="M109 565.5q8 -63.5 8 -135.5v-31l-1 -114h-57l1 114v32q0 68 -7 124t-28 108l52 24q24 -58 32 -121.5z" />
    <glyph glyph-name="two.numr" horiz-adv-x="292" 
d="M102 602q6 -28 20.5 -38.5t38.5 -10.5q22 0 35 13t9 39l-11 72l56 10l11 -74q1 -7 1 -19q0 -47 -31 -76.5t-70 -29.5q-27 0 -47 10q2 -35 2 -99l-1 -114h-57l1 114v32q0 68 -7 124t-28 108l52 24q18 -45 26 -85z" />
    <glyph glyph-name="three.numr" horiz-adv-x="401" 
d="M103 594h1q4 -27 16 -37t32 -10q21 0 33 12t9 39l-9 65l56 9l10 -66l1 -7q4 -30 14 -41.5t26 -11.5q21 1 29 12.5t5 38.5l-10 76l57 7l9 -75q1 -7 1 -21q0 -48 -26 -75t-64 -27q-41 0 -65 34q-14 -16 -33 -25t-38 -9q-23 0 -42 10q1 -33 1 -93l-1 -114h-57l1 114v32
q0 68 -7 124t-28 108l52 24q16 -38 27 -93z" />
    <glyph glyph-name="four.numr" horiz-adv-x="369" 
d="M104 593q6 -24 15 -38t25 -23q-14 25 -14 52q0 47 33 81t79 34q27 0 45 -7.5t35.5 -19t24.5 -16.5l-27 -47q-33 18 -47 24t-32 6q-23 0 -39.5 -16t-16.5 -39q0 -29 25.5 -48.5t79.5 -21.5h46v-63q-90 0 -139.5 6.5t-80.5 27.5q1 -30 1 -86l-1 -114h-57l1 114v32
q0 68 -7 124t-28 108l52 24q17 -40 27 -94z" />
    <glyph glyph-name="five.numr" horiz-adv-x="365" 
d="M213 384q0 -7 -2 -21q10 -20 35 -20q48 0 48 54q-2 41 -32 94t-89 109q-50 -56 -75.5 -106.5t-25.5 -89.5q0 -31 11.5 -45.5t31.5 -14.5q22 0 35 12.5t13 36.5q0 10 -1 16l46 9q5 -15 5 -34zM47 515q29 61 84 122l-20 15l36 49q97 -76 148.5 -158t51.5 -148
q0 -53 -29 -82.5t-69 -29.5q-39 0 -65 29q-28 -28 -70 -28q-39 0 -68 31.5t-29 86.5q1 52 30 113z" />
    <glyph glyph-name="six.numr" horiz-adv-x="315" 
d="M227.5 479.5q-26.5 -25.5 -43.5 -48t-52 -73.5l-60 -87l-47 32l60 87q41 59 55 76q-52 2 -82 39q-27 33 -27 74q0 24 10.5 47t29.5 39q23 19 43.5 24t64.5 10l9 -54q-35 -6 -50 -11t-29 -17q-20 -15 -20 -43q0 -21 12 -34q15 -19 42 -19q34 0 81 31q24 18 38 27l29 -51
q-37 -23 -63.5 -48.5z" />
    <glyph glyph-name="seven.numr" horiz-adv-x="358" 
d="M101.5 466q-16.5 54 -32.5 90t-51 99l49 31q44 -80 62 -127t50 -162q27 103 45 149.5t55 118.5q3 5 5.5 10.5t5.5 10.5l50 -31q-39 -73 -54.5 -107t-32 -88.5t-46.5 -173.5h-54q-35 126 -51.5 180z" />
    <glyph glyph-name="eight.numr" horiz-adv-x="358" 
d="M256.5 504q16.5 -54 32.5 -90t51 -99l-49 -31q-44 80 -62 127t-50 162q-27 -103 -45 -149.5t-55 -118.5q-3 -5 -5.5 -10.5t-5.5 -10.5l-50 31q39 73 54.5 107t32 88.5t46.5 173.5h54q35 -126 51.5 -180z" />
    <glyph glyph-name="nine.numr" horiz-adv-x="263" 
d="M170.5 349.5q-2.5 28.5 -3.5 109.5h-46q-47 0 -75 27t-28 81q0 55 28.5 90.5t73.5 35.5q47 0 75 -35t28 -95q0 -85 0.5 -137.5t3.5 -74.5t12 -60l-56 -12q-10 42 -12.5 70.5zM83.5 532q10.5 -9 37.5 -9h46v40q0 35 -11 50.5t-36 15.5q-47 0 -47 -64q0 -24 10.5 -33z" />
    <glyph glyph-name="period.001" 
d="M72 602.5q-20 20.5 -20 49.5t20 49t49 20t49.5 -20t20.5 -49t-20.5 -49.5t-49.5 -20.5t-49 20.5z" />
    <glyph glyph-name="dotcenter-ar" 
d="M136 -64v-110h-111v110h111z" />
    <glyph glyph-name="twodotshorizontalabove-ar.001" 
d="M25 346l48 48l73 -72q-36 -37 -73 -73l-72 73z" />
    <glyph glyph-name="threedotsdownbelow-ar.001" 
d="M53 376l24 24l72 -72l-24 -24l-48 -48q-35 37 -72 72z" />
    <glyph glyph-name="threedotsupabove-ar.002" 
d="M69 391l21 -21l43 -43l-64 -64l-63 64z" />
    <glyph glyph-name="wasla-ar" 
d="M75 600l30 -38l28 41q23 33 43.5 49t48.5 16q38 0 61 -30t23 -70q0 -44 -25 -69.5t-63 -25.5h-45q-35 0 -55 8.5t-34.5 25t-47.5 60.5zM176 529h45q23 0 33 8.5t10 30.5t-9 33.5t-30 11.5q-17 0 -27.5 -8.5t-26.5 -32.5l-27 -40q14 -3 32 -3z" />
    <glyph glyph-name="miniKeheh-ar" 
d="M6 32h67q14 0 14 6q0 4 -6 10l-63 63l9 46l105 48l19 -46l-76 -35l40 -41q18 -19 18 -45q0 -23 -16 -40t-44 -17h-73z" />
    <glyph glyph-name="gafsarkashabove-ar" 
d="M25 492l258 113l16 -41l-280 -123z" />
    <glyph glyph-name="gafsarkashabove-ar.001" 
d="M-84 481l164 230l35 -27l-176 -249z" />
    <glyph glyph-name="uni0654064F" 
d="M25 519l53 15q-20 14 -31 35t-11 46q0 41 29 68.5t69 29.5q23 0 67 -10l-9 -53q-38 8 -57 8q-24 -2 -39 -14t-15 -31q0 -23 19.5 -38t49.5 -15q6 0 22 2l65 19l3 -55l-212 -62zM75 796q-13 18 -19 38q-5 18 -5 33q0 32 18.5 58t49.5 37q23 7 38 7q31 0 55.5 -18t35.5 -51
q5 -18 5 -31q0 -33 -22 -59t-60 -39l-145 -48l-14 53zM119 810l44 14q22 7 34 19.5t12 27.5q0 5 -2 13q-5 14 -17 22.5t-28 8.5q-14 0 -29 -6q-37 -17 -37 -46q0 -5 2 -13q7 -25 21 -40z" />
    <glyph glyph-name="uni0654064C" 
d="M-1 515l53 15q-19 14 -30 34.5t-11 46.5q0 41 28.5 68.5t68.5 29.5q24 0 68 -10l-9 -53q-38 8 -57 8q-25 -2 -39.5 -14t-14.5 -31q0 -22 19 -37.5t49 -15.5q6 0 20 2l67 19l4 -55l-212 -62zM-40 892q0 44 22 80.5t65 55.5l25 -47q-64 -33 -64 -97q0 -29 16 -63l-43 -15
q-21 42 -21 86zM75 813q-12 15 -19 38q-5 18 -5 32q0 33 18.5 59t50.5 36q18 7 38 7q31 0 55.5 -18t34.5 -51q5 -18 5 -31q0 -33 -22 -59t-60 -39l-145 -47l-14 53zM119 826l45 14q22 7 33.5 19.5t11.5 27.5q0 9 -2 14q-5 14 -16.5 22t-27.5 8q-14 0 -29 -6q-18 -7 -28 -19
t-10 -26q0 -5 2 -13q7 -25 21 -41z" />
    <glyph glyph-name="uni0654064E" 
d="M5 520l53 15q-20 14 -31 35t-11 46q0 41 29 68.5t69 29.5q24 0 68 -10l-9 -53q-38 8 -57 8q-25 -1 -40 -14t-15 -33q1 -21 20.5 -36t48.5 -15q6 0 20 2l67 19l3 -55l-211 -62zM5 775l215 69v-56l-215 -68v55z" />
    <glyph glyph-name="uni0654064B" 
d="M2 519l53 15q-20 14 -31 35t-11 46q0 41 29 68.5t69 29.5q23 0 67 -10l-9 -53q-38 8 -57 8q-24 -2 -39 -14t-15 -31q0 -23 19.5 -38t49.5 -15q6 0 22 2l65 19l3 -55l-212 -62zM3 781l214 69v-56l-214 -68v55zM3 874l214 69v-56l-214 -68v55z" />
    <glyph glyph-name="uni06540652" 
d="M-6 519l53 15q-20 14 -31 35t-11 46q0 41 29 68.5t69 29.5q24 0 68 -10l-9 -53q-38 8 -57 8q-25 -1 -40 -14t-15 -33q1 -21 20.5 -36t48.5 -15q6 0 20 2l67 19l3 -55l-211 -62zM38 906.5q27 29.5 61 29.5q39 0 66.5 -30.5t27.5 -72.5q0 -39 -27.5 -67.5t-64.5 -28.5
t-63.5 29.5t-26.5 69.5q0 41 27 70.5zM70.5 801q11.5 -13 28.5 -13q21 0 33 12.5t13 32.5q0 23 -12.5 36.5t-33.5 13.5q-17 0 -29 -14t-12 -35q1 -20 12.5 -33z" />
    <glyph glyph-name="uni06550650" 
d="M3 -233l53 15q-20 14 -31 35t-11 46q0 41 29 68.5t69 29.5q23 0 67 -10l-9 -53q-38 8 -57 8q-24 -1 -39 -13.5t-15 -31.5q0 -23 19.5 -38t50.5 -15q7 0 21 2l65 19l3 -55l-212 -62zM3 -349l214 69v-56l-214 -68v55z" />
    <glyph glyph-name="uni0655064D" 
d="M-3 -194l52 15q-19 14 -30 35t-11 46q0 41 28.5 68.5t69.5 29.5q23 0 67 -10l-9 -53q-38 8 -57 8q-25 -2 -39.5 -14t-14.5 -31q0 -23 19.5 -38t49.5 -15q6 0 20 2l66 19l4 -55l-212 -62zM-2 -400l214 69v-56l-214 -68v55zM-2 -307l214 69v-56l-214 -68v55z" />
    <glyph glyph-name="uni0651064B" 
d="M28 573v-48q0 -31 37 -31q38 0 38 31v48h44v-48q0 -31 33 -31q37 0 37 26q0 10 -2 20t-5 23t-5 21l44 12l6 -26q7 -32 7 -50q0 -32 -18.5 -57t-63.5 -25q-15 0 -30.5 5.5t-25.5 16.5q-21 -22 -59 -22q-31 0 -56 22t-25 65v48h44zM16 683l214 69v-56l-214 -68v55zM16 776
l214 69v-56l-214 -68v55z" />
    <glyph glyph-name="uni0651064C" 
d="M14 576v-48q0 -31 37 -31q38 0 38 31v48h44v-48q0 -31 33 -31q37 0 37 26q0 10 -2 20t-5 23t-5 21l44 12l6 -26q7 -32 7 -50q0 -32 -18.5 -57t-63.5 -25q-15 0 -30.5 5.5t-25.5 16.5q-21 -22 -59 -22q-31 0 -56 22t-25 65v48h44zM-35 772q0 44 21.5 80t64.5 55l25 -47
q-32 -16 -47.5 -41t-15.5 -55t16 -64l-43 -15q-21 42 -21 87zM80 693q-12 15 -19 38q-5 18 -5 32q0 33 18.5 59t50.5 36q18 7 38 7q31 0 55.5 -18t34.5 -51q5 -18 5 -31q0 -33 -22 -59t-60 -39l-145 -47l-14 53zM124 706l45 14q22 7 33.5 19.5t11.5 27.5q0 9 -2 14
q-5 14 -16.5 22t-27.5 8q-14 0 -29 -6q-18 -7 -28 -19t-10 -26q0 -5 2 -13q7 -25 21 -41z" />
    <glyph glyph-name="uni0651064D" 
d="M18 781v-48q0 -31 37 -31q38 0 38 31v48h44v-48q0 -31 33 -31q37 0 37 26q0 10 -2 20t-5 23t-5 21l44 12l6 -26q7 -32 7 -50q0 -32 -18.5 -57t-63.5 -25q-15 0 -30.5 5.5t-25.5 16.5q-21 -22 -59 -22q-31 0 -56 22t-25 65v48h44zM6 462l214 69v-56l-214 -68v55zM6 556
l214 68v-56l-214 -67v55z" />
    <glyph glyph-name="uni0651064E" 
d="M21 579v-48q0 -31 37 -31q38 0 38 31v48h44v-48q0 -31 33 -31q37 0 37 26q0 10 -2 20t-5 23t-5 21l44 12l6 -26q7 -32 7 -50q0 -32 -18.5 -57t-63.5 -25q-15 0 -30.5 5.5t-25.5 16.5q-21 -22 -59 -22q-31 0 -56 22t-25 65v48h44zM9 676l214 69v-56l-214 -68v55z" />
    <glyph glyph-name="uni0651064F" 
d="M19 579v-48q0 -31 37 -31q38 0 38 31v48h44v-48q0 -31 33 -31q37 0 37 26q0 10 -2 20t-5 23t-5 21l44 12l6 -26q7 -32 7 -50q0 -32 -18.5 -57t-63.5 -25q-15 0 -30.5 5.5t-25.5 16.5q-21 -22 -59 -22q-31 0 -56 22t-25 65v48h44zM56 675q-13 18 -19 38q-5 18 -5 33
q0 32 18.5 58t50.5 37q23 7 38 7q31 0 55 -18t35 -51q5 -18 5 -31q0 -33 -22 -59t-60 -39l-145 -48l-14 54zM100 689l45 14q21 7 33 19.5t12 27.5q0 9 -2 13q-5 14 -16.5 22.5t-27.5 8.5q-14 0 -29 -6q-38 -17 -38 -46q0 -5 2 -13q7 -25 21 -40z" />
    <glyph glyph-name="uni06510650" 
d="M3 491l214 68v-56l-214 -67v55zM-29 711h44v-48q0 -31 37 -31q38 0 38 31v48h44v-48q0 -31 33 -31q37 0 37 26q0 10 -2 20t-5 23t-5 21l44 12l6 -26q7 -32 7 -50q0 -32 -18.5 -57t-63.5 -25q-15 0 -30.5 5.5t-25.5 16.5q-21 -22 -59 -22q-31 0 -56 22t-25 65v48z" />
    <glyph glyph-name="uni06510670" 
d="M16 576v-48q0 -31 37 -31q38 0 38 31v48h44v-48q0 -31 33 -31q37 0 37 26q0 10 -2 20t-5 23t-5 21l44 12l6 -26q7 -32 7 -50q0 -32 -18.5 -57t-63.5 -25q-15 0 -30.5 5.5t-25.5 16.5q-21 -22 -59 -22q-31 0 -56 22t-25 65v48h44zM88 772h44v-154h-44v154z" />
    <glyph glyph-name="uni0653.001" 
d="M-12 635q41 34 110 34h199v-84h-199q-39 0 -60 -17.5t-33 -49.5l-73 23q15 60 56 94z" />
    <glyph glyph-name="sareya-ar" 
d="M-22 534l54 -11q17 -3 29 -3q45 0 47 47l-108 30q-8 21 -8 47q0 51 34 89t83 39q30 0 50 -7l-11 -53q-18 4 -39 4q-31 -1 -53 -23.5t-20 -49.5l75 -21q41 -13 41 -57t-28 -71.5t-74 -27.5q-13 0 -30 3l-54 11z" />
    </font>
</defs>
</svg>
