<?xml version="1.0" standalone="no"?>
<!DOCTYPE svg PUBLIC "-//W3C//DTD SVG 1.1//EN" "http://www.w3.org/Graphics/SVG/1.1/DTD/svg11.dtd" >
<svg xmlns="http://www.w3.org/2000/svg" xmlns:xlink="http://www.w3.org/1999/xlink" version="1.1">
<metadata>
Created by FontForge 20201107 at Mon Aug 29 13:27:28 2022
 By 
Copyright (c) 2021 by www.fontiran.com (Moslem Ebrahimi). All rights reserved.
</metadata>
<defs>
<font id="IRANYekanXFaNum-Heavy" horiz-adv-x="0" >
  <font-face 
    font-family="IRANYekanXFaNum Heavy"
    font-weight="900"
    font-stretch="normal"
    units-per-em="1000"
    panose-1="0 0 0 0 0 0 0 0 0 0"
    ascent="800"
    descent="-200"
    x-height="625"
    cap-height="823"
    bbox="-142 -524 2713 1114"
    underline-thickness="40"
    underline-position="-233"
    unicode-range="U+000D-FEFF"
  />
<missing-glyph horiz-adv-x="255" 
d="M38 429h179v-433h-179v433zM208 4v417h-161v-417h161z" />
    <glyph glyph-name="uni06AA" unicode="&#x6a9;&#x621;&#x621;" horiz-adv-x="1342" 
d="M159.5 31.5q-56.5 31.5 -88 88t-31.5 130.5q0 33 6 67q12 62 29 123l205 -62q-15 -57 -21 -88q-1 -4 -1 -12q0 -28 34 -28l769 1q11 0 16 5t5 16v4q0 11 -5 16t-16 5h-603l-120 191l217 311l180 -144l-103 -148h446q62 0 113 -32.5t81 -87t30 -118.5v-28q0 -64 -30 -119
t-81 -88t-113 -33l-789 -1q-73 0 -129.5 31.5z" />
    <glyph glyph-name="uni06BE" unicode="&#x647;&#x621;&#x621;" horiz-adv-x="872" 
d="M40 250h46q-7 25 -7 57q0 72 28.5 132.5t81.5 96.5t124 36q91 0 155 -61l139 118l160 -218q55 -76 55 -163q0 -42 -13 -79.5t-35 -63.5q-86 -105 -241 -105q-124 0 -233 42q-114 -42 -241 -42h-19v250zM305 254q66 13 66 54q0 21 -18 36.5t-40 15.5q-21 0 -39 -15.5
t-18 -36.5q0 -33 49 -54zM549 223q61 0 75 26q2 3 2 11q0 17 -11 31l-81 108q13 -40 13 -91q0 -46 -18 -85h20z" />
    <glyph glyph-name="uni06C0" unicode="&#x647;&#x654;" horiz-adv-x="637" 
d="M347 611q107 -107 152 -157.5t66.5 -97t21.5 -107.5q0 -72 -36 -132.5t-97.5 -95.5t-134.5 -35t-135 35t-98 95.5t-36 132.5q0 68 26.5 123.5t78.5 115.5l-20 19l158 158zM198 839l74 -15q14 -3 24 -3q40 0 46 34l-112 26q-18 36 -18 74q0 41 19.5 77t53 58.5t73.5 23.5
q37 0 59 -11l-17 -92q-15 5 -34 5q-26 0 -49 -15t-24 -35l92 -26q23 -6 32 -20t9 -34q0 -38 -16.5 -75.5t-48.5 -62.5t-78 -25q-15 0 -30 3l-76 14zM282 238.5q12 -13.5 37 -13.5t36.5 13.5t11.5 31.5q0 10 -11 25.5t-42 44.5q-24 -27 -34 -42.5t-10 -27.5q0 -18 12 -31.5z
" />
    <glyph glyph-name="uni06D2" unicode="&#x649;&#x621;&#x621;" horiz-adv-x="955" 
d="M91 -25q-41 98 -41 196q0 97 39 178t107.5 128t152.5 47q11 0 31 -2l74 -8l-30 -239l-72 4q-37 2 -57.5 -14t-23.5 -40h634v-250h-814z" />
    <glyph glyph-name="uni06D3" unicode="&#x626;&#x621;&#x621;" horiz-adv-x="955" 
d="M91 -25q-41 98 -41 196q0 97 39 178t107.5 128t152.5 47q11 0 31 -2l74 -8l-30 -239l-72 4q-37 2 -57.5 -14t-23.5 -40h634v-250h-814zM203 614q-22 29 -22 75q0 49 34.5 85t87.5 36q20 0 70 -10l-16 -92q-40 7 -57 7t-28 -9.5t-11 -22.5q0 -15 13.5 -24.5t35.5 -9.5
q11 0 24 3l63 18l6 -96l-235 -68l-6 96z" />
    <glyph glyph-name="uni06C0.fina" unicode="&#xfeea;&#x654;" horiz-adv-x="679" arabic-form="final" 
d="M580 296q7 -28 24 -37t60 -9h20l10 -125l-10 -125h-20q-54 0 -105.5 17t-93.5 52q-33 -29 -72.5 -44t-81.5 -15q-61 0 -123 33q-61 32 -96 97.5t-35 139.5q0 76 36 134q18 30 37 50.5t56 44.5t102 54l-13 55l214 56zM113 782l74 -15q14 -3 24 -3q40 0 46 34l-112 26
q-18 36 -18 74q0 41 19.5 77t53 58.5t73.5 23.5q37 0 59 -11l-17 -92q-15 5 -34 5q-26 0 -49 -15t-24 -35l92 -26q23 -6 32 -20t9 -34q0 -38 -16.5 -75.5t-48.5 -62.5t-78 -25q-15 0 -30 3l-76 14zM265 279q0 -11 6 -21t16 -15q9 -5 21 -5t22 5.5t16 15.5q7 12 7 24
q0 3 -4 25l-8 33q-37 -15 -51 -24.5t-19 -17.5q-6 -9 -6 -20z" />
    <glyph glyph-name="uni06C1.fina" unicode="&#xfeea;&#x621;&#x621;" horiz-adv-x="652" arabic-form="final" 
d="M584 259q16 -9 59 -9h14l10 -125l-10 -125h-14q-110 0 -185 55.5t-111 178.5l-14 48l-27 -10q-49 -18 -49 -62q0 -17 6 -35l22 -64l-177 -72l-30 72q-27 64 -27 130q0 90 54 159.5t151 101.5l125 41l133 -79l45 -162q9 -34 25 -43z" />
    <glyph glyph-name="uni06C1.medi" unicode="&#xfeec;&#xfe8c;&#xfe8c;&#xfe8c;&#xfe8c;" horiz-adv-x="555" arabic-form="medial" 
d="M82 20q-37 -20 -73 -20h-14v250h23q26 0 45 19t20 46v11h207v-170q105 94 243 94h27l10 -125l-10 -125h-27q-114 0 -178.5 -62t-64.5 -166h-208v248z" />
    <glyph glyph-name="uni06BE.fina" unicode="&#xfeea;&#x621;&#x621;&#x621;&#x621;" horiz-adv-x="722" arabic-form="final" 
d="M69 225l87 10v19q0 99 34 168.5t93.5 105t134.5 35.5q84 0 139.5 -32.5t81 -82t25.5 -101.5q0 -32 -9.5 -58t-25.5 -39h100l10 -125l-10 -125h-100q16 -12 24.5 -36.5t8.5 -55.5q0 -52 -25 -103t-80 -84.5t-139 -33.5q-75 0 -134.5 35.5t-93.5 105t-34 168.5v4h-106z
M379 -89.5q14 -15.5 39 -15.5q24 0 39.5 15t15.5 37q0 5 -2 15q-6 22 -27 30t-66 8h-13v-48q0 -26 14 -41.5zM380 250q44 0 64.5 8.5t26.5 29.5q2 10 2 15q0 22 -15.5 37t-39.5 15q-25 0 -39 -15.5t-14 -41.5v-48h15z" />
    <glyph glyph-name="uni06BE.medi" unicode="&#xfeec;&#xfe8c;&#xfe8c;&#xfe8c;" horiz-adv-x="866" arabic-form="medial" 
d="M881 125l-10 -125q-48 0 -101 8t-95 26q-68 -34 -157 -34q-124 0 -233 42q-114 -42 -241 -42h-53v250h80q-7 25 -7 57q0 72 28.5 132.5t81.5 96.5t124 36q92 0 157 -63l141 120l160 -218q53 -72 55 -161h60zM286 256q41 6 55.5 18t14.5 34q0 21 -18 36.5t-40 15.5
q-21 0 -39 -15.5t-18 -36.5q0 -31 45 -52zM534 223q65 0 79 26q2 3 2 11q0 17 -11 31l-88 117q16 -45 16 -100q0 -46 -18 -85h20z" />
    <glyph glyph-name="uni06D2.fina" unicode="&#xfbfd;&#x621;&#x621;" horiz-adv-x="490" arabic-form="final" 
d="M91 -330q-41 94 -41 193q0 105 45.5 193.5t129 141t191.5 52.5h79l10 -125l-10 -125h-79q-65 0 -100 -19.5t-43 -60.5h466v-250h-648z" />
    <glyph glyph-name="uni06D3.fina" unicode="&#xfe8a;&#x621;&#x621;" horiz-adv-x="490" arabic-form="final" 
d="M91 -330q-41 94 -41 193q0 105 45.5 193.5t129 141t191.5 52.5h79l10 -125l-10 -125h-79q-65 0 -100 -19.5t-43 -60.5h466v-250h-648zM157 357q-22 29 -22 75q0 49 34.5 85t87.5 36q20 0 70 -10l-16 -92q-40 7 -57 7t-28 -9.5t-11 -22.5q0 -15 13.5 -24.5t35.5 -9.5
q11 0 24 3l63 18l6 -96l-235 -68l-6 96z" />
    <glyph glyph-name="uni06440622" unicode="&#xfedf;&#xfe82;" horiz-adv-x="716" arabic-form="isolated" 
d="M95 250h316q14 0 24.5 11t10.5 27v454h220v-467q0 -83 -31 -145.5t-84 -96t-116 -33.5h-340v250zM27.5 847.5q47.5 38.5 128.5 38.5h214v-170h-214q-34 0 -52.5 -7.5t-32.5 -31.5l-121 61q30 71 77.5 109.5zM319 673l22 -352l-220 -16l-22 352z" />
    <glyph glyph-name="uni06440622.fina" unicode="&#xfee0;&#xfe82;" horiz-adv-x="723" arabic-form="final" 
d="M562 42q-56 -42 -127 -42h-340v250h316q14 0 24.5 11t10.5 27v454h220v-467q0 -13 5.5 -19t18.5 -6h38v-250h-28q-82 0 -138 42zM27.5 847.5q47.5 38.5 128.5 38.5h214v-170h-214q-34 0 -52.5 -7.5t-32.5 -31.5l-121 61q30 71 77.5 109.5zM319 673l22 -352l-220 -16
l-22 352z" />
    <glyph glyph-name="uni06440623" unicode="&#xfedf;&#xfe84;" horiz-adv-x="671" arabic-form="isolated" 
d="M50 250h316q14 0 24.5 11t10.5 27v454h220v-467q0 -83 -31 -145.5t-84 -96t-116 -33.5h-340v250zM86 797q-22 29 -22 75q0 49 34.5 85t87.5 36q20 0 70 -10l-16 -92q-40 7 -57 7t-28 -9.5t-11 -22.5q0 -15 13.5 -24.5t35.5 -9.5q11 0 24 3l63 18l6 -96l-235 -68l-6 96z
M274 673l22 -352l-220 -16l-22 352z" />
    <glyph glyph-name="uni06440623.fina" unicode="&#xfee0;&#xfe84;" horiz-adv-x="678" arabic-form="final" 
d="M517 42q-56 -42 -127 -42h-340v250h316q14 0 24.5 11t10.5 27v454h220v-467q0 -13 5.5 -19t18.5 -6h38v-250h-28q-82 0 -138 42zM86 797q-22 29 -22 75q0 49 34.5 85t87.5 36q20 0 70 -10l-16 -92q-40 7 -57 7t-28 -9.5t-11 -22.5q0 -15 13.5 -24.5t35.5 -9.5q11 0 24 3
l63 18l6 -96l-235 -68l-6 96zM274 673l22 -352l-220 -16l-22 352z" />
    <glyph glyph-name="uni06440625" unicode="&#xfedf;&#xfe88;" horiz-adv-x="671" arabic-form="isolated" 
d="M50 250h316q14 0 24.5 11t10.5 27v454h220v-467q0 -83 -31 -145.5t-84 -96t-116 -33.5h-340v250zM270 734l26 -413l-220 -16l-26 413zM93 -230q-22 29 -22 75q0 49 34.5 85t87.5 36q20 0 70 -10l-16 -92q-40 7 -57 7t-28 -9.5t-11 -22.5q0 -15 13.5 -24.5t35.5 -9.5
q11 0 24 3l63 18l6 -96l-235 -68l-6 96z" />
    <glyph glyph-name="uni06440625.fina" unicode="&#xfee0;&#xfe88;" horiz-adv-x="678" arabic-form="final" 
d="M517 42q-56 -42 -127 -42h-340v250h316q14 0 24.5 11t10.5 27v454h220v-467q0 -13 5.5 -19t18.5 -6h38l10 -125l-10 -125h-28q-82 0 -138 42zM270 734l26 -413l-220 -16l-26 413zM93 -230q-22 29 -22 75q0 49 34.5 85t87.5 36q20 0 70 -10l-16 -92q-40 7 -57 7t-28 -9.5
t-11 -22.5q0 -15 13.5 -24.5t35.5 -9.5q11 0 24 3l63 18l6 -96l-235 -68l-6 96z" />
    <glyph glyph-name="uni06440627" unicode="&#xfedf;&#xfe8e;" horiz-adv-x="671" arabic-form="isolated" 
d="M50 250h316q14 0 24.5 11t10.5 27v454h220v-467q0 -83 -31 -145.5t-84 -96t-116 -33.5h-340v250zM270 734l26 -413l-220 -16l-26 413z" />
    <glyph glyph-name="uni06440627.fina" unicode="&#xfee0;&#xfe8e;" horiz-adv-x="678" arabic-form="final" 
d="M517 42q-56 -42 -127 -42h-340v250h316q14 0 24.5 11t10.5 27v454h220v-467q0 -13 5.5 -19t18.5 -6h38l10 -125l-10 -125h-28q-82 0 -138 42zM270 734l26 -413l-220 -16l-26 413z" />
    <glyph glyph-name="uni06AA.001" unicode="&#x6af;&#x621;&#x621;" horiz-adv-x="1342" 
d="M159.5 31.5q-56.5 31.5 -88 88t-31.5 130.5q0 33 6 67q12 62 29 123l205 -62q-15 -57 -21 -88q-1 -4 -1 -12q0 -28 34 -28l769 1q11 0 16 5t5 16v4q0 11 -5 16t-16 5h-603l-120 191l217 311l180 -144l-103 -148h446q62 0 113 -32.5t81 -87t30 -118.5v-28q0 -64 -30 -119
t-81 -88t-113 -33l-789 -1q-73 0 -129.5 31.5zM279 603l177 247l64 -48l-202 -282z" />
    <glyph glyph-name="uni06AA.fina" unicode="&#xfb8f;&#x621;&#x621;" horiz-adv-x="1382" 
d="M159.5 31.5q-56.5 31.5 -88 88t-31.5 130.5q0 33 6 67q12 62 29 123l205 -62q-15 -57 -21 -88q-1 -4 -1 -12q0 -28 34 -28l769 1q11 0 16 5t5 16v4q0 11 -5 16t-16 5h-603l-120 191l217 311l180 -144l-103 -148h446q62 0 113 -32.5t81 -87t30 -118.5v-8q23 -11 75 -11h10
l10 -125l-10 -125h-10q-102 0 -159 54q-61 -53 -140 -53l-789 -1q-73 0 -129.5 31.5z" />
    <glyph glyph-name="uni06AA.fina.001" unicode="&#xfb93;&#x621;&#x621;" horiz-adv-x="1382" 
d="M159.5 31.5q-56.5 31.5 -88 88t-31.5 130.5q0 33 6 67q12 62 29 123l205 -62q-15 -57 -21 -88q-1 -4 -1 -12q0 -28 34 -28l769 1q11 0 16 5t5 16v4q0 11 -5 16t-16 5h-603l-120 191l217 311l180 -144l-103 -148h446q62 0 113 -32.5t81 -87t30 -118.5v-8q23 -11 75 -11h10
l10 -125l-10 -125h-10q-102 0 -159 54q-61 -53 -140 -53l-789 -1q-73 0 -129.5 31.5zM279 603l177 247l64 -48l-202 -282z" />
    <glyph glyph-name="uni06AA.medi" unicode="&#xfb91;&#xfe8c;&#xfe8c;" horiz-adv-x="1131" 
d="M825 251q11 0 16 5t5 16v4q0 11 -5 16t-16 5h-603l-120 191l217 311l180 -144l-103 -148h446q62 0 113 -32.5t81 -87t30 -118.5v-13q23 -6 60 -6h10l10 -125l-10 -125h-10q-97 0 -152 48q-58 -47 -132 -47l-847 -1v250z" />
    <glyph glyph-name="uni06AA.medi.001" unicode="&#xfb95;&#xfe8c;&#xfe8c;" horiz-adv-x="1131" 
d="M825 251q11 0 16 5t5 16v4q0 11 -5 16t-16 5h-603l-120 191l217 311l180 -144l-103 -148h446q62 0 113 -32.5t81 -87t30 -118.5v-13q23 -6 60 -6h10l10 -125l-10 -125h-10q-97 0 -152 48q-58 -47 -132 -47l-847 -1v250zM43 606l177 247l64 -48l-202 -282z" />
    <glyph glyph-name="uni06AA.init" unicode="&#xfb90;&#xfe8c;&#xfe8c;" horiz-adv-x="1106" 
d="M825 251q11 0 16 5t5 16v4q0 11 -5 16t-16 5h-603l-120 191l217 311l180 -144l-103 -148h446q62 0 113 -32.5t81 -87t30 -118.5v-28q0 -64 -30 -119t-81 -88t-113 -33l-847 -1v250z" />
    <glyph glyph-name="uni06AA.init.001" unicode="&#xfb94;&#xfe8c;&#xfe8c;" horiz-adv-x="1106" 
d="M825 251q11 0 16 5t5 16v4q0 11 -5 16t-16 5h-603l-120 191l217 311l180 -144l-103 -148h446q62 0 113 -32.5t81 -87t30 -118.5v-28q0 -64 -30 -119t-81 -88t-113 -33l-847 -1v250zM47 603l177 247l64 -48l-202 -282z" />
    <glyph glyph-name="uni0647.fina.alt" unicode="&#xfeea;&#x621;&#x621;&#x621;" horiz-adv-x="865" 
d="M246 260q0 -8 2 -11q14 -26 79 -26h20q-18 39 -18 85q0 55 16 100l-88 -117q-11 -14 -11 -31zM63 168.5q-13 37.5 -13 79.5q0 87 55 163l160 218l141 -120q65 63 157 63q71 0 124 -36t81.5 -96.5t28.5 -132.5q0 -32 -7 -57h80v-250h-53q-127 0 -241 42q-109 -42 -233 -42
q-159 0 -245 105q-22 26 -35 63.5zM519.5 274q14.5 -12 55.5 -18q45 21 45 52q0 21 -18 36.5t-39 15.5q-22 0 -40 -15.5t-18 -36.5q0 -22 14.5 -34z" />
    <glyph glyph-name="uni0647.medi.alt" unicode="&#xfeec;&#xfe8c;&#xfe8c;" horiz-adv-x="606" 
d="M-5 250h43v4q0 99 34 168.5t93.5 105t134.5 35.5q84 0 139.5 -32.5t81 -82t25.5 -101.5q0 -32 -9.5 -58t-25.5 -39h100l10 -125l-10 -125h-100q16 -12 24.5 -36.5t8.5 -55.5q0 -52 -25 -103t-80 -84.5t-139 -33.5q-75 0 -134.5 35.5t-93.5 105t-34 168.5v4h-43v250z
M261 -89.5q14 -15.5 39 -15.5q24 0 39.5 15t15.5 37q0 5 -2 15q-6 22 -27 30t-66 8h-13v-48q0 -26 14 -41.5zM262 250q44 0 64.5 8.5t26.5 29.5q2 10 2 15q0 22 -15.5 37t-39.5 15q-25 0 -39 -15.5t-14 -41.5v-48h15z" />
    <glyph glyph-name="uni0647.init.alt" unicode="&#xfeeb;&#xfe8c;&#xfe8c;" horiz-adv-x="604" 
d="M-5 250h43v4q0 99 34 168.5t93.5 105t134.5 35.5q72 0 130 -33t91 -92.5t33 -135.5q0 -29 -4 -53q-12 -74 -52 -124q40 -50 52 -124q4 -24 4 -53q0 -76 -33 -135.5t-91 -92.5t-130 -33q-75 0 -134.5 35.5t-93.5 105t-34 168.5v4h-43v250zM261 -89.5q14 -15.5 39 -15.5
q24 0 39.5 15t15.5 37q0 5 -2 15q-6 23 -29 30t-77 8v-48q0 -26 14 -41.5zM324 258q23 7 29 30q2 10 2 15q0 22 -15.5 37t-39.5 15q-25 0 -39 -15.5t-14 -41.5v-48q54 1 77 8z" />
    <glyph glyph-name="uni06D2.fina.alt2" unicode="&#xfbfd;&#x621;&#x621;&#x621;&#x621;&#x621;" horiz-adv-x="489" 
d="M91 -330q-41 94 -41 193q0 105 45.5 193.5t129 141t191.5 52.5h79l10 -125l-10 -125h-79q-65 0 -100 -19.5t-43 -60.5h360v-250h-542z" />
    <glyph glyph-name="uni06D2.fina.alt3" unicode="&#xfbfd;&#x621;&#x621;&#x621;&#x621;" horiz-adv-x="488" 
d="M91 -330q-41 94 -41 193q0 105 45.5 193.5t129 141t191.5 52.5h79l10 -125l-10 -125h-79q-65 0 -100 -19.5t-43 -60.5h466v-250h-648z" />
    <glyph glyph-name="uni06D2.fina.alt4" unicode="&#xfbfd;&#x621;&#x621;&#x621;" horiz-adv-x="431" 
d="M91 -330q-41 94 -41 193q0 105 45.5 193.5t129 141t191.5 52.5h22l10 -125l-10 -125h-22q-65 0 -100 -19.5t-43 -60.5h521v-250h-703z" />
    <glyph glyph-name="uni06440671" unicode="&#xfedf;&#xfb51;" horiz-adv-x="671" 
d="M50 250h316q14 0 24.5 11t10.5 27v454h220v-467q0 -83 -31 -145.5t-84 -96t-116 -33.5h-340v250zM84 869l17 -22l23 35q28 41 54.5 62t62.5 21q48 0 79 -39t31 -94q0 -53 -31 -89.5t-84 -36.5h-51q-41 0 -66 11t-43.5 31t-55.5 69zM274 673l22 -352l-220 -16l-22 352z
M185 806h51q23 0 29 4.5t6 21.5q0 20 -5.5 26.5t-24.5 6.5q-15 0 -25 -7.5t-26 -31.5l-14 -20h9z" />
    <glyph glyph-name="uni06440671.fina" unicode="&#xfee0;&#xfb51;" horiz-adv-x="678" 
d="M517 42q-56 -42 -127 -42h-340v250h316q14 0 24.5 11t10.5 27v454h220v-467q0 -13 5.5 -19t18.5 -6h38v-250h-28q-82 0 -138 42zM76 869l17 -22l23 35q28 41 54.5 62t62.5 21q48 0 79 -39t31 -94q0 -53 -31 -89.5t-84 -36.5h-51q-41 0 -66 11t-43.5 31t-55.5 69zM274 673
l22 -352l-220 -16l-22 352zM177 806h51q23 0 29 4.5t6 21.5q0 20 -5.5 26.5t-24.5 6.5q-15 0 -25 -7.5t-26 -31.5l-14 -20h9z" />
    <glyph glyph-name="uni064406440647" unicode="&#xfedf;&#xfee0;&#x651;&#x670;&#xfeea;" horiz-adv-x="1282" 
d="M85 140.5q-35 65.5 -35 139.5q0 76 36 134q18 30 37 50.5t56 44.5t102 54l-13 55l214 56l96 -395q3 -13 9.5 -19t21.5 -8t48 -2h18q13 0 18.5 6t5.5 19v308h220v-308q0 -13 5.5 -19t18.5 -6h54q14 0 24.5 11t10.5 27v373h220v-386q0 -83 -31 -145.5t-84 -96t-116 -33.5
h-68q-82 0 -138 42q-56 -42 -127 -42h-40q-52 2 -101 19t-89 50q-33 -29 -72.5 -44t-81.5 -15q-61 0 -123 33q-61 32 -96 97.5zM258 279q0 -11 6 -21t16 -15q9 -5 21 -5t22 5.5t16 15.5q7 12 7 24q0 3 -4 25l-8 33q-37 -15 -51 -24.5t-19 -17.5q-6 -9 -6 -20zM649 800h80
v-36q0 -20 19 -20q20 0 20 21v36l79 -1v-36q0 -20 19 -20q9 0 15 6t5 14q-1 9 -3.5 18.5t-5.5 24.5l76 22q2 -10 7.5 -34t5.5 -42q0 -46 -26 -77.5t-77 -31.5q-17 0 -32 5.5t-24 15.5q-9 -10 -25 -15.5t-34 -5.5q-41 0 -70 27t-29 80v49zM768 996h80v-153h-80v153z" />
    <glyph glyph-name="uniFDF2" unicode="&#x627;&#xfedf;&#xfee0;&#xfeea;" horiz-adv-x="1609" 
d="M85 140.5q-35 65.5 -35 139.5q0 76 36 134q18 30 37 50.5t56 44.5t102 54l-13 55l214 56l96 -395q3 -13 9.5 -19t21.5 -8t48 -2h18q13 0 18.5 6t5.5 19v308h220v-308q0 -13 5.5 -19t18.5 -6h54q14 0 24.5 11t10.5 27v373h220v-386q0 -83 -31 -145.5t-84 -96t-116 -33.5
h-68q-82 0 -138 42q-56 -42 -127 -42h-40q-52 2 -101 19t-89 50q-33 -29 -72.5 -44t-81.5 -15q-61 0 -123 33q-61 32 -96 97.5zM258 279q0 -11 6 -21t16 -15q9 -5 21 -5t22 5.5t16 15.5q7 12 7 24q0 3 -4 25l-8 33q-37 -15 -51 -24.5t-19 -17.5q-6 -9 -6 -20zM649 800h80
v-36q0 -20 19 -20q20 0 20 21v36l79 -1v-36q0 -20 19 -20q9 0 15 6t5 14q-1 9 -3.5 18.5t-5.5 24.5l76 22q2 -10 7.5 -34t5.5 -42q0 -46 -26 -77.5t-77 -31.5q-17 0 -32 5.5t-24 15.5q-9 -10 -25 -15.5t-34 -5.5q-41 0 -70 27t-29 80v49zM768 996h80v-153h-80v153zM1339 738
h220v-742h-220v742z" />
    <glyph glyph-name="uniFDFC.001" unicode="&#x631;&#xfbfe;&#xfe8e;&#x644;&#x621;" horiz-adv-x="1566" 
d="M1788 388v-273q0 -108 -38.5 -188.5t-114 -125t-182.5 -44.5h-35v250h35q56 0 78.5 6.5t29.5 27.5t7 74v273h220zM59 249q19 64 45 117l190 -89q-15 -36 -26.5 -76.5t-11.5 -72.5q0 -48 28 -71t92 -23h29q46 0 70 7t33.5 23t9.5 47v490q0 68 29.5 126.5t85 93.5t128.5 35
h49q71 0 126 -35.5t85 -94t30 -125.5v-326q0 -13 5.5 -19t18.5 -6h74q33 0 46 11t9 34q-7 46 -20 117l208 53q35 -149 35 -218q0 -62 -26.5 -118.5t-80.5 -92.5t-131 -36h-104q-84 0 -141 36.5t-85 97.5t-28 135v313q0 12 -4.5 18t-16.5 6h-49q-13 0 -18 -6t-5 -17v-472
q0 -148 -82 -237.5t-251 -89.5h-29q-110 0 -186 46t-113 123.5t-37 172.5q0 59 19 123zM982 -76h165h2h165v-167h-55h-110h-2h-165v167z" />
    <glyph glyph-name="uniFDFC.002" unicode="&#x631;&#xfbfe;&#xfe8e;&#x644;&#x621;&#x621;" horiz-adv-x="1773" 
d="M1733 597v-273q0 -108 -38.5 -188.5t-114 -125t-182.5 -44.5h-35v250h35q56 0 78.5 6.5t29.5 27.5t7 74v273h220zM59 444q19 64 45 117l190 -89q-15 -36 -26.5 -76.5t-11.5 -72.5q0 -48 28 -71t92 -23h29q46 0 70 7t33.5 23t9.5 47v324q0 68 29.5 126.5t85 93.5t128.5 35
h49q71 0 126 -35.5t85 -94t30 -125.5v-190q0 -13 5.5 -19t18.5 -6h31q33 0 46 11t9 34q-3 23 -8 42l-10 55l208 53q16 -69 24.5 -112.5t8.5 -85.5q0 -62 -26.5 -118.5t-80.5 -92.5t-131 -36h-61q-84 0 -141 36.5t-85 97.5t-28 135v196q0 12 -4.5 18t-16.5 6h-49
q-13 0 -18 -6t-5 -17v-325q0 -148 -82 -237.5t-251 -89.5h-29q-110 0 -186 46t-113 123.5t-37 172.5q0 59 19 123zM907 117h165h2h165v-167h-55h-110h-2h-165v167z" />
    <glyph glyph-name="tomaan" unicode="&#xfe97;&#xfeee;&#xfee3;&#xfe8e;&#x646;&#x621;" horiz-adv-x="2753" 
d="M2295.5 -143.5q-41.5 -63.5 -118.5 -100t-180 -36.5h-166v250h166q68 0 93 4t25 24v2h-48q-122 0 -189 70t-67 194q0 143 66.5 220.5t189.5 77.5q80 0 141.5 -33t96.5 -99.5t35 -164.5v-15h95q33 0 46 11t9 34q-7 46 -20 117l208 53q35 -149 35 -218q0 -62 -26.5 -118.5
t-80.5 -92.5t-131 -36h-138v-3q0 -77 -41.5 -140.5zM63 262.5q23 70.5 52 126.5l196 -87q-21 -43 -37 -90.5t-16 -85.5q0 -48 27 -70t91 -22h53q46 0 70 7t33.5 23t9.5 47v490q0 68 29.5 126.5t85 93.5t128.5 35h49q71 0 126 -35.5t85 -94t30 -125.5v-326q0 -13 5.5 -19
t18.5 -6h76q15 0 23 4t12 15l28 90q34 109 97 161.5t162 52.5q72 0 129.5 -42t89.5 -111.5t32 -149.5q0 -92 -31.5 -157t-85 -98.5t-119.5 -33.5q-34 0 -76 13.5t-117 45.5q-52 -40 -115 -40h-95q-84 0 -141 36.5t-85 97.5t-28 135v313q0 12 -4.5 18t-16.5 6h-49
q-13 0 -18 -6t-5 -17v-472q0 -148 -82 -237.5t-251 -89.5h-53q-110 0 -186 46t-113 123.5t-37 172.5q0 66 23 136.5zM307 580h90q60 0 90 -1v-179h-90q-60 0 -90 -1v181zM1504 223q22 0 35.5 12.5t13.5 37.5q0 29 -14 47.5t-38 18.5q-20 0 -35.5 -14.5t-22.5 -37.5l-13 -42
q58 -22 74 -22zM2026 249.5q14 -11.5 41 -11.5h53v48q0 27 -13.5 42t-39.5 15t-40.5 -15.5t-14.5 -41.5q0 -25 14 -36.5zM2291 750h165h2h165v-167h-55h-110h-2h-165v167z" />
    <glyph glyph-name="tomaan.001" unicode="&#xfe97;&#xfeee;&#xfee3;&#xfe8e;&#x646;&#x621;&#x621;" horiz-adv-x="2753" 
d="M2309 -121q-28 -41 -86 -66t-198 -68l-20 -6l-63 208q41 10 107 29.5t66 21.5v2h-48q-122 0 -189 70t-67 194q0 143 66.5 220.5t189.5 77.5q80 0 141.5 -33t96.5 -99.5t35 -164.5v-15h95q33 0 46 11t9 34q-7 46 -20 117l208 53q35 -149 35 -218q0 -62 -26.5 -118.5
t-80.5 -92.5t-131 -36h-138v-3q0 -77 -28 -118zM63 478.5q23 70.5 52 126.5l196 -87q-21 -43 -37 -90.5t-16 -85.5q0 -48 27 -70t91 -22h53q46 0 70 7t33.5 23t9.5 47v302q0 68 29.5 126.5t85 93.5t128.5 35h49q71 0 126 -35.5t85 -94t30 -125.5v-354q0 -13 5.5 -19t18.5 -6
h76q15 0 23 4t12 15l28 90q34 109 97 161.5t162 52.5q72 0 129.5 -42t89.5 -111.5t32 -149.5q0 -92 -31.5 -157t-85 -98.5t-119.5 -33.5q-34 0 -76 13.5t-117 45.5q-52 -40 -115 -40h-95q-84 0 -141 36.5t-85 97.5t-28 135v341q0 12 -4.5 18t-16.5 6h-49q-13 0 -18 -6
t-5 -17v-284q0 -148 -82 -237.5t-251 -89.5h-53q-110 0 -186 46t-113 123.5t-37 172.5q0 66 23 136.5zM307 796h90q60 0 90 -1v-179h-90q-60 0 -90 -1v181zM1504 223q22 0 35.5 12.5t13.5 37.5q0 29 -14 47.5t-38 18.5q-20 0 -35.5 -14.5t-22.5 -37.5l-13 -42q58 -22 74 -22
zM2026 249.5q14 -11.5 41 -11.5h53v48q0 27 -13.5 42t-39.5 15t-40.5 -15.5t-14.5 -41.5q0 -25 14 -36.5zM2291 750h165h2h165v-167h-55h-110h-2h-165v167z" />
    <glyph glyph-name="tomaan.002" unicode="&#xfe97;&#xfeee;&#xfee3;&#xfe8e;&#x646;&#x621;&#x621;&#x621;" horiz-adv-x="2198" 
d="M1641 532.5q66 -40.5 105 -114.5t39 -172v-15h95q33 0 46 11t9 34q-7 46 -20 117l208 53q35 -149 35 -218q0 -62 -26.5 -118.5t-80.5 -92.5t-131 -36h-138v-3q0 -77 -41.5 -140.5t-118.5 -100t-180 -36.5h-166v250h166q68 0 93 4t25 24v2h-48q-99 0 -193 59
q-52 -40 -115 -40h-95q-84 0 -141 36.5t-85 97.5t-28 135v313q0 12 -4.5 18t-16.5 6h-49q-13 0 -18 -6t-5 -17v-472q0 -148 -82 -237.5t-251 -89.5h-53q-110 0 -186 46t-113 123.5t-37 172.5q0 66 23 136.5t52 126.5l196 -87q-21 -43 -37 -90.5t-16 -85.5q0 -48 27 -70
t91 -22h53q46 0 70 7t33.5 23t9.5 47v490q0 68 29.5 126.5t85 93.5t128.5 35h49q71 0 126 -35.5t85 -94t30 -125.5v-326q0 -13 5.5 -19t18.5 -6h76q15 0 23 4t12 15l28 90q34 109 97 161.5t162 52.5q78 0 144 -40.5zM307 580h90q60 0 90 -1v-179h-90q-60 0 -90 -1v181z
M1473 225.5q23 -6.5 39 -6.5h53v48q0 33 -18.5 52.5t-45.5 19.5q-20 0 -35.5 -14.5t-22.5 -37.5l-13 -42q20 -13 43 -19.5zM1742 750h165h2h165v-167h-55h-110h-2h-165v167z" />
    <glyph glyph-name="uni0621" unicode="&#x621;" horiz-adv-x="528" arabic-form="isolated" 
d="M20 176l75 22q-40 63 -40 133q0 69 30.5 126.5t87 91t131.5 33.5q40 0 141 -21l-37 -195l-48 5q-37 4 -55 4q-33 0 -50 -17t-15 -37q5 -48 72 -48q29 0 68 10v-1l115 34l35 -206l-475 -140z" />
    <glyph glyph-name="uni0622" unicode="&#x622;" horiz-adv-x="320" arabic-form="isolated" 
d="M58 598h220v-598h-220v598zM-22.5 791.5q47.5 38.5 128.5 38.5h214v-170h-214q-34 0 -52.5 -7.5t-32.5 -31.5l-121 61q30 71 77.5 109.5z" />
    <glyph glyph-name="uni0623" unicode="&#x623;" horiz-adv-x="320" arabic-form="isolated" 
d="M58 598h220v-598h-220v598zM83 740q-22 29 -22 75q0 49 34.5 85t87.5 36q20 0 70 -10l-16 -92q-40 7 -57 7t-28 -9.5t-11 -22.5q0 -15 13.5 -24.5t35.5 -9.5q11 0 24 3l63 18l6 -96l-235 -68l-6 96z" />
    <glyph glyph-name="uni0624" unicode="&#x624;" horiz-adv-x="629" arabic-form="isolated" 
d="M323.5 11.5q22.5 4.5 30.5 25.5h-48q-122 0 -189 70t-67 194q0 143 66.5 220.5t189.5 77.5q127 0 200 -84.5t73 -249.5v-181q0 -92 -37.5 -166t-115 -117.5t-190.5 -43.5h-166v250h166q65 0 87.5 4.5zM212 722q-22 29 -22 75q0 49 34.5 85t87.5 36q20 0 70 -10l-16 -92
q-40 7 -57 7t-28 -9.5t-11 -22.5q0 -15 13.5 -24.5t35.5 -9.5q11 0 24 3l63 18l6 -96l-235 -68l-6 96zM265 286.5q14 -11.5 41 -11.5h53v48q0 27 -13.5 42t-39.5 15t-40.5 -15.5t-14.5 -41.5q0 -25 14 -36.5z" />
    <glyph glyph-name="uni0625" unicode="&#x625;" horiz-adv-x="310" arabic-form="isolated" 
d="M50 742h220v-742h-220v742zM81 -231q-22 29 -22 75q0 49 34.5 85t87.5 36q20 0 70 -10l-16 -92q-40 7 -57 7t-28 -9.5t-11 -22.5q0 -15 13.5 -24.5t35.5 -9.5q11 0 24 3l63 18l6 -96l-235 -68l-6 96z" />
    <glyph glyph-name="uni0626" unicode="&#x626;" horiz-adv-x="873" arabic-form="isolated" 
d="M284.5 182.5q-16.5 -51.5 -16.5 -89.5q0 -48 26.5 -70.5t87.5 -22.5h105q67 0 92.5 5t28.5 18l-244 59q-17 66 -17 130q0 78 23 147.5t64 117.5q54 60 117.5 86.5t135.5 26.5q65 0 133 -22l-52 -214q-30 7 -54 7q-32 0 -63.5 -7.5t-55.5 -22.5q-41 -26 -53 -63l87 -17
q16 -3 38 -7t48 -10q44 -9 67 -27.5t32 -48.5t9 -79q0 -25 -1 -39q-5 -125 -84 -207t-251 -82h-105q-108 0 -182.5 46t-112 123.5t-37.5 172.5q0 66 23.5 140.5t51.5 128.5l196 -87q-20 -41 -36.5 -92.5zM181 510q-22 29 -22 75q0 49 34.5 85t87.5 36q20 0 70 -10l-16 -92
q-40 7 -57 7t-28 -9.5t-11 -22.5q0 -15 13.5 -24.5t35.5 -9.5q11 0 24 3l63 18l6 -96l-235 -68l-6 96z" />
    <glyph glyph-name="uni0627" unicode="&#x627;" horiz-adv-x="310" arabic-form="isolated" 
d="M50 742h220v-742h-220v742z" />
    <glyph glyph-name="uni0628" unicode="&#x628;" horiz-adv-x="958" arabic-form="isolated" 
d="M169.5 31.5q-56.5 31.5 -88 88t-31.5 130.5q0 33 6 67q12 62 29 123l205 -62q-15 -57 -21 -88q-1 -4 -1 -12q0 -28 34 -28h328q33 0 46 11t9 34q-7 46 -20 117l208 53q35 -149 35 -218q0 -60 -29.5 -117.5t-83.5 -93.5t-125 -36h-371q-73 0 -129.5 31.5zM399 -63h93
q62 0 92 -1v-179h-185v180z" />
    <glyph glyph-name="uni0629" unicode="&#x629;" horiz-adv-x="637" arabic-form="isolated" 
d="M347 611q107 -107 152 -157.5t66.5 -97t21.5 -107.5q0 -72 -36 -132.5t-97.5 -95.5t-134.5 -35t-135 35t-98 95.5t-36 132.5q0 68 26.5 123.5t78.5 115.5l-20 19l158 158zM146 858h55h110h2h165v-167h-165h-2h-165v167zM282 238.5q12 -13.5 37 -13.5t36.5 13.5t11.5 31.5
q0 10 -11 25.5t-42 44.5q-24 -27 -34 -42.5t-10 -27.5q0 -18 12 -31.5z" />
    <glyph glyph-name="uni062A" unicode="&#x62a;" horiz-adv-x="958" arabic-form="isolated" 
d="M169.5 31.5q-56.5 31.5 -88 88t-31.5 130.5q0 33 6 67q12 62 29 123l205 -62q-15 -57 -21 -88q-1 -4 -1 -12q0 -28 34 -28h328q33 0 46 11t9 34q-7 46 -20 117l208 53q35 -149 35 -218q0 -60 -29.5 -117.5t-83.5 -93.5t-125 -36h-371q-73 0 -129.5 31.5zM323 594h55h110
h2h165v-167h-165h-2h-165v167z" />
    <glyph glyph-name="uni062B" unicode="&#x62b;" horiz-adv-x="958" arabic-form="isolated" 
d="M169.5 31.5q-56.5 31.5 -88 88t-31.5 130.5q0 33 6 67q12 62 29 123l205 -62q-15 -57 -21 -88q-1 -4 -1 -12q0 -28 34 -28h328q33 0 46 11t9 34q-7 46 -20 117l208 53q35 -149 35 -218q0 -60 -29.5 -117.5t-83.5 -93.5t-125 -36h-371q-73 0 -129.5 31.5zM313 583h55h110
h2h165v-167h-165h-2h-165v167zM399 779h160v-144h-160v144z" />
    <glyph glyph-name="uni062C" unicode="&#x62c;" horiz-adv-x="765" arabic-form="isolated" 
d="M659 -249h-268q-122 0 -204 47.5t-120 153.5q-17 48 -17 97q0 90 54.5 166.5t159.5 115.5l240 89q-55 11 -123.5 21.5t-79.5 10.5q-28 0 -46 -39l-177 64q32 100 87 149.5t135 49.5q42 0 110 -21.5t198 -69.5q30 -12 90 -34l17 -252l-405 -173q-29 -12 -43 -30t-14 -38
q0 -10 3 -19q8 -24 29 -31.5t56 -7.5h318v-249zM498 187h159v-159h-159v159z" />
    <glyph glyph-name="uni062D" unicode="&#x62d;" horiz-adv-x="765" arabic-form="isolated" 
d="M659 -249h-268q-122 0 -204 47.5t-120 153.5q-17 48 -17 97q0 90 54.5 166.5t159.5 115.5l240 89q-55 11 -123.5 21.5t-79.5 10.5q-28 0 -46 -39l-177 64q32 100 87 149.5t135 49.5q42 0 110 -21.5t198 -69.5q30 -12 90 -34l17 -252l-405 -173q-29 -12 -43 -30t-14 -38
q0 -10 3 -19q8 -24 29 -31.5t56 -7.5h318v-249z" />
    <glyph glyph-name="uni062E" unicode="&#x62e;" horiz-adv-x="765" arabic-form="isolated" 
d="M303 919q62 0 92 -1v-179h-185v180h93zM50 49q0 90 54.5 166.5t159.5 115.5l240 89q-55 11 -123.5 21.5t-79.5 10.5q-28 0 -46 -39l-177 64q32 100 87 149.5t135 49.5q42 0 110 -21.5t198 -69.5q30 -12 90 -34l17 -252l-405 -173q-29 -12 -43 -30t-14 -38q0 -10 3 -19
q8 -24 29 -31.5t56 -7.5h318v-249h-268q-122 0 -204 47.5t-120 153.5q-17 48 -17 97z" />
    <glyph glyph-name="uni062F" unicode="&#x62f;" horiz-adv-x="654" arabic-form="isolated" 
d="M404 632q22 -33 73 -108.5t73 -110.5q26 -39 40 -84t14 -89q0 -78 -41 -135q-38 -52 -94 -78.5t-123 -26.5h-55q-76 0 -134.5 22.5t-106.5 57.5l86 197q33 -12 62.5 -19.5t74.5 -7.5h50q27 0 39 2.5t15 8.5q2 4 2 7q0 10 -9 22q-135 186 -167 228l184 138q19 -26 17 -24z
" />
    <glyph glyph-name="uni0630" unicode="&#x630;" horiz-adv-x="654" arabic-form="isolated" 
d="M404 632q22 -33 73 -108.5t73 -110.5q26 -39 40 -84t14 -89q0 -78 -41 -135q-38 -52 -94 -78.5t-123 -26.5h-55q-76 0 -134.5 22.5t-106.5 57.5l86 197q33 -12 62.5 -19.5t74.5 -7.5h50q27 0 39 2.5t15 8.5q2 4 2 7q0 10 -9 22q-135 186 -167 228l184 138q19 -26 17 -24z
M240 885h93q62 0 92 -1v-179h-185v180z" />
    <glyph glyph-name="uni0631" unicode="&#x631;" horiz-adv-x="428" arabic-form="isolated" 
d="M398 388v-280q0 -108 -38.5 -188.5t-114 -125t-182.5 -44.5h-63v250h63q56 0 78.5 6.5t29.5 27.5t7 74v280h220z" />
    <glyph glyph-name="uni0632" unicode="&#x632;" horiz-adv-x="428" arabic-form="isolated" 
d="M398 388v-280q0 -108 -38.5 -188.5t-114 -125t-182.5 -44.5h-63v250h63q56 0 78.5 6.5t29.5 27.5t7 74v280h220zM195 688h93q62 0 92 -1v-179h-185v180z" />
    <glyph glyph-name="uni0633" unicode="&#x633;" horiz-adv-x="1370" arabic-form="isolated" 
d="M284.5 182.5q-16.5 -52.5 -16.5 -90.5q0 -48 27 -70t91 -22h53q46 0 70 7t33.5 23t9.5 47v311h220v-138q0 -9 7.5 -15.5t18.5 -6.5t18.5 6.5t7.5 15.5v138h220v-132q0 -12 7.5 -20t19.5 -8t19.5 9t7.5 28q0 10 -1 16l-20 131l208 53q35 -149 35 -218q0 -62 -26.5 -118.5
t-82.5 -92.5t-141 -36q-77 0 -136 45q-22 -20 -61.5 -32.5t-74.5 -12.5q-14 0 -32 3q-18 -117 -99 -185t-228 -68h-53q-110 0 -186 46t-113 123.5t-37 172.5q0 66 23.5 141t51.5 129l196 -87q-20 -40 -36.5 -92.5z" />
    <glyph glyph-name="uni0634" unicode="&#x634;" horiz-adv-x="1370" arabic-form="isolated" 
d="M284.5 182.5q-16.5 -52.5 -16.5 -90.5q0 -48 27 -70t91 -22h53q46 0 70 7t33.5 23t9.5 47v311h220v-138q0 -9 7.5 -15.5t18.5 -6.5t18.5 6.5t7.5 15.5v138h220v-132q0 -12 7.5 -20t19.5 -8t19.5 9t7.5 28q0 10 -1 16l-20 131l208 53q35 -149 35 -218q0 -62 -26.5 -118.5
t-82.5 -92.5t-141 -36q-77 0 -136 45q-22 -20 -61.5 -32.5t-74.5 -12.5q-14 0 -32 3q-18 -117 -99 -185t-228 -68h-53q-110 0 -186 46t-113 123.5t-37 172.5q0 66 23.5 141t51.5 129l196 -87q-20 -40 -36.5 -92.5zM744 639h55h110h2h165v-167h-165h-2h-165v167zM830 835h160
v-144h-160v144z" />
    <glyph glyph-name="uni0635" unicode="&#x635;" horiz-adv-x="1416" arabic-form="isolated" 
d="M284.5 182.5q-16.5 -52.5 -16.5 -90.5q0 -48 27 -70t91 -22h53q46 0 70 7t33.5 23t9.5 47v311h220v-138h1l80 130q62 98 117.5 140.5t138.5 42.5q74 0 132.5 -37t91.5 -100.5t33 -140.5q0 -76 -33 -141.5t-94 -104.5t-143 -39h-307q-15 0 -23 1q-19 -116 -100 -183.5
t-227 -67.5h-53q-110 0 -186 46t-113 123.5t-37 172.5q0 66 23.5 141t51.5 129l196 -87q-20 -40 -36.5 -92.5zM1105 250q25 0 37 9t12 32q0 19 -12.5 29t-32.5 10q-29 0 -48.5 -13.5t-41.5 -47.5q-4 -5 -12 -19h98z" />
    <glyph glyph-name="uni0636" unicode="&#x636;" horiz-adv-x="1416" arabic-form="isolated" 
d="M284.5 182.5q-16.5 -52.5 -16.5 -90.5q0 -48 27 -70t91 -22h53q46 0 70 7t33.5 23t9.5 47v311h220v-138h1l80 130q62 98 117.5 140.5t138.5 42.5q74 0 132.5 -37t91.5 -100.5t33 -140.5q0 -76 -33 -141.5t-94 -104.5t-143 -39h-307q-15 0 -23 1q-19 -116 -100 -183.5
t-227 -67.5h-53q-110 0 -186 46t-113 123.5t-37 172.5q0 66 23.5 141t51.5 129l196 -87q-20 -40 -36.5 -92.5zM1105 250q25 0 37 9t12 32q0 19 -12.5 29t-32.5 10q-29 0 -48.5 -13.5t-41.5 -47.5q-4 -5 -12 -19h98zM1014 814h93q62 0 92 -1v-179h-185v180z" />
    <glyph glyph-name="uni0637" unicode="&#x637;" horiz-adv-x="799" arabic-form="isolated" 
d="M50 250h106l1 2v490h220v-206q50 27 115 27q74 0 132.5 -37t91.5 -100.5t33 -140.5q0 -76 -33 -141.5t-94 -104.5t-143 -39h-429v250zM488 250q25 0 37 9t12 32q0 19 -12.5 29t-32.5 10q-29 0 -48.5 -13.5t-41.5 -47.5l-12 -19h98z" />
    <glyph glyph-name="uni0638" unicode="&#x638;" horiz-adv-x="799" arabic-form="isolated" 
d="M50 250h106l1 2v490h220v-206q50 27 115 27q74 0 132.5 -37t91.5 -100.5t33 -140.5q0 -76 -33 -141.5t-94 -104.5t-143 -39h-429v250zM488 250q25 0 37 9t12 32q0 19 -12.5 29t-32.5 10q-29 0 -48.5 -13.5t-41.5 -47.5l-12 -19h98zM449 812h93q62 0 92 -1v-179h-185v180z
" />
    <glyph glyph-name="uni0639" unicode="&#x639;" horiz-adv-x="673" arabic-form="isolated" 
d="M623 -249h-258q-89 0 -161 42.5t-113 116t-41 162.5q0 73 28.5 138t78.5 111q-25 36 -37 75.5t-12 76.5q0 71 35.5 132t96 97t131.5 36q53 0 90.5 -15t97.5 -52l32 -20l-100 -190q-50 29 -70.5 38.5t-42.5 9.5q-26 0 -42.5 -14.5t-16.5 -35.5q0 -25 29 -40t86 -19l146 -1
l-2 -250l-229 2q-37 0 -62.5 -21.5t-25.5 -57.5q0 -35 25 -53.5t63 -18.5h274v-249z" />
    <glyph glyph-name="uni063A" unicode="&#x63a;" horiz-adv-x="673" arabic-form="isolated" 
d="M623 -249h-258q-89 0 -161 42.5t-113 116t-41 162.5q0 73 28.5 138t78.5 111q-25 36 -37 75.5t-12 76.5q0 71 35.5 132t96 97t131.5 36q53 0 90.5 -15t97.5 -52l32 -20l-100 -190q-50 29 -70.5 38.5t-42.5 9.5q-26 0 -42.5 -14.5t-16.5 -35.5q0 -25 29 -40t86 -19l146 -1
l-2 -250l-229 2q-37 0 -62.5 -21.5t-25.5 -57.5q0 -35 25 -53.5t63 -18.5h274v-249zM278 957h93q62 0 92 -1v-179h-185v180z" />
    <glyph glyph-name="uni0641" unicode="&#x641;" horiz-adv-x="1064" arabic-form="isolated" 
d="M755 916q62 0 92 -1v-179h-185v180h93zM78.5 412.5q17.5 70.5 29.5 113.5l205 -62q-40 -155 -44 -174q-1 -4 -1 -12q0 -28 34 -28h304q-38 24 -57.5 61t-19.5 96q0 118 61.5 183t173.5 65q120 0 185 -70.5t65 -211.5v-46q0 -74 -39 -149.5t-122 -126.5t-206 -51h-348
q-73 0 -129.5 31.5t-88 88t-31.5 130.5q0 33 6 67q5 25 22.5 95.5zM757 376l54 -21v55q0 26 -11.5 42.5t-35.5 16.5t-34.5 -13t-10.5 -33q0 -31 38 -47z" />
    <glyph glyph-name="uni0642" unicode="&#x642;" horiz-adv-x="951" arabic-form="isolated" 
d="M278.5 242.5q-19.5 -55.5 -19.5 -104.5q0 -56 31 -97t90 -41h178q62 0 86.5 6.5t31.5 30.5h-48q-122 0 -189 70t-67 194q0 143 66.5 220.5t189.5 77.5q127 0 200 -84.5t73 -249.5v-181q0 -92 -38 -167.5t-115 -120.5t-190 -45h-178q-166 0 -248 100.5t-82 266.5
q0 89 26 162.5t60 139.5l180 -87q-18 -35 -37.5 -90.5zM452 810h55h110h2h165v-167h-165h-2h-165v167zM587 286.5q14 -11.5 41 -11.5h53v48q0 27 -13.5 42t-39.5 15t-40.5 -15.5t-14.5 -41.5q0 -25 14 -36.5z" />
    <glyph glyph-name="uni0643" unicode="&#x643;" horiz-adv-x="912" arabic-form="isolated" 
d="M169.5 31.5q-56.5 31.5 -88 88t-31.5 130.5q0 33 6 67q12 62 29 123l205 -62q-15 -57 -21 -88q-1 -4 -1 -12q0 -28 34 -28h324l-198 204l36 224l355 156l88 -228l-210 -93l100 -102q35 -36 52.5 -81t17.5 -93q0 -61 -28 -115.5t-81 -88t-125 -33.5h-334
q-73 0 -129.5 31.5z" />
    <glyph glyph-name="uni0644" unicode="&#x644;" horiz-adv-x="798" arabic-form="isolated" 
d="M200 -203q-76 46 -113 123.5t-37 172.5q0 60 19 127t45 119l190 -89q-15 -34 -26.5 -79t-11.5 -77q0 -48 28 -71t92 -23h29q46 0 70 7t33.5 23t9.5 47v666h220v-665q0 -148 -82 -237.5t-251 -89.5h-29q-110 0 -186 46z" />
    <glyph glyph-name="uni0645" unicode="&#x645;" horiz-adv-x="808" arabic-form="isolated" 
d="M50 192l141 129q18 -6 41 -13l16 51q34 109 97 161.5t162 52.5q72 0 129.5 -42t89.5 -111.5t32 -149.5q0 -92 -31.5 -157t-85 -98.5t-119.5 -33.5q-32 0 -72 10.5t-115 34.5l-65 21v-329h-220v474zM514 223q22 0 35.5 12.5t13.5 37.5q0 29 -14 47.5t-38 18.5
q-20 0 -35.5 -14.5t-22.5 -37.5l-13 -46q61 -18 74 -18z" />
    <glyph glyph-name="uni0646" unicode="&#x646;" horiz-adv-x="822" arabic-form="isolated" 
d="M284.5 182.5q-16.5 -52.5 -16.5 -90.5q0 -48 27 -70t91 -22h53q46 0 70 7t33.5 23t9.5 47v311h220v-311q0 -148 -82 -237.5t-251 -89.5h-53q-110 0 -186 46t-113 123.5t-37 172.5q0 66 23.5 141t51.5 129l196 -87q-20 -40 -36.5 -92.5zM339 567h93q62 0 92 -1v-179h-185
v180z" />
    <glyph glyph-name="uni0647" unicode="&#x647;" horiz-adv-x="637" arabic-form="isolated" 
d="M347 611q107 -107 152 -157.5t66.5 -97t21.5 -107.5q0 -72 -36 -132.5t-97.5 -95.5t-134.5 -35t-135 35t-98 95.5t-36 132.5q0 68 26.5 123.5t78.5 115.5l-20 19l158 158zM282 238.5q12 -13.5 37 -13.5t36.5 13.5t11.5 31.5q0 10 -11 25.5t-42 44.5q-24 -27 -34 -42.5
t-10 -27.5q0 -18 12 -31.5z" />
    <glyph glyph-name="uni0648" unicode="&#x648;" horiz-adv-x="629" arabic-form="isolated" 
d="M323.5 11.5q22.5 4.5 30.5 25.5h-48q-122 0 -189 70t-67 194q0 143 66.5 220.5t189.5 77.5q127 0 200 -84.5t73 -249.5v-181q0 -92 -37.5 -166t-115 -117.5t-190.5 -43.5h-166v250h166q65 0 87.5 4.5zM265 286.5q14 -11.5 41 -11.5h53v48q0 27 -13.5 42t-39.5 15
t-40.5 -15.5t-14.5 -41.5q0 -25 14 -36.5z" />
    <glyph glyph-name="uni0649" unicode="&#x649;" horiz-adv-x="873" arabic-form="isolated" 
d="M284.5 182.5q-16.5 -51.5 -16.5 -89.5q0 -48 26.5 -70.5t87.5 -22.5h105q67 0 92.5 5t28.5 18l-244 59q-17 66 -17 130q0 78 23 147.5t64 117.5q54 60 117.5 86.5t135.5 26.5q65 0 133 -22l-52 -214q-30 7 -54 7q-32 0 -63.5 -7.5t-55.5 -22.5q-41 -26 -53 -63l87 -17
q16 -3 38 -7t48 -10q44 -9 67 -27.5t32 -48.5t9 -79q0 -25 -1 -39q-5 -125 -84 -207t-251 -82h-105q-108 0 -182.5 46t-112 123.5t-37.5 172.5q0 66 23.5 140.5t51.5 128.5l196 -87q-20 -41 -36.5 -92.5z" />
    <glyph glyph-name="uni064A" unicode="&#x64a;" horiz-adv-x="873" arabic-form="isolated" 
d="M284.5 182.5q-16.5 -51.5 -16.5 -89.5q0 -48 26.5 -70.5t87.5 -22.5h105q67 0 92.5 5t28.5 18l-244 59q-17 66 -17 130q0 78 23 147.5t64 117.5q54 60 117.5 86.5t135.5 26.5q65 0 133 -22l-52 -214q-30 7 -54 7q-32 0 -63.5 -7.5t-55.5 -22.5q-41 -26 -53 -63l87 -17
q16 -3 38 -7t48 -10q44 -9 67 -27.5t32 -48.5t9 -79q0 -25 -1 -39q-5 -125 -84 -207t-251 -82h-105q-108 0 -182.5 46t-112 123.5t-37.5 172.5q0 66 23.5 140.5t51.5 128.5l196 -87q-20 -41 -36.5 -92.5z" />
    <glyph glyph-name="uni066E.init" unicode="&#x66e;" horiz-adv-x="415" 
d="M-5 250h92q33 0 46 11t9 34q-7 46 -20 117l208 53q35 -149 35 -218q0 -60 -29.5 -117.5t-83.5 -93.5t-125 -36h-132v250z" />
    <glyph glyph-name="uni066E.medi" unicode="&#x66e;" horiz-adv-x="362" 
d="M331 388v-113q0 -15 5 -20t19 -5h12l10 -127l-10 -123h-25q-72 0 -130 43q-62 -43 -129 -43h-88v250h86q19 0 24.5 5t5.5 20v113h220z" />
    <glyph glyph-name="uni066E.fina" unicode="&#x66e;" horiz-adv-x="937" 
d="M169.5 31.5q-56.5 31.5 -88 88t-31.5 130.5q0 33 6 67q12 62 29 123l205 -62q-15 -57 -21 -88q-1 -4 -1 -12q0 -28 34 -28h354q19 0 24.5 5t5.5 20v113h220v-113q0 -15 5 -20t19 -5h12l11 -133l-11 -117h-25q-72 0 -130 43q-22 -22 -52 -32.5t-77 -10.5h-359
q-73 0 -129.5 31.5z" />
    <glyph glyph-name="uni066F.fina" unicode="&#x66f;" horiz-adv-x="954" 
d="M277.5 207q-18.5 -51 -18.5 -100q0 -56 31 -96.5t90 -40.5h178q65 0 87.5 4.5t30.5 25.5h-48q-122 0 -189 70t-67 194q0 143 66.5 220.5t189.5 77.5t195.5 -79t77.5 -233h59l14 -130l-14 -120h-62q-9 -81 -49.5 -144t-114 -99.5t-176.5 -36.5h-178q-166 0 -248 100.5
t-82 266.5q0 62 15.5 120.5t31.5 94t39 81.5l180 -87q-20 -38 -38.5 -89zM587 249.5q14 -11.5 41 -11.5h53v48q0 27 -13.5 42t-39.5 15t-40.5 -15.5t-14.5 -41.5q0 -25 14 -36.5z" />
    <glyph glyph-name="uni0671" unicode="&#x671;" horiz-adv-x="320" arabic-form="isolated" 
d="M58 598h220v-598h-220v598zM31 805l17 -22l23 35q28 41 54.5 62t62.5 21q48 0 79 -39t31 -94q0 -53 -31 -89.5t-84 -36.5h-51q-41 0 -66 11t-43.5 31t-55.5 69zM132 742h51q23 0 29 4.5t6 21.5q0 20 -5.5 26.5t-24.5 6.5q-15 0 -25 -7.5t-26 -31.5l-14 -20h9z" />
    <glyph glyph-name="uni0679" unicode="&#x679;" horiz-adv-x="958" arabic-form="isolated" 
d="M169.5 31.5q-56.5 31.5 -88 88t-31.5 130.5q0 33 6 67q12 62 29 123l205 -62q-15 -57 -21 -88q-1 -4 -1 -12q0 -28 34 -28h328q33 0 46 11t9 34q-7 46 -20 117l208 53q35 -149 35 -218q0 -60 -29.5 -117.5t-83.5 -93.5t-125 -36h-371q-73 0 -129.5 31.5zM382 568l17 -22
l23 35l2 3v139h81v-65q15 6 34 6q48 0 79 -39t31 -94q0 -53 -31 -89.5t-84 -36.5h-51q-41 0 -66 11t-43.5 31t-55.5 69zM483 505h51q23 0 29 4.5t6 21.5q0 20 -5.5 26.5t-24.5 6.5q-15 0 -25 -7.5t-26 -31.5l-14 -20h9z" />
    <glyph glyph-name="uni067E" unicode="&#x67e;" horiz-adv-x="958" arabic-form="isolated" 
d="M169.5 31.5q-56.5 31.5 -88 88t-31.5 130.5q0 33 6 67q12 62 29 123l205 -62q-15 -57 -21 -88q-1 -4 -1 -12q0 -28 34 -28h328q33 0 46 11t9 34q-7 46 -20 117l208 53q35 -149 35 -218q0 -60 -29.5 -117.5t-83.5 -93.5t-125 -36h-371q-73 0 -129.5 31.5zM306 -56h165h2
h165v-167h-165h-2h-110h-55v167zM392 -275h160v-144h-160v144z" />
    <glyph glyph-name="uni0686" unicode="&#x686;" horiz-adv-x="765" arabic-form="isolated" 
d="M685 -289h-294q-126 0 -208 61.5t-113 158.5q-16 49 -16 106q0 67 24 129.5t71.5 110.5t114.5 71l238 82q-53 11 -121 21.5t-80 10.5q-28 0 -46 -39l-177 64q32 100 87 149.5t135 49.5q42 0 110 -21.5t198 -69.5q30 -12 90 -34l17 -252l-380 -132q-44 -15 -69 -49
t-25 -72q0 -15 5 -32q11 -37 47 -60t95 -23h297v-230zM443 200h132h2h132v-125h-70v-96h-128v96h-68v125z" />
    <glyph glyph-name="uni0695.fina" unicode="&#x695;" horiz-adv-x="444" 
d="M398 388v-113q0 -25 42 -25h9l9 -128l-9 -122h-18q-22 0 -43 6q-25 -120 -108.5 -188t-216.5 -68h-63v250h63q56 0 78.5 6.5t29.5 27.5t7 74v280h220zM93 -345l54 -86l54 86l78 -62l-74 -117h-115l-75 117z" />
    <glyph glyph-name="uni0698" unicode="&#x698;" horiz-adv-x="438" arabic-form="isolated" 
d="M398 388v-280q0 -108 -38.5 -188.5t-114 -125t-182.5 -44.5h-63v250h63q56 0 78.5 6.5t29.5 27.5t7 74v280h220zM68 631h55h110h2h165v-167h-165h-2h-165v167zM154 827h160v-144h-160v144z" />
    <glyph glyph-name="uni06A1.init" unicode="&#x6a1;" horiz-adv-x="591" 
d="M-5 250h110q-38 24 -57.5 61t-19.5 96q0 118 61.5 183t173.5 65q120 0 185 -70.5t65 -211.5v-71q0 -75 -34 -143.5t-112 -113.5t-202 -45h-170v250zM256 376l54 -21v55q0 26 -11.5 42.5t-35.5 16.5t-34.5 -13t-10.5 -33q0 -31 38 -47z" />
    <glyph glyph-name="uni06A1.medi" unicode="&#x6a1;" horiz-adv-x="604" 
d="M-5 250h37h50q-5 10 -9.5 36t-4.5 42q0 72 29 132.5t82.5 96.5t123.5 36q69 0 122 -35.5t82 -96t29 -132.5q0 -14 -3 -42t-8 -37h45h36l15 -125l-15 -125h-62q-48 0 -120 16t-122 41q-57 -27 -126 -42t-117 -15h-64v250zM303 273q57 17 57 56q0 21 -18 36.5t-39 15.5
q-22 0 -40 -15.5t-18 -36.5q0 -38 58 -56z" />
    <glyph glyph-name="uni06A1.fina" unicode="&#x6a1;" horiz-adv-x="1049" 
d="M517.5 286q-4.5 26 -4.5 42q0 72 29 132.5t82.5 96.5t123.5 36q69 0 122 -35.5t82 -96t29 -132.5q0 -14 -3 -42t-8 -37h45h36l15 -125l-15 -125h-62q-48 0 -120 16t-122 41q-48 -23 -88.5 -34t-123 -17t-236.5 -6q-73 0 -129.5 31.5t-88 88t-31.5 130.5q0 33 6 67
q5 25 22.5 95.5t29.5 113.5l205 -62q-40 -155 -44 -174q-1 -4 -1 -12q0 -28 34 -28h225q-5 10 -9.5 36zM748 273q57 17 57 56q0 21 -18 36.5t-39 15.5q-22 0 -40 -15.5t-18 -36.5q0 -38 58 -56z" />
    <glyph glyph-name="uni06A4" unicode="&#x6a4;" horiz-adv-x="1064" arabic-form="isolated" 
d="M169.5 31.5q-56.5 31.5 -88 88t-31.5 130.5q0 33 6 67q5 25 22.5 95.5t29.5 113.5l205 -62q-40 -155 -44 -174q-1 -4 -1 -12q0 -28 34 -28h304q-38 24 -57.5 61t-19.5 96q0 118 61.5 183t173.5 65q120 0 185 -70.5t65 -211.5v-46q0 -74 -39 -149.5t-122 -126.5t-206 -51
h-348q-73 0 -129.5 31.5zM577 888h55h110h2h165v-167h-165h-2h-165v167zM663 1084h160v-144h-160v144zM757 376l54 -21v55q0 26 -11.5 42.5t-35.5 16.5t-34.5 -13t-10.5 -33q0 -31 38 -47z" />
    <glyph glyph-name="uni06A9" unicode="&#x6a9;" horiz-adv-x="912" arabic-form="isolated" 
d="M169.5 31.5q-56.5 31.5 -88 88t-31.5 130.5q0 33 6 67q12 62 29 123l205 -62q-15 -57 -21 -88q-1 -4 -1 -12q0 -28 34 -28h324l-198 204l36 224l355 156l88 -228l-210 -93l100 -102q35 -36 52.5 -81t17.5 -93q0 -61 -28 -115.5t-81 -88t-125 -33.5h-334
q-73 0 -129.5 31.5z" />
    <glyph glyph-name="uni06AF" unicode="&#x6af;" horiz-adv-x="929" arabic-form="isolated" 
d="M169.5 31.5q-56.5 31.5 -88 88t-31.5 130.5q0 33 6 67q12 62 29 123l205 -62q-15 -57 -21 -88q-1 -4 -1 -12q0 -28 34 -28h323l-173 162l28 174l366 175l78 -195l-194 -95l67 -60q37 -34 56 -78t19 -92q0 -61 -29 -116.5t-83.5 -90t-126.5 -34.5h-334q-73 0 -129.5 31.5z
M493 715l290 136l32 -73l-329 -154z" />
    <glyph glyph-name="uni06B5.init" unicode="&#x6b5;" horiz-adv-x="344" 
d="M263 129.5q-31 -62.5 -84 -96t-116 -33.5h-68v250h44q14 0 24.5 11t10.5 27v454h220v-467q0 -83 -31 -145.5zM138 973l54 -86l54 86l78 -62l-74 -117h-115l-75 117z" />
    <glyph glyph-name="uni06B5.medi" unicode="&#x6b5;" horiz-adv-x="375" 
d="M-5 250h55q13 0 18.5 6t5.5 19v467h220v-467q0 -13 5.5 -19t18.5 -6h60l10 -119l-10 -131h-50q-82 0 -138 42q-56 -42 -127 -42h-68v250zM133 973l54 -86l54 86l78 -62l-74 -117h-115l-75 117z" />
    <glyph glyph-name="uni06B5.fina" unicode="&#x6b5;" horiz-adv-x="798" 
d="M200 -203q-76 46 -113 123.5t-37 172.5q0 60 19 127t45 119l190 -89q-15 -34 -26.5 -79t-11.5 -77q0 -48 28 -71t92 -23h29q46 0 70 7t33.5 23t9.5 47v666h220v-468q0 -25 42 -25h9l12 -127l-12 -123h-18q-18 0 -38 5q-19 -118 -100 -186t-228 -68h-29q-110 0 -186 46z
M588 973l54 -86l54 86l78 -62l-74 -117h-115l-75 117z" />
    <glyph glyph-name="uni06C2.fina" unicode="&#x6c2;" horiz-adv-x="652" 
d="M584 259q16 -9 59 -9h14l10 -125l-10 -125h-14q-110 0 -185 55.5t-111 178.5l-14 48l-27 -10q-49 -18 -49 -62q0 -17 6 -35l22 -64l-177 -72l-30 72q-27 64 -27 130q0 90 54 159.5t151 101.5l125 41l133 -79l45 -162q9 -34 25 -43zM171 644q-22 29 -22 75q0 49 34.5 85
t87.5 36q20 0 70 -10l-16 -92q-40 7 -57 7t-28 -9.5t-11 -22.5q0 -15 13.5 -24.5t35.5 -9.5q11 0 24 3l63 18l6 -96l-235 -68l-6 96z" />
    <glyph glyph-name="uni06C3.fina" unicode="&#x6c3;" horiz-adv-x="652" 
d="M584 259q16 -9 59 -9h14l10 -125l-10 -125h-14q-110 0 -185 55.5t-111 178.5l-14 48l-27 -10q-49 -18 -49 -62q0 -17 6 -35l22 -64l-177 -72l-30 72q-27 64 -27 130q0 90 54 159.5t151 101.5l125 41l133 -79l45 -162q9 -34 25 -43zM157 773h55h110h2h165v-167h-165h-2
h-165v167z" />
    <glyph glyph-name="uni06C6" unicode="&#x6c6;" horiz-adv-x="629" arabic-form="isolated" 
d="M323.5 11.5q22.5 4.5 30.5 25.5h-48q-122 0 -189 70t-67 194q0 143 66.5 220.5t189.5 77.5q127 0 200 -84.5t73 -249.5v-181q0 -92 -37.5 -166t-115 -117.5t-190.5 -43.5h-166v250h166q65 0 87.5 4.5zM244 818l54 -86l54 86l78 -62l-74 -117h-115l-75 117zM265 286.5
q14 -11.5 41 -11.5h53v48q0 27 -13.5 42t-39.5 15t-40.5 -15.5t-14.5 -41.5q0 -25 14 -36.5z" />
    <glyph glyph-name="uni06C7" unicode="&#x6c7;" horiz-adv-x="629" arabic-form="isolated" 
d="M323.5 11.5q22.5 4.5 30.5 25.5h-48q-122 0 -189 70t-67 194q0 143 66.5 220.5t189.5 77.5q127 0 200 -84.5t73 -249.5v-181q0 -92 -37.5 -166t-115 -117.5t-190.5 -43.5h-166v250h166q65 0 87.5 4.5zM199 733q-1 2 -8 18q-7 18 -7 40q0 37 21.5 67t58.5 42q27 8 49 8
q36 0 62 -19t38 -55q6 -18 6 -37q0 -37 -23 -68.5t-65 -46.5l-150 -53l-28 88zM265 286.5q14 -11.5 41 -11.5h53v48q0 27 -13.5 42t-39.5 15t-40.5 -15.5t-14.5 -41.5q0 -25 14 -36.5zM274 758l32 11q34 12 34 31q0 3 -2 9q-7 15 -24 15q-10 0 -25 -6t-22 -17t-4 -20t11 -23
z" />
    <glyph glyph-name="uni06CC" unicode="&#x6cc;" horiz-adv-x="873" arabic-form="isolated" 
d="M284.5 182.5q-16.5 -51.5 -16.5 -89.5q0 -48 26.5 -70.5t87.5 -22.5h105q67 0 92.5 5t28.5 18l-244 59q-17 66 -17 130q0 78 23 147.5t64 117.5q54 60 117.5 86.5t135.5 26.5q65 0 133 -22l-52 -214q-30 7 -54 7q-32 0 -63.5 -7.5t-55.5 -22.5q-41 -26 -53 -63l87 -17
q16 -3 38 -7t48 -10q44 -9 67 -27.5t32 -48.5t9 -79q0 -25 -1 -39q-5 -125 -84 -207t-251 -82h-105q-108 0 -182.5 46t-112 123.5t-37.5 172.5q0 66 23.5 140.5t51.5 128.5l196 -87q-20 -41 -36.5 -92.5z" />
    <glyph glyph-name="uni06CE.init" unicode="&#x6ce;" horiz-adv-x="395" 
d="M39 667l78 62l54 -86l54 86l78 -62l-74 -117h-115zM-76 -76h55h110h2h165v-167h-165h-2h-165v167zM-5 250h116q33 0 46 11t9 34q-7 46 -20 117l208 53q35 -149 35 -218q0 -62 -26.5 -118.5t-80.5 -92.5t-131 -36h-156v250z" />
    <glyph glyph-name="uni06CE.medi" unicode="&#x6ce;" horiz-adv-x="390" 
d="M35 548l78 62l54 -86l54 86l78 -62l-74 -117h-115zM-101 -76h55h110h2h165v-167h-165h-2h-165v167zM-5 250h113q19 0 24.5 5t5.5 20v113h220v-113q0 -15 5 -20t19 -5h26l9 -129l-9 -121h-39q-72 0 -130 43q-62 -43 -129 -43h-115v250z" />
    <glyph glyph-name="uni06CE.fina" unicode="&#x6ce;" horiz-adv-x="887" 
d="M199.5 -203q-74.5 46 -112 123.5t-37.5 172.5q0 66 23.5 140.5t51.5 128.5l196 -87q-19 -38 -36 -95.5t-17 -96.5q0 -48 26.5 -70.5t87.5 -22.5h207q17 0 27 3t10 13q0 7 -11 10t-26 3h-177v231h480l12 -128l-12 -122h-74q-4 -35 -10 -52q-25 -90 -103 -143.5t-218 -53.5
h-105q-108 0 -182.5 46zM230 549l54 -86l54 86l78 -62l-74 -117h-115l-75 117z" />
    <glyph glyph-name="uni06D5.fina" unicode="&#x6d5;" horiz-adv-x="679" 
d="M580 296q7 -28 24 -37t60 -9h20l10 -125l-10 -125h-20q-54 0 -105.5 17t-93.5 52q-33 -29 -72.5 -44t-81.5 -15q-61 0 -123 33q-61 32 -96 97.5t-35 139.5q0 76 36 134q18 30 37 50.5t56 44.5t102 54l-13 55l214 56zM265 279q0 -11 6 -21t16 -15q9 -5 21 -5t22 5.5
t16 15.5q7 12 7 24q0 3 -4 25l-8 33q-37 -15 -51 -24.5t-19 -17.5q-6 -9 -6 -20z" />
    <glyph glyph-name="uni0671.fina" unicode="&#x671;" horiz-adv-x="349" arabic-form="final" 
d="M163 36.5q-57 36.5 -85 97.5t-28 135v329h220v-323q0 -13 5.5 -19t18.5 -6h60l10 -129l-10 -121h-50q-84 0 -141 36.5zM51 805l17 -22l23 35q28 41 54.5 62t62.5 21q48 0 79 -39t31 -94q0 -53 -31 -89.5t-84 -36.5h-51q-41 0 -66 11t-43.5 31t-55.5 69zM152 742h51
q23 0 29 4.5t6 21.5q0 20 -5.5 26.5t-24.5 6.5q-15 0 -25 -7.5t-26 -31.5l-14 -20h9z" />
    <glyph glyph-name="uni067E.fina" unicode="&#x67e;" horiz-adv-x="937" arabic-form="final" 
d="M169.5 31.5q-56.5 31.5 -88 88t-31.5 130.5q0 33 6 67q12 62 29 123l205 -62q-15 -57 -21 -88q-1 -4 -1 -12q0 -28 34 -28h354q19 0 24.5 5t5.5 20v113h220v-113q0 -15 5 -20t19 -5h12l11 -133l-11 -117h-25q-72 0 -130 43q-22 -22 -52 -32.5t-77 -10.5h-359
q-73 0 -129.5 31.5zM306 -56h165h2h165v-167h-165h-2h-110h-55v167zM392 -275h160v-144h-160v144z" />
    <glyph glyph-name="uni067E.init" unicode="&#x67e;" horiz-adv-x="439" arabic-form="initial" 
d="M-5 250h116q33 0 46 11t9 34q-7 46 -20 117l208 53q35 -149 35 -218q0 -62 -26.5 -118.5t-80.5 -92.5t-131 -36h-156v250zM-49 -77h165h2h165v-167h-165h-2h-110h-55v167zM37 -296h160v-144h-160v144z" />
    <glyph glyph-name="uni067E.medi" unicode="&#x67e;" horiz-adv-x="403" arabic-form="medial" 
d="M358 388v-113q0 -15 5 -20t19 -5h26l9 -129l-9 -121h-39q-72 0 -130 43q-62 -43 -129 -43h-115v250h113q19 0 24.5 5t5.5 20v113h220zM-54 -77h165h2h165v-167h-165h-2h-110h-55v167zM32 -296h160v-144h-160v144z" />
    <glyph glyph-name="uni0679.fina" unicode="&#x679;" horiz-adv-x="937" arabic-form="final" 
d="M169.5 31.5q-56.5 31.5 -88 88t-31.5 130.5q0 33 6 67q12 62 29 123l205 -62q-15 -57 -21 -88q-1 -4 -1 -12q0 -28 34 -28h354q19 0 24.5 5t5.5 20v113h220v-113q0 -15 5 -20t19 -5h12l11 -133l-11 -117h-25q-72 0 -130 43q-22 -22 -52 -32.5t-77 -10.5h-359
q-73 0 -129.5 31.5zM388 558l17 -22l23 35l2 3v139h81v-65q15 6 34 6q48 0 79 -39t31 -94q0 -53 -31 -89.5t-84 -36.5h-51q-41 0 -66 11t-43.5 31t-55.5 69zM489 495h51q23 0 29 4.5t6 21.5q0 20 -5.5 26.5t-24.5 6.5q-15 0 -25 -7.5t-26 -31.5l-14 -20h9z" />
    <glyph glyph-name="uni0679.init" unicode="&#x679;" horiz-adv-x="439" arabic-form="initial" 
d="M-5 250h116q33 0 46 11t9 34q-7 46 -20 117l208 53q35 -149 35 -218q0 -62 -26.5 -118.5t-80.5 -92.5t-131 -36h-156v250zM75 654l17 -22l23 35l2 3v139h81v-65q15 6 34 6q48 0 79 -39t31 -94q0 -53 -31 -89.5t-84 -36.5h-51q-41 0 -66 11t-43.5 31t-55.5 69zM176 591h51
q23 0 29 4.5t6 21.5q0 20 -5.5 26.5t-24.5 6.5q-15 0 -25 -7.5t-26 -31.5l-14 -20h9z" />
    <glyph glyph-name="uni0679.medi" unicode="&#x679;" horiz-adv-x="403" arabic-form="medial" 
d="M358 388v-113q0 -15 5 -20t19 -5h26l9 -129l-9 -121h-39q-72 0 -130 43q-62 -43 -129 -43h-115v250h113q19 0 24.5 5t5.5 20v113h220zM73 582l17 -22l23 35l2 3v139h81v-65q15 6 34 6q48 0 79 -39t31 -94q0 -53 -31 -89.5t-84 -36.5h-51q-41 0 -66 11t-43.5 31t-55.5 69z
M174 519h51q23 0 29 4.5t6 21.5q0 20 -5.5 26.5t-24.5 6.5q-15 0 -25 -7.5t-26 -31.5l-14 -20h9z" />
    <glyph glyph-name="uni06A4.fina" unicode="&#x6a4;" horiz-adv-x="1049" arabic-form="final" 
d="M517.5 286q-4.5 26 -4.5 42q0 72 29 132.5t82.5 96.5t123.5 36q69 0 122 -35.5t82 -96t29 -132.5q0 -14 -3 -42t-8 -37h45h36l15 -125l-15 -125h-62q-48 0 -120 16t-122 41q-48 -23 -88.5 -34t-123 -17t-236.5 -6q-73 0 -129.5 31.5t-88 88t-31.5 130.5q0 33 6 67
q5 25 22.5 95.5t29.5 113.5l205 -62q-40 -155 -44 -174q-1 -4 -1 -12q0 -28 34 -28h225q-5 10 -9.5 36zM593 811h55h110h2h165v-167h-165h-2h-165v167zM679 1007h160v-144h-160v144zM748 273q57 17 57 56q0 21 -18 36.5t-39 15.5q-22 0 -40 -15.5t-18 -36.5q0 -38 58 -56z
" />
    <glyph glyph-name="uni06A4.init" unicode="&#x6a4;" horiz-adv-x="591" arabic-form="initial" 
d="M-5 250h110q-38 24 -57.5 61t-19.5 96q0 118 61.5 183t173.5 65q120 0 185 -70.5t65 -211.5v-71q0 -75 -34 -143.5t-112 -113.5t-202 -45h-170v250zM98 889h55h110h2h165v-167h-165h-2h-165v167zM184 1085h160v-144h-160v144zM256 376l54 -21v55q0 26 -11.5 42.5
t-35.5 16.5t-34.5 -13t-10.5 -33q0 -31 38 -47z" />
    <glyph glyph-name="uni06A4.medi" unicode="&#x6a4;" horiz-adv-x="604" arabic-form="medial" 
d="M-5 250h37h50q-5 10 -9.5 36t-4.5 42q0 72 29 132.5t82.5 96.5t123.5 36q69 0 122 -35.5t82 -96t29 -132.5q0 -14 -3 -42t-8 -37h45h36l15 -125l-15 -125h-62q-48 0 -120 16t-122 41q-57 -27 -126 -42t-117 -15h-64v250zM142 812h55h110h2h165v-167h-165h-2h-165v167z
M228 1008h160v-144h-160v144zM303 273q57 17 57 56q0 21 -18 36.5t-39 15.5q-22 0 -40 -15.5t-18 -36.5q0 -38 58 -56z" />
    <glyph glyph-name="uni0686.fina" unicode="&#x686;" horiz-adv-x="840" arabic-form="final" 
d="M855 115l-10 -115h-25q-198 0 -278 226l-218 -105q-45 -22 -69.5 -54t-24.5 -68q0 -14 5 -31q12 -37 48 -60t94 -23h297v-230h-294q-126 0 -208 61.5t-113 158.5q-17 54 -17 108q0 99 56 185.5t166 140.5l246 120q-54 11 -126 22t-83 11q-28 0 -46 -39l-177 64
q32 100 87 149.5t135 49.5q42 0 110 -21.5t198 -69.5q30 -12 90 -34l17 -252l-38 -18q14 -26 48 -33.5t95 -7.5h25zM326 118h132h2h132v-125h-69v-96h-128v96h-69v125z" />
    <glyph glyph-name="uni0686.init" unicode="&#x686;" horiz-adv-x="704" arabic-form="initial" 
d="M-5 250h141q181 0 301 35q-177 53 -198 53q-28 0 -46 -39l-177 64q32 100 87 149.5t135 49.5q42 0 110 -21.5t198 -69.5q30 -12 90 -34l18 -264q-101 -69 -177.5 -105.5t-155 -52t-185.5 -15.5h-141v250zM184 -77h165h2h165v-167h-165h-2h-110h-55v167zM270 -296h160
v-144h-160v144z" />
    <glyph glyph-name="uni0686.medi" unicode="&#x686;" horiz-adv-x="733" arabic-form="medial" 
d="M533 97q-97 -54 -185.5 -75.5t-211.5 -21.5h-141v250h141q181 0 301 35q-177 53 -198 53q-28 0 -46 -39l-177 64q32 100 87 149.5t135 49.5q42 0 110 -21.5t198 -69.5q30 -12 90 -34l13 -184q30 -3 66 -3h28l10 -125l-10 -125h-22q-115 0 -188 97zM184 -77h165h2h165
v-167h-165h-2h-110h-55v167zM270 -296h160v-144h-160v144z" />
    <glyph glyph-name="uni0688.fina" unicode="&#x688;" horiz-adv-x="698" arabic-form="final" 
d="M503 517l64 -137l2 -4q24 -52 41.5 -78.5t34 -37t37.5 -10.5h21l10 -129l-10 -121h-21q-85 0 -159 63q-73 -63 -181 -63h-51q-76 0 -134.5 22.5t-106.5 57.5l86 197q34 -12 66.5 -19.5t88.5 -7.5h29q44 0 56 7q-13 31 -22 51l-114 236l198 110zM265 853l17 -22l23 35l2 3
v139h81v-65q15 6 34 6q48 0 79 -39t31 -94q0 -53 -31 -89.5t-84 -36.5h-51q-41 0 -66 11t-43.5 31t-55.5 69zM366 790h51q23 0 29 4.5t6 21.5q0 20 -5.5 26.5t-24.5 6.5q-15 0 -25 -7.5t-26 -31.5l-14 -20h9z" />
    <glyph glyph-name="uni0698.fina" unicode="&#x698;" horiz-adv-x="444" arabic-form="final" 
d="M398 388v-113q0 -25 42 -25h9l9 -128l-9 -122h-18q-22 0 -43 6q-25 -120 -108.5 -188t-216.5 -68h-63v250h63q56 0 78.5 6.5t29.5 27.5t7 74v280h220zM68 630h55h110h2h165v-167h-165h-2h-165v167zM154 826h160v-144h-160v144z" />
    <glyph glyph-name="uni0691.fina" unicode="&#x691;" horiz-adv-x="444" arabic-form="final" 
d="M398 388v-113q0 -25 42 -25h9l9 -128l-9 -122h-18q-22 0 -43 6q-25 -120 -108.5 -188t-216.5 -68h-63v250h63q56 0 78.5 6.5t29.5 27.5t7 74v280h220zM168 614l17 -22l23 35l2 3v139h81v-65q15 6 34 6q48 0 79 -39t31 -94q0 -53 -31 -89.5t-84 -36.5h-51q-41 0 -66 11
t-43.5 31t-55.5 69zM269 551h51q23 0 29 4.5t6 21.5q0 20 -5.5 26.5t-24.5 6.5q-15 0 -25 -7.5t-26 -31.5l-14 -20h9z" />
    <glyph glyph-name="uni06A9.fina" unicode="&#x6a9;" horiz-adv-x="958" arabic-form="final" 
d="M169.5 31.5q-56.5 31.5 -88 88t-31.5 130.5q0 33 6 67q12 62 29 123l205 -62q-15 -57 -21 -88q-1 -4 -1 -12q0 -28 34 -28h307l-182 204l36 224l355 156l88 -228l-210 -93l76 -102q53 -70 82 -103t51 -45.5t48 -12.5h10l10 -125l-10 -125h-10q-55 0 -99.5 17.5
t-89.5 56.5q-29 -35 -68.5 -54.5t-87.5 -19.5h-309q-73 0 -129.5 31.5z" />
    <glyph glyph-name="uni06A9.init" unicode="&#x6a9;" horiz-adv-x="497" arabic-form="initial" 
d="M492 606l-210 -93l100 -102q35 -36 52.5 -81t17.5 -93q0 -61 -28 -115.5t-81 -88t-125 -33.5h-223v250h217l-199 204l36 224l355 156z" />
    <glyph glyph-name="uni06A9.medi" unicode="&#x6a9;" horiz-adv-x="544" arabic-form="medial" 
d="M492 606l-210 -93l76 -102q53 -70 82 -103t51 -45.5t48 -12.5h10l10 -125l-10 -125h-10q-55 0 -99.5 17.5t-89.5 56.5q-29 -35 -68.5 -54.5t-87.5 -19.5h-199v250h194l-176 204l36 224l355 156z" />
    <glyph glyph-name="uni06AF.fina" unicode="&#x6af;" horiz-adv-x="951" arabic-form="final" 
d="M907 566l-194 -97l43 -58q53 -70 82 -103t51 -45.5t48 -12.5h18l10 -125l-10 -125h-18q-55 0 -100 17.5t-89 56.5q-29 -35 -68.5 -54.5t-87.5 -19.5h-293q-73 0 -129.5 31.5t-88 88t-31.5 130.5q0 33 6 67q12 62 29 123l205 -62q-15 -57 -21 -88q-1 -4 -1 -12
q0 -28 34 -28h290l-157 162l28 174l366 175zM476 715l290 136l32 -73l-329 -154z" />
    <glyph glyph-name="uni06AF.init" unicode="&#x6af;" horiz-adv-x="514" arabic-form="initial" 
d="M509 566l-194 -95l67 -60q37 -34 56 -78t19 -92q0 -61 -29 -116.5t-83.5 -90t-126.5 -34.5h-223v250h216l-174 162l28 174l366 175zM78 715l290 136l32 -73l-329 -154z" />
    <glyph glyph-name="uni06AF.medi" unicode="&#x6af;" horiz-adv-x="544" arabic-form="medial" 
d="M509 566l-194 -97l43 -58q53 -70 82 -103t51 -45.5t48 -12.5h10v-250h-10q-55 0 -100 17.5t-89 56.5q-29 -35 -68.5 -54.5t-87.5 -19.5h-199v250h199l-157 162l28 174l366 175zM78 715l290 136l32 -73l-329 -154z" />
    <glyph glyph-name="uni06BA.fina" unicode="&#x6ba;" horiz-adv-x="818" arabic-form="final" 
d="M767 5q-18 -118 -99.5 -186.5t-228.5 -68.5h-53q-110 0 -186 46t-113 123.5t-37 172.5q0 66 23.5 141t51.5 129l196 -87q-20 -40 -36.5 -92.5t-16.5 -90.5q0 -48 27 -70t91 -22h53q46 0 70 7t33.5 23t9.5 47v311h220v-113q0 -25 42 -25h9l12 -127l-12 -123h-18
q-18 0 -38 5z" />
    <glyph glyph-name="uni06C1.init" unicode="&#x6c1;" horiz-adv-x="454" arabic-form="initial" 
d="M-4 250h140q33 0 46 11t9 34q-7 46 -20 117l208 53q35 -149 35 -218q0 -62 -26.5 -118.5t-80.5 -92.5t-131 -36h-180v250zM78.5 -229.5q11.5 34.5 38.5 74.5t91 122l89 -76q-13 -17 -47 -57l-21 -26q40 -11 65.5 -44t25.5 -75q0 -35 -17 -64.5t-45.5 -46.5t-62.5 -17
q-54 0 -91 37t-37 91q0 47 11.5 81.5z" />
    <glyph glyph-name="uni06BE.init" unicode="&#x6be;" horiz-adv-x="865" arabic-form="initial" 
d="M-5 250h80q-7 25 -7 57q0 72 28.5 132.5t81.5 96.5t124 36q92 0 157 -63l141 120l160 -218q55 -76 55 -163q0 -42 -13 -79.5t-35 -63.5q-86 -105 -245 -105q-124 0 -233 42q-114 -42 -241 -42h-53v250zM290 256q41 6 55.5 18t14.5 34q0 21 -18 36.5t-40 15.5
q-21 0 -39 -15.5t-18 -36.5q0 -31 45 -52zM538 223q65 0 79 26q2 3 2 11q0 17 -11 31l-88 117q16 -45 16 -100q0 -46 -18 -85h20z" />
    <glyph glyph-name="uni06C7.fina" unicode="&#x6c7;" horiz-adv-x="632" arabic-form="final" 
d="M323.5 -25.5q22.5 4.5 30.5 25.5h-48q-122 0 -189 70t-67 194q0 143 66.5 220.5t189.5 77.5t195.5 -79t77.5 -233h59l14 -130l-14 -120h-62q-9 -81 -49.5 -144t-114 -99.5t-176.5 -36.5h-166v250h166q65 0 87.5 4.5zM217 702q-1 2 -8 18q-7 18 -7 40q0 37 21.5 67
t58.5 42q27 8 49 8q36 0 62 -19t38 -55q6 -18 6 -37q0 -37 -23 -68.5t-65 -46.5l-150 -53l-28 88zM265 249.5q14 -11.5 41 -11.5h53v48q0 27 -13.5 42t-39.5 15t-40.5 -15.5t-14.5 -41.5q0 -25 14 -36.5zM292 727l32 11q34 12 34 31q0 3 -2 9q-7 15 -24 15q-10 0 -25 -6
t-22 -17t-4 -20t11 -23z" />
    <glyph glyph-name="uni06C6.fina" unicode="&#x6c6;" horiz-adv-x="632" arabic-form="final" 
d="M323.5 -25.5q22.5 4.5 30.5 25.5h-48q-122 0 -189 70t-67 194q0 143 66.5 220.5t189.5 77.5t195.5 -79t77.5 -233h59l14 -130l-14 -120h-62q-9 -81 -49.5 -144t-114 -99.5t-176.5 -36.5h-166v250h166q65 0 87.5 4.5zM256 778l54 -86l54 86l78 -62l-74 -117h-115l-75 117z
M265 249.5q14 -11.5 41 -11.5h53v48q0 27 -13.5 42t-39.5 15t-40.5 -15.5t-14.5 -41.5q0 -25 14 -36.5z" />
    <glyph glyph-name="uni06C9.fina" unicode="&#x6c9;" horiz-adv-x="632" arabic-form="final" 
d="M323.5 -25.5q22.5 4.5 30.5 25.5h-48q-122 0 -189 70t-67 194q0 143 66.5 220.5t189.5 77.5t195.5 -79t77.5 -233h59l14 -130l-14 -120h-62q-9 -81 -49.5 -144t-114 -99.5t-176.5 -36.5h-166v250h166q65 0 87.5 4.5zM252 775h115l74 -117l-78 -62l-54 86l-54 -86l-78 62z
M265 249.5q14 -11.5 41 -11.5h53v48q0 27 -13.5 42t-39.5 15t-40.5 -15.5t-14.5 -41.5q0 -25 14 -36.5z" />
    <glyph glyph-name="uni06CC.fina" unicode="&#x6cc;" horiz-adv-x="887" arabic-form="final" 
d="M199.5 -203q-74.5 46 -112 123.5t-37.5 172.5q0 66 23.5 140.5t51.5 128.5l196 -87q-19 -38 -36 -95.5t-17 -96.5q0 -48 26.5 -70.5t87.5 -22.5h207q17 0 27 3t10 13q0 7 -11 10t-26 3h-177v231h480l12 -128l-12 -122h-74q-4 -35 -10 -52q-25 -90 -103 -143.5t-218 -53.5
h-105q-108 0 -182.5 46z" />
    <glyph glyph-name="uni06CC.init" unicode="&#x6cc;" horiz-adv-x="439" arabic-form="initial" 
d="M-5 250h116q33 0 46 11t9 34q-7 46 -20 117l208 53q35 -149 35 -218q0 -62 -26.5 -118.5t-80.5 -92.5t-131 -36h-156v250zM-76 -76h55h110h2h165v-167h-165h-2h-165v167z" />
    <glyph glyph-name="uni06CC.medi" unicode="&#x6cc;" horiz-adv-x="403" arabic-form="medial" 
d="M358 388v-113q0 -15 5 -20t19 -5h26l9 -129l-9 -121h-39q-72 0 -130 43q-62 -43 -129 -43h-115v250h113q19 0 24.5 5t5.5 20v113h220zM-101 -76h55h110h2h165v-167h-165h-2h-165v167z" />
    <glyph glyph-name="uniFDFC" unicode="&#xfdfc;" horiz-adv-x="1828" arabic-form="isolated" 
d="M1788 388v-273q0 -108 -38.5 -188.5t-114 -125t-182.5 -44.5h-35v250h35q56 0 78.5 6.5t29.5 27.5t7 74v273h220zM59 249q19 64 45 117l190 -89q-15 -36 -26.5 -76.5t-11.5 -72.5q0 -48 28 -71t92 -23h29q46 0 70 7t33.5 23t9.5 47v490q0 68 29.5 126.5t85 93.5t128.5 35
h49q71 0 126 -35.5t85 -94t30 -125.5v-326q0 -13 5.5 -19t18.5 -6h74q33 0 46 11t9 34q-7 46 -20 117l208 53q35 -149 35 -218q0 -62 -26.5 -118.5t-80.5 -92.5t-131 -36h-104q-84 0 -141 36.5t-85 97.5t-28 135v313q0 12 -4.5 18t-16.5 6h-49q-13 0 -18 -6t-5 -17v-472
q0 -148 -82 -237.5t-251 -89.5h-29q-110 0 -186 46t-113 123.5t-37 172.5q0 59 19 123zM982 -76h165h2h165v-167h-55h-110h-2h-165v167z" />
    <glyph glyph-name="uni0622.fina" unicode="&#x622;" horiz-adv-x="349" arabic-form="final" 
d="M163 36.5q-57 36.5 -85 97.5t-28 135v329h220v-323q0 -13 5.5 -19t18.5 -6h60l10 -129l-10 -121h-50q-84 0 -141 36.5zM-22.5 791.5q47.5 38.5 128.5 38.5h214v-170h-214q-34 0 -52.5 -7.5t-32.5 -31.5l-121 61q30 71 77.5 109.5z" />
    <glyph glyph-name="uni0623.fina" unicode="&#x623;" horiz-adv-x="349" arabic-form="final" 
d="M163 36.5q-57 36.5 -85 97.5t-28 135v329h220v-323q0 -13 5.5 -19t18.5 -6h60l10 -129l-10 -121h-50q-84 0 -141 36.5zM78 737q-22 29 -22 75q0 49 34.5 85t87.5 36q20 0 70 -10l-16 -92q-40 7 -57 7t-28 -9.5t-11 -22.5q0 -15 13.5 -24.5t35.5 -9.5q11 0 24 3l63 18
l6 -96l-235 -68l-6 96z" />
    <glyph glyph-name="uni0624.fina" unicode="&#x624;" horiz-adv-x="632" arabic-form="final" 
d="M323.5 -25.5q22.5 4.5 30.5 25.5h-48q-122 0 -189 70t-67 194q0 143 66.5 220.5t189.5 77.5t195.5 -79t77.5 -233h59l14 -130l-14 -120h-62q-9 -81 -49.5 -144t-114 -99.5t-176.5 -36.5h-166v250h166q65 0 87.5 4.5zM228 685q-22 29 -22 75q0 49 34.5 85t87.5 36
q20 0 70 -10l-16 -92q-40 7 -57 7t-28 -9.5t-11 -22.5q0 -15 13.5 -24.5t35.5 -9.5q11 0 24 3l63 18l6 -96l-235 -68l-6 96zM265 249.5q14 -11.5 41 -11.5h53v48q0 27 -13.5 42t-39.5 15t-40.5 -15.5t-14.5 -41.5q0 -25 14 -36.5z" />
    <glyph glyph-name="uni0625.fina" unicode="&#x625;" horiz-adv-x="349" arabic-form="final" 
d="M163 36.5q-57 36.5 -85 97.5t-28 135v473h220v-467q0 -13 5.5 -19t18.5 -6h60l10 -119l-10 -131h-50q-84 0 -141 36.5zM62 -193q-22 29 -22 75q0 49 34.5 85t87.5 36q20 0 70 -10l-16 -92q-40 7 -57 7t-28 -9.5t-11 -22.5q0 -15 13.5 -24.5t35.5 -9.5q11 0 24 3l63 18
l6 -96l-235 -68l-6 96z" />
    <glyph glyph-name="uni0626.fina" unicode="&#x626;" horiz-adv-x="887" arabic-form="final" 
d="M199.5 -203q-74.5 46 -112 123.5t-37.5 172.5q0 66 23.5 140.5t51.5 128.5l196 -87q-19 -38 -36 -95.5t-17 -96.5q0 -48 26.5 -70.5t87.5 -22.5h207q17 0 27 3t10 13q0 7 -11 10t-26 3h-177v231h480l12 -128l-12 -122h-74q-4 -35 -10 -52q-25 -90 -103 -143.5t-218 -53.5
h-105q-108 0 -182.5 46zM225 489q-22 29 -22 75q0 49 34.5 85t87.5 36q20 0 70 -10l-16 -92q-40 7 -57 7t-28 -9.5t-11 -22.5q0 -15 13.5 -24.5t35.5 -9.5q11 0 24 3l63 18l6 -96l-235 -68l-6 96z" />
    <glyph glyph-name="uni0626.init" unicode="&#x626;" horiz-adv-x="415" arabic-form="initial" 
d="M-5 250h92q33 0 46 11t9 34q-7 46 -20 117l208 53q35 -149 35 -218q0 -60 -29.5 -117.5t-83.5 -93.5t-125 -36h-132v250zM52 597q-22 29 -22 75q0 49 34.5 85t87.5 36q20 0 70 -10l-16 -92q-40 7 -57 7t-28 -9.5t-11 -22.5q0 -15 13.5 -24.5t35.5 -9.5q11 0 24 3l63 18
l6 -96l-235 -68l-6 96z" />
    <glyph glyph-name="uni0626.medi" unicode="&#x626;" horiz-adv-x="362" arabic-form="medial" 
d="M331 388v-113q0 -15 5 -20t19 -5h12l10 -127l-10 -123h-25q-72 0 -130 43q-62 -43 -129 -43h-88v250h86q19 0 24.5 5t5.5 20v113h220zM62 525q-22 29 -22 75q0 49 34.5 85t87.5 36q20 0 70 -10l-16 -92q-40 7 -57 7t-28 -9.5t-11 -22.5q0 -15 13.5 -24.5t35.5 -9.5
q11 0 24 3l63 18l6 -96l-235 -68l-6 96z" />
    <glyph glyph-name="uni0627.fina" unicode="&#x627;" horiz-adv-x="349" arabic-form="final" 
d="M163 36.5q-57 36.5 -85 97.5t-28 135v473h220v-467q0 -13 5.5 -19t18.5 -6h60l10 -119l-10 -131h-50q-84 0 -141 36.5z" />
    <glyph glyph-name="uni0628.fina" unicode="&#x628;" horiz-adv-x="937" arabic-form="final" 
d="M169.5 31.5q-56.5 31.5 -88 88t-31.5 130.5q0 33 6 67q12 62 29 123l205 -62q-15 -57 -21 -88q-1 -4 -1 -12q0 -28 34 -28h354q19 0 24.5 5t5.5 20v113h220v-113q0 -15 5 -20t19 -5h12l11 -133l-11 -117h-25q-72 0 -130 43q-22 -22 -52 -32.5t-77 -10.5h-359
q-73 0 -129.5 31.5zM399 -94h93q62 0 92 -1v-179h-185v180z" />
    <glyph glyph-name="uni0628.init" unicode="&#x628;" horiz-adv-x="415" arabic-form="initial" 
d="M-5 250h92q33 0 46 11t9 34q-7 46 -20 117l208 53q35 -149 35 -218q0 -60 -29.5 -117.5t-83.5 -93.5t-125 -36h-132v250zM-18 -73h93q62 0 92 -1v-179h-185v180z" />
    <glyph glyph-name="uni0628.medi" unicode="&#x628;" horiz-adv-x="362" arabic-form="medial" 
d="M331 388v-113q0 -15 5 -20t19 -5h12l10 -127l-10 -123h-25q-72 0 -130 43q-62 -43 -129 -43h-88v250h86q19 0 24.5 5t5.5 20v113h220zM-37 -75h93q62 0 92 -1v-179h-185v180z" />
    <glyph glyph-name="uni0629.fina" unicode="&#x629;" horiz-adv-x="679" arabic-form="final" 
d="M580 296q7 -28 24 -37t60 -9h20l10 -125l-10 -125h-20q-54 0 -105.5 17t-93.5 52q-33 -29 -72.5 -44t-81.5 -15q-61 0 -123 33q-61 32 -96 97.5t-35 139.5q0 76 36 134q18 30 37 50.5t56 44.5t102 54l-13 55l214 56zM186 886h55h110h2h165v-167h-165h-2h-165v167z
M265 279q0 -11 6 -21t16 -15q9 -5 21 -5t22 5.5t16 15.5q7 12 7 24q0 3 -4 25l-8 33q-37 -15 -51 -24.5t-19 -17.5q-6 -9 -6 -20z" />
    <glyph glyph-name="uni062A.fina" unicode="&#x62a;" horiz-adv-x="937" arabic-form="final" 
d="M169.5 31.5q-56.5 31.5 -88 88t-31.5 130.5q0 33 6 67q12 62 29 123l205 -62q-15 -57 -21 -88q-1 -4 -1 -12q0 -28 34 -28h354q19 0 24.5 5t5.5 20v113h220v-113q0 -15 5 -20t19 -5h12l11 -133l-11 -117h-25q-72 0 -130 43q-22 -22 -52 -32.5t-77 -10.5h-359
q-73 0 -129.5 31.5zM336 594h55h110h2h165v-167h-165h-2h-165v167z" />
    <glyph glyph-name="uni062A.init" unicode="&#x62a;" horiz-adv-x="439" arabic-form="initial" 
d="M-5 250h116q33 0 46 11t9 34q-7 46 -20 117l208 53q35 -149 35 -218q0 -62 -26.5 -118.5t-80.5 -92.5t-131 -36h-156v250zM11 689h55h110h2h165v-167h-165h-2h-165v167z" />
    <glyph glyph-name="uni062A.medi" unicode="&#x62a;" horiz-adv-x="403" arabic-form="medial" 
d="M358 388v-113q0 -15 5 -20t19 -5h26l9 -129l-9 -121h-39q-72 0 -130 43q-62 -43 -129 -43h-115v250h113q19 0 24.5 5t5.5 20v113h220zM24 638h55h110h2h165v-167h-165h-2h-165v167z" />
    <glyph glyph-name="uni062B.fina" unicode="&#x62b;" horiz-adv-x="937" arabic-form="final" 
d="M169.5 31.5q-56.5 31.5 -88 88t-31.5 130.5q0 33 6 67q12 62 29 123l205 -62q-15 -57 -21 -88q-1 -4 -1 -12q0 -28 34 -28h354q19 0 24.5 5t5.5 20v113h220v-113q0 -15 5 -20t19 -5h12l11 -133l-11 -117h-25q-72 0 -130 43q-22 -22 -52 -32.5t-77 -10.5h-359
q-73 0 -129.5 31.5zM330 582h55h110h2h165v-167h-165h-2h-165v167zM416 778h160v-144h-160v144z" />
    <glyph glyph-name="uni062B.init" unicode="&#x62b;" horiz-adv-x="439" arabic-form="initial" 
d="M-5 250h116q33 0 46 11t9 34q-7 46 -20 117l208 53q35 -149 35 -218q0 -62 -26.5 -118.5t-80.5 -92.5t-131 -36h-156v250zM14 691h55h110h2h165v-167h-165h-2h-165v167zM100 887h160v-144h-160v144z" />
    <glyph glyph-name="uni062B.medi" unicode="&#x62b;" horiz-adv-x="403" arabic-form="medial" 
d="M358 388v-113q0 -15 5 -20t19 -5h26l9 -129l-9 -121h-39q-72 0 -130 43q-62 -43 -129 -43h-115v250h113q19 0 24.5 5t5.5 20v113h220zM23 638h55h110h2h165v-167h-165h-2h-165v167zM109 834h160v-144h-160v144z" />
    <glyph glyph-name="uni062C.fina" unicode="&#x62c;" horiz-adv-x="854" arabic-form="final" 
d="M571 -256h-180q-122 0 -204 48t-120 154q-17 48 -17 96q0 89 54.5 165.5t159.5 117.5l241 95q-55 11 -124 21.5t-80 10.5q-28 0 -46 -39l-177 64q32 100 87 149.5t135 49.5q43 0 127.5 -27.5t222.5 -79.5l92 -34l15 -219l-49 -22q15 -25 45 -34.5t81 -9.5h25l10 -125
l-10 -125h-25q-198 0 -277 225l-247 -111q-57 -26 -57 -68q0 -10 3 -19q8 -24 29 -31.5t56 -7.5h230v-244zM414 157h79q52 0 78 -1v-152h-157v153z" />
    <glyph glyph-name="uni062C.init" unicode="&#x62c;" horiz-adv-x="704" arabic-form="initial" 
d="M-5 250h141q181 0 301 35q-177 53 -198 53q-28 0 -46 -39l-177 64q32 100 87 149.5t135 49.5q42 0 110 -21.5t198 -69.5q30 -12 90 -34l18 -264q-101 -69 -177.5 -105.5t-155 -52t-185.5 -15.5h-141v250zM247 -75h93q62 0 92 -1v-179h-185v180z" />
    <glyph glyph-name="uni062C.medi" unicode="&#x62c;" horiz-adv-x="733" arabic-form="medial" 
d="M533 97q-97 -54 -185.5 -75.5t-211.5 -21.5h-141v250h141q181 0 301 35q-177 53 -198 53q-28 0 -46 -39l-177 64q32 100 87 149.5t135 49.5q42 0 110 -21.5t198 -69.5q30 -12 90 -34l13 -184q30 -3 66 -3h28l10 -125l-10 -125h-22q-115 0 -188 97zM247 -73h93q62 0 92 -1
v-179h-185v180z" />
    <glyph glyph-name="uni062D.fina" unicode="&#x62d;" horiz-adv-x="854" arabic-form="final" 
d="M571 -256h-180q-122 0 -204 48t-120 154q-17 48 -17 96q0 89 54.5 165.5t159.5 117.5l241 95q-55 11 -124 21.5t-80 10.5q-28 0 -46 -39l-177 64q32 100 87 149.5t135 49.5q43 0 127.5 -27.5t222.5 -79.5l92 -34l15 -219l-49 -22q15 -25 45 -34.5t81 -9.5h25l10 -125
l-10 -125h-25q-198 0 -277 225l-247 -111q-57 -26 -57 -68q0 -10 3 -19q8 -24 29 -31.5t56 -7.5h230v-244z" />
    <glyph glyph-name="uni062D.init" unicode="&#x62d;" horiz-adv-x="704" arabic-form="initial" 
d="M-5 250h141q181 0 301 35q-177 53 -198 53q-28 0 -46 -39l-177 64q32 100 87 149.5t135 49.5q42 0 110 -21.5t198 -69.5q30 -12 90 -34l18 -264q-101 -69 -177.5 -105.5t-155 -52t-185.5 -15.5h-141v250z" />
    <glyph glyph-name="uni062D.medi" unicode="&#x62d;" horiz-adv-x="733" arabic-form="medial" 
d="M533 97q-97 -54 -185.5 -75.5t-211.5 -21.5h-141v250h141q181 0 301 35q-177 53 -198 53q-28 0 -46 -39l-177 64q32 100 87 149.5t135 49.5q42 0 110 -21.5t198 -69.5q30 -12 90 -34l13 -184q30 -3 66 -3h28l10 -125l-10 -125h-22q-115 0 -188 97z" />
    <glyph glyph-name="uni062E.fina" unicode="&#x62e;" horiz-adv-x="854" arabic-form="final" 
d="M571 -256h-180q-122 0 -204 48t-120 154q-17 48 -17 96q0 89 54.5 165.5t159.5 117.5l241 95q-55 11 -124 21.5t-80 10.5q-28 0 -46 -39l-177 64q32 100 87 149.5t135 49.5q43 0 127.5 -27.5t222.5 -79.5l92 -34l15 -219l-49 -22q15 -25 45 -34.5t81 -9.5h25l10 -125
l-10 -125h-25q-198 0 -277 225l-247 -111q-57 -26 -57 -68q0 -10 3 -19q8 -24 29 -31.5t56 -7.5h230v-244zM214 919h93q62 0 92 -1v-179h-185v180z" />
    <glyph glyph-name="uni062E.init" unicode="&#x62e;" horiz-adv-x="704" arabic-form="initial" 
d="M-5 250h141q181 0 301 35q-177 53 -198 53q-28 0 -46 -39l-177 64q32 100 87 149.5t135 49.5q42 0 110 -21.5t198 -69.5q30 -12 90 -34l18 -264q-101 -69 -177.5 -105.5t-155 -52t-185.5 -15.5h-141v250zM176 798h93q62 0 92 -1v-179h-185v180z" />
    <glyph glyph-name="uni062E.medi" unicode="&#x62e;" horiz-adv-x="733" arabic-form="medial" 
d="M533 97q-97 -54 -185.5 -75.5t-211.5 -21.5h-141v250h141q181 0 301 35q-177 53 -198 53q-28 0 -46 -39l-177 64q32 100 87 149.5t135 49.5q42 0 110 -21.5t198 -69.5q30 -12 90 -34l13 -184q30 -3 66 -3h28l10 -125l-10 -125h-22q-115 0 -188 97zM177 799h93q62 0 92 -1
v-179h-185v180z" />
    <glyph glyph-name="uni062F.fina" unicode="&#x62f;" horiz-adv-x="698" arabic-form="final" 
d="M503 517l64 -137l2 -4q24 -52 41.5 -78.5t34 -37t37.5 -10.5h21l10 -129l-10 -121h-21q-85 0 -159 63q-73 -63 -181 -63h-51q-76 0 -134.5 22.5t-106.5 57.5l86 197q34 -12 66.5 -19.5t88.5 -7.5h29q44 0 56 7q-13 31 -22 51l-114 236l198 110z" />
    <glyph glyph-name="uni0630.fina" unicode="&#x630;" horiz-adv-x="698" arabic-form="final" 
d="M503 517l64 -137l2 -4q24 -52 41.5 -78.5t34 -37t37.5 -10.5h21l10 -129l-10 -121h-21q-85 0 -159 63q-73 -63 -181 -63h-51q-76 0 -134.5 22.5t-106.5 57.5l86 197q34 -12 66.5 -19.5t88.5 -7.5h29q44 0 56 7q-13 31 -22 51l-114 236l198 110zM287 904h93q62 0 92 -1
v-179h-185v180z" />
    <glyph glyph-name="uni0631.fina" unicode="&#x631;" horiz-adv-x="444" arabic-form="final" 
d="M398 388v-113q0 -25 42 -25h9l9 -128l-9 -122h-18q-22 0 -43 6q-25 -120 -108.5 -188t-216.5 -68h-63v250h63q56 0 78.5 6.5t29.5 27.5t7 74v280h220z" />
    <glyph glyph-name="uni0632.fina" unicode="&#x632;" horiz-adv-x="444" arabic-form="final" 
d="M398 388v-113q0 -25 42 -25h9l9 -128l-9 -122h-18q-22 0 -43 6q-25 -120 -108.5 -188t-216.5 -68h-63v250h63q56 0 78.5 6.5t29.5 27.5t7 74v280h220zM195 688h93q62 0 92 -1v-179h-185v180z" />
    <glyph glyph-name="uni0633.fina" unicode="&#x633;" horiz-adv-x="1379" arabic-form="final" 
d="M284.5 182.5q-16.5 -52.5 -16.5 -90.5q0 -48 27 -70t91 -22h53q46 0 70 7t33.5 23t9.5 47v311h220v-138q0 -9 7 -15t16 -6t16 6t7 15v138h220v-138q0 -9 6 -15t15 -6t15 6t6 15v138h220v-113q0 -14 7 -19.5t23 -5.5h54l10 -125l-10 -125h-53q-95 0 -134 45
q-18 -22 -54.5 -33.5t-83.5 -11.5q-72 0 -131 45q-21 -20 -60.5 -32.5t-72.5 -12.5q-11 0 -29 2q-19 -117 -100 -184.5t-227 -67.5h-53q-110 0 -186 46t-113 123.5t-37 172.5q0 66 23.5 141t51.5 129l196 -87q-20 -40 -36.5 -92.5z" />
    <glyph glyph-name="uni0633.init" unicode="&#x633;" horiz-adv-x="895" arabic-form="initial" 
d="M-5 250h54q16 0 23 5.5t7 19.5v113h220v-138q0 -9 7.5 -15.5t17.5 -6.5t17.5 6.5t7.5 15.5v138h220v-132q0 -12 7.5 -19.5t19.5 -7.5t19.5 9t7.5 27q0 10 -1 16l-20 131l208 53q35 -149 35 -218q0 -62 -26.5 -118.5t-82.5 -92.5t-141 -36q-77 0 -136 45
q-22 -20 -61 -32.5t-74 -12.5q-47 0 -85.5 11.5t-56.5 33.5q-39 -45 -134 -45h-53v250z" />
    <glyph glyph-name="uni0633.medi" unicode="&#x633;" horiz-adv-x="902" arabic-form="medial" 
d="M391 12.5q-39 -12.5 -71 -12.5q-47 0 -83.5 11.5t-54.5 33.5q-39 -45 -134 -45h-53v250h54q16 0 23 5.5t7 19.5v113h220v-138q0 -9 6 -15t15 -6t15 6t6 15v138h220v-138q0 -9 6 -15t15 -6t15 6t6 15v138h220v-113q0 -14 7 -19.5t23 -5.5h54l9 -126l-9 -124h-53
q-95 0 -134 45q-18 -22 -54.5 -33.5t-83.5 -11.5q-72 0 -131 45q-21 -20 -60 -32.5z" />
    <glyph glyph-name="uni0634.fina" unicode="&#x634;" horiz-adv-x="1379" arabic-form="final" 
d="M284.5 182.5q-16.5 -52.5 -16.5 -90.5q0 -48 27 -70t91 -22h53q46 0 70 7t33.5 23t9.5 47v311h220v-138q0 -9 7 -15t16 -6t16 6t7 15v138h220v-138q0 -9 6 -15t15 -6t15 6t6 15v138h220v-113q0 -14 7 -19.5t23 -5.5h54l10 -125l-10 -125h-53q-95 0 -134 45
q-18 -22 -54.5 -33.5t-83.5 -11.5q-72 0 -131 45q-21 -20 -60.5 -32.5t-72.5 -12.5q-11 0 -29 2q-19 -117 -100 -184.5t-227 -67.5h-53q-110 0 -186 46t-113 123.5t-37 172.5q0 66 23.5 141t51.5 129l196 -87q-20 -40 -36.5 -92.5zM752 639h55h110h2h165v-167h-165h-2h-165
v167zM838 835h160v-144h-160v144z" />
    <glyph glyph-name="uni0634.init" unicode="&#x634;" horiz-adv-x="895" arabic-form="initial" 
d="M-5 250h54q16 0 23 5.5t7 19.5v113h220v-138q0 -9 7.5 -15.5t17.5 -6.5t17.5 6.5t7.5 15.5v138h220v-132q0 -12 7.5 -19.5t19.5 -7.5t19.5 9t7.5 27q0 10 -1 16l-20 131l208 53q35 -149 35 -218q0 -62 -26.5 -118.5t-82.5 -92.5t-141 -36q-77 0 -136 45
q-22 -20 -61 -32.5t-74 -12.5q-47 0 -85.5 11.5t-56.5 33.5q-39 -45 -134 -45h-53v250zM294 639h55h110h2h165v-167h-165h-2h-165v167zM380 835h160v-144h-160v144z" />
    <glyph glyph-name="uni0634.medi" unicode="&#x634;" horiz-adv-x="902" arabic-form="medial" 
d="M391 12.5q-39 -12.5 -71 -12.5q-47 0 -83.5 11.5t-54.5 33.5q-39 -45 -134 -45h-53v250h54q16 0 23 5.5t7 19.5v113h220v-138q0 -9 6 -15t15 -6t15 6t6 15v138h220v-138q0 -9 6 -15t15 -6t15 6t6 15v138h220v-113q0 -14 7 -19.5t23 -5.5h54l9 -126l-9 -124h-53
q-95 0 -134 45q-18 -22 -54.5 -33.5t-83.5 -11.5q-72 0 -131 45q-21 -20 -60 -32.5zM290 638h55h110h2h165v-167h-165h-2h-165v167zM376 834h160v-144h-160v144z" />
    <glyph glyph-name="uni0635.fina" unicode="&#x635;" horiz-adv-x="1431" arabic-form="final" 
d="M284.5 182.5q-16.5 -52.5 -16.5 -90.5q0 -48 27 -70t91 -22h53q46 0 70 7t33.5 23t9.5 47v311h220v-138h1l80 130q62 98 117.5 140.5t138.5 42.5q74 0 132.5 -37t91.5 -100.5t33 -140.5q0 -19 -1 -28q26 -7 52 -7h17l14 -129l-14 -121h-17q-103 0 -158 53
q-69 -53 -163 -53h-307q-15 0 -23 1q-19 -116 -100 -183.5t-227 -67.5h-53q-110 0 -186 46t-113 123.5t-37 172.5q0 66 23.5 141t51.5 129l196 -87q-20 -40 -36.5 -92.5zM1105 250q25 0 37 9t12 32q0 19 -12.5 29t-32.5 10q-29 0 -48.5 -13.5t-41.5 -47.5q-4 -5 -12 -19h98z
" />
    <glyph glyph-name="uni0635.init" unicode="&#x635;" horiz-adv-x="977" arabic-form="initial" 
d="M334 250l80 130q62 98 117.5 140.5t138.5 42.5q74 0 132.5 -37t91.5 -100.5t33 -140.5q0 -76 -33 -141.5t-94 -104.5t-143 -39h-307q-73 0 -142 51q-66 -51 -140 -51h-73v250h79q14 0 19 5t5 16v117h220v-117q0 -19 16 -21zM666 250q25 0 37 9t12 32q0 19 -12.5 29
t-32.5 10q-29 0 -48.5 -13.5t-41.5 -47.5q-4 -5 -12 -19h98z" />
    <glyph glyph-name="uni0635.medi" unicode="&#x635;" horiz-adv-x="991" arabic-form="medial" 
d="M335 250l80 130q62 98 117.5 140.5t138.5 42.5q74 0 132.5 -37t91.5 -100.5t33 -140.5q0 -19 -1 -29q23 -6 50 -6h17l14 -129l-14 -121h-17q-103 0 -157 52q-70 -52 -162 -52h-307q-73 0 -142 51q-66 -51 -140 -51h-73v250h79q14 0 19 5t5 16v117h220v-117q0 -19 16 -21z
M667 250q25 0 37 9t12 32q0 19 -12.5 29t-32.5 10q-29 0 -48.5 -13.5t-41.5 -47.5q-4 -5 -12 -19h98z" />
    <glyph glyph-name="uni0636.fina" unicode="&#x636;" horiz-adv-x="1431" arabic-form="final" 
d="M284.5 182.5q-16.5 -52.5 -16.5 -90.5q0 -48 27 -70t91 -22h53q46 0 70 7t33.5 23t9.5 47v311h220v-138h1l80 130q62 98 117.5 140.5t138.5 42.5q74 0 132.5 -37t91.5 -100.5t33 -140.5q0 -19 -1 -28q26 -7 52 -7h17l14 -129l-14 -121h-17q-103 0 -158 53
q-69 -53 -163 -53h-307q-15 0 -23 1q-19 -116 -100 -183.5t-227 -67.5h-53q-110 0 -186 46t-113 123.5t-37 172.5q0 66 23.5 141t51.5 129l196 -87q-20 -40 -36.5 -92.5zM1105 250q25 0 37 9t12 32q0 19 -12.5 29t-32.5 10q-29 0 -48.5 -13.5t-41.5 -47.5q-4 -5 -12 -19h98z
M1014 814h93q62 0 92 -1v-179h-185v180z" />
    <glyph glyph-name="uni0636.init" unicode="&#x636;" horiz-adv-x="977" arabic-form="initial" 
d="M334 250l80 130q62 98 117.5 140.5t138.5 42.5q74 0 132.5 -37t91.5 -100.5t33 -140.5q0 -76 -33 -141.5t-94 -104.5t-143 -39h-307q-73 0 -142 51q-66 -51 -140 -51h-73v250h79q14 0 19 5t5 16v117h220v-117q0 -19 16 -21zM553 799h93q62 0 92 -1v-179h-185v180z
M666 250q25 0 37 9t12 32q0 19 -12.5 29t-32.5 10q-29 0 -48.5 -13.5t-41.5 -47.5q-4 -5 -12 -19h98z" />
    <glyph glyph-name="uni0636.medi" unicode="&#x636;" horiz-adv-x="991" arabic-form="medial" 
d="M335 250l80 130q62 98 117.5 140.5t138.5 42.5q74 0 132.5 -37t91.5 -100.5t33 -140.5q0 -19 -1 -29q23 -6 50 -6h17l14 -129l-14 -121h-17q-103 0 -157 52q-70 -52 -162 -52h-307q-73 0 -142 51q-66 -51 -140 -51h-73v250h79q14 0 19 5t5 16v117h220v-117q0 -19 16 -21z
M553 799h93q62 0 92 -1v-179h-185v180zM667 250q25 0 37 9t12 32q0 19 -12.5 29t-32.5 10q-29 0 -48.5 -13.5t-41.5 -47.5q-4 -5 -12 -19h98z" />
    <glyph glyph-name="uni0637.fina" unicode="&#x637;" horiz-adv-x="814" arabic-form="final" 
d="M50 250h106l1 2v490h220v-206q50 27 115 27q74 0 132.5 -37t91.5 -100.5t33 -140.5q0 -19 -1 -28q26 -7 52 -7h17l14 -129l-14 -121h-17q-103 0 -158 53q-69 -53 -163 -53h-429v250zM488 250q25 0 37 9t12 32q0 19 -12.5 29t-32.5 10q-29 0 -48.5 -13.5t-41.5 -47.5
l-12 -19h98z" />
    <glyph glyph-name="uni0637.init" unicode="&#x637;" horiz-adv-x="744" arabic-form="initial" 
d="M-5 250h106l1 2v490h220v-206q50 27 115 27q74 0 132.5 -37t91.5 -100.5t33 -140.5q0 -76 -33 -141.5t-94 -104.5t-143 -39h-429v250zM433 250q25 0 37 9t12 32q0 19 -12.5 29t-32.5 10q-29 0 -48.5 -13.5t-41.5 -47.5l-12 -19h98z" />
    <glyph glyph-name="uni0637.medi" unicode="&#x637;" horiz-adv-x="756" arabic-form="medial" 
d="M-5 250h106l1 2v490h220v-206q50 27 115 27q74 0 132.5 -37t91.5 -100.5t33 -140.5q0 -20 -1 -29q23 -6 49 -6h17l14 -129l-14 -121h-17q-103 0 -157 52q-68 -52 -161 -52h-429v250zM433 250q25 0 37 9t12 32q0 19 -12.5 29t-32.5 10q-29 0 -48.5 -13.5t-41.5 -47.5
l-12 -19h98z" />
    <glyph glyph-name="uni0638.fina" unicode="&#x638;" horiz-adv-x="814" arabic-form="final" 
d="M50 250h106l1 2v490h220v-206q50 27 115 27q74 0 132.5 -37t91.5 -100.5t33 -140.5q0 -19 -1 -28q26 -7 52 -7h17l14 -129l-14 -121h-17q-103 0 -158 53q-69 -53 -163 -53h-429v250zM488 250q25 0 37 9t12 32q0 19 -12.5 29t-32.5 10q-29 0 -48.5 -13.5t-41.5 -47.5
l-12 -19h98zM449 812h93q62 0 92 -1v-179h-185v180z" />
    <glyph glyph-name="uni0638.init" unicode="&#x638;" horiz-adv-x="744" arabic-form="initial" 
d="M-5 250h106l1 2v490h220v-206q50 27 115 27q74 0 132.5 -37t91.5 -100.5t33 -140.5q0 -76 -33 -141.5t-94 -104.5t-143 -39h-429v250zM433 250q25 0 37 9t12 32q0 19 -12.5 29t-32.5 10q-29 0 -48.5 -13.5t-41.5 -47.5l-12 -19h98zM396 812h93q62 0 92 -1v-179h-185v180z
" />
    <glyph glyph-name="uni0638.medi" unicode="&#x638;" horiz-adv-x="756" arabic-form="medial" 
d="M-5 250h106l1 2v490h220v-206q50 27 115 27q74 0 132.5 -37t91.5 -100.5t33 -140.5q0 -20 -1 -29q23 -6 49 -6h17l14 -129l-14 -121h-17q-103 0 -157 52q-68 -52 -161 -52h-429v250zM433 250q25 0 37 9t12 32q0 19 -12.5 29t-32.5 10q-29 0 -48.5 -13.5t-41.5 -47.5
l-12 -19h98zM397 812h93q62 0 92 -1v-179h-185v180z" />
    <glyph glyph-name="uni0639.fina" unicode="&#x639;" horiz-adv-x="706" arabic-form="final" 
d="M345 124q-8 12 -13 18l-22 -11q-29 -14 -43 -37.5t-14 -47.5q0 -12 3 -21q9 -26 32.5 -39.5t53.5 -13.5h267v-221h-217q-123 0 -205.5 46.5t-119.5 151.5q-17 48 -17 97q0 78 41 149t120 117l-9 13l-70 104l92 193h263q56 0 99 -28t65.5 -72.5t22.5 -92.5q0 -67 -43 -113
l-62 -66h138l12 -125l-12 -125h-112q-161 0 -250 124zM365 400q11 -14 25 -34l28 -40l71 72q6 8 6 16q0 7 -5 12.5t-14 5.5h-134z" />
    <glyph glyph-name="uni0639.init" unicode="&#x639;" horiz-adv-x="595" arabic-form="initial" 
d="M545 0h-550v250h78q-11 39 -11 74q0 71 35.5 132t96 97t131.5 36q53 0 90.5 -15t97.5 -52l32 -20l-100 -190q-50 29 -70.5 38.5t-42.5 9.5q-26 0 -42.5 -14.5t-16.5 -35.5q0 -60 159 -60h113v-250z" />
    <glyph glyph-name="uni0639.medi" unicode="&#x639;" horiz-adv-x="656" arabic-form="medial" 
d="M-5 250h75h65l-78 116l92 193h263q57 0 100 -27t65.5 -70.5t22.5 -91.5q0 -64 -37 -111l-7 -9h58h45l12 -125l-12 -125h-150q-74 0 -167 58q-106 -58 -272 -58h-75v250zM345 248l72 79q6 6 6 15q0 8 -6 13.5t-15 5.5h-135z" />
    <glyph glyph-name="uni063A.fina" unicode="&#x63a;" horiz-adv-x="706" arabic-form="final" 
d="M345 124q-8 12 -13 18l-22 -11q-29 -14 -43 -37.5t-14 -47.5q0 -12 3 -21q9 -26 32.5 -39.5t53.5 -13.5h267v-221h-217q-123 0 -205.5 46.5t-119.5 151.5q-17 48 -17 97q0 78 41 149t120 117l-9 13l-70 104l92 193h263q56 0 99 -28t65.5 -72.5t22.5 -92.5q0 -67 -43 -113
l-62 -66h138l12 -125l-12 -125h-112q-161 0 -250 124zM319 882h93q62 0 92 -1v-179h-185v180zM365 400q11 -14 25 -34l28 -40l71 72q6 8 6 16q0 7 -5 12.5t-14 5.5h-134z" />
    <glyph glyph-name="uni063A.init" unicode="&#x63a;" horiz-adv-x="595" arabic-form="initial" 
d="M545 0h-550v250h78q-11 39 -11 74q0 71 35.5 132t96 97t131.5 36q53 0 90.5 -15t97.5 -52l32 -20l-100 -190q-50 29 -70.5 38.5t-42.5 9.5q-26 0 -42.5 -14.5t-16.5 -35.5q0 -60 159 -60h113v-250zM220 814h93q62 0 92 -1v-179h-185v180z" />
    <glyph glyph-name="uni063A.medi" unicode="&#x63a;" horiz-adv-x="656" arabic-form="medial" 
d="M-5 250h75h65l-78 116l92 193h263q57 0 100 -27t65.5 -70.5t22.5 -91.5q0 -64 -37 -111l-7 -9h58h45l12 -125l-12 -125h-150q-74 0 -167 58q-106 -58 -272 -58h-75v250zM240 799h93q62 0 92 -1v-179h-185v180zM345 248l72 79q6 6 6 15q0 8 -6 13.5t-15 5.5h-135z" />
    <glyph glyph-name="uni0641.fina" unicode="&#x641;" horiz-adv-x="1049" arabic-form="final" 
d="M517.5 286q-4.5 26 -4.5 42q0 72 29 132.5t82.5 96.5t123.5 36q69 0 122 -35.5t82 -96t29 -132.5q0 -14 -3 -42t-8 -37h45h36l15 -125l-15 -125h-62q-48 0 -120 16t-122 41q-48 -23 -88.5 -34t-123 -17t-236.5 -6q-73 0 -129.5 31.5t-88 88t-31.5 130.5q0 33 6 67
q5 25 22.5 95.5t29.5 113.5l205 -62q-40 -155 -44 -174q-1 -4 -1 -12q0 -28 34 -28h225q-5 10 -9.5 36zM655 818h93q62 0 92 -1v-179h-185v180zM748 273q57 17 57 56q0 21 -18 36.5t-39 15.5q-22 0 -40 -15.5t-18 -36.5q0 -38 58 -56z" />
    <glyph glyph-name="uni0641.init" unicode="&#x641;" horiz-adv-x="563" arabic-form="initial" 
d="M-5 250h110q-38 24 -57.5 61t-19.5 96q0 118 61.5 183t173.5 65q120 0 185 -70.5t65 -211.5v-71q0 -75 -34 -143.5t-112 -113.5t-202 -45h-170v250zM166 902h93q62 0 92 -1v-179h-185v180zM256 376l54 -21v55q0 26 -11.5 42.5t-35.5 16.5t-34.5 -13t-10.5 -33
q0 -31 38 -47z" />
    <glyph glyph-name="uni0641.medi" unicode="&#x641;" horiz-adv-x="604" arabic-form="medial" 
d="M-5 250h37h50q-5 10 -9.5 36t-4.5 42q0 72 29 132.5t82.5 96.5t123.5 36q69 0 122 -35.5t82 -96t29 -132.5q0 -14 -3 -42t-8 -37h45h36l15 -125l-15 -125h-62q-48 0 -120 16t-122 41q-57 -27 -126 -42t-117 -15h-64v250zM210 819h93q62 0 92 -1v-179h-185v180zM303 273
q57 17 57 56q0 21 -18 36.5t-39 15.5q-22 0 -40 -15.5t-18 -36.5q0 -38 58 -56z" />
    <glyph glyph-name="uni0642.fina" unicode="&#x642;" horiz-adv-x="954" arabic-form="final" 
d="M277.5 207q-18.5 -51 -18.5 -100q0 -56 31 -96.5t90 -40.5h178q65 0 87.5 4.5t30.5 25.5h-48q-122 0 -189 70t-67 194q0 143 66.5 220.5t189.5 77.5t195.5 -79t77.5 -233h59l14 -130l-14 -120h-62q-9 -81 -49.5 -144t-114 -99.5t-176.5 -36.5h-178q-166 0 -248 100.5
t-82 266.5q0 62 15.5 120.5t31.5 94t39 81.5l180 -87q-20 -38 -38.5 -89zM452 812h55h110h2h165v-167h-165h-2h-165v167zM587 249.5q14 -11.5 41 -11.5h53v48q0 27 -13.5 42t-39.5 15t-40.5 -15.5t-14.5 -41.5q0 -25 14 -36.5z" />
    <glyph glyph-name="uni0642.init" unicode="&#x642;" horiz-adv-x="563" arabic-form="initial" 
d="M-5 250h110q-38 24 -57.5 61t-19.5 96q0 118 61.5 183t173.5 65q120 0 185 -70.5t65 -211.5v-71q0 -75 -34 -143.5t-112 -113.5t-202 -45h-170v250zM95 900h55h110h2h165v-167h-165h-2h-165v167zM256 376l54 -21v55q0 26 -11.5 42.5t-35.5 16.5t-34.5 -13t-10.5 -33
q0 -31 38 -47z" />
    <glyph glyph-name="uni0642.medi" unicode="&#x642;" horiz-adv-x="604" arabic-form="medial" 
d="M-5 250h37h50q-5 10 -9.5 36t-4.5 42q0 72 29 132.5t82.5 96.5t123.5 36q69 0 122 -35.5t82 -96t29 -132.5q0 -14 -3 -42t-8 -37h45h36l15 -125l-15 -125h-62q-48 0 -120 16t-122 41q-57 -27 -126 -42t-117 -15h-64v250zM134 811h55h110h2h165v-167h-165h-2h-165v167z
M303 273q57 17 57 56q0 21 -18 36.5t-39 15.5q-22 0 -40 -15.5t-18 -36.5q0 -38 58 -56z" />
    <glyph glyph-name="uni0643.fina" unicode="&#x643;" horiz-adv-x="958" arabic-form="final" 
d="M169.5 31.5q-56.5 31.5 -88 88t-31.5 130.5q0 33 6 67q12 62 29 123l205 -62q-15 -57 -21 -88q-1 -4 -1 -12q0 -28 34 -28h307l-182 204l36 224l355 156l88 -228l-210 -93l76 -102q53 -70 82 -103t51 -45.5t48 -12.5h10l10 -125l-10 -125h-10q-55 0 -99.5 17.5
t-89.5 56.5q-29 -35 -68.5 -54.5t-87.5 -19.5h-309q-73 0 -129.5 31.5z" />
    <glyph glyph-name="uni0643.init" unicode="&#x643;" horiz-adv-x="497" arabic-form="initial" 
d="M492 606l-210 -93l100 -102q35 -36 52.5 -81t17.5 -93q0 -61 -28 -115.5t-81 -88t-125 -33.5h-223v250h217l-199 204l36 224l355 156z" />
    <glyph glyph-name="uni0643.medi" unicode="&#x643;" horiz-adv-x="544" arabic-form="medial" 
d="M492 606l-210 -93l76 -102q53 -70 82 -103t51 -45.5t48 -12.5h10l10 -125l-10 -125h-10q-55 0 -99.5 17.5t-89.5 56.5q-29 -35 -68.5 -54.5t-87.5 -19.5h-199v250h194l-176 204l36 224l355 156z" />
    <glyph glyph-name="uni0644.fina" unicode="&#x644;" horiz-adv-x="798" arabic-form="final" 
d="M200 -203q-76 46 -113 123.5t-37 172.5q0 60 19 127t45 119l190 -89q-15 -34 -26.5 -79t-11.5 -77q0 -48 28 -71t92 -23h29q46 0 70 7t33.5 23t9.5 47v666h220v-468q0 -25 42 -25h9l12 -127l-12 -123h-18q-18 0 -38 5q-19 -118 -100 -186t-228 -68h-29q-110 0 -186 46z
" />
    <glyph glyph-name="uni0644.init" unicode="&#x644;" horiz-adv-x="344" arabic-form="initial" 
d="M263 129.5q-31 -62.5 -84 -96t-116 -33.5h-68v250h44q14 0 24.5 11t10.5 27v454h220v-467q0 -83 -31 -145.5z" />
    <glyph glyph-name="uni0644.medi" unicode="&#x644;" horiz-adv-x="375" arabic-form="medial" 
d="M-5 250h55q13 0 18.5 6t5.5 19v467h220v-467q0 -13 5.5 -19t18.5 -6h60l10 -119l-10 -131h-50q-82 0 -138 42q-56 -42 -127 -42h-68v250z" />
    <glyph glyph-name="uni0645.fina" unicode="&#x645;" horiz-adv-x="824" arabic-form="final" 
d="M839 125l-10 -125h-12q-81 0 -138 44q-31 -31 -71 -47t-86 -16q-32 0 -72 10.5t-115 34.5l-65 21v-329h-220v451l141 152q18 -6 41 -13l16 51q34 109 97 161.5t162 52.5q72 0 129.5 -42t89.5 -111.5t32 -149.5q1 -8 15 -14t44 -6h12zM514 223q22 0 35.5 12.5t13.5 37.5
q0 29 -14 47.5t-38 18.5q-20 0 -35.5 -14.5t-22.5 -37.5l-13 -46q61 -18 74 -18z" />
    <glyph glyph-name="uni0645.init" unicode="&#x645;" horiz-adv-x="649" arabic-form="initial" 
d="M-5 250h31q15 0 23 4t12 15l28 90q34 109 97 161.5t162 52.5q72 0 129.5 -42t89.5 -111.5t32 -149.5q0 -92 -31.5 -157t-85 -98.5t-119.5 -33.5q-34 0 -76 13.5t-117 45.5q-52 -40 -115 -40h-60v250zM355 223q22 0 35.5 12.5t13.5 37.5q0 29 -14 47.5t-38 18.5
q-20 0 -35 -14.5t-23 -37.5l-13 -42q58 -22 74 -22z" />
    <glyph glyph-name="uni0645.medi" unicode="&#x645;" horiz-adv-x="656" arabic-form="medial" 
d="M-5 250h31q15 0 23 4t12 15l28 90q34 109 97 161.5t162 52.5q72 0 129.5 -42t89.5 -111.5t32 -149.5v-11q14 -9 50 -9h12l10 -125l-10 -125h-12q-77 0 -133 40q-30 -29 -69.5 -44t-83.5 -15q-34 0 -76 13.5t-117 45.5q-52 -40 -115 -40h-60v250zM355 223q22 0 35.5 12.5
t13.5 37.5q0 29 -14 47.5t-38 18.5q-20 0 -35 -14.5t-23 -37.5l-13 -42q58 -22 74 -22z" />
    <glyph glyph-name="uni0646.fina" unicode="&#x646;" horiz-adv-x="818" arabic-form="final" 
d="M767 5q-18 -118 -99.5 -186.5t-228.5 -68.5h-53q-110 0 -186 46t-113 123.5t-37 172.5q0 66 23.5 141t51.5 129l196 -87q-20 -40 -36.5 -92.5t-16.5 -90.5q0 -48 27 -70t91 -22h53q46 0 70 7t33.5 23t9.5 47v311h220v-113q0 -25 42 -25h9l12 -127l-12 -123h-18
q-18 0 -38 5zM341 567h93q62 0 92 -1v-179h-185v180z" />
    <glyph glyph-name="uni0646.init" unicode="&#x646;" horiz-adv-x="415" arabic-form="initial" 
d="M-5 250h92q33 0 46 11t9 34q-7 46 -20 117l208 53q35 -149 35 -218q0 -60 -29.5 -117.5t-83.5 -93.5t-125 -36h-132v250zM52 705h93q62 0 92 -1v-179h-185v180z" />
    <glyph glyph-name="uni0646.medi" unicode="&#x646;" horiz-adv-x="362" arabic-form="medial" 
d="M331 388v-113q0 -15 5 -20t19 -5h12l10 -127l-10 -123h-25q-72 0 -130 43q-62 -43 -129 -43h-88v250h86q19 0 24.5 5t5.5 20v113h220zM128 651h93q62 0 92 -1v-179h-185v180z" />
    <glyph glyph-name="uni0647.fina" unicode="&#x647;" horiz-adv-x="679" arabic-form="final" 
d="M580 296q7 -28 24 -37t60 -9h20l10 -125l-10 -125h-20q-54 0 -105.5 17t-93.5 52q-33 -29 -72.5 -44t-81.5 -15q-61 0 -123 33q-61 32 -96 97.5t-35 139.5q0 76 36 134q18 30 37 50.5t56 44.5t102 54l-13 55l214 56zM265 279q0 -11 6 -21t16 -15q9 -5 21 -5t22 5.5
t16 15.5q7 12 7 24q0 3 -4 25l-8 33q-37 -15 -51 -24.5t-19 -17.5q-6 -9 -6 -20z" />
    <glyph glyph-name="uni0647.init" unicode="&#x647;" horiz-adv-x="865" arabic-form="initial" 
d="M-5 250h80q-7 25 -7 57q0 72 28.5 132.5t81.5 96.5t124 36q92 0 157 -63l141 120l160 -218q55 -76 55 -163q0 -42 -13 -79.5t-35 -63.5q-86 -105 -245 -105q-124 0 -233 42q-114 -42 -241 -42h-53v250zM290 256q41 6 55.5 18t14.5 34q0 21 -18 36.5t-40 15.5
q-21 0 -39 -15.5t-18 -36.5q0 -31 45 -52zM538 223q65 0 79 26q2 3 2 11q0 17 -11 31l-88 117q16 -45 16 -100q0 -46 -18 -85h20z" />
    <glyph glyph-name="uni0647.medi" unicode="&#x647;" horiz-adv-x="625" arabic-form="medial" 
d="M-5 250h25v4q0 99 34 168.5t93.5 105t134.5 35.5q72 0 130 -33t91 -92.5t33 -135.5q0 -29 -4 -53l-1 -7q32 8 65 8h34l10 -125l-10 -125h-22q-27 0 -41.5 -14.5t-14.5 -37.5v-70l-187 -158q-141 0 -230.5 72t-109.5 208h-30v250zM306 258q23 7 29 30q2 10 2 15
q0 22 -15.5 37t-39.5 15q-25 0 -39 -15.5t-14 -41.5v-48q54 1 77 8zM350 -74v64q0 23 4 43q-49 -20 -110 -28q30 -64 106 -79z" />
    <glyph glyph-name="uni0648.fina" unicode="&#x648;" horiz-adv-x="632" arabic-form="final" 
d="M323.5 -25.5q22.5 4.5 30.5 25.5h-48q-122 0 -189 70t-67 194q0 143 66.5 220.5t189.5 77.5t195.5 -79t77.5 -233h59l14 -130l-14 -120h-62q-9 -81 -49.5 -144t-114 -99.5t-176.5 -36.5h-166v250h166q65 0 87.5 4.5zM265 249.5q14 -11.5 41 -11.5h53v48q0 27 -13.5 42
t-39.5 15t-40.5 -15.5t-14.5 -41.5q0 -25 14 -36.5z" />
    <glyph glyph-name="uni0649.fina" unicode="&#x649;" horiz-adv-x="887" arabic-form="final" 
d="M199.5 -203q-74.5 46 -112 123.5t-37.5 172.5q0 66 23.5 140.5t51.5 128.5l196 -87q-19 -38 -36 -95.5t-17 -96.5q0 -48 26.5 -70.5t87.5 -22.5h207q17 0 27 3t10 13q0 7 -11 10t-26 3h-177v231h480l12 -128l-12 -122h-74q-4 -35 -10 -52q-25 -90 -103 -143.5t-218 -53.5
h-105q-108 0 -182.5 46z" />
    <glyph glyph-name="uni064A.fina" unicode="&#x64a;" horiz-adv-x="887" arabic-form="final" 
d="M199.5 -203q-74.5 46 -112 123.5t-37.5 172.5q0 66 23.5 140.5t51.5 128.5l196 -87q-19 -38 -36 -95.5t-17 -96.5q0 -48 26.5 -70.5t87.5 -22.5h207q17 0 27 3t10 13q0 7 -11 10t-26 3h-177v231h480l12 -128l-12 -122h-74q-4 -35 -10 -52q-25 -90 -103 -143.5t-218 -53.5
h-105q-108 0 -182.5 46z" />
    <glyph glyph-name="uni064A.init" unicode="&#x64a;" horiz-adv-x="439" arabic-form="initial" 
d="M-5 250h116q33 0 46 11t9 34q-7 46 -20 117l208 53q35 -149 35 -218q0 -62 -26.5 -118.5t-80.5 -92.5t-131 -36h-156v250zM-76 -76h55h110h2h165v-167h-165h-2h-165v167z" />
    <glyph glyph-name="uni064A.medi" unicode="&#x64a;" horiz-adv-x="403" arabic-form="medial" 
d="M358 388v-113q0 -15 5 -20t19 -5h26l9 -129l-9 -121h-39q-72 0 -130 43q-62 -43 -129 -43h-115v250h113q19 0 24.5 5t5.5 20v113h220zM-101 -76h55h110h2h165v-167h-165h-2h-165v167z" />
    <glyph glyph-name=".notdef" horiz-adv-x="255" 
d="M38 429h179v-433h-179v433zM208 4v417h-161v-417h161z" />
    <glyph glyph-name=".null" 
 />
    <glyph glyph-name="nonmarkingreturn" unicode="&#xd;" horiz-adv-x="255" 
 />
    <glyph glyph-name="space" unicode=" " horiz-adv-x="140" 
 />
    <glyph glyph-name="exclam" unicode="!" horiz-adv-x="383" 
d="M284 279h-186l-29 538h244zM110 186q33 33 84 33t84.5 -33t33.5 -82q0 -51 -33.5 -85.5t-84.5 -34.5t-84 34.5t-33 85.5q0 49 33 82z" />
    <glyph glyph-name="quotedbl" unicode="&#x22;" horiz-adv-x="465" 
d="M432 670l-18 -226h-159v331h177v-105zM52 775h177v-105l-18 -226h-159v331z" />
    <glyph glyph-name="numbersign" unicode="#" horiz-adv-x="589" 
d="M85 155h-63v160h90l13 76h-69v160h96l28 166h138l-28 -166h74l28 166h138l-28 -166h65v-160h-92l-13 -76h71v-160h-98l-27 -160h-138l27 160h-74l-27 -160h-138zM324 315l13 76h-74l-13 -76h74z" />
    <glyph glyph-name="dollar" unicode="$" horiz-adv-x="579" 
d="M61.5 64q-57.5 74 -49.5 189h224q-1 -10 -1 -28q0 -49 14 -68.5t48 -19.5q23 0 34 15t11 35q0 27 -17 49q-13 15 -32.5 25t-54.5 24q-34 13 -55 23q-73 37 -110 87t-37 126q0 86 55.5 145t149.5 75v107h137v-110q96 -22 147 -94.5t44 -177.5h-225l1 25q0 45 -11 63
t-35 18q-20 0 -29.5 -14t-9.5 -34q0 -27 18 -47q14 -15 36 -26.5t56 -25.5q28 -10 47 -20q72 -37 110.5 -88t38.5 -128q0 -86 -53 -144.5t-145 -73.5v-102h-137v102q-112 19 -169.5 93z" />
    <glyph glyph-name="percent" unicode="%" horiz-adv-x="587" 
d="M131 695q62 0 92 -1v-179h-185v180h93zM337 739h216l-291 -767h-214zM366 183h93q62 0 92 -1v-179h-185v180z" />
    <glyph glyph-name="ampersand" unicode="&#x26;" horiz-adv-x="752" 
d="M98.5 456q-13.5 36 -13.5 73q0 63 29.5 112.5t82 77t120.5 27.5q61 0 110.5 -26t77.5 -70.5t28 -99.5q0 -102 -114 -182l-13 -9l58 -67q10 18 14.5 44t3.5 44h188q5 -157 -61 -254l132 -151h-258l-25 29q-76 -39 -173 -39q-78 0 -137.5 28.5t-92.5 80t-33 117.5
q0 52 25.5 94.5t91.5 94.5q-27 40 -40.5 76zM250 148.5q21 -18.5 50 -19.5q20 0 38 9l-94 109q-15 -25 -15 -49q0 -31 21 -49.5zM282.5 506.5q6.5 -15.5 18.5 -29.5l9 6q36 24 36 55q0 18 -10 29.5t-23 11.5q-17 0 -27 -11t-10 -33q0 -13 6.5 -28.5z" />
    <glyph glyph-name="quotesingle" unicode="'" horiz-adv-x="243" 
d="M210 670l-18 -226h-159v331h177v-105z" />
    <glyph glyph-name="parenleft" unicode="(" horiz-adv-x="491" 
d="M312 519q-58 -104 -58 -223q0 -126 56 -225t138 -171l-138 -147q-69 60 -125.5 125t-103.5 172.5t-47 245.5q0 302 276 543l138 -147q-78 -69 -136 -173z" />
    <glyph glyph-name="parenright" unicode=")" horiz-adv-x="491" 
d="M457 296q0 -138 -47 -245.5t-103.5 -172.5t-125.5 -125l-138 147q82 72 138 171t56 225q0 119 -58 223t-136 173l138 147q276 -241 276 -543z" />
    <glyph glyph-name="asterisk" unicode="*" horiz-adv-x="512" 
d="M158 455l-148 41l44 131l147 -60l-11 164h136l-11 -167l142 58l45 -132l-150 -41l101 -122l-115 -78l-85 137l-86 -132l-114 75z" />
    <glyph glyph-name="plus" unicode="+" horiz-adv-x="597" 
d="M406 428h166v-191h-166v-191h-214v191h-167v191h167v186h214v-186z" />
    <glyph glyph-name="comma" unicode="," horiz-adv-x="360" 
d="M83 -75.5q16 41.5 17 77.5v147h190v-127q-2 -67 -42.5 -137t-102.5 -114l-120 47q42 65 58 106.5z" />
    <glyph glyph-name="hyphen" unicode="-" horiz-adv-x="497" 
d="M417 209h-347v191h347v-191z" />
    <glyph glyph-name="period" unicode="." horiz-adv-x="361" 
d="M86.5 31.5q-36.5 38.5 -36.5 95.5q0 54 36.5 90.5t93.5 36.5q56 0 93.5 -36.5t37.5 -90.5q0 -57 -37.5 -95.5t-93.5 -38.5q-57 0 -93.5 38.5z" />
    <glyph glyph-name="slash" unicode="/" horiz-adv-x="433" 
d="M243 711h190l-243 -772h-190z" />
    <glyph glyph-name="zero" unicode="0" horiz-adv-x="588" 
d="M188 52.5q-49 29.5 -78.5 78.5t-29.5 106t29.5 106t78.5 78t105 29q58 0 107.5 -28.5t78.5 -77.5t29 -107q0 -57 -29.5 -106.5t-79 -78.5t-106.5 -29q-56 0 -105 29.5zM260 201.5q15 -15.5 34 -15.5q20 0 34.5 15.5t14.5 35.5t-14.5 35t-34.5 15q-19 0 -34 -15.5
t-15 -34.5q0 -20 15 -35.5z" />
    <glyph glyph-name="one" unicode="1" horiz-adv-x="368" 
d="M304.5 486.5q14.5 -84.5 14.5 -173.5q0 -33 -2 -123l-2 -190h-220l2 190l1 108q0 84 -11 145.5t-47 165.5l208 82q42 -120 56.5 -204.5z" />
    <glyph glyph-name="two" unicode="2" horiz-adv-x="633" 
d="M296 530q5 -14 13 -18.5t26 -4.5q17 0 25 7.5t6 20.5l-18 125l210 34l22 -158q3 -22 3 -43q0 -73 -34 -126.5t-90 -81.5t-120 -28q-14 0 -21 1l-1 -68l-2 -190h-220l2 190l1 108q0 84 -11 145.5t-47 165.5l208 82q30 -85 48 -161z" />
    <glyph glyph-name="three" unicode="3" horiz-adv-x="835" 
d="M295 532q5 -16 12 -23.5t20 -7.5q9 0 14.5 7.5t5.5 20.5q0 8 -1 12l-16 90l201 34l19 -122q4 -25 9.5 -33.5t16.5 -8.5q13 0 19 8.5t4 20.5l-17 110l198 36l21 -135q4 -23 4 -49q0 -68 -29 -121.5t-80.5 -83.5t-116.5 -30q-66 0 -112 44q-57 -44 -130 -44q-13 0 -19 1
l-1 -68l-2 -190h-220l2 190l1 108q0 84 -11 145.5t-47 165.5l208 82q31 -87 47 -159z" />
    <glyph glyph-name="four" unicode="4" horiz-adv-x="829" 
d="M296 527q9 -31 17 -50t22 -31l-1 15q-3 72 30.5 133.5t93 98.5t129.5 37q52 0 88.5 -15t90.5 -49q9 -5 17 -10l16 -10l-96 -185q-50 29 -69.5 38t-41.5 9q-24 0 -39.5 -14.5t-15.5 -34.5q0 -54 134 -58h104l-2 -227h-83v0h-17q-134 1 -217 7t-139 22v-13l-2 -190h-220
l2 190l1 108q0 84 -11 145.5t-47 165.5l208 82q34 -98 48 -164z" />
    <glyph glyph-name="five" unicode="5" horiz-adv-x="696" 
d="M441 198q5 -2 14 -2q13 0 22.5 11t9.5 31q0 45 -40.5 94.5t-120.5 111.5q-58 -56 -87.5 -109.5t-29.5 -93.5q0 -24 9 -35t23 -11t23 9.5t9 29.5q0 10 -1 16l165 21q7 -43 4 -73zM65 387.5q40 87.5 115 163.5l-21 15l126 162q201 -134 293 -263.5t93 -239.5
q1 -70 -25 -123.5t-72 -82.5t-102 -29q-64 0 -112 45q-55 -44 -137 -44q-52 0 -97.5 28t-73 80t-27.5 120q0 81 40 168.5z" />
    <glyph glyph-name="six" unicode="6" horiz-adv-x="670" 
d="M527.5 280.5q-38.5 -36.5 -64.5 -70t-68 -94.5l-47 -67l-68 -96l-183 123l69 96q18 24 48 70q-35 12 -64.5 31.5t-49.5 44.5q-30 35 -45 78t-15 87q0 59 26 112.5t74 89.5q42 31 79.5 41.5t101.5 15.5l38 4l36 -206q-61 -7 -82.5 -12t-40.5 -22q-18 -16 -18 -40
q0 -16 9 -28q11 -15 32 -15q41 0 125 61v-1q45 38 83 66l127 -185q-64 -47 -102.5 -83.5z" />
    <glyph glyph-name="seven" unicode="7" horiz-adv-x="715" 
d="M174.5 281.5q-30.5 84.5 -57.5 136t-87 145.5l186 134q46 -71 68.5 -117t38 -103.5t35.5 -163.5q22 108 38 165t37 102t64 114l188 -130q-61 -95 -87.5 -146.5t-56 -136t-93.5 -294.5h-176q-67 210 -97.5 294.5z" />
    <glyph glyph-name="eight" unicode="8" horiz-adv-x="715" 
d="M540.5 408.5q30.5 -84.5 57.5 -136t87 -145.5l-186 -134q-46 71 -68.5 117t-38 103.5t-35.5 163.5q-22 -108 -38 -165t-37 -102t-64 -114l-188 130q61 95 87.5 146.5t56 136t93.5 294.5h176q67 -210 97.5 -294.5z" />
    <glyph glyph-name="nine" unicode="9" horiz-adv-x="582" 
d="M317.5 71.5q-3.5 38.5 -4.5 121.5h-44q-115 0 -177 63t-62 178q0 134 62 206.5t177 72.5q121 0 185 -78t64 -234q0 -143 1.5 -201.5t6 -95t16.5 -93.5l-212 -34q-9 56 -12.5 94.5zM232 426q11 -10 37 -10h43v39q0 50 -43 50q-23 0 -35.5 -13t-12.5 -34q0 -22 11 -32z" />
    <glyph glyph-name="colon" unicode=":" horiz-adv-x="337" 
d="M76.5 347.5q-36.5 38.5 -36.5 95.5q0 54 36.5 90.5t93.5 36.5q56 0 93.5 -36.5t37.5 -90.5q0 -57 -37.5 -95.5t-93.5 -38.5q-57 0 -93.5 38.5zM76.5 210.5q36.5 36.5 93.5 36.5q56 0 93.5 -36.5t37.5 -90.5q0 -57 -37.5 -95.5t-93.5 -38.5q-57 0 -93.5 38.5t-36.5 95.5
q0 54 36.5 90.5z" />
    <glyph glyph-name="semicolon" unicode=";" horiz-adv-x="348" 
d="M79 -75.5q16 41.5 17 77.5v147h190v-127q-2 -67 -42.5 -137t-102.5 -114l-120 47q42 65 58 106.5zM90.5 519.5q36.5 36.5 93.5 36.5q56 0 93.5 -36.5t37.5 -90.5q0 -57 -37.5 -95.5t-93.5 -38.5q-57 0 -93.5 38.5t-36.5 95.5q0 54 36.5 90.5z" />
    <glyph glyph-name="less" unicode="&#x3c;" horiz-adv-x="516" 
d="M270 299l221 -65v-208l-439 181v182l439 181v-208z" />
    <glyph glyph-name="equal" unicode="=" horiz-adv-x="585" 
d="M545 336h-512v176h512v-176zM33 282h512v-169h-512v169z" />
    <glyph glyph-name="greater" unicode="&#x3e;" horiz-adv-x="513" 
d="M270 299l-221 63v208l439 -181v-182l-439 -181v208z" />
    <glyph glyph-name="question" unicode="?" horiz-adv-x="634" 
d="M238.5 348.5q21.5 42.5 59.5 88.5q19 23 48 71q32 55 32 75q0 70 -59 70q-28 0 -44.5 -21.5t-18.5 -59.5l-206 -2q1 75 33 132t92.5 88t144.5 31q82 0 141.5 -29.5t91 -82.5t31.5 -124q0 -49 -13.5 -88.5t-45.5 -70.5q-35 -33 -61 -62q-26 -28 -37 -51t-11 -63h-199
q0 56 21.5 98.5zM240 175q33 33 84 33t84.5 -33t33.5 -82q0 -51 -33.5 -85.5t-84.5 -34.5t-84 34.5t-33 85.5q0 49 33 82z" />
    <glyph glyph-name="at" unicode="@" horiz-adv-x="949" 
d="M91 496q58 113 164 184.5t244 71.5q128 0 222 -50.5t144.5 -148t50.5 -234.5q0 -92 -31 -164.5t-88 -114t-133 -41.5q-28 0 -61 10.5t-58 35.5q-51 -45 -127 -45q-39 0 -78 19.5t-66.5 67t-27.5 125.5q0 24 1 36q5 68 37 136t90.5 112.5t137.5 44.5q65 0 115.5 -22
t69.5 -49l-26 -261q-2 -28 -2 -36q0 -21 4.5 -30.5t15.5 -9.5q31 0 50.5 42.5t19.5 136.5q0 300 -260 300q-85 0 -153 -48.5t-106.5 -130t-38.5 -176.5q0 -164 60.5 -243.5t206.5 -83.5q37 -1 86.5 10.5t96.5 37.5l29 -133q-33 -25 -93.5 -41.5t-120.5 -16.5
q-231 0 -332 134.5t-101 341.5q0 120 58 233zM427 208q0 -36 8 -51t28 -15q16 0 39 24q0 21 1 33l17 201q-5 4 -14 4q-6 0 -14 -3q-23 -9 -41 -49t-23 -108q-1 -14 -1 -36z" />
    <glyph glyph-name="A" unicode="A" horiz-adv-x="801" 
d="M291 823h217l293 -823h-272l-41 131h-175l-41 -131h-272zM460 326l-59 222l-58 -222h117z" />
    <glyph glyph-name="B" unicode="B" horiz-adv-x="804" 
d="M83 823h339q158 0 247.5 -66t89.5 -188q0 -49 -9.5 -83.5t-37.5 -60.5q62 -62 62 -158q0 -129 -84 -198t-235 -69h-372v823zM410 196q37 0 58 16.5t21 48.5q0 71 -79 71h-67v-136h67zM410 495q37 0 58 16.5t21 48.5q0 71 -79 71h-67v-136h67z" />
    <glyph glyph-name="C" unicode="C" horiz-adv-x="748" 
d="M195 34q-79 49 -122 141.5t-43 218.5v36q0 76 21.5 164.5t99 164.5t228.5 77q104 0 183 -50.5t122 -137t43 -188.5h-269q0 61 -5.5 96.5t-22 55t-50.5 19.5q-32 0 -47.5 -20.5t-21 -60t-5.5 -109.5v-50q0 -75 4.5 -114.5t20.5 -60t49 -20.5t50 19t22 52t5 89h268
q1 -102 -40 -186.5t-120 -134.5t-186 -50q-105 0 -184 49z" />
    <glyph glyph-name="D" unicode="D" horiz-adv-x="789" 
d="M87 823h261q111 0 198.5 -51.5t137 -141.5t49.5 -201v-33q0 -120 -47.5 -209.5t-134 -138t-198.5 -48.5h-266v823zM361 196q37 0 59.5 15t35 60t12.5 133v23q0 90 -12 134t-34.5 57t-60.5 13h-14v-435h14z" />
    <glyph glyph-name="E" unicode="E" horiz-adv-x="664" 
d="M50 823h584v-204h-319v-107h270v-183h-270v-125h318v-204h-583v823z" />
    <glyph glyph-name="F" unicode="F" horiz-adv-x="642" 
d="M50 823h569v-204h-304v-155h276v-198h-276v-266h-265v823z" />
    <glyph glyph-name="G" unicode="G" horiz-adv-x="747" 
d="M196 35q-79 48 -121 134t-44 199l-1 62q-2 107 35 200t116.5 150.5t198.5 57.5q118 0 195.5 -45.5t114.5 -123t37 -177.5l-271 -1q0 72 -17.5 106t-58.5 34q-84 0 -84 -111v-206q0 -63 21 -90.5t63 -27.5q24 0 43.5 7.5t31.5 18.5v56h-74v140h341v-283
q-21 -32 -68.5 -66.5t-118 -58t-153.5 -23.5q-107 0 -186 48z" />
    <glyph glyph-name="H" unicode="H" horiz-adv-x="794" 
d="M50 823h266v-307h163v307h265v-823h-265v318h-163v-318h-266v823z" />
    <glyph glyph-name="I" unicode="I" horiz-adv-x="411" 
d="M73 823h265v-823h-265v823z" />
    <glyph glyph-name="J" unicode="J" horiz-adv-x="727" 
d="M18 336h266q0 -58 4.5 -87t18.5 -41.5t42 -12.5q24 0 36 13t17 42.5t5 86.5v486h270v-538q0 -145 -88 -222.5t-242 -77.5q-329 0 -329 351z" />
    <glyph glyph-name="K" unicode="K" horiz-adv-x="827" 
d="M76 823h265v-262l44 69l124 193h286l-267 -379l263 -444h-285l-133 235l-32 -46v-189h-265v823z" />
    <glyph glyph-name="L" unicode="L" horiz-adv-x="659" 
d="M65 823h261v-619h298v-204h-559v823z" />
    <glyph glyph-name="M" unicode="M" horiz-adv-x="1026" 
d="M65 823h339l110 -380l108 380h339v-823h-249v460l-121 -460h-157l-121 462v-462h-248v823z" />
    <glyph glyph-name="N" unicode="N" horiz-adv-x="783" 
d="M50 823h238l185 -300v300h260v-823h-237l-185 300v-300h-261v823z" />
    <glyph glyph-name="O" unicode="O" horiz-adv-x="757" 
d="M192 38q-79 52 -120.5 145t-41.5 214v29q0 122 38.5 214.5t117 144.5t193.5 52q109 0 187.5 -52.5t119.5 -145.5t41 -213v-29q0 -121 -41 -214t-119 -145t-187 -52t-188 52zM320.5 231.5q17.5 -35.5 59.5 -35.5q40 0 57.5 36t17.5 112v136q0 80 -17.5 115.5t-58.5 35.5
q-42 0 -59 -35.5t-17 -115.5v-136q0 -77 17.5 -112.5z" />
    <glyph glyph-name="P" unicode="P" horiz-adv-x="731" 
d="M50 823h325q99 0 175.5 -39t118.5 -107t42 -151q0 -86 -42 -150.5t-119 -99.5t-178 -35h-57v-241h-265v823zM372 459q33 0 50.5 24.5t17.5 55.5t-18.5 55.5t-52.5 24.5h-54v-160h57z" />
    <glyph glyph-name="Q" unicode="Q" horiz-adv-x="760" 
d="M380 -14q-109 0 -188 52t-120.5 145t-41.5 214v29q0 122 38.5 214.5t117 144.5t193.5 52q109 0 187.5 -52.5t119.5 -145.5t41 -213v-29q0 -156 -66 -262l84 -84l-191 -165l-107 106q-31 -6 -67 -6zM320.5 231.5q17.5 -35.5 59.5 -35.5q40 0 57.5 36t17.5 112v136
q0 80 -17.5 115.5t-58.5 35.5q-42 0 -59 -35.5t-17 -115.5v-136q0 -77 17.5 -112.5z" />
    <glyph glyph-name="R" unicode="R" horiz-adv-x="757" 
d="M50 823h340q85 0 159 -36.5t118 -104t44 -156.5q0 -68 -27.5 -124t-79.5 -95l123 -297v-10h-255l-105 243h-52v-243h-265v823zM372 459q33 0 50.5 24.5t17.5 55.5t-18.5 55.5t-52.5 24.5h-54v-160h57z" />
    <glyph glyph-name="S" unicode="S" horiz-adv-x="753" 
d="M130 54q-85 68 -85 225l268 5q0 -40 13 -64t50 -24q29 0 42 10t13 31q0 27 -31 43q-26 14 -104 46q-59 25 -83 37q-83 41 -117 88.5t-34 125.5q0 80 37 139t106.5 90t164.5 31q99 0 174.5 -33.5t118.5 -102t43 -168.5h-269q1 40 -14 69t-53 29q-25 0 -38.5 -12t-13.5 -30
q0 -15 10 -27t25 -20q33 -18 105 -50q57 -24 82 -37q83 -41 116 -86.5t33 -122.5q0 -135 -83 -197.5t-233 -62.5q-158 0 -243 68z" />
    <glyph glyph-name="T" unicode="T" horiz-adv-x="734" 
d="M234 619h-209v204h684v-204h-214v-619h-261v619z" />
    <glyph glyph-name="U" unicode="U" horiz-adv-x="750" 
d="M130 68q-85 83 -85 226v529h267v-523q0 -35 3.5 -55.5t17 -34.5t42.5 -14q30 0 43.5 13.5t16.5 34t3 56.5v523h267v-529q0 -144 -84 -226.5t-246 -82.5q-160 0 -245 83z" />
    <glyph glyph-name="V" unicode="V" horiz-adv-x="751" 
d="M5 823h275l64 -329l32 -185l32 185l63 329h275l-259 -823h-223z" />
    <glyph glyph-name="W" unicode="W" horiz-adv-x="994" 
d="M5 823h285l21 -305l20 -147l23 147l27 305h231l27 -305l23 -148l19 148l24 305h284l-176 -823h-261l-35 241l-20 108l-20 -108l-35 -241h-260z" />
    <glyph glyph-name="X" unicode="X" horiz-adv-x="774" 
d="M215 413l-213 410h305l80 -220l79 220h306l-212 -410l212 -413h-303l-82 220l-83 -220h-302z" />
    <glyph glyph-name="Y" unicode="Y" horiz-adv-x="762" 
d="M248 301l-234 522h276l91 -293l91 293h275l-234 -522v-301h-265v301z" />
    <glyph glyph-name="Z" unicode="Z" horiz-adv-x="696" 
d="M27 173l302 446h-304v204h643v-171l-309 -448h312v-204h-644v173z" />
    <glyph glyph-name="bracketleft" unicode="[" horiz-adv-x="334" 
d="M312 688h-57v-714h57v-169h-292v1053h292v-170z" />
    <glyph glyph-name="backslash" unicode="\" horiz-adv-x="433" 
d="M243 -61l-243 772h190l243 -772h-190z" />
    <glyph glyph-name="bracketright" unicode="]" horiz-adv-x="336" 
d="M314 858v-1053h-292v169h57v714h-57v170h292z" />
    <glyph glyph-name="asciicircum" unicode="^" horiz-adv-x="547" 
d="M273 531l-60 -188h-198l172 373h173l172 -373h-198z" />
    <glyph glyph-name="underscore" unicode="_" horiz-adv-x="529" 
d="M529 -185h-529v185h529v-185z" />
    <glyph glyph-name="a" unicode="a" horiz-adv-x="611" 
d="M116.5 11.5q-43.5 21.5 -70 62.5t-26.5 96q0 54 31 101t92.5 75.5t147.5 28.5h41v16q0 55 -38 55q-42 0 -42 -48h-229q0 60 32.5 114t95.5 87.5t148 33.5q80 0 141.5 -32t95 -90t33.5 -136v-205q0 -120 22 -156v-14h-197q-8 8 -14.5 23.5t-9.5 31.5q-23 -30 -69.5 -47.5
t-90.5 -17.5q-50 0 -93.5 21.5zM249.5 165q11.5 -15 32.5 -15q17 0 31.5 8.5t22.5 20.5v80h-35q-25 0 -44 -18.5t-19 -41.5q0 -19 11.5 -34z" />
    <glyph glyph-name="b" unicode="b" horiz-adv-x="655" 
d="M330.5 8.5q-24.5 11.5 -37.5 27.5l-3 -36h-240v843h250v-239q14 11 37 19t51 8q73 0 127 -42.5t82 -115.5t28 -162v-8q0 -85 -28 -154.5t-81.5 -110.5t-126.5 -41q-34 0 -58.5 11.5zM335 190q37 0 37 121q0 125 -38 125q-19 0 -34 -12v-222q15 -12 35 -12z" />
    <glyph glyph-name="c" unicode="c" horiz-adv-x="621" 
d="M165.5 31q-67.5 39 -104 111.5t-36.5 171.5v7q0 87 33 158t100 112.5t164 41.5q133 0 202 -75.5t69 -212.5h-241q0 50 -7 70.5t-27 20.5q-16 0 -24 -9.5t-11.5 -34.5t-3.5 -75v-9q0 -50 3.5 -74.5t11.5 -34t24 -9.5q20 0 27 20t7 71h240q0 -141 -68.5 -215t-200.5 -74
q-90 0 -157.5 39z" />
    <glyph glyph-name="d" unicode="d" horiz-adv-x="670" 
d="M93.5 77.5q-63.5 81.5 -63.5 236.5q0 152 61 235.5t180 83.5q27 0 48.5 -8t35.5 -19v237h250v-843h-223l-1 34q-16 -16 -43 -27t-61 -11q-120 0 -183.5 81.5zM320 190q20 0 35 12v222q-15 12 -34 12q-18 0 -28 -30t-10 -89v-13q0 -114 37 -114z" />
    <glyph glyph-name="e" unicode="e" horiz-adv-x="667" 
d="M185 32.5q-73 38.5 -114 110t-41 166.5v14q0 92 40 163.5t112.5 111.5t168.5 40q83 0 152 -41.5t108 -115.5t36 -169l-2 -56h-389v-3q0 -27 28.5 -48.5t76.5 -21.5q41 0 77 17t54 32l108 -139q-45 -45 -108 -72t-138 -27q-96 0 -169 38.5zM433 397v4q0 30 -25 49.5
t-57 19.5t-57 -20.5t-25 -52.5h164z" />
    <glyph glyph-name="f" unicode="f" horiz-adv-x="458" 
d="M83 391h-77v192h77v27q0 244 252 244q63 0 117 -17l1 -170q-16 5 -28 7.5t-32 2.5q-32 0 -50.5 -20.5t-18.5 -50.5v-23h117v-192h-93v-391h-265v391z" />
    <glyph glyph-name="g" unicode="g" horiz-adv-x="654" 
d="M43 -164l104 150q35 -23 68.5 -35t70.5 -12q30 0 49.5 19.5t19.5 57.5v10q-14 -11 -37 -18.5t-51 -7.5q-66 0 -120 41.5t-85.5 113.5t-31.5 159v8q0 83 32 154.5t86 114t118 42.5q32 0 57 -13t39 -31l3 36h239v-625q0 -76 -40 -135.5t-108 -92.5t-149 -33q-149 0 -264 97
zM321 189q19 0 34 12v222q-15 12 -35 12q-37 0 -37 -120q0 -126 38 -126z" />
    <glyph glyph-name="h" unicode="h" horiz-adv-x="672" 
d="M50 843h250v-256q18 22 48 34t65 12q54 0 101.5 -27t77.5 -84.5t30 -143.5v-378h-250v392q0 22 -10 33t-25 11q-21 0 -37 -21v-415h-250v843z" />
    <glyph glyph-name="i" unicode="i" horiz-adv-x="365" 
d="M50 618h265v-618h-265v618zM82.5 835q37.5 32 99.5 32t100 -32t38 -78t-38 -77t-100 -31q-63 0 -100 31t-37 78q0 45 37.5 77z" />
    <glyph glyph-name="j" unicode="j" horiz-adv-x="400" 
d="M-50 -211l12 216q43 -7 69 -7q53 0 53 49v572h265v-604q0 -130 -76 -187t-187 -58q-70 0 -136 19zM122.5 834q37.5 33 99.5 33t100 -33t38 -80q0 -48 -38 -80t-100 -32q-63 0 -100 32t-37 81q0 46 37.5 79z" />
    <glyph glyph-name="k" unicode="k" horiz-adv-x="696" 
d="M50 843h250v-298l17 20l50 60h324l-226 -268l226 -357h-256l-113 207l-22 -27v-180h-250v843z" />
    <glyph glyph-name="l" unicode="l" horiz-adv-x="365" 
d="M50 843h265v-843h-265v843z" />
    <glyph glyph-name="m" unicode="m" horiz-adv-x="1019" 
d="M40 625h252l4 -48q19 23 55 39.5t71 16.5q48 0 90.5 -17.5t73.5 -53.5q22 28 63 49.5t96 21.5q65 0 118 -26.5t84.5 -82.5t31.5 -141v-383h-265v392q0 22 -10 33t-25 11q-12 0 -21 -6q-16 -11 -16 -23v-407h-265v392q0 22 -10 33t-25 11q-11 0 -20 -6q-10 -7 -17 -15
v-415h-265v625z" />
    <glyph glyph-name="n" unicode="n" horiz-adv-x="687" 
d="M40 625h252l4 -45q19 23 54.5 38t71.5 15q54 0 104.5 -26.5t83 -82.5t32.5 -141v-383h-265v392q0 22 -10 33t-25 11q-21 0 -37 -21v-415h-265v625z" />
    <glyph glyph-name="o" unicode="o" horiz-adv-x="660" 
d="M168 35q-69 40 -105.5 110.5t-36.5 160.5v14q0 91 36.5 162t105 111t162.5 40t163 -40t105.5 -111t36.5 -162v-14q0 -89 -36.5 -160t-105.5 -111t-162 -40q-94 0 -163 40zM298 213q8 -23 33 -23q24 0 32 23.5t8 85.5v28q0 62 -8.5 85.5t-32.5 23.5q-23 0 -31.5 -23
t-8.5 -86v-28q0 -63 8 -86z" />
    <glyph glyph-name="p" unicode="p" horiz-adv-x="655" 
d="M50 625h240l3 -36q13 18 37.5 31t58.5 13q73 0 126.5 -42t81.5 -113t28 -156v-8q0 -89 -28 -162t-82 -115.5t-127 -42.5q-28 0 -51 8t-37 19v-211h-250v815zM334 189q18 0 28 30t10 89v13q0 114 -37 114q-20 0 -35 -12v-222q15 -12 34 -12z" />
    <glyph glyph-name="q" unicode="q" horiz-adv-x="655" 
d="M318 2q-23 -8 -51 -8q-73 0 -127 42.5t-82 115t-28 162.5v8q0 85 28 156t81.5 113t126.5 42q34 0 58.5 -13t37.5 -31l3 36h240v-815h-250v211q-14 -11 -37 -19zM321 189q19 0 34 12v222q-15 12 -35 12q-37 0 -37 -114v-13q0 -119 38 -119z" />
    <glyph glyph-name="r" unicode="r" horiz-adv-x="501" 
d="M45 625h252l4 -59q19 28 55 47.5t71 19.5q37 0 64 -11l-8 -190q-17 4 -56 4q-42 0 -73.5 -14.5t-43.5 -39.5v-382h-265v625z" />
    <glyph glyph-name="s" unicode="s" horiz-adv-x="603" 
d="M95.5 51.5q-78.5 57.5 -78.5 184.5l219 -15q0 -50 58 -50q43 0 43 28q0 12 -23 24.5t-68 22.5q-78 17 -123.5 35t-71 50t-25.5 85q0 63 35.5 112.5t97 77t138.5 27.5q126 0 198 -63t72 -171l-218 10q0 53 -52 53q-16 0 -29 -10.5t-13 -22.5q0 -20 26 -30.5t79 -21.5
q9 -2 28.5 -6.5t32.5 -8.5q77 -23 114.5 -58.5t37.5 -96.5q0 -63 -36.5 -111.5t-100 -75t-142.5 -26.5q-120 0 -198.5 57.5z" />
    <glyph glyph-name="t" unicode="t" horiz-adv-x="443" 
d="M128.5 42.5q-55.5 54.5 -55.5 157.5v235h-67v190h67v132h265v-132h87v-190h-87l1 -192q0 -28 13 -36.5t42 -8.5q21 0 39 6l-1 -186q-30 -14 -67.5 -22t-75.5 -8q-105 0 -160.5 54.5z" />
    <glyph glyph-name="u" unicode="u" horiz-adv-x="686" 
d="M155.5 17q-50.5 27 -83 83.5t-32.5 141.5v383h265v-391q0 -22 10 -33t25 -11q21 0 37 21v414h265v-625h-252l-4 46q-19 -23 -55 -39.5t-71 -16.5q-54 0 -104.5 27z" />
    <glyph glyph-name="v" unicode="v" horiz-adv-x="655" 
d="M2 625h255l70 -385l71 385h255l-206 -625h-240z" />
    <glyph glyph-name="w" unicode="w" horiz-adv-x="852" 
d="M11 625h234l40 -238l10 -87l34 325h191l34 -325l10 87l40 238h235l-147 -625h-217l-37 206l-13 73l-13 -73l-37 -206h-217z" />
    <glyph glyph-name="x" unicode="x" horiz-adv-x="666" 
d="M168 315l-156 310h273l49 -169l51 169h270l-156 -310l162 -315h-270l-58 177l-57 -177h-271z" />
    <glyph glyph-name="y" unicode="y" horiz-adv-x="674" 
d="M122 -225.5q-35 4.5 -59 14.5l13 216q26 -2 34 -2q38 2 68.5 18.5t41.5 48.5l8 22l-223 533h258l70 -306l5 27l57 279h275l-225 -677q-19 -58 -60.5 -98t-93 -60t-102.5 -20q-32 0 -67 4.5z" />
    <glyph glyph-name="z" unicode="z" horiz-adv-x="615" 
d="M32 159l201 261h-191v205h534v-156l-207 -265h212v-204h-549v159z" />
    <glyph glyph-name="braceleft" unicode="{" horiz-adv-x="352" 
d="M64 51v97q0 42 -11.5 56.5t-42.5 14.5v166q31 0 42.5 15t11.5 57v102q0 102 58.5 165t175.5 89l44 -121q-30 -14 -48 -41t-18 -88v-106q0 -49 -25 -92.5t-67 -62.5q42 -18 67 -62t25 -93v-105q0 -56 16.5 -86.5t48.5 -48.5l-43 -115q-234 49 -234 259z" />
    <glyph glyph-name="bar" unicode="|" horiz-adv-x="279" 
d="M199 -132h-115v843h115v-843z" />
    <glyph glyph-name="braceright" unicode="}" horiz-adv-x="352" 
d="M59.5 -44.5q16.5 30.5 16.5 86.5v105q0 49 25 93t67 62q-42 19 -67 62.5t-25 92.5v106q0 61 -18 88t-48 41l44 121q117 -26 175.5 -89t58.5 -165v-102q0 -42 11.5 -57t42.5 -15v-166q-31 0 -42.5 -14.5t-11.5 -56.5v-97q0 -210 -234 -259l-43 115q32 18 48.5 48.5z" />
    <glyph glyph-name="asciitilde" unicode="~" horiz-adv-x="686" 
d="M642 389q0 -70 -24 -123t-68 -82.5t-101 -29.5q-48 0 -79 17q-22 12 -50 44q-19 21 -32 31t-28 10q-40 0 -40 -59q0 -16 1 -25l-176 3l-1 25q0 106 52 169.5t140 63.5q48 0 81 -17q24 -13 54 -47q19 -20 30 -28.5t24 -8.5q17 0 29.5 21.5t9.5 62.5l177 -1q1 -9 1 -26z
" />
    <glyph glyph-name="uni00A0" unicode="&#xa0;" horiz-adv-x="40" 
 />
    <glyph glyph-name="brokenbar" unicode="&#xa6;" horiz-adv-x="294" 
d="M58 -132v388h181v-388h-181zM58 711h181v-370h-181v370z" />
    <glyph glyph-name="copyright" unicode="&#xa9;" horiz-adv-x="807" 
d="M209 18q-87 53 -137 142.5t-50 195.5q0 128 53 216t139.5 131t188.5 43q106 0 193 -47.5t138 -136t51 -206.5q0 -108 -51.5 -197.5t-139 -141.5t-191.5 -52q-107 0 -194 53zM184 212.5q33 -63.5 90.5 -100t128.5 -36.5t128.5 36t90.5 100t33 144q0 83 -32 146t-89.5 98
t-130.5 35q-110 0 -181 -63.5t-71 -217.5q0 -78 33 -141.5zM196 385q0 62 25.5 110.5t72 76t107.5 27.5q99 0 148.5 -50t49.5 -154h-142q0 51 -10.5 69.5t-45.5 18.5q-30 0 -44.5 -23t-14.5 -73v-60q0 -52 14.5 -75t44.5 -23q36 0 46 18.5t10 68.5h142q0 -104 -49.5 -153.5
t-148.5 -49.5q-60 0 -106.5 26t-72.5 75.5t-26 115.5v55z" />
    <glyph glyph-name="guillemotleft" unicode="&#xab;" horiz-adv-x="564" 
d="M531 57l-107 -87q-41 41 -66 73t-42 74.5t-17 96.5q0 78 33 136.5t92 117.5l107 -97q-64 -77 -64 -159q0 -78 64 -155zM44 345q22 56 55.5 99t83.5 93l120 -125q-47 -57 -69.5 -103.5t-22.5 -89.5q0 -48 24.5 -102t70.5 -106l-123 -110q-50 50 -83.5 93t-55.5 99.5
t-22 125.5q0 70 22 126z" />
    <glyph glyph-name="logicalnot" unicode="&#xac;" horiz-adv-x="571" 
d="M491 158h-158v127h-272v133h430v-260z" />
    <glyph glyph-name="registered" unicode="&#xae;" horiz-adv-x="821" 
d="M361 309v-158h-110l-1 423h167q80 0 117 -33t37 -103q0 -26 -15 -49t-39 -31q23 -9 38 -40t15 -67t1.5 -53.5t6.5 -26.5l-1 -20h-105q-5 18 -6.5 41.5t-1.5 63.5q0 31 -11 42t-41 11h-51zM82 573.5q52 88.5 137.5 131.5t185.5 43q104 0 189.5 -47.5t136 -136.5t50.5 -208
q0 -109 -51 -199t-137 -142t-188 -52q-104 0 -190 53t-135.5 143.5t-49.5 196.5q0 129 52 217.5zM187.5 212.5q32.5 -64.5 90 -102.5t127.5 -38t127 37.5t90 102.5t33 144q0 82 -32 146.5t-89 100.5t-129 36q-106 0 -178 -66t-72 -219q0 -77 32.5 -141.5zM405 395
q28 0 42.5 8.5t14.5 32.5q0 21 -12 31.5t-45 10.5h-41v-83h41z" />
    <glyph glyph-name="degree" unicode="&#xb0;" horiz-adv-x="397" 
d="M71 656.5q20 33.5 54 53t73 19.5t72.5 -19.5t53 -53t19.5 -73.5q0 -39 -19.5 -72t-52.5 -52t-73 -19q-39 0 -73 19.5t-54 52t-20 71.5q0 40 20 73.5zM161.5 545.5q14.5 -14.5 36.5 -14.5t35.5 14.5t13.5 38.5q0 23 -13.5 38.5t-35.5 15.5t-36.5 -15.5t-14.5 -38.5
q0 -24 14.5 -38.5z" />
    <glyph glyph-name="plusminus" unicode="&#xb1;" horiz-adv-x="573" 
d="M388 530h152v-183h-152v-170h-204v170h-151v183h151v155h204v-155zM41 154h489v-179h-489v179z" />
    <glyph glyph-name="uni00B2" unicode="&#xb2;" horiz-adv-x="380" 
d="M177 603q3 -9 8 -11.5t16 -2.5q21 0 19 17l-11 75l126 20l13 -94q2 -18 2 -26q0 -44 -20.5 -76t-54 -49t-72.5 -17h-12q-1 -12 -1 -40l-1 -114h-132l1 114l1 65q0 50 -6.5 87t-28.5 99l125 50q18 -53 28 -97z" />
    <glyph glyph-name="uni00B3" unicode="&#xb3;" horiz-adv-x="501" 
d="M178 601q3 -8 7 -11.5t10 -3.5q16 0 13 24l-10 54l121 20l11 -73q2 -15 5 -20t10 -5q9 0 12.5 5t1.5 12l-10 66l119 22l13 -81q2 -10 2 -30q0 -62 -38 -101.5t-98 -39.5q-40 0 -67 27q-35 -27 -78 -27h-11q-1 -13 -1 -40l-1 -114h-132l1 114l1 65q0 50 -6.5 87t-28.5 99
l125 50q21 -61 29 -99z" />
    <glyph glyph-name="uni00B5" unicode="&#xb5;" horiz-adv-x="721" 
d="M291 553v-354q0 -29 17.5 -47t44.5 -18q25 0 43 11.5t23 31.5v376h225v-578h-213v32q-14 -14 -36 -22t-43 -9q-15 0 -33 3.5t-28 11.5v-219h-225v781h225z" />
    <glyph glyph-name="uni00B9" unicode="&#xb9;" horiz-adv-x="221" 
d="M182.5 577q8.5 -51 8.5 -104l-1 -74l-1 -114h-132l1 114l1 65q0 50 -6.5 87t-28.5 99l125 50q25 -72 33.5 -123z" />
    <glyph glyph-name="guillemotright" unicode="&#xbb;" horiz-adv-x="550" 
d="M33 371l107 97q59 -59 92 -117.5t33 -136.5q0 -54 -17 -96.5t-42 -74.5t-66 -73l-107 87q64 77 64 155q0 82 -64 159zM328.5 117q24.5 54 24.5 102q0 43 -22.5 89.5t-69.5 103.5l120 125q50 -50 83.5 -93t55.5 -99t22 -126q0 -69 -22 -125.5t-55.5 -99.5t-83.5 -93
l-123 110q46 52 70.5 106z" />
    <glyph glyph-name="onequarter" unicode="&#xbc;" horiz-adv-x="918" 
d="M187.5 563q8.5 -51 8.5 -104l-1 -74l-1 -114h-132l1 114l1 65q0 50 -6.5 87t-28.5 99l125 50q25 -72 33.5 -123zM455 647l77 -38l-347 -556l-77 39zM563 468q18 -53 28 -97q10 -37 24 -50q-1 3 -1 9q-2 43 18.5 80t56 59t77.5 22q31 0 52 -8.5t52 -27.5q7 -5 12.5 -8
t10.5 -6l-57 -111q-31 18 -42.5 23t-24.5 5q-14 0 -23.5 -9.5t-9.5 -21.5q2 -31 81 -33h62l-1 -137h-50v0h-10q-83 1 -132 4.5t-82 13.5v-8l-1 -114h-132l1 114l1 65q0 50 -6.5 87t-28.5 99z" />
    <glyph glyph-name="onehalf" unicode="&#xbd;" horiz-adv-x="871" 
d="M178.5 563q8.5 -51 8.5 -104l-1 -74l-1 -114h-132l1 114l1 65q0 50 -6.5 87t-28.5 99l125 50q25 -72 33.5 -123zM508 647l77 -38l-347 -556l-77 39zM646 480q18 -53 28 -97q3 -9 8 -11.5t16 -2.5q21 0 19 17l-11 75l126 20l13 -94q2 -18 2 -26q0 -44 -20.5 -76t-54 -49
t-72.5 -17h-12q-1 -12 -1 -40l-1 -114h-132l1 114l1 65q0 50 -6.5 87t-28.5 99z" />
    <glyph glyph-name="threequarters" unicode="&#xbe;" horiz-adv-x="1108" 
d="M207 589q3 -9 7 -13t12 -4q7 0 10 6.5t2 17.5l-10 54l121 20l11 -73q3 -15 6 -20t10 -5q8 0 11.5 5t1.5 12l-10 66l119 22l13 -81q2 -10 2 -29q0 -62 -38 -101.5t-98 -39.5q-40 0 -67 27q-33 -27 -78 -27h-11q-1 -13 -1 -41l-1 -114h-132l1 114l1 66q0 50 -6.5 86.5
t-28.5 99.5l125 49q18 -53 28 -97zM623 647l77 -38l-347 -556l-77 39zM727 480q18 -53 28 -97q10 -37 24 -50q-1 3 -1 9q-2 43 18.5 80t56 59t77.5 22q31 0 52 -8.5t52 -27.5q7 -5 12.5 -8t10.5 -6l-57 -111q-31 18 -42.5 23t-24.5 5q-14 0 -23.5 -9.5t-9.5 -21.5
q2 -31 81 -33h62l-1 -137h-50v0h-10q-83 1 -132 4.5t-82 13.5v-8l-1 -114h-132l1 114l1 65q0 50 -6.5 87t-28.5 99z" />
    <glyph glyph-name="multiply" unicode="&#xd7;" horiz-adv-x="596" 
d="M22 185l146 150l-146 150l134 128l142 -146l142 146l134 -128l-146 -150l146 -150l-134 -126l-142 144l-142 -144z" />
    <glyph glyph-name="divide" unicode="&#xf7;" horiz-adv-x="636" 
d="M603 250h-570v169h570v-169zM238.5 191.5q30.5 26.5 78.5 26.5t78.5 -26.5t30.5 -67.5q0 -40 -30.5 -67.5t-78.5 -27.5t-78.5 27.5t-30.5 67.5q0 41 30.5 67.5zM238.5 610q30.5 27 78.5 27t78.5 -27t30.5 -67t-30.5 -67.5t-78.5 -27.5t-78.5 27t-30.5 67q0 41 30.5 68z
" />
    <glyph glyph-name="uni060C" unicode="&#x60c;" horiz-adv-x="353" 
d="M61.5 206.5q11.5 34.5 38.5 74.5t91 122l89 -76q-13 -17 -47 -57l-21 -26q40 -11 65.5 -44t25.5 -75q0 -35 -17 -64.5t-45.5 -46.5t-62.5 -17q-54 0 -91 37t-37 91q0 47 11.5 81.5z" />
    <glyph glyph-name="uni0615" unicode="&#x615;" 
d="M96 459q-25 11 -43.5 31t-55.5 69l64 52l17 -22l23 35l2 3v139h81v-65q15 6 34 6q48 0 79 -39t31 -94q0 -53 -31 -89.5t-84 -36.5h-51q-41 0 -66 11zM162 548h51q23 0 29 4.5t6 21.5q0 20 -5.5 26.5t-24.5 6.5q-15 0 -25 -7.5t-26 -31.5l-14 -20h9z" />
    <glyph glyph-name="uni061B" unicode="&#x61b;" horiz-adv-x="341" 
d="M76.5 25.5q-36.5 38.5 -36.5 95.5q0 54 36.5 90.5t93.5 36.5q56 0 93.5 -36.5t37.5 -90.5q0 -57 -37.5 -95.5t-93.5 -38.5q-57 0 -93.5 38.5zM55.5 535.5q11.5 34.5 38.5 74.5t91 122l89 -76q-13 -17 -47 -57l-21 -26q40 -11 65.5 -44t25.5 -75q0 -35 -17 -64.5
t-45.5 -46.5t-62.5 -17q-54 0 -91 37t-37 91q0 47 11.5 81.5z" />
    <glyph glyph-name="uni061F" unicode="&#x61f;" horiz-adv-x="568" 
d="M216 11.5q-33 34.5 -33 85.5q0 49 33 82t84 33t84.5 -33t33.5 -82q0 -51 -33.5 -85.5t-84.5 -34.5t-84 34.5zM79.5 662q29.5 54 83 86t123.5 32q71 0 122.5 -39t79 -96.5t30.5 -110.5l-164 -20q-2 29 -20 50.5t-48 21.5q-26 0 -42 -16.5t-16 -39.5q0 -17 4 -25.5
t19.5 -21t63.5 -46.5q47 -33 65.5 -61t18.5 -70v-56h-198v58q-23 23 -38 36q-49 47 -68 68.5t-32 53t-13 77.5q0 65 29.5 119z" />
    <glyph glyph-name="uni0640" unicode="&#x640;" horiz-adv-x="198" 
d="M-5 250h209l10 -125l-10 -125h-209v250z" />
    <glyph glyph-name="uni064B" unicode="&#x64b;" 
d="M4 536l225 67v-96l-225 -67v96zM4 657l225 67v-96l-225 -67v96z" />
    <glyph glyph-name="uni064C" unicode="&#x64c;" 
d="M32 535l46 16q-1 2 -8 18q-7 18 -7 40q0 37 21.5 67t58.5 42q27 8 49 8q36 0 62 -19t38 -55q6 -18 6 -37q0 -37 -23 -68.5t-65 -46.5l-150 -53zM-49 633q0 54 27.5 99.5t78.5 68.5l42 -70q-34 -18 -52 -46.5t-18 -62.5q0 -36 17 -67l-68 -26q-27 51 -27 104zM153 576
l32 11q34 12 34 31q0 3 -2 9q-7 15 -24 15q-10 0 -25 -6t-22 -17t-4 -20t11 -23z" />
    <glyph glyph-name="uni064D" unicode="&#x64d;" 
d="M4 -206l225 67v-96l-225 -67v96zM4 -85l225 67v-96l-225 -67v96z" />
    <glyph glyph-name="uni064E" unicode="&#x64e;" 
d="M-5 529l225 67v-96l-225 -67v96z" />
    <glyph glyph-name="uni064F" unicode="&#x64f;" 
d="M-13 535l46 16q-1 2 -8 18q-7 18 -7 40q0 37 21.5 67t58.5 42q27 8 49 8q36 0 62 -19t38 -55q6 -18 6 -37q0 -37 -23 -68.5t-65 -46.5l-150 -53zM108 576l32 11q34 12 34 31q0 3 -2 9q-7 15 -24 15q-10 0 -25 -6t-22 -17t-4 -20t11 -23z" />
    <glyph glyph-name="uni0650" unicode="&#x650;" 
d="M-5 -231l225 67v-96l-225 -67v96z" />
    <glyph glyph-name="uni0651" unicode="&#x651;" 
d="M20 586v-36q0 -20 19 -20q20 0 20 21v36l79 -1v-36q0 -20 19 -20q9 0 15 6t5 14q-1 9 -3.5 18.5t-5.5 24.5l76 22q2 -10 7.5 -34t5.5 -42q0 -46 -26 -77.5t-77 -31.5q-17 0 -32 5.5t-24 15.5q-9 -10 -25 -15.5t-34 -5.5q-41 0 -70 27t-29 80v49h80z" />
    <glyph glyph-name="uni0652" unicode="&#x652;" 
d="M113.5 643q22.5 -17 34.5 -44.5t12 -56.5q0 -42 -27 -73.5t-69 -31.5q-42 1 -66.5 34.5t-24.5 76.5q0 27 12.5 52.5t33.5 42t44 16.5q28 1 50.5 -16zM39.5 521q10.5 -11 25.5 -11q18 0 29.5 10.5t11.5 25.5q0 16 -12 28t-29 12q-15 0 -25.5 -12.5t-10.5 -27.5
q0 -14 10.5 -25z" />
    <glyph glyph-name="uni0653" unicode="&#x653;" 
d="M238 461q-26 -24 -61 -24q-13 0 -33 5l-48 14q-8 2 -12 2q-22 0 -35 -25l-74 36q34 90 102 90q13 0 33 -5l45 -13q10 -2 14 -2q22 0 42 29l69 -41q-16 -42 -42 -66z" />
    <glyph glyph-name="uni0654" unicode="&#x654;" 
d="M-5 548l41 12q-22 29 -22 75q0 49 34.5 85t87.5 36q20 0 70 -10l-16 -92q-40 7 -57 7t-28 -9.5t-11 -22.5q0 -15 13.5 -24.5t35.5 -9.5q11 0 24 3l63 18l6 -96l-235 -68z" />
    <glyph glyph-name="uni0655" unicode="&#x655;" 
d="M-7 -210l41 12q-22 29 -22 75q0 49 34.5 85t87.5 36q20 0 70 -10l-16 -92q-40 7 -57 7t-28 -9.5t-11 -22.5q0 -15 13.5 -24.5t35.5 -9.5q11 0 24 3l63 18l6 -96l-235 -68z" />
    <glyph glyph-name="uni0656" unicode="&#x656;" 
d="M2 -275v189h80v-189h-80z" />
    <glyph glyph-name="uni0658" unicode="&#x658;" 
d="M85 629q-7 -21 -7 -38q0 -21 11.5 -31t39.5 -10h22q29 0 39.5 7t10.5 27v131h94v-131q0 -64 -35 -102.5t-109 -38.5h-22q-71 0 -108 41.5t-37 106.5q0 50 33 113l84 -38q-9 -16 -16 -37z" />
    <glyph glyph-name="uni065A" unicode="&#x65a;" 
d="M-40 580l78 62l54 -86l54 86l78 -62l-74 -117h-115z" />
    <glyph glyph-name="uni065B" unicode="&#x65b;" 
d="M150 669l74 -117l-78 -62l-54 86l-54 -86l-78 62l75 117h115z" />
    <glyph glyph-name="uni0660" unicode="&#x660;" horiz-adv-x="588" 
d="M188 52.5q-49 29.5 -78.5 78.5t-29.5 106t29.5 106t78.5 78t105 29q58 0 107.5 -28.5t78.5 -77.5t29 -107q0 -57 -29.5 -106.5t-79 -78.5t-106.5 -29q-56 0 -105 29.5zM260 201.5q15 -15.5 34 -15.5q20 0 34.5 15.5t14.5 35.5t-14.5 35t-34.5 15q-19 0 -34 -15.5
t-15 -34.5q0 -20 15 -35.5z" />
    <glyph glyph-name="uni0661" unicode="&#x661;" horiz-adv-x="368" 
d="M304.5 486.5q14.5 -84.5 14.5 -173.5q0 -33 -2 -123l-2 -190h-220l2 190l1 108q0 84 -11 145.5t-47 165.5l208 82q42 -120 56.5 -204.5z" />
    <glyph glyph-name="uni0662" unicode="&#x662;" horiz-adv-x="633" 
d="M296 530q5 -14 13 -18.5t26 -4.5q17 0 25 7.5t6 20.5l-18 125l210 34l22 -158q3 -22 3 -43q0 -73 -34 -126.5t-90 -81.5t-120 -28q-14 0 -21 1l-1 -68l-2 -190h-220l2 190l1 108q0 84 -11 145.5t-47 165.5l208 82q30 -85 48 -161z" />
    <glyph glyph-name="uni0663" unicode="&#x663;" horiz-adv-x="835" 
d="M295 532q5 -16 12 -23.5t20 -7.5q9 0 14.5 7.5t5.5 20.5q0 8 -1 12l-16 90l201 34l19 -122q4 -25 9.5 -33.5t16.5 -8.5q13 0 19 8.5t4 20.5l-17 110l198 36l21 -135q4 -23 4 -49q0 -68 -29 -121.5t-80.5 -83.5t-116.5 -30q-66 0 -112 44q-57 -44 -130 -44q-13 0 -19 1
l-1 -68l-2 -190h-220l2 190l1 108q0 84 -11 145.5t-47 165.5l208 82q31 -87 47 -159z" />
    <glyph glyph-name="uni0664" unicode="&#x664;" horiz-adv-x="829" 
d="M296 527q9 -31 17 -50t22 -31l-1 15q-3 72 30.5 133.5t93 98.5t129.5 37q52 0 88.5 -15t90.5 -49q9 -5 17 -10l16 -10l-96 -185q-50 29 -69.5 38t-41.5 9q-24 0 -39.5 -14.5t-15.5 -34.5q0 -54 134 -58h104l-2 -227h-83v0h-17q-134 1 -217 7t-139 22v-13l-2 -190h-220
l2 190l1 108q0 84 -11 145.5t-47 165.5l208 82q34 -98 48 -164z" />
    <glyph glyph-name="uni0665" unicode="&#x665;" horiz-adv-x="696" 
d="M441 198q5 -2 14 -2q13 0 22.5 11t9.5 31q0 45 -40.5 94.5t-120.5 111.5q-58 -56 -87.5 -109.5t-29.5 -93.5q0 -24 9 -35t23 -11t23 9.5t9 29.5q0 10 -1 16l165 21q7 -43 4 -73zM65 387.5q40 87.5 115 163.5l-21 15l126 162q201 -134 293 -263.5t93 -239.5
q1 -70 -25 -123.5t-72 -82.5t-102 -29q-64 0 -112 45q-55 -44 -137 -44q-52 0 -97.5 28t-73 80t-27.5 120q0 81 40 168.5z" />
    <glyph glyph-name="uni0666" unicode="&#x666;" horiz-adv-x="670" 
d="M527.5 280.5q-38.5 -36.5 -64.5 -70t-68 -94.5l-47 -67l-68 -96l-183 123l69 96q18 24 48 70q-35 12 -64.5 31.5t-49.5 44.5q-30 35 -45 78t-15 87q0 59 26 112.5t74 89.5q42 31 79.5 41.5t101.5 15.5l38 4l36 -206q-61 -7 -82.5 -12t-40.5 -22q-18 -16 -18 -40
q0 -16 9 -28q11 -15 32 -15q41 0 125 61v-1q45 38 83 66l127 -185q-64 -47 -102.5 -83.5z" />
    <glyph glyph-name="uni0667" unicode="&#x667;" horiz-adv-x="715" 
d="M174.5 281.5q-30.5 84.5 -57.5 136t-87 145.5l186 134q46 -71 68.5 -117t38 -103.5t35.5 -163.5q22 108 38 165t37 102t64 114l188 -130q-61 -95 -87.5 -146.5t-56 -136t-93.5 -294.5h-176q-67 210 -97.5 294.5z" />
    <glyph glyph-name="uni0668" unicode="&#x668;" horiz-adv-x="715" 
d="M540.5 408.5q30.5 -84.5 57.5 -136t87 -145.5l-186 -134q-46 71 -68.5 117t-38 103.5t-35.5 163.5q-22 -108 -38 -165t-37 -102t-64 -114l-188 130q61 95 87.5 146.5t56 136t93.5 294.5h176q67 -210 97.5 -294.5z" />
    <glyph glyph-name="uni0669" unicode="&#x669;" horiz-adv-x="582" 
d="M317.5 71.5q-3.5 38.5 -4.5 121.5h-44q-115 0 -177 63t-62 178q0 134 62 206.5t177 72.5q121 0 185 -78t64 -234q0 -143 1.5 -201.5t6 -95t16.5 -93.5l-212 -34q-9 56 -12.5 94.5zM232 426q11 -10 37 -10h43v39q0 50 -43 50q-23 0 -35.5 -13t-12.5 -34q0 -22 11 -32z" />
    <glyph glyph-name="uni066A" unicode="&#x66a;" horiz-adv-x="587" 
d="M131 695q62 0 92 -1v-179h-185v180h93zM337 739h216l-291 -767h-214zM366 183h93q62 0 92 -1v-179h-185v180z" />
    <glyph glyph-name="uni066B" unicode="&#x66b;" horiz-adv-x="407" 
d="M31 -29l217 496h137l-217 -496h-137z" />
    <glyph glyph-name="uni066C" unicode="&#x66c;" horiz-adv-x="271" 
d="M96 107h152q-18 -36 -57.5 -118t-57.5 -120h-110z" />
    <glyph glyph-name="uni066D" unicode="&#x66d;" horiz-adv-x="703" 
d="M250 -49v101l-98 -57l-102 200l78 45l-78 45l102 199l98 -57v101h203v-101l98 57l102 -199l-78 -45l78 -45l-102 -200l-98 57v-101h-203z" />
    <glyph glyph-name="uni066E" unicode="&#x66e;" horiz-adv-x="958" 
d="M169.5 31.5q-56.5 31.5 -88 88t-31.5 130.5q0 33 6 67q12 62 29 123l205 -62q-15 -57 -21 -88q-1 -4 -1 -12q0 -28 34 -28h328q33 0 46 11t9 34q-7 46 -20 117l208 53q35 -149 35 -218q0 -60 -29.5 -117.5t-83.5 -93.5t-125 -36h-371q-73 0 -129.5 31.5z" />
    <glyph glyph-name="uni066F" unicode="&#x66f;" horiz-adv-x="951" 
d="M278.5 242.5q-19.5 -55.5 -19.5 -104.5q0 -56 31 -97t90 -41h178q62 0 86.5 6.5t31.5 30.5h-48q-122 0 -189 70t-67 194q0 143 66.5 220.5t189.5 77.5q127 0 200 -84.5t73 -249.5v-181q0 -92 -38 -167.5t-115 -120.5t-190 -45h-178q-166 0 -248 100.5t-82 266.5
q0 89 26 162.5t60 139.5l180 -87q-18 -35 -37.5 -90.5zM587 286.5q14 -11.5 41 -11.5h53v48q0 27 -13.5 42t-39.5 15t-40.5 -15.5t-14.5 -41.5q0 -25 14 -36.5z" />
    <glyph glyph-name="uni0670" unicode="&#x670;" 
d="M-6 485v189h80v-189h-80z" />
    <glyph glyph-name="uni0688" unicode="&#x688;" horiz-adv-x="654" 
d="M404 632q22 -33 73 -108.5t73 -110.5q26 -39 40 -84t14 -89q0 -78 -41 -135q-38 -52 -94 -78.5t-123 -26.5h-55q-76 0 -134.5 22.5t-106.5 57.5l86 197q33 -12 62.5 -19.5t74.5 -7.5h50q27 0 39 2.5t15 8.5q2 4 2 7q0 10 -9 22q-135 186 -167 228l184 138q19 -26 17 -24z
M240 858l17 -22l23 35l2 3v139h81v-65q15 6 34 6q48 0 79 -39t31 -94q0 -53 -31 -89.5t-84 -36.5h-51q-41 0 -66 11t-43.5 31t-55.5 69zM341 795h51q23 0 29 4.5t6 21.5q0 20 -5.5 26.5t-24.5 6.5q-15 0 -25 -7.5t-26 -31.5l-14 -20h9z" />
    <glyph glyph-name="uni0691" unicode="&#x691;" horiz-adv-x="428" 
d="M398 388v-280q0 -108 -38.5 -188.5t-114 -125t-182.5 -44.5h-63v250h63q56 0 78.5 6.5t29.5 27.5t7 74v280h220zM156 614l17 -22l23 35l2 3v139h81v-65q15 6 34 6q48 0 79 -39t31 -94q0 -53 -31 -89.5t-84 -36.5h-51q-41 0 -66 11t-43.5 31t-55.5 69zM257 551h51
q23 0 29 4.5t6 21.5q0 20 -5.5 26.5t-24.5 6.5q-15 0 -25 -7.5t-26 -31.5l-14 -20h9z" />
    <glyph glyph-name="uni0695" unicode="&#x695;" horiz-adv-x="428" 
d="M398 388v-280q0 -108 -38.5 -188.5t-114 -125t-182.5 -44.5h-63v250h63q56 0 78.5 6.5t29.5 27.5t7 74v280h220zM93 -345l54 -86l54 86l78 -62l-74 -117h-115l-75 117z" />
    <glyph glyph-name="uni06A1" unicode="&#x6a1;" horiz-adv-x="1064" 
d="M169.5 31.5q-56.5 31.5 -88 88t-31.5 130.5q0 33 6 67q5 25 22.5 95.5t29.5 113.5l205 -62q-40 -155 -44 -174q-1 -4 -1 -12q0 -28 34 -28h304q-38 24 -57.5 61t-19.5 96q0 118 61.5 183t173.5 65q120 0 185 -70.5t65 -211.5v-46q0 -74 -39 -149.5t-122 -126.5t-206 -51
h-348q-73 0 -129.5 31.5zM757 376l54 -21v55q0 26 -11.5 42.5t-35.5 16.5t-34.5 -13t-10.5 -33q0 -31 38 -47z" />
    <glyph glyph-name="uni06B5" unicode="&#x6b5;" horiz-adv-x="798" 
d="M200 -203q-76 46 -113 123.5t-37 172.5q0 60 19 127t45 119l190 -89q-15 -34 -26.5 -79t-11.5 -77q0 -48 28 -71t92 -23h29q46 0 70 7t33.5 23t9.5 47v666h220v-665q0 -148 -82 -237.5t-251 -89.5h-29q-110 0 -186 46zM589 973l54 -86l54 86l78 -62l-74 -117h-115
l-75 117z" />
    <glyph glyph-name="uni06BA" unicode="&#x6ba;" horiz-adv-x="822" 
d="M284.5 182.5q-16.5 -52.5 -16.5 -90.5q0 -48 27 -70t91 -22h53q46 0 70 7t33.5 23t9.5 47v311h220v-311q0 -148 -82 -237.5t-251 -89.5h-53q-110 0 -186 46t-113 123.5t-37 172.5q0 66 23.5 141t51.5 129l196 -87q-20 -40 -36.5 -92.5z" />
    <glyph glyph-name="uni06C1" unicode="&#x6c1;" horiz-adv-x="637" 
d="M347 611q107 -107 152 -157.5t66.5 -97t21.5 -107.5q0 -72 -36 -132.5t-97.5 -95.5t-134.5 -35t-135 35t-98 95.5t-36 132.5q0 68 26.5 123.5t78.5 115.5l-20 19l158 158zM282 238.5q12 -13.5 37 -13.5t36.5 13.5t11.5 31.5q0 10 -11 25.5t-42 44.5q-24 -27 -34 -42.5
t-10 -27.5q0 -18 12 -31.5z" />
    <glyph glyph-name="uni06C2" unicode="&#x6c2;" horiz-adv-x="637" 
d="M347 611q107 -107 152 -157.5t66.5 -97t21.5 -107.5q0 -72 -36 -132.5t-97.5 -95.5t-134.5 -35t-135 35t-98 95.5t-36 132.5q0 68 26.5 123.5t78.5 115.5l-20 19l158 158zM217 779q-22 29 -22 75q0 49 34.5 85t87.5 36q20 0 70 -10l-16 -92q-40 7 -57 7t-28 -9.5
t-11 -22.5q0 -15 13.5 -24.5t35.5 -9.5q11 0 24 3l63 18l6 -96l-235 -68l-6 96zM282 238.5q12 -13.5 37 -13.5t36.5 13.5t11.5 31.5q0 10 -11 25.5t-42 44.5q-24 -27 -34 -42.5t-10 -27.5q0 -18 12 -31.5z" />
    <glyph glyph-name="uni06C3" unicode="&#x6c3;" horiz-adv-x="637" 
d="M347 611q107 -107 152 -157.5t66.5 -97t21.5 -107.5q0 -72 -36 -132.5t-97.5 -95.5t-134.5 -35t-135 35t-98 95.5t-36 132.5q0 68 26.5 123.5t78.5 115.5l-20 19l158 158zM146 858h55h110h2h165v-167h-165h-2h-165v167zM282 238.5q12 -13.5 37 -13.5t36.5 13.5t11.5 31.5
q0 10 -11 25.5t-42 44.5q-24 -27 -34 -42.5t-10 -27.5q0 -18 12 -31.5z" />
    <glyph glyph-name="uni06C9" unicode="&#x6c9;" horiz-adv-x="629" 
d="M323.5 11.5q22.5 4.5 30.5 25.5h-48q-122 0 -189 70t-67 194q0 143 66.5 220.5t189.5 77.5q127 0 200 -84.5t73 -249.5v-181q0 -92 -37.5 -166t-115 -117.5t-190.5 -43.5h-166v250h166q65 0 87.5 4.5zM245 816h115l74 -117l-78 -62l-54 86l-54 -86l-78 62zM265 286.5
q14 -11.5 41 -11.5h53v48q0 27 -13.5 42t-39.5 15t-40.5 -15.5t-14.5 -41.5q0 -25 14 -36.5z" />
    <glyph glyph-name="uni06CE" unicode="&#x6ce;" horiz-adv-x="873" 
d="M284.5 182.5q-16.5 -51.5 -16.5 -89.5q0 -48 26.5 -70.5t87.5 -22.5h105q67 0 92.5 5t28.5 18l-244 59q-17 66 -17 130q0 78 23 147.5t64 117.5q54 60 117.5 86.5t135.5 26.5q65 0 133 -22l-52 -214q-30 7 -54 7q-32 0 -63.5 -7.5t-55.5 -22.5q-41 -26 -53 -63l87 -17
q16 -3 38 -7t48 -10q44 -9 67 -27.5t32 -48.5t9 -79q0 -25 -1 -39q-5 -125 -84 -207t-251 -82h-105q-108 0 -182.5 46t-112 123.5t-37.5 172.5q0 66 23.5 140.5t51.5 128.5l196 -87q-20 -41 -36.5 -92.5zM187 581l54 -86l54 86l78 -62l-74 -117h-115l-75 117z" />
    <glyph glyph-name="uni06D4" unicode="&#x6d4;" horiz-adv-x="377" 
d="M86.5 31.5q-36.5 38.5 -36.5 95.5q0 54 36.5 90.5t93.5 36.5q56 0 93.5 -36.5t37.5 -90.5q0 -57 -37.5 -95.5t-93.5 -38.5q-57 0 -93.5 38.5z" />
    <glyph glyph-name="uni06D5" unicode="&#x6d5;" horiz-adv-x="637" 
d="M347 611q107 -107 152 -157.5t66.5 -97t21.5 -107.5q0 -72 -36 -132.5t-97.5 -95.5t-134.5 -35t-135 35t-98 95.5t-36 132.5q0 68 26.5 123.5t78.5 115.5l-20 19l158 158zM282 238.5q12 -13.5 37 -13.5t36.5 13.5t11.5 31.5q0 10 -11 25.5t-42 44.5q-24 -27 -34 -42.5
t-10 -27.5q0 -18 12 -31.5z" />
    <glyph glyph-name="uni06F0" unicode="&#x6f0;" horiz-adv-x="588" 
d="M188 52.5q-49 29.5 -78.5 78.5t-29.5 106t29.5 106t78.5 78t105 29q58 0 107.5 -28.5t78.5 -77.5t29 -107q0 -57 -29.5 -106.5t-79 -78.5t-106.5 -29q-56 0 -105 29.5zM260 201.5q15 -15.5 34 -15.5q20 0 34.5 15.5t14.5 35.5t-14.5 35t-34.5 15q-19 0 -34 -15.5
t-15 -34.5q0 -20 15 -35.5z" />
    <glyph glyph-name="uni06F1" unicode="&#x6f1;" horiz-adv-x="368" 
d="M304.5 486.5q14.5 -84.5 14.5 -173.5q0 -33 -2 -123l-2 -190h-220l2 190l1 108q0 84 -11 145.5t-47 165.5l208 82q42 -120 56.5 -204.5z" />
    <glyph glyph-name="uni06F2" unicode="&#x6f2;" horiz-adv-x="633" 
d="M296 530q5 -14 13 -18.5t26 -4.5q17 0 25 7.5t6 20.5l-18 125l210 34l22 -158q3 -22 3 -43q0 -73 -34 -126.5t-90 -81.5t-120 -28q-14 0 -21 1l-1 -68l-2 -190h-220l2 190l1 108q0 84 -11 145.5t-47 165.5l208 82q30 -85 48 -161z" />
    <glyph glyph-name="uni06F3" unicode="&#x6f3;" horiz-adv-x="835" 
d="M295 532q5 -16 12 -23.5t20 -7.5q9 0 14.5 7.5t5.5 20.5q0 8 -1 12l-16 90l201 34l19 -122q4 -25 9.5 -33.5t16.5 -8.5q13 0 19 8.5t4 20.5l-17 110l198 36l21 -135q4 -23 4 -49q0 -68 -29 -121.5t-80.5 -83.5t-116.5 -30q-66 0 -112 44q-57 -44 -130 -44q-13 0 -19 1
l-1 -68l-2 -190h-220l2 190l1 108q0 84 -11 145.5t-47 165.5l208 82q31 -87 47 -159z" />
    <glyph glyph-name="uni06F4" unicode="&#x6f4;" horiz-adv-x="829" 
d="M296 527q9 -31 17 -50t22 -31l-1 15q-3 72 30.5 133.5t93 98.5t129.5 37q52 0 88.5 -15t90.5 -49q9 -5 17 -10l16 -10l-96 -185q-50 29 -69.5 38t-41.5 9q-24 0 -39.5 -14.5t-15.5 -34.5q0 -54 134 -58h104l-2 -227h-83v0h-17q-134 1 -217 7t-139 22v-13l-2 -190h-220
l2 190l1 108q0 84 -11 145.5t-47 165.5l208 82q34 -98 48 -164z" />
    <glyph glyph-name="uni06F5" unicode="&#x6f5;" horiz-adv-x="696" 
d="M441 198q5 -2 14 -2q13 0 22.5 11t9.5 31q0 45 -40.5 94.5t-120.5 111.5q-58 -56 -87.5 -109.5t-29.5 -93.5q0 -24 9 -35t23 -11t23 9.5t9 29.5q0 10 -1 16l165 21q7 -43 4 -73zM65 387.5q40 87.5 115 163.5l-21 15l126 162q201 -134 293 -263.5t93 -239.5
q1 -70 -25 -123.5t-72 -82.5t-102 -29q-64 0 -112 45q-55 -44 -137 -44q-52 0 -97.5 28t-73 80t-27.5 120q0 81 40 168.5z" />
    <glyph glyph-name="uni06F6" unicode="&#x6f6;" horiz-adv-x="670" 
d="M527.5 280.5q-38.5 -36.5 -64.5 -70t-68 -94.5l-47 -67l-68 -96l-183 123l69 96q18 24 48 70q-35 12 -64.5 31.5t-49.5 44.5q-30 35 -45 78t-15 87q0 59 26 112.5t74 89.5q42 31 79.5 41.5t101.5 15.5l38 4l36 -206q-61 -7 -82.5 -12t-40.5 -22q-18 -16 -18 -40
q0 -16 9 -28q11 -15 32 -15q41 0 125 61v-1q45 38 83 66l127 -185q-64 -47 -102.5 -83.5z" />
    <glyph glyph-name="uni06F7" unicode="&#x6f7;" horiz-adv-x="715" 
d="M174.5 273.5q-30.5 84.5 -57.5 136t-87 145.5l186 134q46 -71 68.5 -117t38 -103.5t35.5 -163.5q22 108 38 165t37 102t64 114l188 -130q-61 -95 -87.5 -146.5t-56 -136t-93.5 -294.5h-176q-67 210 -97.5 294.5z" />
    <glyph glyph-name="uni06F8" unicode="&#x6f8;" horiz-adv-x="715" 
d="M540.5 408.5q30.5 -84.5 57.5 -136t87 -145.5l-186 -134q-46 71 -68.5 117t-38 103.5t-35.5 163.5q-22 -108 -38 -165t-37 -102t-64 -114l-188 130q61 95 87.5 146.5t56 136t93.5 294.5h176q67 -210 97.5 -294.5z" />
    <glyph glyph-name="uni06F9" unicode="&#x6f9;" horiz-adv-x="582" 
d="M317.5 71.5q-3.5 38.5 -4.5 121.5h-44q-115 0 -177 63t-62 178q0 134 62 206.5t177 72.5q121 0 185 -78t64 -234q0 -143 1.5 -201.5t6 -95t16.5 -93.5l-212 -34q-9 56 -12.5 94.5zM232 426q11 -10 37 -10h43v39q0 50 -43 50q-23 0 -35.5 -13t-12.5 -34q0 -22 11 -32z" />
    <glyph glyph-name="uni2009" unicode="&#x2009;" horiz-adv-x="80" 
 />
    <glyph glyph-name="uni200A" unicode="&#x200a;" horiz-adv-x="64" 
 />
    <glyph glyph-name="uni200B" unicode="&#x200b;" 
 />
    <glyph glyph-name="uni200C" unicode="&#x200c;" 
 />
    <glyph glyph-name="uni200D" unicode="&#x200d;" 
 />
    <glyph glyph-name="uni200E" unicode="&#x200e;" 
 />
    <glyph glyph-name="uni200F" unicode="&#x200f;" 
 />
    <glyph glyph-name="quoteleft" unicode="&#x2018;" horiz-adv-x="312" 
d="M229 658.5q-16 -41.5 -17 -77.5v-147h-190v127q2 67 42.5 137t102.5 114l120 -47q-42 -65 -58 -106.5z" />
    <glyph glyph-name="quoteright" unicode="&#x2019;" horiz-adv-x="309" 
d="M80 577.5q16 41.5 17 77.5v147h190v-127q-2 -67 -42.5 -137t-102.5 -114l-120 47q42 65 58 106.5z" />
    <glyph glyph-name="quotedblleft" unicode="&#x201c;" horiz-adv-x="564" 
d="M481 659.5q-16 -41.5 -17 -77.5v-147h-190v127q2 67 42.5 137t102.5 114l120 -47q-42 -65 -58 -106.5zM22 562q2 67 42.5 137t102.5 114l120 -47q-42 -65 -58 -106.5t-17 -77.5v-147h-190v127z" />
    <glyph glyph-name="quotedblright" unicode="&#x201d;" horiz-adv-x="564" 
d="M83 464.5q16 41.5 17 77.5v147h190v-127q-2 -67 -42.5 -137t-102.5 -114l-120 47q42 65 58 106.5zM335 464.5q16 41.5 17 77.5v147h190v-127q-2 -67 -42.5 -137t-102.5 -114l-120 47q42 65 58 106.5z" />
    <glyph glyph-name="quotedblbase" unicode="&#x201e;" horiz-adv-x="564" 
d="M83 -75.5q16 41.5 17 77.5v147h190v-127q-2 -67 -42.5 -137t-102.5 -114l-120 47q42 65 58 106.5zM335 -75.5q16 41.5 17 77.5v147h190v-127q-2 -67 -42.5 -137t-102.5 -114l-120 47q42 65 58 106.5z" />
    <glyph glyph-name="bullet" unicode="&#x2022;" horiz-adv-x="659" 
d="M215 10q-53 31 -84 83.5t-31 114.5t31 115t84 84t115 31t114.5 -31t83.5 -84t31 -115t-31 -114.5t-83.5 -83.5t-114.5 -31t-115 31z" />
    <glyph glyph-name="ellipsis" unicode="&#x2026;" horiz-adv-x="976" 
d="M74.5 31.5q-36.5 38.5 -36.5 95.5q0 54 36.5 90.5t93.5 36.5q56 0 93.5 -36.5t37.5 -90.5q0 -57 -37.5 -95.5t-93.5 -38.5q-57 0 -93.5 38.5zM384.5 217.5q36.5 36.5 93.5 36.5q56 0 93.5 -36.5t37.5 -90.5q0 -57 -37.5 -95.5t-93.5 -38.5q-57 0 -93.5 38.5t-36.5 95.5
q0 54 36.5 90.5zM696.5 217.5q36.5 36.5 93.5 36.5q56 0 93.5 -36.5t37.5 -90.5q0 -57 -37.5 -95.5t-93.5 -38.5q-57 0 -93.5 38.5t-36.5 95.5q0 54 36.5 90.5z" />
    <glyph glyph-name="minute" unicode="&#x2032;" horiz-adv-x="243" 
d="M210 670l-18 -226h-159v331h177v-105z" />
    <glyph glyph-name="second" unicode="&#x2033;" horiz-adv-x="456" 
d="M423 670l-18 -226h-159v331h177v-105zM43 775h177v-105l-18 -226h-159v331z" />
    <glyph glyph-name="guilsinglleft" unicode="&#x2039;" horiz-adv-x="339" 
d="M235.5 117q24.5 -54 70.5 -106l-123 -110q-50 50 -83.5 93t-55.5 99.5t-22 125.5q0 70 22 126t55.5 99t83.5 93l120 -125q-47 -57 -69.5 -103.5t-22.5 -89.5q0 -48 24.5 -102z" />
    <glyph glyph-name="guilsinglright" unicode="&#x203a;" horiz-adv-x="339" 
d="M105.5 308.5q-22.5 46.5 -69.5 103.5l120 125q50 -50 83.5 -93t55.5 -99t22 -126q0 -69 -22 -125.5t-55.5 -99.5t-83.5 -93l-123 110q46 52 70.5 106t24.5 102q0 43 -22.5 89.5z" />
    <glyph glyph-name="fraction" unicode="&#x2044;" horiz-adv-x="440" 
d="M84 53l-77 39l347 555l77 -38z" />
    <glyph glyph-name="uni2070" unicode="&#x2070;" horiz-adv-x="353" 
d="M112.5 357.5q-29.5 17.5 -47 47t-17.5 63.5t17.5 63.5t47 47t63.5 17.5q35 0 64.5 -17t47 -46.5t17.5 -64.5q0 -34 -17.5 -63.5t-47.5 -47t-64 -17.5t-63.5 17.5zM156 447q9 -9 20 -9q13 0 21.5 9t8.5 21t-8.5 21t-21.5 9q-11 0 -20 -9t-9 -21t9 -21z" />
    <glyph glyph-name="uni2074" unicode="&#x2074;" horiz-adv-x="497" 
d="M177 603q10 -37 24 -50q-1 3 -1 9q-2 43 18.5 80t56 59t77.5 22q31 0 52 -8.5t52 -27.5q7 -5 12.5 -8t10.5 -6l-57 -111q-31 18 -42.5 23t-24.5 5q-14 0 -23.5 -9.5t-9.5 -21.5q2 -31 81 -33h62l-1 -137h-50v0h-10q-83 1 -132 4.5t-82 13.5v-8l-1 -114h-132l1 114l1 65
q0 50 -6.5 87t-28.5 99l125 50q18 -53 28 -97z" />
    <glyph glyph-name="uni2075" unicode="&#x2075;" horiz-adv-x="418" 
d="M265 404q2 -1 8 -1q8 0 13.5 6.5t5.5 18.5q0 27 -24 56.5t-72 67.5q-35 -33 -53 -65t-18 -56q0 -29 19 -29q10 0 16 8t3 25l99 13q3 -15 3 -44zM39 517q24 53 69 99l-13 9l76 97q122 -81 177 -159.5t55 -144.5q0 -62 -34.5 -100.5t-85.5 -38.5q-37 0 -67 27
q-34 -26 -82 -26q-31 0 -58.5 17t-44 47.5t-16.5 71.5q0 48 24 101z" />
    <glyph glyph-name="uni2076" unicode="&#x2076;" horiz-adv-x="402" 
d="M297.5 434q-25.5 -28 -60.5 -80l-28 -40l-41 -57l-110 74l42 57q-1 -2 29 42q-43 15 -69 46q-35 42 -35 99q0 35 15 67.5t44 53.5q25 19 48 25t62 10l21 2l22 -124q-38 -4 -50.5 -7t-23.5 -13q-11 -11 -11 -25q0 -8 6 -16q8 -9 19 -9q26 0 75 36q34 27 50 39l76 -111
q-55 -41 -80.5 -69z" />
    <glyph glyph-name="uni2077" unicode="&#x2077;" horiz-adv-x="429" 
d="M105 453q-18 51 -34.5 82t-52.5 88l112 80q39 -61 53.5 -100t31.5 -130q18 91 32.5 129.5t50.5 98.5l113 -78q-36 -57 -52 -88t-34 -82t-56 -176h-106q-40 125 -58 176z" />
    <glyph glyph-name="uni2078" unicode="&#x2078;" horiz-adv-x="429" 
d="M324 531q18 -51 34.5 -82t52.5 -88l-112 -80q-39 61 -53.5 100t-31.5 130q-18 -91 -32.5 -129.5t-50.5 -98.5l-113 78q36 57 52 88t34 82t56 176h106q40 -125 58 -176z" />
    <glyph glyph-name="uni2079" unicode="&#x2079;" horiz-adv-x="349" 
d="M191 325q-2 24 -3 76h-27q-69 0 -106 37.5t-37 106.5q0 80 37 124t106 44q73 0 111.5 -47t38.5 -140q0 -122 2 -155t12 -79l-127 -21q-5 30 -7 54zM139.5 541q6.5 -6 21.5 -6h26v23q0 30 -26 30q-14 0 -21 -8t-7 -20q0 -13 6.5 -19z" />
    <glyph glyph-name="uni2080" unicode="&#x2080;" horiz-adv-x="353" 
d="M112.5 72.5q-29.5 17.5 -47 47t-17.5 63.5t17.5 63.5t47 47t63.5 17.5q35 0 64.5 -17t47 -46.5t17.5 -64.5q0 -34 -17.5 -63.5t-47.5 -47t-64 -17.5t-63.5 17.5zM156 162q9 -9 20 -9q13 0 21.5 9t8.5 21t-8.5 21t-21.5 9q-11 0 -20 -9t-9 -21t9 -21z" />
    <glyph glyph-name="uni2081" unicode="&#x2081;" horiz-adv-x="221" 
d="M182.5 292q8.5 -51 8.5 -104l-1 -74l-1 -114h-132l1 114l1 65q0 50 -6.5 87t-28.5 99l125 50q25 -72 33.5 -123z" />
    <glyph glyph-name="uni2082" unicode="&#x2082;" horiz-adv-x="380" 
d="M177 318q3 -9 8 -11.5t16 -2.5q21 0 19 17l-11 75l126 20l13 -94q2 -18 2 -26q0 -44 -20.5 -76t-54 -49t-72.5 -17h-12q-1 -12 -1 -40l-1 -114h-132l1 114l1 65q0 50 -6.5 87t-28.5 99l125 50q18 -53 28 -97z" />
    <glyph glyph-name="uni2083" unicode="&#x2083;" horiz-adv-x="501" 
d="M178 316q3 -8 7 -11.5t10 -3.5q16 0 13 24l-10 54l121 20l11 -73q2 -15 5 -20t10 -5q9 0 12.5 5t1.5 12l-10 66l119 22l13 -81q2 -10 2 -30q0 -62 -38 -101.5t-98 -39.5q-40 0 -67 27q-35 -27 -78 -27h-11q-1 -13 -1 -40l-1 -114h-132l1 114l1 65q0 50 -6.5 87t-28.5 99
l125 50q21 -61 29 -99z" />
    <glyph glyph-name="uni2084" unicode="&#x2084;" horiz-adv-x="497" 
d="M177 318q10 -37 24 -50q-1 3 -1 9q-2 43 18.5 80t56 59t77.5 22q31 0 52 -8.5t52 -27.5q7 -5 12.5 -8t10.5 -6l-57 -111q-31 18 -42.5 23t-24.5 5q-14 0 -23.5 -9.5t-9.5 -21.5q2 -31 81 -33h62l-1 -137h-50v0h-10q-83 1 -132 4.5t-82 13.5v-8l-1 -114h-132l1 114l1 65
q0 50 -6.5 87t-28.5 99l125 50q18 -53 28 -97z" />
    <glyph glyph-name="uni2085" unicode="&#x2085;" horiz-adv-x="418" 
d="M265 119q2 -1 8 -1q8 0 13.5 6.5t5.5 18.5q0 27 -24 56.5t-72 67.5q-35 -33 -53 -65t-18 -56q0 -29 19 -29q10 0 16 8t3 25l99 13q3 -15 3 -44zM39 232q24 53 69 99l-13 9l76 97q122 -81 177 -159.5t55 -144.5q0 -62 -34.5 -100.5t-85.5 -38.5q-37 0 -67 27
q-34 -26 -82 -26q-31 0 -58.5 17t-44 47.5t-16.5 71.5q0 48 24 101z" />
    <glyph glyph-name="uni2086" unicode="&#x2086;" horiz-adv-x="402" 
d="M297.5 149q-25.5 -28 -60.5 -80l-28 -40l-41 -57l-110 74l42 57q-1 -2 29 42q-43 15 -69 46q-35 42 -35 99q0 35 15 67.5t44 53.5q25 19 48 25t62 10l21 2l22 -124q-38 -4 -50.5 -7t-23.5 -13q-11 -11 -11 -25q0 -8 6 -16q8 -9 19 -9q26 0 75 36q34 27 50 39l76 -111
q-55 -41 -80.5 -69z" />
    <glyph glyph-name="uni2087" unicode="&#x2087;" horiz-adv-x="429" 
d="M105 168q-18 51 -34.5 82t-52.5 88l112 80q39 -61 53.5 -100t31.5 -130q18 91 32.5 129.5t50.5 98.5l113 -78q-36 -57 -52 -88t-34 -82t-56 -176h-106q-40 125 -58 176z" />
    <glyph glyph-name="uni2088" unicode="&#x2088;" horiz-adv-x="429" 
d="M324 246q18 -51 34.5 -82t52.5 -88l-112 -80q-39 61 -53.5 100t-31.5 130q-18 -91 -32.5 -129.5t-50.5 -98.5l-113 78q36 57 52 88t34 82t56 176h106q40 -125 58 -176z" />
    <glyph glyph-name="uni2089" unicode="&#x2089;" horiz-adv-x="349" 
d="M191 40q-2 24 -3 76h-27q-69 0 -106 37.5t-37 106.5q0 80 37 124t106 44q73 0 111.5 -47t38.5 -140q0 -122 2 -155t12 -79l-127 -21q-5 30 -7 54zM139.5 256q6.5 -6 21.5 -6h26v23q0 30 -26 30q-14 0 -21 -8t-7 -20q0 -13 6.5 -19z" />
    <glyph glyph-name="trademark" unicode="&#x2122;" horiz-adv-x="634" 
d="M494 552l-31 -114h-52l-32 117l-3 -117h-89v281h106l44 -150l49 150h100v-281h-90zM44 719h224v-73h-59v-206h-102v206h-63v73z" />
    <glyph glyph-name="partialdiff" unicode="&#x2202;" horiz-adv-x="636" 
d="M178 0q-64 35 -99 100t-35 152v7q0 82 32.5 144.5t92 96.5t139.5 34q45 0 82 -15q-7 42 -37 64t-68 22q-42 0 -68 -8t-60 -26l-42 154q80 55 184 55q96 0 167 -48t109.5 -139t38.5 -217v-54q0 -108 -35 -188.5t-99.5 -124.5t-151.5 -44q-86 0 -150 35zM281.5 163
q13.5 -21 46.5 -21t47.5 28.5t14.5 98.5v54q-13 19 -27 26.5t-34 7.5q-33 0 -47 -23t-14 -80v-15q0 -55 13.5 -76z" />
    <glyph glyph-name="product" unicode="&#x220f;" horiz-adv-x="750" 
d="M673 -104h-226v667h-144v-667h-226v840h596v-840z" />
    <glyph glyph-name="summation" unicode="&#x2211;" horiz-adv-x="705" 
d="M523 278l-189 -258h338v-177h-650v106l262 345l-262 337v105h644v-177h-329l186 -249v-32z" />
    <glyph glyph-name="minus" unicode="&#x2212;" horiz-adv-x="599" 
d="M544 257h-440v179h440v-179z" />
    <glyph glyph-name="uni2215" unicode="&#x2215;" horiz-adv-x="680" 
d="M379 787l190 -57l-270 -846l-188 57z" />
    <glyph glyph-name="radical" unicode="&#x221a;" horiz-adv-x="622" 
d="M312 270l107 466h181l-184 -742h-193l-78 218h-123v178h258z" />
    <glyph glyph-name="infinity" unicode="&#x221e;" horiz-adv-x="1116" 
d="M181.5 2.5q-65.5 37.5 -101.5 105.5t-36 156q0 48 19 115t82.5 125.5t185.5 58.5q68 0 125 -29t101 -85q43 55 101 84.5t126 29.5q86 0 151.5 -37.5t101 -105t35.5 -156.5q0 -48 -22 -116.5t-86.5 -125.5t-180.5 -57q-68 0 -126 30.5t-100 87.5q-44 -58 -101 -88
t-124 -30q-85 0 -150.5 37.5zM342 147q49 0 102 122q-19 47 -46.5 79.5t-56.5 32.5q-78 0 -78 -117t79 -117zM720.5 182.5q27.5 -35.5 52.5 -35.5q79 0 79 117q0 58 -20.5 87.5t-57.5 29.5q-51 0 -101 -112q20 -51 47.5 -86.5z" />
    <glyph glyph-name="integral" unicode="&#x222b;" horiz-adv-x="393" 
d="M248.5 -179q-60.5 -59 -169.5 -59q-55 0 -123 21l28 154q9 -2 28 -8t31 -6q20 0 30.5 13t10.5 46v589q0 102 62 158.5t176 56.5q46 0 115 -18l-28 -154q-16 5 -32.5 9.5t-27.5 4.5q-19 0 -29.5 -13t-10.5 -46v-581q0 -108 -60.5 -167z" />
    <glyph glyph-name="approxequal" unicode="&#x2248;" horiz-adv-x="583" 
d="M103.5 507q31.5 12 65.5 12q38 0 63.5 -8.5t59.5 -26.5q32 -18 57.5 -26.5t62.5 -8.5q64 0 109 46v-153q-25 -27 -49 -39.5t-55 -12.5q-26 0 -49 7.5t-59 24.5q-38 18 -65.5 27.5t-60.5 9.5q-40 0 -76.5 -12t-57.5 -38v163q23 23 54.5 35zM49 248q24 24 56 38t64 14
q39 0 68 -9.5t65 -27.5q33 -17 56 -25t54 -8q34 0 60 10t49 38v-165q-23 -24 -46.5 -34t-57.5 -10q-32 0 -57 8.5t-59 25.5q-36 18 -63.5 27t-62.5 8q-33 0 -68.5 -14.5t-57.5 -35.5v160z" />
    <glyph glyph-name="notequal" unicode="&#x2260;" horiz-adv-x="585" 
d="M545 113h-286l-57 -112l-115 55l29 57h-83v171h169l26 48h-195v172h283l56 107l115 -57l-26 -50h84v-172h-172l-22 -48h194v-171z" />
    <glyph glyph-name="lessequal" unicode="&#x2264;" horiz-adv-x="558" 
d="M293 426l221 -58v-188l-439 163v164l439 163v-187zM74 180h440v-179h-440v179z" />
    <glyph glyph-name="greaterequal" unicode="&#x2265;" horiz-adv-x="558" 
d="M265 428l-221 57v187l439 -163v-164l-439 -163v188zM44 180h440v-179h-440v179z" />
    <glyph glyph-name="uniFBB2" unicode="&#xfbb2;" 
d="M101 415q62 0 92 -1v-179h-185v180h93z" />
    <glyph glyph-name="uniFBB3" unicode="&#xfbb3;" 
d="M101 -69q62 0 92 -1v-179h-185v180h93z" />
    <glyph glyph-name="uniFBB4" unicode="&#xfbb4;" 
d="M66 424h110h2h165v-167h-165h-2h-165v167h55z" />
    <glyph glyph-name="uniFBB5" unicode="&#xfbb5;" 
d="M60 -31h110h2h165v-167h-165h-2h-165v167h55z" />
    <glyph glyph-name="uniFBB6" unicode="&#xfbb6;" 
d="M259 522v-144h-160v144h160zM13 326h55h110h2h165v-167h-165h-2h-165v167z" />
    <glyph glyph-name="uniFBB9" unicode="&#xfbb9;" 
d="M100 -261h160v-144h-160v144zM14 -42h165h2h165v-167h-165h-2h-110h-55v167z" />
    <glyph glyph-name="uniFD3E" unicode="&#xfd3e;" horiz-adv-x="491" 
d="M312 519q-58 -104 -58 -223q0 -126 56 -225t138 -171l-138 -147q-69 60 -125.5 125t-103.5 172.5t-47 245.5q0 302 276 543l138 -147q-78 -69 -136 -173z" />
    <glyph glyph-name="uniFD3F" unicode="&#xfd3f;" horiz-adv-x="491" 
d="M457 296q0 -138 -47 -245.5t-103.5 -172.5t-125.5 -125l-138 147q82 72 138 171t56 225q0 119 -58 223t-136 173l138 147q276 -241 276 -543z" />
    <glyph glyph-name="uniFEFF" unicode="&#xfeff;" 
 />
    <glyph glyph-name="uni0627.001" horiz-adv-x="320" 
d="M58 598h220v-598h-220v598z" />
    <glyph glyph-name="uni0627.002" horiz-adv-x="310" 
d="M50 742h220v-707h-220v707z" />
    <glyph glyph-name="uni0627.fina.001" horiz-adv-x="349" 
d="M163 36.5q-57 36.5 -85 97.5t-28 135v329h220v-323q0 -13 5.5 -19t18.5 -6h60l10 -129l-10 -121h-50q-84 0 -141 36.5z" />
    <glyph glyph-name="uni066E.medi.001" horiz-adv-x="403" 
d="M358 388v-113q0 -15 5 -20t19 -5h26l9 -129l-9 -121h-39q-72 0 -130 43q-62 -43 -129 -43h-115v250h113q19 0 24.5 5t5.5 20v113h220z" />
    <glyph glyph-name="uni066E.init.001" horiz-adv-x="439" 
d="M-5 250h116q33 0 46 11t9 34q-7 46 -20 117l208 53q35 -149 35 -218q0 -62 -26.5 -118.5t-80.5 -92.5t-131 -36h-156v250z" />
    <glyph glyph-name="uni0628.medi.alt" horiz-adv-x="362" 
d="M331 388v-113q0 -15 5 -20t19 -5h12l10 -127l-10 -123h-25q-72 0 -130 43q-62 -43 -129 -43h-88v250h86q19 0 24.5 5t5.5 20v113h220zM38 -74h93q62 0 92 -1v-179h-185v180z" />
    <glyph glyph-name="uni0628.init.alt" horiz-adv-x="415" 
d="M-5 250h92q33 0 46 11t9 34q-7 46 -20 117l208 53q35 -149 35 -218q0 -60 -29.5 -117.5t-83.5 -93.5t-125 -36h-132v250zM34 -74h93q62 0 92 -1v-179h-185v180z" />
    <glyph glyph-name="uni067E.medi.alt" horiz-adv-x="403" 
d="M358 388v-113q0 -15 5 -20t19 -5h26l9 -129l-9 -121h-39q-72 0 -130 43q-62 -43 -129 -43h-115v250h113q19 0 24.5 5t5.5 20v113h220zM15 -77h165h2h165v-167h-165h-2h-110h-55v167zM101 -296h160v-144h-160v144z" />
    <glyph glyph-name="uni067E.init.alt" horiz-adv-x="473" 
d="M-5 250h150q33 0 46 11t9 34q-7 46 -20 117l208 53q35 -149 35 -218q0 -62 -26.5 -118.5t-80.5 -92.5t-131 -36h-190v250zM23 -76h165h2h165v-167h-165h-2h-110h-55v167zM109 -295h160v-144h-160v144z" />
    <glyph glyph-name="uni062A.medi.alt" horiz-adv-x="433" 
d="M388 388v-113q0 -15 5 -20t19 -5h26l9 -129l-9 -121h-39q-72 0 -130 43q-62 -43 -129 -43h-144v250h142q19 0 24.5 5t5.5 20v113h220zM56 638h55h110h2h165v-167h-165h-2h-165v167z" />
    <glyph glyph-name="uni062A.init.alt" horiz-adv-x="469" 
d="M-4 250h145q33 0 46 11t9 34q-7 46 -20 117l208 53q35 -149 35 -218q0 -62 -26.5 -118.5t-80.5 -92.5t-131 -36h-185v250zM66 689h55h110h2h165v-167h-165h-2h-165v167z" />
    <glyph glyph-name="uni062B.medi.alt" horiz-adv-x="433" 
d="M388 388v-113q0 -15 5 -20t19 -5h26l9 -129l-9 -121h-39q-72 0 -130 43q-62 -43 -129 -43h-144v250h142q19 0 24.5 5t5.5 20v113h220zM57 638h55h110h2h165v-167h-165h-2h-165v167zM143 834h160v-144h-160v144z" />
    <glyph glyph-name="uni062B.init.alt" horiz-adv-x="479" 
d="M-5 250h156q33 0 46 11t9 34q-7 46 -20 117l208 53q35 -149 35 -218q0 -62 -26.5 -118.5t-80.5 -92.5t-131 -36h-196v250zM69 691h55h110h2h165v-167h-165h-2h-165v167zM155 887h160v-144h-160v144z" />
    <glyph glyph-name="uni062D.fina.001" horiz-adv-x="765" 
d="M659 -249h-268q-122 0 -204 47.5t-120 153.5q-17 48 -17 97q0 90 54.5 166.5t159.5 115.5l240 89q-55 11 -123.5 21.5t-79.5 10.5q-28 0 -46 -39l-177 64q32 100 87 149.5t135 49.5q42 0 110 -21.5t198 -69.5q30 -12 90 -34l17 -252l-405 -173q-29 -12 -43 -30t-14 -38
q0 -10 3 -19q8 -24 29 -31.5t56 -7.5h318v-249z" />
    <glyph glyph-name="uni0631.003" horiz-adv-x="431" 
d="M304.5 54.5q-47.5 54.5 -78.5 151.5l113 69q13 -48 32 -67.5t54 -19.5h11v-188h-11q-73 0 -120.5 54.5z" />
    <glyph glyph-name="uni0643.init.alt" horiz-adv-x="912" 
d="M169.5 31.5q-56.5 31.5 -88 88t-31.5 130.5q0 33 6 67q12 62 29 123l205 -62q-15 -57 -21 -88q-1 -4 -1 -12q0 -28 34 -28h324l-198 204l36 224l355 156l88 -228l-210 -93l100 -102q35 -36 52.5 -81t17.5 -93q0 -61 -28 -115.5t-81 -88t-125 -33.5h-334
q-73 0 -129.5 31.5z" />
    <glyph glyph-name="uni0644.001" horiz-adv-x="798" 
d="M200 -203q-76 46 -113 123.5t-37 172.5q0 60 19 127t45 119l190 -89q-15 -34 -26.5 -79t-11.5 -77q0 -48 28 -71t92 -23h29q46 0 70 7t33.5 23t9.5 47v666h220v-665q0 -148 -82 -237.5t-251 -89.5h-29q-110 0 -186 46z" />
    <glyph glyph-name="uni0649.fina.001" horiz-adv-x="837" 
d="M285 179.5q-17 -57.5 -17 -96.5q0 -48 26.5 -70.5t87.5 -22.5h197q47 0 47 16q0 9 -15 13t-32 4h-167v227h430l10 -125l-10 -125h-24q-4 -35 -10 -52q-25 -90 -103 -143.5t-218 -53.5h-105q-108 0 -182.5 46t-112 123.5t-37.5 172.5q0 66 23.5 140.5t51.5 128.5l196 -87
q-19 -38 -36 -95.5z" />
    <glyph glyph-name="uni064A.fina.001" horiz-adv-x="837" 
d="M285 179.5q-17 -57.5 -17 -96.5q0 -48 26.5 -70.5t87.5 -22.5h197q47 0 47 16q0 9 -15 13t-32 4h-167v227h430l10 -125l-10 -125h-24q-4 -35 -10 -52q-25 -90 -103 -143.5t-218 -53.5h-105q-108 0 -182.5 46t-112 123.5t-37.5 172.5q0 66 23.5 140.5t51.5 128.5l196 -87
q-19 -38 -36 -95.5z" />
    <glyph glyph-name="uni064A.medi.alt" horiz-adv-x="403" 
d="M358 388v-113q0 -15 5 -20t19 -5h26l9 -129l-9 -121h-39q-72 0 -130 43q-62 -43 -129 -43h-115v250h113q19 0 24.5 5t5.5 20v113h220zM8 -76h55h110h2h165v-167h-165h-2h-165v167z" />
    <glyph glyph-name="uni064A.init.alt" horiz-adv-x="485" 
d="M-5 250h162q33 0 46 11t9 34q-7 46 -20 117l208 53q35 -149 35 -218q0 -62 -26.5 -118.5t-80.5 -92.5t-131 -36h-202v250zM2 -76h55h110h2h165v-167h-165h-2h-165v167z" />
    <glyph glyph-name="uni0626.fina.001" horiz-adv-x="837" 
d="M285 179.5q-17 -57.5 -17 -96.5q0 -48 26.5 -70.5t87.5 -22.5h197q47 0 47 16q0 9 -15 13t-32 4h-167v227h430l10 -125l-10 -125h-24q-4 -35 -10 -52q-25 -90 -103 -143.5t-218 -53.5h-105q-108 0 -182.5 46t-112 123.5t-37.5 172.5q0 66 23.5 140.5t51.5 128.5l196 -87
q-19 -38 -36 -95.5zM184 477l41 12q-22 29 -22 75q0 49 34.5 85t87.5 36q20 0 70 -10l-16 -92q-40 7 -57 7t-28 -9.5t-11 -22.5q0 -15 13.5 -24.5t35.5 -9.5q11 0 24 3l63 18l6 -96l-235 -68z" />
    <glyph glyph-name="uni06CE.fina.001" horiz-adv-x="837" 
d="M285 179.5q-17 -57.5 -17 -96.5q0 -48 26.5 -70.5t87.5 -22.5h197q47 0 47 16q0 9 -15 13t-32 4h-167v227h430l10 -125l-10 -125h-24q-4 -35 -10 -52q-25 -90 -103 -143.5t-218 -53.5h-105q-108 0 -182.5 46t-112 123.5t-37.5 172.5q0 66 23.5 140.5t51.5 128.5l196 -87
q-19 -38 -36 -95.5zM152 487l78 62l54 -86l54 86l78 -62l-74 -117h-115z" />
    <glyph glyph-name="uni06CE.medi.alt" horiz-adv-x="390" 
d="M33 551l78 62l54 -86l54 86l78 -62l-74 -117h-115zM-5 250h113q19 0 24.5 5t5.5 20v113h220v-113q0 -15 5 -20t19 -5h26l9 -129l-9 -121h-39q-72 0 -130 43q-62 -43 -129 -43h-115v250zM8 -76h55h110h2h165v-167h-165h-2h-165v167z" />
    <glyph glyph-name="uni06CE.init.alt" horiz-adv-x="485" 
d="M34 668l78 62l54 -86l54 86l78 -62l-74 -117h-115zM-5 250h162q33 0 46 11t9 34q-7 46 -20 117l208 53q35 -149 35 -218q0 -62 -26.5 -118.5t-80.5 -92.5t-131 -36h-202v250zM2 -76h55h110h2h165v-167h-165h-2h-165v167z" />
    <glyph glyph-name="uni06CC.fina.001" horiz-adv-x="837" 
d="M285 179.5q-17 -57.5 -17 -96.5q0 -48 26.5 -70.5t87.5 -22.5h197q47 0 47 16q0 9 -15 13t-32 4h-167v227h430l10 -125l-10 -125h-24q-4 -35 -10 -52q-25 -90 -103 -143.5t-218 -53.5h-105q-108 0 -182.5 46t-112 123.5t-37.5 172.5q0 66 23.5 140.5t51.5 128.5l196 -87
q-19 -38 -36 -95.5z" />
    <glyph glyph-name="uni06CC.medi.alt" horiz-adv-x="403" 
d="M358 388v-113q0 -15 5 -20t19 -5h26l9 -129l-9 -121h-39q-72 0 -130 43q-62 -43 -129 -43h-115v250h113q19 0 24.5 5t5.5 20v113h220zM8 -76h55h110h2h165v-167h-165h-2h-165v167z" />
    <glyph glyph-name="uni06CC.init.alt" horiz-adv-x="485" 
d="M-5 250h162q33 0 46 11t9 34q-7 46 -20 117l208 53q35 -149 35 -218q0 -62 -26.5 -118.5t-80.5 -92.5t-131 -36h-202v250zM2 -76h55h110h2h165v-167h-165h-2h-165v167z" />
    <glyph glyph-name="uni06D2.fina.alt" horiz-adv-x="490" 
d="M91 -330q-41 94 -41 193q0 105 45.5 193.5t129 141t191.5 52.5h79l10 -125l-10 -125h-79q-65 0 -100 -19.5t-43 -60.5h172v-250h-354z" />
    <glyph glyph-name="uni06D3.fina.alt" horiz-adv-x="490" 
d="M91 -330q-41 94 -41 193q0 105 45.5 193.5t129 141t191.5 52.5h79l10 -125l-10 -125h-79q-65 0 -100 -19.5t-43 -60.5h172v-250h-354zM162 369q-22 29 -22 75q0 49 34.5 85t87.5 36q20 0 70 -10l-16 -92q-40 7 -57 7t-28 -9.5t-11 -22.5q0 -15 13.5 -24.5t35.5 -9.5
q11 0 24 3l63 18l6 -96l-235 -68l-6 96z" />
    <glyph glyph-name="uni06D3.fina.alt2" horiz-adv-x="489" 
d="M91 -330q-41 94 -41 193q0 105 45.5 193.5t129 141t191.5 52.5h79l10 -125l-10 -125h-79q-65 0 -100 -19.5t-43 -60.5h360v-250h-542zM189 369q-22 29 -22 75q0 49 34.5 85t87.5 36q20 0 70 -10l-16 -92q-40 7 -57 7t-28 -9.5t-11 -22.5q0 -15 13.5 -24.5t35.5 -9.5
q11 0 24 3l63 18l6 -96l-235 -68l-6 96z" />
    <glyph glyph-name="uni0640.001" horiz-adv-x="30" 
d="M-4 250h39l10 -125l-10 -125h-39v250z" />
    <glyph glyph-name="uni06440627.001" horiz-adv-x="671" 
d="M50 250h316q14 0 24.5 11t10.5 27v454h220v-467q0 -83 -31 -145.5t-84 -96t-116 -33.5h-340v250zM274 673l22 -352l-220 -16l-22 352z" />
    <glyph glyph-name="uni06440627.fina.001" horiz-adv-x="678" 
d="M517 42q-56 -42 -127 -42h-340v250h316q14 0 24.5 11t10.5 27v454h220v-467q0 -13 5.5 -19t18.5 -6h38v-250h-28q-82 0 -138 42zM274 673l22 -352l-220 -16l-22 352z" />
    <glyph glyph-name="uni06B50627" horiz-adv-x="671" 
d="M50 250h316q14 0 24.5 11t10.5 27v454h220v-467q0 -83 -31 -145.5t-84 -96t-116 -33.5h-340v250zM270 734l26 -413l-220 -16l-26 413zM459 953l54 -86l54 86l78 -62l-74 -117h-115l-75 117z" />
    <glyph glyph-name="uni06B50627.fina" horiz-adv-x="678" 
d="M517 42q-56 -42 -127 -42h-340v250h316q14 0 24.5 11t10.5 27v454h220v-467q0 -13 5.5 -19t18.5 -6h38l10 -125l-10 -125h-28q-82 0 -138 42zM270 734l26 -413l-220 -16l-26 413zM459 953l54 -86l54 86l78 -62l-74 -117h-115l-75 117z" />
    <glyph glyph-name="uni0664.ss03" horiz-adv-x="829" 
d="M296 527q9 -31 17 -50t22 -31l-1 15q-3 72 30.5 133.5t93 98.5t129.5 37q52 0 88.5 -15t90.5 -49q9 -5 17 -10l16 -10l-96 -185q-50 29 -69.5 38t-41.5 9q-24 0 -39.5 -14.5t-15.5 -34.5q0 -54 134 -58h104l-2 -227h-83v0h-17q-134 1 -217 7t-139 22v-13l-2 -190h-220
l2 190l1 108q0 84 -11 145.5t-47 165.5l208 82q34 -98 48 -164z" />
    <glyph glyph-name="uni0665.ss03" horiz-adv-x="829" 
d="M509 198q5 -2 14 -2q13 0 22.5 11t9.5 31q0 45 -40.5 94.5t-120.5 111.5q-58 -56 -87.5 -109.5t-29.5 -93.5q0 -24 9 -35t23 -11t23 9.5t9 29.5q0 10 -1 16l165 21q7 -43 4 -73zM133 387.5q40 87.5 115 163.5l-21 15l126 162q201 -134 293 -263.5t93 -239.5
q1 -70 -25 -123.5t-72 -82.5t-102 -29q-64 0 -112 45q-55 -44 -137 -44q-52 0 -97.5 28t-73 80t-27.5 120q0 81 40 168.5z" />
    <glyph glyph-name="uni0666.ss03" horiz-adv-x="829" 
d="M607.5 280.5q-38.5 -36.5 -64.5 -70t-68 -94.5l-47 -67l-68 -96l-183 123l69 96q18 24 48 70q-35 12 -64.5 31.5t-49.5 44.5q-30 35 -45 78t-15 87q0 59 26 112.5t74 89.5q42 31 79.5 41.5t101.5 15.5l38 4l36 -206q-61 -7 -82.5 -12t-40.5 -22q-18 -16 -18 -40
q0 -16 9 -28q11 -15 32 -15q41 0 125 61v-1q45 38 83 66l127 -185q-64 -47 -102.5 -83.5z" />
    <glyph glyph-name="uni06F0.ss03" horiz-adv-x="829" 
d="M300 52.5q-49 29.5 -78.5 78.5t-29.5 106t29.5 106t78.5 78t105 29q58 0 107.5 -28.5t78.5 -77.5t29 -107q0 -57 -29.5 -106.5t-79 -78.5t-106.5 -29q-56 0 -105 29.5zM372 201.5q15 -15.5 34 -15.5q20 0 34.5 15.5t14.5 35.5t-14.5 35t-34.5 15q-19 0 -34 -15.5
t-15 -34.5q0 -20 15 -35.5z" />
    <glyph glyph-name="uni06F1.ss03" horiz-adv-x="829" 
d="M499.5 486.5q14.5 -84.5 14.5 -173.5q0 -33 -2 -123l-2 -190h-220l2 190l1 108q0 84 -11 145.5t-47 165.5l208 82q42 -120 56.5 -204.5z" />
    <glyph glyph-name="uni06F2.ss03" horiz-adv-x="829" 
d="M410 530q5 -14 13 -18.5t26 -4.5q17 0 25 7.5t6 20.5l-18 125l210 34l22 -158q3 -22 3 -43q0 -73 -34 -126.5t-90 -81.5t-120 -28q-14 0 -21 1l-1 -68l-2 -190h-220l2 190l1 108q0 84 -11 145.5t-47 165.5l208 82q30 -85 48 -161z" />
    <glyph glyph-name="uni06F3.ss03" horiz-adv-x="829" 
d="M289 532q5 -16 12 -23.5t20 -7.5q9 0 14.5 7.5t5.5 20.5q0 8 -1 12l-16 90l201 34l19 -122q4 -25 9.5 -33.5t16.5 -8.5q13 0 19 8.5t4 20.5l-17 110l198 36l21 -135q4 -23 4 -49q0 -68 -29 -121.5t-80.5 -83.5t-116.5 -30q-66 0 -112 44q-57 -44 -130 -44q-13 0 -19 1
l-1 -68l-2 -190h-220l2 190l1 108q0 84 -11 145.5t-47 165.5l208 82q31 -87 47 -159z" />
    <glyph glyph-name="uni06F4.ss03" horiz-adv-x="829" 
d="M297 527q9 -31 17 -50t22 -31l-1 15q-3 72 30.5 133.5t93 98.5t129.5 37q52 0 88.5 -15t90.5 -49q9 -5 17 -10l16 -10l-96 -185q-50 29 -69.5 38t-41.5 9q-24 0 -39.5 -14.5t-15.5 -34.5q0 -54 134 -58h104l-2 -227h-83v0h-17q-134 1 -217 7t-139 22v-13l-2 -190h-220
l2 190l1 108q0 84 -11 145.5t-47 165.5l208 82q34 -98 48 -164z" />
    <glyph glyph-name="uni06F5.ss03" horiz-adv-x="829" 
d="M506 198q5 -2 14 -2q13 0 22.5 11t9.5 31q0 45 -40.5 94.5t-120.5 111.5q-58 -56 -87.5 -109.5t-29.5 -93.5q0 -24 9 -35t23 -11t23 9.5t9 29.5q0 10 -1 16l165 21q7 -43 4 -73zM130 387.5q40 87.5 115 163.5l-21 15l126 162q201 -134 293 -263.5t93 -239.5
q1 -70 -25 -123.5t-72 -82.5t-102 -29q-64 0 -112 45q-55 -44 -137 -44q-52 0 -97.5 28t-73 80t-27.5 120q0 81 40 168.5z" />
    <glyph glyph-name="uni06F6.ss03" horiz-adv-x="829" 
d="M614.5 280.5q-38.5 -36.5 -64.5 -70t-68 -94.5l-47 -67l-68 -96l-183 123l69 96q18 24 48 70q-35 12 -64.5 31.5t-49.5 44.5q-30 35 -45 78t-15 87q0 59 26 112.5t74 89.5q42 31 79.5 41.5t101.5 15.5l38 4l36 -206q-61 -7 -82.5 -12t-40.5 -22q-18 -16 -18 -40
q0 -16 9 -28q11 -15 32 -15q41 0 125 61v-1q45 38 83 66l127 -185q-64 -47 -102.5 -83.5z" />
    <glyph glyph-name="uni06F7.ss03" horiz-adv-x="829" 
d="M228.5 281.5q-30.5 84.5 -57.5 136t-87 145.5l186 134q46 -71 68.5 -117t38 -103.5t35.5 -163.5q22 108 38 165t37 102t64 114l188 -130q-61 -95 -87.5 -146.5t-56 -136t-93.5 -294.5h-176q-67 210 -97.5 294.5z" />
    <glyph glyph-name="uni06F8.ss03" horiz-adv-x="829" 
d="M596.5 408.5q30.5 -84.5 57.5 -136t87 -145.5l-186 -134q-46 71 -68.5 117t-38 103.5t-35.5 163.5q-22 -108 -38 -165t-37 -102t-64 -114l-188 130q61 95 87.5 146.5t56 136t93.5 294.5h176q67 -210 97.5 -294.5z" />
    <glyph glyph-name="uni06F9.ss03" horiz-adv-x="829" 
d="M438.5 71.5q-3.5 38.5 -4.5 121.5h-44q-115 0 -177 63t-62 178q0 134 62 206.5t177 72.5q121 0 185 -78t64 -234q0 -143 1.5 -201.5t6 -95t16.5 -93.5l-212 -34q-9 56 -12.5 94.5zM353 426q11 -10 37 -10h43v39q0 50 -43 50q-23 0 -35.5 -13t-12.5 -34q0 -22 11 -32z" />
    <glyph glyph-name="uni06F4.urdu" horiz-adv-x="829" 
d="M296 527q9 -31 17 -50t22 -31l-1 15q-3 72 30.5 133.5t93 98.5t129.5 37q52 0 88.5 -15t90.5 -49q9 -5 17 -10l16 -10l-96 -185q-50 29 -69.5 38t-41.5 9q-24 0 -39.5 -14.5t-15.5 -34.5q0 -54 134 -58h104l-2 -227h-83v0h-17q-134 1 -217 7t-139 22v-13l-2 -190h-220
l2 190l1 108q0 84 -11 145.5t-47 165.5l208 82q34 -98 48 -164z" />
    <glyph glyph-name="uni06F7.urdu" horiz-adv-x="715" 
d="M174.5 281.5q-30.5 84.5 -57.5 136t-87 145.5l186 134q46 -71 68.5 -117t38 -103.5t35.5 -163.5q22 108 38 165t37 102t64 114l188 -130q-61 -95 -87.5 -146.5t-56 -136t-93.5 -294.5h-176q-67 210 -97.5 294.5z" />
    <glyph glyph-name="zero.ss01" horiz-adv-x="588" 
d="M188 52.5q-49 29.5 -78.5 78.5t-29.5 106t29.5 106t78.5 78t105 29q58 0 107.5 -28.5t78.5 -77.5t29 -107q0 -57 -29.5 -106.5t-79 -78.5t-106.5 -29q-56 0 -105 29.5zM260 201.5q15 -15.5 34 -15.5q20 0 34.5 15.5t14.5 35.5t-14.5 35t-34.5 15q-19 0 -34 -15.5
t-15 -34.5q0 -20 15 -35.5z" />
    <glyph glyph-name="one.ss01" horiz-adv-x="368" 
d="M304.5 486.5q14.5 -84.5 14.5 -173.5q0 -33 -2 -123l-2 -190h-220l2 190l1 108q0 84 -11 145.5t-47 165.5l208 82q42 -120 56.5 -204.5z" />
    <glyph glyph-name="two.ss01" horiz-adv-x="633" 
d="M296 530q5 -14 13 -18.5t26 -4.5q17 0 25 7.5t6 20.5l-18 125l210 34l22 -158q3 -22 3 -43q0 -73 -34 -126.5t-90 -81.5t-120 -28q-14 0 -21 1l-1 -68l-2 -190h-220l2 190l1 108q0 84 -11 145.5t-47 165.5l208 82q30 -85 48 -161z" />
    <glyph glyph-name="three.ss01" horiz-adv-x="835" 
d="M295 532q5 -16 12 -23.5t20 -7.5q9 0 14.5 7.5t5.5 20.5q0 8 -1 12l-16 90l201 34l19 -122q4 -25 9.5 -33.5t16.5 -8.5q13 0 19 8.5t4 20.5l-17 110l198 36l21 -135q4 -23 4 -49q0 -68 -29 -121.5t-80.5 -83.5t-116.5 -30q-66 0 -112 44q-57 -44 -130 -44q-13 0 -19 1
l-1 -68l-2 -190h-220l2 190l1 108q0 84 -11 145.5t-47 165.5l208 82q31 -87 47 -159z" />
    <glyph glyph-name="four.ss01" horiz-adv-x="829" 
d="M296 527q9 -31 17 -50t22 -31l-1 15q-3 72 30.5 133.5t93 98.5t129.5 37q52 0 88.5 -15t90.5 -49q9 -5 17 -10l16 -10l-96 -185q-50 29 -69.5 38t-41.5 9q-24 0 -39.5 -14.5t-15.5 -34.5q0 -54 134 -58h104l-2 -227h-83v0h-17q-134 1 -217 7t-139 22v-13l-2 -190h-220
l2 190l1 108q0 84 -11 145.5t-47 165.5l208 82q34 -98 48 -164z" />
    <glyph glyph-name="five.ss01" horiz-adv-x="696" 
d="M441 198q5 -2 14 -2q13 0 22.5 11t9.5 31q0 45 -40.5 94.5t-120.5 111.5q-58 -56 -87.5 -109.5t-29.5 -93.5q0 -24 9 -35t23 -11t23 9.5t9 29.5q0 10 -1 16l165 21q7 -43 4 -73zM65 387.5q40 87.5 115 163.5l-21 15l126 162q201 -134 293 -263.5t93 -239.5
q1 -70 -25 -123.5t-72 -82.5t-102 -29q-64 0 -112 45q-55 -44 -137 -44q-52 0 -97.5 28t-73 80t-27.5 120q0 81 40 168.5z" />
    <glyph glyph-name="six.ss01" horiz-adv-x="670" 
d="M527.5 280.5q-38.5 -36.5 -64.5 -70t-68 -94.5l-47 -67l-68 -96l-183 123l69 96q18 24 48 70q-35 12 -64.5 31.5t-49.5 44.5q-30 35 -45 78t-15 87q0 59 26 112.5t74 89.5q42 31 79.5 41.5t101.5 15.5l38 4l36 -206q-61 -7 -82.5 -12t-40.5 -22q-18 -16 -18 -40
q0 -16 9 -28q11 -15 32 -15q41 0 125 61v-1q45 38 83 66l127 -185q-64 -47 -102.5 -83.5z" />
    <glyph glyph-name="seven.ss01" horiz-adv-x="715" 
d="M174.5 281.5q-30.5 84.5 -57.5 136t-87 145.5l186 134q46 -71 68.5 -117t38 -103.5t35.5 -163.5q22 108 38 165t37 102t64 114l188 -130q-61 -95 -87.5 -146.5t-56 -136t-93.5 -294.5h-176q-67 210 -97.5 294.5z" />
    <glyph glyph-name="eight.ss01" horiz-adv-x="715" 
d="M540.5 408.5q30.5 -84.5 57.5 -136t87 -145.5l-186 -134q-46 71 -68.5 117t-38 103.5t-35.5 163.5q-22 -108 -38 -165t-37 -102t-64 -114l-188 130q61 95 87.5 146.5t56 136t93.5 294.5h176q67 -210 97.5 -294.5z" />
    <glyph glyph-name="nine.ss01" horiz-adv-x="582" 
d="M317.5 71.5q-3.5 38.5 -4.5 121.5h-44q-115 0 -177 63t-62 178q0 134 62 206.5t177 72.5q121 0 185 -78t64 -234q0 -143 1.5 -201.5t6 -95t16.5 -93.5l-212 -34q-9 56 -12.5 94.5zM232 426q11 -10 37 -10h43v39q0 50 -43 50q-23 0 -35.5 -13t-12.5 -34q0 -22 11 -32z" />
    <glyph glyph-name="zero.ss02" horiz-adv-x="588" 
d="M188 52.5q-49 29.5 -78.5 78.5t-29.5 106t29.5 106t78.5 78t105 29q58 0 107.5 -28.5t78.5 -77.5t29 -107q0 -57 -29.5 -106.5t-79 -78.5t-106.5 -29q-56 0 -105 29.5zM260 201.5q15 -15.5 34 -15.5q20 0 34.5 15.5t14.5 35.5t-14.5 35t-34.5 15q-19 0 -34 -15.5
t-15 -34.5q0 -20 15 -35.5z" />
    <glyph glyph-name="one.ss02" horiz-adv-x="368" 
d="M304.5 486.5q14.5 -84.5 14.5 -173.5q0 -33 -2 -123l-2 -190h-220l2 190l1 108q0 84 -11 145.5t-47 165.5l208 82q42 -120 56.5 -204.5z" />
    <glyph glyph-name="two.ss02" horiz-adv-x="633" 
d="M296 530q5 -14 13 -18.5t26 -4.5q17 0 25 7.5t6 20.5l-18 125l210 34l22 -158q3 -22 3 -43q0 -73 -34 -126.5t-90 -81.5t-120 -28q-14 0 -21 1l-1 -68l-2 -190h-220l2 190l1 108q0 84 -11 145.5t-47 165.5l208 82q30 -85 48 -161z" />
    <glyph glyph-name="three.ss02" horiz-adv-x="835" 
d="M295 532q5 -16 12 -23.5t20 -7.5q9 0 14.5 7.5t5.5 20.5q0 8 -1 12l-16 90l201 34l19 -122q4 -25 9.5 -33.5t16.5 -8.5q13 0 19 8.5t4 20.5l-17 110l198 36l21 -135q4 -23 4 -49q0 -68 -29 -121.5t-80.5 -83.5t-116.5 -30q-66 0 -112 44q-57 -44 -130 -44q-13 0 -19 1
l-1 -68l-2 -190h-220l2 190l1 108q0 84 -11 145.5t-47 165.5l208 82q31 -87 47 -159z" />
    <glyph glyph-name="four.ss02" horiz-adv-x="829" 
d="M296 527q9 -31 17 -50t22 -31l-1 15q-3 72 30.5 133.5t93 98.5t129.5 37q52 0 88.5 -15t90.5 -49q9 -5 17 -10l16 -10l-96 -185q-50 29 -69.5 38t-41.5 9q-24 0 -39.5 -14.5t-15.5 -34.5q0 -54 134 -58h104l-2 -227h-83v0h-17q-134 1 -217 7t-139 22v-13l-2 -190h-220
l2 190l1 108q0 84 -11 145.5t-47 165.5l208 82q34 -98 48 -164z" />
    <glyph glyph-name="five.ss02" horiz-adv-x="696" 
d="M441 198q5 -2 14 -2q13 0 22.5 11t9.5 31q0 45 -40.5 94.5t-120.5 111.5q-58 -56 -87.5 -109.5t-29.5 -93.5q0 -24 9 -35t23 -11t23 9.5t9 29.5q0 10 -1 16l165 21q7 -43 4 -73zM65 387.5q40 87.5 115 163.5l-21 15l126 162q201 -134 293 -263.5t93 -239.5
q1 -70 -25 -123.5t-72 -82.5t-102 -29q-64 0 -112 45q-55 -44 -137 -44q-52 0 -97.5 28t-73 80t-27.5 120q0 81 40 168.5z" />
    <glyph glyph-name="six.ss02" horiz-adv-x="670" 
d="M527.5 280.5q-38.5 -36.5 -64.5 -70t-68 -94.5l-47 -67l-68 -96l-183 123l69 96q18 24 48 70q-35 12 -64.5 31.5t-49.5 44.5q-30 35 -45 78t-15 87q0 59 26 112.5t74 89.5q42 31 79.5 41.5t101.5 15.5l38 4l36 -206q-61 -7 -82.5 -12t-40.5 -22q-18 -16 -18 -40
q0 -16 9 -28q11 -15 32 -15q41 0 125 61v-1q45 38 83 66l127 -185q-64 -47 -102.5 -83.5z" />
    <glyph glyph-name="seven.ss02" horiz-adv-x="715" 
d="M174.5 281.5q-30.5 84.5 -57.5 136t-87 145.5l186 134q46 -71 68.5 -117t38 -103.5t35.5 -163.5q22 108 38 165t37 102t64 114l188 -130q-61 -95 -87.5 -146.5t-56 -136t-93.5 -294.5h-176q-67 210 -97.5 294.5z" />
    <glyph glyph-name="eight.ss02" horiz-adv-x="715" 
d="M540.5 408.5q30.5 -84.5 57.5 -136t87 -145.5l-186 -134q-46 71 -68.5 117t-38 103.5t-35.5 163.5q-22 -108 -38 -165t-37 -102t-64 -114l-188 130q61 95 87.5 146.5t56 136t93.5 294.5h176q67 -210 97.5 -294.5z" />
    <glyph glyph-name="nine.ss02" horiz-adv-x="582" 
d="M317.5 71.5q-3.5 38.5 -4.5 121.5h-44q-115 0 -177 63t-62 178q0 134 62 206.5t177 72.5q121 0 185 -78t64 -234q0 -143 1.5 -201.5t6 -95t16.5 -93.5l-212 -34q-9 56 -12.5 94.5zM232 426q11 -10 37 -10h43v39q0 50 -43 50q-23 0 -35.5 -13t-12.5 -34q0 -22 11 -32z" />
    <glyph glyph-name="zero.ss03" horiz-adv-x="829" 
d="M300 52.5q-49 29.5 -78.5 78.5t-29.5 106t29.5 106t78.5 78t105 29q58 0 107.5 -28.5t78.5 -77.5t29 -107q0 -57 -29.5 -106.5t-79 -78.5t-106.5 -29q-56 0 -105 29.5zM372 201.5q15 -15.5 34 -15.5q20 0 34.5 15.5t14.5 35.5t-14.5 35t-34.5 15q-19 0 -34 -15.5
t-15 -34.5q0 -20 15 -35.5z" />
    <glyph glyph-name="one.ss03" horiz-adv-x="829" 
d="M499.5 486.5q14.5 -84.5 14.5 -173.5q0 -33 -2 -123l-2 -190h-220l2 190l1 108q0 84 -11 145.5t-47 165.5l208 82q42 -120 56.5 -204.5z" />
    <glyph glyph-name="two.ss03" horiz-adv-x="829" 
d="M410 530q5 -14 13 -18.5t26 -4.5q17 0 25 7.5t6 20.5l-18 125l210 34l22 -158q3 -22 3 -43q0 -73 -34 -126.5t-90 -81.5t-120 -28q-14 0 -21 1l-1 -68l-2 -190h-220l2 190l1 108q0 84 -11 145.5t-47 165.5l208 82q30 -85 48 -161z" />
    <glyph glyph-name="three.ss03" horiz-adv-x="829" 
d="M289 532q5 -16 12 -23.5t20 -7.5q9 0 14.5 7.5t5.5 20.5q0 8 -1 12l-16 90l201 34l19 -122q4 -25 9.5 -33.5t16.5 -8.5q13 0 19 8.5t4 20.5l-17 110l198 36l21 -135q4 -23 4 -49q0 -68 -29 -121.5t-80.5 -83.5t-116.5 -30q-66 0 -112 44q-57 -44 -130 -44q-13 0 -19 1
l-1 -68l-2 -190h-220l2 190l1 108q0 84 -11 145.5t-47 165.5l208 82q31 -87 47 -159z" />
    <glyph glyph-name="four.ss03" horiz-adv-x="829" 
d="M297 527q9 -31 17 -50t22 -31l-1 15q-3 72 30.5 133.5t93 98.5t129.5 37q52 0 88.5 -15t90.5 -49q9 -5 17 -10l16 -10l-96 -185q-50 29 -69.5 38t-41.5 9q-24 0 -39.5 -14.5t-15.5 -34.5q0 -54 134 -58h104l-2 -227h-83v0h-17q-134 1 -217 7t-139 22v-13l-2 -190h-220
l2 190l1 108q0 84 -11 145.5t-47 165.5l208 82q34 -98 48 -164z" />
    <glyph glyph-name="five.ss03" horiz-adv-x="829" 
d="M506 198q5 -2 14 -2q13 0 22.5 11t9.5 31q0 45 -40.5 94.5t-120.5 111.5q-58 -56 -87.5 -109.5t-29.5 -93.5q0 -24 9 -35t23 -11t23 9.5t9 29.5q0 10 -1 16l165 21q7 -43 4 -73zM130 387.5q40 87.5 115 163.5l-21 15l126 162q201 -134 293 -263.5t93 -239.5
q1 -70 -25 -123.5t-72 -82.5t-102 -29q-64 0 -112 45q-55 -44 -137 -44q-52 0 -97.5 28t-73 80t-27.5 120q0 81 40 168.5z" />
    <glyph glyph-name="six.ss03" horiz-adv-x="829" 
d="M614.5 280.5q-38.5 -36.5 -64.5 -70t-68 -94.5l-47 -67l-68 -96l-183 123l69 96q18 24 48 70q-35 12 -64.5 31.5t-49.5 44.5q-30 35 -45 78t-15 87q0 59 26 112.5t74 89.5q42 31 79.5 41.5t101.5 15.5l38 4l36 -206q-61 -7 -82.5 -12t-40.5 -22q-18 -16 -18 -40
q0 -16 9 -28q11 -15 32 -15q41 0 125 61v-1q45 38 83 66l127 -185q-64 -47 -102.5 -83.5z" />
    <glyph glyph-name="seven.ss03" horiz-adv-x="829" 
d="M228.5 281.5q-30.5 84.5 -57.5 136t-87 145.5l186 134q46 -71 68.5 -117t38 -103.5t35.5 -163.5q22 108 38 165t37 102t64 114l188 -130q-61 -95 -87.5 -146.5t-56 -136t-93.5 -294.5h-176q-67 210 -97.5 294.5z" />
    <glyph glyph-name="eight.ss03" horiz-adv-x="829" 
d="M596.5 408.5q30.5 -84.5 57.5 -136t87 -145.5l-186 -134q-46 71 -68.5 117t-38 103.5t-35.5 163.5q-22 -108 -38 -165t-37 -102t-64 -114l-188 130q61 95 87.5 146.5t56 136t93.5 294.5h176q67 -210 97.5 -294.5z" />
    <glyph glyph-name="nine.ss03" horiz-adv-x="829" 
d="M438.5 71.5q-3.5 38.5 -4.5 121.5h-44q-115 0 -177 63t-62 178q0 134 62 206.5t177 72.5q121 0 185 -78t64 -234q0 -143 1.5 -201.5t6 -95t16.5 -93.5l-212 -34q-9 56 -12.5 94.5zM353 426q11 -10 37 -10h43v39q0 50 -43 50q-23 0 -35.5 -13t-12.5 -34q0 -22 11 -32z" />
    <glyph glyph-name="zero.dnom" horiz-adv-x="353" 
d="M112.5 72.5q-29.5 17.5 -47 47t-17.5 63.5t17.5 63.5t47 47t63.5 17.5q35 0 64.5 -17t47 -46.5t17.5 -64.5q0 -34 -17.5 -63.5t-47.5 -47t-64 -17.5t-63.5 17.5zM156 162q9 -9 20 -9q13 0 21.5 9t8.5 21t-8.5 21t-21.5 9q-11 0 -20 -9t-9 -21t9 -21z" />
    <glyph glyph-name="one.dnom" horiz-adv-x="221" 
d="M182.5 292q8.5 -51 8.5 -104l-1 -74l-1 -114h-132l1 114l1 65q0 50 -6.5 87t-28.5 99l125 50q25 -72 33.5 -123z" />
    <glyph glyph-name="two.dnom" horiz-adv-x="380" 
d="M177 318q3 -9 8 -11.5t16 -2.5q21 0 19 17l-11 75l126 20l13 -94q2 -18 2 -26q0 -44 -20.5 -76t-54 -49t-72.5 -17h-12q-1 -12 -1 -40l-1 -114h-132l1 114l1 65q0 50 -6.5 87t-28.5 99l125 50q18 -53 28 -97z" />
    <glyph glyph-name="three.dnom" horiz-adv-x="501" 
d="M178 316q3 -8 7 -11.5t10 -3.5q16 0 13 24l-10 54l121 20l11 -73q2 -15 5 -20t10 -5q9 0 12.5 5t1.5 12l-10 66l119 22l13 -81q2 -10 2 -30q0 -62 -38 -101.5t-98 -39.5q-40 0 -67 27q-35 -27 -78 -27h-11q-1 -13 -1 -40l-1 -114h-132l1 114l1 65q0 50 -6.5 87t-28.5 99
l125 50q21 -61 29 -99z" />
    <glyph glyph-name="four.dnom" horiz-adv-x="497" 
d="M177 318q10 -37 24 -50q-1 3 -1 9q-2 43 18.5 80t56 59t77.5 22q31 0 52 -8.5t52 -27.5q7 -5 12.5 -8t10.5 -6l-57 -111q-31 18 -42.5 23t-24.5 5q-14 0 -23.5 -9.5t-9.5 -21.5q2 -31 81 -33h62l-1 -137h-50v0h-10q-83 1 -132 4.5t-82 13.5v-8l-1 -114h-132l1 114l1 65
q0 50 -6.5 87t-28.5 99l125 50q18 -53 28 -97z" />
    <glyph glyph-name="five.dnom" horiz-adv-x="418" 
d="M265 119q2 -1 8 -1q8 0 13.5 6.5t5.5 18.5q0 27 -24 56.5t-72 67.5q-35 -33 -53 -65t-18 -56q0 -29 19 -29q10 0 16 8t3 25l99 13q3 -15 3 -44zM39 232q24 53 69 99l-13 9l76 97q122 -81 177 -159.5t55 -144.5q0 -62 -34.5 -100.5t-85.5 -38.5q-37 0 -67 27
q-34 -26 -82 -26q-31 0 -58.5 17t-44 47.5t-16.5 71.5q0 48 24 101z" />
    <glyph glyph-name="six.dnom" horiz-adv-x="402" 
d="M297.5 149q-25.5 -28 -60.5 -80l-28 -40l-41 -57l-110 74l42 57q-1 -2 29 42q-43 15 -69 46q-35 42 -35 99q0 35 15 67.5t44 53.5q25 19 48 25t62 10l21 2l22 -124q-38 -4 -50.5 -7t-23.5 -13q-11 -11 -11 -25q0 -8 6 -16q8 -9 19 -9q26 0 75 36q34 27 50 39l76 -111
q-55 -41 -80.5 -69z" />
    <glyph glyph-name="seven.dnom" horiz-adv-x="429" 
d="M105 168q-18 51 -34.5 82t-52.5 88l112 80q39 -61 53.5 -100t31.5 -130q18 91 32.5 129.5t50.5 98.5l113 -78q-36 -57 -52 -88t-34 -82t-56 -176h-106q-40 125 -58 176z" />
    <glyph glyph-name="eight.dnom" horiz-adv-x="429" 
d="M324 246q18 -51 34.5 -82t52.5 -88l-112 -80q-39 61 -53.5 100t-31.5 130q-18 -91 -32.5 -129.5t-50.5 -98.5l-113 78q36 57 52 88t34 82t56 176h106q40 -125 58 -176z" />
    <glyph glyph-name="nine.dnom" horiz-adv-x="349" 
d="M191 40q-2 24 -3 76h-27q-69 0 -106 37.5t-37 106.5q0 80 37 124t106 44q73 0 111.5 -47t38.5 -140q0 -122 2 -155t12 -79l-127 -21q-5 30 -7 54zM139.5 256q6.5 -6 21.5 -6h26v23q0 30 -26 30q-14 0 -21 -8t-7 -20q0 -13 6.5 -19z" />
    <glyph glyph-name="zero.numr" horiz-adv-x="353" 
d="M112.5 357.5q-29.5 17.5 -47 47t-17.5 63.5t17.5 63.5t47 47t63.5 17.5q35 0 64.5 -17t47 -46.5t17.5 -64.5q0 -34 -17.5 -63.5t-47.5 -47t-64 -17.5t-63.5 17.5zM156 447q9 -9 20 -9q13 0 21.5 9t8.5 21t-8.5 21t-21.5 9q-11 0 -20 -9t-9 -21t9 -21z" />
    <glyph glyph-name="one.numr" horiz-adv-x="221" 
d="M182.5 577q8.5 -51 8.5 -104l-1 -74l-1 -114h-132l1 114l1 65q0 50 -6.5 87t-28.5 99l125 50q25 -72 33.5 -123z" />
    <glyph glyph-name="two.numr" horiz-adv-x="380" 
d="M177 603q3 -9 8 -11.5t16 -2.5q21 0 19 17l-11 75l126 20l13 -94q2 -18 2 -26q0 -44 -20.5 -76t-54 -49t-72.5 -17h-12q-1 -12 -1 -40l-1 -114h-132l1 114l1 65q0 50 -6.5 87t-28.5 99l125 50q18 -53 28 -97z" />
    <glyph glyph-name="three.numr" horiz-adv-x="501" 
d="M178 601q3 -8 7 -11.5t10 -3.5q16 0 13 24l-10 54l121 20l11 -73q2 -15 5 -20t10 -5q9 0 12.5 5t1.5 12l-10 66l119 22l13 -81q2 -10 2 -30q0 -62 -38 -101.5t-98 -39.5q-40 0 -67 27q-35 -27 -78 -27h-11q-1 -13 -1 -40l-1 -114h-132l1 114l1 65q0 50 -6.5 87t-28.5 99
l125 50q21 -61 29 -99z" />
    <glyph glyph-name="four.numr" horiz-adv-x="497" 
d="M177 603q10 -37 24 -50q-1 3 -1 9q-2 43 18.5 80t56 59t77.5 22q31 0 52 -8.5t52 -27.5q7 -5 12.5 -8t10.5 -6l-57 -111q-31 18 -42.5 23t-24.5 5q-14 0 -23.5 -9.5t-9.5 -21.5q2 -31 81 -33h62l-1 -137h-50v0h-10q-83 1 -132 4.5t-82 13.5v-8l-1 -114h-132l1 114l1 65
q0 50 -6.5 87t-28.5 99l125 50q18 -53 28 -97z" />
    <glyph glyph-name="five.numr" horiz-adv-x="418" 
d="M265 404q2 -1 8 -1q8 0 13.5 6.5t5.5 18.5q0 27 -24 56.5t-72 67.5q-35 -33 -53 -65t-18 -56q0 -29 19 -29q10 0 16 8t3 25l99 13q3 -15 3 -44zM39 517q24 53 69 99l-13 9l76 97q122 -81 177 -159.5t55 -144.5q0 -62 -34.5 -100.5t-85.5 -38.5q-37 0 -67 27
q-34 -26 -82 -26q-31 0 -58.5 17t-44 47.5t-16.5 71.5q0 48 24 101z" />
    <glyph glyph-name="six.numr" horiz-adv-x="402" 
d="M297.5 434q-25.5 -28 -60.5 -80l-28 -40l-41 -57l-110 74l42 57q-1 -2 29 42q-43 15 -69 46q-35 42 -35 99q0 35 15 67.5t44 53.5q25 19 48 25t62 10l21 2l22 -124q-38 -4 -50.5 -7t-23.5 -13q-11 -11 -11 -25q0 -8 6 -16q8 -9 19 -9q26 0 75 36q34 27 50 39l76 -111
q-55 -41 -80.5 -69z" />
    <glyph glyph-name="seven.numr" horiz-adv-x="429" 
d="M105 453q-18 51 -34.5 82t-52.5 88l112 80q39 -61 53.5 -100t31.5 -130q18 91 32.5 129.5t50.5 98.5l113 -78q-36 -57 -52 -88t-34 -82t-56 -176h-106q-40 125 -58 176z" />
    <glyph glyph-name="eight.numr" horiz-adv-x="429" 
d="M324 531q18 -51 34.5 -82t52.5 -88l-112 -80q-39 61 -53.5 100t-31.5 130q-18 -91 -32.5 -129.5t-50.5 -98.5l-113 78q36 57 52 88t34 82t56 176h106q40 -125 58 -176z" />
    <glyph glyph-name="nine.numr" horiz-adv-x="349" 
d="M191 325q-2 24 -3 76h-27q-69 0 -106 37.5t-37 106.5q0 80 37 124t106 44q73 0 111.5 -47t38.5 -140q0 -122 2 -155t12 -79l-127 -21q-5 30 -7 54zM139.5 541q6.5 -6 21.5 -6h26v23q0 30 -26 30q-14 0 -21 -8t-7 -20q0 -13 6.5 -19z" />
    <glyph glyph-name="period.001" 
d="M75.5 582.5q-36.5 38.5 -36.5 95.5q0 54 36.5 90.5t93.5 36.5q56 0 93.5 -36.5t37.5 -90.5q0 -57 -37.5 -95.5t-93.5 -38.5q-57 0 -93.5 38.5z" />
    <glyph glyph-name="dotcenter-ar" 
d="M101 -23q62 0 92 -1v-179h-185v180h93z" />
    <glyph glyph-name="twodotshorizontalabove-ar.001" 
d="M87 419l94 -94l-63 -63l-31 -31l-31 31l-63 63z" />
    <glyph glyph-name="threedotsdownbelow-ar.001" 
d="M92 411l88 -88l-88 -89l-89 89z" />
    <glyph glyph-name="threedotsupabove-ar.002" 
d="M81 398l78 -77l-78 -77l-51 51l-26 26z" />
    <glyph glyph-name="wasla-ar" 
d="M61 611l17 -22l23 35q28 41 54.5 62t62.5 21q48 0 79 -39t31 -94q0 -53 -31 -89.5t-84 -36.5h-51q-41 0 -66 11t-43.5 31t-55.5 69zM162 548h51q23 0 29 4.5t6 21.5q0 20 -5.5 26.5t-24.5 6.5q-15 0 -25 -7.5t-26 -31.5l-14 -20h9z" />
    <glyph glyph-name="miniKeheh-ar" 
d="M11 35h72l-63 65l12 70l111 49l28 -71l-66 -30l31 -32q22 -22 22 -55q0 -30 -19.5 -52t-53.5 -22h-83z" />
    <glyph glyph-name="gafsarkashabove-ar" 
d="M-14 491l290 136l32 -73l-329 -154z" />
    <glyph glyph-name="gafsarkashabove-ar.001" 
d="M-142 656l177 247l64 -48l-202 -282z" />
    <glyph glyph-name="uni0654064F" 
d="M12 548l41 12q-22 29 -22 75q0 49 34.5 85t87.5 36q20 0 70 -10l-16 -92q-40 7 -57 7t-28 -9.5t-11 -22.5q0 -15 13.5 -24.5t35.5 -9.5q11 0 24 3l63 18l6 -96l-235 -68zM46 853q-1 2 -8 18q-7 18 -7 40q0 37 21.5 67t58.5 42q27 8 49 8q36 0 62 -19t38 -55q6 -18 6 -37
q0 -37 -23 -68.5t-65 -46.5l-150 -53l-28 88zM121 878l32 11q34 12 34 31q0 3 -2 9q-7 15 -24 15q-10 0 -25 -6t-22 -17t-4 -20t11 -23z" />
    <glyph glyph-name="uni0654064C" 
d="M-19 544l41 12q-22 29 -22 75q0 49 34.5 85t87.5 36q20 0 70 -10l-16 -92q-40 7 -57 7t-28 -9.5t-11 -22.5q0 -15 13.5 -24.5t35.5 -9.5q11 0 24 3l63 18l6 -96l-235 -68zM-72 941q0 54 27.5 99.5t78.5 68.5l42 -70q-34 -18 -52 -46.5t-18 -62.5q0 -36 17 -67l-68 -26
q-27 51 -27 104zM55 859q-1 2 -8 18q-7 18 -7 40q0 37 21.5 67t58.5 42q27 8 49 8q36 0 62 -19t38 -55q6 -18 6 -37q0 -37 -23 -68.5t-65 -46.5l-150 -53l-28 88zM130 884l32 11q34 12 34 31q0 3 -2 9q-7 15 -24 15q-10 0 -25 -6t-22 -17t-4 -20t11 -23z" />
    <glyph glyph-name="uni0654064E" 
d="M-19 549l41 12q-22 29 -22 75q0 49 34.5 85t87.5 36q20 0 70 -10l-16 -92q-40 7 -57 7t-28 -9.5t-11 -22.5q0 -15 13.5 -24.5t35.5 -9.5q11 0 24 3l63 18l6 -96l-235 -68zM-11 850l225 67v-96l-225 -67v96z" />
    <glyph glyph-name="uni0654064B" 
d="M-21 548l41 12q-22 29 -22 75q0 49 34.5 85t87.5 36q20 0 70 -10l-16 -92q-40 7 -57 7t-28 -9.5t-11 -22.5q0 -15 13.5 -24.5t35.5 -9.5q11 0 24 3l63 18l6 -96l-235 -68zM-13 846l225 67v-96l-225 -67v96zM-13 967l225 67v-96l-225 -67v96z" />
    <glyph glyph-name="uni06540652" 
d="M-34 548l41 12q-22 29 -22 75q0 49 34.5 85t87.5 36q20 0 70 -10l-16 -92q-40 7 -57 7t-28 -9.5t-11 -22.5q0 -15 13.5 -24.5t35.5 -9.5q11 0 24 3l63 18l6 -96l-235 -68zM5.5 942.5q12.5 25.5 33.5 42t44 16.5q28 1 50.5 -16t34.5 -44.5t12 -56.5q0 -42 -27 -73.5
t-69 -31.5q-42 1 -66.5 34.5t-24.5 76.5q0 27 12.5 52.5zM59.5 863q10.5 -11 25.5 -11q18 0 29.5 10.5t11.5 25.5q0 16 -12 28t-29 12q-15 0 -25.5 -12.5t-10.5 -27.5q0 -14 10.5 -25z" />
    <glyph glyph-name="uni06550650" 
d="M-23 -195l41 12q-22 29 -22 75q0 49 34.5 85t87.5 36q20 0 70 -10l-16 -92q-40 7 -57 7t-28 -9.5t-11 -22.5q0 -15 13.5 -24.5t35.5 -9.5q11 0 24 3l63 18l6 -96l-235 -68zM-15 -327l225 67v-96l-225 -67v96z" />
    <glyph glyph-name="uni0655064D" 
d="M-32 -161l41 12q-22 29 -22 75q0 49 34.5 85t87.5 36q20 0 70 -10l-16 -92q-40 7 -57 7t-28 -9.5t-11 -22.5q0 -15 13.5 -24.5t35.5 -9.5q11 0 24 3l63 18l6 -96l-235 -68zM-24 -411l225 67v-96l-225 -67v96zM-24 -290l225 67v-96l-225 -67v96z" />
    <glyph glyph-name="uni0651064B" 
d="M37 569v-36q0 -20 19 -20q20 0 20 21v36l79 -1v-36q0 -20 19 -20q9 0 15 6t5 14q-1 9 -3.5 18.5t-5.5 24.5l76 22q2 -10 7.5 -34t5.5 -42q0 -46 -26 -77.5t-77 -31.5q-17 0 -32 5.5t-24 15.5q-9 -10 -25 -15.5t-34 -5.5q-41 0 -70 27t-29 80v49h80zM3 707l225 67v-96
l-225 -67v96zM3 828l225 67v-96l-225 -67v96z" />
    <glyph glyph-name="uni0651064C" 
d="M14 572v-36q0 -20 19 -20q20 0 20 21v36l79 -1v-36q0 -20 19 -20q9 0 15 6t5 14q-1 9 -3.5 18.5t-5.5 24.5l76 22q2 -10 7.5 -34t5.5 -42q0 -46 -26 -77.5t-77 -31.5q-17 0 -32 5.5t-24 15.5q-9 -10 -25 -15.5t-34 -5.5q-41 0 -70 27t-29 80v49h80zM-80 785
q0 54 27.5 99.5t78.5 68.5l42 -70q-34 -18 -52 -46.5t-18 -62.5q0 -36 17 -67l-68 -26q-27 51 -27 104zM47 703q-1 2 -8 18q-7 18 -7 40q0 37 21.5 67t58.5 42q27 8 49 8q36 0 62 -19t38 -55q6 -18 6 -37q0 -37 -23 -68.5t-65 -46.5l-150 -53l-28 88zM122 728l32 11
q34 12 34 31q0 3 -2 9q-7 15 -24 15q-10 0 -25 -6t-22 -17t-4 -20t11 -23z" />
    <glyph glyph-name="uni0651064D" 
d="M27 777v-36q0 -20 19 -20q20 0 20 21v36l79 -1v-36q0 -20 19 -20q9 0 15 6t5 14q-1 9 -3.5 18.5t-5.5 24.5l76 22q2 -10 7.5 -34t5.5 -42q0 -46 -26 -77.5t-77 -31.5q-17 0 -32 5.5t-24 15.5q-9 -10 -25 -15.5t-34 -5.5q-41 0 -70 27t-29 80v49h80zM-7 424l225 67v-96
l-225 -67v96zM-7 545l225 67v-96l-225 -67v96z" />
    <glyph glyph-name="uni0651064E" 
d="M30 575v-36q0 -20 19 -20q20 0 20 21v36l79 -1v-36q0 -20 19 -20q9 0 15 6t5 14q-1 9 -3.5 18.5t-5.5 24.5l76 22q2 -10 7.5 -34t5.5 -42q0 -46 -26 -77.5t-77 -31.5q-17 0 -32 5.5t-24 15.5q-9 -10 -25 -15.5t-34 -5.5q-41 0 -70 27t-29 80v49h80zM-4 704l225 67v-96
l-225 -67v96z" />
    <glyph glyph-name="uni0651064F" 
d="M28 575v-36q0 -20 19 -20q20 0 20 21v36l79 -1v-36q0 -20 19 -20q9 0 15 6t5 14q-1 9 -3.5 18.5t-5.5 24.5l76 22q2 -10 7.5 -34t5.5 -42q0 -46 -26 -77.5t-77 -31.5q-17 0 -32 5.5t-24 15.5q-9 -10 -25 -15.5t-34 -5.5q-41 0 -70 27t-29 80v49h80zM20 702q-1 2 -8 18
q-7 18 -7 40q0 37 21.5 67t58.5 42q27 8 49 8q36 0 62 -19t38 -55q6 -18 6 -37q0 -37 -23 -68.5t-65 -46.5l-150 -53l-28 88zM95 727l32 11q34 12 34 31q0 3 -2 9q-7 15 -24 15q-10 0 -25 -6t-22 -17t-4 -20t11 -23z" />
    <glyph glyph-name="uni06510650" 
d="M-5 478l225 67v-96l-225 -67v96zM-56 707h80v-36q0 -20 19 -20q20 0 20 21v36l79 -1v-36q0 -20 19 -20q9 0 15 6t5 14q-1 9 -3.5 18.5t-5.5 24.5l76 22q2 -10 7.5 -34t5.5 -42q0 -46 -26 -77.5t-77 -31.5q-17 0 -32 5.5t-24 15.5q-9 -10 -25 -15.5t-34 -5.5q-41 0 -70 27
t-29 80v49z" />
    <glyph glyph-name="uni06510670" 
d="M25 572v-36q0 -20 19 -20q20 0 20 21v36l79 -1v-36q0 -20 19 -20q9 0 15 6t5 14q-1 9 -3.5 18.5t-5.5 24.5l76 22q2 -10 7.5 -34t5.5 -42q0 -46 -26 -77.5t-77 -31.5q-17 0 -32 5.5t-24 15.5q-9 -10 -25 -15.5t-34 -5.5q-41 0 -70 27t-29 80v49h80zM64 768h80v-153h-80
v153z" />
    <glyph glyph-name="uni0653.001" 
d="M-22.5 791.5q47.5 38.5 128.5 38.5h214v-170h-214q-34 0 -52.5 -7.5t-32.5 -31.5l-121 61q30 71 77.5 109.5z" />
    <glyph glyph-name="sareya-ar" 
d="M-62 550l74 -15q14 -3 24 -3q40 0 46 34l-112 26q-18 36 -18 74q0 41 19.5 77t53 58.5t73.5 23.5q37 0 59 -11l-17 -92q-15 5 -34 5q-26 0 -49 -15t-24 -35l92 -26q23 -6 32 -20t9 -34q0 -38 -16.5 -75.5t-48.5 -62.5t-78 -25q-15 0 -30 3l-76 14z" />
    </font>
</defs>
</svg>
